<svg width="78" height="84" viewBox="0 0 78 84" fill="none" xmlns="http://www.w3.org/2000/svg">
<path d="M40.4372 6.77843L35.2747 22.3646C45.3994 23.6134 54.4114 30.4539 58.6745 39.6385C65.0434 53.3494 60.9296 69.6005 48.6521 78.3546C35.8843 87.4583 18.4187 85.2761 7.94442 73.7943C2.82452 68.1855 -0.0956572 60.6843 0.00239244 53.0468H7.01934C6.81898 65.1211 16.4364 75.6568 28.407 76.8118C46.1284 78.5251 59.1946 61.3151 53.1069 44.6166C50.1655 36.5486 42.4579 30.2536 33.8508 29.2904C31.2248 28.9963 28.3899 29.4566 25.8705 29.1838C25.7255 29.1668 25.6275 29.1753 25.5379 29.0346L33.0366 6.77417H40.4415L40.4372 6.77843Z" fill="#676F43"/>
<path d="M55.1573 0L50.7374 12.3248C61.6001 15.0818 70.9036 23.2327 75.1302 33.5583C77.6944 39.8299 78.5191 46.8079 77.441 53.5161H70.2765C72.4413 42.4242 68.0258 31.1011 59.1304 24.2644C53.9245 20.2617 47.7909 18.498 41.3223 17.7017L47.5976 0H55.1573Z" fill="#676F43"/>
<path d="M27.8857 14.2258H8.80664V6.77417H30.3813L30.4841 6.96904L27.8857 14.2258Z" fill="#676F43"/>
<path d="M73.8388 0V7.45161H54.8711L57.3484 0H73.8388Z" fill="#676F43"/>
</svg>
