<svg width="77" height="77" viewBox="0 0 77 77" fill="none" xmlns="http://www.w3.org/2000/svg">
<circle cx="38.5" cy="38.5" r="38.5" fill="#4B5A2A"/>
<path d="M19.5 32C19.2238 32 19 32.2238 19 32.5C19 32.7762 19.2238 33 19.5 33C19.7762 33 20 32.7762 20 32.5C20 32.2238 19.7762 32 19.5 32Z" fill="#4B5A2A"/>
<path d="M21.5 31C21.2237 31 21 31.2237 21 31.5C21 31.7763 21.2237 32 21.5 32C21.7763 32 22 31.7763 22 31.5C22 31.2237 21.7763 31 21.5 31Z" fill="#4B5A2A"/>
<path d="M22.5 29C22.2239 29 22 29.2239 22 29.5C22 29.7761 22.2239 30 22.5 30C22.7761 30 23 29.7761 23 29.5C23 29.2239 22.7761 29 22.5 29Z" fill="#4B5A2A"/>
<path d="M33 47C32.6163 47.3325 32.2942 47.659 32 48C32.3861 47.6688 32.7138 47.3395 33 47Z" fill="#4B5A2A"/>
<path d="M71.9999 37.3387V39.4326C71.9255 39.6757 71.9779 39.9638 71.9664 40.2194C71.1859 57.3926 56.7748 71.7468 39.4853 71.9602C39.4263 71.9609 39.3302 71.9379 39.2939 71.9958C38.8064 71.9861 38.3154 72.0091 37.8278 71.9958C19.1428 71.4832 4.40554 56.2178 5.01845 37.4274C5.62262 18.9045 20.9812 4.39206 39.5558 5.01961C57.2033 5.61572 71.4349 19.6389 71.9999 37.3387ZM34.1277 17.8464C34.1885 18.5064 34.0823 19.2537 34.1277 19.9232C34.3393 19.7409 34.5038 19.5052 34.6984 19.3072C34.8478 19.1549 35.3835 18.7268 35.4185 18.5438C35.5466 17.8722 34.9715 16.6727 34.8999 15.9575C34.7954 14.9168 35.5093 14.5232 36.353 14.2079C37.1276 13.9184 37.9357 13.5961 38.6489 14.1981C39.1395 14.6126 39.2094 15.3275 39.486 15.874C39.6005 15.045 39.5122 13.9924 40.4712 13.6484C40.8672 13.5063 42.189 13.5391 42.6099 13.6579C43.2381 13.8353 43.6017 14.3951 43.5874 15.0362L43.8874 14.5515C44.5687 13.7958 45.9028 14.3818 46.647 14.7862C48.1016 15.5765 47.2927 16.7006 46.9631 17.8363C46.94 17.9155 46.8709 18.0755 46.8859 18.1467C46.9194 18.3081 47.5372 18.8462 47.6888 19.0145C48.778 20.2249 49.3843 21.7576 49.5586 23.3749C49.9221 23.3424 50.2878 23.3106 50.651 23.2687C51.1828 23.2076 51.7269 23.0225 52.2428 23.2212C53.6764 23.7733 54.1272 26.2706 53.6107 27.5547C53.5814 27.6273 53.4333 27.8312 53.4661 27.8784C54.3623 28.2559 54.6874 29.5756 54.4125 30.442C55.2762 31.0657 55.4204 32.9899 54.5931 33.6674C54.1209 34.0543 53.281 34.0365 52.6968 34.1273C52.7554 34.5334 52.87 34.9333 52.8368 35.3485L57.9468 33.6077C58.0191 33.0524 58.318 32.7531 58.822 32.5558C59.5498 32.2709 60.3865 32.1085 61.1234 31.8277C61.1674 31.3517 61.414 31.0517 61.8428 30.8646L68.6165 28.6257C66.0162 20.4491 59.8697 13.5171 52.116 9.87584C41.331 4.81078 28.3772 6.17692 18.9979 13.5025C9.86754 20.6335 5.3579 32.1165 7.22141 43.633C7.34573 44.4024 7.52105 45.1689 7.70509 45.9249L13.59 44.358C14.0514 44.2917 14.5165 44.5001 14.7785 44.8804L17.1899 44.2232C17.4923 44.1921 17.7546 44.2026 18.0256 44.3482C18.2097 44.4471 18.3378 44.6077 18.5006 44.731L22.3973 43.758C22.2695 43.2244 22.105 42.7006 21.9919 42.1621C21.6063 40.3305 21.5686 38.6563 21.8874 36.809C22.1235 35.4407 22.5601 34.1151 23.1332 32.8548C23.1098 32.8153 23.0832 32.8128 23.0441 32.8034C22.3324 32.6351 21.534 32.7563 21.08 32.0449C20.72 31.4806 20.7835 30.8768 20.9162 30.2534C21.0521 29.6161 21.2937 29.0797 21.9087 28.7836C21.6936 28.2004 21.871 27.5012 22.1148 26.9495C22.457 26.1742 22.9868 25.7094 23.8795 25.7904C24.5643 25.8529 25.3613 26.082 26.0587 26.1941C26.2577 26.2259 26.4575 26.2612 26.6587 26.2751C27.0138 24.2266 27.0282 22.1551 27.0089 20.0786C27.0027 19.3878 26.8525 18.3416 27.032 17.6962C27.743 15.1393 33.8598 14.9357 34.1284 17.8464H34.1277ZM43.7491 17.7814C43.4606 18.0682 42.9528 17.9973 42.6469 17.7741C42.0448 17.3355 42.3745 15.9013 42.2963 15.228C42.2907 15.1798 42.2844 15.1337 42.2585 15.0914L42.2009 15.0443C42.0081 15.0132 41.1057 14.9213 40.9859 15.0355C40.9591 15.061 40.9426 15.1228 40.937 15.1609C40.8274 15.8981 40.9873 17.3875 40.2959 17.8352C39.9882 18.0343 39.3599 18.2002 39.025 18.0102C38.5162 17.7217 38.1442 16.1003 37.8799 15.5255C37.7828 15.3142 37.7562 15.2849 37.5121 15.3317C37.3892 15.3551 36.4326 15.7343 36.3932 15.7937C36.4005 16.1464 36.5779 16.496 36.6659 16.8441C36.8147 17.434 36.9806 18.108 36.9202 18.7184C36.8458 19.4682 35.9458 20.0891 35.4716 20.6202C33.4554 22.8769 32.8879 25.8337 33.1244 28.7965C34.0226 29.8302 34.7741 31.0231 34.9313 32.4172C35.1185 32.207 35.2631 31.9489 35.4408 31.7229C36.2923 30.639 37.517 29.9423 38.2214 28.7413L38.2371 28.6725C37.7486 26.5423 38.095 24.0244 40.0022 22.7068C41.3247 21.7933 43.2217 21.7419 44.1954 23.1713C44.3288 23.3672 44.4056 23.5851 44.5174 23.7915L48.0904 23.5167C47.921 22.1327 47.3263 20.8472 46.398 19.817C46.1141 19.5017 45.5295 19.0687 45.4125 18.6733C45.2068 17.9767 45.7795 16.8553 46.0261 16.197C46.0362 16.1674 46.0313 16.1443 46.0149 16.1185C45.9615 16.0336 45.2057 15.7207 45.0622 15.6732C44.9714 15.6432 44.8247 15.5653 44.7391 15.6104C44.6536 15.6554 44.1769 16.9814 44.0822 17.1888C44.0037 17.361 43.8793 17.6519 43.7494 17.7811L43.7491 17.7814ZM32.4416 17.5946C32.391 17.5391 32.1678 17.4392 32.0864 17.4092C31.2472 17.0984 30.0256 17.1371 29.207 17.4982C28.9793 17.5988 28.6772 17.7444 28.578 17.9833C28.5868 18.0235 28.8592 18.1467 28.9175 18.1691C29.7158 18.4757 31.0042 18.321 31.7976 18.029C31.9066 17.9889 32.4668 17.7542 32.479 17.6718C32.4709 17.6445 32.4608 17.6156 32.4416 17.5943V17.5946ZM31.5797 27.671C31.5612 26.2049 31.7575 24.7036 32.2335 23.3166C32.3326 23.0274 32.6616 22.404 32.6938 22.1711C32.7332 21.8823 32.6641 21.5771 32.6606 21.303C32.6511 20.5937 32.6868 19.8795 32.6634 19.171C32.6578 19.0058 32.5701 18.8162 32.6609 18.6482L32.5925 18.6133C31.4159 19.4441 29.7539 19.4346 28.4736 18.841C28.5595 19.5656 28.5358 20.2944 28.5417 21.0236C28.5546 22.6199 28.5347 24.2437 28.2931 25.8327C28.1953 26.4745 28.0573 27.1178 27.8803 27.7405C29.0631 27.262 30.3913 27.1398 31.5797 27.6706V27.671ZM42.8889 23.8666C42.4761 23.3326 41.7811 23.3787 41.2136 23.6232C41.1616 23.6738 41.2178 23.686 41.2657 23.6923C41.8052 23.7604 42.3445 23.8425 42.8889 23.8669V23.8666ZM29.2412 42.1548C29.5817 42.109 29.9317 41.9407 30.2715 41.9114C31.5413 41.801 32.3162 43.1424 31.4411 44.1279C31.177 44.4254 30.7314 44.5833 30.3675 44.7296C29.4281 45.1078 28.4453 45.3868 27.5125 45.7839C26.9248 46.7065 26.1006 47.4685 26.1142 48.6475C26.7271 49.5809 27.3683 50.4952 28.1069 51.3336C28.6842 50.2402 29.346 49.1922 29.9453 48.1118C30.7971 46.5762 31.5626 44.9873 32.4727 43.4843C32.9731 42.658 33.5571 41.8873 34.0725 41.0701C35.2166 39.2566 36.176 37.447 37.6354 35.8374C38.2972 35.1072 39.0652 34.4737 39.7308 33.7442C40.3378 33.079 40.8522 32.2932 41.6212 31.7952C42.3378 31.3315 43.176 31.2026 43.9708 30.9337C44.3498 29.5169 45.2756 28.3118 46.721 27.8903C47.7628 27.5864 49.1377 27.5997 50.2364 27.4963C50.6436 27.4579 51.0519 27.4017 51.4587 27.3574C51.713 27.3298 52.0668 27.4104 52.2159 27.1374C52.5127 26.594 52.2794 25.1786 51.8593 24.7222C51.7402 24.5929 51.6634 24.5916 51.4919 24.5982C50.865 24.6216 50.1142 24.784 49.4685 24.844C46.6208 25.1087 43.6174 25.3892 40.8222 24.6946C40.6908 24.6621 40.291 24.5018 40.2012 24.5462C39.9278 24.8863 39.7622 25.2945 39.6596 25.7164C39.6065 25.9339 39.4724 26.5863 39.5104 26.7731C39.5275 26.8562 39.6121 26.962 39.6431 27.0598C39.9375 27.9825 39.5988 28.9047 39.0851 29.679C38.2441 30.9463 36.9736 31.482 36.1375 32.8045C35.6147 33.6318 35.3818 34.1053 34.6872 34.8443C32.7964 36.8561 30.6134 39.1079 29.1567 41.4602C29.053 41.6275 28.7712 42.0835 28.7181 42.2431C28.6891 42.3301 28.7509 42.2742 28.7789 42.269C28.877 42.2505 29.0083 42.2232 29.0816 42.1527C29.236 42.005 29.521 41.3834 29.6806 41.1459C30.6364 39.7235 32.0494 38.1381 33.2026 36.8495C34.0984 35.8483 35.2365 34.8551 35.9364 33.7194C36.2615 33.1918 36.4759 32.6826 36.9024 32.2073C37.5327 31.505 38.4847 31.1038 38.9104 30.2189C38.9744 30.2105 38.9408 30.2922 38.929 30.3247C38.6192 31.1572 37.5191 31.6625 36.9565 32.3313C36.521 32.8488 36.2521 33.5183 35.8742 34.0763C35.2948 34.9323 34.3935 35.7246 33.6912 36.5006C33.1174 37.1344 32.5506 37.785 31.9995 38.4391C31.0084 39.6156 29.9998 40.8131 29.2412 42.1548ZM26.3789 27.7412L23.6895 27.2676C23.445 27.328 23.2585 28.2161 23.3116 28.4522C23.3172 28.4846 23.3416 28.4899 23.3661 28.5024C23.4761 28.5597 23.9745 28.6397 24.1375 28.6732C24.6604 28.7811 25.1961 28.8772 25.7259 28.9281C26.0517 28.5793 26.3409 28.2447 26.3789 27.7412ZM29.6596 28.6135C27.5639 28.75 26.0828 30.5223 25.1161 32.2195C24.7092 32.934 24.3614 33.6936 24.1103 34.4765C24.6363 34.1252 25.1329 33.7236 25.5589 33.2553C26.4634 32.2621 27.1637 31.0916 28.2466 30.2538L29.6596 28.6131V28.6135ZM23.7614 35.5937C24.3618 35.0873 25.019 34.6693 25.5593 34.0934C26.1694 33.4428 26.5941 32.6533 27.164 31.9985C27.6232 31.4708 28.2438 30.9878 28.7356 30.4637C28.9032 30.2849 29.0544 30.0502 29.2231 29.8693C29.536 29.5344 29.9526 29.2023 30.2362 28.8583C30.2641 28.8244 30.386 28.697 30.3235 28.6652C30.1527 28.6582 29.9121 28.5496 29.7661 28.6676C29.1759 29.5201 28.5543 30.318 27.8101 31.0395C27.5792 31.263 27.3114 31.4418 27.0935 31.6842C26.3073 32.5593 25.8355 33.4935 24.894 34.3012C24.6558 34.5055 24.1128 34.8261 23.9458 35.0108C23.8603 35.1055 23.7768 35.4582 23.7611 35.5937H23.7614ZM30.8117 28.7885C30.6581 28.7637 30.6127 28.6596 30.4786 28.7867C30.0211 29.2211 29.5552 30.1336 29.1508 30.6697C28.679 31.2948 28.1314 31.7467 27.6177 32.3124C26.7509 33.2668 26.1278 34.3306 25.1577 35.2277C24.8503 35.512 23.6224 36.421 23.5187 36.6951C23.4744 36.8114 23.4394 37.0024 23.4293 37.1292C24.286 36.3574 25.1856 35.6307 25.9431 34.7566C26.3824 34.2499 26.754 33.6828 27.1825 33.1687C27.7989 32.4291 28.5229 31.7844 29.1714 31.0737L29.206 31.1083C28.9873 31.3549 28.7823 31.6154 28.5609 31.8595C28.2651 32.186 27.904 32.5031 27.6177 32.8359C26.9422 33.6202 26.3705 34.5114 25.664 35.2801C25.1042 35.8888 24.4595 36.4014 23.8655 36.9717C23.5763 37.249 23.4153 37.3307 23.3472 37.7449C23.284 38.1286 23.2879 38.5261 23.2376 38.9088C23.3022 38.9242 23.3057 38.8879 23.3368 38.8512C23.7115 38.4122 24.0551 37.9226 24.4414 37.4777C25.516 36.2394 26.5906 35.0276 27.6365 33.762C28.3008 32.9585 28.8875 32.3865 29.3991 31.4411C29.8782 30.5555 30.1391 29.5742 30.8121 28.7885H30.8117ZM31.4386 29.1038C31.3136 29.1104 31.1578 28.8674 31.074 28.9631C30.9717 29.0801 30.7862 29.4572 30.7119 29.6133C30.408 30.2496 30.2292 30.815 29.8489 31.4376C28.4223 33.7732 26.4097 35.7906 24.6506 37.8618C24.3813 38.1789 23.3263 39.4438 23.2746 39.7665C23.2285 40.0556 23.3678 40.4576 23.3423 40.7593C23.5323 40.5019 23.6783 40.1992 23.8512 39.9247C25.7398 36.9266 28.5571 34.4144 30.3235 31.284C30.6204 30.7577 30.817 30.1801 31.1079 29.6601C31.1617 29.5641 31.4742 29.1555 31.4386 29.1041V29.1038ZM52.8599 29.1139C52.8166 29.072 52.7436 29.0319 52.6817 29.0305L50.1847 29.3982L51.1357 30.4556L53.082 30.0621C53.2147 29.951 52.9905 29.24 52.8599 29.1139ZM45.9744 29.8134C45.1114 30.7497 44.7646 32.691 45.4313 33.8022C46.002 34.7535 47.1757 34.9993 48.1239 35.403C48.7249 35.6586 49.3117 35.9516 49.8341 36.3473L51.391 35.8053C51.4353 35.7735 51.4364 35.7313 51.443 35.6827C51.5887 34.5802 50.982 32.6973 50.4351 31.7313C49.8956 30.7783 48.3799 28.9648 47.1695 29.1059C46.7605 29.1534 46.2499 29.5155 45.9751 29.8134H45.9744ZM26.8329 36.4664C27.2614 36.0553 27.647 35.587 28.0182 35.1219C28.8955 34.0225 29.8346 32.7322 30.5816 31.5424C30.9685 30.926 31.2692 30.2953 31.7201 29.7142C31.7376 29.6919 32.0082 29.446 31.8413 29.452C31.653 29.459 30.8128 31.072 30.6658 31.3126C29.9952 32.4109 29.1344 33.5916 28.3476 34.6138C27.8883 35.2106 27.3837 35.7665 26.9017 36.3441C26.8689 36.3833 26.8172 36.4011 26.8326 36.4664H26.8329ZM26.5539 38.0368C26.5874 37.9366 26.6939 37.8238 26.7638 37.741C27.0942 37.352 27.4521 36.9853 27.7741 36.5875C29.1375 34.9026 30.2376 32.992 31.5657 31.3046C31.871 30.9169 32.2122 30.5534 32.5565 30.2014L32.0166 29.5885C31.4851 30.0233 31.2196 30.7252 30.8613 31.2979C30.0958 32.5209 29.1896 33.813 28.2976 34.9473C27.0795 36.4968 25.6438 37.7543 24.5004 39.3872C24.1037 39.9533 23.722 40.5403 23.4223 41.1651C23.4929 41.5 23.5212 41.8457 23.6207 42.174C23.6357 42.2232 23.5987 42.2358 23.6905 42.225C24.1847 41.2122 24.813 40.2631 25.4887 39.3635L25.5055 39.4152C24.9352 40.2208 24.3296 41.0635 23.8819 41.9453C23.7817 42.1426 23.672 42.2871 23.6944 42.518C23.6982 42.5592 23.7761 42.9049 23.8299 42.8351C24.4508 41.5908 25.1556 40.3829 25.9808 39.2626C26.6793 38.3144 27.5188 37.4718 28.2421 36.5327C29.5597 34.8226 30.7192 32.7472 32.1895 31.196C32.2834 31.0971 32.7643 30.6819 32.7846 30.6369C32.8348 30.5248 32.6843 30.3631 32.575 30.324C31.285 31.6269 30.342 33.22 29.2692 34.6976C28.4261 35.8587 27.5586 37.0101 26.5535 38.0372L26.5539 38.0368ZM24.6335 30.289L22.5719 30.025C22.413 30.0792 22.303 30.6624 22.2936 30.8282C22.2884 30.919 22.2828 31.0734 22.318 31.1537C22.36 31.2494 23.6514 31.3989 23.8407 31.4359L24.6335 30.2887V30.289ZM69.0678 30.0442L68.3319 30.2758C68.3965 30.7731 68.8491 31.7428 68.7032 32.2101C68.6424 32.4046 68.4056 32.4291 68.253 32.3075C67.9418 32.0596 67.7319 30.9005 67.6363 30.4979L66.9179 30.7409C66.8606 30.8227 67.3708 32.3159 67.271 32.6976C67.2186 32.8974 67.0345 32.9588 66.8557 32.8666C66.5065 32.6868 66.2676 31.3828 66.2054 30.9864L65.4738 31.1974C65.4054 31.2756 65.9722 32.7881 65.7895 33.2403C65.7406 33.3611 65.6261 33.4149 65.4982 33.3887C65.068 33.3 64.8424 31.8556 64.7575 31.4746C64.725 31.424 64.7107 31.4457 64.6692 31.4554C64.4904 31.498 64.2808 31.6527 64.0762 31.666C64.035 31.6908 64.0419 31.7264 64.0437 31.7662C64.0507 31.9384 64.1656 32.2216 64.2057 32.4105C64.2714 32.7179 64.4457 33.4058 64.3838 33.6838C64.329 33.93 64.095 33.9869 63.9037 33.8294C63.5715 33.5563 63.4109 32.3571 63.3086 31.9286L62.557 32.1713C62.5039 32.251 62.6604 32.9717 62.6915 33.1219C62.9146 34.2094 63.2852 35.3454 63.7633 36.3438L69.9723 34.787C69.8556 33.1743 69.4264 31.6112 69.0685 30.0435L69.0678 30.0442ZM33.3025 32.8488C33.373 32.7758 33.6294 32.6117 33.6311 32.5132C33.628 32.3313 33.1869 31.0556 33.0982 31.0573C32.7556 31.5113 32.3201 31.8867 31.9457 32.3128C30.6249 33.8158 29.5629 35.5678 28.3325 37.1463C27.5894 38.0997 26.7641 38.9863 26.0713 39.9809C25.3284 41.0467 24.7026 42.1876 24.11 43.3421L25.986 42.8801C26.5836 41.4983 27.3955 40.224 28.27 39.0038C29.8828 36.7534 31.3726 34.8397 33.3021 32.8495L33.3025 32.8488ZM43.9359 31.0916C43.2298 31.3203 42.4768 31.4481 41.8311 31.8312C41.0446 32.2981 40.4642 33.1694 39.853 33.8322C39.1961 34.5446 38.4282 35.1928 37.7747 35.9073C36.2758 37.5462 35.2327 39.5098 34.0722 41.3844C33.7195 41.9543 33.3115 42.4949 32.9609 43.0652C31.9583 44.696 31.1442 46.4355 30.224 48.1118C29.6013 49.246 28.8997 50.3366 28.2781 51.4716L28.4719 51.7366L28.5588 51.7171C29.1029 50.7882 29.6994 49.8903 30.224 48.9495C31.359 46.9129 32.3473 44.7914 33.5752 42.8075C34.6718 41.0359 35.7122 39.0677 36.9408 37.4124C37.8715 36.1587 38.8427 35.3566 39.8873 34.2509C40.5152 33.5864 41.0516 32.7874 41.83 32.2848C42.4552 31.8815 43.1648 31.7128 43.8661 31.4935L43.9349 31.0916H43.9359ZM52.284 32.7255C52.3276 32.7524 53.1766 32.6424 53.303 32.6218C53.5028 32.589 53.668 32.6051 53.69 32.3529C53.7043 32.1881 53.6652 31.5092 53.449 31.4911L51.8244 31.6496L52.284 32.7252V32.7255ZM28.9741 52.2643L29.398 52.6945C30.1737 51.8393 31.044 51.1283 31.6426 50.1232C32.5321 48.6303 33.0329 46.8528 33.7834 45.2838C34.1693 44.4767 34.6488 43.756 35.0759 42.9814C36.1899 40.9605 36.5971 38.7604 38.1425 36.9385C38.6953 36.2865 39.209 36.069 39.8628 35.5874C40.8159 34.8855 41.4689 33.7725 42.5756 33.2742C42.9846 33.0901 43.4302 33.022 43.8503 32.8733C43.8388 32.5988 43.8294 32.325 43.8287 32.0495C43.8287 31.967 43.8937 31.9091 43.8137 31.8605C43.3946 32.0386 42.943 32.1319 42.5271 32.3184C41.4347 32.8083 40.7904 33.8357 39.9924 34.67C39.251 35.4453 38.4093 36.0599 37.7238 36.9036C36.5929 38.2949 35.8613 39.7766 34.9711 41.3062C34.4148 42.2627 33.7554 43.1556 33.2138 44.1212C32.5757 45.2593 32.0117 46.4526 31.388 47.6005C30.5694 49.1074 29.7302 50.5605 28.7198 51.95C28.7153 51.9759 28.9339 52.2196 28.9737 52.2647L28.9741 52.2643ZM33.6954 33.2427L33.7334 33.1649C33.725 33.1223 33.6831 32.5722 33.6049 32.6271C33.2613 33.1945 32.6962 33.6237 32.2422 34.1095C31.2881 35.1303 30.5502 36.2031 29.7235 37.315C28.4153 39.0747 27.0124 40.8037 26.1701 42.8532L26.5714 42.7488C27.3648 40.8532 28.6867 39.2912 29.8981 37.6638C30.3312 37.0824 30.7143 36.4625 31.162 35.8912C31.9188 34.926 32.8003 34.0735 33.6954 33.2427ZM23.3067 39.4326C24.7092 37.3506 26.6087 35.6506 28.0828 33.6154L28.5428 32.9061C27.9512 33.4624 27.4912 34.1524 26.9712 34.7723C26.1753 35.7211 25.3183 36.6113 24.5109 37.5476C24.2552 37.844 23.364 38.8652 23.2631 39.1634C23.2501 39.2021 23.2079 39.5196 23.3064 39.4323L23.3067 39.4326ZM43.901 33.0458C43.506 33.1037 43.0813 33.2172 42.7153 33.3786C41.5493 33.893 40.8518 35.0555 39.8282 35.7966C39.5967 35.9642 39.3383 36.0965 39.1081 36.2631C36.9373 37.8339 36.44 40.8543 35.181 43.0509C34.675 43.9334 34.1092 44.7282 33.6789 45.6672C32.8816 47.4084 32.3787 49.5617 31.1439 51.055C30.9437 51.297 29.4679 52.6596 29.4874 52.7777L29.5555 52.8531C29.6069 52.8873 29.6352 52.866 29.6788 52.8367C29.836 52.7309 30.056 52.4372 30.2177 52.2933C30.4751 52.0646 30.7691 51.8659 31.0216 51.6312C32.6504 50.1166 32.9913 47.5928 33.8881 45.6327C34.4406 44.4258 35.2767 43.4169 35.8093 42.2135C36.749 40.0895 37.2729 37.7173 39.3313 36.3466C39.5014 36.2334 39.713 36.144 39.8845 36.0274C41.1256 35.1837 41.7085 33.9007 43.265 33.4397C43.3736 33.4076 43.8332 33.3332 43.8675 33.3091C43.9279 33.2665 43.894 33.1177 43.9006 33.0458H43.901ZM61.3536 33.2553L59.6245 33.8123L59.4027 33.9412C59.5082 34.539 59.6531 35.1484 59.8435 35.7253C59.8864 35.8556 60.0768 36.4723 60.1885 36.494L62.0848 35.9562C61.8131 35.0653 61.481 34.1842 61.3539 33.2553H61.3536ZM34.1277 34.128C34.0572 34.113 34.0345 34.1434 33.9866 34.1786C33.4366 34.582 32.6854 35.455 32.2439 35.996C31.1914 37.2863 30.0068 38.8487 29.0733 40.2247C28.7411 40.7143 28.423 41.2231 28.1946 41.7713C28.4394 41.4644 28.6081 41.1036 28.8218 40.7761C29.7675 39.3261 30.9703 37.7934 32.055 36.4353C32.3267 36.0948 32.6326 35.7026 32.9236 35.3841C33.2532 35.0231 33.7628 34.6655 34.0418 34.3033C34.0816 34.2516 34.1357 34.2003 34.1284 34.1284L34.1277 34.128ZM44.5928 34.6927C43.6499 34.882 42.7628 35.2783 42.0158 35.8902C41.4518 36.3522 40.9751 36.8952 40.3517 37.2975C39.2632 37.9998 38.8968 38.0295 38.3105 39.3048C37.8139 40.3846 37.4339 41.5398 36.9156 42.6217C36.3415 43.8195 35.5603 44.8874 35.0057 46.0866C34.2468 47.7273 33.7146 49.8023 32.6215 51.2411C31.975 52.0918 30.9605 52.6579 30.1657 53.3577C30.0955 53.4656 30.2924 53.4932 30.3567 53.409C30.9291 52.895 31.5947 52.4896 32.157 51.9636C33.8518 50.3778 34.4039 47.6875 35.4241 45.6672C35.8337 44.856 36.3743 44.1115 36.7993 43.3079C37.4943 41.9938 37.9445 40.6336 38.5553 39.3048C39.0659 38.1936 39.4546 38.1028 40.4083 37.4931C41.3257 36.9067 42.0144 35.9726 42.9926 35.4701C43.52 35.1994 44.1186 35.0884 44.67 34.8788C44.7402 34.832 44.5956 34.7549 44.5932 34.6927H44.5928ZM58.4916 36.1521L58.1954 35.0363L47.3036 38.5247C47.1866 38.5715 47.0099 38.6193 47.0472 38.7796C47.0856 38.9172 47.327 38.8763 47.4349 38.8652L58.4916 36.1517V36.1521ZM45.9604 36.8498C45.5204 36.8222 45.0901 36.9291 44.6693 37.0422C43.6474 37.3167 42.6144 37.6834 41.9111 38.5072C41.6788 38.7792 41.5046 39.133 41.2664 39.3984C41.0282 39.6638 40.7345 39.8178 40.5166 40.0797C40.0598 40.6287 39.8097 41.7319 39.4811 42.4296C39.0529 43.3386 38.4414 44.5158 37.9123 45.3634C37.3473 46.2682 36.3876 46.8528 35.8903 47.7391C35.7684 47.9563 35.6996 48.1963 35.5892 48.4156C34.8597 49.8676 33.8235 51.4744 32.7151 52.6614C32.216 53.1957 31.6663 53.687 31.1767 54.2318C31.1219 54.338 31.4159 54.457 31.4578 54.5451C32.4573 53.3273 33.6573 52.25 34.6152 51.0015C35.2812 50.1334 35.5445 49.4807 36.0178 48.5298C36.5238 47.5128 37.4175 47.04 38.0657 46.1104C38.7931 45.0673 39.655 43.5167 40.1726 42.3535C40.4499 41.7298 40.6147 40.9427 41.0904 40.4443C41.2294 40.2987 41.4434 40.1737 41.581 40.0274C41.9715 39.6125 42.1258 39.1375 42.634 38.7764C43.0712 38.4656 44.9047 37.6583 45.4188 37.617C45.5696 37.6048 45.8651 37.601 46.0104 37.6212C46.1137 37.6359 46.2405 37.7302 46.3198 37.7176C46.3743 37.7089 46.6592 37.5109 46.765 37.4623C47.3196 37.2078 47.9552 37.0981 48.5084 36.833C48.3041 36.7241 48.0911 36.6137 47.8798 36.5202C47.043 36.15 46.317 35.9893 45.5103 35.5039C45.3814 35.4264 45.1313 35.2015 45.0056 35.2109C44.5017 35.4114 43.9387 35.5113 43.4386 35.7072C42.1569 36.2093 41.4399 37.2888 40.3385 38.0172C39.5722 38.524 39.3809 38.533 38.9499 39.4211C38.3367 40.6849 37.8582 42.0326 37.2181 43.3086C36.778 44.1855 36.2259 44.9677 35.7855 45.8198C34.8517 47.6263 34.2988 49.525 33.0947 51.2264C32.3798 52.2371 31.3499 52.7843 30.4003 53.5393V53.6332C30.524 53.6507 30.6776 53.9538 30.7772 53.9025C30.9001 53.8393 31.3576 53.3088 31.5099 53.167C31.8207 52.8779 32.1828 52.6135 32.4881 52.3303C33.4495 51.4381 34.2409 50.1379 34.867 48.9851C35.3298 48.1341 35.6448 47.1853 36.1117 46.3555C36.4281 45.7929 36.8765 45.3075 37.1831 44.7393C37.7094 43.7636 38.2679 42.5351 38.7418 41.5164C39.0065 40.9475 39.1783 40.3217 39.4388 39.7703C39.8146 38.9741 40.3566 38.8693 40.9353 38.335C41.5657 37.7529 41.8052 37.2594 42.6438 36.8324C43.1791 36.5596 45.4554 35.7697 45.9702 35.8483C46.0009 35.8528 46.0753 35.8633 46.0659 35.9087C45.5892 35.9261 45.101 36.0784 44.6431 36.2139C43.7072 36.4905 42.5718 36.8704 41.8419 37.5315C41.5283 37.8157 41.28 38.1947 40.9702 38.4747C40.71 38.7101 40.3814 38.8603 40.1157 39.0862C39.4451 39.6554 39.2929 40.5672 38.9513 41.3425C38.4809 42.4108 37.869 43.6753 37.3288 44.7111C36.8852 45.5618 36.2343 46.2445 35.8086 47.135C34.9526 48.9261 34.1769 50.873 32.6931 52.2552C32.3805 52.5461 32.0337 52.8073 31.719 53.0975C31.4114 53.3815 31.1229 53.6891 30.8128 53.9706L31.1093 54.2304C31.6293 53.6144 32.2387 53.0776 32.7846 52.4878C33.3496 51.877 34.1078 50.9065 34.4242 50.1484C34.4724 50.0328 34.4714 50.227 34.5122 50.1666C34.8492 49.6752 35.1538 49.1982 35.4146 48.6604C35.5603 48.36 35.6615 48.0339 35.8204 47.7398C36.3125 46.828 37.26 46.2483 37.8289 45.3505C38.3601 44.512 39.0086 43.2828 39.4287 42.3783C39.7612 41.6627 39.9714 40.5952 40.4628 40.027C40.7083 39.7431 41.053 39.5514 41.3013 39.2601C41.7452 38.7391 41.9173 38.2924 42.5289 37.8702C43.161 37.4334 45.0175 36.7318 45.7645 36.7863C45.8008 36.789 45.9576 36.8027 45.9604 36.8512V36.8498ZM33.5344 58.0002V60.7049C33.5344 60.8945 33.3597 61.3391 33.2609 61.5137C32.1797 63.4208 28.0912 63.4159 26.8539 61.696C26.387 61.0471 26.4376 60.4933 26.4474 59.7264C26.4785 57.2658 26.6754 53.9413 26.0479 51.5781C25.8823 50.9547 25.3019 50.3031 24.9471 49.7468C24.4379 48.9481 23.9703 48.1187 23.5837 47.253L19.6146 48.6544C19.5395 49.1172 19.2741 49.4653 18.8484 49.6508C18.1754 49.9437 17.3083 50.1851 16.5976 50.4372C16.5452 50.4557 16.4897 50.4543 16.437 50.4676C16.3479 50.888 16.0951 51.2435 15.706 51.4297L10.4623 53.2893C14.9377 61.777 23.1611 67.8307 32.6197 69.5775C47.1897 72.2686 61.3724 64.8229 67.4337 51.4276C69.0217 47.9179 69.8766 44.0985 70.1497 40.2526C70.1923 38.9329 70.222 37.6073 70.0973 36.2911C69.0377 36.5676 67.9802 36.8585 66.9186 37.1264C66.0315 37.3502 64.6308 37.8158 63.7758 37.8926C63.3599 37.9299 62.8675 37.7312 62.6391 37.3796L62.5944 37.3701C61.8606 37.5262 61.1105 37.8161 60.3771 37.9495C59.8155 38.0515 59.3465 37.9876 59.0095 37.4829L53.2908 38.8044C53.4895 39.2556 53.7315 39.6879 53.9254 40.1419C55.968 44.9283 56.1716 50.8 54.8938 55.8162C54.3357 58.0065 53.2723 60.7933 51.2984 62.0634C48.0939 64.1252 43.0998 62.5516 39.8537 61.2277C37.6585 60.3323 35.5589 59.2281 33.5347 58.0006L33.5344 58.0002ZM31.9289 54.4403C31.922 54.4501 31.9258 54.485 31.9101 54.5084C31.8724 54.5639 31.7124 54.6736 31.7222 54.7322L32.1741 55.0532C32.7203 54.4075 33.2836 53.7635 33.8661 53.1485C34.6917 52.2769 35.6029 51.6053 36.1243 50.4854C36.4794 49.7227 36.6024 48.8228 37.2125 48.2053C37.4245 47.9909 37.7307 47.8111 37.9504 47.5994C38.2693 47.2925 38.5919 46.8556 38.8116 46.4715C39.4797 45.303 40.0909 44.2316 40.6496 43.0041C41.0732 42.0731 41.6083 41.5115 42.2051 40.7202C42.4765 40.3605 42.6595 39.938 43.0125 39.6429C43.3478 39.3624 44.8561 38.6773 45.2895 38.6039C45.4813 38.5715 45.665 38.5662 45.856 38.5945L45.9964 38.0714H45.3856C45.0524 38.0714 43.4536 38.7827 43.0758 38.9727C42.4705 39.2769 42.2275 39.8681 41.7909 40.3406C41.6642 40.4775 41.5039 40.583 41.3876 40.7048C40.8735 41.2437 40.6835 42.0689 40.3832 42.7369C39.8848 43.844 39.077 45.2199 38.402 46.2354C37.9577 46.9035 37.5945 47.1451 37.0428 47.6686C36.2231 48.4463 36.1651 49.2128 35.6483 50.1484C35.0336 51.2603 34.2779 51.8645 33.4481 52.7647C32.9372 53.3189 32.5003 53.942 31.9303 54.4406C33.0322 52.9243 34.7214 51.7139 35.6015 50.0667C35.8487 49.6036 35.9832 49.1329 36.1938 48.6695C36.6324 47.7046 37.5718 47.2698 38.1861 46.4037C38.7089 45.6665 39.3327 44.5368 39.7675 43.7266C40.2023 42.9164 40.4338 42.1768 40.8012 41.4099C41.0956 40.7953 41.2961 40.7244 41.7218 40.2711C41.9718 40.0047 42.1464 39.6708 42.3843 39.3977C42.8205 38.8962 43.8416 38.5051 44.473 38.2404C44.9731 38.0309 45.4956 37.8933 46.0428 37.9966L46.2415 37.7581C45.6479 37.6628 45.1278 37.7361 44.5775 37.961C44.0173 38.1898 42.7953 38.7003 42.401 39.1005C42.1248 39.3813 41.9488 39.7801 41.6872 40.0619C41.2342 40.5505 41.0062 40.584 40.6968 41.2702C40.3716 41.991 40.1429 42.6943 39.7675 43.4123C39.2227 44.4551 38.3576 46.0713 37.5683 46.9021C37.0836 47.4123 36.6202 47.6784 36.2689 48.3251C36.0562 48.7166 35.9112 49.1465 35.7062 49.5428C35.2833 50.36 34.6495 51.21 34.0428 51.8931C33.3129 52.7148 32.5027 53.4803 31.792 54.3191C31.7498 54.369 31.4879 54.654 31.6345 54.6844C31.6715 54.6921 31.8793 54.485 31.9307 54.4403H31.9289ZM45.8211 38.665C45.7317 38.6678 45.6559 38.6308 45.5644 38.6322C45.0604 38.6417 43.4194 39.3904 43.0279 39.7288C42.6968 40.0151 42.5697 40.3354 42.3239 40.665C41.7602 41.4204 41.068 42.1373 40.7949 43.0621L40.9276 42.7942C41.1606 42.3245 41.616 42.0305 41.9453 41.6481C42.3787 41.1448 42.6612 40.4475 43.1861 40.027C43.5245 39.7557 43.8737 39.6872 44.2495 39.5196C44.7577 39.2929 45.2668 38.9186 45.8556 39.0488C45.908 38.7517 45.7254 38.7866 45.4896 38.8051C45.1306 38.8334 43.4606 39.5894 43.1564 39.8227C42.7356 40.1454 42.4272 40.7548 42.1143 41.1888C41.8925 41.4965 41.661 41.8045 41.405 42.0853C41.3502 42.0542 41.4169 42.0064 41.4361 41.9767C41.6722 41.6149 41.9666 41.2625 42.2191 40.9098C42.4695 40.5599 42.6734 40.129 42.993 39.8339C43.3565 39.4986 44.9564 38.7988 45.4547 38.7356C45.5557 38.7227 45.6702 38.7478 45.769 38.7352C45.8169 38.729 45.8769 38.7108 45.8211 38.6657V38.665ZM52.0685 58.8729C52.0741 58.7182 52.2295 58.5866 52.2627 58.4545C52.3035 58.2925 52.0681 57.2669 52.0102 57.0294C51.4717 54.823 49.7908 53.2299 49.4262 50.9575C49.1108 48.9911 49.9867 47.5254 49.8711 45.6613C49.8104 44.6803 49.2757 42.9981 48.7808 42.1447C48.5262 41.7057 48.1948 41.3041 47.921 40.8756C47.8271 40.7286 47.5515 40.1573 47.4464 40.0937C47.3413 40.0301 47.0895 40.0693 46.9362 40.0455C46.5485 39.9854 46.2003 39.7029 45.9943 39.3816C45.8288 39.1239 45.9409 39.0848 45.5284 39.1229C45.072 39.1651 44.8279 39.383 44.4486 39.5437C44.1203 39.683 43.7679 39.7672 43.4589 39.9502C42.8477 40.312 42.6162 40.9175 42.2055 41.4539C41.8444 41.9253 41.3645 42.3043 41.0593 42.8207C40.7893 43.2775 40.6734 43.8027 40.4167 44.2724C40.1143 44.8263 39.6557 45.2855 39.3571 45.8303C39.0927 46.3122 38.9248 46.8078 38.6035 47.2757C38.0744 48.0461 37.3613 48.3803 36.9492 49.2862C36.4005 50.492 36.3631 51.0529 35.4024 52.1023C34.4319 53.1625 33.2972 54.1082 32.4549 55.2903L32.9054 55.6266C32.9616 55.4806 33.0964 55.3256 33.2022 55.2072C34.3816 53.8934 36.3335 52.3638 37.0068 50.7396C37.246 50.1627 37.3305 49.5659 37.6473 49.0064C37.9584 48.4568 38.4575 48.0056 38.7847 47.4566C39.0816 46.959 39.2506 46.3709 39.5447 45.8782C39.8869 45.3051 40.4376 44.9035 40.7778 44.3189C41.0523 43.8464 41.2129 43.2709 41.5796 42.8518C41.8395 42.5553 42.2215 42.3751 42.5055 42.1024C42.9863 41.64 43.1666 41.1459 43.8081 40.7872C47.1356 38.9273 48.8559 42.329 49.4 45.0847C49.7782 47.0005 48.821 48.6646 48.9977 50.5825C49.2429 53.2432 51.114 54.9337 51.7029 57.3709C51.809 57.8102 51.8506 58.4308 51.9955 58.8233C52.0133 58.8712 51.9829 58.883 52.0685 58.8719V58.8729ZM51.713 39.1609L50.2881 39.4508C50.6443 40.0047 51.1291 40.4464 51.4119 41.0495C51.9243 42.1415 52.6109 44.2319 52.6618 45.4186C52.7272 46.9345 52.2152 48.058 52.0388 49.4716C51.8268 51.1709 52.7502 52.5185 53.7088 53.8117L53.9121 52.6146C53.5594 52.1037 53.1089 51.6273 52.9234 51.02C52.5752 49.8781 53.091 48.5134 53.2793 47.3616C53.5409 45.7633 53.5465 44.2403 53.148 42.6636C52.8393 41.4424 52.3294 40.2529 51.7126 39.1606L51.713 39.1609ZM50.2469 39.4752C50.1861 39.4396 49.9092 39.4983 49.9057 39.5549C50.3164 40.1831 50.8591 40.6647 51.1675 41.3638C51.6721 42.5075 52.3388 44.5337 52.3496 45.7657C52.3678 47.8977 51.1542 49.5013 52.0521 51.6476C52.4376 52.5695 53.0621 53.4558 53.6393 54.2657L53.6673 53.8718C53.2314 53.2456 52.7771 52.6121 52.4348 51.928C51.3124 49.6836 52.4788 48.3621 52.5923 46.1509C52.672 44.5983 52.1125 43.0572 51.5722 41.6222C51.2534 40.775 50.8818 40.4097 50.3796 39.7089C50.3482 39.6649 50.2626 39.4843 50.2472 39.4752H50.2469ZM48.6834 39.8866C49.0277 40.4457 49.4304 40.9751 49.78 41.53C50.5479 42.7492 51.1402 44.9583 51.0568 46.3953C50.9841 47.6473 50.4208 48.9467 50.499 50.1997C50.6345 52.3691 52.1527 53.8215 52.9241 55.6975C52.994 55.8672 53.0135 56.1022 53.1511 56.2203C53.1459 55.9004 53.4696 55.3144 53.4169 55.0326C53.3917 54.8992 53.1047 54.4277 53.0181 54.2772C52.4415 53.2777 51.8286 52.4944 51.4668 51.3609C50.7948 49.2561 51.9271 47.6246 51.8265 45.5216C51.7706 44.3507 51.2094 42.746 50.7142 41.6778C50.4442 41.0953 50.0702 40.627 49.6962 40.1129C49.6864 40.0137 49.7391 40.0839 49.765 40.1143C49.8914 40.2631 50.0597 40.5107 50.1788 40.6779C51.1388 42.0263 51.9773 44.5654 51.8963 46.2228C51.8115 47.9602 50.9604 49.3854 51.4587 51.1597C51.8586 52.5842 52.8173 53.6504 53.4312 54.9638C53.478 54.9742 53.4707 54.9274 53.4822 54.8939C53.6111 54.5251 53.5953 54.5178 53.4102 54.199C52.885 53.2952 52.2864 52.6401 51.8778 51.613C50.9943 49.3916 52.2882 47.6941 52.1754 45.4521C52.1209 44.3671 51.471 42.4212 51.017 41.4099C50.7006 40.7048 50.1296 40.2599 49.7953 39.5779L48.6834 39.7825C48.6837 39.8168 48.6799 39.8527 48.6834 39.887C48.6275 39.7794 48.5241 39.8189 48.4197 39.8513C48.3816 39.8632 48.3569 39.8279 48.3708 39.9027C48.5538 40.2208 48.7176 40.5505 48.9132 40.8613C49.3815 41.6055 49.7262 42.005 50.0454 42.8703C50.7058 44.6601 50.8647 45.8911 50.4875 47.781C50.1659 49.3944 49.9549 50.2842 50.5326 51.9109C51.0498 53.3675 52.1342 54.5244 52.6018 55.9496C52.6968 56.2391 52.7408 56.6019 52.8389 56.8642C52.8529 56.9012 52.8532 56.948 52.9063 56.9533C52.9014 56.7807 53.0767 56.5283 53.0767 56.3774C53.0767 56.2056 52.7097 55.3737 52.6112 55.1719C51.8411 53.5917 50.82 52.5692 50.5081 50.7131C50.2305 49.0606 50.9517 47.7496 50.9869 46.1537C51.0166 44.8054 50.4491 42.7519 49.7451 41.5992C49.5268 41.2423 48.7187 40.2281 48.683 39.8863L48.6834 39.8866ZM48.295 39.8908L47.7761 40.0088C47.9776 40.2512 48.0872 40.5596 48.25 40.8264C48.4924 41.2238 48.8004 41.5957 49.033 41.998C49.5851 42.9531 50.1247 44.6318 50.1861 45.7311C50.2752 47.3285 49.5306 48.7334 49.6263 50.3394C49.7758 52.8496 51.7008 54.4623 52.2623 56.743C52.3556 57.1219 52.3814 57.5235 52.5054 57.8958C52.5738 57.7376 52.7869 57.3297 52.8019 57.1775C52.8176 57.0144 52.6489 56.4284 52.5937 56.2377C52.0175 54.2559 50.4589 52.9373 50.1194 50.719C49.8634 49.0459 50.541 47.788 50.6049 46.1879C50.6562 44.9094 50.0744 42.8277 49.3962 41.7396C49.1982 41.4218 48.9551 41.134 48.7602 40.8051C48.5873 40.5131 48.4368 40.1992 48.2954 39.8912L48.295 39.8908ZM52.3828 58.2094C52.387 58.143 52.4443 58.0921 52.4436 58.0243C52.4404 57.7463 52.2078 56.8792 52.1212 56.5695C51.566 54.5849 50.037 53.1957 49.6368 51.0612C49.3487 49.5243 49.7129 48.7002 49.9637 47.2572C50.2417 45.6561 49.9092 44.0881 49.2477 42.6203C48.9467 41.9519 48.5276 41.4644 48.1452 40.8609C48.0691 40.7408 47.7286 40.0853 47.6912 40.0584C47.6395 40.0214 47.5913 40.0214 47.5316 40.0263L48.9107 42.1544C49.6644 43.6941 50.1474 45.354 49.8949 47.0837C49.6766 48.5762 49.2739 49.5561 49.5669 51.1314C49.9661 53.2767 51.5265 54.7399 52.0521 56.7437C52.1684 57.1869 52.2061 57.6817 52.3241 58.1123C52.3339 58.1483 52.3325 58.2181 52.3828 58.2098V58.2094ZM51.824 59.2916C51.8652 59.1586 52.0035 59.0915 51.9627 58.9295C51.7091 57.8315 51.5513 56.8129 51.0526 55.7886C50.1138 53.8609 48.9767 52.5112 48.8912 50.2015C48.8259 48.433 49.6846 46.9496 49.3302 45.1556C48.9226 43.0949 47.5962 39.6292 44.8865 40.4359C44.5443 40.5379 43.9764 40.7523 43.6803 40.9402C43.1763 41.2597 42.9155 41.8014 42.4883 42.1915C42.2966 42.3664 42.0494 42.5071 41.8601 42.68C41.272 43.2171 41.112 44.0203 40.6632 44.659C40.3559 45.0963 39.9299 45.4483 39.6498 45.9141C39.3397 46.4303 39.1692 47.0459 38.8549 47.5624C38.5375 48.0835 38.0541 48.5193 37.752 49.0424C37.4108 49.634 37.3113 50.3192 37.0312 50.939C36.3432 52.4616 34.5332 53.8854 33.3936 55.1206C33.2379 55.2892 33.102 55.4782 32.9421 55.6447L33.2389 55.8721C33.3143 55.8728 33.5172 55.5616 33.5867 55.4872C34.7745 54.2129 36.7166 52.654 37.356 51.0543C37.589 50.4718 37.6955 49.7821 37.9742 49.2293C38.2609 48.6607 38.8242 48.1865 39.1479 47.6106C39.4465 47.0795 39.5729 46.4928 39.9079 45.9623C40.2428 45.4318 40.7687 45.0802 41.089 44.526C41.3306 44.108 41.4497 43.582 41.7546 43.2021C42.0364 42.8508 42.436 42.7041 42.7663 42.4338C43.1501 42.1199 43.4121 41.6872 43.8661 41.4392C44.9696 40.8368 46.2615 40.7101 47.269 41.5632C48.4574 42.5697 49.2418 45.2286 49.137 46.7446C49.0941 47.3672 48.8597 48.0196 48.7637 48.6398C48.4602 50.5996 48.887 52.2594 49.7248 54.0107C50.2885 55.189 51.0466 56.2028 51.376 57.4904C51.5261 58.0777 51.6023 58.6847 51.7559 59.2717L51.8247 59.292L51.824 59.2916ZM51.4064 59.8151C51.4912 59.7666 51.619 59.6188 51.6152 59.5225C51.3711 58.7409 51.2838 57.9216 51.0236 57.1439C50.6314 55.9723 49.8191 54.8443 49.3057 53.6961C48.5577 52.0226 48.2881 50.3939 48.5496 48.5654C48.755 47.1315 49.064 46.3685 48.6736 44.87C48.1016 42.6758 47.0182 40.4478 44.3466 41.4661C43.5643 41.7644 43.5507 42.0113 42.9944 42.4872C42.6657 42.7687 42.2208 42.9458 41.9331 43.2758C41.5583 43.7057 41.4473 44.3109 41.1375 44.7837C40.8731 45.1874 40.4911 45.4479 40.2079 45.8083C39.7696 46.366 39.6271 47.0721 39.2873 47.6801C38.885 48.4006 38.2679 48.8867 37.9672 49.6759C37.7737 50.1837 37.6777 50.7281 37.4611 51.2292C36.8035 52.7508 35.1237 54.0366 34.0055 55.2428C33.9189 55.336 33.3831 55.929 33.3978 55.9901L33.6632 56.1811C34.0104 55.893 34.3062 55.5103 34.6289 55.1855C35.6811 54.1274 37.2348 52.8115 37.7849 51.4133C37.9948 50.8793 38.0674 50.3111 38.2375 49.7719C38.4777 49.0103 39.0037 48.6111 39.3917 47.9595C39.7654 47.3319 39.9075 46.6178 40.3468 46.0178C40.6402 45.6173 41.0701 45.3323 41.3331 44.9098C41.6135 44.4593 41.764 43.8516 42.1035 43.4462C42.3329 43.1721 42.6378 43.0572 42.9148 42.8613C43.6087 42.3706 43.6991 41.9655 44.6347 41.6844C46.9687 40.9835 47.8044 42.8665 48.352 44.7383C48.785 46.2183 48.5472 46.9146 48.3401 48.3559C48.0663 50.2633 48.2776 51.9322 49.0267 53.6964C49.5841 55.0095 50.4816 56.2405 50.8801 57.6021C51.0927 58.3285 51.2066 59.0859 51.4067 59.8155L51.4064 59.8151ZM19.3283 47.1807L30.3322 43.4731C31.0052 43.1885 30.4503 42.9838 30.0218 43.1626L19.0136 46.0992C19.1152 46.4586 19.3063 46.8008 19.3279 47.1807H19.3283ZM50.7774 60.4433C50.5675 59.1781 50.2179 57.9618 49.7017 56.7902C48.8709 54.9047 48.0031 53.3441 47.7108 51.2421C47.452 49.3822 47.6783 47.4849 47.27 45.6449C46.8688 43.8352 45.8462 42.4813 43.8657 43.5332C42.7904 44.1041 42.518 44.797 41.8555 45.7116C41.4172 46.3171 40.9755 46.7501 40.6021 47.4248C40.2288 48.0995 39.9002 48.6782 39.4888 49.348C38.989 50.1617 38.9272 50.6656 38.6321 51.5278C37.9776 53.4387 35.9315 54.7493 34.8813 56.5028C34.8482 56.5583 34.6816 56.8045 34.7214 56.8485C34.7871 56.8621 34.8056 56.8157 34.8405 56.7759C34.9882 56.6075 35.1506 56.2852 35.3001 56.0837C36.2626 54.7867 37.9005 53.4544 38.542 52.031C38.8221 51.4098 38.9359 50.7281 39.1972 50.1033C39.4392 49.5247 39.8691 49.0424 40.1722 48.4955C40.4132 48.0608 40.5826 47.611 40.8497 47.1839C41.1686 46.674 41.5891 46.2473 41.9397 45.7608C42.6008 44.8452 42.9004 44.1272 43.9981 43.596C46.9463 42.1698 47.3828 46.0926 47.4625 48.0346C47.5253 49.5655 47.503 50.8692 47.8554 52.3883C48.3879 54.6854 49.7433 56.6302 50.3555 58.8928C50.4812 59.3576 50.5493 59.944 50.6911 60.3739C50.711 60.4343 50.6929 60.4573 50.777 60.443L50.7774 60.4433ZM39.5384 45.3662C40.0182 44.7882 40.4555 44.1471 40.6545 43.412L40.3119 44.1331C40.1858 44.3241 40.0807 44.5284 39.9578 44.7212C39.8212 44.9353 39.6288 45.1329 39.5387 45.3662H39.5384ZM49.8352 61.0017L50.1704 60.8118C50.0241 58.4479 48.6928 56.4644 47.8892 54.3093C47.3748 52.9303 47.0374 51.4999 46.9383 50.0248C46.8335 48.4662 47.1174 42.6081 43.9604 44.4303C43.3317 44.7931 42.9109 45.3861 42.4716 45.9431C41.4805 47.1999 40.8623 48.3503 40.0685 49.7178C39.6114 50.5053 39.5824 51.099 39.2855 51.9018C38.6967 53.4943 37.2233 54.5964 36.1882 55.8899C35.8651 56.2936 35.5606 56.7221 35.3147 57.1782L35.8735 57.4624C36.6108 55.8008 38.0066 54.5618 38.9873 53.07C39.61 52.1222 39.7898 51.2324 40.241 50.2399C40.9367 48.7093 41.9369 47.0358 42.9797 45.7189C44.0438 44.3755 45.6492 43.537 46.3268 45.7503C46.8443 47.4406 46.5691 49.4287 46.8038 51.2065C47.1475 53.8106 48.1512 55.518 49.084 57.8616C49.4863 58.8722 49.7754 59.9087 49.8352 61.0021V61.0017ZM43.6691 45.5527C44.2963 44.9419 45.1498 44.5068 45.7446 45.4252C46.5747 46.7072 46.2353 49.5893 46.3453 51.1419C46.4451 52.5552 46.8244 53.9371 47.3305 55.2526C48.0736 57.1851 49.2292 59.0042 49.247 61.154C49.2715 61.2382 49.4685 61.1617 49.5313 61.1341C49.6228 61.0943 49.6955 61.0698 49.6941 60.9546C49.6679 58.6791 47.898 55.9259 47.2079 53.6992C46.5119 51.4531 46.6526 49.7531 46.5188 47.4779C46.4364 46.0744 45.8923 43.6592 44.0016 44.8902C43.271 45.3662 42.3982 46.6841 41.9037 47.4346C40.9978 48.8098 40.4167 50.2444 39.7996 51.7524C39.0707 53.533 37.7279 54.7298 36.6823 56.2789C36.5762 56.4364 35.9175 57.49 35.98 57.5787L36.536 57.826C36.7166 57.1782 37.0651 56.5426 37.4154 55.9653C38.1722 54.7183 39.1553 53.6172 39.8579 52.3348C40.9922 50.2647 41.9889 47.1888 43.6687 45.5527H43.6691ZM49.1702 61.2445C49.1465 58.9389 47.8732 56.9966 47.1213 54.9027C46.559 53.3364 46.2611 51.7988 46.2035 50.1313C46.163 48.9607 46.4563 45.8097 45.3094 45.127C44.3316 44.5452 43.1435 46.2522 42.7 46.9394C41.572 48.6873 40.878 50.675 39.8583 52.4742C39.1043 53.8044 38.0559 54.9809 37.3033 56.3062C37.18 56.523 36.5653 57.7062 36.6111 57.8703C36.631 57.9426 37.0518 58.1486 37.1419 58.1804C37.1776 58.193 37.1772 58.2307 37.2174 58.1745C37.8809 56.0268 39.3774 54.2776 40.4516 52.3342C41.4647 50.5015 42.1901 48.3035 43.4686 46.6604C43.8951 46.1125 44.6882 45.2426 45.3126 46.1006C46.0212 47.0742 45.7369 49.5449 45.7847 50.7588C45.8515 52.4536 46.2789 54.0589 46.8765 55.6353C47.5735 57.4746 48.6561 59.2661 48.6533 61.2926L48.7201 61.3359L49.1702 61.2434V61.2445ZM53.8147 45.436C53.8028 46.2857 53.7165 47.1228 53.5597 47.956C53.3848 48.8856 52.9971 49.897 53.2381 50.8458C53.3547 51.3054 53.6861 51.7331 53.9715 52.1012C54.0479 52.0415 54.0378 51.898 54.0155 51.8135C53.9805 51.6818 53.6739 51.298 53.5884 51.0892C52.9769 49.5984 54.2316 47.5425 53.9187 45.9424L53.815 45.436H53.8147ZM15.3837 46.204C15.7074 47.1161 16.0092 48.0335 16.2204 48.9806L18.1262 48.2979C18.2327 48.1271 17.5482 45.8254 17.338 45.6955L15.3833 46.204H15.3837ZM33.835 53.6245C34.7197 52.6799 35.833 51.7384 36.3677 50.5549C36.6083 50.022 36.7424 49.3794 37.0316 48.8804C37.3847 48.2713 38.0091 47.9001 38.4355 47.3526C38.8169 46.8629 39.0669 46.2742 39.3281 45.7151C39.0236 46.1397 38.857 46.6527 38.5403 47.0732C37.9508 47.8561 37.115 48.2109 36.719 49.1612C36.5563 49.5519 36.4976 49.9378 36.3219 50.3345C35.7887 51.5379 35.0713 52.038 34.2147 52.939C33.5805 53.6064 32.9875 54.3184 32.3536 54.9872L32.2446 55.1562L32.4133 55.24C32.809 54.6383 33.3458 54.1469 33.835 53.6245ZM13.7032 45.86L12.8706 46.0297C13.0368 46.4425 13.2258 46.8542 13.3417 47.2862C13.4074 47.531 13.5286 47.8694 13.3899 48.102C13.289 48.2713 13.1186 48.2343 12.9768 48.1393C12.6345 47.9103 12.3167 46.6468 12.1369 46.2385L11.3497 46.4823C11.5096 46.9852 11.9064 47.6536 11.9182 48.1854C11.9249 48.4931 11.7572 48.7711 11.4408 48.5581C11.1098 48.3353 10.6896 46.6845 10.5814 46.6604L9.83367 46.8675C10.0006 47.3756 10.3568 48.0325 10.3879 48.5647C10.419 49.0969 10.0526 49.2142 9.76941 48.7983C9.58886 48.5333 9.17641 47.1776 9.10203 47.127C8.98224 47.0456 8.24501 47.3651 8.05328 47.356C8.55303 48.9076 9.10412 50.4379 9.76417 51.9277L14.9269 50.0555C14.9821 49.9734 14.9042 49.5687 14.8839 49.443C14.6845 48.2179 14.2179 46.981 13.7032 45.8596V45.86ZM25.9948 48.4023C26.0004 47.7681 26.2424 47.2893 26.5944 46.7854C26.7659 46.5399 27.0397 46.271 27.1829 46.0126C27.2063 45.9703 27.2293 45.9442 27.2167 45.8897C27.0882 45.9616 26.8926 45.9686 26.7798 46.0632C26.709 46.1226 26.4561 46.4753 26.3852 46.5759C26.1523 46.9063 25.9784 47.2024 25.8729 47.5991C25.7863 47.9246 25.7283 48.0608 25.9172 48.3573C25.9392 48.3918 25.9141 48.4194 25.9955 48.402L25.9948 48.4023ZM45.5763 47.2855C45.5176 46.6932 45.2717 45.773 44.4947 45.9246C44.3805 46.0116 44.75 45.9951 44.7835 46.0021C45.0891 46.0653 45.3255 46.4526 45.4181 46.7285L45.5763 47.2852V47.2855ZM48.0202 61.4208C48.0485 59.2581 46.8558 57.3318 46.1542 55.3462C45.7317 54.1508 45.4132 52.8667 45.3328 51.5956C45.2434 50.1795 45.5151 48.5189 45.1694 47.1521C44.8373 45.8404 44.0449 46.6171 43.5381 47.2886C42.3612 48.8483 41.5961 51.173 40.5917 52.9282C39.5586 54.734 38.1774 56.3673 37.5809 58.3976L38.1421 58.6634C38.3618 56.8817 39.4853 55.4548 40.3692 53.9622C40.7778 53.2722 41.1983 52.551 41.5583 51.8358C42.1164 50.7267 42.5634 49.4894 43.1624 48.4138C43.3984 47.9902 44.4409 46.2466 44.8851 47.3662C45.182 48.1142 45.0556 49.0707 45.0514 49.8491C45.0426 51.4496 45.0961 52.9271 45.5242 54.4752C46.1703 56.8108 47.6231 58.9431 47.6357 61.4208H48.0198H48.0202ZM25.5411 46.5179L25.055 46.7299C25.0078 46.7955 25.2286 47.0826 25.2275 47.1804L25.5411 46.5176V46.5179ZM47.4614 61.4208C47.5239 59.3643 46.4081 57.5344 45.7505 55.6454C45.2707 54.2678 44.9958 52.8887 44.9469 51.423C44.9131 50.4089 45.05 49.3574 44.9829 48.3506C44.9071 47.216 44.5492 46.6286 43.6977 47.7629C42.8219 48.9293 42.1789 50.9202 41.4759 52.2776C41.192 52.8259 40.8581 53.3947 40.5435 53.928C39.6452 55.4509 38.5022 56.8984 38.2501 58.7102L38.9443 59.0475C38.9632 59.0255 38.9705 58.5506 38.9796 58.472C39.2178 56.4364 40.5459 54.8056 41.4756 53.0452C42.0218 52.0108 42.4531 50.9345 42.9525 49.8798C43.1739 49.4119 44.3197 46.7945 44.6246 48.6041C44.7807 49.5313 44.5708 50.6995 44.5977 51.6675C44.6358 53.0308 44.8809 54.4026 45.3227 55.6891C45.9643 57.5567 47.0898 59.3712 46.9379 61.4208H47.4614ZM46.8283 61.381C46.9872 60.3019 46.5953 59.2047 46.2311 58.2014C45.7215 56.7968 45.0772 55.4687 44.7905 53.9877C44.495 52.4623 44.5897 51.0389 44.6008 49.5037C44.6075 48.5888 44.4783 47.2583 43.616 48.7281C42.8201 50.0848 42.2554 51.723 41.5059 53.145C40.6482 54.7727 39.2848 56.5178 39.0847 58.3672C39.0596 58.5984 39.0571 58.86 39.048 59.094L39.5729 59.3266C39.4106 58.2698 39.6477 57.1467 40.1125 56.1843C40.6783 55.0127 41.4434 53.8773 42.0347 52.6963C42.4918 51.7827 42.8823 50.6593 43.4068 49.8104C43.769 49.2244 44.1549 49.2677 44.2149 49.9912C44.2771 50.7389 44.1779 51.5687 44.216 52.3289C44.2844 53.7003 44.6326 55.0242 45.0877 56.3086C45.6608 57.9272 46.5897 59.55 46.3777 61.3297L46.8286 61.381H46.8283ZM45.716 61.2811C46.0372 59.5378 45.066 57.9436 44.5135 56.3585C44.1259 55.2463 43.8434 54.0981 43.7271 52.9219C43.6984 52.6306 43.6953 51.4831 43.5549 51.3141C43.3227 51.0347 42.9333 51.8204 42.8481 51.9738C42.5355 52.5377 42.2704 53.1391 41.9648 53.708C41.0523 55.4062 39.5963 57.4568 40.2176 59.5019C40.2326 59.5511 40.2683 59.6793 40.3413 59.6576C39.5953 56.793 41.8272 54.4522 42.9444 52.0349C43.1959 51.6752 43.4376 51.5798 43.5427 52.0939C43.638 52.5597 43.6289 53.1021 43.6967 53.5802C43.8301 54.521 44.1102 55.4834 44.4241 56.3777C44.9214 57.7942 45.7607 59.2658 45.681 60.8093C45.6789 60.8526 45.5543 61.3964 45.716 61.2808V61.2811ZM44.9829 61.1414C45.2131 59.5469 44.3721 58.1074 43.8654 56.6575C43.5594 55.782 43.2916 54.8894 43.1725 53.965C43.1128 53.5026 43.1128 53.034 43.0653 52.5716C43.0597 52.5185 43.0614 52.485 43.0111 52.4522C42.9053 52.5479 42.8316 52.6711 42.7562 52.7899C42.1489 53.7432 41.3635 55.1464 40.9046 56.1735C40.3849 57.3367 40.2113 58.5621 40.6706 59.783C42.064 60.3585 43.505 60.8299 44.9833 61.1418L44.9829 61.1414ZM48.5783 61.351C48.5521 59.4736 47.6325 57.8088 46.9564 56.1144C46.6421 55.3266 46.3509 54.5293 46.1099 53.715L45.8211 52.4861C45.9318 53.4632 46.2192 54.4106 46.5531 55.3311C47.2697 57.3067 48.4169 59.1984 48.4735 61.3513H48.5779L48.5783 61.351ZM27.8454 53.3584C27.9721 54.1833 27.9491 55.0242 28.021 55.8525C28.1233 57.344 27.8803 59.0287 28.0182 60.4971C28.0462 60.7954 28.218 60.9291 28.4659 61.0618C29.2227 61.4669 30.363 61.5106 31.169 61.2364C31.4229 61.1502 31.9488 60.8879 31.997 60.5988L32.0288 56.9788C31.4788 56.5056 30.8704 56.0896 30.3067 55.6262C29.4452 54.918 28.6266 54.1522 27.8454 53.3584Z" fill="#F7F3CF"/>
<path d="M57.5055 19.1294C58.6551 18.9729 58.7896 20.6569 57.7367 20.7571C56.6914 20.8563 56.4745 19.2698 57.5055 19.1294Z" fill="#F7F3CF"/>
<path d="M14.1178 34.8691C15.1892 34.6864 15.4941 36.1416 14.5739 36.4419C13.4427 36.8111 13.0456 35.0517 14.1178 34.8691Z" fill="#F7F3CF"/>
<path d="M22.0767 16.4758C22.7392 16.3822 23.2708 17.1791 22.8534 17.7414C22.2447 18.5617 21.021 17.8294 21.4858 16.8977C21.5847 16.6997 21.8585 16.5065 22.0767 16.4758Z" fill="#F7F3CF"/>
<path d="M35.515 8.79778C36.6968 8.59698 36.7506 10.4094 35.5761 10.2903C34.7485 10.2062 34.7299 8.93118 35.515 8.79778Z" fill="#F7F3CF"/>
<path d="M13.5605 29.076C14.5321 28.9562 14.698 30.4383 13.7924 30.5647C12.7206 30.7145 12.6001 29.194 13.5605 29.076Z" fill="#F7F3CF"/>
<path d="M57.5763 26.7362C58.1592 26.6894 58.6087 27.3697 58.2762 27.8924C57.8931 28.4948 56.947 28.2644 56.8887 27.5443C56.8576 27.1612 57.1957 26.7666 57.5763 26.7362Z" fill="#F7F3CF"/>
<path d="M53.0737 15.3932C53.7858 15.3223 54.1937 16.3423 53.5117 16.7761C52.4783 17.4336 51.8291 15.5168 53.0737 15.3932Z" fill="#F7F3CF"/>
<path d="M17.1544 18.0465C17.8417 17.9365 18.3013 18.7715 17.8099 19.2953C17.263 19.8781 16.3261 19.2646 16.5883 18.5277C16.6673 18.3056 16.9201 18.0842 17.1544 18.0465Z" fill="#F7F3CF"/>
<path d="M9.89417 31.9374C10.9345 31.76 11.0788 33.2351 10.1921 33.3863C9.1737 33.5599 9.03156 32.0844 9.89417 31.9374Z" fill="#F7F3CF"/>
<path d="M62.5976 20.7382C63.2441 21.3888 62.2303 22.4435 61.5615 21.7569C60.8672 21.0441 61.925 20.0614 62.5976 20.7382Z" fill="#F7F3CF"/>
<path d="M19.1095 34.3805C19.7134 34.2768 20.2037 34.8055 19.9355 35.381C19.6344 36.0274 18.6856 35.9108 18.5686 35.219C18.5092 34.8687 18.7495 34.4423 19.1095 34.3805Z" fill="#F7F3CF"/>
<path d="M43.7548 10.5075C44.6702 10.4607 44.732 11.8457 43.8488 11.9306C42.8856 12.0231 42.7815 10.5571 43.7548 10.5075Z" fill="#F7F3CF"/>
<path d="M24.4503 21.3619C25.4184 21.2239 25.5521 22.7444 24.5795 22.7856C23.6998 22.823 23.5755 21.4865 24.4503 21.3619Z" fill="#F7F3CF"/>
<path d="M12.547 39.4065C13.6457 39.2179 13.6017 41.0136 12.5118 40.7862C11.7763 40.6329 11.8091 39.5333 12.547 39.4065Z" fill="#F7F3CF"/>
<path d="M51.8872 11.7634C52.125 11.74 52.4131 11.908 52.5301 12.1151C52.8815 12.736 52.1523 13.4851 51.5135 12.992C51.0197 12.6106 51.2781 11.8238 51.8872 11.7638V11.7634Z" fill="#F7F3CF"/>
<path d="M20.052 23.4915C20.9796 23.3305 21.165 24.6942 20.3496 24.8356C19.4231 24.9966 19.224 23.6353 20.052 23.4915Z" fill="#F7F3CF"/>
<path d="M31.2922 9.98474C31.5423 9.95366 31.7836 10.0693 31.9229 10.2784C32.3155 10.8683 31.6048 11.5929 31.0041 11.1623C30.5054 10.8051 30.6992 10.0584 31.2926 9.98474H31.2922Z" fill="#F7F3CF"/>
<path d="M24.3074 12.92C24.658 13.2885 24.3975 13.9558 23.8834 13.9579C23.171 13.9604 23.0505 12.9934 23.6463 12.7758C23.8621 12.6969 24.1478 12.7524 24.3074 12.92Z" fill="#F7F3CF"/>
<path d="M17.3642 38.5688C18.4255 38.3872 18.2666 39.9363 17.3796 39.723C16.7799 39.5787 16.7964 38.6659 17.3642 38.5688Z" fill="#F7F3CF"/>
<path d="M16.1777 26.3535C17.0291 26.2103 17.1014 27.4284 16.3397 27.4951C15.657 27.5548 15.4991 26.4677 16.1777 26.3535Z" fill="#F7F3CF"/>
<path d="M64.8359 25.9329C65.3765 25.8571 65.6395 26.6037 65.1356 26.8981C64.4476 27.3 64.0027 26.0495 64.8359 25.9329Z" fill="#F7F3CF"/>
<path d="M13.1377 24.9016C12.6502 25.3392 11.9835 24.5653 12.4549 24.1319C12.9474 23.679 13.6511 24.4406 13.1377 24.9016Z" fill="#F7F3CF"/>
<path d="M60.8906 24.608C61.4462 24.4948 61.7762 25.1922 61.2817 25.5222C60.5986 25.9783 60.1827 24.7519 60.8906 24.608Z" fill="#F7F3CF"/>
<path d="M15.7102 22.0992C16.1073 21.7248 16.7785 22.2493 16.446 22.7477C16.0102 23.4011 15.1912 22.5884 15.7102 22.0992Z" fill="#F7F3CF"/>
<path d="M55.4803 23.0376C56.0513 22.9346 56.3251 23.6138 55.8561 23.9369C55.5086 24.1761 55.0487 23.8342 55.1077 23.4333C55.1318 23.2688 55.3155 23.0677 55.4803 23.038V23.0376Z" fill="#F7F3CF"/>
<path d="M57.1903 15.5334C57.7931 15.4088 58.0208 16.1561 57.5507 16.417C56.8781 16.7899 56.5669 15.6623 57.1903 15.5334Z" fill="#F7F3CF"/>
<path d="M40.7703 8.66098C41.1729 8.31595 41.8152 8.82162 41.4726 9.31053C41.0552 9.90594 40.2614 9.09716 40.7703 8.66098Z" fill="#F7F3CF"/>
<path d="M33.3021 13.384C32.8338 12.9422 33.5483 12.2553 33.9876 12.7159C34.427 13.1765 33.7393 13.7961 33.3021 13.384Z" fill="#F7F3CF"/>
<path d="M47.6277 10.2618C48.2622 10.1675 48.3467 11.1384 47.7541 11.196C47.1572 11.2539 47.0668 10.3449 47.6277 10.2618Z" fill="#F7F3CF"/>
<path d="M28.7427 12.8806C29.3476 12.8264 29.4101 13.8088 28.7696 13.8088C28.185 13.8088 28.1591 12.933 28.7427 12.8806Z" fill="#F7F3CF"/>
<path d="M9.64982 42.5818C10.1625 42.4778 10.4272 43.1214 9.98473 43.406C9.38126 43.794 9.00339 42.7131 9.64982 42.5818Z" fill="#F7F3CF"/>
<path d="M53.1415 19.4773C53.6416 19.3746 53.8951 20.0511 53.4428 20.3022C52.8387 20.6378 52.5163 19.6055 53.1415 19.4773Z" fill="#F7F3CF"/>
<path d="M9.15943 38.2227C9.61378 38.215 9.76116 38.9711 9.25023 39.0759C8.6059 39.2082 8.55456 38.2328 9.15943 38.2227Z" fill="#F7F3CF"/>
<path d="M49.1983 14.0659C49.7271 13.9632 49.8664 14.8206 49.3265 14.8956C48.8254 14.9651 48.642 14.1742 49.1983 14.0659Z" fill="#F7F3CF"/>
<path d="M50.1254 17.9444C50.4076 17.6053 51.1029 17.9874 50.7932 18.455C50.468 18.946 49.7706 18.3705 50.1254 17.9444Z" fill="#F7F3CF"/>
<path d="M38.6219 11.204C39.0546 11.1223 39.3344 11.7317 38.9079 11.981C38.3488 12.3082 38.0418 11.3133 38.6219 11.204Z" fill="#F7F3CF"/>
<path d="M19.5632 41.5699C20.1691 41.4459 20.2466 42.3585 19.6906 42.3983C19.2226 42.4318 19.0906 41.6667 19.5632 41.5699Z" fill="#F7F3CF"/>
<path d="M21.0282 20.454C21.7385 20.2916 21.7448 21.2705 21.1602 21.2523C20.7037 21.238 20.6311 20.5448 21.0282 20.454Z" fill="#F7F3CF"/>
<path d="M14.9559 41.7786C15.5821 41.6567 15.5905 42.7128 14.9633 42.594C14.5257 42.5113 14.5299 41.8614 14.9559 41.7786Z" fill="#F7F3CF"/>
<path d="M57.5726 30.7884C57.8663 31.1362 57.3628 31.7149 56.966 31.3601C56.5546 30.992 57.1944 30.3404 57.5726 30.7884Z" fill="#F7F3CF"/>
<path d="M26.8222 10.6816C27.4239 10.543 27.5238 11.3724 27.0513 11.4687C26.4625 11.5889 26.3979 10.7794 26.8222 10.6816Z" fill="#F7F3CF"/>
<path d="M16.7702 31.6575C17.2096 31.6184 17.3681 32.2331 16.9794 32.4248C16.3955 32.7129 16.1685 31.711 16.7702 31.6575Z" fill="#F7F3CF"/>
<path d="M19.06 28.2406C19.367 27.8775 19.96 28.2881 19.6928 28.7166C19.3956 29.1933 18.7076 28.658 19.06 28.2406Z" fill="#F7F3CF"/>
<path d="M61.5529 28.2371C62.1603 28.0974 62.2367 29.0197 61.65 29.0005C61.1534 28.9844 61.1876 28.3209 61.5529 28.2371Z" fill="#F7F3CF"/>
<path d="M19.9479 14.7988C20.3405 14.7541 20.5546 15.3425 20.1439 15.5556C19.6368 15.8185 19.3078 14.8718 19.9479 14.7988Z" fill="#F7F3CF"/>
<path d="M10.8347 28.3229C10.5815 28.6275 10.0126 28.3519 10.1921 27.907C10.4237 27.3343 11.2053 27.8773 10.8347 28.3229Z" fill="#F7F3CF"/>
<path d="M10.4168 35.601C11.0164 35.4631 11.0862 36.3819 10.5138 36.3644C10.0585 36.3505 10.0403 35.6876 10.4168 35.601Z" fill="#F7F3CF"/>
<path d="M25.2728 16.5267C24.933 16.1426 25.5149 15.6104 25.8564 15.9952C26.198 16.38 25.5994 16.8958 25.2728 16.5267Z" fill="#F7F3CF"/>
<path d="M21.061 56.5221C20.2968 57.2862 19.1203 56.1195 19.868 55.3466C20.6363 54.5529 21.8373 55.7458 21.061 56.5221Z" fill="#F7F3CF"/>
<path d="M61.3454 51.0989C61.5284 51.0919 61.8169 51.2232 61.9485 51.3503C62.5796 51.9597 61.8724 53.0444 61.0049 52.6777C60.2425 52.3557 60.4692 51.1331 61.3454 51.0989Z" fill="#F7F3CF"/>
<path d="M41.3062 66.9231C40.5498 67.6487 39.4336 66.4743 40.144 65.7609C40.9133 64.9884 42.093 66.1684 41.3062 66.9231Z" fill="#F7F3CF"/>
<path d="M60.786 42.2333C61.7653 42.0639 62.1012 43.378 61.2575 43.7167C60.1619 44.1564 59.7977 42.4044 60.786 42.2333Z" fill="#F7F3CF"/>
<path d="M66.231 42.8268C66.9309 42.7077 67.4366 43.4097 67.0234 44.003C66.6361 44.5589 65.7763 44.3662 65.6625 43.6932C65.5989 43.3171 65.8402 42.8935 66.231 42.8268Z" fill="#F7F3CF"/>
<path d="M26.8601 64.4992C27.1094 64.4793 27.4073 64.6407 27.5376 64.8519C27.9794 65.5692 27.0707 66.3623 26.4323 65.8175C25.9158 65.3768 26.2266 64.5499 26.8604 64.4992H26.8601Z" fill="#F7F3CF"/>
<path d="M35.4661 66.8078C36.144 66.1758 37.1246 67.23 36.4331 67.8618C35.757 68.4792 34.7872 67.441 35.4661 66.8078Z" fill="#F7F3CF"/>
<path d="M58.0985 47.2942C59.1382 47.1347 59.2146 48.8402 58.0583 48.6785C57.327 48.5766 57.3148 47.4144 58.0985 47.2942Z" fill="#F7F3CF"/>
<path d="M55.4803 61.0804C56.2545 60.9466 56.6478 61.9206 55.9958 62.3634C55.5872 62.641 55.0043 62.3655 54.94 61.8829C54.8929 61.5281 55.1077 61.1446 55.4803 61.0804Z" fill="#F7F3CF"/>
<path d="M19.2113 59.3747C20.1305 59.3572 20.1407 60.766 19.2372 60.7894C18.3337 60.8128 18.2806 59.3921 19.2113 59.3747Z" fill="#F7F3CF"/>
<path d="M57.2272 56.1226C58.146 56.0112 58.2508 57.4524 57.3567 57.5118C56.4114 57.5746 56.3719 56.2263 57.2272 56.1226Z" fill="#F7F3CF"/>
<path d="M15.5064 54.8429C16.2098 54.8673 16.4085 55.812 15.7463 56.1119C14.7584 56.5596 14.429 54.8055 15.5064 54.8429Z" fill="#F7F3CF"/>
<path d="M62.3933 46.4909C63.0935 46.4078 63.3407 47.3619 62.7282 47.665C61.876 48.0869 61.4357 46.6048 62.3933 46.4909Z" fill="#F7F3CF"/>
<path d="M23.5786 60.8687C23.7497 60.8488 24.004 61 24.0826 61.1519C24.3358 61.6429 23.7724 62.1563 23.3094 61.8553C22.892 61.5839 23.1075 60.9232 23.5786 60.8687Z" fill="#F7F3CF"/>
<path d="M65.1839 49.7372C66.0664 49.5542 66.0479 50.8543 65.2845 50.7736C64.7051 50.7125 64.6506 49.8475 65.1839 49.7372Z" fill="#F7F3CF"/>
<path d="M61.3816 55.6692C62.0151 55.6143 62.1147 56.61 61.5444 56.7071C60.7313 56.8457 60.6664 55.731 61.3816 55.6692Z" fill="#F7F3CF"/>
<path d="M22.2857 50.749C22.9461 50.6271 23.1385 51.5114 22.5996 51.7254C21.8655 52.017 21.589 50.8775 22.2857 50.749Z" fill="#F7F3CF"/>
<path d="M67.6281 38.8831C67.8166 38.8729 68.0265 39.0189 68.1201 39.1764C68.3712 39.5983 67.796 40.2101 67.3218 39.8005C66.9823 39.5071 67.1859 38.9072 67.6281 38.8831Z" fill="#F7F3CF"/>
<path d="M57.6093 39.9295C58.3405 39.7793 58.4352 41.0072 57.6044 40.8954C57.1018 40.8277 57.1161 40.0308 57.6093 39.9295Z" fill="#F7F3CF"/>
<path d="M48.5344 65.8262C49.0296 65.7232 49.3659 66.4597 48.8704 66.7555C48.2393 67.1323 47.8185 65.9753 48.5344 65.8262Z" fill="#F7F3CF"/>
<path d="M37.8856 62.6896C38.4231 63.1774 37.4609 63.9485 37.1229 63.2951C36.8578 62.7828 37.4857 62.3267 37.8856 62.6896Z" fill="#F7F3CF"/>
<path d="M33.4416 64.4804C33.0623 64.1011 33.5711 63.4687 34.0059 63.7938C34.5413 64.1944 33.8596 64.8984 33.4416 64.4804Z" fill="#F7F3CF"/>
<path d="M31.1167 65.896C31.6217 65.7923 31.8505 66.5211 31.3668 66.7394C30.7797 67.0041 30.53 66.0169 31.1167 65.896Z" fill="#F7F3CF"/>
<path d="M44.4505 67.083C45.0295 66.9824 45.1381 67.8027 44.6436 67.9047C44.0827 68.0199 43.9417 67.1717 44.4505 67.083Z" fill="#F7F3CF"/>
<path d="M63.1609 39.8581C63.7445 39.7924 63.8028 40.8002 63.1187 40.6871C62.6853 40.6155 62.6923 39.9108 63.1609 39.8581Z" fill="#F7F3CF"/>
<path d="M45.0099 64.4298C45.4545 64.3575 45.6794 64.9344 45.3152 65.19C44.7693 65.5731 44.3799 64.5321 45.0099 64.4298Z" fill="#F7F3CF"/>
<path d="M24.1707 55.809C24.7015 55.7063 24.8395 56.5165 24.398 56.6304C23.7781 56.7903 23.6856 55.903 24.1707 55.809Z" fill="#F7F3CF"/>
<path d="M52.4078 64.0841C52.6931 64.339 52.4661 64.9309 51.9978 64.7902C51.3912 64.6082 51.8895 63.6203 52.4078 64.0841Z" fill="#F7F3CF"/>
<path d="M18.0834 53.1023C17.7282 52.7612 18.2112 52.1842 18.5947 52.4692C19.0263 52.7901 18.4941 53.4966 18.0834 53.1023Z" fill="#F7F3CF"/>
<path d="M59.1819 59.3686C59.6132 59.3096 59.8499 59.9462 59.3848 60.132C58.8281 60.3541 58.6042 59.4475 59.1819 59.3686Z" fill="#F7F3CF"/>
<path d="M57.2258 43.9781C57.7015 43.895 57.8538 44.5131 57.5038 44.7101C56.9768 45.0062 56.658 44.0776 57.2258 43.9781Z" fill="#F7F3CF"/>
<path d="M57.8191 52.4579C58.4048 52.3304 58.4481 53.3002 57.8488 53.2174C57.4147 53.1577 57.4591 52.5361 57.8191 52.4579Z" fill="#F7F3CF"/>
<path d="M66.7208 46.7683C67.2667 46.7027 67.3016 47.5991 66.7107 47.5321C66.2798 47.4832 66.2993 46.819 66.7208 46.7683Z" fill="#F7F3CF"/>
<path d="M63.8093 54.2889C63.4688 53.9522 63.9504 53.3952 64.3231 53.7577C64.6671 54.0926 64.1331 54.6088 63.8093 54.2889Z" fill="#F7F3CF"/>
<path d="M40.0518 30.0163C40.563 29.9017 40.5686 30.7957 40.0259 30.6567C39.6557 30.5621 39.7581 30.0819 40.0518 30.0163Z" fill="#F7F3CF"/>
<path d="M34.8868 37.0654C35.3408 36.9735 35.4396 37.6769 34.9744 37.716C34.6077 37.7467 34.5288 37.1377 34.8868 37.0654Z" fill="#F7F3CF"/>
<path d="M34.048 38.6025C34.5244 38.4949 34.5736 39.1354 34.2073 39.2167C33.7994 39.3072 33.6656 38.6887 34.048 38.6025Z" fill="#F7F3CF"/>
<path d="M27.7652 49.1772C28.3149 49.0574 28.2527 49.9905 27.7139 49.7719C27.4516 49.6654 27.5134 49.232 27.7652 49.1772Z" fill="#F7F3CF"/>
<path d="M39.563 31.5876C40.0596 31.4758 40.1124 32.1278 39.7216 32.2032C39.3643 32.272 39.203 31.6686 39.563 31.5876Z" fill="#F7F3CF"/>
<path d="M29.7891 46.2488C30.0346 46.5393 29.6812 46.9695 29.3784 46.7118C29.0313 46.4164 29.5349 45.9481 29.7891 46.2488Z" fill="#F7F3CF"/>
<path d="M42.6699 28.3411C43.009 28.2671 43.228 28.6645 42.9412 28.8576C42.5379 29.1293 42.2746 28.4274 42.6699 28.3411Z" fill="#F7F3CF"/>
<path d="M31.3609 40.4161C31.7259 40.3403 31.8792 40.9326 31.4902 41.0021C31.1011 41.0716 31.0348 40.4839 31.3609 40.4161Z" fill="#F7F3CF"/>
<path d="M27.1732 47.8501C27.4002 47.8128 27.5954 48.1089 27.4267 48.316C27.096 48.7221 26.6549 47.9354 27.1732 47.8501Z" fill="#F7F3CF"/>
<path d="M36.5609 35.008C37.0275 34.8697 37.0523 35.5423 36.6266 35.4882C36.35 35.4533 36.3563 35.0685 36.5609 35.008Z" fill="#F7F3CF"/>
<path d="M41.7977 27.049C42.1533 26.977 42.1815 27.4659 41.9214 27.5242C41.5683 27.6035 41.5061 27.108 41.7977 27.049Z" fill="#F7F3CF"/>
<path d="M28.6721 48.0958C29.1184 47.962 29.0643 48.657 28.7091 48.5693C28.4758 48.5117 28.4723 48.1555 28.6721 48.0958Z" fill="#F7F3CF"/>
<path d="M38.0969 32.5283C38.3414 32.4543 38.4503 32.8336 38.2216 32.9003C37.9523 32.9788 37.8895 32.5908 38.0969 32.5283Z" fill="#F7F3CF"/>
<path d="M38.0616 33.8553C38.4507 33.7384 38.3403 34.3366 38.0728 34.215C37.9404 34.155 37.9156 33.8993 38.0616 33.8553Z" fill="#F7F3CF"/>
<path d="M40.3494 29.0934C40.2335 28.9757 40.311 28.6632 40.5495 28.7711C40.8251 28.8957 40.5216 29.2687 40.3494 29.0934Z" fill="#F7F3CF"/>
<path d="M33.2808 40.1727C33.5525 40.1164 33.5396 40.4632 33.4065 40.5093C33.132 40.6043 33.0381 40.2229 33.2808 40.1727Z" fill="#F7F3CF"/>
<path d="M32.5324 41.5377C32.7458 41.36 32.9987 41.7682 32.6627 41.8618C32.5017 41.9068 32.3784 41.6659 32.5324 41.5377Z" fill="#F7F3CF"/>
<path d="M41.7286 28.0634C41.8725 28.2077 41.6968 28.4734 41.4921 28.3519C41.2875 28.2304 41.5494 27.8836 41.7286 28.0634Z" fill="#F7F3CF"/>
<path d="M31.4832 41.8326C31.3721 41.7208 31.4475 41.4718 31.6588 41.5333C31.9522 41.6189 31.6752 42.0257 31.4832 41.8326Z" fill="#F7F3CF"/>
<path d="M40.8381 30.9602C41.0501 30.7482 41.3294 31.2487 40.983 31.2661C40.8318 31.2738 40.7309 31.0674 40.8381 30.9602Z" fill="#F7F3CF"/>
<path d="M39.1494 32.8065C39.1875 32.8942 39.2206 33.0202 39.1574 33.1012C38.9734 33.2399 38.7865 33.0513 38.9067 32.8502L39.1494 32.8062V32.8065Z" fill="#F7F3CF"/>
<path d="M43.1942 29.5994C43.3611 29.766 43.0234 30.029 42.9057 29.8355C42.7989 29.6595 43.0702 29.4758 43.1942 29.5994Z" fill="#F7F3CF"/>
<path d="M41.2716 29.1763C41.5112 29.0974 41.6045 29.4554 41.3984 29.5161C41.1924 29.5769 41.1005 29.2329 41.2716 29.1763Z" fill="#F7F3CF"/>
<path d="M33.3146 38.0439C33.6558 37.9405 33.6041 38.4228 33.3558 38.3686C33.1955 38.3337 33.1623 38.09 33.3146 38.0439Z" fill="#F7F3CF"/>
<path d="M35.5471 35.9853C35.8174 35.9601 35.7347 36.47 35.435 36.2936C35.2716 36.1973 35.4238 35.9965 35.5471 35.9853Z" fill="#F7F3CF"/>
<path d="M27.958 47.2422C27.7869 47.0645 28.0886 46.7397 28.2105 47.0072C28.2992 47.2021 28.0597 47.3477 27.958 47.2422Z" fill="#F7F3CF"/>
<path d="M32.5835 39.5988C32.3946 39.7884 32.169 39.4235 32.4184 39.3107C32.6153 39.2216 32.6904 39.4916 32.5835 39.5988Z" fill="#F7F3CF"/>
<path d="M42.0396 30.2234C42.2561 30.1511 42.34 30.4413 42.1908 30.5157C41.9499 30.6358 41.8776 30.2775 42.0396 30.2234Z" fill="#F7F3CF"/>
<path d="M28.7416 45.4768C29.0286 45.3888 28.9993 45.861 28.7161 45.7702C28.5425 45.7143 28.6309 45.5107 28.7416 45.4768Z" fill="#F7F3CF"/>
<path d="M36.8242 34.0495C36.696 33.9168 36.8664 33.6895 37.0019 33.7817C37.2055 33.9203 36.9551 34.185 36.8242 34.0495Z" fill="#F7F3CF"/>
<path d="M40.715 27.7107C40.9203 27.6538 40.9678 27.9698 40.8051 28.0149C40.5997 28.0718 40.5522 27.7557 40.715 27.7107Z" fill="#F7F3CF"/>
<path d="M26.911 48.7952C27.028 48.6817 27.2494 48.7931 27.1652 48.961C27.0545 49.1824 26.7699 48.9321 26.911 48.7952Z" fill="#F7F3CF"/>
<path d="M30.486 44.8476C30.677 44.7977 30.6113 45.1343 30.4465 45.0868C30.355 45.0603 30.3829 44.8745 30.486 44.8476Z" fill="#F7F3CF"/>
<path d="M46.9027 36.6412C46.9111 36.7058 46.8325 36.6671 46.7965 36.6601C46.4082 36.5847 46.0481 36.4418 45.6333 36.4708C44.9089 36.5214 43.1394 37.1769 42.5212 37.582C41.8525 38.0199 41.5766 38.5965 41.0223 39.0847C40.788 39.2911 40.4702 39.4545 40.2572 39.6808C39.822 40.1425 39.5388 41.1528 39.265 41.7601C39.0076 42.3307 38.6957 42.8713 38.4261 43.4342C38.0287 44.2643 37.7986 45.0403 37.2132 45.7817C36.7861 46.323 36.249 46.7508 35.8931 47.3587C35.435 48.1424 35.2076 49.1164 34.6167 49.834L35.9144 47.1705C36.4676 46.3495 37.1878 45.7932 37.6592 44.9013C38.0612 44.141 38.4614 43.2359 38.8351 42.4473C39.1745 41.7314 39.4323 41.0012 39.7525 40.2934C40.0997 39.5258 40.3825 39.4608 40.9528 38.9457C41.3531 38.5839 41.6234 38.1118 42.0348 37.7591C42.7388 37.156 44.1448 36.6398 45.0528 36.4492C45.7359 36.3056 46.2591 36.3825 46.9027 36.6419V36.6412Z" fill="#F7F3CF"/>
<path d="M48.1494 32.4947C48.5937 32.3627 48.6932 32.9214 48.3269 33.0237C47.9685 33.124 47.855 32.582 48.1494 32.4947Z" fill="#F7F3CF"/>
<path d="M49.5455 34.5192C49.9132 34.4088 50.0138 34.911 49.7407 34.9931C49.373 35.1034 49.2724 34.6013 49.5455 34.5192Z" fill="#F7F3CF"/>
<path d="M46.4736 31.8657C46.7421 31.7822 46.8476 32.1199 46.6499 32.2184C46.425 32.3305 46.2263 31.9425 46.4736 31.8657Z" fill="#F7F3CF"/>
<path d="M49.4248 33.63C49.306 33.5137 49.4992 33.2836 49.6287 33.4438C49.7429 33.5853 49.5498 33.7522 49.4248 33.63Z" fill="#F7F3CF"/>
<path d="M31.6147 49.6936L32.0677 48.7864C31.9713 49.0937 31.803 49.4335 31.6147 49.6936Z" fill="#F7F3CF"/>
</svg>
