<svg width="77" height="77" viewBox="0 0 77 77" fill="none" xmlns="http://www.w3.org/2000/svg">
<circle cx="38.5" cy="38.5" r="38.5" fill="#4B5A2A"/>
<path d="M40.0569 72.9993H37.0924L33.5646 72.6526C18.2838 70.48 6.20703 58.2305 4.28934 42.9012L4.01009 39.6425C4.0337 38.8365 3.97839 38.0216 4.01009 37.2169C4.83639 16.1912 23.9377 0.842274 44.7186 4.55556C65.832 8.32819 78.3189 30.4615 70.8316 50.6441C66.0694 63.4804 53.7654 72.4078 40.0569 73V72.9993ZM36.5392 5.96869C22.0139 6.68234 9.5102 17.5638 6.59151 31.7458C2.72039 50.5544 15.5101 68.4807 34.5076 70.8348C51.0369 72.8826 66.5841 62.105 70.2772 45.9109C75.1891 24.3705 58.4533 4.89349 36.5392 5.96869Z" fill="#F7F3CF"/>
<path d="M53.0607 33.7128C53.1497 34.4318 53.2482 35.1562 53.0607 35.8685L57.5086 34.4217C57.607 34.3387 57.5693 33.9455 57.6394 33.7438C57.9052 32.9721 59.8458 32.7354 60.5399 32.4318L60.4043 32.0278C59.5261 32.3441 58.9831 31.0875 59.4613 30.444C59.7028 30.1195 61.2427 29.6049 61.6515 29.5974C61.9186 29.5921 62.1399 29.6784 62.2923 29.905C62.4279 30.1067 62.4508 30.5189 62.5257 30.6146C62.5911 30.6983 62.7409 30.67 62.8279 30.7165C63.0721 30.846 63.1024 31.7856 63.2731 31.822C63.5463 31.7054 63.9233 31.6527 64.1783 31.5232C64.7847 31.2163 64.7064 30.1654 65.5995 29.7101C67.1914 28.898 68.9337 30.5243 69.385 31.9758C69.9158 33.6837 69.2211 36.4729 66.9904 36.1228C66.4859 36.0439 65.9294 35.4733 65.6258 35.4605C65.3054 35.4476 64.8076 35.733 64.4758 35.7984C64.3975 35.8962 64.7557 36.6787 64.7651 36.8567C64.7759 37.0557 64.5978 37.1785 64.5837 37.3222C64.5655 37.5029 64.7415 37.7518 64.7193 38.0581C64.693 38.4169 64.5095 38.6058 64.1979 38.7522C63.9382 38.8736 62.7861 39.2291 62.525 39.2405C61.4633 39.2884 61.0606 37.7943 62.0171 37.3066L61.955 37.0139C60.7922 37.2446 59.2165 38.4871 58.3537 37.0969L53.9376 38.3623C54.9379 40.8047 55.6212 43.3916 55.9504 46.0189C56.5231 50.5901 56.1035 59.2248 52.2182 62.3506C48.8699 65.0439 43.9033 63.4055 40.3006 62.0848C40.2156 62.1172 40.2143 62.1799 40.1968 62.2541C40.1064 62.6305 40.0713 63.8129 39.8878 64.0342C39.7044 64.2554 38.7728 64.4841 38.474 64.5063C37.9708 64.5434 36.4181 64.3229 36.2009 63.817C36.1159 62.4922 35.9816 61.1661 35.6154 59.8878L33.3206 58.5779C33.328 59.2855 33.3105 59.9951 33.3172 60.7034C33.3226 61.2524 33.4778 61.4878 33.2194 62.0821C32.1651 64.503 26.4175 64.1617 26.176 61.3765C26.1335 60.8855 26.2428 60.414 26.2489 59.962C26.2799 57.4454 26.2428 54.924 26.1753 52.4147C24.9956 50.7244 23.8232 49.0266 22.945 47.1514L22.7926 47.1318L20.9896 47.8279C20.8654 48.122 20.8735 48.5052 20.6219 48.7406C20.3602 48.9854 19.6978 49.0536 19.5434 49.2114C19.3059 49.4536 19.5596 49.8448 19.5771 50.1227C19.6499 51.2775 18.1093 51.6431 17.5643 50.717C17.428 50.4856 17.3882 50.1423 17.2769 49.8927C16.6942 49.517 15.9232 51.3443 15.6965 51.6984C14.9714 52.8323 13.6466 54.1429 12.5923 52.5193C9.27568 52.9577 7.60757 49.1581 10.1782 46.9207C10.2713 46.8398 10.5492 46.7089 10.5816 46.6529C10.6328 46.5639 10.4102 46.0627 10.7502 45.606C11.7289 44.2907 14.0399 45.7315 15.1953 45.8813C15.4328 45.9123 15.6844 45.861 15.855 45.6749C15.3073 44.6954 15.6169 43.3524 16.9673 43.633C17.6169 43.768 17.6823 44.7561 18.0027 44.8168C18.3872 44.8897 19.4988 43.94 19.9251 45.0233L21.9744 44.3615C22.0459 44.2604 21.6695 43.2472 21.6182 43.0253C20.8148 39.5602 21.198 35.9616 22.6556 32.7327L19.2365 30.1735C18.2105 30.3023 17.5447 29.3054 16.6368 28.8696C14.8001 27.9874 12.1033 27.7546 10.7529 25.9941C10.3704 25.4956 10.1202 24.6424 10.6868 24.179C11.563 23.4626 12.0574 24.7867 12.6126 25.0774C12.7826 25.1665 13.0719 25.1435 13.1785 25.2528C13.4119 25.4943 13.1124 25.9651 13.9239 25.6595L15.8719 26.3658L15.0679 24.3921C14.4385 24.1931 14.7077 23.8194 14.5168 23.443C14.2362 22.8913 13.1745 22.5662 13.0584 22.0043C12.8568 21.0215 13.8611 20.7287 14.6375 21.0309C16.7245 21.8431 17.2061 25.155 18.4655 26.6363C19.0685 27.3459 20.1882 27.6285 20.4499 28.6275L23.7538 30.9485L24.9679 29.1975C24.2192 28.8926 22.6064 28.8116 22.0074 28.3509C21.1312 27.6777 21.8449 25.3014 22.7251 25.101C23.3578 24.9574 26.2866 25.9118 26.4478 25.7574C26.9389 22.8225 26.7244 19.8586 26.5854 16.8988C26.7736 15.2516 29.8704 15.0067 31.125 15.1221C31.8953 15.1929 33.1614 15.5571 33.3071 16.4435C33.4623 17.3851 33.3962 18.6134 33.4589 19.5942C33.4731 19.8202 33.55 20.0704 33.5587 20.3024C33.9614 19.6677 34.6225 19.1578 35.0737 18.5831C35.4764 18.0698 35.5466 17.7048 35.4622 17.0519C35.3152 15.9092 34.1698 14.9069 35.3442 13.9342C36.1604 13.2583 37.8649 12.7558 38.4349 13.945C38.5064 14.0941 39.332 16.6775 39.5222 16.5291C39.9236 15.5787 39.8204 14.4448 40.0821 13.483C40.4045 12.2998 42.2291 12.3707 43.1155 12.8347C44.3519 13.4809 43.4048 14.8071 43.4986 15.8546L44.5826 13.7386C45.4911 12.9555 47.881 14.1001 47.7414 15.2759C47.653 16.0212 46.7512 16.8016 46.9501 17.7601C47.025 18.1197 48.0712 19.0235 48.3775 19.4323C49.0898 20.3841 49.5511 21.5604 49.7663 22.7267L52.4152 22.4636C54.6094 22.5729 54.9116 26.9297 52.9575 27.4383C52.2756 27.6157 51.2901 27.615 50.5508 27.7263C50.3822 27.7519 49.2253 27.9158 49.2274 28.0184C49.4891 28.1674 49.8338 28.4642 50.1319 28.4588L53.8486 27.6555C54.9575 27.4228 55.373 28.9674 55.1929 29.8086C55.0128 30.6497 54.1426 30.5701 53.4715 30.6814C53.4425 30.7495 53.6287 30.8156 53.6394 30.8156H54.9872C55.1072 30.8156 55.4641 31.221 55.5275 31.3539C55.8013 31.9286 55.8047 33.2143 55.1808 33.5698C55.1335 33.5967 54.8098 33.7134 54.7855 33.7134H53.0675L53.0607 33.7128ZM42.2467 13.429C41.9849 13.3851 41.5283 13.429 41.2362 13.429C41.2099 13.429 41.1344 13.5167 41.0683 13.4971C40.8774 13.7595 42.0558 13.9679 42.1799 13.9673C42.3789 13.9666 42.6183 13.8587 42.82 13.833C42.9212 13.6954 42.3397 13.4445 42.2473 13.4297L42.2467 13.429ZM37.4966 14.171C37.1715 14.0732 36.8511 14.1399 36.5347 14.2526C36.4181 14.2937 35.6228 14.6796 35.7455 14.8435C36.3391 14.9642 37.1358 14.6802 37.4966 14.171ZM41.1971 14.312L40.9731 14.2418L40.8753 14.349C40.7823 15.2266 40.6298 17.9443 39.1776 17.5085C38.4808 17.2994 37.9634 15.4957 37.7651 14.8442C37.5567 14.8482 37.4764 15.0094 37.5074 15.1976C37.5459 15.431 37.8622 16.1615 37.9776 16.4185C38.217 16.9534 38.5934 17.8195 39.2302 17.9281C40.9354 18.2175 41.0372 15.429 41.1964 14.3126L41.1971 14.312ZM46.7053 14.9332C46.4112 14.5865 45.6962 14.3288 45.2456 14.3727C45.1525 14.8374 46.6297 15.3318 46.7943 15.1807C46.8065 15.0863 46.7633 15.002 46.7053 14.9332ZM37.9688 17.7419C38.5293 18.4617 39.3017 18.8731 40.2103 18.4684C41.5768 17.86 41.4608 15.835 41.7374 14.6013L41.6315 14.4475L41.4075 14.4428C41.2288 15.5362 41.1418 18.0212 39.6801 18.2074C38.1968 18.3962 37.668 16.2452 37.2936 15.1807L36.957 15.2489C37.4501 16.5096 37.7853 17.6826 37.4103 19.0364C37.0629 20.2896 36.1401 20.9271 35.4595 21.9375C34.0019 24.1021 33.8758 26.6498 34.4977 29.13C34.6899 29.8969 34.9456 30.8494 35.5857 31.3479C35.699 31.3674 35.8427 31.1792 35.8022 31.0666C33.9628 27.2926 34.4343 22.7645 38.0147 20.2465C41.5296 17.775 45.9862 18.7348 47.3009 23.0006L47.6031 22.9958C47.1619 20.6262 45.2787 18.9541 42.9549 18.4812C42.938 18.3665 43.1107 18.4151 43.1903 18.4138C43.8129 18.405 44.3734 18.6674 44.9077 18.9534C44.2912 17.7433 45.1667 16.5251 45.5148 15.3818L45.3117 15.344C44.8557 16.086 44.246 18.7632 42.9205 17.8087C42.1354 17.2435 42.5913 15.29 42.7539 14.4732L42.4787 14.4678C42.3141 15.6981 41.7023 17.4168 42.6858 18.4138H41.2713C41.2591 18.3153 41.448 18.293 41.5128 18.2856C41.7448 18.2606 41.9822 18.2903 42.2143 18.2789C41.6463 17.1429 42.0463 15.7076 42.2143 14.5062H41.9451C41.7994 15.918 41.7677 18.2694 40.1124 18.7713C39.6254 18.919 39.2032 18.9048 38.7324 18.6964C38.4241 18.5595 38.331 18.3119 38.0376 18.2128C38.1172 18.6593 37.9641 19.0755 37.8359 19.4923C38.1941 19.3621 38.47 19.0384 38.8801 19.0202C39.0136 19.0141 38.9867 19.0323 38.9806 19.1551C38.4005 19.375 37.8649 19.7655 37.3975 20.1669L37.8575 18.7402L37.9708 17.7413L37.9688 17.7419ZM43.0217 17.5402C43.6294 18.2735 44.2311 17.2104 44.4942 16.6876C44.5866 16.5042 45.135 15.3447 45.1492 15.2516C45.1613 15.1726 45.0628 15.0688 45.0082 15.0472C44.8854 14.9986 44.9097 15.1187 44.876 15.1794C44.4193 16.0016 44.1758 17.5436 43.0217 17.5402ZM36.7445 15.3952C36.6825 15.3581 36.445 15.3325 36.4889 15.4816C36.5658 15.7426 36.7553 16.0401 36.841 16.343C37.6882 19.3392 35.7961 19.9611 34.5651 22.121C33.4892 24.0076 33.2208 26.3523 33.6768 28.4703C33.8157 29.1145 34.014 29.4929 34.4322 30.0062L34.0134 28.1337C33.6822 26.241 33.9243 24.1614 34.8343 22.4576C35.9169 20.4313 37.5405 19.982 37.2936 17.2374C37.272 16.9986 36.8666 15.4688 36.7445 15.3952ZM33.386 28.6585C32.9024 25.9712 33.268 23.3331 34.9085 21.1173C35.7746 19.947 36.8821 19.2245 36.8255 17.5699C36.8127 17.2023 36.4869 15.5902 36.1745 15.4587C36.0923 15.4242 35.9978 15.4081 36.0147 15.5497C36.045 15.8108 36.2514 16.1797 36.3175 16.461C36.868 18.7942 35.8009 19.1031 34.6002 20.6748C33.1763 22.5378 32.6205 24.7327 32.7803 27.0747C32.8167 27.6123 32.8707 28.3739 33.3854 28.6592L33.386 28.6585ZM46.0537 15.6536L45.7225 15.5895C45.3691 16.4968 44.8018 17.4762 45.0062 18.4873C45.1336 19.1186 46.0281 19.6535 46.4604 20.1325C47.1653 20.9142 47.622 21.9078 47.881 22.923L48.1427 22.9304C47.9518 21.8727 47.4587 20.9014 46.7937 20.0691C46.393 19.5679 45.6301 18.9932 45.4291 18.4016C45.1067 17.4512 45.6314 16.4819 46.0544 15.6543L46.0537 15.6536ZM46.4577 15.7204C46.2574 15.5227 45.8959 16.4401 45.85 16.5608C45.0109 18.7679 46.3788 18.921 47.4034 20.4691C47.8823 21.1921 48.2054 22.0157 48.4199 22.8555L48.6817 22.8636C48.567 21.7857 47.9977 20.5857 47.3016 19.7628C46.8679 19.2502 46.2122 18.8441 46.0058 18.1615C45.7252 17.2347 46.1846 16.5635 46.4584 15.721L46.4577 15.7204ZM32.2886 16.3457C32.236 16.2822 32.0444 16.2101 31.9567 16.173C30.9206 15.7325 29.1777 15.8701 28.1524 16.3153C27.7342 16.4967 27.1608 16.8279 27.6923 17.2718C28.4863 17.9342 31.094 17.6839 31.9506 17.149C32.2191 16.9817 32.5564 16.6715 32.2879 16.3463L32.2886 16.3457ZM31.4326 27.3782C31.0002 25.8977 30.9867 24.4258 31.4987 22.9635C31.7611 22.2134 32.2157 21.5416 32.5071 20.8043L32.3756 17.6077L31.9979 17.9072C32.0613 19.2374 32.4006 20.4077 31.8292 21.6765C31.0684 23.3648 30.5618 24.0387 30.835 26.0568C30.8876 26.4447 30.9699 27.354 31.4326 27.3789V27.3782ZM30.8262 27.1752C30.4721 26.0818 30.4323 24.6464 30.7244 23.5361C31.0744 22.2053 32.1321 21.2043 31.9068 19.7264L31.7685 17.9436L31.3618 18.1224C31.3496 19.004 31.5345 19.9092 31.4151 20.7901C31.3341 21.3905 30.8471 22.0407 30.6225 22.6255C30.2083 23.7021 30.0694 24.8413 30.1537 25.9955C30.1658 26.1661 30.2576 26.873 30.2987 26.9958C30.3581 27.1718 30.6677 27.1894 30.8262 27.1752ZM27.4394 27.5624C27.8259 27.1759 28.1065 24.4785 28.1342 23.8437C28.2016 22.3146 28.1699 20.5122 28.0633 18.9898C28.0532 18.8407 28.0107 18.2667 27.9858 18.1912C27.952 18.09 27.7915 18.0246 27.693 18.0111C27.5338 17.9895 27.5905 18.1264 27.5898 18.2499C27.5723 20.1331 27.807 21.897 27.6593 23.8403C27.5568 25.1881 27.322 26.5277 26.918 27.816C27.03 27.787 27.3767 27.6251 27.4394 27.5624ZM30.0856 27.1084C29.6768 25.2683 29.8852 23.6036 30.6326 21.8943C30.7534 21.6184 31.011 21.3203 31.1102 21.0242C31.4036 20.15 31.1082 19.2111 31.1635 18.3146L31.065 18.1628L30.551 18.324C30.6158 19.3648 31.0495 20.5979 30.3878 21.5159L30.3601 21.2185C30.7277 20.2687 30.3628 19.2643 30.354 18.2816L29.7483 18.3497L30.0842 21.4161L30.0168 22.9311C29.9035 22.9311 29.8886 22.7071 29.8825 22.6282C29.8637 22.3834 29.9014 22.1324 29.8825 21.8876C29.7895 20.7085 29.6222 19.5348 29.6141 18.349H29.2094L29.4819 22.0191L29.3443 27.1098H30.0856V27.1084ZM28.5261 18.291L28.1989 18.2141C28.2468 18.5804 28.3217 19.0269 28.3365 19.3905C28.4134 21.2805 28.4701 23.3736 28.2583 25.2474C28.174 25.9934 27.9662 26.7192 27.7955 27.4457C28.0053 27.3256 28.2799 27.3729 28.3709 27.1118C28.5031 26.7341 28.5686 25.7014 28.603 25.2548C28.6684 24.4063 28.6198 23.5382 28.7412 22.6977L28.5267 18.291H28.5261ZM29.0643 18.3591C28.924 18.295 28.7628 18.2168 28.6751 18.3908C29.0212 21.3142 28.9733 24.2653 28.5355 27.1759L29.146 27.0673C29.1365 25.5617 29.1992 24.0629 29.2067 22.5574C29.21 21.8302 29.2485 21.0775 29.2121 20.3335C29.1797 19.6785 29.0643 19.0175 29.0643 18.3584V18.3591ZM46.9967 23.1328C46.0227 19.2603 42.051 18.1527 38.7317 20.0893C36.1186 21.6137 34.7149 24.6073 35.0798 27.6062C35.2174 28.7374 35.6174 29.8268 36.0154 30.8831C36.0977 30.9425 36.5496 30.5006 36.5523 30.3799C34.9746 27.4788 35.3159 23.667 37.7981 21.3803C40.7121 18.6957 45.4298 19.0235 46.6668 23.1274L46.9967 23.1341V23.1328ZM46.391 23.2677C46.1758 22.1102 45.2645 21.0249 44.2358 20.4704C41.5971 19.0478 38.4416 20.5163 36.93 22.8697C35.5216 25.0612 35.5614 27.8693 36.7567 30.1418C36.8417 30.2045 37.297 29.8625 37.2841 29.7162C37.2761 29.6265 36.9287 28.9587 36.8572 28.7266C36.0457 26.0966 36.7971 22.8872 39.16 21.3271C41.6308 19.6954 44.9562 20.3476 45.997 23.2576L46.3903 23.2683L46.391 23.2677ZM45.7164 23.4019C44.9832 20.9857 42.3964 20.1493 40.1468 21.0997C37.8602 22.0657 36.6501 24.5918 36.8241 27.0066C36.8619 27.5334 37.1836 29.0491 37.4636 29.4673C37.5533 29.6008 37.8319 29.2656 37.8238 29.1765C37.8164 29.0949 37.5695 28.5978 37.5162 28.4035C37.0629 26.7442 37.1189 25.0309 37.9816 23.5166C39.5398 20.782 43.4703 20.0279 45.2578 22.9513C45.4014 23.1861 45.3367 23.4748 45.7164 23.4019ZM31.7692 27.3108C31.5985 25.8511 31.6977 24.3469 32.155 22.9452C32.3398 22.3773 32.7061 21.9618 32.578 21.3136L31.7017 23.1651C31.407 24.0063 31.3139 24.8973 31.3746 25.7857L31.7692 27.3101V27.3108ZM45.1775 23.4694C44.1913 21.0687 41.2497 20.7584 39.3516 22.326C37.3995 23.9388 37.0616 26.7395 38.0362 28.9951C38.5604 28.6167 38.3054 28.4798 38.1887 28.0676C37.6389 26.1351 38.07 23.8181 39.7273 22.5668C41.1512 21.4923 43.1431 21.4181 44.3707 22.8279C44.6487 23.1463 44.6959 23.5948 45.1775 23.4694ZM17.2837 26.2322C17.2972 26.1574 17.2742 26.0973 17.2527 26.0278C17.0874 25.4963 16.4034 24.1985 16.106 23.6704C15.6648 22.8866 14.852 21.5955 13.8449 21.6819L13.8119 21.8532C14.2274 22.1938 15.0443 22.6673 15.2257 23.2029C15.2884 23.3871 15.2345 23.8269 15.2695 23.8667C15.3046 23.9064 15.6156 23.893 15.791 24.1871L16.6179 26.2916L17.283 26.2322H17.2837ZM43.5606 23.6043C43.0284 22.8474 42.0416 22.7071 41.2025 22.9318C41.1708 23.0869 41.2193 23.0397 41.2888 23.0829C41.8777 23.4538 42.8773 23.5813 43.5613 23.6043H43.5606ZM52.4988 23.4167C51.6206 23.497 51.6658 26.0717 52.5231 26.467C53.2449 26.7995 53.4317 25.3843 53.3966 24.9196C53.3649 24.5041 53.0438 23.3668 52.4988 23.4167ZM51.3575 23.7877L51.4769 23.6036L51.4115 23.4727C50.2722 23.613 49.1275 23.7149 47.9936 23.8943C45.4493 24.297 43.5842 25.0619 41.0224 24.0211C40.7883 23.926 40.5307 23.7338 40.3067 23.6575C40.1779 23.6137 40.161 23.5645 40.0571 23.7068C40.0302 23.8424 40.1961 23.8552 40.273 23.8943C40.7114 24.1156 41.1816 24.3206 41.5883 24.6005C42.08 24.9392 42.5664 25.6278 43.1903 25.6265C43.709 25.6251 45.106 24.9702 45.7171 24.7847C47.5545 24.2275 49.4574 24.0252 51.3575 23.7884V23.7877ZM51.309 24.0764C49.3481 24.2565 47.3805 24.5048 45.5006 25.1064C44.6689 25.3729 43.5121 26.067 42.648 25.7641C42.0983 25.3985 41.6942 24.9472 41.1134 24.6039C40.9502 24.5075 40.0544 24.0353 39.9404 24.0191C39.8177 24.0016 39.7199 24.04 39.7199 24.1769C41.0932 24.751 42.5536 25.6845 42.3816 27.3782C44.6439 25.0768 48.1535 24.7982 51.1902 24.3449L51.309 24.0771V24.0764ZM42.2811 27.6474C42.2838 25.9098 41.0298 24.9115 39.5182 24.413L39.4548 24.5823C40.4551 25.0943 41.4912 25.7897 41.6976 26.9843C42.0632 29.1023 40.3708 30.703 39.2221 32.2369C39.1674 32.3097 38.9347 32.5708 38.9799 32.6335C39.129 32.6693 39.2389 32.7232 39.4015 32.6908C39.929 32.5856 41.1836 30.1587 41.3711 30.1425C41.5586 30.1263 41.307 30.5418 41.2814 30.591C40.9482 31.2467 40.4153 31.9293 39.9904 32.5344C39.9748 32.7124 40.0214 32.5978 40.1084 32.5856C40.3843 32.5472 40.6521 32.475 40.9151 32.386C41.5661 31.3708 41.9296 30.1553 42.563 29.1098C44.3168 26.2127 46.992 25.6144 50.1393 25.1644C50.3592 25.1327 51.1848 25.1246 51.2321 24.9769C51.2658 24.8717 51.2341 24.7287 51.2422 24.6154C51.1417 24.5135 48.7586 24.9196 48.4105 24.9843C46.7491 25.296 44.8362 25.7816 43.4325 26.7442C43.0837 26.9837 42.7566 27.3702 42.4504 27.5813C42.393 27.6204 42.3836 27.6757 42.2817 27.6474H42.2811ZM16.0702 27.8497L16.0048 27.1422C14.6827 26.7084 13.2365 26.5223 12.131 25.6238C11.8234 25.3735 11.5563 25.014 11.2534 24.751C10.8102 25.0997 11.4983 25.7074 11.7944 25.9611C12.9694 26.9648 14.6193 27.3992 16.0702 27.8497ZM38.1037 32.4993C38.2858 32.4777 38.4625 32.6166 38.6406 32.535C38.6986 32.5087 39.3367 31.7229 39.4494 31.588C40.1489 30.7502 41.218 29.3971 41.4534 28.3361C41.8231 26.674 40.8882 25.4889 39.4136 24.8845C39.3044 24.8838 39.1985 24.9904 39.2801 25.0889C39.3496 25.1732 40.1091 25.5341 40.3276 25.7257C42.6008 27.7162 39.7286 30.4797 38.4423 31.9954C38.3897 32.0568 38.0558 32.4541 38.1037 32.4986V32.4993ZM51.309 25.6258L51.2415 25.2211C49.5093 25.5314 47.7623 25.6339 46.1238 26.3361C44.1873 27.1651 43.1094 28.4366 42.2021 30.2976C41.8784 30.962 41.6011 31.6824 41.3387 32.365C41.4811 32.2753 41.6983 32.2929 41.8311 32.218C42.0322 32.104 42.4166 30.8979 42.5603 30.589C43.2342 29.1394 43.9802 27.8531 45.4028 27.0302C47.1559 26.0157 49.3211 25.7857 51.3096 25.6265L51.309 25.6258ZM37.8211 32.3529C38.955 30.8892 41.1357 29.2271 40.8598 27.1476C40.7499 26.3206 39.9924 25.6832 39.2706 25.3655L39.1141 25.4579C39.0595 25.6663 39.5425 25.8471 39.7205 25.9955C40.0706 26.2862 40.3944 26.7557 40.4551 27.215C40.7269 29.2737 38.5138 30.7974 37.3617 32.1971C37.2976 32.3421 37.7455 32.3765 37.8204 32.3529H37.8211ZM39.0474 25.8956C38.955 26.3057 39.2558 26.3091 39.4507 26.5358C40.1172 27.3115 39.819 28.212 39.3442 28.9897C38.6346 30.1512 37.4696 30.9431 36.555 31.9266C36.555 31.9671 36.9867 32.1937 37.0595 32.102C38.184 30.649 40.4322 29.3843 40.192 27.2771C40.1165 26.614 39.5944 26.1897 39.0474 25.8956ZM51.4445 25.8963C49.5491 26.0015 47.3582 26.2309 45.6719 27.1651C43.8095 28.1971 42.9644 30.1796 42.2811 32.0959C42.4571 31.9866 42.7242 31.9286 42.8517 31.758C43.0918 31.4382 43.3563 30.4561 43.5923 30.0055C45.1721 26.9904 48.3215 26.4015 51.4432 26.098V25.8963H51.4445ZM23.0772 26.0305C22.856 25.8383 22.5309 26.6794 22.5018 26.8359C22.4695 27.01 22.3993 27.5671 22.5733 27.6467C22.655 27.6845 22.8438 27.3465 22.8782 27.2791C23.0685 26.8987 23.1575 26.4474 23.0772 26.0299V26.0305ZM26.2448 26.6376L23.6175 26.0305L23.6236 26.3611C23.9494 26.3961 26.064 26.9971 26.1693 26.898L26.2441 26.6376H26.2448ZM51.6354 26.3779C48.078 26.4852 44.2912 27.6656 43.2922 31.4888C43.9552 31.2008 44.0389 30.5337 44.3579 29.961C45.823 27.3297 48.9953 26.929 51.7137 26.6363L51.6354 26.3779ZM25.9656 27.4369L26.0384 27.2164L23.6175 26.5695L23.5561 26.7982C23.5683 26.8568 23.6182 26.8703 23.6627 26.8953C23.8583 27.0039 25.3814 27.3722 25.6903 27.4295C25.7672 27.4437 25.9069 27.4754 25.9662 27.4369H25.9656ZM17.2007 26.784C16.6146 26.846 16.4635 27.4862 16.7555 27.9401C16.8844 28.1398 18.11 28.9809 18.4068 29.1867C18.5154 29.2622 18.7076 29.4322 18.8311 29.3701C18.9923 29.2359 19.5616 28.5647 19.4766 28.3914C19.4213 28.2787 18.5795 27.7209 18.3967 27.5793C18.0763 27.331 17.6365 26.7381 17.2 26.7847L17.2007 26.784ZM25.8408 27.6481L23.5217 27.1084C23.3808 27.3358 23.3342 27.3229 23.5629 27.3951C24.2826 27.6224 25.0387 27.8234 25.7686 27.9799L25.8408 27.6481ZM23.1453 27.8491L25.4172 28.4413L25.6371 28.2882L23.3666 27.5921C23.2647 27.5543 23.1346 27.8349 23.146 27.8491H23.1453ZM33.5216 30.2754C32.7533 29.2737 31.4171 28.2295 30.1173 28.1209C30.0438 28.1148 29.8664 28.071 29.8839 28.1863C30.5571 28.4197 31.4448 28.8622 31.635 29.6022L30.578 28.8069C29.6296 28.2457 28.8195 28.0386 27.7955 28.5924C27.776 28.6747 27.8657 28.6794 27.9271 28.6943C29.3672 29.043 29.9379 29.2615 31.0313 30.3084C31.0778 30.3529 31.7658 31.2399 31.6228 30.7273C31.4238 30.0136 30.4255 29.2096 29.7483 28.9627L28.7392 28.7266C30.0815 28.3934 31.2957 29.5084 31.8731 30.614L32.5132 30.3071C32.3398 29.9516 32.1361 29.6089 31.9331 29.2703C31.8987 29.2123 31.4157 28.6396 31.7962 28.8008C32.0309 28.9 32.5213 29.932 32.7122 30.1755L33.5223 30.2747L33.5216 30.2754ZM54.2728 29.8039C54.4044 29.3573 54.3416 28.7003 53.9706 28.39C53.7393 28.3833 53.8803 29.7499 54.2728 29.8039ZM53.3298 28.5243L50.7707 29.1631C50.8665 29.2966 50.9939 29.2723 51.1322 29.2602C51.8135 29.2002 52.6074 28.7556 53.3312 28.7934V28.5249L53.3298 28.5243ZM50.1636 30.1404C50.0456 29.8389 49.7623 29.6615 49.5113 29.4794C48.7255 28.9094 47.5721 28.3354 46.7282 29.097C47.0561 29.3573 47.3272 29.0396 47.6442 29.0012C47.9404 28.9647 48.3046 29.0565 48.5434 29.2352C48.6628 29.3249 48.7248 29.4895 48.7673 29.5165C49.0344 29.6892 49.6213 29.5489 49.7596 30.1802L50.1643 30.1404H50.1636ZM51.1073 29.4679L51.3285 29.6548C51.9127 29.4403 52.5831 29.3715 53.1666 29.2029C53.5106 29.103 53.4823 28.9337 53.141 28.9715C52.4671 29.047 51.7683 29.3222 51.1073 29.4679ZM26.7831 32.8365C26.6151 31.8254 27.1595 30.7334 28.2981 30.8156C29.4819 30.9013 31.1196 32.815 32.0748 33.5765C35.0366 35.938 38.1718 36.8642 41.9559 36.0507C42.9549 35.8355 44.0969 35.4598 44.9009 34.8257L44.5502 34.4628C40.8821 36.4986 36.8585 36.0055 33.5958 33.4706C32.3574 32.5087 31.5203 31.3229 30.3905 30.3421C29.2606 29.3614 27.2553 28.4993 26.0431 29.8713C26.3602 29.8281 26.6381 29.6474 26.9598 29.6096C29.3598 29.3283 30.7851 31.8679 32.4788 33.105L34.5995 34.6557C34.3877 34.6362 34.1557 34.481 33.9729 34.3738C33.0859 33.8537 32.0835 33.0693 31.2977 32.3994C30.1557 31.4268 28.3217 29.1361 26.603 30.1951C25.5966 30.8157 25.7794 32.7171 26.8512 33.1731C26.7676 32.8999 26.5537 32.8372 26.4438 32.537C26.1497 31.7357 26.3494 30.7192 27.2559 30.4784C26.547 30.9991 26.3231 31.7782 26.6381 32.6119C26.665 32.6827 26.6934 32.8453 26.7831 32.8359V32.8365ZM30.0849 36.477L19.9548 29.2082L19.6547 29.5691L29.4785 36.7792C29.5028 36.79 29.9129 36.6389 29.9857 36.6105C30.0653 36.5795 30.1119 36.6611 30.0849 36.4763V36.477ZM48.4793 29.534C48.223 29.1064 47.5916 29.2413 47.199 29.4012C47.3636 29.9583 48.0456 29.3742 48.4793 29.534ZM46.0537 29.6015C46.4267 29.6285 46.712 29.9543 47.0628 29.6359C46.7397 29.3829 46.3141 29.1462 46.0537 29.6015ZM53.4654 29.6015L53.3669 29.3472C52.7882 29.4713 52.2142 29.6028 51.6476 29.7735C51.5693 29.7971 51.3906 29.7701 51.4445 29.9044C51.4702 29.9678 51.5653 30.0467 51.6503 30.0433C52.1272 30.0238 52.9103 29.5523 53.4654 29.6015ZM49.2874 30.5452C48.9178 30.1701 48.8152 29.7324 48.1798 29.7344C48.1178 29.7344 47.57 29.8113 47.7387 29.9388C48.2405 29.9388 48.8867 30.2072 49.1828 30.6173C49.2962 30.7738 49.367 31.076 49.4924 31.1839C49.7265 31.3856 50.0719 31.3296 50.366 31.7256C50.8179 32.334 50.3545 32.703 50.4334 33.3424L50.567 33.3755C50.9326 32.8284 50.8725 32.1755 50.6493 31.5772C50.3558 30.7907 49.8897 31.1981 49.5295 30.877C49.2348 30.614 49.5424 30.4946 49.4904 30.1789C49.4614 30.0001 49.1997 29.8072 49.0183 29.8052L49.2874 30.5458V30.5452ZM53.5997 29.7371L51.7137 30.2416C51.8041 30.3759 51.8553 30.3165 51.968 30.3003C52.4907 30.2248 53.056 29.9664 53.6003 29.9388V29.7371H53.5997ZM46.5926 30.2754C46.5805 29.9017 46.0874 29.7978 45.7846 29.8045L45.8905 30.1364L46.5926 30.2754ZM49.2881 31.4207C49.1336 30.9728 48.9805 30.6713 48.567 30.4244C48.3323 30.2841 46.9488 29.7816 46.795 29.9394L46.9265 30.3799C47.2119 30.3415 47.4587 30.2207 47.7582 30.2902C47.8048 30.301 48.5097 30.6956 48.5798 30.7482C48.7323 30.8615 48.8753 31.043 48.9508 31.219L48.2102 30.8156C48.2297 31.4274 48.7909 31.4281 49.2874 31.4214L49.2881 31.4207ZM26.2448 30.0743C25.4961 30.2625 25.0947 31.5387 25.4023 32.1627C25.457 32.274 25.7315 32.3617 25.807 32.4993C25.8475 32.3131 25.7227 32.1283 25.7065 31.9259C25.6499 31.2055 25.7187 30.6012 26.2448 30.0743ZM46.8618 31.2204C46.4328 31.1097 46.0894 31.1462 45.7859 30.7799C45.647 30.6126 45.6105 30.4008 45.448 30.2767C45.2078 30.504 45.5013 31.105 45.6975 31.2251C45.8223 31.3013 45.9471 31.219 46.055 31.2507C46.337 31.3337 46.5299 31.7202 46.8618 31.2204ZM64.179 35.1286C64.6329 35.0213 65.2366 34.6895 65.6926 34.7218C66.4602 34.7765 66.8602 35.7943 67.839 35.3188C69.7809 34.3758 68.6983 30.0656 66.297 30.2727C65.4903 30.3421 65.4565 31.0524 65.1341 31.6022C64.7476 32.2632 64.1102 32.272 63.4471 32.5094L63.4377 32.7691C63.7857 32.7064 64.1864 32.4635 64.5432 32.5006C64.7746 32.5249 64.7226 32.6814 65.0457 32.5269C65.9995 32.0703 65.6946 30.3266 66.9877 30.8696C68.2808 31.4126 68.8514 33.6028 67.9523 34.6052C67.1799 35.4659 66.5142 34.0622 65.7021 34.1202C65.2083 34.1552 65.3088 34.3934 65.1422 34.5269C64.9574 34.6746 64.3624 34.7927 64.1108 34.8595L64.179 35.1293V35.1286ZM47.199 30.9492C46.8672 30.5384 46.277 30.4453 45.7846 30.3442C46.018 30.8635 46.6756 31.0463 47.199 30.9492ZM50.1461 30.3718C49.0459 30.4656 50.2216 31.0915 50.6324 30.6477C50.5218 30.4082 50.3977 30.3502 50.1461 30.3718ZM61.6785 30.3496C61.6117 30.3017 60.2323 30.73 60.1136 30.8103C59.9686 30.9081 60.0866 31.3081 60.1439 31.3458C60.3254 31.4652 61.5308 30.9162 61.8174 30.8784L61.6785 30.3496ZM48.0746 31.4888C48.1616 30.8022 47.854 30.3448 47.1323 30.5465C47.2517 30.7044 47.4648 30.7448 47.6044 30.9155C47.7845 31.1367 47.7535 31.536 48.0746 31.4888ZM34.0606 31.0167C33.7091 30.2275 32.3001 30.6963 31.8387 31.186C32.1692 31.4733 32.4586 31.986 32.8134 32.2315C32.8707 32.2706 32.8801 32.3252 32.982 32.2976C33.0016 31.7674 33.2943 31.4841 33.8245 31.4834C34.0997 31.4834 34.3311 31.6285 34.5988 31.5907C34.1671 30.9539 33.0899 31.1543 32.5786 31.6237C32.6137 30.9863 33.5675 30.902 34.0606 31.0167ZM46.1886 31.6919C46.7896 32.5323 47.0601 31.5219 47.4662 31.1185L47.2679 30.9499C47.1343 31.4059 46.6884 31.7903 46.1893 31.6919H46.1886ZM51.1079 34.3866C51.6793 33.959 51.2348 33.0726 51.2368 32.533C51.2395 31.9023 51.4203 31.6844 50.9359 31.0875C50.7666 30.8791 50.5177 30.9195 50.6364 31.1165C50.9292 31.6028 51.0931 31.9941 51.0816 32.589C51.0769 32.8075 50.9137 33.2467 50.9204 33.3303C50.9299 33.4463 51.0864 33.6392 51.1052 33.822C51.1255 34.0149 51.0169 34.1869 51.1086 34.3866H51.1079ZM25.0313 31.8254L24.9983 31.0173C24.7777 31.3458 24.456 31.7236 25.0313 31.8254ZM45.5815 33.7795C45.6544 33.4504 45.4075 33.2804 45.2996 33.0173C45.1573 32.6706 45.1296 32.2463 45.1937 31.8753C45.2578 31.5043 45.7117 31.2183 45.1114 31.0167C44.8024 31.6413 44.7586 32.2059 44.9724 32.873C45.0008 32.9627 45.4473 33.9374 45.5822 33.7789L45.5815 33.7795ZM28.2657 31.2197C27.3335 31.2757 26.9821 32.1505 27.1878 32.9714H27.6586C27.6458 32.5182 27.7611 31.8618 28.0316 31.4895C28.1294 31.3553 28.3035 31.4065 28.265 31.2197H28.2657ZM29.3443 31.758C28.5443 30.9209 27.8913 31.9003 28.1611 32.7731C28.2016 32.9033 28.5079 33.3539 28.667 33.1745L28.7716 33.4423C28.7594 32.589 29.2546 32.1883 30.0849 32.4311C29.8981 32.1924 29.575 31.8052 29.2519 31.8268C28.8883 31.8511 28.5598 32.2578 28.5375 32.6085C28.5267 32.7772 28.7008 33.0854 28.5362 33.1725C28.3224 32.4885 28.4606 31.6656 29.3443 31.7573V31.758ZM47.6031 31.4221C47.4628 31.3917 47.45 31.4942 47.3866 31.5752C47.2463 31.7526 47.1033 31.9205 46.9636 32.0952C46.8969 32.1782 46.8193 32.1654 46.9306 32.2625C47.4001 32.672 47.7076 31.8065 47.6031 31.4214V31.4221ZM62.3584 31.4214L61.8896 31.5603L63.5361 36.8709L63.9065 36.7414L62.3584 31.4214ZM50.2978 32.6342C50.629 32.0339 49.6935 31.1327 49.2213 31.7249C49.7467 31.8969 49.9774 32.2207 50.2978 32.6342ZM52.4543 31.6912H53.9032L54.003 31.59L53.9032 31.4888H52.3875L52.455 31.6912H52.4543ZM65.1989 33.5009C65.7709 33.4396 66.1945 33.4139 66.7186 33.6993C67.0127 33.8591 67.387 34.4419 67.5698 33.8369C67.8309 32.9735 67.4727 31.762 66.5371 31.4895C66.3698 32.2497 65.957 33.0281 65.1213 33.1752L65.1982 33.5016L65.1989 33.5009ZM45.649 31.557C45.4608 31.5239 45.5363 31.5981 45.4979 31.7047C45.3009 32.2443 45.4338 32.6969 45.9518 32.9721L46.1212 32.7037C45.6321 32.5512 45.6186 31.9914 45.649 31.557ZM49.1532 31.8922C49.2928 31.7067 48.5279 31.5495 48.4125 31.5563C48.335 31.6291 48.7147 31.9711 48.7923 32.0177L49.1532 31.8922ZM54.544 31.5563C54.3929 32.0075 54.3174 32.5114 54.6445 32.9026C54.9602 32.7772 54.8192 31.3492 54.544 31.5563ZM46.6453 32.3124C46.6203 32.2767 46.4416 32.2403 46.3559 32.1634C46.1906 32.0163 46.049 31.8396 45.8844 31.6912C45.6962 32.1998 46.1083 32.3448 46.3242 32.5991C46.54 32.8534 46.5819 33.2338 47.0641 33.1738C46.905 33.4146 47.197 33.5333 47.4277 33.5104C48.0753 33.445 48.2958 32.1114 47.8378 31.6912C47.8061 32.1371 48.0611 32.8305 47.5835 33.1212C47.1586 33.3802 46.9191 33.0079 46.7323 32.6618C46.6702 32.5465 46.6824 32.3657 46.6446 32.3124H46.6453ZM63.1672 37.0132L61.5841 31.758C61.4734 31.6082 61.1476 31.758 61.1564 31.9131L62.8043 37.0773L63.1665 37.0132H63.1672ZM35.4083 32.3644C35.243 31.9509 33.9466 31.6797 33.637 31.7721C33.2201 31.8962 33.1621 32.8399 33.6889 32.9053C33.9796 32.4548 33.5594 32.3981 33.5223 32.0285C34.0356 32.3967 34.7918 32.3333 35.4083 32.365V32.3644ZM48.2756 31.7586L48.1427 31.791C48.8038 32.8615 47.6827 34.2537 46.5252 33.9826C46.3937 34.1161 46.9178 34.309 47.0351 34.3144C47.2665 34.3246 47.821 34.0979 48.0031 33.9448C48.2331 33.7519 48.7538 32.964 48.7505 32.6672C48.7498 32.5728 48.3228 31.8005 48.2749 31.7593L48.2756 31.7586ZM53.9369 31.8935H52.5892C52.5622 31.9718 52.6189 32.1634 52.6904 32.1634H53.9369V31.8935ZM48.884 32.2308L49.0675 32.4898C49.3225 32.5573 49.4277 32.218 49.7211 32.5721C50.1393 33.0767 49.825 33.6999 50.0132 34.1667C50.1137 34.4156 50.5211 34.6288 50.772 34.4885C50.9407 34.394 50.5218 34.1849 50.4644 34.1202C50.0503 33.6514 50.3727 32.9296 49.7596 32.332C49.4398 32.0204 49.2732 32.0635 48.8847 32.2308H48.884ZM40.1246 35.2621C40.9941 35.4146 41.1809 34.4797 41.815 34.0898C42.1644 33.8753 42.592 33.8301 42.9205 33.5778C43.3144 33.2757 43.5923 32.6396 43.6949 32.1627C43.2848 32.4332 43.0689 32.9114 42.679 33.2015C42.3364 33.4558 41.9175 33.5482 41.56 33.7674C40.9556 34.1377 40.6318 34.7819 40.1246 35.2621ZM51.0398 35.0598C52.3686 34.7063 51.8695 33.2554 51.5781 32.2976C51.4621 32.2848 51.5046 32.5296 51.5093 32.6025C51.5376 33.0618 51.7137 33.4423 51.6307 33.932C51.5423 34.4514 51.1066 34.562 51.0405 35.0591L51.0398 35.0598ZM53.9369 32.2976L52.7241 32.3981C52.8084 32.477 52.7444 32.5546 52.8894 32.5721C53.0344 32.5897 53.887 32.5593 53.9362 32.4979V32.2976H53.9369ZM46.9299 32.4999C46.8685 32.5768 47.2442 32.9708 47.3549 32.9613C47.6375 32.8784 47.6955 32.6315 47.6692 32.365C47.448 32.5856 47.2254 32.6443 46.9292 32.4999H46.9299ZM33.8582 32.8372C34.5854 32.9863 35.3213 33.161 36.0356 32.8244C36.1381 32.7758 36.1799 32.7563 36.0808 32.6693C35.7071 32.3421 35.411 32.6301 35.0339 32.6362C34.5732 32.6443 33.8366 32.2254 33.7935 32.879C33.7725 33.1981 34.4619 33.6089 34.7661 33.6466C35.5621 33.7458 36.2123 33.2824 36.957 33.105C36.9024 32.9849 36.5584 32.8999 36.4511 32.9006C36.2204 32.9026 35.7395 33.1799 35.4245 33.223C34.9004 33.2945 34.242 33.2419 33.8589 32.8365L33.8582 32.8372ZM30.6245 32.9033C30.2677 32.3907 28.976 32.4183 29.0036 33.2048C29.0232 33.7505 29.3814 33.8537 29.6478 34.2517L29.7861 33.845C30.1018 33.9138 30.2866 34.1815 30.5996 34.3104C31.208 34.56 31.5736 34.3947 32.1739 34.251C31.8764 33.7465 31.4697 34.0392 31.0002 33.9758C30.7642 33.9441 30.4046 33.7917 30.2873 33.5785C30.694 33.6156 31.0785 33.8139 31.5001 33.7121C30.9146 32.8338 29.979 32.9681 29.3449 33.7121C29.3665 33.1434 30.153 32.9209 30.6245 32.9026V32.9033ZM49.5397 32.7178L49.1518 32.7367C49.5181 33.4031 49.3811 34.5822 50.171 34.9519C50.6047 35.1549 50.8159 35.1286 50.9724 34.6564C50.5629 34.7569 50.0921 34.8311 49.8371 34.4095C49.5194 33.8854 49.8722 33.2291 49.5397 32.7171V32.7178ZM41.6976 34.8143C42.2568 34.3596 42.9138 34.3839 43.4278 33.8827C43.7819 33.5374 43.9917 33.2008 43.8291 32.7016L43.481 33.3296C42.9542 34.077 42.53 33.9124 41.9465 34.2881C41.6989 34.4473 41.4487 34.8365 41.2032 35.0274C41.1654 35.1826 41.3516 35.1434 41.4244 35.1137C41.5964 35.0449 41.6059 34.8891 41.6976 34.8143ZM53.9929 32.7131L53.373 32.7097L52.8604 32.8689C53.197 33.1306 53.6752 32.8136 54.0725 32.9026L53.9936 32.7124L53.9929 32.7131ZM42.5502 32.9047C40.8335 32.8392 40.2872 34.3765 39.1141 35.2621C40.0949 35.4712 40.4254 34.3664 40.986 33.847C41.4588 33.4085 42.107 33.3451 42.5509 32.9047H42.5502ZM47.1316 33.7795L46.1893 32.904C46.0625 33.5293 46.5286 33.905 47.1316 33.7795ZM50.0962 36.0709C49.854 35.6878 49.3043 35.453 49.1842 34.9957C49.0432 34.4595 49.2665 33.8524 49.1228 33.2379C49.1046 33.1596 49.0493 32.9141 48.9515 32.9047C48.6189 33.4018 48.9387 33.7586 48.9542 34.2834C48.965 34.649 48.7721 34.9633 48.8597 35.2507C48.9616 35.5846 49.765 35.9508 50.0962 36.0709ZM64.7118 34.1101L64.3807 33.1347L63.6387 33.3087L63.9139 34.3131C64.2032 34.3643 64.4522 34.1944 64.7118 34.1101ZM60.8023 33.1799C60.6633 33.0841 59.4505 33.6217 59.1922 33.6466C59.2347 33.8328 59.238 34.0662 59.4782 34.0392C59.5827 34.0271 60.7557 33.6568 60.8097 33.6129C60.9176 33.5252 60.8623 33.2224 60.8023 33.1805V33.1799ZM38.4403 33.4436C37.2072 32.9256 36.242 33.7053 35.0717 33.9482C35.2511 34.05 35.5162 34.278 35.6977 34.3367C36.097 34.4655 36.702 33.8369 37.156 33.7424C37.5762 33.6554 38.333 33.905 38.4403 33.4436ZM27.2559 33.4443L27.7234 33.8214L27.9183 33.6696C27.9379 33.5724 27.776 33.3411 27.6795 33.3168L27.2553 33.4443H27.2559ZM47.2894 34.7677C47.2328 34.7225 47.2146 34.5937 47.1336 34.5546C47.0183 34.4986 46.8591 34.533 46.7262 34.4891C46.2743 34.3407 46.1043 33.7296 45.9862 33.308C45.9006 33.219 45.7819 33.789 45.7832 33.8827C45.794 34.4008 46.6082 34.7259 47.0129 34.8756C47.7825 35.1616 48.7242 35.5643 48.681 34.3185C48.5407 34.4325 48.4705 34.6018 48.3107 34.7218C47.9862 34.9654 47.6233 35.0321 47.2901 34.7664L47.2894 34.7677ZM50.8375 33.4436L50.5177 33.7458L50.8044 34.1161C51.0101 33.9563 50.7707 33.6689 50.8375 33.4436ZM25.0313 36.8797C25.2627 36.3286 24.7784 36.1977 24.4944 35.8335C24.06 35.2756 23.8637 34.45 24.0067 33.7532L23.6856 33.5104C23.488 34.481 23.7234 35.7795 24.427 36.5087C24.5072 36.5916 24.9423 36.9566 25.032 36.8797H25.0313ZM39.5182 33.5111L38.7796 33.5131C38.7695 33.9421 38.4201 34.4709 37.9863 34.5728C37.6929 34.6416 37.2228 34.5424 37.0251 34.8568C38.1873 35.2271 38.8754 34.2962 39.5182 33.5104V33.5111ZM40.3263 33.5111C39.6234 33.3687 39.3759 34.303 38.876 34.6544L38.0356 35.1272C39.0521 35.4578 39.8514 34.2436 40.3263 33.5111ZM41.9438 34.9923C42.5805 34.8264 43.6456 34.6173 44.1643 34.2153C44.3849 34.0439 44.2075 33.7816 44.0638 33.5805C43.9512 33.4234 43.8709 33.7566 43.7616 33.8794C43.1822 34.5269 42.5927 34.5242 41.9445 34.9923H41.9438ZM48.2533 34.4979C48.4523 34.3252 48.6304 33.9165 48.6129 33.6453C48.2345 34.0055 48.0017 34.4345 47.4007 34.4541C47.4655 34.8682 48.028 34.6928 48.2527 34.4972L48.2533 34.4979ZM59.6637 37.0146L58.6876 33.7829C57.9969 33.9401 58.5487 35.0827 58.7025 35.5839C58.8563 36.0851 58.9837 37.1785 59.6637 37.0146ZM36.217 34.5876C36.7385 34.9073 36.8815 34.4804 37.2761 34.4014C37.7293 34.3104 38.2379 34.4804 38.4396 33.8477C38.0565 34.0912 37.6059 33.9239 37.1722 34.0284C37.0022 34.0696 36.4592 34.3367 36.3034 34.4379C36.238 34.4804 36.1826 34.4305 36.217 34.5876ZM61.0073 33.8497L59.3939 34.3198L59.976 36.0662L61.551 35.5981L61.4478 35.3282C60.8886 35.5967 59.7986 35.7829 59.9355 34.8291C60.0171 34.2611 60.7571 34.3461 61.0121 34.1498C61.1078 34.0763 61.0323 33.8679 61.0067 33.849L61.0073 33.8497ZM24.6124 34.1316C24.6017 34.1121 24.2543 33.88 24.2232 33.9158C24.1484 34.7434 24.5072 35.6055 25.2 36.0702C25.4489 35.7728 24.9362 35.3579 24.7966 34.9923C24.713 34.7745 24.6462 34.191 24.6124 34.1316ZM28.8721 34.6564C28.947 34.5741 28.3817 34.048 28.2873 33.9947C28.2171 33.9549 28.089 33.874 28.0647 34.017C28.0404 34.16 28.7487 34.5525 28.8721 34.6564ZM24.8296 37.2163C24.918 37.1198 24.3845 36.8068 24.2914 36.7104C23.9345 36.3421 23.5366 35.509 23.432 35.0092L23.2809 34.0493C23.2708 34.361 23.0536 34.6692 23.0165 34.964C22.9045 35.8584 23.4988 37.1117 24.0209 37.822C23.548 37.8625 23.4246 37.4098 23.1453 37.1488C23.1109 38.6186 24.3089 38.7218 24.8957 37.5184C24.713 37.4362 24.5679 37.5899 24.3555 37.5259C23.8826 37.3835 23.513 36.3292 23.4819 35.8685L24.1524 37.1178C24.3615 37.3458 24.5659 37.2689 24.829 37.2156L24.8296 37.2163ZM32.7129 34.6551C32.435 34.1559 31.9311 34.6045 31.4582 34.6476C31.1392 34.6767 30.8073 34.6632 30.5105 34.5343C30.4073 34.4898 29.9507 34.1094 29.8839 34.1849C29.8475 34.6099 30.2569 34.9168 30.6252 35.0267C31.3969 35.2574 32.0066 34.8918 32.7135 34.6557L32.7129 34.6551ZM25.6323 34.8675L24.8303 34.3192C24.7136 34.4729 25.4954 36.5269 25.6323 34.8675ZM49.7832 34.9694C49.651 34.848 49.483 34.5721 49.4898 34.3866C49.2152 34.4993 49.4702 35.1191 49.6091 35.2642C49.9424 35.6129 50.5002 35.5927 50.9056 35.3964C50.8786 35.2669 50.7714 35.277 50.6709 35.2615C50.3248 35.2082 50.0766 35.2385 49.7838 34.9694H49.7832ZM61.207 34.5276C60.9662 34.531 60.3928 34.649 60.3369 34.8952C60.2114 35.447 61.0721 35.0099 61.348 34.993L61.2063 34.5276H61.207ZM50.366 36.2739L50.6668 36.6517C51.8068 36.5478 52.0476 35.6581 52.0496 34.6564C51.9531 34.6402 51.9579 34.7738 51.9356 34.8439C51.8688 35.0578 51.8634 35.2851 51.7744 35.4915C51.5552 36.0001 50.9083 36.3232 50.366 36.2739ZM30.5571 35.196C30.8066 35.4807 31.3024 35.6176 31.6694 35.6041L33.4528 35.0942C32.897 34.5154 32.4849 35.0497 31.8913 35.2156C31.38 35.3586 31.0663 35.3202 30.5571 35.196ZM50.2311 35.8024C50.7133 36.3556 51.6199 35.6662 51.6455 35.0605C51.1889 35.3566 50.8422 35.8395 50.2311 35.8024ZM43.4932 37.7552C44.6702 37.6142 44.8308 36.1404 45.4196 35.3336L45.2787 35.1293C44.4072 35.8314 44.422 37.0827 43.4932 37.7552ZM57.8424 35.1299L46.6911 38.8311L46.6608 39.1029L57.9713 35.567L57.8424 35.1293V35.1299ZM25.1669 43.2816C25.3059 43.2634 25.6505 43.2391 25.6984 43.1042C25.7558 42.941 25.579 42.0324 25.5683 41.768C25.5035 40.2017 25.6398 38.6429 26.062 37.1346C26.143 36.8453 26.5659 35.8456 26.5686 35.6871C26.5713 35.5286 26.2252 35.3188 26.0809 35.2628C24.916 37.7019 24.7838 40.6226 25.1669 43.2809V43.2816ZM36.6879 36.5424C36.6697 36.4277 36.5543 36.4244 36.4707 36.39C35.8272 36.1215 34.9928 35.8159 34.3284 35.5677C33.2309 35.1569 32.6434 35.8031 31.5675 35.8706C31.5513 35.9677 31.6849 35.9616 31.7557 35.9839C32.4194 36.195 33.1958 35.8517 33.952 35.9448C34.8424 36.054 35.6821 36.933 36.6879 36.5431V36.5424ZM44.7741 37.2844C45.3981 36.9626 45.5134 36.2092 45.8905 35.6702L45.7839 35.4976L45.5795 35.4955L44.7734 37.2851L44.7741 37.2844ZM44.5711 35.6001C43.6497 35.7782 43.4183 36.6018 42.8537 37.2176C42.7256 37.3572 42.5805 37.4847 42.447 37.6189L41.8089 38.0918C42.822 38.054 43.5836 37.5421 44.0571 36.6692C44.2439 36.3245 44.3384 35.9225 44.5711 35.6001ZM46.7943 35.9373L46.1198 35.764L45.5815 36.8115C45.6524 36.8702 46.567 36.226 46.6824 36.1276C46.7525 36.0675 46.8227 36.0608 46.7937 35.9367L46.7943 35.9373ZM27.0542 36.8797L27.3895 36.1768L26.9868 35.8685C27.0063 36.1518 26.7838 36.3488 26.6846 36.6112C26.5652 36.9269 26.5092 37.3026 26.3797 37.6196L27.1878 37.2493C27.0779 37.4166 26.947 37.6028 26.7797 37.7168C26.4526 37.9393 26.1335 37.8375 26.2448 38.4601C26.2806 38.6597 26.9416 39.1683 27.1089 39.4854C27.3706 39.9818 27.237 40.5525 27.7267 40.9221C27.6647 39.9177 27.8279 38.9741 26.8107 38.4358C26.6536 38.3528 26.3622 38.398 26.3797 38.1599C27.1595 38.0709 28.0269 37.6972 28.3136 36.912C28.1004 36.3535 27.6235 37.6021 27.4576 37.4179C27.4354 36.9687 28.2367 36.6166 27.5595 36.3394C27.4306 36.5579 27.3193 36.7987 27.0536 36.8797H27.0542ZM58.1817 36.4075L58.0144 35.8712L46.7714 39.3862L46.6783 39.4712L46.7276 39.7107L58.1817 36.4082V36.4075ZM61.7527 36.34L61.5793 35.8726C61.3648 35.963 60.038 36.2753 60.0158 36.4392L60.1763 36.8169L61.7527 36.34ZM40.731 38.1599C41.6396 38.0486 42.3188 37.37 42.9212 36.7461L43.4251 36.0716C42.4322 36.1903 42.076 37.1097 41.3725 37.6904L40.731 38.1599ZM32.3088 36.2739C32.4828 36.4696 32.9233 36.6841 33.1837 36.7185C33.4441 36.7529 33.6646 36.6645 33.9513 36.6861C34.5044 36.7286 35.0184 37.0935 35.5776 37.1488C36.242 37.2149 36.8497 37.0888 37.361 36.6443C37.1088 36.3717 36.8376 36.709 36.5577 36.7825C35.4359 37.078 34.7277 36.2537 33.7503 36.1465C33.2613 36.0932 32.7938 36.2544 32.3088 36.2746V36.2739ZM24.7615 38.1599C23.1123 39.3161 22.9619 37.9569 22.8 36.6517C22.7899 36.5707 22.7703 36.2834 22.6739 36.2733C22.4142 37.3222 22.2644 38.514 23.4145 39.0705C23.4894 39.3228 22.9288 39.0739 22.8526 39.0247C22.6003 38.8614 22.5592 38.5984 22.3366 38.4297C22.3534 39.6344 23.2668 39.9481 24.1875 39.2365C24.5565 38.9511 24.7804 38.6503 24.7608 38.1599H24.7615ZM47.8574 36.3529C47.7852 36.3704 47.5134 36.5458 47.5363 36.6429C47.6908 36.792 47.91 36.7879 48.0968 36.8918C48.6149 37.1805 48.7377 37.5205 49.4216 37.0483C49.4203 36.962 48.0503 36.3056 47.8574 36.3529ZM42.1455 36.4763C41.5978 36.4122 41.5391 36.8574 41.2679 37.1819C40.8828 37.6426 40.3647 37.9286 39.7563 37.9603C39.2018 37.9893 38.5219 37.6803 38.103 38.1599C39.1735 38.3879 40.1812 38.371 41.0683 37.656C41.1742 37.5704 42.2177 36.5323 42.1455 36.477V36.4763ZM41.4048 36.6112C40.9691 36.5404 40.8295 36.8932 40.5516 37.0712C39.7995 37.5535 39.1917 37.0989 38.4828 37.1549C38.0072 37.1926 37.4366 37.5967 36.9577 37.7228L35.8798 37.8901C36.2541 37.936 36.6811 38.1053 37.0575 38.0985C37.5816 38.0891 38.0956 37.6763 38.6157 37.6277C39.0723 37.5852 39.5627 37.7586 40.074 37.6722C40.6446 37.5758 41.0959 37.0631 41.4042 36.6105L41.4048 36.6112ZM40.528 36.678C39.927 36.7852 39.2281 36.763 38.6056 36.7481C38.3411 36.7414 38.0963 36.6254 37.8029 36.6814C37.3482 36.7684 36.9651 37.3829 36.1125 37.42C35.7219 37.4368 35.3786 37.2614 35.0042 37.25C35.3186 37.6345 36.0477 37.6776 36.5138 37.6156C37.102 37.5367 37.6801 37.0483 38.2204 36.9633C38.9138 36.854 39.8089 37.2311 40.4025 36.8527C40.4902 36.7967 40.5644 36.8466 40.528 36.678ZM34.8693 37.5528C34.6056 36.9849 34.1051 36.8945 33.5223 36.9478L34.2845 37.364L34.8693 37.5528ZM33.3867 37.9576C33.4495 37.8732 32.9139 37.6837 32.8451 37.6581C31.6606 37.2203 30.5355 36.7623 29.4434 37.6871C28.2502 38.6982 28.1834 40.8405 29.3234 41.9231C29.4097 41.9434 30.2873 41.6877 30.3547 41.6317C30.5254 41.4907 30.1591 40.8722 30.6717 40.7305C31.1743 40.5916 31.2087 41.9211 31.3017 42.2995C31.5311 43.2263 31.9567 43.8475 32.3655 44.6725C32.8869 45.7241 33.1446 47.0219 34.6022 47.0927C35.4305 46.5936 36.4073 46.5666 36.7675 45.5514C37.2241 44.2631 36.5145 43.1568 35.8885 42.0924L35.5425 41.1252C35.0474 42.2051 35.9007 43.0199 36.1165 44.0202C36.5725 46.1295 34.5908 47.4151 33.2633 45.5939C32.2764 44.2401 31.7894 42.5531 31.4994 40.9228C31.9709 41.2702 31.9183 42.0715 32.0572 42.6213C32.2684 43.4543 33.2059 45.5811 33.9297 46.0047C34.6015 46.3979 35.3064 46.2657 35.7321 45.5953C36.7499 43.9932 34.2474 42.3204 35.6086 40.6199C35.8946 40.2624 36.3054 40.0365 36.7479 40.2887C37.2848 40.5943 37.388 41.7963 37.5782 42.3562C37.9708 43.5089 39.3947 45.2769 40.6581 45.4759C41.506 45.6094 42.737 45.1548 43.5431 44.8506C43.8831 44.7224 44.3937 44.3292 44.6743 44.4924C45.3481 44.8836 44.9448 45.7551 44.4665 46.1106C44.3627 46.1875 44.053 46.4526 43.964 46.2482C44.4827 45.9939 44.9448 45.3585 44.704 44.7649C44.337 44.7399 44.3606 45.2607 44.051 45.4246C43.7583 45.5797 42.1812 46.0708 41.8102 46.1484C39.4818 46.6367 37.8366 44.458 37.1749 42.4911C37.0474 42.1113 36.8707 40.9781 36.5907 40.7845C36.5111 40.7292 36.4498 40.7042 36.3513 40.7218C36.1118 41.4165 36.7041 42.025 36.9921 42.6071C37.4993 43.6324 37.5088 44.7474 38.2352 45.5413C38.9313 46.3015 40.1934 46.8964 41.2342 46.8526C42.2116 46.8114 43.2942 46.2259 44.0976 45.7079C44.3235 45.9979 42.8848 46.6718 42.6824 46.7514C40.9563 47.4273 39.2544 46.9699 38.0329 45.6087C37.8636 45.4199 37.7786 45.1696 37.5634 45.0347C37.4892 45.9912 38.6022 46.3979 39.2673 46.8C39.8548 47.1548 39.9782 47.4576 40.764 47.5271C42.076 47.6431 45.3003 46.7548 45.5067 45.198C45.591 44.5599 45.1815 43.5508 44.5212 43.3653C43.052 42.9531 41.9607 44.1639 40.6743 43.776C40.0551 43.5892 39.676 42.9848 39.1802 42.6091C39.4271 43.9696 40.277 44.6988 41.6875 44.4101C42.5596 44.2314 43.7536 43.3572 44.5023 44.0587C44.4638 44.342 44.2446 44.1113 44.0591 44.0978C42.6264 43.9912 41.3502 45.4529 39.8581 44.3905C38.1475 43.173 39.2106 40.7015 37.869 39.4388C37.3374 38.939 36.0309 38.7501 35.3611 39.026C33.7226 39.6999 33.5837 41.7093 34.3155 43.1272C34.6312 43.7383 36.0423 45.1757 34.8154 45.691C33.8683 46.089 33.7348 45.2452 33.4211 44.6954C32.7014 43.4327 32.1557 42.8405 32.3135 41.2351L32.5078 40.6557C32.5483 41.2364 32.4829 41.7821 32.584 42.3656C32.7371 43.2472 33.1796 43.7808 33.5978 44.5187C33.7301 44.7507 33.9284 45.3814 34.1267 45.4732C34.2656 45.5372 34.4842 45.5352 34.5638 45.3733C34.8349 44.8216 34.0161 44.0175 33.7543 43.5548C33.1972 42.5686 33.009 41.4132 33.3847 40.3198C33.0117 40.365 32.6616 40.4837 32.2805 40.4466C31.548 40.3751 30.9058 39.6466 30.2508 40.3056C29.9574 40.1316 30.0883 39.7613 30.2819 39.5407C30.8424 38.9033 31.7557 39.7127 32.4161 39.7734C33.4771 39.8712 33.7328 39.395 34.3951 38.8021C34.4869 38.7198 34.8956 38.5343 34.8005 38.4324C34.4572 38.4925 33.9486 38.0453 33.6882 38.0554C33.5506 38.0608 33.3672 38.2463 33.2201 38.2995C32.3028 38.6307 31.9877 38.1707 31.1952 38.0952C29.7874 37.9616 29.1048 39.1049 29.293 40.4014C29.353 40.8135 29.6201 41.0132 29.6788 41.3963C28.8815 40.9842 28.918 39.5124 29.2869 38.8135C29.521 38.3704 30.093 37.9002 30.5948 37.8301C31.6235 37.6864 32.4066 38.5087 33.3847 37.9582L33.3867 37.9576ZM46.4577 37.2851C45.2584 37.82 45.5282 39.5393 45.9856 40.5188C45.2375 39.8624 45.3677 38.6139 45.649 37.7559C44.8146 38.0183 45.0338 39.2918 45.2429 39.9481C45.4385 40.5612 46.1792 41.7423 46.797 41.9663C47.5464 42.2381 47.9134 41.4766 47.595 40.8304C47.5356 40.7103 47.0776 40.1363 47.0662 40.4843C47.0608 40.651 47.999 41.5265 47.0655 41.8665C47.0898 41.4752 46.7269 41.3032 46.5636 41.0537C45.8311 39.9339 45.7637 38.4358 46.4584 37.2851H46.4577ZM47.6705 37.6878C47.7744 37.5765 47.3326 37.3518 47.2395 37.3572L46.9299 37.8901L47.6705 37.6878ZM63.6225 37.5663C63.5004 37.5825 62.3442 37.9461 62.291 37.9906C62.2451 38.0284 62.2215 38.0675 62.2201 38.1275C62.2019 38.3913 62.3247 38.5154 62.5864 38.4952C62.7024 38.4864 63.7837 38.1451 63.8687 38.0857C64.0724 37.9441 63.9611 37.5218 63.6232 37.5657L63.6225 37.5663ZM28.1315 37.9589L27.121 38.3636C27.1493 38.4871 27.3402 38.4925 27.434 38.5882C27.552 38.709 27.6323 38.9147 27.7605 39.0361L28.1308 37.9589H28.1315ZM44.9751 38.0931C44.5239 38.2321 44.4045 38.249 44.3667 38.7306C44.2595 40.1026 44.9933 42.0432 46.277 42.6874C47.6517 43.3774 48.7417 41.6324 48.2203 40.4736C48.0334 40.058 47.8345 40.1127 47.4695 40.3501C48.5049 41.1636 47.6004 42.8877 46.3957 42.029C45.3137 41.258 44.5502 39.3842 44.9745 38.0931H44.9751ZM39.956 39.2385H38.7432C38.7155 39.2385 38.6251 39.0651 38.6426 39.2715C39.5492 40.2361 38.9772 41.8577 40.2123 42.6213C41.4649 43.3956 43.2214 42.3258 43.68 41.0766C43.8777 40.539 43.7637 39.5333 43.5775 38.9849C43.5458 38.8911 43.5114 38.7987 43.4885 38.7029L42.8868 38.8358C43.8392 40.2887 42.8025 42.5315 40.93 42.174C39.8804 41.9737 39.9377 40.9821 39.5769 40.2253C39.4467 39.9521 39.1991 39.7329 39.1141 39.4422C39.2275 39.3302 39.5917 39.8827 39.6396 39.9609C40.0592 40.6435 40.0376 41.7187 40.9455 41.9568C42.5367 42.3744 43.5701 40.1653 42.7424 38.9134L41.9438 38.9707C42.0052 39.3215 42.1111 39.7444 41.8399 40.0466C41.4892 40.1599 41.6423 39.2486 41.4635 39.0469L40.7978 39.1063C40.9549 39.4152 41.1492 40.5511 41.4642 40.6233C42.1104 40.5956 42.2507 39.824 42.3485 39.308C42.8079 39.8085 42.4497 40.9268 41.8251 41.1771C40.4996 41.7079 40.5907 39.8564 39.956 39.2405V39.2385ZM27.1203 40.1815C26.947 39.6385 26.6387 39.2034 26.2097 38.8351C26.0492 38.8048 26.1301 38.9086 26.1086 39.0004C25.9312 39.766 26.346 39.6203 26.5295 40.1329C26.5949 40.3157 26.5814 40.5005 26.6448 40.6914C26.8418 41.2857 27.4522 41.8327 27.4576 42.541L27.8617 42.4729C27.9041 42.4256 27.5939 41.5488 27.5372 41.4172C27.4434 41.2007 26.7817 40.1977 26.8519 40.1154L27.121 40.1822L27.1203 40.1815ZM40.0571 56.2865C41.7198 56.7992 42.6898 58.4471 44.1893 59.2639C47.3582 60.9907 50.8995 59.0346 52.0516 55.8508C53.3899 52.151 51.7676 48.4229 51.9835 44.5963C52.0678 43.1076 52.5008 41.631 52.5885 40.1478C52.6007 39.942 52.629 38.9397 52.5251 38.8628L51.9113 39.0105C52.0388 40.6327 51.456 42.1727 51.1956 43.7416C50.6169 47.2242 51.6482 48.8647 51.8479 52.01C52.1683 57.067 48.1252 61.6153 43.3947 57.8366C42.5023 57.1236 41.4521 55.84 40.1583 56.155C40.0578 56.1793 40.0396 56.1064 40.0571 56.2879V56.2865ZM22.3373 39.4409C22.4931 40.2698 23.1811 40.4149 23.9055 40.1666C24.4485 39.9805 24.7453 39.8058 24.6273 39.1704C24.1146 39.6068 23.4489 40.0378 22.7595 39.7255C22.5949 39.6513 22.5302 39.4388 22.3379 39.4409H22.3373ZM51.4439 39.171C50.6776 39.1528 50.9643 39.5744 50.9042 40.0796C50.8476 40.5511 50.6209 41.2472 50.4139 41.6783C50.1103 42.311 49.6537 42.6091 49.7899 43.4199C49.8682 43.8873 50.3545 44.261 50.2176 44.7163C50.1528 44.9315 49.6645 45.1453 49.4904 45.3376C49.0783 45.7942 49.0351 46.6057 49.3002 47.1446C49.4102 47.3672 49.7076 47.575 49.6914 47.8259C49.6773 48.0458 49.2199 48.4445 49.0938 48.7149C48.764 49.4212 49.0574 49.9898 49.5134 50.5362C49.6327 50.6792 49.8965 50.7453 49.9498 51.0137C50.0031 51.2822 49.7825 51.7551 49.7562 52.0734C49.7171 52.5483 49.8 52.9631 49.8951 53.4205C49.2537 54.2515 48.196 54.9328 48.0813 56.0774L48.3039 56.1563C48.7289 55.1553 49.3407 53.9743 50.4995 53.726C50.229 53.2471 50.0274 52.7115 50.1015 52.149C50.1474 51.8009 50.4327 51.4475 50.3525 51.0805C50.2789 50.7446 49.6577 50.462 49.4459 50.0977C48.9049 49.1669 49.5005 48.402 50.1528 47.7537C49.8176 47.1629 49.3825 46.9517 49.4958 46.1517C49.5936 45.4597 50.5447 45.0752 50.6223 44.7157C50.7585 44.083 49.8749 43.4624 50.3653 42.7089C50.7073 42.1842 51.1302 42.3251 51.2348 41.4887C51.2435 41.4165 51.2928 41.2439 51.1754 41.2607C51.0681 41.6324 50.8563 41.9879 50.5339 42.203C50.4833 42.2138 50.4901 42.1376 50.5015 42.1032C50.6317 41.7086 50.9926 41.2034 51.1552 40.7346C51.3272 40.2361 51.481 39.7012 51.4439 39.1704V39.171ZM50.7026 39.3734L50.3066 39.4483C50.3012 40.0574 50.3565 40.6995 49.9302 41.1953C49.6678 41.5009 49.1855 41.5326 49.2887 42.0688C50.4523 41.602 50.7545 40.5491 50.7026 39.3734ZM52.8597 41.395C53.3696 40.8304 53.4263 40.1194 53.1275 39.4409L52.8597 41.395ZM50.0962 39.5758L49.7717 39.6554L49.423 41.2594C49.5768 41.4098 49.9154 40.6908 49.9471 40.6044C50.0698 40.2678 50.1265 39.9353 50.0968 39.5751L50.0962 39.5758ZM25.9757 39.8449C25.8023 40.6375 26.2792 41.0193 26.5733 41.6391C26.6488 41.7977 26.9517 42.7373 27.0192 42.7413L27.2451 42.568C27.1507 41.9663 26.7892 41.4678 26.549 40.9221C26.3865 40.5525 26.4236 40.085 25.9757 39.8449ZM48.8159 39.9123L48.3444 40.0479L48.6149 40.653L48.8159 39.9123ZM24.5598 40.3171C22.4722 40.8007 22.3561 42.1977 23.148 43.9541L23.4819 43.8873C23.0691 43.2121 22.918 42.1336 23.3585 41.4395C23.434 41.3208 23.9265 40.8122 23.8071 41.2142C23.7632 41.3633 23.6216 41.4894 23.5582 41.6391C23.2755 42.3049 23.3942 43.1015 23.6924 43.745L24.0883 43.685C23.7646 42.9713 23.6283 42.3312 23.9845 41.5946C24.2226 41.1015 24.7231 40.972 24.5592 40.3171H24.5598ZM22.4722 41.1926L22.8074 40.6921L22.4047 40.3845L22.4722 41.1933V41.1926ZM53.8695 47.9305C53.7636 47.4394 54.1919 47.0408 54.2108 46.4829C54.2351 45.7754 53.6981 45.1582 53.6968 44.8654C53.6954 44.5578 54.0415 44.0782 54.0044 43.5191C53.9639 42.91 53.3346 42.1909 53.3352 41.967C53.3352 41.7633 53.711 41.451 53.7022 41.1852L53.5322 40.7535C53.4202 41.0563 52.9379 41.6891 52.9285 41.9744C52.9177 42.2988 53.4277 42.6833 53.5659 43.0118C53.8546 43.6951 53.6624 44.3406 53.2631 44.9335C53.1963 44.9814 53.1437 44.9147 53.1545 44.827C53.1835 44.5956 53.4067 44.2846 53.4486 44.0405C53.5794 43.2796 53.2158 42.7899 52.7241 42.2705C52.7632 42.4742 52.6115 42.7049 52.6668 42.8958C52.7329 43.1238 53.1599 43.289 53.1255 43.7787C53.0897 44.288 52.3659 44.7049 52.4516 45.0536C52.9251 45.3389 53.3211 45.8361 53.3325 46.4175C53.342 46.8991 52.8739 47.3639 52.9386 47.8118C53.0418 48.52 54.4179 48.5666 54.5939 49.5979C54.7632 50.5908 54.3275 50.7298 53.9922 51.4569C53.6934 52.1031 54.1339 52.1119 54.2438 52.6441C54.3538 53.1763 54.2755 53.5479 54.0388 53.9965C53.9201 54.2211 53.5693 54.5833 53.5349 54.7742C53.4755 55.1048 53.6637 55.6774 53.6705 56.0478C53.6846 56.8626 53.3717 57.8292 52.7943 58.412C52.4401 58.7695 51.7987 58.9624 51.7137 59.5209C52.8725 59.0238 53.8067 58.2616 53.9362 56.926C53.9976 56.2926 53.7696 55.2923 53.8836 54.7844C53.9538 54.4721 54.3848 54.1847 54.5453 53.8967C54.8813 53.293 54.8698 52.4026 54.6094 51.7719L54.1723 52.1085C54.0273 51.4603 54.7167 51.0576 54.8833 50.4613C55.0816 49.7524 54.855 48.9639 54.2688 48.5079C54.055 48.3413 53.4121 48.1126 53.344 47.8826C53.2165 47.4543 53.5868 47.1069 53.6509 46.7352C53.7696 46.0458 53.5396 45.6155 53.1282 45.1008C53.804 45.2229 53.9329 46.1807 53.8695 46.7514C53.8222 47.1763 53.1889 47.8839 53.8695 47.9298V47.9305ZM26.4478 42.8776L26.6515 42.8459C26.8316 42.7224 26.4472 41.9211 26.348 41.7309C26.2583 41.5589 26.1268 41.3147 25.977 41.1933C25.8313 41.8584 26.3635 42.2543 26.4485 42.8783L26.4478 42.8776ZM24.5598 43.5508C24.4404 43.1575 24.317 42.8641 24.3548 42.4358C24.3892 42.0466 24.686 41.7181 24.5592 41.2601C24.1187 41.6142 23.9716 42.1565 24.0182 42.7116C24.0425 43.0051 24.1666 43.656 24.5598 43.5508ZM44.706 42.2024L44.2682 41.5305C44.0166 41.9629 43.7832 42.3494 43.394 42.6766L42.4827 43.2809C42.8342 43.1717 43.361 43.1231 43.6753 42.9585C44.0281 42.7737 44.2399 42.2455 44.706 42.2024ZM53.8688 41.5966C53.7076 41.5353 53.6543 41.795 53.6658 41.8982C53.6772 42.0014 53.9018 42.2644 54.0037 42.338L53.8695 41.5966H53.8688ZM50.0962 41.8671C49.3103 42.1997 49.0392 42.8823 49.2516 43.689C49.3838 44.1909 49.8594 44.4897 49.6253 45.0334C50.4759 44.6367 49.7643 44.1551 49.5916 43.6182C49.3737 42.9396 49.6665 42.3811 50.0962 41.8671ZM24.829 43.4165C24.7386 43.1008 24.7291 42.775 24.6779 42.456C24.6684 42.3953 24.6495 42.2536 24.5605 42.2712C24.5551 42.6341 24.545 43.1501 24.829 43.4165ZM30.6238 42.338L20.2941 45.72L20.1862 45.8145L20.3157 46.3143L30.692 42.6739L30.6238 42.338ZM48.3444 42.8108L47.6935 43.339C46.9636 43.743 46.1502 43.5211 45.5201 43.0401C45.3387 42.9019 45.052 42.5025 44.8706 42.4722C44.4834 42.4074 44.1057 42.7892 43.8972 43.0786C44.8706 43.0847 45.9181 43.2755 46.1576 44.3622C46.6972 44.1309 47.3947 44.255 47.8675 43.9164C48.2608 43.6351 48.165 43.2135 48.3437 42.8101L48.3444 42.8108ZM50.7019 43.9548L50.9717 42.4729C50.5488 42.7575 50.4469 42.9936 50.5171 43.5015L50.7019 43.9548ZM20.5875 47.1204L30.7109 43.2675C30.9233 43.1845 30.8357 42.8992 30.6218 42.972L20.4499 46.5848L20.5875 47.121V47.1204ZM52.455 44.427C52.8239 44.1558 53.0472 43.6061 52.6223 43.2816L52.455 44.427ZM54.9467 48.4701L54.803 46.4924L54.3416 43.8212C54.3248 44.1416 54.1015 44.63 54.1393 44.9268C54.1609 45.0961 54.3551 45.3093 54.4266 45.5204C54.6816 46.2691 54.6135 46.9261 54.2742 47.6303L54.946 48.4701H54.9467ZM31.3652 44.3588C31.2383 44.1477 31.2579 43.911 30.9604 43.9838C30.0363 44.2111 29.2006 45.4624 29.3443 46.4155C29.3672 46.5335 29.9898 46.9963 30.1018 46.976C30.4532 46.9126 30.3878 46.3258 30.5038 46.0243C30.6792 45.5703 31.2039 45.1116 31.7031 45.1002C31.7544 45.0502 31.5662 44.543 31.4043 44.5632C30.4026 44.8061 29.861 45.7322 29.8158 46.7183C29.6647 46.6745 29.6809 46.5497 29.6863 46.4263C29.7254 45.5123 30.437 44.5282 31.3658 44.3588H31.3652ZM49.3548 47.9311C49.3845 47.606 49.0918 47.4178 48.9866 47.121C48.8375 46.7015 48.8476 46.1888 48.9704 45.7605C49.1572 45.1069 49.7198 44.8823 48.9521 44.1578C48.915 44.4722 48.8422 44.8236 48.8172 45.1352C48.7714 45.7194 48.6945 46.947 48.9171 47.4603C48.9474 47.5311 49.2705 48.0296 49.3555 47.9311H49.3548ZM18.1525 45.5123C17.8456 45.5231 17.5461 45.4489 17.3174 45.2351C17.0193 44.9558 16.995 44.2246 16.5221 44.3703C16.137 44.489 16.3913 45.1177 16.5282 45.3504C16.8412 45.8826 17.741 46.402 18.3616 46.178L18.1525 45.5123ZM47.8527 45.1204C47.5842 44.7973 46.7235 44.7609 46.3653 44.9747C46.1542 45.1008 46.1407 45.5312 46.0375 45.7922C45.8898 46.1673 45.0952 47.2404 44.7957 47.5156C44.0274 48.2219 43.133 47.8306 42.2615 48.1483C40.7242 48.7096 41.187 50.5915 42.5313 51.0832C43.533 51.4495 44.5407 51.15 45.425 50.638L46.2554 50.0883C45.6604 50.06 45.1694 50.5686 44.6183 50.7743C44.0821 50.9746 43.5013 51.0691 42.938 50.9463C41.502 50.634 41.0844 49.0758 42.3822 48.2684C42.4915 48.3352 42.3607 48.4175 42.3155 48.4708C41.8615 49.0077 41.558 49.4697 42.0423 50.1578C42.6689 51.0481 44.0153 50.8087 44.8652 50.4148C45.3198 50.2043 46.2088 49.4367 46.6608 49.9858C46.936 50.3197 46.739 50.5571 46.4523 50.7891C45.4406 51.608 43.8298 52.1436 42.5488 51.8077C39.9276 51.1196 40.8018 47.8806 38.1179 47.0745C36.5293 46.5976 36.0336 47.3011 34.7702 47.7983C33.5844 48.265 33.1648 47.1676 32.1415 47.0549C31.6073 46.9962 30.897 47.0785 30.6346 47.6155L30.8613 47.9305C31.2269 47.5332 31.724 47.4502 32.2461 47.5568C32.9759 47.7065 33.3118 48.547 34.2299 48.5436C35.4042 48.5389 36.0862 47.1844 37.784 47.544C40.2244 48.0613 39.4973 51.061 41.7064 51.9095C41.9337 51.9965 42.2743 51.9749 42.4166 52.176C41.7779 52.2353 41.1634 52.0046 40.6966 51.5716C39.5222 50.4822 39.7469 48.4094 37.9674 47.832C36.188 47.2546 35.3826 48.9389 33.8987 48.7338C33.1668 48.6327 32.6845 47.7456 31.9318 47.6661C31.5378 47.6242 31.2451 47.8138 30.895 47.9325L31.1857 48.3284C32.2306 47.6323 32.8451 49.0859 33.8333 49.2047C35.413 49.3949 36.2555 47.5548 37.9884 48.2839C39.2389 48.8107 39.2376 50.5011 39.9924 51.4684C40.4936 52.1105 41.3563 52.5679 42.1806 52.5679C42.7485 52.5679 45.9822 51.6013 46.4793 51.2883C47.3839 50.7183 47.4075 49.2998 46.2905 49.2748C45.4567 49.2566 44.5623 50.3756 43.4676 50.3514C42.878 50.3379 42.2811 49.9777 42.3539 49.3214C42.449 48.462 43.4628 48.7669 44.0213 48.6279C44.4834 48.5133 45.4021 47.7794 45.6638 47.3733C46.0328 46.8013 46.105 45.0698 47.1343 45.3356C48.0274 45.5662 47.8736 47.43 47.6017 48.1011L48.0085 48.4714C48.2081 47.8947 47.9221 47.3814 47.8756 46.8195C47.8479 46.4863 47.8675 46.0816 47.8716 45.7396C47.8743 45.5231 48.0227 45.3234 47.8547 45.1211L47.8527 45.1204ZM28.6023 49.0772C28.7379 48.3703 28.4337 47.6789 28.3986 47.0246C28.3628 46.3568 28.6428 45.6823 28.2326 45.0347L27.8583 45.2067C28.1645 46.1194 27.8684 47.2027 27.9925 48.1032C28.0269 48.3548 28.404 48.9052 28.6016 49.0772H28.6023ZM50.5676 45.169C50.4408 45.1393 50.4078 45.2411 50.3322 45.3032C49.8432 45.7039 49.5059 46.2732 49.8128 46.9011C49.9053 47.0907 50.3214 47.3794 50.3383 47.49C50.4091 47.9494 50.0483 48.0876 49.829 48.3709C49.4297 48.8876 49.2543 49.5014 49.6638 50.0829C49.8938 50.41 50.4617 50.58 50.5562 51.0124C50.6398 51.3955 50.2763 52.0431 50.2985 52.5442C50.3201 53.0447 50.5784 53.4859 50.7707 53.9277C49.5066 54.1368 48.8226 55.4292 48.5447 56.5543C47.6442 56.3709 46.7046 55.9162 46.1886 56.9955C46.3829 57.5095 46.6088 56.9617 46.8827 56.812C47.278 56.5955 48.0537 56.4606 48.2102 57.0278C47.8938 56.9705 47.5856 56.9145 47.2625 56.9901C46.8186 57.0933 46.4814 57.7975 46.0571 57.3955C45.91 57.2558 45.8149 56.9152 45.6787 56.7641C45.1573 56.1854 44.4416 56.7155 44.1697 56.5921C43.8062 56.1112 43.5505 55.6127 43.023 55.2768C42.9603 55.351 43.8035 56.8214 44.0348 56.9273C44.2264 57.0157 44.7512 56.8302 45.1134 56.9253C45.5505 57.04 45.908 57.7961 46.4341 57.8346C46.7498 57.8575 47.112 57.4993 47.4689 57.3975C47.8257 57.2956 48.2392 57.3584 48.5002 57.2835C48.9056 57.1675 48.8874 56.3655 49.0722 56.0363C49.1673 55.8663 49.3076 55.8488 49.3589 55.7651C49.7609 55.1075 49.9363 54.3567 50.8388 54.1301C50.8874 54.4066 50.5663 54.4545 50.4031 54.6029C49.9977 54.9699 49.5066 55.7166 49.2334 56.1955C49.0027 56.6002 49.0587 57.0939 48.6169 57.3307C49.253 57.4049 49.7575 56.5489 50.0429 56.0619C50.2526 55.7051 50.3801 55.2963 50.6223 54.9564C50.7457 54.783 51.0911 54.5085 51.1423 54.3979C51.3191 54.0147 50.6985 52.9577 50.7005 52.4114C50.7032 51.635 51.4749 51.237 50.6398 50.5227C50.283 50.2178 49.74 50.1166 49.6975 49.5055C49.6415 48.6994 50.5231 48.4822 50.6257 48.0155C50.6506 47.9021 50.5899 47.208 50.5562 47.1015C50.5191 46.9834 50.3282 46.8708 50.2452 46.7393C49.7663 45.9811 50.7248 45.9028 50.5703 45.1676L50.5676 45.169ZM19.0827 45.2492C18.9653 45.2897 18.7663 45.3052 18.7751 45.4576L19.8078 48.3264C19.967 48.2596 20.2098 48.2117 20.1687 47.9838C19.9542 47.5595 19.4624 45.488 19.2068 45.2958C19.1677 45.2668 19.1366 45.2378 19.0833 45.2492H19.0827ZM27.7261 47.5946C27.7315 46.8276 27.7537 46.056 27.5912 45.3032L27.2633 45.4765C27.4947 46.1632 27.1723 47.0624 27.7261 47.5946ZM41.473 57.6349C41.7826 58.9732 41.9397 60.6953 43.4952 61.1708C44.3627 61.4359 44.6028 60.9199 45.1944 60.9536C45.6193 60.9772 46.082 61.3954 46.4564 61.5789C48.3208 62.4902 50.2641 62.3074 51.2321 60.2878C51.4783 59.7738 51.5309 59.1965 51.9464 58.7782C52.5096 58.211 52.8901 58.1941 53.2287 57.2977C53.6334 56.2258 53.2583 55.6451 53.4142 54.7203C53.5302 54.0316 54.2459 53.8866 54.0556 52.7655C53.9646 52.2306 53.4863 52.1206 53.742 51.4758C54.0165 50.7817 54.6013 50.5989 54.3936 49.5972C54.2108 48.7149 53.002 48.7365 52.7761 48.0478C52.5022 47.2128 53.4162 46.6705 52.9164 45.8185C52.8482 45.7032 52.5251 45.3329 52.3882 45.403C52.4766 45.8705 52.6223 46.2651 52.5818 46.7447C52.5696 46.887 52.484 47.0313 52.4772 47.1662C52.4664 47.3983 52.5386 48.1241 52.6209 48.3372C52.8192 48.8472 53.6813 48.9537 53.9626 49.5561C54.3733 50.4357 53.4047 51.0394 53.0607 51.7389C53.5585 52.4518 53.9335 52.9598 53.4762 53.84C53.3575 54.0694 52.9723 54.4511 52.9352 54.6522C52.8981 54.8532 53.1423 55.5398 53.1302 55.9182C53.1106 56.528 52.8287 57.386 52.4516 57.869C52.2236 58.1617 51.6509 58.5152 51.5187 58.756C51.3548 59.0548 51.2746 59.5897 51.0972 59.9519C50.0705 62.0484 47.6571 62.3269 45.9849 60.8032C46.449 60.957 46.8247 61.2632 47.2962 61.4109C48.7714 61.8743 50.1555 61.3846 50.8725 59.9964C51.0978 59.5593 51.1774 58.9091 51.3852 58.555C51.5241 58.3182 51.9383 58.0855 52.1508 57.8379C52.7572 57.1317 52.9717 56.0484 52.7895 55.1419C52.6924 55.1257 52.6985 55.2586 52.6755 55.3294C52.3983 56.1854 52.5042 56.7297 51.9127 57.5324C51.6489 57.8899 51.0344 58.3101 50.9211 58.6973C50.8563 58.9172 50.855 59.1728 50.7714 59.4238C50.3127 60.8012 48.8483 61.5074 47.454 61.187C46.7107 61.0163 46.219 60.4713 45.5957 60.2824C44.7141 60.0147 43.6928 60.3229 42.9907 59.5182C42.7101 59.1965 42.6723 58.7364 42.3802 58.4444C42.1617 59.4062 42.9428 60.4558 43.931 60.532C44.5455 60.5792 45.1026 60.2123 45.7151 60.5334L44.1347 60.8045C42.6365 60.8767 41.8696 59.4332 41.9957 58.0869L41.4716 57.6349H41.473ZM27.1197 46.3136L27.0522 45.5049L26.7831 45.573C26.7514 45.6047 26.8782 45.8806 26.9072 45.9541C26.9436 46.0479 27.0232 46.2806 27.1197 46.3136ZM47.398 47.9966C47.6287 47.4495 47.7839 46.1302 47.3023 45.7066C47.0884 45.5184 46.7491 45.5096 46.5933 45.7747C47.3373 45.971 47.3029 46.7764 47.1687 47.3956C47.0958 47.7342 46.7647 47.9325 47.398 47.9966ZM32.3763 46.3818C32.263 46.2313 32.1382 45.7153 31.9426 45.7092C31.5689 45.7774 31.1743 46.0573 31.096 46.4485C31.1918 46.4897 31.2964 46.3818 31.3314 46.3818H32.3756H32.3763ZM11.3546 46.4485H12.3988C12.4945 46.4485 13.1218 46.6657 13.2756 46.717C13.733 46.8694 14.1572 47.1129 14.6159 47.2627L14.9923 46.5841C14.104 46.491 12.3374 45.4421 11.507 45.8941C11.2628 46.027 11.2709 46.2192 11.3539 46.4492L11.3546 46.4485ZM26.4445 45.7767C26.3898 45.7376 26.0829 45.8684 26.0027 45.9042C25.9406 45.9318 25.8772 45.8637 25.915 46.0027C26.4701 47.3409 27.1581 48.6131 27.9689 49.8124C28.6731 50.8539 29.5419 51.7456 30.0802 52.8889C30.1207 52.9753 30.0788 53.0569 30.2535 52.9847C30.5193 52.8741 30.0215 52.0249 29.9183 51.8387C29.461 51.0124 28.7824 50.2488 28.265 49.4488C27.5237 48.3042 26.8451 47.0866 26.4445 45.7767ZM37.5627 45.7754L37.4244 45.8165L37.2268 46.2462L37.9681 46.3136C37.8656 46.1086 37.5985 46.0162 37.5627 45.776V45.7754ZM46.2561 47.7962C46.7734 47.917 46.8915 47.5696 46.967 47.1264C47.0297 46.7554 47.05 46.0094 46.5252 46.0782C46.4719 46.3264 46.5994 46.5814 46.5893 46.8094C46.5731 47.1588 46.3053 47.4576 46.2567 47.7956L46.2561 47.7962ZM25.3011 48.9423C25.0145 47.9993 25.1838 47.0394 25.436 46.1119L24.9113 46.3285C24.742 47.2209 24.6199 48.2286 25.3011 48.9423ZM17.0139 46.5828C16.5478 46.0108 16.0007 46.3797 15.5636 46.7838C14.334 47.9217 13.9616 52.006 11.4881 51.268C10.106 50.8559 9.71345 48.9004 10.821 47.9703C11.7546 47.1865 13.0517 47.7693 14.0176 48.1922L14.2436 47.8286C13.1367 47.2809 12.0406 46.7042 10.8379 47.3807C8.68952 48.5895 9.72694 52.0161 12.1957 51.838C13.6345 51.7341 14.2807 50.2259 14.8486 49.1008C15.3876 48.0323 15.5926 46.833 17.0139 46.5828ZM24.6273 46.4492L24.0978 46.6826L24.4263 47.5264C24.5234 47.5311 24.5281 47.2829 24.5403 47.204C24.5787 46.9558 24.5868 46.6974 24.6273 46.4492ZM25.7052 46.4485C25.5271 46.4323 25.5959 46.4452 25.5723 46.5497C25.0455 48.8708 25.9042 50.3648 28.1982 50.9638C28.2657 50.8977 27.9588 50.6009 27.8961 50.5591C27.5615 50.3325 27.121 50.2401 26.7514 49.9514C26.1625 49.492 25.7531 48.7858 25.7065 48.0317C25.6715 47.4644 25.9527 46.9902 25.7045 46.4492L25.7052 46.4485ZM18.5612 46.7871C18.1693 46.8607 16.1775 47.4698 16.2071 47.8981C16.9431 48.3399 17.9265 47.5291 18.6962 47.3881L18.5612 46.7871ZM44.7734 47.1905L43.6281 47.7281C44.0686 47.7537 44.4834 47.5075 44.7734 47.1905ZM27.66 50.1544C27.3652 49.5864 26.7318 49.3787 26.435 48.7858C26.2225 48.3622 26.2799 48.0121 26.1585 47.5797C26.1362 47.4994 26.0748 47.2688 25.9763 47.2573C25.7531 48.5477 26.3534 49.78 27.66 50.1537V50.1544ZM29.2094 49.9864C29.1918 49.4724 29.2094 48.9517 29.2094 48.4364C29.2094 48.3116 28.9321 47.3753 28.8377 47.3254C28.721 47.3099 28.7331 47.3214 28.7352 47.4273C28.7399 47.7274 28.8707 48.1456 28.8728 48.437C28.8741 48.6839 28.7385 49.0981 28.7736 49.3578C28.8053 49.5932 29.096 49.8428 29.1439 50.0876H29.2431C29.3382 50.0768 29.2107 50.004 29.21 49.9871L29.2094 49.9864ZM29.5473 50.5591C29.6707 50.5382 29.6606 50.4202 29.6903 50.3325C29.9648 49.5284 29.9183 48.0897 29.21 47.5264C29.5527 48.5247 29.2694 49.5628 29.5473 50.5584V50.5591ZM18.9673 47.9318C18.8864 47.8731 18.4284 48.346 18.3616 48.437C17.965 48.9767 17.857 49.751 18.2112 50.3392C18.3171 50.5159 18.4486 50.5402 18.651 50.4788C19.0213 50.3669 18.715 49.8866 18.6962 49.6485C18.6671 49.2768 18.8338 48.8047 19.1751 48.6293L18.9666 47.9318H18.9673ZM29.9513 51.1655C30.118 51.0427 30.2023 50.694 30.2542 50.4923C30.4741 49.6431 30.5969 48.6549 29.8164 48.066C30.0775 48.6961 30.0984 49.3031 30.0013 49.9696C29.9379 50.404 29.6775 50.7163 29.9513 51.1655ZM41.2693 48.201H40.5286L40.8666 48.8741L41.2699 48.201H41.2693ZM11.8767 48.2853C10.8527 48.3467 10.5344 49.7591 11.3532 50.3925C12.4554 51.2458 13.2635 49.6896 13.6406 48.8478C13.5947 48.6455 12.1357 48.2691 11.8767 48.2853ZM32.1975 49.1885C32.9739 49.8475 33.751 50.2569 34.7999 49.9176C35.7678 49.6047 36.3951 48.2866 37.6113 48.7945C38.5017 49.1662 38.6946 50.7095 39.1681 51.4825C40.5441 53.728 43.4021 53.3301 45.5134 52.4788C46.7991 51.9608 48.5805 50.6299 47.4979 49.0812C46.3316 47.4124 44.6938 49.5075 43.4682 49.409C43.3286 49.3976 42.8011 49.2033 42.7485 49.2397C42.4834 49.5932 42.7573 49.9095 43.1188 50.0242C44.507 50.4654 45.6733 48.433 46.8847 49.2229C47.6665 49.7328 47.3832 50.8991 46.7228 51.3969C46.1589 51.8218 43.8372 52.4525 43.0507 52.6434C41.2861 53.0717 40.0524 52.3095 39.3259 50.7183C38.9239 49.838 38.8356 48.8033 37.7644 48.4384C35.96 47.8246 35.0926 50.3507 32.9881 49.1048C32.5112 48.8229 31.8468 48.0121 31.2984 48.6043C31.7544 48.545 31.9506 48.9787 32.1975 49.1878V49.1885ZM51.2408 50.8964C51.168 50.6819 51.1902 50.2826 51.0432 50.118C50.8516 49.9028 50.2486 49.9338 50.1973 49.49C50.1481 49.0644 50.7707 48.723 50.6695 48.3359C50.3801 48.6273 49.8479 49.1122 49.9066 49.5642C49.9741 50.0876 50.6041 50.1497 50.9076 50.4559C51.0533 50.6023 51.0735 50.7959 51.2415 50.8964H51.2408ZM15.6662 49.0084C16.3724 49.262 17.4766 49.465 17.6196 48.4701C17.0645 48.6954 16.4722 48.7642 15.8989 48.5571L15.6662 49.0084ZM52.9939 51.3004C54.1413 50.2441 54.1083 49.4846 52.6567 48.8074C52.5352 49.3814 53.4088 49.5244 53.4668 49.923C53.5282 50.3466 52.9946 50.5193 52.9352 50.7433C52.8934 50.9011 53.0358 51.1223 52.9939 51.3011V51.3004ZM50.9717 49.6836L50.8044 48.9429L50.5177 49.3821L50.9717 49.6842V49.6836ZM16.2051 49.3477C15.9872 49.3186 15.6992 49.0947 15.4975 49.2782C14.9046 50.3331 14.425 51.5284 13.3377 52.1746C13.6399 52.9739 14.3765 52.2218 14.6908 51.84C15.2534 51.1567 15.5852 50.2272 16.1707 49.546L16.2051 49.347V49.3477ZM31.2316 51.3011C31.2208 51.4731 31.1641 51.9169 31.0292 52.0093C30.7419 52.2063 31.0805 51.1325 31.0893 51.0576C31.1304 50.6873 31.0899 50.3116 30.9935 49.9547L30.6252 49.2121C30.665 49.7672 30.5834 50.2697 30.4249 50.7979C30.3419 51.0738 30.0809 51.2775 30.2212 51.5696L30.6913 50.6272C30.7817 50.982 30.3291 51.5817 30.3844 51.8407C30.4087 51.9527 30.7797 52.6542 30.8647 52.779C31.0953 53.1176 31.4866 53.4313 31.7159 53.8144C31.9034 54.128 32.037 54.7115 32.2097 54.9375C32.4026 55.1897 32.6022 55.098 32.5759 54.7783C32.5442 54.3918 32.0572 53.5695 31.8245 53.2329C31.5918 52.8964 31.1803 52.6029 31.1702 52.2029C31.1648 51.9979 31.2795 51.7517 31.297 51.5338C31.3031 51.4596 31.3469 51.2829 31.2316 51.2997V51.3011ZM31.9055 49.8859C31.8764 49.9224 32.0539 50.6994 32.1139 50.7891C32.2009 50.9193 32.3689 50.9335 32.4781 51.0313C33.2302 51.7058 33.2113 52.3365 33.7091 53.1021C35.0663 55.1898 37.7954 54.0323 38.0282 51.7982C38.1671 50.46 37.5418 48.3898 36.045 50.0229C36.186 50.5368 36.356 50.9024 36.2784 51.4637C36.1948 52.0728 35.6106 52.3979 35.1358 51.9446C34.9091 51.7287 34.5705 50.8586 34.466 50.7945C34.3338 50.7143 34.0822 50.7797 33.9263 50.7621C34.4093 51.434 34.5543 52.7635 35.5756 52.7878C36.7358 52.8154 36.9907 51.4124 36.5543 50.5598C37.6369 51.5311 36.5287 53.5297 35.0919 52.9314C34.2562 52.5834 34.1537 51.1655 33.6248 50.7601C33.4602 50.634 32.9813 50.5578 32.7351 50.437C32.4404 50.292 32.2022 50.0283 31.9055 49.8859ZM28.6697 51.5702C28.6954 51.461 28.632 51.4326 28.5713 51.3658C28.3311 51.1008 27.4961 50.9915 27.0967 50.8195C26.6974 50.6475 26.3696 50.3945 26.0431 50.0876C26.3548 50.7885 26.9996 51.3753 27.778 51.4852C28.0795 51.5277 28.3891 51.4454 28.6697 51.5702ZM35.5439 51.4353C35.7509 51.579 35.6801 50.4566 35.5101 50.3581L35.073 50.5928L35.5439 51.4353ZM49.2881 50.8964V52.8168C49.2881 52.8795 49.4412 53.3631 49.5565 53.3894C49.626 52.9652 49.4567 52.6063 49.4911 52.1436C49.5316 51.6046 49.9612 51.1642 49.2874 50.8964H49.2881ZM45.6497 55.5473C46.0287 55.9938 46.2615 55.5837 46.5926 55.4454C46.8132 55.353 47.1181 55.3422 47.3023 55.2113C47.4965 55.0731 47.8689 54.3317 48.0476 54.0694C48.2135 53.8259 48.5582 53.5945 48.5501 53.293C48.5447 53.0839 48.4274 52.8343 48.4132 52.6137C48.3808 52.0876 48.4827 51.5419 48.3437 51.0313C48.227 51.1433 47.9039 51.633 47.8844 51.753C47.8621 51.89 48.0591 52.435 48.0611 52.6825C48.0732 54.1692 46.9272 55.0818 45.6497 55.5473ZM51.4439 53.4232C51.4958 53.0515 51.4439 52.4761 51.4439 52.0754C51.4439 52.0552 51.3892 51.7436 51.3771 51.6707C51.3602 51.5709 51.3744 51.463 51.2429 51.4353C51.2084 51.7537 50.973 52.0896 50.973 52.412C50.973 52.8012 51.282 53.2019 51.3103 53.5911C51.3778 53.6161 51.4405 53.4508 51.4445 53.4232H51.4439ZM29.0745 52.0417C29.0144 51.6141 28.3763 51.8029 28.0384 51.7638C27.7004 51.7247 27.3895 51.6249 27.0873 51.5021C27.0927 51.6147 27.3079 51.8185 27.3922 51.8711C27.4576 51.9122 27.78 52.0417 27.8279 52.0417H29.0745ZM35.9472 54.9402C34.5935 55.0198 33.6451 54.4228 32.9962 53.2748C32.756 52.8498 32.5375 52.1105 32.271 51.776C32.2076 51.6964 32.1598 51.6134 32.0397 51.6377C31.8953 52.35 32.4289 52.7507 32.7675 53.3017C33.1007 53.8447 33.0643 54.1739 33.6619 54.5638C34.323 54.9948 35.1877 55.1749 35.409 56.0848L35.9472 54.9402ZM47.7373 51.9749C47.1174 52.184 47.369 52.5254 47.3036 52.9888C47.2321 53.4953 46.9178 53.9844 46.5077 54.2812C45.9943 54.6522 45.0743 54.812 44.9765 55.5459C45.4277 55.6599 45.5121 55.3752 45.8163 55.2073C46.0881 55.0575 46.4152 54.9618 46.6824 54.7931C47.6159 54.2029 48.0483 53.0319 47.738 51.9749H47.7373ZM38.7755 52.0424C38.5975 52.0242 38.6669 52.039 38.6433 52.1429C38.584 52.4033 38.5759 52.6765 38.4403 52.9179L39.3158 52.783L38.7755 52.0431V52.0424ZM29.3443 52.5125C29.2761 52.0606 28.8127 52.3149 28.5052 52.3142C28.2333 52.3142 27.9925 52.2798 27.7274 52.2441C28.0525 52.75 28.8417 52.7082 29.3443 52.5119V52.5125ZM52.9926 54.1975C53.3885 53.55 53.7406 52.9584 53.0944 52.3115C53.1032 52.8694 52.9717 53.4151 52.9271 53.9635C52.9211 54.037 52.8779 54.2151 52.9933 54.1975H52.9926ZM29.8144 53.2525C29.8758 53.1641 29.6235 52.6731 29.5136 52.6643C29.1291 52.8896 28.7021 52.9712 28.2664 52.8512C28.5807 53.3982 29.2741 53.4043 29.8144 53.2525ZM46.6594 52.7837C46.0672 52.9793 45.5073 53.2417 44.9077 53.4232C44.2217 53.6309 43.5249 53.7766 42.8193 53.8947L43.3826 54.3264C44.0423 53.6714 45.1067 53.6437 45.9862 53.5925C45.3097 54.1739 44.2014 53.7247 43.5613 54.5031L43.9269 54.8039C44.1488 54.4727 44.4524 54.2009 44.8753 54.1928C45.0379 54.1894 45.2024 54.2697 45.332 54.2528C45.8507 54.1847 46.7363 53.3867 46.6601 52.7837H46.6594ZM27.3234 53.6592C27.4313 54.5199 27.3787 55.3887 27.3875 56.2562C27.4003 57.5533 27.4158 58.8572 27.3929 60.1644C27.3827 60.7512 27.09 61.4575 27.693 61.8784C27.8596 61.8818 27.7821 60.9313 27.7915 60.7647C27.8913 58.9496 27.9507 56.9948 27.8644 55.1715C27.8549 54.9685 27.8171 54.2319 27.78 54.1098C27.7429 53.9877 27.4394 53.7483 27.3227 53.6579L27.3234 53.6592ZM33.9931 57.5C33.8434 56.2987 32.6967 56.2049 31.9493 55.67C31.3901 55.27 31.4103 54.6636 31.0825 54.1112C31.0104 53.9891 30.7965 53.5999 30.6245 53.6896C30.3749 53.8414 30.6933 54.0053 30.8087 54.2508C30.9672 54.5887 30.9625 54.9793 31.0933 55.3139C31.3146 55.8784 32.066 56.1368 32.4903 56.5449L33.9931 57.5007V57.5ZM45.5822 57.5C45.3475 57.2329 45.0385 57.0676 44.681 57.102C44.3654 57.1324 44.2345 57.3395 43.9006 57.1263C43.3327 56.7628 42.959 55.5297 42.4497 54.9388C41.1991 53.4886 38.9017 53.2383 37.4298 54.5017L38.2912 54.2171C39.7017 53.8562 41.1155 54.0113 42.1131 55.1405C42.6547 55.7537 42.9401 56.586 43.4379 57.185C44.1576 58.0518 44.7073 57.3098 45.5822 57.4993V57.5ZM30.7581 55.2093C30.636 54.4242 30.6036 53.7119 29.6134 54.1321L30.7581 55.2093ZM42.8861 56.7594C42.0112 54.8606 40.6312 53.8636 38.4787 54.406C36.4464 54.9186 36.0437 56.6258 36.3519 58.5111L36.6548 57.0292C37.0818 55.0252 38.818 53.9668 40.7452 54.8923C41.5971 55.301 41.6099 55.6983 42.1502 56.2494C42.3121 56.414 42.6972 56.588 42.8861 56.7594ZM28.5355 62.2844C28.7055 59.8723 28.6893 57.4575 28.607 55.0373C28.5719 54.7749 28.261 54.5678 28.0654 54.4006L28.1348 59.7604L27.9918 61.9162C27.9109 62.1253 28.4782 62.3458 28.5362 62.2844H28.5355ZM45.0433 54.4012C44.8072 54.3 44.0254 54.7938 44.1293 55.009L44.4389 55.1803L45.0433 54.4019V54.4012ZM54.2728 56.2198L54.6101 54.468C54.4286 54.5968 54.1676 54.8161 54.14 55.0474L54.2728 56.2198ZM35.3408 58.2076C35.2983 57.6585 35.3408 57.017 35.3408 56.4558C35.3408 56.4113 34.9665 55.7746 34.897 55.6869C34.4781 55.1567 33.8225 55.0542 33.353 54.6029L33.3307 55.1985C34.1476 55.5027 34.6238 56.1739 34.8889 56.9759C35.0413 57.4359 35.0353 58.0268 35.3752 58.3762C35.4859 58.3243 35.3422 58.2245 35.3415 58.2083L35.3408 58.2076ZM46.2561 58.4444C46.8436 58.5921 47.309 58.0019 47.7879 57.9209C48.1758 57.8548 48.9427 58.012 49.1761 57.896C50.0665 57.4541 50.998 55.701 51.174 54.7378C50.4132 55.4043 50.312 56.5058 49.5505 57.1904C48.851 57.8191 48.2911 57.3961 47.5336 57.5992C47.1883 57.6916 46.7303 58.0835 46.4854 58.1071C46.0881 58.1455 45.8311 57.6747 45.4055 57.639C45.0318 57.6073 44.6122 57.8386 44.2345 57.8386C44.6318 58.4005 45.0055 58.0228 45.481 58.0349C45.7771 58.0423 45.9748 58.2157 46.2554 58.2433C46.2702 58.3385 46.0699 58.3729 46.0153 58.3729C45.7529 58.3708 45.4486 58.2218 45.1782 58.3438C45.9464 58.7492 46.8807 58.8201 47.713 58.5887L48.8159 58.1091C48.5434 58.1084 48.2756 58.0916 48.0038 58.1388C47.485 58.2278 47.2341 58.5988 46.6358 58.5739C46.5758 58.5712 46.2581 58.5368 46.2554 58.4464L46.2561 58.4444ZM41.674 55.9499C40.5057 54.4282 38.0902 54.3702 37.1944 56.2211C36.2474 58.1779 36.7047 59.8096 37.0137 61.7907C37.0973 62.3276 37.1459 62.876 37.1708 63.419L37.3604 63.4986C37.5823 62.2008 37.1391 60.9084 37.0251 59.6234C36.9057 58.2784 36.9132 56.4734 38.1084 55.587C39.3354 54.6778 40.4605 55.5803 41.6733 55.9513L41.674 55.9499ZM29.3382 62.4814C29.4664 62.3917 29.405 60.6669 29.409 60.3614C29.4266 58.9442 29.467 57.4764 29.3436 56.0525C29.3058 55.6214 29.2498 55.3118 28.806 55.1419L28.8013 62.3809L29.3382 62.4821V62.4814ZM34.8687 58.039C34.6771 56.9732 34.3655 55.8589 33.2545 55.4393L32.7803 55.6822L32.8221 55.8204C33.2147 55.985 33.6734 56.3142 33.9257 56.6582C34.2791 57.1418 34.2144 57.8737 34.8687 58.039ZM40.192 55.6801C39.591 55.1985 38.7445 55.4137 38.1765 55.8548C37.7813 56.1624 37.5809 56.5246 37.4285 56.9934C36.7459 59.0946 37.8177 61.417 37.6322 63.5647C37.8494 63.591 37.8818 63.5303 37.9047 63.3327C38.1104 61.5519 36.9557 57.7597 38.1421 56.3601C38.6791 55.7267 39.4399 55.7543 40.192 55.6801ZM30.0707 56.1665C30.0545 56.1395 29.5777 55.7813 29.5466 55.8157C29.7928 58.0464 29.6741 60.3195 29.6134 62.5543L30.1099 62.5448C30.1969 62.5219 30.2063 62.4625 30.2205 62.3856C30.3115 61.8898 30.1611 61.328 30.1503 60.8383C30.1227 59.5938 30.2205 58.2926 30.1557 57.0589C30.149 56.93 30.0937 56.2042 30.0707 56.1658V56.1665ZM39.4507 55.9513C38.5516 56.0943 37.9924 56.6993 37.9094 57.61C37.8238 58.5536 38.3593 59.4427 38.4389 60.3661C38.53 61.4285 38.3337 62.5037 38.3728 63.5654C38.4592 63.6794 38.4949 63.5573 38.5064 63.4649C38.5421 63.1822 38.5435 62.8908 38.5941 62.6082C38.785 61.5323 39.1297 60.8254 38.8248 59.7104C38.5921 58.8599 37.7287 57.7543 38.5738 56.9617C38.0356 58.2379 39.1195 59.2194 39.1796 60.4335C39.2295 61.4467 38.6406 62.5232 38.7769 63.5661L38.9617 63.4811C39.0177 62.188 39.8872 60.7809 39.4157 59.5236C39.2018 58.9543 38.6615 58.441 38.5806 57.7988C38.4902 57.0818 38.8848 56.3628 39.4507 55.952V55.9513ZM30.4896 62.4875C31.1716 62.4423 30.9092 62.2001 30.8943 61.7786C30.8748 61.2207 30.8363 60.6467 30.8235 60.0976C30.7986 59.0197 30.8478 57.9378 30.8269 56.8599L30.3891 56.4889L30.4896 62.4875ZM51.9821 59.7914C51.6165 59.9108 51.6064 60.3216 51.431 60.6211C50.3916 62.393 48.683 62.8011 46.8166 62.0275C46.4018 61.8554 45.6112 61.2565 45.2739 61.2092C44.9104 61.1587 44.5697 61.4298 44.194 61.4683C42.9866 61.5924 42.0349 60.5253 41.6935 59.469C41.5175 58.9246 41.475 57.8083 41.1715 57.4305C40.9158 57.1122 39.5175 56.4147 39.3172 56.9287C39.2612 57.0717 39.4123 57.0197 39.4858 57.0272C41.2989 57.2025 40.959 58.6966 41.5748 59.9931C42.0794 61.0541 43.3954 62.3897 44.6804 61.7536C44.9279 61.6308 44.7309 61.3286 45.2436 61.5135C45.9107 61.7536 46.4375 62.4767 47.3859 62.6048C49.3231 62.8666 51.8081 62.0207 51.9828 59.7921L51.9821 59.7914ZM31.6269 62.1414C31.5243 60.9462 31.4704 59.7448 31.4974 58.5422C31.5109 57.9432 31.8407 57.3368 31.0967 57.0285L31.1635 62.2844L31.6269 62.1414ZM42.3478 61.5431C41.8291 60.8835 41.3947 60.3155 41.1155 59.5081C40.8369 58.7013 40.8902 57.7165 39.9688 57.353C39.5627 57.1924 38.9489 57.0825 39.2464 57.7415C40.4396 57.5243 40.4969 58.6723 40.8146 59.4723C40.9334 59.7712 41.0527 60.0733 41.2153 60.3526C41.3091 60.5131 42.1752 61.7023 42.3478 61.5445V61.5431ZM32.2272 57.7833L31.838 57.5675V61.9472C32.5456 61.6969 32.1746 60.4841 32.1712 59.8953C32.1692 59.562 32.3021 57.9108 32.2279 57.7826L32.2272 57.7833ZM40.3256 59.0501C40.3081 58.4491 40.0524 57.9486 39.3833 57.9722C39.243 58.1105 40.1313 58.9833 40.3256 59.0501ZM50.7026 58.7816C50.3066 58.8848 50.1886 59.3435 49.9599 59.6214C49.3171 60.4025 48.5022 60.6885 47.4999 60.6028C47.1147 60.5698 46.7687 60.3378 46.391 60.4315C48.0813 61.6065 50.2911 60.8362 50.7026 58.7816ZM38.1698 63.5647C38.1098 62.2049 38.4491 60.8187 38.0309 59.4932L37.8346 58.9159C37.7415 59.9944 38.0322 61.0507 38.103 62.1172C38.1293 62.5185 38.0875 62.9279 38.103 63.33C38.1064 63.4123 38.0524 63.5809 38.1698 63.5647ZM44.2338 59.7921L42.8875 58.9152C43.0021 59.3799 43.564 59.7556 44.0146 59.8427C44.0841 59.8561 44.25 59.9121 44.2338 59.7921ZM52.0509 60.87C52.2904 60.7411 53.3406 59.1432 53.2624 59.0508L52.3828 59.6868L52.0509 60.87ZM49.7596 59.4555L48.6317 59.9782L47.4014 60.3303C48.2796 60.5394 49.226 60.1786 49.7596 59.4555ZM45.9856 62.4207C45.4513 62.1866 45.3043 61.8447 44.7067 62.2183L45.7704 62.4679L45.9862 62.4207H45.9856Z" fill="#F7F3CF"/>
<path d="M20.5622 55.8386C21.232 56.5084 20.4563 57.7159 19.5127 57.1917C18.426 56.588 19.6685 54.9449 20.5622 55.8386Z" fill="#F7F3CF"/>
<path d="M61.7995 51.5176C63.1431 51.2073 63.2733 53.2599 61.9904 53.1905C61.0123 53.1372 60.9887 51.7045 61.7995 51.5176Z" fill="#F7F3CF"/>
<path d="M58.0286 18.5655C59.1652 18.3322 59.4654 20.034 58.4009 20.2195C57.2623 20.4178 56.9871 18.7794 58.0286 18.5655Z" fill="#F7F3CF"/>
<path d="M13.5613 34.7393C14.7201 34.6766 14.7997 36.6186 13.4129 36.4041C12.4834 36.2604 12.5744 34.7926 13.5613 34.7393Z" fill="#F7F3CF"/>
<path d="M40.6459 66.3437C41.9848 66.1103 41.972 68.2331 40.6607 67.9842C39.7467 67.8108 39.8142 66.4888 40.6459 66.3437Z" fill="#F7F3CF"/>
<path d="M21.5099 15.8715C22.8677 15.6205 22.9041 17.5895 21.6286 17.4755C20.6822 17.3905 20.6863 16.0239 21.5099 15.8715Z" fill="#F7F3CF"/>
<path d="M61.4652 42.3534C62.5843 42.1234 62.8143 43.8496 61.7107 43.9521C60.732 44.0438 60.5296 42.5457 61.4652 42.3534Z" fill="#F7F3CF"/>
<path d="M67.0572 42.9599C68.2295 42.7197 68.386 44.5659 67.1746 44.4991C66.2727 44.4499 66.2343 43.1285 67.0572 42.9599Z" fill="#F7F3CF"/>
<path d="M35.4572 7.91877C36.4865 7.70697 36.7151 9.22466 35.8969 9.43646C34.759 9.73056 34.4676 8.12248 35.4572 7.91877Z" fill="#F7F3CF"/>
<path d="M13.4871 29.0187C14.2028 29.7344 13.1209 30.8197 12.3971 30.1431C11.6403 29.4355 12.7526 28.2841 13.4871 29.0187Z" fill="#F7F3CF"/>
<path d="M57.9594 26.4494C59.2268 26.16 59.3779 27.99 58.1455 27.9219C57.2558 27.8727 57.2612 26.6086 57.9594 26.4494Z" fill="#F7F3CF"/>
<path d="M54.1161 14.9345C54.9195 15.7008 53.5529 16.8556 52.9256 15.889C52.4386 15.1382 53.4666 14.3146 54.1161 14.9345Z" fill="#F7F3CF"/>
<path d="M8.97603 31.7728C10.379 31.4524 10.2711 33.6277 8.92476 33.2109C8.27654 33.0099 8.34939 31.9164 8.97603 31.7728Z" fill="#F7F3CF"/>
<path d="M16.6535 17.4283C17.5958 17.3945 17.6795 18.8185 16.841 18.9513C15.7085 19.1301 15.6235 17.4654 16.6535 17.4283Z" fill="#F7F3CF"/>
<path d="M26.3592 65.332C27.4836 65.0716 27.6239 66.563 26.8523 66.7674C25.7103 67.0702 25.5133 65.5269 26.3592 65.332Z" fill="#F7F3CF"/>
<path d="M18.182 35.509C17.5203 34.8055 18.6529 33.7505 19.3065 34.4851C19.9614 35.2217 18.8451 36.2139 18.182 35.509Z" fill="#F7F3CF"/>
<path d="M62.7385 19.9874C63.9837 19.9159 63.5931 21.9908 62.4464 21.3945C61.72 21.0168 62.0228 20.0293 62.7385 19.9874Z" fill="#F7F3CF"/>
<path d="M23.6393 21.0667C24.2882 20.4164 25.3095 21.323 24.7314 22.0582C24.1122 22.8461 22.9196 21.7877 23.6393 21.0667Z" fill="#F7F3CF"/>
<path d="M43.8814 9.66781C44.7684 9.55584 45.022 11.0695 43.9981 11.1423C43.047 11.2098 42.9485 9.78518 43.8814 9.66781Z" fill="#F7F3CF"/>
<path d="M35.7272 67.4891C36.7741 67.2766 36.9353 68.8516 35.9647 68.942C35.1094 69.0216 34.8268 67.6719 35.7272 67.4891Z" fill="#F7F3CF"/>
<path d="M58.7628 47.5487C59.7159 47.4927 59.7955 48.9902 58.8181 49.0131C57.8717 49.0353 57.8764 47.6006 58.7628 47.5487Z" fill="#F7F3CF"/>
<path d="M11.7408 39.4557C12.785 39.2439 12.8889 40.6564 12.1799 40.8385C11.0899 41.1191 10.8842 39.6297 11.7408 39.4557Z" fill="#F7F3CF"/>
<path d="M56.008 61.7597C56.9766 61.5721 57.1581 62.9684 56.3817 63.1458C55.3146 63.39 55.1096 61.9337 56.008 61.7597Z" fill="#F7F3CF"/>
<path d="M18.5471 60.0059C19.5123 59.8372 19.7066 61.3968 18.7231 61.4541C17.8193 61.5074 17.6958 60.1549 18.5471 60.0059Z" fill="#F7F3CF"/>
<path d="M57.8777 56.6589C58.8585 56.6589 58.7681 58.1415 57.8163 58.103C56.9732 58.0686 56.9179 56.6589 57.8777 56.6589Z" fill="#F7F3CF"/>
<path d="M19.1926 24.2558C18.5208 23.5854 19.5609 22.5756 20.2071 23.2751C20.8358 23.9557 19.8159 24.8778 19.1926 24.2558Z" fill="#F7F3CF"/>
<path d="M51.8687 11.1592C52.5304 10.5744 53.5051 11.5706 52.8265 12.2182C52.1547 12.859 51.1793 11.7683 51.8687 11.1592Z" fill="#F7F3CF"/>
<path d="M14.6365 55.3577C15.5829 55.1425 15.8298 56.4916 15.0123 56.6778C14.0659 56.8929 13.819 55.5439 14.6365 55.3577Z" fill="#F7F3CF"/>
<path d="M31.1457 9.13087C31.8991 9.05937 32.1379 10.3423 31.3264 10.4617C30.3753 10.6013 30.1737 9.22328 31.1457 9.13087Z" fill="#F7F3CF"/>
<path d="M63.0841 46.7311C63.9522 46.6064 64.0318 47.8401 63.3883 47.9844C62.4439 48.1955 62.2497 46.8512 63.0841 46.7311Z" fill="#F7F3CF"/>
<path d="M23.3902 11.9686C24.1841 11.9133 24.3109 13.1187 23.5784 13.2246C22.6023 13.3663 22.6293 12.0213 23.3902 11.9686Z" fill="#F7F3CF"/>
<path d="M16.4961 39.6209C15.9032 39.0793 16.8098 38.081 17.3885 38.7623C17.9012 39.3653 17.0418 40.1194 16.4961 39.6209Z" fill="#F7F3CF"/>
<path d="M22.7612 62.4673C22.3416 61.9458 23.143 61.1189 23.6178 61.7779C24.0887 62.4315 23.1221 62.9158 22.7612 62.4673Z" fill="#F7F3CF"/>
<path d="M65.9095 50.1018C66.7277 49.8576 66.9746 50.9679 66.2656 51.1372C65.6114 51.2937 65.3483 50.2697 65.9095 50.1018Z" fill="#F7F3CF"/>
<path d="M62.472 57.1419C61.9216 57.6457 61.1526 56.7061 61.7826 56.2852C62.3526 55.9041 62.9475 56.7068 62.472 57.1419Z" fill="#F7F3CF"/>
<path d="M21.547 51.2525C22.067 50.7318 22.8522 51.5554 22.3045 52.0437C21.7567 52.5321 21.0964 51.7038 21.547 51.2525Z" fill="#F7F3CF"/>
<path d="M68.4045 38.9133C69.108 38.7697 69.2894 39.7936 68.7107 39.967C67.9775 40.1862 67.7495 39.0476 68.4045 38.9133Z" fill="#F7F3CF"/>
<path d="M65.5752 25.5705C66.3104 25.4181 66.4264 26.5688 65.7553 26.6369C65.0841 26.7051 64.958 25.6987 65.5752 25.5705Z" fill="#F7F3CF"/>
<path d="M61.5317 24.2242C62.3735 24.0393 62.47 25.2582 61.6524 25.2258C61.0622 25.2029 61.0474 24.3301 61.5317 24.2242Z" fill="#F7F3CF"/>
<path d="M55.9389 22.6087C56.8037 22.4104 56.8259 23.6259 56.1339 23.6023C55.5315 23.582 55.4324 22.7254 55.9389 22.6087Z" fill="#F7F3CF"/>
<path d="M58.1625 39.9933C58.8627 39.8368 59.0388 40.8465 58.4013 40.9788C57.7275 41.1184 57.5386 40.1329 58.1625 39.9933Z" fill="#F7F3CF"/>
<path d="M49.3344 67.5222C48.8892 68.0456 48.1054 67.2072 48.616 66.7687C49.0996 66.3532 49.7337 67.0534 49.3344 67.5222Z" fill="#F7F3CF"/>
<path d="M57.5267 15.7014C57.1814 15.3554 57.5038 14.6897 58.067 14.8583C58.8029 15.0789 58.1358 16.3119 57.5267 15.7014Z" fill="#F7F3CF"/>
<path d="M41.1683 7.66379C41.8368 7.66177 41.7808 8.56631 41.2992 8.64523C40.5579 8.76732 40.5403 7.66581 41.1683 7.66379Z" fill="#F7F3CF"/>
<path d="M33.3678 11.8256C34.1536 11.6482 34.2568 12.9204 33.3556 12.7545C32.9233 12.6749 32.9334 11.9234 33.3678 11.8256Z" fill="#F7F3CF"/>
<path d="M47.7855 9.46749C48.5363 9.24827 48.6941 10.2007 48.1437 10.3687C47.544 10.5515 47.2924 9.61117 47.7855 9.46749Z" fill="#F7F3CF"/>
<path d="M8.90508 42.6948C9.51485 42.661 9.52295 43.5373 9.02582 43.6189C8.31419 43.7356 8.25146 42.7312 8.90508 42.6948Z" fill="#F7F3CF"/>
<path d="M28.855 12.9406C28.403 13.4269 27.715 12.6465 28.1926 12.2438C28.6695 11.8425 29.2327 12.5332 28.855 12.9406Z" fill="#F7F3CF"/>
<path d="M33.57 64.4517C34.0948 64.3687 34.2958 65.3225 33.6833 65.3839C33.0425 65.448 33.0263 64.5374 33.57 64.4517Z" fill="#F7F3CF"/>
<path d="M53.349 19.0411C53.7328 18.6573 54.4255 19.1969 54.0053 19.6637C53.5662 20.152 52.9415 19.4485 53.349 19.0411Z" fill="#F7F3CF"/>
<path d="M30.8058 66.7458C31.6375 66.4908 31.6375 67.85 30.8058 67.595C30.4834 67.4958 30.4807 66.8449 30.8058 66.7458Z" fill="#F7F3CF"/>
<path d="M8.23726 38.2381C8.95496 38.1086 8.85311 39.4192 8.06863 39.0536C7.6855 38.8749 7.86964 38.3049 8.23726 38.2381Z" fill="#F7F3CF"/>
<path d="M52.4971 64.7283C52.9962 64.6756 53.1635 65.4453 52.7446 65.5741C51.9966 65.8034 51.9595 64.7856 52.4971 64.7283Z" fill="#F7F3CF"/>
<path d="M44.6203 67.9592C45.284 67.8102 45.3784 68.714 44.7828 68.7875C44.2965 68.8476 44.0935 68.0773 44.6203 67.9592Z" fill="#F7F3CF"/>
<path d="M20.5673 19.9105C20.9383 19.8323 21.2756 20.2174 21.0213 20.5709C20.5484 21.2265 19.8375 20.0643 20.5673 19.9105Z" fill="#F7F3CF"/>
<path d="M63.8226 39.9238C64.4486 39.743 64.5814 40.7076 64.0007 40.7717C63.4786 40.829 63.3545 40.0587 63.8226 39.9238Z" fill="#F7F3CF"/>
<path d="M50.684 17.2144C51.2871 17.0424 51.4328 17.9294 50.9235 18.069C50.4142 18.2087 50.2004 17.3527 50.684 17.2144Z" fill="#F7F3CF"/>
<path d="M38.6242 10.4091C39.0283 10.3241 39.3176 10.776 39.0485 11.1066C38.579 11.6826 37.9099 10.5595 38.6242 10.4091Z" fill="#F7F3CF"/>
<path d="M23.7332 56.3688C24.5102 56.1948 24.4387 57.3914 23.663 57.1506C23.373 57.0609 23.3352 56.4578 23.7332 56.3688Z" fill="#F7F3CF"/>
<path d="M26.497 9.86949C27.2633 9.71232 27.2053 10.8948 26.4262 10.6533C26.1334 10.5622 26.1024 9.9511 26.497 9.86949Z" fill="#F7F3CF"/>
<path d="M49.2414 13.516C49.6063 13.0715 50.3395 13.6314 49.8977 14.0732C49.5578 14.4125 48.9041 13.9262 49.2414 13.516Z" fill="#F7F3CF"/>
<path d="M45.6311 65.3347C45.9171 65.6362 45.5326 66.2763 45.0719 65.995C44.5526 65.678 45.1799 64.8591 45.6311 65.3347Z" fill="#F7F3CF"/>
<path d="M19.0172 41.6762C19.6128 41.5515 19.6938 42.452 19.1885 42.5295C18.7339 42.5997 18.4661 41.7923 19.0172 41.6762Z" fill="#F7F3CF"/>
<path d="M14.3006 41.8772C14.6305 41.8273 14.9381 42.2644 14.6568 42.5754C14.1205 43.1683 13.5877 41.9852 14.3006 41.8772Z" fill="#F7F3CF"/>
<path d="M57.7601 30.421C58.293 30.3266 58.3773 31.0895 58.0003 31.2062C57.3001 31.422 57.2279 30.5155 57.7601 30.421Z" fill="#F7F3CF"/>
<path d="M16.0519 31.5023C16.7979 31.2804 16.7689 32.4784 16.0694 32.2693C15.6856 32.1546 15.7207 31.6008 16.0519 31.5023Z" fill="#F7F3CF"/>
<path d="M59.7808 60.0045C60.3002 59.9101 60.4493 60.6615 60.0196 60.789C59.4132 60.9691 59.2702 60.0976 59.7808 60.0045Z" fill="#F7F3CF"/>
<path d="M62.2738 27.928C62.9383 27.8066 62.9005 28.9189 62.205 28.7125C61.8361 28.6025 61.888 27.9988 62.2738 27.928Z" fill="#F7F3CF"/>
<path d="M19.3549 14.1137C20.0807 13.9781 19.9552 15.1949 19.2531 14.8617C18.9239 14.7059 19.0163 14.1771 19.3549 14.1137Z" fill="#F7F3CF"/>
<path d="M17.5991 52.864C18.2682 52.6576 18.3566 53.5479 17.8399 53.6498C17.3819 53.7395 17.2085 52.9847 17.5991 52.864Z" fill="#F7F3CF"/>
<path d="M58.1655 44.2408C58.5264 44.6017 57.9233 45.3005 57.5706 44.8027C57.2387 44.3346 57.8491 43.9245 58.1655 44.2408Z" fill="#F7F3CF"/>
<path d="M9.58302 35.5461C10.1813 35.3687 10.3149 36.1768 9.80696 36.3124C9.33412 36.4385 9.13513 35.679 9.58302 35.5461Z" fill="#F7F3CF"/>
<path d="M25.4871 15.9065C25.1768 16.2175 24.5745 15.7864 24.8922 15.3453C25.2294 14.8772 25.8554 15.5375 25.4871 15.9065Z" fill="#F7F3CF"/>
<path d="M9.58281 27.3917C9.97809 27.2744 10.283 27.644 10.0381 27.9826C9.61519 28.5661 8.97034 27.5739 9.58281 27.3917Z" fill="#F7F3CF"/>
<path d="M67.459 47.0677C67.9811 46.9065 68.23 47.5757 67.8152 47.7612C67.2364 48.0202 67.0246 47.202 67.459 47.0677Z" fill="#F7F3CF"/>
<path d="M58.7704 53.5743C58.4203 53.9061 57.8666 53.3523 58.1991 53.0029C58.5741 52.6083 59.165 53.1999 58.7704 53.5743Z" fill="#F7F3CF"/>
<path d="M38.3045 42.9444C38.1764 42.8749 38.1109 42.6078 38.0684 42.4735C37.7764 41.5447 37.8661 39.9778 36.6391 39.7255C35.2786 39.4456 34.6007 40.85 34.7511 42.0176C34.8179 42.5363 35.2071 43.1015 35.2529 43.5278C35.259 43.5838 35.2368 43.7693 35.1389 43.7525C35.1025 43.4132 34.8685 43.14 34.7497 42.827C34.3437 41.7525 34.3612 40.2436 35.5396 39.6736C36.0077 39.4469 36.3673 39.3957 36.8583 39.5724C38.1959 40.0547 38.086 41.7761 38.3038 42.9437L38.3045 42.9444Z" fill="#F7F3CF"/>
<path d="M34.3297 38.4304C33.9702 39.1515 33.1054 39.3235 32.3594 39.2209C31.6694 39.1258 31.1554 38.6118 30.4174 38.9983C29.7206 39.3633 29.8724 40.2226 30.0168 40.8553C29.3564 40.2246 29.7119 38.9403 30.5753 38.684C31.6316 38.371 32.3533 39.4698 33.67 38.8142C33.7907 38.7542 34.2562 38.3616 34.3297 38.4304Z" fill="#F7F3CF"/>
<path d="M51.982 50.0202L51.4633 47.8785C51.0903 45.9683 51.3041 44.0958 51.6468 42.2044C51.7702 42.2246 51.719 42.5491 51.7129 42.6415C51.6144 44.1261 51.3662 45.3545 51.5126 46.8863C51.6124 47.9366 51.9227 48.9639 51.9827 50.0202H51.982Z" fill="#F7F3CF"/>
<path d="M44.0319 26.9074L42.6187 28.3577L41.6069 29.8045C41.9031 28.7874 42.645 27.8403 43.4983 27.2164C43.6501 27.1058 43.8484 26.9499 44.0312 26.9081L44.0319 26.9074Z" fill="#F7F3CF"/>
<path d="M34.3539 53.2309C33.8938 52.783 33.7347 52.0997 33.4406 51.5493L32.8477 50.7615C34.0024 51.2208 33.7731 52.8781 34.9839 53.3753C36.7242 54.0896 38.0409 51.5959 36.9198 50.1584C36.8881 50.118 36.3525 49.7085 36.7768 49.8299C37.3528 49.9945 37.5943 51.0859 37.566 51.6067C37.4803 53.1952 35.6355 54.4795 34.3539 53.2309Z" fill="#F7F3CF"/>
<path d="M44.234 24.8858C43.9035 25.2184 42.9106 25.3182 42.6172 24.8858C43.1717 24.9843 43.6796 24.9499 44.234 24.8858Z" fill="#F7F3CF"/>
<path d="M30.2049 16.2101C30.499 16.206 31.4083 16.2795 31.6316 16.4313C31.6882 16.4698 31.7408 16.5069 31.7611 16.5763C31.8211 16.8286 31.6451 16.8974 31.4515 16.9858C30.7149 17.3217 29.3813 17.4337 28.6002 17.2401C28.3675 17.1821 27.9203 17.0681 28.1267 16.7618C28.3662 16.4063 29.78 16.2168 30.2049 16.2107V16.2101Z" fill="#F7F3CF"/>
<path d="M17.1939 27.2541C17.8017 27.043 17.884 27.9759 17.3201 27.9192C16.9875 27.8855 16.9133 27.3519 17.1939 27.2541Z" fill="#F7F3CF"/>
<path d="M52.4318 23.8835C52.9087 23.727 53.107 24.6613 53.1232 24.9972C53.134 25.2245 53.0288 26.0784 52.7556 26.1027C52.102 26.1614 52.019 24.0184 52.4318 23.8835Z" fill="#F7F3CF"/>
</svg>
