<svg width="77" height="77" viewBox="0 0 77 77" fill="none" xmlns="http://www.w3.org/2000/svg">
<circle cx="38.5" cy="38.5" r="38.5" fill="#4B5A2A"/>
<g clip-path="url(#clip0_447_2150)">
<path d="M72.9999 37.6399V39.4726C72.9412 39.4726 72.9675 40.0545 72.954 40.255L72.927 40.66L72.7481 42.5689C72.5011 45.2096 71.6542 48.3458 70.7147 50.8461C69.506 54.0646 67.7992 57.0704 65.6706 59.7732C63.7795 62.1743 61.5902 64.3593 59.1235 66.1758C56.6568 67.9923 53.8324 69.5462 50.904 70.6674C50.2008 70.9367 49.538 71.1757 48.8227 71.3991C46.2176 72.2118 43.323 72.7849 40.5944 72.9267L40.0174 72.9564C39.8257 72.9665 39.6367 72.9665 39.4424 72.9665H39.2622L39.2271 73.0023H37.4663C37.4663 73.0023 37.4015 72.9672 37.3826 72.9672L36.786 72.9611L36.1685 72.9253C34.6021 72.8349 33.0741 72.6479 31.5381 72.3178C30.5068 72.0964 29.5161 71.8561 28.5051 71.5463C26.1632 70.828 23.9233 69.8641 21.7825 68.6801C20.8181 68.1469 19.9144 67.5792 19.0033 66.9595C15.8631 64.8237 13.2695 62.3106 10.9836 59.2811C10.4154 58.5285 9.89302 57.7805 9.3936 56.9813C8.42243 55.4261 7.5579 53.8323 6.83307 52.1455C6.19665 50.6651 5.62839 49.1862 5.23966 47.6289L4.94338 46.4409C4.48378 44.5974 4.22057 42.7384 4.09504 40.8409C4.0694 40.4534 4.08559 40.1065 4.05252 39.7224L4.02485 39.3984C3.97221 38.7787 4.01676 38.1665 4.03498 37.5522L4.0559 36.8441C4.11259 34.9129 4.40684 33.0079 4.8192 31.1159C6.04075 25.5031 8.63705 20.2797 12.3861 15.9346C13.2722 14.9072 14.1698 13.9116 15.1956 13.0293L16.7033 11.7326C17.1008 11.3904 17.5058 11.1096 17.9289 10.7937C19.7653 9.4227 21.7164 8.26841 23.787 7.27613C26.8901 5.78906 30.4623 4.7529 33.8732 4.32292C35.1028 4.16766 36.2879 4.06236 37.5162 4.02118C38.0568 4.00296 38.5778 3.98946 39.1171 4.01713L39.52 4.03806C40.8495 4.10691 42.1439 4.21086 43.4708 4.39447C46.3674 4.79611 49.1601 5.57373 51.8522 6.71722C53.4058 7.37739 54.8967 8.10843 56.3409 8.98259C57.2851 9.55433 58.1786 10.1342 59.0553 10.8018C59.741 11.3242 60.4078 11.8292 61.0645 12.3935C64.4045 15.263 67.1938 18.7623 69.2003 22.6896C70.0702 24.3926 70.5595 25.5841 71.1797 27.3951C71.7878 29.1691 72.2251 30.9586 72.5167 32.8156C72.7117 34.0563 72.8649 35.2726 72.9324 36.5228L72.956 36.9622C72.9688 37.1978 72.9398 37.4334 73.0019 37.6413L72.9999 37.6399ZM39.2581 40.9226L41.2382 40.3987L46.4484 38.9994C46.4025 38.5688 46.5334 38.1773 46.7946 37.8418C47.047 37.5279 47.3764 37.3051 47.7422 37.1303L49.0319 36.5302L49.0285 33.3056L45.9098 33.3009C45.484 33.3002 45.2181 32.8804 45.2383 32.501L45.2498 29.6659C45.2822 29.2163 45.6298 28.9497 46.0583 28.9497L49.0258 28.9524L49.0305 25.9263C49.0305 25.549 49.3302 25.2614 49.6811 25.2047H52.7336C53.0805 25.2702 53.3822 25.555 53.3829 25.9283L53.3863 28.9605L56.291 28.9423C56.7378 28.9396 57.1305 29.1907 57.1683 29.6639L57.1629 32.4639L57.1467 32.7629L60.4638 30.9775C60.1858 29.1583 59.6175 27.4228 58.5174 25.9222C56.9942 23.8047 54.763 22.5492 52.1613 22.3075C51.3103 22.2285 50.5058 22.2488 49.6669 22.3905C48.1329 22.6491 47.8731 22.9015 46.5422 23.3227C45.7067 23.5873 44.8584 23.5273 44.0532 23.1837C43.3891 22.9002 42.8533 22.4479 42.3923 21.8944C41.9719 21.3902 41.6236 20.8738 41.3537 20.2683C41.0688 19.6283 40.8245 18.9925 40.6619 18.3033C40.3238 16.8695 40.2009 15.4351 40.2178 13.9575L40.2131 8.71393L40.2063 5.92609C38.8559 5.85184 37.5108 5.84171 36.1401 5.96187L36.1334 13.8461C36.132 15.8442 36.1968 17.1962 36.6335 19.143C37.0809 21.1384 38.069 23.185 39.4822 24.6681L40.6713 25.9168C41.7458 27.0448 42.3707 28.4671 42.5901 30.0156C42.8573 31.9043 42.698 33.8382 42.0501 35.6331C41.7059 36.5869 41.2146 37.4435 40.5208 38.1746C39.4889 39.262 38.0366 39.7636 36.5511 39.4989C35.914 39.3855 35.3181 39.1918 34.7546 38.884C33.5492 38.2252 32.7731 37.4179 31.9099 36.3695C31.5367 35.9159 31.15 35.5136 30.6857 35.1505C29.1085 33.9179 27.1101 33.6364 25.1995 34.1845C24.3552 34.4268 23.5966 34.8224 22.9157 35.3827C20.1777 37.6359 19.4225 41.2891 19.7039 44.6716L21.0105 44.3132C21.3736 44.2133 21.7333 44.2882 22.0066 44.5866L24.7143 43.8407C24.6933 42.6459 24.8182 41.5031 25.2616 40.4271C25.4695 39.9674 25.7495 39.5637 26.1585 39.264C26.9265 38.7017 27.974 38.8172 28.6219 39.5185C28.9978 39.9256 29.2333 40.4028 29.4554 40.9145L30.0979 42.6391L31.3876 42.5055C30.9509 42.8329 30.5149 42.9942 30.0682 43.2905C30.5197 43.25 30.8935 43.1279 31.3127 43.0172L35.827 41.8251L36.7482 41.5881L39.2574 40.9232L39.2581 40.9226ZM61.3648 30.4699L61.9121 30.1371L64.9242 28.297L67.8734 26.4083C68.1414 26.2368 68.3715 26.0748 68.6664 25.906C68.1029 24.5675 67.4908 23.2633 66.741 22.0166C66.255 21.2092 65.7765 20.4404 65.2292 19.6756C63.8754 17.7835 62.3515 16.0453 60.6433 14.4685C58.6504 12.6297 56.2458 10.9395 53.8526 9.68596C52.056 8.74498 50.1961 7.97343 48.2645 7.36591C47.1098 7.03583 45.9949 6.72937 44.8172 6.50458C43.6395 6.2798 42.4058 6.1178 41.1701 6.00372L41.1762 14.4928C41.1762 15.4371 41.2889 16.3349 41.4306 17.2577C41.5419 17.984 41.7593 18.6556 42.0056 19.3388C42.3005 20.1576 42.7453 20.8623 43.325 21.509C43.9182 22.1705 44.7517 22.5728 45.652 22.5235C46.0273 22.5033 46.3843 22.3831 46.7339 22.2535C47.1699 22.0922 47.5728 21.9423 48.0189 21.806C49.4996 21.3544 51.012 21.2086 52.5575 21.3996C53.5381 21.5204 54.4735 21.7668 55.3698 22.1678C58.4884 23.5624 60.4422 26.3529 61.1778 29.6315L61.3661 30.4705L61.3648 30.4699ZM25.4816 33.1227C25.9216 33.0262 26.3448 32.9877 26.7976 32.9722C28.9431 32.8966 30.7093 33.6668 32.1704 35.2085C32.5018 35.5582 32.7778 35.9051 33.089 36.275C34.2099 37.6082 35.8877 38.7746 37.7099 38.5856C38.486 38.5053 39.1677 38.1334 39.7251 37.5994C41.6304 35.7742 42.0117 32.1952 41.5635 29.7206C41.328 28.4198 40.6551 27.2797 39.7467 26.3455L39.0341 25.6124C38.3652 24.9246 37.7923 24.1895 37.2976 23.3558C35.7656 20.7752 35.2729 18.1379 35.1777 15.1577L35.173 8.6795L35.1777 6.04827C31.3923 6.41616 27.7452 7.42126 24.3431 9.05481C20.9706 10.6742 17.91 12.8235 15.2881 15.4938C13.7156 17.0957 12.3024 18.8446 11.0768 20.7226C9.85117 22.6005 8.58171 25.1385 7.82786 27.2763C7.61392 27.8818 7.41752 28.4475 7.23733 29.0726C5.77147 34.1494 5.33414 40.5959 6.64545 45.6794L6.81755 46.3457L8.6438 45.7847L12.9287 44.54C13.2594 44.4442 13.5563 44.376 13.9019 44.3112L17.7393 44.6419C18.045 44.6683 18.2907 44.7256 18.4796 45.0078C18.5647 44.9997 18.6646 44.97 18.7435 44.9275C18.5309 42.2152 18.8312 39.4382 20.2458 37.0594C21.4498 35.035 23.1472 33.6357 25.4816 33.124V33.1227ZM52.4185 35.0229L52.4198 32.8966C52.4117 32.5597 52.6871 32.3086 53.0259 32.3511L56.1938 32.3444L56.1978 29.9022L52.9536 29.913C52.6317 29.9042 52.4063 29.6571 52.4191 29.3365V26.1511L49.9922 26.1538V29.238C50.0361 29.5525 49.8802 29.834 49.5691 29.9109H46.2102L46.2149 32.3471L49.3916 32.3444C49.5725 32.3268 49.7243 32.3795 49.8458 32.4956C49.9565 32.6016 49.9936 32.7514 49.9936 32.9283L49.9916 36.1394L52.4178 35.0229H52.4185ZM47.5613 39.2391C47.923 39.4193 48.2483 39.3444 48.5797 39.2613L50.2568 38.641L56.324 36.3729L58.5127 35.5413L59.6114 35.1336C59.7667 35.0755 59.8564 34.9912 59.9151 34.8305C60.0683 34.414 60.2229 34.0077 60.426 33.6168C60.6467 33.1929 60.9585 32.8864 61.3709 32.6468C62.4885 31.9961 63.5575 31.3217 64.6346 30.6008L67.4766 28.6993L69.261 27.4728L68.9829 26.7201L67.1979 27.921L66.3131 28.4819C64.7392 29.4796 63.16 30.4192 61.5511 31.3609L60.5259 31.961C59.6492 32.474 58.7773 32.935 57.8641 33.3873L55.3212 34.6469C55.0789 35.3874 54.9898 36.2939 54.1732 36.5687L53.2493 36.9636L51.8246 37.5569L49.0454 38.6984C48.5419 38.9049 48.0607 39.0818 47.5599 39.2384L47.5613 39.2391ZM64.2526 31.8827L66.0674 31.3751L70.1343 30.2809L69.5755 28.3165L68.7899 28.8728L65.5484 31.0531L64.2526 31.8827ZM60.8775 34.7164L62.068 34.3452L65.5754 33.2935L68.1373 32.5577L70.5062 31.8901L70.3563 31.1145L69.4817 31.367L65.8852 32.3228L61.6968 33.4481C61.3189 33.6377 61.0368 34.3573 60.8775 34.7171V34.7164ZM29.2461 44.8208L26.8186 45.5775L25.8994 45.8725C26.0829 46.5819 26.3036 47.2617 26.6255 47.9077C27.1526 48.9654 28.0239 49.8666 29.2758 49.9193L30.6978 49.9787C31.7338 50.0219 32.9641 50.6321 33.7105 51.3469C34.1506 51.7681 34.5029 52.2407 34.8275 52.7543C35.393 53.6487 36.2684 53.9687 37.3036 53.8189C38.1547 53.6953 38.9828 53.6116 39.8446 53.6487C40.8441 53.6919 41.8126 53.8634 42.7325 54.2583C43.5781 54.6208 44.3454 55.0805 45.0116 55.717C45.7735 56.4447 46.3742 57.3033 46.798 58.2699C47.5255 59.9305 47.8454 61.9569 47.8468 63.7673L47.8522 69.6542C47.8549 69.7122 47.863 69.746 47.8839 69.7379C47.921 69.7237 47.9655 69.7055 48 69.6947C50.354 68.9623 52.5055 68.0368 54.6584 66.8319C57.1616 65.4306 59.2551 63.8584 61.3115 61.8543L60.5016 60.0189C60.3592 59.6956 60.2033 59.404 60.0859 59.0685L59.4488 57.5902C59.114 56.8132 58.4095 57.0279 57.8722 55.7784L56.9449 53.6224L56.3598 52.3014L55.7679 50.9898C55.5911 50.5976 55.6114 50.2095 55.8024 49.8315C56.129 49.1855 56.8464 48.9094 57.5247 49.2004C57.9472 49.3819 58.2954 49.6999 58.5087 50.1278L59.716 52.5518L60.2735 53.7162C60.4726 54.1314 60.6406 54.5391 60.7641 54.9853C61.0523 55.2917 61.2575 55.6259 61.4384 56.0052L62.2152 57.6347L63.1991 59.7017L63.2288 59.7631C63.2349 59.7759 63.2788 59.7644 63.3071 59.732C64.7122 58.1444 66.2733 55.8824 67.2923 53.9545C68.9661 50.7907 70.1492 47.3609 70.7262 43.8171C71.2546 40.5722 71.3181 37.3058 70.8679 34.0569C70.8058 33.6067 70.762 33.1963 70.6668 32.7663L67.1796 33.766L61.6516 35.4029C61.5106 37.0857 61.1239 38.6781 60.557 40.2394C60.2249 41.1554 59.8719 42.0168 59.3948 42.8653C58.3264 44.943 56.8012 46.8898 55.0343 48.4268C52.8187 50.354 50.3142 51.6858 47.4601 52.4155C46.2196 52.7327 44.9974 52.8873 43.7185 52.9312C40.9528 53.0257 37.9569 52.3561 35.5739 50.9271C33.095 49.4413 31.1649 47.3427 29.9143 44.7371L30.7997 44.4165L31.2566 45.2306C31.9281 46.4267 32.7751 47.473 33.7854 48.4025C35.7919 50.2487 38.1041 51.3388 40.7955 51.781C43.6105 52.2427 46.497 51.8761 49.1601 50.871C51.5155 49.982 53.887 48.3478 55.6066 46.5192C56.5569 45.5093 57.3688 44.4293 58.0821 43.2453C58.3899 42.7343 58.645 42.2362 58.9102 41.6955C59.8335 39.8128 60.3855 37.7864 60.6656 35.7114L59.8929 36.0077L53.1926 38.4952L48.9354 40.0619C48.056 40.3852 47.1456 40.3306 46.6158 39.4605L35.6265 42.409L33.3582 43.0232L31.5381 43.5167C31.509 43.5248 31.4692 43.5963 31.4719 43.6193L32.1826 43.7847C31.7007 43.9959 30.9347 43.7226 30.4211 43.8306C30.6796 43.9217 30.9178 43.9959 31.1736 44.139C30.5251 44.4286 29.9204 44.6122 29.2468 44.8222L29.2461 44.8208ZM55.7632 33.44L56.0446 33.3097L53.3802 33.3137L53.3788 34.5976L55.7632 33.44ZM48.4535 38.0747L50.4512 37.2241L52.1276 36.5235C52.762 36.2588 53.3863 36.0158 53.997 35.6999C54.2096 35.5899 54.2636 35.2888 54.3574 35.087L53.0562 35.6986L51.5458 36.3878L47.977 37.9781C47.7098 38.0976 47.4884 38.2745 47.371 38.5431L48.4542 38.074L48.4535 38.0747ZM27.8235 42.9942L29.0929 42.658C28.7798 41.8122 28.5004 40.8098 27.9396 40.1686C27.596 39.8081 27.0851 39.7514 26.6964 40.0592C26.4615 40.2448 26.3009 40.4825 26.1673 40.7552C25.7772 41.6597 25.6908 42.5635 25.6746 43.5754L27.8235 42.9949V42.9942ZM28.2304 44.2882L29.564 43.8643C29.4371 43.7462 29.4223 43.6139 29.4608 43.4444L28.7454 43.6564C28.6475 43.6854 28.5699 43.7637 28.5146 43.8488L28.2304 44.2889V44.2882ZM22.4622 45.9812L27.3328 44.5474C27.5204 44.3193 27.6649 44.1141 27.8127 43.869L27.2296 44.0459L26.0134 44.3746L22.2982 45.4034L22.4622 45.9812ZM21.7184 46.8169L21.2986 45.1313L20.6143 45.3318L18.7982 45.834L19.2747 47.5918L21.7184 46.8169ZM17.8938 48.9708L18.5471 48.4558L17.8 45.5991L15.6566 45.3784L14.3183 45.2576L14.7016 46.5394L15.2213 48.3566L15.803 50.5234L17.8945 48.9708H17.8938ZM13.4078 45.3433L7.01259 47.2003L7.86227 50.1278L14.2575 48.2709L13.4078 45.3433ZM42.6987 67.2693L42.7014 70.7747C42.721 70.795 42.7648 70.8361 42.7777 70.8469L43.7684 70.6755C44.8273 70.4919 45.872 70.2941 46.8952 70.0234L46.8918 68.564L46.8904 64.0468C46.8904 62.9877 46.8149 61.965 46.6245 60.9261C46.3316 59.3304 45.6999 57.8042 44.5736 56.6229C42.7082 54.666 39.9985 54.3163 37.4359 54.7558C36.1226 54.9812 34.8626 54.4851 34.108 53.3916L33.5506 52.5836C33.1821 52.0496 32.6537 51.6426 32.0699 51.3462C31.4463 51.0297 30.764 50.9102 30.0688 50.9048C29.7543 50.9021 29.4608 50.9048 29.1544 50.8845C28.3431 50.8292 27.6176 50.5052 27.015 49.9645C25.9189 49.0208 25.3365 47.5236 25.0193 46.1297L22.6147 46.8587C22.5701 47.2637 22.3049 47.5702 21.9202 47.6876L20.3781 48.1622C20.8343 49.8578 21.385 51.2922 22.4028 52.7111C22.9724 53.5056 23.656 54.1874 24.4618 54.7342C25.6227 55.5213 26.94 55.8804 28.3398 55.8257C29.1085 55.7953 29.8157 56.0383 30.3408 56.5898C30.9448 57.2243 30.9934 57.6253 31.7594 58.4076C32.8258 59.4958 34.3193 59.865 35.8135 59.78C37.008 59.7118 37.8996 59.4114 39.0827 59.3851C40.1375 59.3614 41.0979 59.8286 41.712 60.6757C42.0866 61.1928 42.3106 61.7558 42.4578 62.3781C42.5853 62.9188 42.6724 63.4521 42.6764 64.0198L42.7001 67.2693H42.6987ZM41.7397 70.9637V65.7465L41.7194 63.8996C41.6452 62.8324 41.4043 61.5505 40.5458 60.833C39.8331 60.2376 39.0131 60.2856 38.1122 60.4246L36.5268 60.669C34.9159 60.9174 33.0728 60.6312 31.7338 59.6564C31.0434 59.1542 30.5183 58.5075 30.0769 57.7873C29.7152 57.1973 29.2056 56.7835 28.4849 56.7896C28.0705 56.793 27.6777 56.7964 27.2579 56.7559C24.696 56.5054 22.697 54.9083 21.3202 52.8171C20.8627 52.1218 20.5131 51.405 20.1885 50.6348C19.8895 49.926 19.687 49.2064 19.4785 48.4646C19.4123 48.2283 19.5115 48.767 19.2301 49.0451C19.0567 49.2166 18.8812 49.3603 18.6814 49.5102L16.1607 51.4009C15.8543 51.6304 15.5452 51.7661 15.1848 51.8707L13.9039 52.244L11.971 52.8286L9.51305 53.559C9.85185 54.1908 10.1738 54.7727 10.5497 55.37C11.3683 56.6715 12.2349 57.9081 13.1993 59.1049L14.327 60.4273C15.1686 61.4149 16.8127 62.9337 17.8432 63.7741C21.1286 66.4539 25.2845 68.6821 29.3791 69.8358C31.9767 70.6168 34.6399 71.015 37.3556 71.1169C38.8329 71.1723 40.2806 71.1041 41.7397 70.9637ZM9.09327 52.7321L12.3739 51.7492L14.9844 50.9676L14.4829 49.1261L10.4606 50.3114L8.25978 50.9453L8.65122 51.8026C8.79362 52.1144 8.9232 52.4236 9.0926 52.7327L9.09327 52.7321ZM62.6437 60.5063L62.0404 59.2744C61.5551 58.2834 61.1016 57.3101 60.6805 56.2921C60.2067 55.1453 59.2801 55.4477 58.9413 54.749L58.2711 53.3686L57.6752 52.1347L57.0104 50.7502L56.6608 49.9861C56.5643 50.1339 56.4752 50.356 56.4752 50.5342L57.0826 51.8356L57.962 53.8337C58.2023 54.3805 58.4189 54.9097 58.6274 55.4666C58.7543 55.8061 58.9851 56.0511 59.3037 56.2212C59.6499 56.4069 59.9462 56.6708 60.1115 57.036L61.107 59.2332L61.9877 61.2076L62.6444 60.5056L62.6437 60.5063ZM57.6239 50.2527L58.1402 51.3071C58.2158 51.2409 57.719 50.333 57.6239 50.2527ZM59.6647 54.3697L58.9318 52.8259C58.7935 52.5572 58.6855 52.294 58.5046 52.0516L59.2983 53.752C59.4042 53.9788 59.4859 54.2063 59.6647 54.369V54.3697Z" fill="#F7F3CF"/>
<path d="M13.5161 36.37C13.9656 36.37 14.33 36.0055 14.33 35.5559C14.33 35.1063 13.9656 34.7418 13.5161 34.7418C13.0666 34.7418 12.7021 35.1063 12.7021 35.5559C12.7021 36.0055 13.0666 36.37 13.5161 36.37Z" fill="#F7F3CF"/>
<path d="M21.5627 17.495C22.0029 17.495 22.3597 17.1381 22.3597 16.6978C22.3597 16.2576 22.0029 15.9006 21.5627 15.9006C21.1225 15.9006 20.7656 16.2576 20.7656 16.6978C20.7656 17.1381 21.1225 17.495 21.5627 17.495Z" fill="#F7F3CF"/>
<path d="M30.4468 27.3308C30.8769 27.3308 31.2256 26.982 31.2256 26.5518C31.2256 26.1216 30.8769 25.7728 30.4468 25.7728C30.0167 25.7728 29.668 26.1216 29.668 26.5518C29.668 26.982 30.0167 27.3308 30.4468 27.3308Z" fill="#F7F3CF"/>
<path d="M28.1552 21.4547C28.5782 21.4547 28.9212 21.1116 28.9212 20.6885C28.9212 20.2654 28.5782 19.9224 28.1552 19.9224C27.7321 19.9224 27.3892 20.2654 27.3892 20.6885C27.3892 21.1116 27.7321 21.4547 28.1552 21.4547Z" fill="#F7F3CF"/>
<path d="M16.5227 18.9349C16.9405 18.9349 17.2792 18.5961 17.2792 18.1782C17.2792 17.7603 16.9405 17.4215 16.5227 17.4215C16.1048 17.4215 15.7661 17.7603 15.7661 18.1782C15.7661 18.5961 16.1048 18.9349 16.5227 18.9349Z" fill="#F7F3CF"/>
<path d="M9.1966 33.2021C9.60585 33.2021 9.93762 32.8702 9.93762 32.4609C9.93762 32.0516 9.60585 31.7197 9.1966 31.7197C8.78734 31.7197 8.45557 32.0516 8.45557 32.4609C8.45557 32.8702 8.78734 33.2021 9.1966 33.2021Z" fill="#F7F3CF"/>
<path d="M12.8391 30.2887C13.2472 30.2887 13.5781 29.9578 13.5781 29.5496C13.5781 29.1414 13.2472 28.8104 12.8391 28.8104C12.431 28.8104 12.1001 29.1414 12.1001 29.5496C12.1001 29.9578 12.431 30.2887 12.8391 30.2887Z" fill="#F7F3CF"/>
<path d="M11.864 40.8379C12.2535 40.8379 12.5692 40.5221 12.5692 40.1325C12.5692 39.7429 12.2535 39.4271 11.864 39.4271C11.4744 39.4271 11.1587 39.7429 11.1587 40.1325C11.1587 40.5221 11.4744 40.8379 11.864 40.8379Z" fill="#F7F3CF"/>
<path d="M19.5535 24.3911C19.9344 24.3911 20.2432 24.0822 20.2432 23.7012C20.2432 23.3202 19.9344 23.0114 19.5535 23.0114C19.1726 23.0114 18.8638 23.3202 18.8638 23.7012C18.8638 24.0822 19.1726 24.3911 19.5535 24.3911Z" fill="#F7F3CF"/>
<path d="M31.046 10.497C31.4139 10.497 31.7121 10.1988 31.7121 9.8308C31.7121 9.46284 31.4139 9.16455 31.046 9.16455C30.6781 9.16455 30.3799 9.46284 30.3799 9.8308C30.3799 10.1988 30.6781 10.497 31.046 10.497Z" fill="#F7F3CF"/>
<path d="M38.5576 33.6976C38.9117 33.6976 39.1988 33.4105 39.1988 33.0563C39.1988 32.7021 38.9117 32.415 38.5576 32.415C38.2036 32.415 37.9165 32.7021 37.9165 33.0563C37.9165 33.4105 38.2036 33.6976 38.5576 33.6976Z" fill="#F7F3CF"/>
<path d="M25.7039 29.567C26.0498 29.567 26.3302 29.2866 26.3302 28.9406C26.3302 28.5947 26.0498 28.3142 25.7039 28.3142C25.358 28.3142 25.0776 28.5947 25.0776 28.9406C25.0776 29.2866 25.358 29.567 25.7039 29.567Z" fill="#F7F3CF"/>
<path d="M24.7245 24.9824C25.0655 24.9824 25.342 24.7058 25.342 24.3647C25.342 24.0236 25.0655 23.7471 24.7245 23.7471C24.3834 23.7471 24.1069 24.0236 24.1069 24.3647C24.1069 24.7058 24.3834 24.9824 24.7245 24.9824Z" fill="#F7F3CF"/>
<path d="M23.2871 13.2653C23.6207 13.2653 23.8912 12.9948 23.8912 12.6612C23.8912 12.3275 23.6207 12.057 23.2871 12.057C22.9535 12.057 22.6831 12.3275 22.6831 12.6612C22.6831 12.9948 22.9535 13.2653 23.2871 13.2653Z" fill="#F7F3CF"/>
<path d="M17.5844 37.6809C17.7126 37.9421 17.5723 38.2101 17.3887 38.3579C17.1727 38.5321 16.892 38.5058 16.678 38.3566C16.4641 38.2074 16.3818 37.9037 16.487 37.6411C16.5775 37.4156 16.8096 37.2955 17.0418 37.3002C17.2524 37.3042 17.4737 37.4548 17.5844 37.6809Z" fill="#F7F3CF"/>
<path d="M15.5674 27.0398C15.2091 27.0627 14.9911 26.7218 15.0336 26.4113C15.0734 26.117 15.398 25.8875 15.7078 25.978C15.9609 26.0516 16.1053 26.3 16.0837 26.5511C16.0635 26.7867 15.861 27.0209 15.5674 27.0398Z" fill="#F7F3CF"/>
<path d="M32.2758 14.6187C32.5673 14.6187 32.8036 14.3824 32.8036 14.0909C32.8036 13.7993 32.5673 13.563 32.2758 13.563C31.9843 13.563 31.748 13.7993 31.748 14.0909C31.748 14.3824 31.9843 14.6187 32.2758 14.6187Z" fill="#F7F3CF"/>
<path d="M21.6894 31.9114C21.9615 31.9114 22.1821 31.6908 22.1821 31.4187C22.1821 31.1465 21.9615 30.9259 21.6894 30.9259C21.4174 30.9259 21.1968 31.1465 21.1968 31.4187C21.1968 31.6908 21.4174 31.9114 21.6894 31.9114Z" fill="#F7F3CF"/>
<path d="M12.0118 24.524C12.2832 24.524 12.5031 24.304 12.5031 24.0326C12.5031 23.7612 12.2832 23.5411 12.0118 23.5411C11.7405 23.5411 11.5205 23.7612 11.5205 24.0326C11.5205 24.304 11.7405 24.524 12.0118 24.524Z" fill="#F7F3CF"/>
<path d="M15.3037 22.4436C15.571 22.4436 15.7876 22.2269 15.7876 21.9596C15.7876 21.6923 15.571 21.4756 15.3037 21.4756C15.0365 21.4756 14.8198 21.6923 14.8198 21.9596C14.8198 22.2269 15.0365 22.4436 15.3037 22.4436Z" fill="#F7F3CF"/>
<path d="M8.88462 43.7074C9.1418 43.7074 9.35029 43.4989 9.35029 43.2416C9.35029 42.9844 9.1418 42.7759 8.88462 42.7759C8.62743 42.7759 8.41895 42.9844 8.41895 43.2416C8.41895 43.4989 8.62743 43.7074 8.88462 43.7074Z" fill="#F7F3CF"/>
<path d="M27.8499 16.7343C28.1041 16.7343 28.3102 16.5282 28.3102 16.274C28.3102 16.0197 28.1041 15.8136 27.8499 15.8136C27.5957 15.8136 27.3896 16.0197 27.3896 16.274C27.3896 16.5282 27.5957 16.7343 27.8499 16.7343Z" fill="#F7F3CF"/>
<path d="M28.329 13.0926C28.5765 13.0926 28.7771 12.8919 28.7771 12.6444C28.7771 12.3968 28.5765 12.1962 28.329 12.1962C28.0815 12.1962 27.8809 12.3968 27.8809 12.6444C27.8809 12.8919 28.0815 13.0926 28.329 13.0926Z" fill="#F7F3CF"/>
<path d="M33.4414 23.3097C33.6851 23.3097 33.8828 23.112 33.8828 22.8682C33.8828 22.6244 33.6851 22.4268 33.4414 22.4268C33.1976 22.4268 33 22.6244 33 22.8682C33 23.112 33.1976 23.3097 33.4414 23.3097Z" fill="#F7F3CF"/>
<path d="M8.2881 39.0863C8.53 39.0863 8.7261 38.8901 8.7261 38.6482C8.7261 38.4062 8.53 38.2101 8.2881 38.2101C8.0462 38.2101 7.8501 38.4062 7.8501 38.6482C7.8501 38.8901 8.0462 39.0863 8.2881 39.0863Z" fill="#F7F3CF"/>
<path d="M35.7257 29.2809C35.956 29.2809 36.1428 29.0941 36.1428 28.8637C36.1428 28.6333 35.956 28.4465 35.7257 28.4465C35.4953 28.4465 35.3086 28.6333 35.3086 28.8637C35.3086 29.0941 35.4953 29.2809 35.7257 29.2809Z" fill="#F7F3CF"/>
<path d="M34.4977 33.9095C34.7262 33.9095 34.9114 33.7242 34.9114 33.4957C34.9114 33.2672 34.7262 33.0819 34.4977 33.0819C34.2692 33.0819 34.084 33.2672 34.084 33.4957C34.084 33.7242 34.2692 33.9095 34.4977 33.9095Z" fill="#F7F3CF"/>
<path d="M29.7017 31.0096C29.9309 31.0096 30.1167 30.8237 30.1167 30.5945C30.1167 30.3652 29.9309 30.1793 29.7017 30.1793C29.4724 30.1793 29.2866 30.3652 29.2866 30.5945C29.2866 30.8237 29.4724 31.0096 29.7017 31.0096Z" fill="#F7F3CF"/>
<path d="M20.6707 20.7081C20.394 20.7817 20.174 20.6055 20.1341 20.374C20.0916 20.1269 20.2718 19.9015 20.5485 19.8968C20.749 19.8941 20.9062 20.0642 20.9379 20.2363C20.9723 20.4226 20.8792 20.6521 20.6707 20.7075V20.7081Z" fill="#F7F3CF"/>
<path d="M26.4764 10.7063C26.7034 10.7063 26.8874 10.5223 26.8874 10.2952C26.8874 10.0682 26.7034 9.88416 26.4764 9.88416C26.2494 9.88416 26.0654 10.0682 26.0654 10.2952C26.0654 10.5223 26.2494 10.7063 26.4764 10.7063Z" fill="#F7F3CF"/>
<path d="M14.3144 42.7544C14.5377 42.7544 14.7187 42.5733 14.7187 42.35C14.7187 42.1267 14.5377 41.9457 14.3144 41.9457C14.0911 41.9457 13.9102 42.1267 13.9102 42.35C13.9102 42.5733 14.0911 42.7544 14.3144 42.7544Z" fill="#F7F3CF"/>
<path d="M16.0953 32.2712C16.3178 32.2712 16.4982 32.0908 16.4982 31.8682C16.4982 31.6456 16.3178 31.4652 16.0953 31.4652C15.8728 31.4652 15.6924 31.6456 15.6924 31.8682C15.6924 32.0908 15.8728 32.2712 16.0953 32.2712Z" fill="#F7F3CF"/>
<path d="M18.7144 28.5371C18.937 28.5371 19.1173 28.3566 19.1173 28.1341C19.1173 27.9115 18.937 27.7311 18.7144 27.7311C18.4919 27.7311 18.3115 27.9115 18.3115 28.1341C18.3115 28.3566 18.4919 28.5371 18.7144 28.5371Z" fill="#F7F3CF"/>
<path d="M25.0186 16.07C25.2363 16.07 25.4128 15.8935 25.4128 15.6758C25.4128 15.4581 25.2363 15.2816 25.0186 15.2816C24.801 15.2816 24.6245 15.4581 24.6245 15.6758C24.6245 15.8935 24.801 16.07 25.0186 16.07Z" fill="#F7F3CF"/>
<path d="M19.3057 14.9354C19.5222 14.9354 19.6978 14.7598 19.6978 14.5432C19.6978 14.3266 19.5222 14.151 19.3057 14.151C19.0891 14.151 18.9136 14.3266 18.9136 14.5432C18.9136 14.7598 19.0891 14.9354 19.3057 14.9354Z" fill="#F7F3CF"/>
<path d="M9.68275 28.0955C9.89856 28.0955 10.0735 27.9205 10.0735 27.7047C10.0735 27.4888 9.89856 27.3138 9.68275 27.3138C9.46694 27.3138 9.29199 27.4888 9.29199 27.7047C9.29199 27.9205 9.46694 28.0955 9.68275 28.0955Z" fill="#F7F3CF"/>
<path d="M9.7047 36.2579C9.91753 36.2579 10.0901 36.0854 10.0901 35.8725C10.0901 35.6596 9.91753 35.4871 9.7047 35.4871C9.49187 35.4871 9.31934 35.6596 9.31934 35.8725C9.31934 36.0854 9.49187 36.2579 9.7047 36.2579Z" fill="#F7F3CF"/>
<path d="M24.0563 21.1259C24.2673 21.1259 24.4383 20.9549 24.4383 20.7439C24.4383 20.5329 24.2673 20.3618 24.0563 20.3618C23.8453 20.3618 23.6743 20.5329 23.6743 20.7439C23.6743 20.9549 23.8453 21.1259 24.0563 21.1259Z" fill="#F7F3CF"/>
<path d="M32.1079 18.648C32.3166 18.648 32.4859 18.4787 32.4859 18.27C32.4859 18.0612 32.3166 17.892 32.1079 17.892C31.8992 17.892 31.73 18.0612 31.73 18.27C31.73 18.4787 31.8992 18.648 32.1079 18.648Z" fill="#F7F3CF"/>
<path d="M62.0703 53.1307C62.521 53.1307 62.8863 52.7654 62.8863 52.3146C62.8863 51.8639 62.521 51.4985 62.0703 51.4985C61.6197 51.4985 61.2544 51.8639 61.2544 52.3146C61.2544 52.7654 61.6197 53.1307 62.0703 53.1307Z" fill="#F7F3CF"/>
<path d="M67.2839 44.5194C67.7114 44.5194 68.058 44.1728 68.058 43.7452C68.058 43.3176 67.7114 42.9709 67.2839 42.9709C66.8563 42.9709 66.5098 43.3176 66.5098 43.7452C66.5098 44.1728 66.8563 44.5194 67.2839 44.5194Z" fill="#F7F3CF"/>
<path d="M56.1614 63.1623C56.5629 63.1623 56.8883 62.8368 56.8883 62.4353C56.8883 62.0337 56.5629 61.7083 56.1614 61.7083C55.76 61.7083 55.4346 62.0337 55.4346 62.4353C55.4346 62.8368 55.76 63.1623 56.1614 63.1623Z" fill="#F7F3CF"/>
<path d="M52.1755 54.5801C52.5632 54.5801 52.8774 54.2658 52.8774 53.878C52.8774 53.4903 52.5632 53.176 52.1755 53.176C51.7879 53.176 51.4736 53.4903 51.4736 53.878C51.4736 54.2658 51.7879 54.5801 52.1755 54.5801Z" fill="#F7F3CF"/>
<path d="M57.8399 58.0435C58.2241 58.0435 58.5357 57.7319 58.5357 57.3476C58.5357 56.9632 58.2241 56.6516 57.8399 56.6516C57.4556 56.6516 57.144 56.9632 57.144 57.3476C57.144 57.7319 57.4556 58.0435 57.8399 58.0435Z" fill="#F7F3CF"/>
<path d="M63.8195 47.4802C63.7662 47.7461 63.5779 47.9615 63.3221 48.0107C62.9354 48.085 62.6067 47.7866 62.5851 47.4255C62.5629 47.0468 62.8632 46.737 63.2668 46.7532C63.6319 46.768 63.8944 47.1055 63.8188 47.4808L63.8195 47.4802Z" fill="#F7F3CF"/>
<path d="M68.6172 35.5808C68.7056 35.8461 68.5956 36.0932 68.3992 36.2214C68.169 36.3719 67.9099 36.3294 67.7054 36.1418C67.5515 36.0007 67.4624 35.8333 67.5029 35.6146C67.5346 35.4472 67.6581 35.2872 67.8505 35.2048C68.1576 35.0739 68.5065 35.2474 68.6172 35.5801V35.5808Z" fill="#F7F3CF"/>
<path d="M68.472 39.9631C68.2149 39.9179 68.0671 39.6823 68.0475 39.4845C68.0232 39.2442 68.1447 39.0235 68.3822 38.9337C68.6846 38.819 69.0011 39.0714 69.0517 39.359C69.1098 39.687 68.8189 40.0245 68.472 39.9631Z" fill="#F7F3CF"/>
<path d="M64.1854 37.2982C64.4709 37.2982 64.7024 37.0667 64.7024 36.7811C64.7024 36.4955 64.4709 36.264 64.1854 36.264C63.8999 36.264 63.6685 36.4955 63.6685 36.7811C63.6685 37.0667 63.8999 37.2982 64.1854 37.2982Z" fill="#F7F3CF"/>
<path d="M48.8878 67.6423C49.164 67.6423 49.3879 67.4184 49.3879 67.1422C49.3879 66.8659 49.164 66.642 48.8878 66.642C48.6116 66.642 48.3877 66.8659 48.3877 67.1422C48.3877 67.4184 48.6116 67.6423 48.8878 67.6423Z" fill="#F7F3CF"/>
<path d="M66.1628 51.0895C66.4352 51.0895 66.6561 50.8686 66.6561 50.5961C66.6561 50.3236 66.4352 50.1027 66.1628 50.1027C65.8903 50.1027 65.6694 50.3236 65.6694 50.5961C65.6694 50.8686 65.8903 51.0895 66.1628 51.0895Z" fill="#F7F3CF"/>
<path d="M54.6468 58.5816C54.9167 58.5816 55.1354 58.3628 55.1354 58.0928C55.1354 57.8229 54.9167 57.6041 54.6468 57.6041C54.377 57.6041 54.1582 57.8229 54.1582 58.0928C54.1582 58.3628 54.377 58.5816 54.6468 58.5816Z" fill="#F7F3CF"/>
<path d="M49.7555 58.0361C50.0111 58.0361 50.2184 57.8288 50.2184 57.5731C50.2184 57.3173 50.0111 57.11 49.7555 57.11C49.4998 57.11 49.2925 57.3173 49.2925 57.5731C49.2925 57.8288 49.4998 58.0361 49.7555 58.0361Z" fill="#F7F3CF"/>
<path d="M52.5529 65.5477C52.3754 65.5821 52.1959 65.4836 52.127 65.356C52.0447 65.2028 52.0191 64.9989 52.1358 64.8599C52.2627 64.7087 52.4571 64.6763 52.6339 64.7667C52.7682 64.8356 52.893 64.982 52.8701 65.1704C52.8512 65.3236 52.7608 65.5072 52.5529 65.5477Z" fill="#F7F3CF"/>
<path d="M63.9999 40.7394C64.2269 40.7394 64.4109 40.5554 64.4109 40.3283C64.4109 40.1013 64.2269 39.9172 63.9999 39.9172C63.7729 39.9172 63.5889 40.1013 63.5889 40.3283C63.5889 40.5554 63.7729 40.7394 63.9999 40.7394Z" fill="#F7F3CF"/>
<path d="M59.8344 60.7875C60.0625 60.7875 60.2475 60.6026 60.2475 60.3744C60.2475 60.1463 60.0625 59.9613 59.8344 59.9613C59.6063 59.9613 59.4214 60.1463 59.4214 60.3744C59.4214 60.6026 59.6063 60.7875 59.8344 60.7875Z" fill="#F7F3CF"/>
<path d="M29.548 48.2645C29.7716 48.2645 29.9529 48.0832 29.9529 47.8595C29.9529 47.6358 29.7716 47.4545 29.548 47.4545C29.3244 47.4545 29.1431 47.6358 29.1431 47.8595C29.1431 48.0832 29.3244 48.2645 29.548 48.2645Z" fill="#F7F3CF"/>
<path d="M67.6339 47.8137C67.8497 47.8137 68.0247 47.6387 68.0247 47.4228C68.0247 47.207 67.8497 47.032 67.6339 47.032C67.4181 47.032 67.2432 47.207 67.2432 47.4228C67.2432 47.6387 67.4181 47.8137 67.6339 47.8137Z" fill="#F7F3CF"/>
<path d="M52.4564 61.7258C52.6599 61.7258 52.8249 61.5608 52.8249 61.3572C52.8249 61.1537 52.6599 60.9886 52.4564 60.9886C52.2529 60.9886 52.0879 61.1537 52.0879 61.3572C52.0879 61.5608 52.2529 61.7258 52.4564 61.7258Z" fill="#F7F3CF"/>
<path d="M64.8691 54.844C65.0688 54.844 65.2308 54.682 65.2308 54.4822C65.2308 54.2823 65.0688 54.1204 64.8691 54.1204C64.6693 54.1204 64.5073 54.2823 64.5073 54.4822C64.5073 54.682 64.6693 54.844 64.8691 54.844Z" fill="#F7F3CF"/>
<path d="M19.7966 57.295C20.2633 57.295 20.6416 56.9166 20.6416 56.4499C20.6416 55.9831 20.2633 55.6047 19.7966 55.6047C19.33 55.6047 18.9517 55.9831 18.9517 56.4499C18.9517 56.9166 19.33 57.295 19.7966 57.295Z" fill="#F7F3CF"/>
<path d="M40.6598 67.9778C41.1127 67.9778 41.4798 67.6106 41.4798 67.1577C41.4798 66.7047 41.1127 66.3375 40.6598 66.3375C40.207 66.3375 39.8398 66.7047 39.8398 67.1577C39.8398 67.6106 40.207 67.9778 40.6598 67.9778Z" fill="#F7F3CF"/>
<path d="M26.4093 66.7655C26.82 66.7655 27.153 66.4324 27.153 66.0216C27.153 65.6108 26.82 65.2777 26.4093 65.2777C25.9985 65.2777 25.6655 65.6108 25.6655 66.0216C25.6655 66.4324 25.9985 66.7655 26.4093 66.7655Z" fill="#F7F3CF"/>
<path d="M35.7745 68.9404C36.1786 68.9404 36.5061 68.6128 36.5061 68.2087C36.5061 67.8045 36.1786 67.4769 35.7745 67.4769C35.3705 67.4769 35.043 67.8045 35.043 68.2087C35.043 68.6128 35.3705 68.9404 35.7745 68.9404Z" fill="#F7F3CF"/>
<path d="M18.5129 61.3876C18.9024 61.3876 19.2181 61.0718 19.2181 60.6822C19.2181 60.2926 18.9024 59.9768 18.5129 59.9768C18.1234 59.9768 17.8076 60.2926 17.8076 60.6822C17.8076 61.0718 18.1234 61.3876 18.5129 61.3876Z" fill="#F7F3CF"/>
<path d="M14.7094 56.6733C15.0817 56.6733 15.3836 56.3714 15.3836 55.9989C15.3836 55.6265 15.0817 55.3246 14.7094 55.3246C14.337 55.3246 14.0352 55.6265 14.0352 55.9989C14.0352 56.3714 14.337 56.6733 14.7094 56.6733Z" fill="#F7F3CF"/>
<path d="M37.8212 64.3428C38.1917 64.3428 38.4921 64.0424 38.4921 63.6718C38.4921 63.3013 38.1917 63.0009 37.8212 63.0009C37.4507 63.0009 37.1504 63.3013 37.1504 63.6718C37.1504 64.0424 37.4507 64.3428 37.8212 64.3428Z" fill="#F7F3CF"/>
<path d="M23.0175 62.5662C23.3138 62.5662 23.554 62.3259 23.554 62.0296C23.554 61.7332 23.3138 61.4929 23.0175 61.4929C22.7212 61.4929 22.481 61.7332 22.481 62.0296C22.481 62.3259 22.7212 62.5662 23.0175 62.5662Z" fill="#F7F3CF"/>
<path d="M27.02 60.4439C27.2716 60.4439 27.4756 60.2399 27.4756 59.9882C27.4756 59.7366 27.2716 59.5326 27.02 59.5326C26.7684 59.5326 26.5645 59.7366 26.5645 59.9882C26.5645 60.2399 26.7684 60.4439 27.02 60.4439Z" fill="#F7F3CF"/>
<path d="M30.8249 67.5634C31.0702 67.5634 31.269 67.3645 31.269 67.1192C31.269 66.8739 31.0702 66.675 30.8249 66.675C30.5797 66.675 30.3809 66.8739 30.3809 67.1192C30.3809 67.3645 30.5797 67.5634 30.8249 67.5634Z" fill="#F7F3CF"/>
<path d="M33.5195 65.2771C33.7584 65.2771 33.9521 65.0834 33.9521 64.8444C33.9521 64.6055 33.7584 64.4117 33.5195 64.4117C33.2806 64.4117 33.0869 64.6055 33.0869 64.8444C33.0869 65.0834 33.2806 65.2771 33.5195 65.2771Z" fill="#F7F3CF"/>
<path d="M17.6536 53.6222C17.8843 53.6222 18.0714 53.4351 18.0714 53.2043C18.0714 52.9736 17.8843 52.7865 17.6536 52.7865C17.4229 52.7865 17.2358 52.9736 17.2358 53.2043C17.2358 53.4351 17.4229 53.6222 17.6536 53.6222Z" fill="#F7F3CF"/>
<path d="M58.2139 20.237C58.6724 20.237 59.044 19.8652 59.044 19.4067C59.044 18.9481 58.6724 18.5764 58.2139 18.5764C57.7554 18.5764 57.3838 18.9481 57.3838 19.4067C57.3838 19.8652 57.7554 20.237 58.2139 20.237Z" fill="#F7F3CF"/>
<path d="M53.5458 16.2988C53.9658 16.2988 54.3064 15.9582 54.3064 15.5381C54.3064 15.1179 53.9658 14.7773 53.5458 14.7773C53.1257 14.7773 52.7852 15.1179 52.7852 15.5381C52.7852 15.9582 53.1257 16.2988 53.5458 16.2988Z" fill="#F7F3CF"/>
<path d="M62.8225 21.4479C63.2258 21.4479 63.5527 21.1209 63.5527 20.7176C63.5527 20.3142 63.2258 19.9872 62.8225 19.9872C62.4192 19.9872 62.0923 20.3142 62.0923 20.7176C62.0923 21.1209 62.4192 21.4479 62.8225 21.4479Z" fill="#F7F3CF"/>
<path d="M52.3414 12.3986C52.7171 12.3986 53.0217 12.0939 53.0217 11.7181C53.0217 11.3424 52.7171 11.0377 52.3414 11.0377C51.9657 11.0377 51.6611 11.3424 51.6611 11.7181C51.6611 12.0939 51.9657 12.3986 52.3414 12.3986Z" fill="#F7F3CF"/>
<path d="M44.9673 14.6181C45.3389 14.6181 45.6402 14.3168 45.6402 13.9451C45.6402 13.5734 45.3389 13.2721 44.9673 13.2721C44.5957 13.2721 44.2944 13.5734 44.2944 13.9451C44.2944 14.3168 44.5957 14.6181 44.9673 14.6181Z" fill="#F7F3CF"/>
<path d="M46.643 19.2622C46.9393 19.2622 47.1795 19.022 47.1795 18.7256C47.1795 18.4292 46.9393 18.189 46.643 18.189C46.3467 18.189 46.1064 18.4292 46.1064 18.7256C46.1064 19.022 46.3467 19.2622 46.643 19.2622Z" fill="#F7F3CF"/>
<path d="M61.7565 25.1552C62.0417 25.1552 62.2728 24.924 62.2728 24.6388C62.2728 24.3536 62.0417 24.1224 61.7565 24.1224C61.4714 24.1224 61.2402 24.3536 61.2402 24.6388C61.2402 24.924 61.4714 25.1552 61.7565 25.1552Z" fill="#F7F3CF"/>
<path d="M66.2666 26.0793C66.2585 26.2737 66.1249 26.4188 65.9987 26.4958C65.8394 26.5923 65.6531 26.595 65.4986 26.4978C65.3231 26.3878 65.2016 26.2163 65.2172 26.0293C65.234 25.8302 65.3548 25.6601 65.5526 25.5872C65.722 25.5244 65.8947 25.5487 66.0486 25.6621C66.1546 25.7404 66.2747 25.897 66.2666 26.0793Z" fill="#F7F3CF"/>
<path d="M57.8951 15.8379C58.1635 15.8379 58.381 15.6203 58.381 15.3519C58.381 15.0834 58.1635 14.8658 57.8951 14.8658C57.6267 14.8658 57.4092 15.0834 57.4092 15.3519C57.4092 15.6203 57.6267 15.8379 57.8951 15.8379Z" fill="#F7F3CF"/>
<path d="M47.9959 10.3533C48.2519 10.3533 48.4595 10.1456 48.4595 9.88952C48.4595 9.6334 48.2519 9.42578 47.9959 9.42578C47.7398 9.42578 47.5322 9.6334 47.5322 9.88952C47.5322 10.1456 47.7398 10.3533 47.9959 10.3533Z" fill="#F7F3CF"/>
<path d="M53.639 19.7908C53.8853 19.7908 54.0851 19.591 54.0851 19.3446C54.0851 19.0982 53.8853 18.8984 53.639 18.8984C53.3926 18.8984 53.1929 19.0982 53.1929 19.3446C53.1929 19.591 53.3926 19.7908 53.639 19.7908Z" fill="#F7F3CF"/>
<path d="M49.5936 14.2381C49.8321 14.2381 50.0255 14.0446 50.0255 13.806C50.0255 13.5674 49.8321 13.374 49.5936 13.374C49.355 13.374 49.1616 13.5674 49.1616 13.806C49.1616 14.0446 49.355 14.2381 49.5936 14.2381Z" fill="#F7F3CF"/>
<path d="M50.7971 18.0614C51.0237 18.0614 51.2074 17.8777 51.2074 17.651C51.2074 17.4243 51.0237 17.2406 50.7971 17.2406C50.5704 17.2406 50.3867 17.4243 50.3867 17.651C50.3867 17.8777 50.5704 18.0614 50.7971 18.0614Z" fill="#F7F3CF"/>
<path d="M62.4291 28.6869C62.6542 28.6869 62.8368 28.5043 62.8368 28.2792C62.8368 28.054 62.6542 27.8715 62.4291 27.8715C62.204 27.8715 62.0215 28.054 62.0215 28.2792C62.0215 28.5043 62.204 28.6869 62.4291 28.6869Z" fill="#F7F3CF"/>
<path d="M43.5537 9.35831C43.7244 9.35831 43.8628 9.21989 43.8628 9.04915C43.8628 8.87841 43.7244 8.73999 43.5537 8.73999C43.383 8.73999 43.2446 8.87841 43.2446 9.04915C43.2446 9.21989 43.383 9.35831 43.5537 9.35831Z" fill="#F7F3CF"/>
</g>
<defs>
<clipPath id="clip0_447_2150">
<rect width="69" height="69" fill="white" transform="translate(4 4)"/>
</clipPath>
</defs>
</svg>
