<svg width="25" height="20" viewBox="0 0 25 20" fill="none" xmlns="http://www.w3.org/2000/svg">
<path d="M23.6048 13.5763L21.4053 11.8167C20.7496 11.2964 19.8647 11.003 18.9411 10.9999C18.0176 10.9967 17.1295 11.2841 16.4684 11.7999C16.1156 12.0837 15.6502 12.2604 15.1522 12.2993C14.6542 12.3383 14.1548 12.2372 13.74 12.0135C12.1025 11.1392 10.6958 10.016 9.59987 8.70775C9.3251 8.37215 9.20331 7.97104 9.25503 7.572C9.30675 7.17295 9.52881 6.80036 9.88381 6.51701C10.5228 5.98757 10.8773 5.27908 10.8715 4.54316C10.8657 3.80725 10.5001 3.10238 9.85282 2.57943L7.6533 0.819797C6.99479 0.294793 6.10301 0 5.17334 0C4.24366 0 3.35189 0.294793 2.69338 0.819797L2.06052 1.32689C-1.23876 3.96634 -0.991819 9.51558 5.87269 15.004C10.0118 18.3161 14.1779 19.7031 17.5561 19.7031C18.5506 19.7295 19.5417 19.5974 20.4717 19.3144C21.4017 19.0314 22.2519 18.6031 22.973 18.0546L23.6068 17.5475C24.2643 17.0205 24.6333 16.3062 24.633 15.5616C24.6326 14.817 24.2628 14.103 23.6048 13.5763ZM22.1911 16.4165L21.5573 16.9236C18.9578 19.0032 13.2201 18.6233 7.28438 13.8739C1.34867 9.12446 0.872776 4.53102 3.47221 2.45146L4.10107 1.94516C4.38422 1.71946 4.76763 1.59273 5.16734 1.59273C5.56705 1.59273 5.95046 1.71946 6.23361 1.94516L8.43313 3.70479C8.71113 3.92831 8.86893 4.2299 8.87285 4.5452C8.87677 4.8605 8.72651 5.16454 8.45412 5.39244C7.77855 5.93635 7.35713 6.64948 7.26048 7.41234C7.16383 8.17521 7.39782 8.94147 7.92324 9.58277C9.16851 11.0736 10.7699 12.3528 12.6352 13.3468C13.4344 13.7672 14.3897 13.9555 15.3416 13.8802C16.2934 13.805 17.1842 13.4707 17.8651 12.9333C18.1494 12.7128 18.5305 12.5903 18.9265 12.5923C19.3225 12.5942 19.7017 12.7204 19.9826 12.9437L22.1821 14.7033C22.3239 14.8151 22.4366 14.9482 22.5138 15.0949C22.5911 15.2417 22.6313 15.3992 22.6321 15.5584C22.6329 15.7176 22.5944 15.8754 22.5187 16.0227C22.443 16.17 22.3317 16.3038 22.1911 16.4165Z" fill="white"/>
</svg>
