<svg width="77" height="77" viewBox="0 0 77 77" fill="none" xmlns="http://www.w3.org/2000/svg">
<circle cx="38.5" cy="38.5" r="38.5" fill="url(#paint0_linear_390_3327)"/>
<g clip-path="url(#clip0_390_3327)">
<path d="M39.1543 5L40.9512 5.10509C57.9232 6.35855 71.1733 19.9297 71.958 36.9484C71.9671 37.1453 71.9227 37.3768 71.9933 37.5587C71.9786 38.162 72.0132 38.7702 71.9933 39.3732C71.6622 49.4958 66.9855 58.8834 58.9728 65.0362C45.2959 75.5383 25.8695 74.008 14.0618 61.4811C3.75536 50.5478 2.05303 33.7802 9.91655 20.937C15.8874 11.1849 26.232 5.33798 37.6887 5H39.1543ZM60.5673 15.6931C47.1798 2.8185 25.4177 4.10373 13.7497 18.5586C4.16147 30.4364 4.48762 47.8192 14.5172 59.316C26.4027 72.9406 47.3443 73.9148 60.4426 61.4113C73.4145 49.0287 73.5049 28.1355 60.5673 15.6931Z" fill="#4B5A2A"/>
<path d="M63.1311 39.8256C63.7369 39.8665 63.6503 40.6828 63.0602 40.6301C62.7574 44.2626 61.6149 47.8062 59.7728 50.9349C55.7142 57.8279 48.4509 62.2474 40.4282 62.7191C39.5559 62.7705 38.6623 62.7795 37.7938 62.7198C37.8029 62.8364 37.9353 62.8693 37.9614 62.9894C37.9985 63.1591 37.8972 63.3752 37.7568 63.4684C37.3228 63.7565 36.8761 63.1842 37.1478 62.8246C37.1908 62.7677 37.2631 62.7767 37.2697 62.7202C36.3122 62.6385 35.3516 62.5288 34.4018 62.3599C32.2434 61.9758 30.2694 61.3173 28.2776 60.4228C28.1554 60.3679 27.9724 60.2419 27.8641 60.2077C27.7803 60.1815 27.8575 60.296 27.8327 60.3816C27.6839 60.8903 26.8906 60.5247 27.1696 60.0701C27.2188 59.9898 27.2942 59.9947 27.3236 59.9284C27.2799 59.9284 27.2377 59.9172 27.1996 59.8952C26.3235 59.384 25.4533 58.8683 24.6257 58.2814C18.5116 53.9467 14.7306 46.8834 14.4798 39.3578C14.446 38.3383 14.506 37.3177 14.5507 36.3027C14.2438 36.5433 13.7671 36.3334 13.5904 36.0244C13.2409 35.4138 13.7221 34.7315 14.4208 34.8453C14.498 34.8579 14.7016 34.9812 14.7445 34.9082C15.3727 30.21 17.4703 25.7887 20.5708 22.2385C30.5812 10.7759 48.5819 11.4735 57.963 23.3398C61.626 27.973 63.4562 33.9079 63.1311 39.8256ZM16.8544 44.1541C16.9378 43.5036 17.008 42.8542 17.2675 42.2463C17.6945 41.2456 18.5857 40.5285 19.2617 39.7038C20.7779 37.8543 21.668 35.6659 22.9125 33.653C24.4686 31.1367 26.6161 28.7331 28.5974 26.5307C30.5725 24.3348 32.8426 22.3974 34.4014 19.8762C34.679 19.4268 34.8969 18.9684 35.2314 18.5424C36.0971 17.4405 37.3252 16.7698 38.2652 15.7478L38.2293 15.678L37.4603 15.7806C36.5238 16.6657 35.4525 17.4374 34.6944 18.4936C34.3358 18.9928 34.0721 19.5424 33.7516 20.0633C32.4187 22.2316 30.2313 24.0594 28.5279 25.972C26.3455 28.4224 24.0687 30.9893 22.3545 33.7923C21.2521 35.5946 20.3767 37.5583 19.0529 39.215C18.1073 40.3982 16.8984 41.4188 16.5792 42.9879L16.8547 44.1537L16.8544 44.1541ZM41.959 16.0743C41.9866 16.0408 42.0592 16.0233 42.0854 15.9748C42.0704 15.95 42.0509 15.942 42.0261 15.9301C41.8979 15.8693 41.1789 15.8019 40.9869 15.7827C40.6743 15.752 40.3566 15.7642 40.0461 15.7115L38.4807 15.7195C37.5138 16.825 36.2162 17.4842 35.3219 18.6678C34.8756 19.2582 34.5729 19.9387 34.179 20.5609C33.219 22.0786 31.6169 23.5583 30.3783 24.8914C27.6731 27.8026 24.7605 30.8102 22.7467 34.2546C21.6984 36.0478 20.8872 37.9263 19.576 39.5638C19.1102 40.1455 18.5577 40.679 18.0933 41.2568C17.3094 42.2316 17.2392 42.9003 17.0185 44.0905C16.9514 44.4512 16.9064 44.3999 17.0045 44.7895C17.1173 45.2364 17.2842 45.7336 17.4389 46.1697C17.8723 47.3935 18.4512 48.5562 19.0543 49.7021L23.5851 42.3137L23.5736 42.1995L22.4558 41.1178C22.439 41.2704 22.4244 41.3595 22.2466 41.3629C21.9338 41.3696 22.0354 40.9237 22.3336 40.9607C21.3052 39.9765 21.1205 38.4741 21.9421 37.2887C22.3189 36.7454 22.8242 36.3628 23.2768 35.9015C24.7455 34.4051 26.3556 32.0448 28.7623 33.241C28.9945 33.3566 29.204 33.5193 29.4037 33.6827L29.454 33.6684C29.9415 32.8758 30.5096 32.1384 31.0243 31.3647C32.7448 28.7781 34.3337 26.1407 36.4149 23.8083C37.4911 22.6024 38.7464 21.5807 39.8537 20.4072C40.961 19.2338 41.9636 17.7607 43.4588 16.9629C43.8234 16.7684 44.2403 16.6032 44.6339 16.48C44.6279 16.4259 44.5825 16.4262 44.5434 16.414C44.2152 16.3107 43.6952 16.2202 43.3432 16.1487C42.9514 16.069 42.5537 15.9908 42.1563 15.9573C42.1263 16.0848 42.2702 16.186 42.2097 16.3058C42.1308 16.4625 41.7205 16.3637 41.9594 16.0739L41.959 16.0743ZM36.1533 15.8533L35.8059 15.9416C34.8739 16.7694 34.0644 17.6601 33.3332 18.6685C33.0141 19.1084 32.7389 19.5822 32.4131 20.0165C31.7297 20.9271 30.7425 21.6195 29.9233 22.4124C28.0555 24.221 26.5508 26.3575 24.9504 28.3972C24.2081 29.3438 23.4108 30.2393 22.7243 31.2313C21.1739 33.47 20.2814 36.0227 18.6136 38.1832C17.9721 39.0142 16.7426 40.1689 16.3358 41.07C16.3246 41.0945 16.2118 41.334 16.3142 41.3266C16.3445 41.3245 16.5802 40.8825 16.6312 40.8071C17.2032 39.9601 17.933 39.2457 18.564 38.4475C20.1176 36.4818 20.9389 34.2434 22.2498 32.1527C23.0955 30.8039 24.0785 29.703 25.0552 28.4674C26.7684 26.2999 28.3589 24.0716 30.3769 22.1684C30.7534 21.8136 31.1724 21.4963 31.5474 21.1405C32.7584 19.9914 33.4464 18.5337 34.6001 17.3183C35.0914 16.8009 35.654 16.3588 36.1537 15.8536L36.1533 15.8533ZM16.1574 39.2687C16.4772 38.9137 16.7873 38.532 17.0789 38.149C18.777 35.9183 19.7572 33.3622 21.3282 31.0571C22.2047 29.7711 23.2212 28.6001 24.1623 27.3655C25.3639 25.7891 26.415 24.0873 27.7768 22.6397C28.9383 21.4055 30.3913 20.3619 31.4409 19.0452C31.7573 18.6482 32.0272 18.2135 32.3349 17.8103C32.7022 17.3291 33.1314 16.8613 33.483 16.376C33.5078 16.3417 33.5529 16.3341 33.5354 16.2716L32.6743 16.5617C31.7391 17.7244 30.8745 18.9447 29.8022 19.9886C28.9306 20.8371 28.0489 21.5944 27.2363 22.5175C26.0721 23.8401 25.0873 25.3027 24.0226 26.7021C22.4848 28.7233 20.8862 30.6182 19.6186 32.837C18.7812 34.3024 18.13 35.8352 17.1973 37.2555C16.956 37.6228 16.6686 37.9699 16.428 38.3358C16.2237 38.6466 16.0324 38.8704 16.157 39.2684L16.1574 39.2687ZM45.9597 16.8302L44.9055 16.5579C42.4158 17.1884 41.0434 19.4691 39.3306 21.175C38.6082 21.8946 37.819 22.5475 37.1126 23.2853C34.7775 25.7245 33.1038 28.5631 31.2611 31.358C30.7621 32.115 30.1824 32.8384 29.704 33.6048C29.6712 33.6575 29.5825 33.7811 29.5961 33.8353L29.9408 34.1928C30.0166 34.235 30.1025 34.0692 30.1444 34.0105C32.5692 30.6311 34.3026 26.9776 37.1824 23.8789C38.1577 22.8297 39.3044 21.9543 40.2892 20.9135C41.519 19.614 42.4776 18.2401 44.1673 17.4632C44.7679 17.187 45.2921 17.0826 45.9088 16.9011C45.9598 16.8861 45.9695 16.9203 45.9597 16.8305V16.8302ZM32.4543 16.5861C31.0188 16.9838 29.5319 17.5501 28.2308 18.2774C28.0709 18.3668 27.8743 18.4663 27.7419 18.5913C27.2258 19.0777 26.5033 20.079 26.0536 20.6719C25.0496 21.9938 24.1847 23.419 23.1706 24.7336C21.1142 27.399 18.5801 29.7442 17.0112 32.7777C16.6351 33.505 16.5314 34.1628 16.407 34.9655C16.2276 36.1225 16.1389 37.2946 16.1574 38.4667C17.5594 36.7245 18.3604 34.6135 19.4793 32.6981C20.5887 30.7987 21.9058 29.209 23.2209 27.4713C24.4399 25.8606 25.6331 24.0964 26.9416 22.5723C28.25 21.0483 29.7152 19.9233 30.9531 18.4527C31.4661 17.8431 31.9197 17.179 32.4546 16.5872L32.4543 16.5861ZM46.8324 18.9241C46.8443 18.57 46.8163 18.2121 46.8306 17.8581C46.8369 17.7006 46.9172 17.4 46.904 17.267C46.9005 17.2338 46.8865 17.1947 46.8512 17.1884C45.6919 17.3888 44.526 17.7181 43.5332 18.3647C42.4168 19.0916 41.6674 20.1677 40.7777 21.123C39.6309 22.3548 38.259 23.3209 37.1663 24.5957C36.2871 25.6215 35.3998 26.8128 34.6382 27.9304C33.1642 30.0934 31.9982 32.4599 30.3776 34.5231L30.3665 34.6219L31.4413 35.6931C31.4888 35.7343 31.4971 35.7004 31.5275 35.6728C31.6051 35.602 31.7587 35.3513 31.8334 35.2462C32.9868 33.6247 33.6381 31.725 34.4828 29.9391C35.4619 27.8693 36.9313 25.1093 38.8641 23.8164C39.2496 23.5583 39.6676 23.3499 40.0517 23.0845C41.4157 22.1432 42.3306 20.7267 43.7424 19.8657C44.6632 19.3039 45.759 19.0089 46.8317 18.9244L46.8324 18.9241ZM58.2783 26.7408L57.295 25.2294C55.3286 22.4857 52.7722 20.1796 49.8218 18.5341C49.4594 18.3319 48.907 18.0058 48.5323 17.8696C48.4886 17.8539 48.4523 17.8319 48.4027 17.8424C48.4031 18.2736 48.3535 18.6803 48.4066 19.1119C48.7334 21.762 51.0929 22.0231 53.1022 22.9313C55.1114 23.8394 56.8438 25.1389 58.2779 26.7412L58.2783 26.7408ZM46.8635 19.1367C45.8002 19.1751 44.703 19.5029 43.7986 20.0605C42.6204 20.7868 41.8515 21.9023 40.8112 22.7612C40.2284 23.2427 39.5855 23.5754 38.9755 23.9965C37.3947 25.0869 36.1743 27.0813 35.2974 28.7638C34.0732 31.1133 33.2721 33.697 31.6215 35.8048C31.5967 35.9068 31.7852 36.0122 31.8436 36.0925C32.485 35.155 33.0563 34.2151 33.542 33.1848C34.9067 30.2889 36.1599 26.2908 38.8791 24.3883C39.5618 23.9106 40.2829 23.5768 40.9509 23.0398C41.8885 22.286 42.6211 21.3007 43.6107 20.6045C44.5668 19.9321 45.7673 19.5057 46.9371 19.446L46.8638 19.136L46.8635 19.1367ZM17.309 31.1726C17.6128 30.7348 17.8817 30.2725 18.1876 29.8354C19.4695 28.0034 21.0688 26.4287 22.4534 24.6788L26.3123 19.4122C25.9024 19.7522 25.3754 20.0078 25.0224 20.4076C24.1581 21.3877 23.3655 22.8073 22.5721 23.89C21.5989 25.2179 20.4808 26.3652 19.4195 27.6123C18.7966 28.3445 18.1157 29.0631 17.7462 29.952C17.5817 30.3472 17.44 30.7645 17.3094 31.1723L17.309 31.1726ZM18.2162 28.9042L21.9142 24.5936L24.7416 20.5989C21.9851 22.7937 19.6189 25.6501 18.2162 28.9045V28.9042ZM33.3262 37.5237C33.7306 36.7503 34.2663 36.0499 34.7157 35.301C35.391 34.1753 36.0311 32.9484 36.5783 31.7547C37.2599 30.2683 37.9332 28.0118 39.1539 26.9322C39.6938 26.4549 40.3395 26.1958 40.9446 25.8264C42.6249 24.801 43.6079 23.2099 45.5575 22.5175C46.2189 22.2825 47.2668 22.1467 47.8339 21.8276C47.8712 21.8066 47.9226 21.7892 47.9124 21.7354C47.91 21.7246 47.7766 21.5846 47.7588 21.5741C47.6111 21.4875 47.1589 21.7141 46.9717 21.7679C46.3439 21.9474 45.7677 22.0682 45.1583 22.3276C43.5583 23.0081 42.465 24.5 41.0015 25.4294C40.3293 25.8564 39.5876 26.1574 38.98 26.6881C37.5763 27.9147 36.7515 30.5791 35.9504 32.2784C35.1494 33.9777 34.1406 35.6812 33.0615 37.2782L33.3266 37.524L33.3262 37.5237ZM58.976 49.0048L59.6045 47.6931C58.9327 45.5783 59.9747 43.3821 60.3972 41.3001C61.1462 37.6117 60.8868 33.7665 59.3664 30.3116C57.9748 27.1497 55.1003 25.2353 51.9963 23.9668C50.8617 23.5032 49.9242 23.2294 48.8591 22.5674C48.6758 22.4533 48.4715 22.2089 48.2609 22.2539C47.9537 22.3196 47.5161 22.5406 47.1809 22.6401C46.3397 22.8901 45.6514 22.9896 44.8542 23.4194C43.3684 24.2207 42.3959 25.6641 40.9446 26.524C40.0151 27.075 39.3718 27.2663 38.7646 28.2523C38.1235 29.2928 37.6887 30.6217 37.1604 31.7431C36.1659 33.8534 35.0275 35.9043 33.7275 37.8393C33.6904 37.9336 33.8794 38.12 33.9537 38.2049C34.01 38.2688 34.3839 38.6504 34.4248 38.6403C35.2465 37.6256 35.7252 36.4116 36.322 35.2668C36.8947 34.1676 37.5683 33.1184 38.1259 32.0106C38.5879 31.0927 38.9182 30.0131 39.4158 29.1475C39.9243 28.2631 40.5584 28.0191 41.3504 27.4877C42.1637 26.942 42.6717 26.0453 43.4658 25.4151C44.5197 24.5786 46.8303 23.8579 48.1586 23.5123C48.6761 23.3775 49.2279 23.2856 49.7639 23.2856C49.773 23.3363 49.6979 23.3307 49.6605 23.3384C49.1088 23.4501 48.5955 23.5224 48.0465 23.6791C46.5886 24.0957 44.4376 24.7486 43.3076 25.7451C42.7409 26.2447 42.3135 26.935 41.754 27.4021C41.3836 27.7115 40.9006 27.9234 40.5053 28.2122C39.3855 29.0306 39.2056 30.0403 38.6728 31.2302C38.0851 32.543 37.2934 33.7417 36.6244 35.0098C35.9564 36.2758 35.4378 37.6201 34.5275 38.7461L34.8452 39.0928C35.1613 38.73 35.6484 38.3554 35.9026 37.9524C36.4135 37.1431 36.8252 35.9989 37.2871 35.1145C37.8598 34.0179 38.5212 32.9704 39.0453 31.8475C39.6114 30.6342 39.8457 29.4604 40.9932 28.6305C41.2135 28.4712 41.4628 28.3571 41.6793 28.2C42.1553 27.8543 42.5342 27.2188 42.941 26.7747C43.8946 25.7335 44.5871 25.405 45.907 24.9598C46.6473 24.7102 48.5724 24.0192 49.2575 24.0883C49.3752 24.1002 49.6986 24.19 49.7991 24.2448C49.8484 24.2717 49.8547 24.3027 49.7813 24.2982C49.2219 24.2626 49.1524 24.1505 48.5277 24.3003C47.6202 24.5178 46.399 24.9389 45.5079 25.2587C43.7368 25.8938 43.4012 26.5841 42.244 27.8923C41.7338 28.4691 41.041 28.6947 40.5284 29.2303C39.8991 29.8874 39.5108 31.1499 39.1152 31.9875C38.5135 33.2616 37.7579 34.4564 37.1129 35.7081L36.1194 37.7677C36.4124 37.5048 36.7047 37.2346 36.976 36.9507C37.4143 36.4919 37.5075 36.3659 37.8109 35.8128C38.3337 34.86 38.9392 33.8754 39.3945 32.8946C39.8639 31.8838 40.1691 30.3877 40.9509 29.6C41.2229 29.326 41.6063 29.1479 41.8937 28.9028C42.3728 28.4939 42.7231 27.8103 43.1348 27.3169C43.8153 26.501 44.4324 26.1054 45.4188 25.7276C46.1735 25.4389 48.3793 24.6274 49.084 24.6463C49.1255 24.6473 49.2142 24.6205 49.2055 24.6809C48.8518 24.7297 48.5092 24.8177 48.167 24.9162C46.9113 25.2783 44.7941 25.8854 43.8311 26.7223C43.1473 27.3166 42.8376 28.0264 42.2789 28.6598C41.9217 29.0648 41.4562 29.2732 41.0791 29.6234C40.3454 30.305 40.1031 31.4904 39.7305 32.3929C39.2262 33.6146 38.4992 34.6984 37.8927 35.8596C37.8616 35.9193 37.7802 36.0265 37.8113 36.0922L40.2357 33.631C40.7533 33.0057 40.9209 31.9697 41.2669 31.2421C41.6001 30.5414 42.3452 30.1391 42.8373 29.5669C43.6586 28.6116 43.7005 27.9671 44.9942 27.3616C45.687 27.0376 46.8596 26.7318 47.4501 26.3627C47.719 26.1944 48.0343 25.7765 48.3168 25.5544C49.3455 24.7451 50.7402 24.7196 51.8416 25.413C52.0378 25.5366 52.2512 25.7796 52.4268 25.875C52.5864 25.9615 52.8623 26.0178 53.0442 26.0953C55.1069 26.9741 57.2705 29.289 57.9745 31.4247C58.3771 32.6464 58.8517 34.2228 59.1279 35.471C59.4903 37.1089 59.5043 38.9175 59.212 40.5676C58.7343 43.2634 57.3826 45.4117 58.5175 48.1906C58.5887 48.3648 58.778 48.8156 58.8779 48.9469C58.9079 48.986 58.9145 49.0184 58.9767 49.0045L58.976 49.0048ZM58.6621 49.598C58.6959 49.4266 58.889 49.2768 58.8716 49.0956C58.8621 48.9989 58.6132 48.6082 58.5517 48.4699C57.2911 45.639 58.3851 43.9257 58.9659 41.1943C59.4093 39.1085 59.4484 37.1026 58.9041 35.0311C58.5975 33.8639 58.2228 32.4565 57.8254 31.3287C57.3763 30.0543 56.6318 29.1336 55.7138 28.1706C54.8258 27.2387 53.8474 26.4179 52.5899 26.0429C52.9038 26.3435 53.2174 26.7478 53.5502 27.0188C53.8624 27.273 54.2426 27.4381 54.5625 27.7164C55.1432 28.2223 55.8856 29.0432 56.3574 29.6556C57.4608 31.0878 57.7112 32.6827 58.1983 34.3754C58.7162 36.1749 59.0238 37.2754 58.8712 39.2157C58.5922 42.7561 56.5899 45.2179 58.2133 48.8425C58.287 49.0069 58.4679 49.4151 58.5629 49.5401C58.5929 49.5795 58.5996 49.6113 58.6617 49.5977L58.6621 49.598ZM54.1403 29.8319C53.5729 29.1982 52.9356 28.6221 52.3277 28.0327C51.528 27.2572 50.6774 25.9685 49.4042 26.7126C44.6642 31.3542 40.0472 36.132 35.369 40.8396C35.0436 41.1081 34.8121 41.1105 34.4608 40.8734C33.3982 39.8431 32.3349 38.8054 31.2834 37.7695C30.3853 36.8847 29.4509 35.8114 28.5112 34.993C27.8914 34.4533 27.2384 34.3419 26.5396 34.8373C25.5999 35.9221 24.2552 36.9151 23.3627 38.0118C22.9199 38.5558 22.9342 39.2384 23.3798 39.7754L33.6751 49.965C34.4161 50.6001 35.3285 50.6581 36.0671 49.9828L54.1787 31.7662C54.8454 31.0005 54.7846 30.5511 54.1403 29.8319ZM47.2162 26.6015C47.1505 26.5953 47.0918 26.6225 47.0325 26.6441C46.266 26.9228 44.8392 27.4678 44.2333 27.9629C43.6565 28.4342 43.3701 29.1364 42.8882 29.6887C42.4427 30.1992 41.8382 30.556 41.4785 31.1409L40.6558 33.197C41.2306 32.8671 41.2903 32.1848 41.5669 31.6482C41.9248 30.9534 42.5837 30.5225 43.0813 29.952C43.5744 29.3867 43.7989 28.7771 44.4271 28.2967C45.1035 27.7799 45.8732 27.6539 46.5502 27.244C46.7947 27.0959 47.0143 26.8061 47.2162 26.6015ZM46.3435 27.4737C45.5529 27.8421 44.6786 28.1172 44.0741 28.7809C43.7497 29.1374 43.537 29.5871 43.2207 29.9513C42.8135 30.4202 42.2422 30.8315 41.8829 31.3357C41.628 31.6936 41.4677 32.1227 41.3186 32.5333L46.3435 27.4737ZM58.2444 50.2262L58.5252 49.7569C57.9263 48.8016 57.5164 47.7098 57.4071 46.5793C57.2258 44.7078 57.9441 43.1366 58.3321 41.3629C58.7546 39.43 58.8786 37.4249 58.374 35.4923C58.2385 34.9738 58.0265 34.478 57.8781 33.9644C57.5747 32.9145 57.3892 31.8088 56.9014 30.8231C56.3839 29.7771 55.1488 28.3602 54.2475 27.6144C54.1878 27.5652 54.0984 27.4852 54.0216 27.4741C54.7532 28.3354 55.9345 29.0795 56.1765 30.2568C56.2118 30.4293 56.1957 30.6409 56.2282 30.7987C56.2516 30.9129 56.4737 31.2432 56.5407 31.3936C56.9363 32.2829 57.1504 33.2372 57.4325 34.1659C57.9714 35.9389 58.3289 37.0073 58.2458 38.9388C58.1013 42.3078 56.188 44.8548 57.347 48.2796C57.5764 48.9573 57.9441 49.5809 58.2448 50.2265L58.2444 50.2262ZM56.254 31.0333C56.1999 30.9802 56.1926 31.0379 56.1856 31.0857C56.1056 31.6387 55.9453 32.0717 55.6035 32.5165C56.444 34.7731 57.0652 37.2391 56.8127 39.6699C56.6346 41.3849 55.9757 43.0109 55.7369 44.7012C55.4561 46.6889 55.9743 48.5663 56.818 50.3438C56.9775 50.68 57.1853 51.1437 57.3969 51.4391C57.4102 51.4576 57.3994 51.5065 57.458 51.4827C57.5324 51.4524 58.1791 50.4412 58.1735 50.3515C57.1273 48.5317 56.5871 46.6439 56.9629 44.5311C57.1144 43.6796 57.4245 42.8674 57.6407 42.0333C58.1788 39.9583 58.3443 37.7639 57.8153 35.6669C57.2559 34.1355 56.9751 32.5008 56.2544 31.0333H56.254ZM55.5563 32.6034L55.1747 33.0029C55.9425 35.1791 56.5194 37.5132 56.2502 39.84C55.9837 42.1437 54.9732 44.1488 55.1733 46.5444C55.3335 48.4636 56.144 50.3351 57.1099 51.9705L57.3651 51.6109C56.2558 49.6277 55.3712 47.3701 55.5923 45.0444C55.858 42.2463 57.0404 40.2813 56.7045 37.2314C56.5337 35.6802 56.0567 34.073 55.5567 32.6034H55.5563ZM56.5344 52.6342C56.576 52.6657 56.6654 52.5581 56.6916 52.5302C56.7576 52.4593 57.0296 52.1252 57.024 52.0613C55.8105 50.0355 54.9075 47.7329 55.0322 45.3223C55.1265 43.4987 55.8926 41.7833 56.1108 39.98C56.2683 38.679 56.1831 37.4357 55.93 36.1568C55.7243 35.1187 55.4341 34.0723 55.051 33.093L54.4805 33.6966C54.7183 34.2727 54.9082 34.9197 55.0584 35.5276C55.6328 37.8533 55.651 39.6053 55.0584 41.9289C54.4864 44.1715 54.016 45.5737 54.5618 47.9591C54.9452 49.6354 55.7491 51.1263 56.5344 52.6349V52.6342ZM54.4047 33.8248C54.3684 33.792 54.1983 33.9498 54.2032 34.0091C54.8426 36.081 55.3479 38.1724 55.0231 40.3577C54.816 41.7519 54.251 43.116 54.0611 44.5256C53.6536 47.5524 54.7581 50.3766 56.247 52.9387C56.2592 52.96 56.2484 53.0071 56.3064 52.9831C56.3563 52.9625 56.5417 52.7711 56.4929 52.6957C55.0144 50.2747 53.8254 47.5118 54.2406 44.6006C54.4546 43.101 55.0804 41.6936 55.2731 40.1891C55.4111 39.1116 55.3702 37.9936 55.1967 36.9242C55.0252 35.8687 54.7217 34.8419 54.4047 33.8248ZM54.0904 34.1041L53.6351 34.5384L53.6026 34.6407C54.0328 36.1466 54.4466 37.8093 54.3698 39.3902C54.2821 41.1961 53.5603 42.8859 53.3278 44.6645C52.9639 47.4469 53.8442 50.0121 55.1198 52.4255C55.2812 52.7306 55.5162 53.2159 55.7023 53.483C55.7264 53.5176 55.7641 53.5857 55.8151 53.5745C55.8441 53.5682 56.1835 53.159 56.1793 53.1105C54.6655 50.4199 53.5034 47.663 53.9217 44.4903C54.2224 42.2117 55.1467 40.547 54.9634 38.0994C54.8632 36.7615 54.4337 35.3928 54.0907 34.1034L54.0904 34.1041ZM53.5324 34.6973C53.4943 34.6634 53.1294 35.0053 53.1469 35.0967C53.5052 36.4773 53.9085 37.9116 53.8463 39.3557C53.7681 41.1716 53.0592 42.8933 52.87 44.6956C52.5571 47.676 53.2859 50.016 54.5496 52.6468C54.7703 53.1063 55.0126 53.6189 55.27 54.0556C55.2822 54.0766 55.271 54.1241 55.3293 54.1C55.3817 54.0783 55.6988 53.7163 55.6918 53.6705C54.4427 51.5533 53.385 49.2803 53.1839 46.7891C52.9143 43.4502 54.6488 40.8867 54.1557 37.442C54.0227 36.5132 53.7594 35.6041 53.5324 34.6977V34.6973ZM52.5061 35.6599C52.4492 35.7186 52.3734 35.7112 52.3804 35.8282C52.9395 37.4284 53.0617 39.1039 52.8288 40.7809C52.7153 41.5979 52.4956 42.3943 52.3563 43.2047C51.9181 45.7535 52.0326 48.3963 52.8536 50.8532C53.3107 52.2212 53.9347 53.5389 54.632 54.7972C54.7249 54.6708 54.9847 54.5357 54.9578 54.3706C53.9057 52.3937 52.9409 50.3204 52.6301 48.075C52.401 46.4204 52.4666 44.8066 52.7757 43.1705C53.2834 40.4834 53.7325 39.1528 53.0062 36.3572C52.9615 36.1847 52.8134 35.5772 52.7477 35.4637C52.7191 35.4141 52.7083 35.4323 52.6765 35.4637C52.6224 35.5175 52.5637 35.5995 52.5054 35.6596L52.5061 35.6599ZM50.7406 37.524L50.6082 37.6393C51.2724 40.0763 50.9501 42.6192 51.0189 45.1153C51.1153 48.6152 51.7648 51.776 53.2129 54.961C53.3079 55.1698 53.4465 55.5168 53.5586 55.6963C53.5984 55.7595 53.5911 55.7448 53.6724 55.7399C53.3976 54.9729 53.0348 54.2393 52.739 53.4806C51.9669 51.4988 51.4606 49.4381 51.2651 47.3121C51.0377 44.844 51.2989 42.364 51.1247 39.9147C51.0674 39.1095 50.9197 38.3082 50.7409 37.524H50.7406ZM59.9541 46.7716C60.0145 46.7622 60.0148 46.7022 60.033 46.6592C60.2586 46.1317 60.2942 45.3311 60.4182 44.7413C60.5976 43.8877 60.8665 43.0532 61.0533 42.2009C61.3928 40.651 61.5495 39.1151 61.4189 37.5244L61.3498 38.0656C61.3149 39.3309 61.1172 40.5857 60.8438 41.8172C60.48 43.4551 59.8395 45.0633 59.9537 46.772L59.9541 46.7716ZM49.6584 38.5359C49.5638 38.6204 49.3466 38.774 49.3427 38.9004C49.3386 39.04 49.4761 39.4287 49.5083 39.6113C49.913 41.9223 49.6099 44.2553 49.7272 46.581C49.8714 49.4413 50.6051 52.3193 51.6212 54.9816C51.7917 55.4278 52.0846 56.249 52.3039 56.6369C52.3235 56.6715 52.342 56.7273 52.3954 56.7151C52.4328 56.7064 52.8347 56.3806 52.8291 56.3223C51.7309 53.8563 50.815 51.2872 50.4322 48.5981C50.0726 46.0702 50.2699 43.6415 50.0771 41.1363C50.0097 40.2614 49.8864 39.3822 49.6584 38.5362V38.5359ZM49.2401 38.9898C49.1818 38.9765 49.1695 39.0086 49.1364 39.0425C49.0962 39.0837 48.863 39.3571 48.8633 39.384C48.8843 39.4629 48.9272 39.5372 48.9443 39.6175C49.4786 42.1601 48.9729 44.8775 49.1015 47.4518C49.1304 48.0359 49.2031 48.6466 49.2806 49.2269C49.6504 52.0016 50.5939 54.6422 51.6656 57.2053L52.1677 56.8866L52.1733 56.8419C50.9138 53.8458 49.898 50.6818 49.6249 47.4169C49.428 45.0626 49.7482 42.6782 49.4807 40.3375C49.429 39.885 49.3361 39.4339 49.2404 38.9898H49.2401ZM48.7861 39.4782C48.7257 39.4625 48.7163 39.5034 48.6814 39.5303C48.6046 39.5893 48.1632 40.0348 48.1576 40.0896C48.5309 41.2998 48.4977 42.6325 48.4736 43.8939C48.4212 46.6337 48.27 48.8526 48.8375 51.5885C49.1999 53.3353 49.9741 56.0283 50.78 57.6027C50.8017 57.6453 50.8282 57.7353 50.8921 57.7259L51.5699 57.2588C50.926 55.7134 50.3037 54.1454 49.8508 52.5295C49.3162 50.6214 49.0093 48.6382 48.9593 46.6512C48.9066 44.5598 49.238 42.4586 48.9558 40.3731C48.9153 40.0728 48.8441 39.775 48.7861 39.4782ZM48.0877 40.2111C47.7455 40.2586 47.9526 40.4604 48.0088 40.657C48.218 41.3902 48.2159 42.1272 48.2267 42.8818C48.2519 44.6862 48.0451 46.5115 48.122 48.3257C48.2323 50.9318 48.9007 53.6719 49.7978 56.1069C50.0156 56.6987 50.3034 57.286 50.4961 57.8872C50.5056 57.9169 50.4759 57.9588 50.5478 57.9379C50.5894 57.9256 50.7043 57.8495 50.691 57.7964C49.6678 55.3356 48.7914 52.7219 48.4422 50.0641C48.1702 47.994 48.2805 45.9354 48.3311 43.8559C48.3549 42.8727 48.423 41.8766 48.2571 40.8965C48.2176 40.6636 48.1548 40.436 48.0874 40.2107L48.0877 40.2111ZM49.9318 58.2814C49.9552 58.242 49.9339 58.1882 49.9217 58.1473C49.6692 57.3111 49.2338 56.4128 48.945 55.564C47.896 52.4806 47.4679 49.7132 47.5636 46.4386C47.6114 44.7944 47.9016 43.0612 47.5839 41.431C47.5594 41.3057 47.5014 40.9974 47.4529 40.8989C47.4358 40.8644 47.4197 40.8287 47.3736 40.8392C47.3373 40.8473 46.8663 41.3416 46.8666 41.3794C47.4089 42.2236 47.3485 43.402 47.3223 44.3824C47.2696 46.3387 47.0719 48.1976 47.2514 50.1734C47.513 53.0529 48.4593 55.733 49.4908 58.4029L49.5411 58.4598L49.9318 58.2811V58.2814ZM46.332 42.8049C46.5 42.9739 46.5736 43.4463 46.5893 43.6817C46.6714 44.9096 46.5234 46.2804 46.4846 47.523C46.3809 50.8616 46.6983 53.3741 47.8182 56.5161C48.0626 57.2022 48.3598 58.0876 48.6758 58.7294C48.6995 58.7776 48.7264 58.8823 48.7973 58.876C48.8256 58.8736 49.2785 58.6257 49.2939 58.6016C49.3169 58.5653 49.3162 58.5276 49.3036 58.4878C48.0717 55.5441 47.1149 52.4551 47.0049 49.2328C46.9546 47.7552 47.0821 46.3356 47.1477 44.8705C47.1823 44.0989 47.2116 43.3018 47.1065 42.5361C47.0842 42.373 46.9211 41.5222 46.7161 41.5414C46.6637 41.5546 46.6278 41.592 46.5869 41.6231C46.2091 41.9139 45.6172 42.5794 45.26 42.9491C44.9076 43.314 44.5494 43.689 44.2215 44.0734C43.0691 46.3569 41.9936 48.6871 40.7309 50.9122C38.8784 54.1764 36.3192 57.1397 35.3505 60.8337L36.66 60.9751C36.7916 60.2859 36.9226 59.5963 37.1213 58.9232C37.9747 56.0336 39.9934 53.5117 41.4289 50.8773C42.3658 49.1581 43.1473 47.3621 44.0102 45.6069C44.3262 44.9641 45.2313 42.9935 45.855 42.7407C46.032 42.6688 46.1881 42.6604 46.3316 42.8046L46.332 42.8049ZM23.817 42.4799C23.2617 43.3625 22.7579 44.277 22.2086 45.1635C21.4644 46.3649 20.6508 47.5251 19.9112 48.729C19.8099 48.8934 19.2345 49.8009 19.2282 49.898C19.2243 49.9563 19.4622 50.3944 19.4901 50.4011C19.5477 50.4116 19.5578 50.3546 19.5851 50.3222C19.7492 50.1259 19.9213 49.751 20.0718 49.5177C20.7255 48.5048 21.4463 47.5349 22.1038 46.5245C22.8609 45.3614 23.5421 44.1492 24.2849 42.9802L23.8166 42.4799H23.817ZM47.9495 59.2646L48.6042 58.9343C47.7089 56.683 46.8844 54.395 46.524 51.9827C46.1829 49.6979 46.369 47.5084 46.4486 45.219C46.4678 44.667 46.5223 44.1027 46.4441 43.5476C46.3928 43.182 46.2227 42.6433 45.768 42.9677C45.2725 43.3213 44.6464 44.6471 44.3594 45.2232C43.4515 47.0443 42.6487 48.9147 41.6734 50.7031C40.8063 52.2924 39.7912 53.7851 38.8823 55.3451C37.8616 57.0974 37.0616 58.9525 36.8147 60.9894L37.6894 61.0792C37.6877 60.7841 37.6964 60.4832 37.7243 60.1892C38.0589 56.6687 40.3227 54.0689 41.9527 51.0868C42.8491 49.4472 43.5954 47.6529 44.5232 46.0496C44.6583 45.8164 45.0124 45.1753 45.2816 45.1327C45.7621 45.0566 45.7988 45.6055 45.8201 45.9511C45.863 46.6533 45.7335 47.4717 45.7143 48.1829C45.6594 50.2363 45.8113 52.2055 46.2978 54.1977C46.7206 55.9295 47.3984 57.5751 47.9495 59.2639V59.2646ZM22.7875 49.1092C24.1305 47.8341 25.2033 46.3642 26.063 44.7239L24.6194 43.2819C23.1612 45.8789 21.3331 48.2297 19.6874 50.7031C19.6821 50.7604 20.2496 51.5592 20.3302 51.6542C20.3715 51.7027 20.4106 51.7725 20.4835 51.7617C20.647 51.5222 20.8558 51.2792 21.0594 51.0634C22.2781 49.7733 23.7614 48.7772 24.8803 47.3813C25.4564 46.6624 25.9198 45.8677 26.3769 45.0702C26.4027 44.9686 26.1985 44.8339 26.1199 44.7832C25.4718 45.977 24.7332 47.1257 23.8177 48.1326C23.5673 48.4081 23.1895 48.8037 22.9098 49.0394C22.8706 49.0726 22.8528 49.1239 22.7875 49.1089V49.1092ZM35.1731 60.7967C36.1966 56.9152 38.9109 53.8556 40.8357 50.4245C41.5795 49.0984 42.2265 47.7189 42.9186 46.3656L43.7958 44.4687C43.7909 44.4631 43.6854 44.5346 43.6687 44.5507C43.4414 44.7679 42.8215 45.3681 42.6784 45.6016C42.2723 46.2643 41.9122 47.2367 41.5459 47.9591C40.1436 50.723 38.4982 52.9775 36.872 55.5689C35.8628 57.1771 34.9856 58.8523 34.3396 60.6438C34.3431 60.7035 35.0617 60.8002 35.1731 60.7971V60.7967ZM22.2089 50.6598C23.3487 49.561 24.7332 48.7059 25.7176 47.4507C26.1782 46.8635 26.5145 46.2151 26.8654 45.5597C26.8976 45.4065 26.6203 45.3 26.5393 45.167C26.0176 46.0967 25.4638 46.9794 24.7601 47.7842C23.708 48.9874 22.3706 49.9067 21.2692 51.0634C21.0147 51.3305 20.7835 51.6269 20.5363 51.9014C20.5153 51.9485 20.7088 52.2097 20.7818 52.2177C20.838 52.217 21.1289 51.8068 21.1997 51.7265C21.5119 51.3724 21.8709 50.9863 22.2093 50.6598H22.2089ZM41.7719 46.4927L41.335 46.9106C40.9582 47.2699 40.829 47.7161 40.5912 48.156C40.1624 48.949 39.7081 49.7691 39.2388 50.5376C38.1846 52.2634 36.9792 53.9017 35.9092 55.6184C35.8324 55.6548 35.8879 55.5678 35.9022 55.5416C35.9414 55.4701 35.9913 55.3953 36.0342 55.3245C37.0249 53.6915 38.1367 52.1308 39.1344 50.5027C39.7406 49.5135 40.2735 48.4842 40.8643 47.4864L40.8297 47.4518C40.3223 48.0286 39.6442 48.546 39.1536 49.126C38.8861 49.4427 38.7974 49.7915 38.6022 50.1448C37.9985 51.2376 37.2861 52.4307 36.5657 53.4478C35.5035 54.9477 34.4576 56.2431 33.5647 57.8799C33.1991 58.5506 32.7158 59.4326 32.4829 60.149C32.4721 60.1829 32.4309 60.1832 32.4885 60.2241L33.6381 60.4828C33.6552 60.3767 33.6873 60.2712 33.7285 60.1721C35.5506 55.785 38.6958 52.1674 40.9753 48.016C41.2509 47.5143 41.4988 46.9951 41.7719 46.4923V46.4927ZM28.2196 46.8177C28.1812 46.7713 28.0443 46.6306 27.9884 46.6676C27.3847 47.854 26.4485 48.8362 25.4212 49.6672C24.3167 50.5603 23.3703 51.1772 22.4202 52.2847C22.1513 52.5983 21.9194 52.9481 21.6516 53.2634L21.6509 53.3319L21.8101 53.4904C21.8796 53.5204 22.1555 53.0616 22.2145 52.9862C22.6419 52.4373 23.1479 51.8298 23.6595 51.3598C24.3603 50.716 25.1816 50.209 25.91 49.597C26.8326 48.8215 27.6082 47.9336 28.2479 46.9113C28.2629 46.8743 28.2427 46.8453 28.2196 46.8177ZM26.7432 49.8896C27.5041 49.1598 28.2329 48.4032 28.8429 47.5373C28.9225 47.4473 28.5262 47.1128 28.4948 47.1205C27.8107 48.2021 27.011 49.1099 26.0144 49.9109C25.307 50.4793 24.5119 50.9615 23.8512 51.5864C23.1916 52.2111 22.6171 52.9939 22.0706 53.7177L22.0699 53.7851C22.1607 53.8245 22.4397 54.2533 22.5078 54.2044C22.8424 53.726 23.2045 53.2365 23.5914 52.7921C24.5255 51.7188 25.7131 50.877 26.7436 49.8896H26.7432ZM26.5072 50.2817C25.5958 51.1099 24.61 51.7774 23.7817 52.7037C23.3396 53.1978 22.9527 53.7393 22.5462 54.2623L22.8399 54.5881C23.4088 53.8716 23.9608 53.0979 24.6365 52.4771C24.9456 52.1933 25.3003 51.9538 25.6146 51.6755C26.9241 50.517 28.147 49.2237 29.204 47.8296C29.1809 47.7618 29.0388 47.5572 28.9637 47.5908C28.2308 48.5628 27.4063 49.4647 26.5068 50.282L26.5072 50.2817ZM29.732 48.376L29.7156 48.3062L29.2431 47.8697C28.9882 48.2576 28.705 48.6319 28.405 48.9863C27.7007 49.819 26.8117 50.7394 25.9984 51.4653C25.6062 51.8155 25.1638 52.122 24.7758 52.4764C24.0876 53.1053 23.5128 53.8898 22.9426 54.6241C22.9098 54.6646 22.9384 54.6806 22.9593 54.7113C22.9852 54.7491 23.3543 55.1174 23.3805 55.131C23.4213 55.152 23.4384 55.1474 23.4688 55.1139C23.8145 54.6482 24.1609 54.1792 24.5325 53.7337C25.6439 52.4021 26.9957 51.2548 28.1976 49.9996C28.6467 49.5306 29.0619 49.0254 29.5043 48.5502C29.5675 48.4821 29.6384 48.3914 29.7313 48.3756L29.732 48.376ZM47.1117 59.6134C46.258 57.1432 45.3228 54.6848 45.0529 52.0585C44.9377 50.9395 45.0218 49.7639 44.9087 48.678C44.8828 48.4287 44.8221 48.1326 44.5081 48.1965C44.161 48.2671 43.7944 48.9622 43.6156 49.2611C42.971 50.3375 42.3997 51.4925 41.7781 52.5885C40.63 54.6129 39.1232 56.6383 38.8107 59.0084C38.7185 59.7067 38.7346 60.4112 38.7356 61.1148H38.9106C38.8009 59.4968 39.0384 58.0283 39.7067 56.5545C40.4062 55.0127 41.4471 53.4694 42.3012 51.9953C42.656 51.3832 43.6254 49.3589 44.1666 49.0795C44.5151 48.8997 44.6443 49.2775 44.6943 49.5551C44.8455 50.3955 44.8057 51.4468 44.9171 52.3336C45.239 54.8947 46.1378 57.2326 46.9721 59.6494L47.1114 59.6138L47.1117 59.6134ZM27.5121 51.3211C28.3481 50.4412 29.1925 49.568 30.0305 48.6899L30.033 48.6204L29.7676 48.377C29.395 48.9032 28.9498 49.3875 28.5115 49.8609C27.0453 51.444 25.3548 52.819 24.045 54.5378C23.8833 54.7501 23.7366 54.9732 23.5718 55.1834C23.4974 55.2707 23.8051 55.5333 23.8522 55.5329L23.9046 55.5147C24.9033 53.9432 26.239 52.6615 27.5121 51.3214V51.3211ZM30.8113 49.4549C30.8389 49.4161 30.7527 49.3163 30.7275 49.2834C30.6573 49.1923 30.29 48.8173 30.2044 48.7587C30.1737 48.7374 30.1573 48.7091 30.1164 48.7412C28.31 50.7377 26.2983 52.5501 24.6226 54.6611C24.4811 54.9383 24.0995 55.2944 23.9916 55.5668C23.9765 55.6041 23.9584 55.6331 23.9898 55.6705L24.6372 56.1774C25.8227 54.3552 27.3784 52.8169 28.9068 51.2855C29.5001 50.6909 30.1032 50.0914 30.7087 49.509C30.7377 49.4811 30.7736 49.466 30.8113 49.4549ZM25.0528 56.4707C25.5584 55.5399 26.2292 54.7197 26.9223 53.9247C28.295 52.5023 29.6838 51.1032 31.1127 49.7373C31.1511 49.6836 31.016 49.5551 30.9727 49.5261C30.95 49.5111 30.9322 49.4901 30.9014 49.4919L27.7066 52.6507C26.8361 53.5857 25.9338 54.4998 25.2019 55.5542C25.1247 55.6656 24.7741 56.1478 24.7556 56.2277C24.7322 56.3286 25.0192 56.4934 25.0528 56.4704V56.4707ZM32.346 60.1693C32.572 59.5722 32.8415 58.993 33.1338 58.4263C34.6717 55.4442 36.9603 53.0759 38.5324 50.1102C38.6371 49.9126 38.7405 49.7087 38.8051 49.4936C38.3525 49.8829 37.9677 50.3445 37.5456 50.7638C36.2881 52.0135 35.0614 53.3071 33.849 54.6052C32.7165 55.8175 31.6037 57.0831 30.7296 58.5C30.6601 58.6128 30.1706 59.4183 30.2205 59.4738C30.3961 59.4766 30.9133 59.8023 31.0411 59.684C31.8607 58.1962 32.8866 56.8317 33.9715 55.5301C35.0327 54.2568 36.213 53.077 37.1939 51.738C37.4513 51.3867 37.6594 50.9873 37.9677 50.68C37.8413 50.9426 37.6859 51.1996 37.5288 51.4447C36.3583 53.2711 34.6724 54.8674 33.3273 56.5957C32.6575 57.456 31.8652 58.5119 31.3442 59.4633C31.3107 59.5244 31.1668 59.7723 31.2003 59.8198L32.346 60.1689V60.1693ZM30.8344 51.782C31.2307 51.3836 31.5974 50.9478 32.0349 50.5928C31.7758 50.3944 31.5055 49.9807 31.251 49.8068C31.2216 49.7869 31.2147 49.759 31.1637 49.773C31.1612 49.8148 31.141 49.8487 31.1127 49.878C29.3398 51.7411 27.1891 53.4621 25.7253 55.5895C25.5752 55.808 25.2382 56.2616 25.1519 56.484C25.1394 56.5161 25.1142 56.5412 25.1404 56.5776C25.1586 56.6118 25.7148 57.0308 25.7546 57.0486C25.7944 57.0664 25.821 57.0817 25.8587 57.05C25.9593 56.9037 26.0406 56.7459 26.144 56.6013C27.4151 54.8255 29.2881 53.3367 30.8344 51.782ZM43.8569 50.2708C43.6722 50.0991 43.3712 50.6301 43.2793 50.774C42.9455 51.2977 42.6843 51.8762 42.3711 52.4132C41.1922 54.4359 39.6575 56.4973 39.3334 58.8676C39.2301 59.6243 39.2671 60.3547 39.294 61.1141C40.8772 61.0484 42.4598 60.884 44.0057 60.5383C44.6992 60.3833 45.3717 60.1536 46.0642 59.9968C45.5212 58.3174 44.8573 56.6662 44.476 54.9372C44.2532 53.9279 44.1293 52.9132 44.0406 51.8829C44.0158 51.5938 44.0259 50.4276 43.8565 50.2701L43.8569 50.2708ZM32.1997 50.7261C32.1756 50.7055 32.1484 50.6926 32.1173 50.6863C31.5048 51.1926 30.9842 51.8298 30.4139 52.3909C29.1118 53.6716 27.6728 54.8217 26.5431 56.2672C26.4635 56.3691 25.8912 57.1093 25.9317 57.1673C26.0473 57.1907 26.4387 57.5758 26.5204 57.5185C26.613 57.2497 26.7858 57.0081 26.9471 56.7762C28.0412 55.204 29.681 54.0047 30.9898 52.6178L32.4393 51.0638C32.4627 51.0376 32.4532 51.0215 32.4393 50.9946C32.4309 50.9786 32.2182 50.7422 32.2001 50.7261H32.1997ZM32.6184 51.2073C32.1875 51.6608 31.7741 52.1339 31.3386 52.5829C29.9254 54.0399 28.1176 55.4585 26.9821 57.125C26.908 57.2336 26.6385 57.5629 26.7282 57.6791C26.754 57.7127 27.429 58.1205 27.465 58.0981C27.8564 57.3265 28.3795 56.6648 28.9466 56.0186L33.3105 51.7275C33.3479 51.6846 33.3245 51.6699 33.291 51.6402C33.2243 51.5812 33.0661 51.5219 32.9809 51.4614C32.8957 51.401 32.6886 51.1881 32.6184 51.2066V51.2073ZM34.9667 52.0763C34.738 52.0288 34.5571 52.2858 34.4073 52.4415C32.698 54.2201 30.2886 56.5461 29.1677 58.7179C29.1443 58.7636 29.0102 58.9637 29.1219 58.9853C29.1921 58.9933 29.1984 58.9204 29.2263 58.8813C29.4861 58.5202 29.7054 58.0744 29.9617 57.6973C30.9926 56.183 32.36 54.7972 33.6227 53.4712C34.0676 53.004 34.5369 52.5578 34.9667 52.076V52.0763Z" fill="#4B5A2A"/>
<path d="M20.3015 55.1907C20.5351 55.1603 20.7443 55.24 20.92 55.3918C21.655 56.0269 20.9011 57.1037 20.0658 56.7347C19.3552 56.4208 19.5127 55.2934 20.3019 55.1907H20.3015Z" fill="#4B5A2A"/>
<path d="M57.5387 19.0733C58.6669 18.9658 58.7713 20.6448 57.6298 20.6651C56.6695 20.6822 56.5002 19.1721 57.5387 19.0733Z" fill="#4B5A2A"/>
<path d="M40.5769 65.5897C41.6129 65.4308 41.8871 67.1099 40.7424 67.1864C39.7137 67.2551 39.6169 65.7367 40.5769 65.5897Z" fill="#4B5A2A"/>
<path d="M61.2009 51.1765C61.5881 51.0969 62.0752 51.3431 62.1444 51.7526C62.3651 53.057 60.4511 53.0654 60.6205 51.8169C60.6547 51.5641 60.9519 51.2275 61.2009 51.1762V51.1765Z" fill="#4B5A2A"/>
<path d="M22.6704 16.7028C23.4058 17.4364 22.2248 18.5087 21.5474 17.8083C20.835 17.0723 21.9224 15.9571 22.6704 16.7028Z" fill="#4B5A2A"/>
<path d="M35.553 8.77649C35.9378 8.73808 36.3548 9.06803 36.3956 9.45349C36.434 9.81416 36.1498 10.216 35.7842 10.2667C34.6905 10.4178 34.6161 8.87041 35.553 8.77684V8.77649Z" fill="#4B5A2A"/>
<path d="M66.2611 42.8012C67.1477 42.6172 67.535 43.8577 66.7486 44.231C65.7754 44.6929 65.2044 43.0205 66.2611 42.8012Z" fill="#4B5A2A"/>
<path d="M13.3905 29.052C14.3319 28.8597 14.693 30.198 13.7913 30.4658C12.8171 30.7552 12.5433 29.2252 13.3905 29.052Z" fill="#4B5A2A"/>
<path d="M26.7583 64.5425C27.5238 64.4587 27.8841 65.5858 27.1278 65.9259C26.0669 66.4028 25.7233 64.6556 26.7583 64.5425Z" fill="#4B5A2A"/>
<path d="M9.86646 31.8792C10.4912 31.7709 10.9622 32.3882 10.6309 32.9577C10.2401 33.6287 9.20579 33.2883 9.32032 32.4497C9.35454 32.2004 9.61435 31.9231 9.86646 31.8792Z" fill="#4B5A2A"/>
<path d="M53.0349 15.4078C53.675 15.3031 54.1436 16.1477 53.6561 16.6222C53.4484 16.8247 53.1893 16.9039 52.9152 16.8016C52.1756 16.5251 52.3278 15.5234 53.0346 15.4078H53.0349Z" fill="#4B5A2A"/>
<path d="M65.9478 30.2736C66.7381 30.1622 67.1054 31.2481 66.4067 31.6056C65.3814 32.13 64.879 30.4244 65.9478 30.2736Z" fill="#4B5A2A"/>
<path d="M16.6927 19.2258C15.9834 18.4622 17.1861 17.5289 17.7622 18.2782C18.3192 19.0027 17.279 19.8567 16.6927 19.2258Z" fill="#4B5A2A"/>
<path d="M61.9342 20.4678C62.7437 20.3282 63.1173 21.3732 62.3948 21.7656C61.7314 22.1263 61.049 21.3006 61.5253 20.7217C61.6151 20.6127 61.7953 20.4916 61.9342 20.4675V20.4678Z" fill="#4B5A2A"/>
<path d="M43.6483 10.5228C44.3174 10.4296 44.7095 11.2096 44.2339 11.7012C43.6343 12.3209 42.6688 11.4253 43.2233 10.7606C43.3295 10.6335 43.4849 10.5455 43.6483 10.5228Z" fill="#4B5A2A"/>
<path d="M55.5129 61.1226C56.0706 61.0448 56.5388 61.6659 56.2141 62.1732C55.795 62.8275 54.7038 62.374 54.9811 61.5681C55.0572 61.3468 55.2803 61.1551 55.5132 61.1226H55.5129Z" fill="#4B5A2A"/>
<path d="M35.8921 66.7173C36.1516 66.7243 36.3827 66.8737 36.4931 67.1087C36.8196 67.8032 35.9483 68.4303 35.3844 67.8685C34.9367 67.4223 35.281 66.7009 35.8921 66.7173Z" fill="#4B5A2A"/>
<path d="M13.2835 52.1337C13.0722 52.3198 12.7688 52.3313 12.5261 52.2C12.0065 51.9193 12.0669 51.1225 12.6424 50.9518C13.3746 50.7343 13.852 51.6337 13.2835 52.134V52.1337Z" fill="#4B5A2A"/>
<path d="M19.6343 60.6481C19.3835 60.8988 19.0127 60.8932 18.7386 60.6788C18.3485 60.3733 18.4114 59.7469 18.865 59.5476C19.6014 59.2239 20.1326 60.1499 19.6339 60.6481H19.6343Z" fill="#4B5A2A"/>
<path d="M14.1588 43.7788C15.2867 43.5867 15.2713 45.2358 14.1881 45.0933C13.4991 45.0025 13.5012 43.8908 14.1588 43.7788Z" fill="#4B5A2A"/>
<path d="M12.59 39.3808C13.0632 39.3431 13.442 39.8717 13.2769 40.3148C13.0017 41.0539 11.8092 40.7352 11.9849 39.8948C12.0397 39.6329 12.3285 39.4014 12.59 39.3808Z" fill="#4B5A2A"/>
<path d="M10.7042 46.5351C11.6073 46.4101 11.733 47.8929 10.7647 47.881C9.95941 47.8713 9.89202 46.6475 10.7042 46.5351Z" fill="#4B5A2A"/>
<path d="M57.1182 56.2372C58.2332 56.0466 58.1313 57.705 57.1532 57.5465C56.4307 57.4296 56.4593 56.35 57.1182 56.2372Z" fill="#4B5A2A"/>
<path d="M51.8129 11.778C52.5403 11.6279 52.8954 12.6219 52.2533 13.0206C51.6111 13.4194 50.9459 12.4924 51.4602 11.9833C51.5228 11.9212 51.7309 11.7951 51.8133 11.7784L51.8129 11.778Z" fill="#4B5A2A"/>
<path d="M15.452 54.8753C16.1231 54.8089 16.4597 55.8732 15.7376 56.1406C14.7599 56.5027 14.4606 54.973 15.452 54.8753Z" fill="#4B5A2A"/>
<path d="M31.249 9.97288C31.7983 9.93657 32.1709 10.5912 31.7923 11.0203C31.2706 11.6118 30.3201 10.8772 30.8146 10.2169C30.9078 10.0923 31.0932 9.98301 31.2493 9.97253L31.249 9.97288Z" fill="#4B5A2A"/>
<path d="M62.3174 46.5354C63.0029 46.3922 63.4017 47.242 62.814 47.6251C62.4093 47.8887 61.8373 47.551 61.8764 47.0731C61.8953 46.8405 62.0835 46.5842 62.3174 46.5354Z" fill="#4B5A2A"/>
<path d="M23.6859 12.7903C24.1507 12.7163 24.539 13.2159 24.2953 13.6447C23.9834 14.1939 23.1185 13.939 23.2093 13.2564C23.2404 13.0232 23.4586 12.8266 23.6856 12.7907L23.6859 12.7903Z" fill="#4B5A2A"/>
<path d="M15.855 26.5085C16.3735 25.9324 17.1777 26.7853 16.5771 27.2829C16.0858 27.6896 15.451 26.9578 15.855 26.5085Z" fill="#4B5A2A"/>
<path d="M65.7008 50.6336C65.2723 51.0522 64.5788 50.5303 64.9154 50.0051C65.3484 49.3299 66.2389 50.1074 65.7008 50.6336Z" fill="#4B5A2A"/>
<path d="M23.406 60.9479C23.8788 60.8495 24.2356 61.3477 23.9577 61.7436C23.6012 62.2516 22.8078 61.7883 23.0819 61.2168C23.1357 61.1043 23.2834 60.9731 23.406 60.9476V60.9479Z" fill="#4B5A2A"/>
<path d="M61.3061 55.7487C61.89 55.6523 62.1529 56.4316 61.6316 56.7019C60.9391 57.0611 60.5557 55.8723 61.3061 55.7487Z" fill="#4B5A2A"/>
<path d="M67.3641 38.9665C67.5121 38.8227 67.7604 38.8181 67.935 38.9128C68.4504 39.1921 68.1791 40.0182 67.5258 39.8453C67.1916 39.757 67.1221 39.2012 67.3641 38.9665Z" fill="#4B5A2A"/>
<path d="M64.7604 25.9117C65.464 25.7822 65.6243 26.713 65.0237 26.8377C64.3417 26.9791 64.2097 26.0133 64.7604 25.9117Z" fill="#4B5A2A"/>
<path d="M12.6577 23.9918C13.2443 23.8727 13.4779 24.7075 12.9545 24.917C12.2729 25.1897 12.0204 24.1213 12.6577 23.9918Z" fill="#4B5A2A"/>
<path d="M61.3373 25.4019C60.9602 25.779 60.3603 25.3719 60.5757 24.867C60.8684 24.1806 61.8911 24.8485 61.3373 25.4019Z" fill="#4B5A2A"/>
<path d="M65.947 34.95C66.7718 34.8019 66.6761 36.0257 65.947 35.8759C65.4826 35.7806 65.4361 35.0418 65.947 34.95Z" fill="#4B5A2A"/>
<path d="M48.5325 65.9036C49.1684 65.7716 49.3608 66.8215 48.66 66.8711C48.0757 66.9126 48.008 66.0121 48.5325 65.9036Z" fill="#4B5A2A"/>
<path d="M52.4735 60.0448C52.8601 60.4547 52.2874 61.1363 51.8216 60.7491C51.3058 60.3207 52.0346 59.5791 52.4735 60.0448Z" fill="#4B5A2A"/>
<path d="M15.6458 22.1116C16.0415 21.6577 16.72 22.1832 16.3816 22.6901C16.0066 23.2519 15.2432 22.5735 15.6458 22.1116Z" fill="#4B5A2A"/>
<path d="M57.1875 15.5124C57.8866 15.3661 57.9606 16.4512 57.2835 16.4139C56.7283 16.3835 56.7202 15.6101 57.1875 15.5124Z" fill="#4B5A2A"/>
<path d="M29.7557 62.2431C30.1188 62.6027 29.6083 63.2661 29.1564 62.9295C28.6264 62.5343 29.2923 61.7843 29.7557 62.2431Z" fill="#4B5A2A"/>
<path d="M40.9251 8.5677C41.5903 8.42978 41.6853 9.35469 41.1451 9.4535C40.5595 9.56034 40.3734 8.68222 40.9251 8.5677Z" fill="#4B5A2A"/>
<path d="M33.5282 12.5442C34.0614 12.4845 34.2521 13.3546 33.656 13.4429C33.0316 13.5354 32.9475 12.6091 33.5282 12.5442Z" fill="#4B5A2A"/>
<path d="M28.6416 12.9293C29.229 12.8438 29.3264 13.6681 28.8683 13.7858C28.157 13.968 28.0745 13.0121 28.6416 12.9293Z" fill="#4B5A2A"/>
<path d="M47.5911 10.2774C48.0796 10.1922 48.3921 10.8441 47.8977 11.1077C47.3075 11.4219 46.965 10.3867 47.5911 10.2774Z" fill="#4B5A2A"/>
<path d="M9.65673 42.592C10.3254 42.4548 10.4037 43.5707 9.65079 43.4541C9.19788 43.3839 9.19963 42.6856 9.65673 42.592Z" fill="#4B5A2A"/>
<path d="M33.3734 64.4873C32.976 64.1077 33.5511 63.4562 33.974 63.9042C34.3518 64.3043 33.7613 64.8581 33.3734 64.4873Z" fill="#4B5A2A"/>
<path d="M31.1163 65.94C31.6241 65.9139 31.71 66.7682 31.1802 66.8045C30.6191 66.8433 30.5478 65.9694 31.1163 65.94Z" fill="#4B5A2A"/>
<path d="M8.95791 38.2294C9.30955 38.1282 9.68144 38.418 9.49811 38.7699C9.20269 39.3369 8.48126 38.8621 8.75049 38.4061C8.77737 38.3604 8.91391 38.2423 8.95791 38.2298V38.2294Z" fill="#4B5A2A"/>
<path d="M15.5203 47.9993C16.0899 47.8918 16.1873 48.8023 15.6132 48.8282C15.1407 48.8495 15.0108 48.0953 15.5203 47.9993Z" fill="#4B5A2A"/>
<path d="M44.7508 64.616C45.0591 64.292 45.6412 64.6272 45.3972 65.1055C45.1248 65.639 44.3698 65.0162 44.7508 64.616Z" fill="#4B5A2A"/>
<path d="M44.4143 67.1587C44.8815 67.0539 45.105 67.682 44.7282 67.8915C44.1723 68.2002 43.8504 67.2854 44.4143 67.1587Z" fill="#4B5A2A"/>
<path d="M49.161 14.0814C49.6604 13.9795 49.8608 14.6223 49.4746 14.8133C48.9449 15.0755 48.5964 14.1967 49.161 14.0814Z" fill="#4B5A2A"/>
<path d="M38.3987 11.8978C38.0352 11.5169 38.5939 10.9369 38.9644 11.3496C39.2853 11.7068 38.7682 12.2854 38.3987 11.8978Z" fill="#4B5A2A"/>
<path d="M21.034 20.3973C21.511 20.3184 21.6654 21.0488 21.2275 21.1501C20.6195 21.2904 20.5654 20.4752 21.034 20.3973Z" fill="#4B5A2A"/>
<path d="M26.7924 10.6956C27.341 10.6052 27.4273 11.4061 26.9188 11.4539C26.4171 11.5011 26.3231 10.7728 26.7924 10.6956Z" fill="#4B5A2A"/>
<path d="M48.7072 62.1687C49.2372 62.0486 49.3951 62.8198 48.901 62.9211C48.3747 63.029 48.279 62.2654 48.7072 62.1687Z" fill="#4B5A2A"/>
<path d="M59.1421 59.4823C59.7312 59.3619 59.822 60.1792 59.2724 60.2086C58.7716 60.2351 58.7262 59.5675 59.1421 59.4823Z" fill="#4B5A2A"/>
<path d="M18.2422 52.4674C18.7919 52.3759 18.8362 53.1918 18.3288 53.2191C17.8483 53.2449 17.7984 52.541 18.2422 52.4674Z" fill="#4B5A2A"/>
<path d="M51.9868 64.0531C52.6492 63.9016 52.652 64.992 51.9637 64.7591C51.6791 64.6627 51.6788 64.1233 51.9868 64.0531Z" fill="#4B5A2A"/>
<path d="M10.7702 28.2644C10.4291 28.6229 9.89025 28.1058 10.2 27.7637C10.5586 27.3677 11.0978 27.9204 10.7702 28.2644Z" fill="#4B5A2A"/>
<path d="M25.2065 16.0031C25.526 15.6411 26.1183 16.1355 25.7694 16.514C25.438 16.8736 24.8909 16.3607 25.2065 16.0031Z" fill="#4B5A2A"/>
<path d="M19.6241 15.4221C19.2907 15.067 19.8228 14.5544 20.1713 14.9273C20.5125 15.2925 19.9545 15.7737 19.6241 15.4221Z" fill="#4B5A2A"/>
<path d="M10.4605 35.5417C10.8411 35.4865 11.0621 36.004 10.6902 36.2274C10.2035 36.5204 9.89723 35.623 10.4605 35.5417Z" fill="#4B5A2A"/>
<path d="M66.7859 46.7788C67.1589 46.7271 67.3499 47.2795 66.978 47.4617C66.4786 47.7065 66.1864 46.8619 66.7859 46.7788Z" fill="#4B5A2A"/>
<path d="M64.0287 53.6878C64.5008 53.5977 64.6244 54.3941 64.086 54.4126C63.6851 54.4262 63.58 53.7733 64.0287 53.6878Z" fill="#4B5A2A"/>
<path d="M61.5844 28.2137C62.054 28.1069 62.2311 28.7877 61.8127 28.8956C61.2945 29.0293 61.1734 28.307 61.5844 28.2137Z" fill="#4B5A2A"/>
<path d="M19.7082 44.8605C19.9478 44.8476 20.2083 45.1245 20.2079 45.3584C20.2062 46.1007 19.1701 45.9461 19.1953 45.3612C19.2051 45.1374 19.4872 44.8724 19.7082 44.8602V44.8605Z" fill="#4B5A2A"/>
<path d="M26.8958 30.5874C27.5918 30.4446 27.5743 31.4449 26.9884 31.4854C26.4 31.5259 26.401 30.689 26.8958 30.5874Z" fill="#4B5A2A"/>
<path d="M32.5509 25.247C33.0129 25.1838 33.2392 25.7561 32.8208 26.0431C32.1413 26.5096 31.8263 25.3462 32.5509 25.247Z" fill="#4B5A2A"/>
<path d="M31.1538 27.6561C31.7289 27.5381 31.8899 28.3998 31.3472 28.5126C30.6509 28.6575 30.646 27.7605 31.1538 27.6561Z" fill="#4B5A2A"/>
<path d="M39.8438 17.0118C40.2859 16.9245 40.5418 17.5439 40.0956 17.8228C39.563 18.1556 39.1531 17.1479 39.8438 17.0118Z" fill="#4B5A2A"/>
<path d="M18.7315 42.7652C19.293 42.6877 19.3073 43.5515 18.7919 43.5975C18.1819 43.652 18.2116 42.8371 18.7315 42.7652Z" fill="#4B5A2A"/>
<path d="M21.556 43.2918C21.8521 43.6483 21.2054 44.1616 20.902 43.7894C20.5643 43.3753 21.2592 42.9343 21.556 43.2918Z" fill="#4B5A2A"/>
<path d="M35.2377 22.106C35.6165 22.0348 35.7908 22.5334 35.4538 22.7436C34.9583 23.0529 34.6884 22.2094 35.2377 22.106Z" fill="#4B5A2A"/>
<path d="M18.9044 47.8252C19.4027 47.7149 19.4324 48.453 18.9991 48.4806C18.5682 48.5078 18.5318 47.9079 18.9044 47.8252Z" fill="#4B5A2A"/>
<path d="M37.6098 18.4064C37.9852 18.3289 38.0508 18.8736 37.7257 18.978C37.3088 19.1117 37.2553 18.4798 37.6098 18.4064Z" fill="#4B5A2A"/>
<path d="M25.0651 33.0832C24.8406 32.8451 25.2348 32.3664 25.4943 32.6712C25.7537 32.976 25.2882 33.3203 25.0651 33.0832Z" fill="#4B5A2A"/>
<path d="M27.1402 32.192C27.5079 32.1106 27.5177 32.5984 27.2457 32.7167C26.8741 32.8784 26.8095 32.2653 27.1402 32.192Z" fill="#4B5A2A"/>
<path d="M20.0555 41.3348C20.4815 41.2071 20.5513 41.7832 20.1787 41.8453C19.8603 41.8984 19.8002 41.4113 20.0555 41.3348Z" fill="#4B5A2A"/>
<path d="M18.3666 44.5972C18.1012 44.307 18.5967 43.9833 18.7766 44.2389C18.9564 44.4945 18.589 44.8405 18.3666 44.5972Z" fill="#4B5A2A"/>
<path d="M37.7484 20.8683C37.5602 21.0984 37.154 20.9189 37.2885 20.5995C37.4278 20.2688 37.989 20.5743 37.7484 20.8683Z" fill="#4B5A2A"/>
<path d="M29.6725 30.43C29.4644 30.1769 29.8551 29.8585 30.0661 30.0882C30.2972 30.3399 29.9026 30.7097 29.6725 30.43Z" fill="#4B5A2A"/>
<path d="M39.1088 19.2617C38.8455 19.5487 38.5201 19.1039 38.7872 18.8877C39.0543 18.6716 39.3148 19.0368 39.1088 19.2617Z" fill="#4B5A2A"/>
<path d="M28.4842 29.1751C28.2757 28.9649 28.6029 28.5526 28.8236 28.7488C29.0764 28.9737 28.686 29.3787 28.4842 29.1751Z" fill="#4B5A2A"/>
<path d="M33.5237 23.6098C33.7287 23.5906 33.8652 23.8783 33.6781 24.0386C33.3327 24.3339 33.0659 23.6527 33.5237 23.6098Z" fill="#4B5A2A"/>
<path d="M28.8166 32.1213C29.2318 32.0857 28.9912 32.8441 28.598 32.534C28.5324 32.3563 28.6131 32.1388 28.8166 32.1213Z" fill="#4B5A2A"/>
<path d="M30.0711 26.7475C30.4845 26.6218 30.4301 27.3159 30.0009 27.1871C29.8249 27.1343 29.8986 26.7998 30.0711 26.7475Z" fill="#4B5A2A"/>
<path d="M23.3911 35.2449C23.1547 35.0532 23.498 34.6834 23.7309 34.888C23.8789 35.1038 23.6034 35.4166 23.3911 35.2449Z" fill="#4B5A2A"/>
<path d="M35.5356 20.3647C35.7451 20.1165 36.087 20.4758 35.838 20.6853C35.6104 20.8769 35.3341 20.6039 35.5356 20.3647Z" fill="#4B5A2A"/>
<path d="M18.2412 46.4977C18.5143 46.4237 18.6205 46.9247 18.3009 46.9456C18.0136 46.9645 18.0331 46.5539 18.2412 46.4977Z" fill="#4B5A2A"/>
<path d="M21.3482 39.3819C21.4998 39.5327 21.2232 39.9604 21.0186 39.7122C20.8429 39.4992 21.1694 39.2038 21.3482 39.3819Z" fill="#4B5A2A"/>
<path d="M53.8037 22.4917C54.0062 22.6942 53.672 23.0933 53.4468 22.8315C53.2195 22.5672 53.6256 22.314 53.8037 22.4917Z" fill="#4B5A2A"/>
<path d="M51.412 20.2583C51.6396 20.0306 51.9654 20.5509 51.5922 20.5977C51.3509 20.628 51.2971 20.3732 51.412 20.2583Z" fill="#4B5A2A"/>
</g>
<defs>
<linearGradient id="paint0_linear_390_3327" x1="38.5" y1="0" x2="38.5" y2="77" gradientUnits="userSpaceOnUse">
<stop stop-color="#F7F3CF"/>
<stop offset="1" stop-color="#EFE28B"/>
</linearGradient>
<clipPath id="clip0_390_3327">
<rect width="67" height="67" fill="white" transform="translate(5 5)"/>
</clipPath>
</defs>
</svg>
