<svg width="69" height="69" viewBox="0 0 69 69" fill="none" xmlns="http://www.w3.org/2000/svg">
<g clip-path="url(#clip0_390_3098)">
<path d="M31.9859 3.71026C31.1264 3.51281 31.1933 4.75686 31.905 4.62199C32.4369 4.52128 32.3934 3.80377 31.9859 3.71026Z" fill="#4B5A2A"/>
<path d="M33.5212 0L31.0956 0.180188C13.7939 1.92056 0.694375 15.8921 0.0265598 33.2703C-0.714258 52.5533 14.4178 68.3663 33.5748 68.9824C52.1075 69.5783 68.0998 54.9094 68.9597 36.3616C68.9737 36.0623 68.9162 35.7311 68.9942 35.4434C68.9795 34.7618 69.014 34.0756 68.9942 33.3944C68.4569 15.012 53.66 0.523299 35.3542 0H33.5212ZM57.2551 57.8884C46.1285 68.8302 28.4394 70.18 15.6837 61.175C1.59199 51.2269 -2.39441 31.9633 6.76692 17.2218C13.2401 6.80541 25.0097 0.995887 37.2768 2.01335C54.2803 3.42392 67.2957 17.6444 67.1235 34.7413C67.0339 43.6399 63.5564 51.6919 57.2547 57.8884H57.2551Z" fill="#4B5A2A"/>
<path d="M14.9133 14.5311C13.8423 14.3581 13.5165 16.0269 14.6371 16.1729C15.7573 16.319 15.9529 14.6994 14.9133 14.5311Z" fill="#4B5A2A"/>
<path d="M32.3443 62.3767C31.3852 62.2131 30.9429 63.5402 31.7941 63.9333C32.8208 64.4073 33.4915 62.959 32.5759 62.4684C32.5101 62.4332 32.4166 62.3889 32.3443 62.3767Z" fill="#4B5A2A"/>
<path d="M59.623 30.7791C58.6873 30.618 58.2094 31.8013 59.0192 32.2814C60.1276 32.9385 60.8148 30.9841 59.623 30.7791Z" fill="#4B5A2A"/>
<path d="M51.4637 11.836C50.5718 11.7259 50.1831 12.9685 51.0117 13.3663C52.143 13.9098 52.6515 11.9824 51.4637 11.836Z" fill="#4B5A2A"/>
<path d="M11.9449 38.5471C11.381 37.9706 10.3238 38.5913 10.61 39.397C10.7985 39.9275 11.5418 40.0893 11.9403 39.6868C12.2366 39.3876 12.2366 38.8453 11.9449 38.5471Z" fill="#4B5A2A"/>
<path d="M37.965 4.14678C37.1641 3.3372 35.9795 4.70281 36.9951 5.35019C37.7722 5.8458 38.5612 4.74957 37.965 4.14678Z" fill="#4B5A2A"/>
<path d="M5.89238 38.9753C4.74699 38.793 4.65888 40.4053 5.65323 40.5103C6.61306 40.6114 6.83494 39.1253 5.89238 38.9753Z" fill="#4B5A2A"/>
<path d="M61.5277 41.383C60.8293 41.2409 60.2593 41.8825 60.6484 42.5141C61.1641 43.3514 62.4566 42.6659 61.9995 41.7739C61.919 41.6168 61.7018 41.4182 61.5277 41.383Z" fill="#4B5A2A"/>
<path d="M5.89244 26.1779C5.00526 26.0272 4.61831 27.1292 5.31885 27.578C6.01723 28.0254 6.8217 27.2104 6.38009 26.5163C6.28371 26.3649 6.07081 26.2081 5.89208 26.1775L5.89244 26.1779Z" fill="#4B5A2A"/>
<path d="M14.9122 22.4401C14.2282 22.356 13.7151 23.1691 14.2383 23.7259C14.8144 24.3388 15.7804 23.7068 15.5254 22.9415C15.4434 22.6955 15.1726 22.4721 14.9119 22.4401H14.9122Z" fill="#4B5A2A"/>
<path d="M47.0219 61.5174C46.276 60.7157 45.1335 62.0594 46.039 62.6622C46.8414 63.1963 47.6221 62.1622 47.0219 61.5174Z" fill="#4B5A2A"/>
<path d="M46.015 56.7728C45.7449 56.5027 45.222 56.5121 44.9484 56.7768C44.3615 57.3443 44.9441 58.2956 45.7848 58.0086C46.2941 57.8349 46.3739 57.1314 46.015 56.7728Z" fill="#4B5A2A"/>
<path d="M59.5903 26.1203C60.2366 26.7619 61.2586 25.9081 60.7278 25.1442C60.1316 24.2864 58.8056 25.3413 59.5903 26.1203Z" fill="#4B5A2A"/>
<path d="M26.9533 10.577C26.3128 10.4702 25.8184 11.105 26.1657 11.688C26.3858 12.0574 26.8871 12.1656 27.2432 11.9283C27.7776 11.5722 27.5927 10.6839 26.9533 10.577Z" fill="#4B5A2A"/>
<path d="M7.15024 30.9587C6.47955 30.8512 5.99514 31.5928 6.40295 32.1373C6.89275 32.7912 7.87344 32.3614 7.73535 31.559C7.68716 31.2799 7.43254 31.0041 7.14988 30.9587H7.15024Z" fill="#4B5A2A"/>
<path d="M19.9229 12.0297C20.6018 11.3982 19.6467 10.2311 18.8965 10.9134C18.1758 11.569 19.1882 12.7131 19.9229 12.0297Z" fill="#4B5A2A"/>
<path d="M56.4585 13.4155C55.6134 13.3479 55.2861 14.5844 56.1636 14.8635C57.2295 15.2026 57.5172 13.5 56.4585 13.4155Z" fill="#4B5A2A"/>
<path d="M64.3447 28.9966C65.0115 28.3018 63.9452 27.2566 63.2601 27.9655C62.589 28.66 63.6665 29.703 64.3447 28.9966Z" fill="#4B5A2A"/>
<path d="M9.70538 17.2055C10.316 17.8119 11.3503 16.9998 10.8065 16.2661C10.211 15.463 8.93975 16.4448 9.70538 17.2055Z" fill="#4B5A2A"/>
<path d="M22.3917 58.4733C22.4607 58.5341 22.6024 58.6053 22.6934 58.6211C23.8643 58.8247 23.8873 57.1117 22.7563 57.2278C22.1475 57.2904 21.927 58.0644 22.3917 58.4733Z" fill="#4B5A2A"/>
<path d="M29.0409 5.69298C28.7794 5.68759 28.4791 5.88216 28.3749 6.12205C28.0584 6.85035 29.0452 7.54449 29.5864 6.86654C29.9701 6.38568 29.6342 5.70521 29.0409 5.69298Z" fill="#4B5A2A"/>
<path d="M37.2309 63.5271C36.0607 63.3836 36.2585 65.3233 37.4014 64.901C38.0688 64.6547 37.9706 63.6178 37.2309 63.5271Z" fill="#4B5A2A"/>
<path d="M17.0702 57.8108C15.9723 57.5827 15.7853 59.271 16.972 59.1699C17.77 59.1019 17.7258 57.9471 17.0702 57.8108Z" fill="#4B5A2A"/>
<path d="M18.6778 56.308C18.7468 56.3688 18.8885 56.44 18.9795 56.4559C20.1504 56.6594 20.1735 54.9464 19.0425 55.0625C18.4336 55.1251 18.2132 55.8991 18.6778 56.308Z" fill="#4B5A2A"/>
<path d="M13.3563 55.646C12.2584 55.4179 12.0714 57.1062 13.2582 57.0051C14.0562 56.9371 14.0119 55.7823 13.3563 55.646Z" fill="#4B5A2A"/>
<path d="M61.2402 35.4523C60.4706 35.3229 60.0776 36.3281 60.7292 36.7539C61.0637 36.9726 61.5484 36.8036 61.7279 36.4623C61.9404 36.058 61.6941 35.5286 61.2402 35.4523Z" fill="#4B5A2A"/>
<path d="M56.1348 41.3823C55.4015 41.3251 55.0534 42.4159 55.8154 42.7112C56.9018 43.1324 57.1859 41.4643 56.1348 41.3823Z" fill="#4B5A2A"/>
<path d="M54.4457 56.0854C53.6804 56.0037 53.4017 57.101 54.09 57.4132C55.07 57.8574 55.5335 56.2015 54.4457 56.0854Z" fill="#4B5A2A"/>
<path d="M57.5743 45.6248C56.5789 45.4198 56.3984 46.7944 57.2028 46.9667C58.1932 47.1789 58.3784 45.7902 57.5743 45.6248Z" fill="#4B5A2A"/>
<path d="M20.7719 6.98231C19.7502 6.80788 19.7017 8.34325 20.6421 8.36231C21.4548 8.3785 21.5929 7.12258 20.7719 6.98231Z" fill="#4B5A2A"/>
<path d="M58.2554 51.3766C57.3783 51.2806 57.2438 52.5937 58.0529 52.6951C59.025 52.8167 59.1109 51.4701 58.2554 51.3766Z" fill="#4B5A2A"/>
<path d="M41.3686 6.27769C41.9677 6.86357 43.0214 5.87308 42.236 5.28432C41.5664 4.78224 40.8123 5.73353 41.3686 6.27769Z" fill="#4B5A2A"/>
<path d="M31.6975 9.24703C30.6147 9.05965 30.6769 10.6263 31.667 10.4932C32.3672 10.399 32.3654 9.36284 31.6975 9.24703Z" fill="#4B5A2A"/>
<path d="M19.445 19.3627C19.7435 19.6821 20.3188 19.6076 20.5015 19.2041C20.7536 18.6466 20.2217 18.1233 19.664 18.3308C19.2475 18.4855 19.1533 19.0505 19.445 19.3627Z" fill="#4B5A2A"/>
<path d="M9.95358 42.7855C8.87544 42.601 8.91428 44.1274 9.89029 44.035C10.5944 43.9684 10.5872 42.8938 9.95358 42.7855Z" fill="#4B5A2A"/>
<path d="M49.7389 8.0251C49.0348 7.90677 48.741 8.87569 49.3559 9.16269C50.1935 9.55364 50.6351 8.1758 49.7389 8.0251Z" fill="#4B5A2A"/>
<path d="M11.1388 27.7946C10.5601 27.7097 10.1851 28.5894 10.7975 28.8922C11.6325 29.3051 12.0173 27.9233 11.1388 27.7946Z" fill="#4B5A2A"/>
<path d="M55.7443 34.737C55.1757 35.3473 56.165 36.1713 56.6246 35.4556C57.0126 34.8517 56.188 34.2604 55.7443 34.737Z" fill="#4B5A2A"/>
<path d="M57.4662 22.0441C56.6765 21.916 56.5927 23.1058 57.3364 23.1367C58.0384 23.1662 58.1085 22.148 57.4662 22.0441Z" fill="#4B5A2A"/>
<path d="M49.991 57.5956C49.075 57.4399 49.23 58.9065 50.0525 58.6102C50.5678 58.4242 50.5121 57.6841 49.991 57.5956Z" fill="#4B5A2A"/>
<path d="M4.59872 34.9129C4.39122 34.8701 4.19594 34.9086 4.05533 35.0719C3.6673 35.5218 4.19343 36.2012 4.70876 35.8689C5.05688 35.6445 5.02559 35.0007 4.59872 34.9125V34.9129Z" fill="#4B5A2A"/>
<path d="M6.50602 47.0064C6.98755 47.488 7.69888 46.7679 7.26842 46.2979C6.76495 45.748 6.01334 46.5133 6.50602 47.0064Z" fill="#4B5A2A"/>
<path d="M7.43814 21.6124C6.82175 21.4983 6.5319 22.2432 7.05587 22.5338C7.72476 22.9046 8.15451 21.7447 7.43814 21.6124Z" fill="#4B5A2A"/>
<path d="M61.3264 20.4778C61.7939 20.0074 61.1272 19.2575 60.6183 19.7517C60.1235 20.2329 60.9117 20.895 61.3264 20.4778Z" fill="#4B5A2A"/>
<path d="M11.4279 20.2105C10.7359 20.0684 10.582 21.0762 11.1927 21.2002C11.8831 21.3409 12.013 20.3306 11.4279 20.2105Z" fill="#4B5A2A"/>
<path d="M16.5697 18.7049C16.0497 19.1951 16.9063 19.9216 17.3123 19.3577C17.6755 18.8531 16.9915 18.3075 16.5697 18.7049Z" fill="#4B5A2A"/>
<path d="M57.7542 17.5145C57.0246 17.3645 56.9275 18.4658 57.623 18.5115C58.1444 18.5456 58.3228 17.6314 57.7542 17.5145Z" fill="#4B5A2A"/>
<path d="M24.3792 63.5416C24.7586 63.1392 24.2623 62.4073 23.7631 62.7996C23.1935 63.2471 23.9235 64.025 24.3792 63.5416Z" fill="#4B5A2A"/>
<path d="M15.092 10.8282C14.6259 10.8012 14.4375 11.4986 14.9144 11.7622C15.5426 12.1096 15.9371 10.8771 15.092 10.8282Z" fill="#4B5A2A"/>
<path d="M35.6153 59.3565C34.9572 59.2213 34.8255 60.1604 35.3801 60.2744C36.0313 60.4082 36.1809 59.4727 35.6153 59.3565Z" fill="#4B5A2A"/>
<path d="M39.677 7.8441C38.9905 7.68693 38.7888 8.55693 39.3778 8.71806C39.9935 8.88638 40.1877 7.96098 39.677 7.8441Z" fill="#4B5A2A"/>
<path d="M25.0523 5.43952C24.4636 5.40427 24.3633 6.27284 24.9156 6.36096C25.5766 6.4667 25.6554 5.47585 25.0523 5.43952Z" fill="#4B5A2A"/>
<path d="M64.2236 38.723C63.4842 38.573 63.4425 39.6789 64.1599 39.6149C64.6443 39.5718 64.6933 38.8183 64.2236 38.723Z" fill="#4B5A2A"/>
<path d="M44.6357 8.16782C44.1549 8.07035 43.8481 8.68608 44.2847 8.98639C44.8831 9.3982 45.3074 8.30377 44.6357 8.16782Z" fill="#4B5A2A"/>
<path d="M30.3317 58.2427C29.6218 58.0582 29.5484 59.1192 30.1968 59.0998C30.7078 59.0847 30.7495 58.3514 30.3317 58.2427Z" fill="#4B5A2A"/>
<path d="M39.4239 60.4712C39.0222 60.4478 38.7564 61.015 39.1815 61.2897C39.7831 61.6785 40.1276 60.5122 39.4239 60.4712Z" fill="#4B5A2A"/>
<path d="M64.7977 34.2278C64.2086 34.1545 64.1184 35.0119 64.6668 35.0809C65.3051 35.1615 65.2947 34.2897 64.7977 34.2278Z" fill="#4B5A2A"/>
<path d="M42.0833 62.735C41.6029 62.6649 41.4008 63.3425 41.8255 63.5687C42.3894 63.869 42.7328 62.83 42.0833 62.735Z" fill="#4B5A2A"/>
<path d="M19.4053 14.8895C18.8364 14.7805 18.6677 15.6077 19.178 15.7293C19.8189 15.8818 19.8947 14.9834 19.4053 14.8895Z" fill="#4B5A2A"/>
<path d="M62.642 45.3736C61.9778 45.238 61.8962 46.2299 62.5435 46.1943C63.0236 46.1681 63.0714 45.461 62.642 45.3736Z" fill="#4B5A2A"/>
<path d="M23.4661 9.35291C23.0403 9.2727 22.712 9.9075 23.1913 10.133C23.8189 10.4283 24.0577 9.4644 23.4661 9.35291Z" fill="#4B5A2A"/>
<path d="M28.5501 64.6935C28.9363 64.2568 28.2764 63.6915 27.9132 64.1464C27.5543 64.5963 28.2423 65.0416 28.5501 64.6935Z" fill="#4B5A2A"/>
<path d="M15.3081 26.5362C14.7475 26.428 14.6026 27.2437 15.1096 27.3473C15.6893 27.4659 15.8235 26.6355 15.3081 26.5362Z" fill="#4B5A2A"/>
<path d="M27.7435 61.2243C27.2026 61.1433 27.1224 61.94 27.5446 62.0364C28.175 62.1806 28.289 61.3059 27.7435 61.2243Z" fill="#4B5A2A"/>
<path d="M9.95124 48.7363C10.0203 48.797 10.162 48.8682 10.253 48.8841C11.4239 49.0876 11.4469 47.3746 10.3159 47.4908C9.70705 47.5533 9.48661 48.3273 9.95124 48.7363Z" fill="#4B5A2A"/>
<path d="M41.5102 54.084C40.34 53.9405 40.5378 55.8801 41.6807 55.4579C42.3481 55.2115 42.2499 54.1747 41.5102 54.084Z" fill="#4B5A2A"/>
<path d="M16.3587 32.1395C16.7381 31.7371 16.2418 31.0052 15.7426 31.3975C15.173 31.845 15.903 32.6229 16.3587 32.1395Z" fill="#4B5A2A"/>
<path d="M19.7225 29.8224C19.1816 29.7415 19.1014 30.5381 19.5236 30.6345C20.154 30.7787 20.268 29.9041 19.7225 29.8224Z" fill="#4B5A2A"/>
<path d="M52.5077 15.9321C51.8255 15.7753 51.8108 16.837 52.4405 16.7496C52.9026 16.6856 52.9037 16.0231 52.5077 15.9321Z" fill="#4B5A2A"/>
<path d="M34.4295 6.40649C33.7052 6.24104 33.7174 7.30059 34.3194 7.21823C34.7762 7.15601 34.7654 6.48309 34.4295 6.40649Z" fill="#4B5A2A"/>
<path d="M22.2813 13.2009C21.6893 13.0801 21.5789 13.8429 21.982 13.9673C22.5891 14.1544 22.7858 13.3041 22.2813 13.2009Z" fill="#4B5A2A"/>
<path d="M9.35838 36.0653C9.05055 35.6801 8.37302 36.1286 8.72257 36.576C9.0804 37.0339 9.68276 36.471 9.35838 36.0653Z" fill="#4B5A2A"/>
<path d="M60.988 48.1397C60.6114 48.0685 60.2971 48.6356 60.6798 48.8817C61.2634 49.2568 61.5882 48.253 60.988 48.1397Z" fill="#4B5A2A"/>
<path d="M20.127 61.4218C20.4395 61.7976 21.0782 61.3286 20.7793 60.8949C20.4862 60.4694 19.7565 60.9765 20.127 61.4218Z" fill="#4B5A2A"/>
<path d="M56.6063 28.206C57.0098 28.5912 57.533 27.9622 57.1518 27.6065C56.758 27.2389 56.229 27.8464 56.6063 28.206Z" fill="#4B5A2A"/>
<path d="M51.2241 26.6258C50.2884 26.4647 49.8104 27.6479 50.6203 28.1281C51.7287 28.7852 52.4159 26.8308 51.2241 26.6258Z" fill="#4B5A2A"/>
<path d="M51.1914 21.967C51.8376 22.6086 52.8597 21.7548 52.3289 20.9909C51.7326 20.1331 50.4067 21.188 51.1914 21.967Z" fill="#4B5A2A"/>
<path d="M49.0673 17.8907C48.2776 17.7627 48.1938 18.9524 48.9375 18.9834C49.6395 19.0129 49.7096 17.9947 49.0673 17.8907Z" fill="#4B5A2A"/>
<path d="M48.2073 24.0527C48.6108 24.4379 49.1341 23.8089 48.7529 23.4532C48.3591 23.0856 47.8301 23.6931 48.2073 24.0527Z" fill="#4B5A2A"/>
<path d="M46.5042 5.86717C46.0971 5.78805 45.8321 6.33113 46.1798 6.58792C46.7142 6.98283 47.1271 5.98838 46.5042 5.86717Z" fill="#4B5A2A"/>
<path d="M36.4567 9.53694C36.0542 9.1816 35.4821 9.8671 35.9464 10.1732C36.4106 10.4792 36.7987 9.83941 36.4567 9.53694Z" fill="#4B5A2A"/>
<path d="M58.7596 37.9315C58.1422 37.8135 58.1407 38.7954 58.7298 38.7134C59.1692 38.6522 59.1815 38.0124 58.7596 37.9315Z" fill="#4B5A2A"/>
<path d="M47.9051 11.2219C47.3775 11.1625 47.3063 11.97 47.8432 12.0081C48.3442 12.044 48.4175 11.2794 47.9051 11.2219Z" fill="#4B5A2A"/>
<path d="M55.3469 48.8593C54.9053 48.7594 54.6464 49.3003 55.0311 49.5707C55.5519 49.9372 55.8914 48.9827 55.3469 48.8593Z" fill="#4B5A2A"/>
<path d="M53.3713 10.1848C52.9804 10.5146 53.4846 11.14 53.8824 10.7854C54.2758 10.4347 53.7619 9.85532 53.3713 10.1848Z" fill="#4B5A2A"/>
<path d="M63.3593 23.3726C62.9605 23.3186 62.7386 23.8739 63.1011 24.1005C63.6373 24.4357 63.9512 23.4528 63.3593 23.3726Z" fill="#4B5A2A"/>
<path d="M18.3642 23.0853C17.7676 22.9501 17.7072 23.8726 18.265 23.8625C18.7382 23.8539 18.7613 23.1752 18.3642 23.0853Z" fill="#4B5A2A"/>
<path d="M10.7081 23.948C10.1694 23.8437 9.99967 24.7331 10.6459 24.6978C11.1037 24.6727 11.1202 24.0278 10.7081 23.948Z" fill="#4B5A2A"/>
<path d="M5.38924 43.0716C4.98647 43.0338 4.80881 43.6236 5.19037 43.8107C5.728 44.0739 6.00419 43.1295 5.38924 43.0716Z" fill="#4B5A2A"/>
<path d="M63.3957 31.4961C63.0048 31.4278 62.7664 31.9723 63.1235 32.2021C63.6619 32.5488 63.9593 31.5947 63.3957 31.4961Z" fill="#4B5A2A"/>
<path d="M8.23193 50.0857C7.74249 50.057 7.66589 50.8245 8.17008 50.8536C8.67858 50.8831 8.6962 50.1131 8.23193 50.0857Z" fill="#4B5A2A"/>
<path d="M35.132 40.8142C35.474 41.1289 35.6916 41.4461 35.8682 41.7777C35.8322 41.7539 35.7959 41.7313 35.7585 41.709C35.3694 40.9836 34.6192 40.5581 34.0488 39.9938C33.4648 39.4162 32.8991 38.5537 32.4029 37.7441H32.5338C32.7851 38.1434 33.0369 38.5311 33.2735 38.8936C33.8554 39.7859 34.3851 40.1269 35.1324 40.8142H35.132Z" fill="#4B5A2A"/>
<path d="M8.17261 49.2528C15.5499 35.4395 22.9419 21.6333 30.4572 7.89556C31.977 5.54449 35.3319 5.48946 36.9142 7.78623C44.4669 21.6333 51.9212 35.5362 59.3549 49.4491C60.0885 50.8903 59.8209 52.6314 58.6817 53.765C58.0408 54.4027 57.227 54.7587 56.3211 54.8228C41.1584 54.7983 25.9907 54.8656 10.8309 54.789C8.22799 54.4451 6.84381 51.5197 8.17261 49.2528ZM34.7273 7.42046C35.2197 7.85672 35.6728 8.33075 36.0979 8.83355C36.1212 8.86088 36.3446 9.18205 36.3712 9.15148C36.0403 8.3775 35.5437 7.71573 34.727 7.42082L34.7273 7.42046ZM39.5743 15.0657C39.3999 16.1475 39.5905 17.3502 40.4547 18.094C40.783 18.3763 41.1807 18.5396 41.5641 18.7295L39.5743 15.0657ZM44.3098 23.788C43.5585 22.7756 43.0982 21.6265 42.5315 20.518C42.3804 20.2231 42.0266 19.5027 41.8363 19.2805C41.6162 19.0237 41.0347 18.8604 40.7276 18.6874C39.2089 17.8325 38.9727 16.1356 39.3028 14.547L37.2958 10.8541C37.3979 11.5234 37.5723 12.2046 37.9067 12.7959C38.3976 13.663 38.8133 13.7036 38.7964 14.851C38.7759 16.2532 38.7234 17.3042 39.7192 18.4263C40.2623 19.0384 40.8564 19.1625 41.4702 19.5891C42.1754 20.0785 42.2783 20.7802 42.6073 21.51C43.0374 22.4638 43.652 23.3399 44.253 24.1919C44.5946 24.6764 44.9549 25.1565 45.3146 25.6252L44.3101 23.788H44.3098ZM46.2082 27.4576C44.8442 25.7546 43.5837 24.2829 42.4642 22.3735C42.0449 21.6582 41.704 20.7766 41.0588 20.2307C40.5852 19.8297 39.9411 19.6132 39.5168 19.1334C39.5042 19.1873 39.547 19.2021 39.5739 19.2344C39.9325 19.6606 40.4971 19.8789 40.9268 20.2181C41.618 20.7637 41.9028 21.5395 42.3383 22.2685C43.533 24.2682 44.9237 26.1596 46.497 27.8748C46.4348 27.7234 46.31 27.5846 46.2082 27.4573V27.4576ZM53.7376 41.2907C53.6581 41.2792 53.6934 41.2997 53.6801 41.3335C53.561 41.6338 53.437 41.9388 53.219 42.1852C53.3844 41.7363 53.5391 41.2403 53.3837 40.7652C51.2915 36.6731 49.0557 32.6514 46.8847 28.5988C45.3178 26.8088 43.857 24.9616 42.5908 22.9396C42.083 22.1286 41.5296 20.877 40.783 20.3044C40.199 19.8566 39.6966 19.666 39.2161 19.0438C38.2951 17.8508 38.3739 16.6194 38.1222 15.2333C37.9121 14.0777 37.3101 13.5932 36.8567 12.6042C36.5898 12.0219 36.4668 11.3918 36.2413 10.7962C35.7954 9.62011 34.7446 8.24011 33.6862 7.55245C33.6078 7.50138 33.2709 7.29961 33.2054 7.28235C33.0425 7.23955 32.4592 7.5039 32.2952 7.59885C32.1712 7.67078 32.0205 7.78479 31.9137 7.88082C31.8752 7.91534 31.5415 8.24982 31.5828 8.28543C32.7606 8.30125 33.774 8.98244 34.4332 9.92115C34.9931 10.7185 35.2481 11.6712 35.7533 12.4956C36.1403 13.1271 36.6179 13.5195 37.0627 14.0709C37.8873 15.0937 37.8125 16.4101 38.1017 17.6329L37.9718 17.2294C37.7881 16.4119 37.7291 15.4883 37.3572 14.7283C37.0278 14.0554 36.3338 13.5655 35.8857 12.9689C35.174 12.0208 34.8805 10.8728 34.162 9.93265C33.4906 9.05366 32.5178 8.48684 31.3854 8.52136L31.3232 8.68968C32.388 8.72673 33.2727 9.16227 33.9473 9.97437C34.4968 10.6354 34.7525 11.4083 35.1449 12.1525C35.2679 12.3862 35.4221 12.6053 35.5347 12.8441C34.7935 11.9165 34.5037 10.7253 33.6611 9.85749C32.9699 9.14573 32.1992 8.86735 31.2067 8.84577L30.2558 10.5933C30.9869 10.5764 31.6666 10.5135 32.3772 10.7368C33.7794 11.1774 34.358 12.4175 35.2315 13.4504C36.0619 14.432 36.7772 14.7297 37.1868 16.0821C37.5946 17.4272 37.5532 18.2267 38.425 19.4599C39.1978 20.5533 40.2982 21.0266 41.1592 22.0628C42.2251 23.3453 43.1414 24.935 44.1361 26.2981C45.1923 27.7453 46.3201 28.9207 47.4637 30.2694C47.5262 30.3431 47.6176 30.4406 47.6507 30.5294C47.582 30.4823 47.5194 30.4179 47.4629 30.3568C46.2215 29.0049 45.0574 27.6882 43.9753 26.1995C42.9101 24.7339 41.7342 22.6274 40.4352 21.4309C39.8483 20.8903 39.1881 20.5724 38.6357 19.9419C37.5187 18.6669 37.5281 17.6609 37.0847 16.1558C36.6952 14.8344 35.991 14.5431 35.174 13.5947C34.3314 12.6168 33.7208 11.3853 32.4182 10.9267C31.6886 10.6699 30.9441 10.7476 30.1882 10.7714L29.9095 11.2857C29.9214 11.3033 30.2716 11.3457 30.3274 11.3461C30.8129 11.349 31.2092 11.2249 31.7411 11.2864C33.4136 11.4792 33.9923 12.6988 34.9719 13.8256C35.5268 14.464 36.2345 14.9265 36.6125 15.7044C36.948 16.395 37.0081 17.1902 37.222 17.9224C37.4784 18.7996 37.9632 19.7027 38.549 20.4033C39.0525 21.0057 39.7351 21.4039 40.3097 21.9311C42.0697 23.5464 43.4769 26.1201 44.9564 28.0453C45.9867 29.3857 47.1903 30.5053 48.1646 31.9051C49.8864 34.3795 51.5403 37.3669 52.4181 40.2588C52.6749 41.1051 52.8853 41.9625 52.5767 42.8275C52.457 43.1627 51.9643 43.9575 52.1258 44.273C52.1697 44.3586 52.4261 44.5233 52.5196 44.5715C53.2248 44.9333 54.0796 45.1401 54.7952 45.498L56.42 46.3683L53.7369 41.2911L53.7376 41.2907ZM30.6313 53.6963C31.1793 52.2893 30.8201 51.0669 30.1558 49.8009C29.5776 48.6989 28.8145 47.348 28.1333 46.3129C28.0794 46.2309 27.8769 45.909 27.7899 45.9062C27.6791 46.1173 27.7349 46.359 27.7173 46.5841C27.517 49.1431 26.4 51.3564 25.4675 53.696H30.6313V53.6963ZM24.5731 53.7251L24.6738 53.6963C25.6038 51.3769 26.7668 49.0974 27.0789 46.5812C27.1192 46.2554 27.1002 45.4257 27.3127 45.1994C27.6392 44.8517 28.1021 45.6868 28.2308 45.8979C28.8727 46.9506 29.5125 48.1231 30.1163 49.2053C30.8963 50.6026 31.5879 52.0477 31.006 53.6823L31.147 53.6934C31.2728 53.2025 31.3555 52.6918 31.3225 52.1818C31.2106 50.454 29.6614 48.3101 28.808 46.7913C28.4948 46.2338 28.2232 45.5774 27.8557 45.0606C27.6684 44.7973 27.2674 44.3028 27.1016 44.8725C26.9693 45.3264 27.0171 45.9554 26.9667 46.4399C26.7272 48.746 25.7678 50.7018 24.905 52.8026C24.859 52.9144 24.5343 53.6866 24.5724 53.7247L24.5731 53.7251ZM23.9384 53.6963C24.3178 52.5105 24.9011 51.4028 25.3452 50.2418C25.9666 48.6173 26.3806 46.951 26.4492 45.2009C26.469 44.6945 26.3493 43.1929 26.5683 42.8387C26.9275 42.2582 27.5051 43.3091 27.6644 43.5788C28.3441 44.7276 28.876 46.0187 29.5297 47.1952C30.3968 48.7561 31.7781 50.4385 31.9831 52.2426C32.0385 52.7285 32.0025 53.2111 31.9579 53.696H32.5347C32.7023 52.2343 32.1665 50.8748 31.4329 49.648C30.8175 48.6191 30.1368 47.6509 29.5582 46.5892C28.7454 45.0977 28.0506 43.1969 27.0886 41.8464C26.8373 41.4932 26.3097 40.8012 26.0641 41.5845C25.8641 42.2215 26.0055 42.9595 26.0163 43.6116C26.0404 45.0797 26.0012 46.4654 25.6548 47.8976C25.1643 49.9264 24.1304 51.7502 23.4187 53.696H23.938L23.9384 53.6963ZM23.2893 53.6963C23.4202 53.4866 23.482 53.2338 23.5787 53.0047C24.2034 51.5247 24.923 50.0994 25.3884 48.554C25.817 47.1315 25.994 45.5584 25.9587 44.0734C25.9425 43.3897 25.7598 42.0068 26.0389 41.4151C26.4219 40.603 27.1066 41.7306 27.3361 42.0899C28.1643 43.3853 28.7594 44.9599 29.5006 46.3298C30.1195 47.4735 30.855 48.5349 31.5195 49.6484C32.2668 50.9003 32.784 52.1991 32.6789 53.6963H33.6309C33.5129 51.1417 31.7551 49.2247 30.4745 47.174C30.0163 46.4406 29.5689 45.6382 29.1734 44.8689C28.5314 43.6202 27.9694 42.1165 27.1239 41.0041C26.8574 40.6534 26.2051 39.8172 25.789 40.4444C25.2722 41.2242 25.5973 43.9004 25.5545 44.9416C25.5272 45.6044 25.4373 46.2996 25.3136 46.9506C24.8583 49.342 23.6532 51.4636 22.7552 53.6963H23.2889H23.2893ZM22.5826 53.6963C23.5579 51.2819 24.8468 49.0496 25.2607 46.4356C25.4646 45.148 25.4114 44.118 25.3797 42.8354C25.3635 42.1805 25.3416 41.1778 25.5692 40.5703C26.0734 39.2245 27.2016 40.8512 27.5565 41.4087C28.3319 42.6261 28.8947 44.05 29.5776 45.3304C30.3702 46.8161 31.2869 48.0727 32.1834 49.4754C33.0173 50.7795 33.6794 52.1196 33.8042 53.6967H34.6119C34.3483 52.1678 33.6424 50.8547 32.8009 49.579C31.7572 47.9968 30.6813 46.6017 29.7606 44.9164C29.0461 43.6083 27.6 40.2175 26.3421 39.5647C25.5635 39.1608 25.329 40.0103 25.2168 40.593C24.9701 41.8759 25.1744 43.2577 25.1222 44.5664C25.0741 45.7767 24.8295 47.0006 24.4656 48.1508C23.8571 50.0717 22.8333 51.8193 22.1209 53.6967H22.5822L22.5826 53.6963ZM30.7751 45.9065L28.9159 42.3855L28.6699 41.9827C29.059 42.8135 29.4877 43.6285 29.9239 44.4355C30.1925 44.9326 30.4468 45.4465 30.7751 45.9062V45.9065ZM27.1696 39.6895C27.0944 39.6003 26.9559 39.4618 26.8668 39.3867C26.8344 39.3593 26.8196 39.3169 26.7657 39.3295L27.2271 39.7909C27.2397 39.737 27.1969 39.7222 27.1699 39.6899L27.1696 39.6895ZM26.1594 38.9252C25.31 38.5681 24.9859 39.3694 24.8417 40.0449C24.7572 40.4401 24.713 40.8584 24.7177 41.2619L24.8809 40.1707C25.0043 39.7097 25.246 38.9965 25.8012 38.9278C25.9073 38.9145 25.9717 38.9364 26.067 38.9457C26.0986 38.949 26.1651 38.9796 26.1594 38.9256V38.9252ZM21.6274 53.6931C22.7933 50.7051 24.6414 47.8684 24.6882 44.551L24.5695 45.5717C24.1214 48.4835 22.4959 50.9816 21.4865 53.6963L21.6274 53.6931ZM16.1814 53.678C16.2378 53.6276 16.4417 53.059 16.4802 52.9454C16.692 52.3196 16.7963 51.6722 16.9653 51.0359C17.6828 48.3374 20.0962 46.5089 20.2469 43.5857C20.3353 41.8683 19.5463 40.402 19.6402 38.7379C19.7107 37.4881 20.3569 35.6668 21.0125 34.5997C21.3833 33.9962 21.8839 33.2233 22.2992 32.6554C23.117 31.5372 24.2779 31.0017 25.6473 31.4602C26.2673 31.6677 27.2106 32.0022 27.7263 32.3813C28.3685 32.8535 28.8091 33.684 29.3334 34.2936C29.6509 34.6626 30.0156 34.9874 30.3421 35.3474C30.195 35.0248 29.9012 34.7741 29.6801 34.495C28.9191 33.5351 28.2793 32.3036 27.1307 31.7936C25.8001 31.2031 24.4224 30.601 23.1041 31.5847C22.428 32.0893 22.1453 32.7654 21.7001 33.4405C21.1887 34.2159 20.7471 34.7565 20.3763 35.6365C19.6168 37.4395 19.3219 38.7299 19.7398 40.6854C20.0635 42.2006 20.3713 43.1379 19.943 44.724C19.3755 46.8269 17.7356 48.299 17.0588 50.235C16.6618 51.3711 16.5841 52.6102 16.0339 53.696C16.0832 53.6913 16.1378 53.7161 16.181 53.6776L16.1814 53.678ZM30.2846 35.0877C30.2731 35.0097 30.2224 34.9259 30.1814 34.8593C29.9696 34.5151 29.5927 34.0375 29.332 33.7181C29.1557 33.502 28.9554 33.2923 28.7562 33.097L30.2846 35.0877ZM28.3232 32.4773C28.3067 32.4403 27.8931 32.0396 27.8305 31.9889C27.3799 31.6221 25.6228 30.8974 25.0489 30.8474C23.7284 30.7323 22.5556 31.5045 22.0349 32.6935C22.3564 32.2231 22.6531 31.7965 23.1217 31.4584C24.4889 30.4719 25.6387 31.0344 27.0246 31.6124C27.5475 31.8303 27.9373 32.0882 28.3088 32.5205C28.3301 32.5252 28.3286 32.4903 28.3229 32.4777L28.3232 32.4773ZM13.0196 53.6963C13.2519 53.2622 13.4727 52.776 13.6191 52.3052C13.9359 51.2866 13.9478 50.1972 14.2732 49.1801C14.8378 47.4167 16.3497 46.2834 16.9578 44.5657C17.5727 42.8282 16.7499 41.4389 16.5568 39.7438C16.3263 37.7157 16.819 36.7108 17.5267 34.9219C17.7389 34.386 17.8737 33.8102 18.1636 33.3085C18.489 32.7456 18.9918 32.3335 19.3457 31.8077C19.6528 31.3516 19.834 30.8222 20.1066 30.3474C20.8388 29.0728 22.3891 27.8885 23.8934 27.7874C25.2887 27.6939 27.805 28.424 28.9838 29.1904C29.5697 29.5713 29.925 30.0928 30.4439 30.5287C30.8528 30.8718 31.3983 31.1049 31.7716 31.4804C31.7954 31.5045 31.8184 31.5296 31.841 31.5555L31.85 31.8073C31.8417 31.7958 31.8338 31.7839 31.8256 31.7728C31.4303 31.2509 30.7866 31.0096 30.2997 30.5866C29.9059 30.2449 29.5848 29.8166 29.1734 29.4915C28.2556 28.7664 26.6589 28.2917 25.5193 28.0392C23.7115 27.6389 22.2277 28.059 20.9564 29.3944C20.2267 30.1608 20.0563 30.7438 19.5578 31.6163C19.1835 32.2712 18.5869 32.728 18.2208 33.3664C17.941 33.8545 17.8162 34.4018 17.6126 34.9219C17.0725 36.303 16.5683 37.2985 16.5805 38.854C16.6 41.3464 18.0341 42.8642 16.673 45.3778C15.9472 46.7183 14.8242 47.7073 14.3527 49.2024C14.0398 50.1951 14.0075 51.2557 13.7111 52.2537C13.5626 52.7544 13.3378 53.2248 13.1199 53.6963L13.3749 53.6916C13.6518 53.1824 13.8791 52.6432 14.029 52.0811C14.2696 51.1791 14.3268 50.235 14.6055 49.3398C15.1838 47.4818 16.9125 46.1709 17.4167 44.2748C17.8712 42.5653 16.9829 41.0069 16.8977 39.3151C16.8103 37.5841 17.2548 36.5756 17.8723 35.0366C18.0654 34.5558 18.1956 34.0857 18.4516 33.6254C18.7663 33.0596 19.2241 32.6226 19.5762 32.0957C19.9178 31.5843 20.1354 30.9955 20.4641 30.4737C21.2214 29.2706 22.5042 28.396 23.951 28.3064C25.5538 28.2071 27.9406 28.9121 29.173 29.9529C29.5693 30.2877 29.8318 30.6967 30.1976 31.0344C30.5906 31.3976 31.1103 31.6393 31.4534 32.058C31.6504 32.2986 31.777 32.5777 31.8885 32.864L31.8986 33.1463C31.7137 32.6967 31.5026 32.2633 31.2228 32.0001C30.9067 31.7026 30.4734 31.4786 30.14 31.179C29.6344 30.7247 29.3262 30.2252 28.7361 29.8134C27.0494 28.6373 23.9844 27.9557 22.141 29.0635C20.6015 29.9885 20.4011 31.2743 19.4208 32.6036C19.1054 33.0312 18.7875 33.3664 18.534 33.8516C18.2923 34.3134 18.1514 34.8144 17.96 35.297C17.3864 36.7446 16.9876 37.6549 17.0718 39.2867C17.157 40.9339 17.9906 42.4186 17.6357 44.0895C17.1843 46.214 15.3557 47.4919 14.7357 49.5268C14.4584 50.4368 14.4131 51.4035 14.1448 52.3113C14.0028 52.7925 13.7877 53.2414 13.5824 53.696C13.8535 53.7175 13.8737 53.7093 13.9913 53.4848C14.7019 52.1297 14.6587 50.5878 15.205 49.188C15.8789 47.462 17.3555 46.2345 17.8723 44.3546C18.3495 42.6182 17.4771 41.0763 17.389 39.373C17.2998 37.6449 17.9068 35.9628 18.6545 34.4331C19.1123 33.4959 19.8071 32.7615 20.3087 31.8469C20.965 30.6514 21.3272 29.772 22.6588 29.1484C24.6224 28.2291 28.0312 29.1926 29.4345 30.7884C29.6556 31.0398 29.8246 31.3383 30.0534 31.5829C30.5547 32.1184 31.1016 32.2968 31.4239 33.0395C31.6155 33.4808 31.7551 33.9595 31.945 34.4134L31.9529 34.6353C31.8889 34.4961 31.8277 34.358 31.7709 34.2213C31.603 33.8185 31.4821 33.3481 31.2998 32.9614C30.9992 32.3238 30.3198 32.0065 29.866 31.4814C29.095 30.5895 28.8569 30.15 27.7079 29.6296C25.6642 28.7045 23.1767 28.3233 21.4714 30.0957C20.8615 30.7298 20.5957 31.5343 20.1534 32.2687C19.6794 33.056 19.0982 33.6685 18.6919 34.5288C17.9791 36.0376 17.3893 37.6157 17.4749 39.3151C17.5598 40.9983 18.3815 42.5132 17.9759 44.228C17.4738 46.3493 15.6563 47.7501 15.0673 49.83C14.8234 50.691 14.7565 51.5959 14.4839 52.449C14.3459 52.8813 14.142 53.2841 13.9564 53.6956H14.8364C15.4851 52.5285 15.5117 51.1424 15.9253 49.9091C16.692 47.6232 18.7926 46.0576 18.9756 43.4968C19.0723 42.142 18.5139 40.8764 18.3991 39.5446C18.265 37.9873 18.785 36.2735 19.4413 34.8752C19.7869 34.1393 20.2688 33.5944 20.6896 32.9211C21.3836 31.8109 21.7062 30.7729 22.966 30.1198C24.6439 29.2498 26.1026 29.8594 27.6691 30.5906C28.6778 31.0614 28.7742 31.3843 29.4614 32.1446C29.7955 32.5144 30.2493 32.7992 30.5388 33.202C30.8582 33.6469 31.0099 34.2062 31.2311 34.7025C31.457 35.2096 31.722 35.7311 32.0108 36.2505L32.0201 36.5069C31.8853 36.2846 31.7554 36.0591 31.635 35.8275C31.289 35.164 31.0599 34.4702 30.7417 33.807C30.4259 33.1492 30.2296 33.0614 29.7358 32.5917C29.0101 31.9015 28.7799 31.2782 27.8126 30.7934C26.1651 29.9676 24.4264 29.3059 22.7167 30.3895C21.6814 31.0459 21.3318 32.0547 20.7187 33.0362C20.3551 33.6185 19.911 34.126 19.5995 34.7442C18.9048 36.1239 18.3995 37.8474 18.4844 39.4014C18.5703 40.9792 19.2766 42.3074 18.9972 43.9507C18.5721 46.4482 16.5424 47.9436 15.8976 50.3137C15.5898 51.4445 15.4823 52.6364 14.9374 53.6952C15.0356 53.6819 15.1931 53.7287 15.2686 53.6661C15.3298 53.6158 15.5233 53.1194 15.5646 53.0101C15.8861 52.1602 15.9721 51.292 16.2148 50.4288C16.9042 47.9781 19.0964 46.3356 19.3795 43.6982C19.5629 41.991 18.7688 40.5271 18.8016 38.8504C18.8274 37.5147 19.4485 35.5337 20.1354 34.3853C20.3835 33.9703 20.7003 33.5951 20.9496 33.1801C21.4955 32.2709 21.8055 31.3459 22.7171 30.7067C23.7355 29.9925 24.9457 29.8846 26.1083 30.3046C26.679 30.5111 27.8884 31.0085 28.3488 31.353C28.8019 31.6922 29.0033 32.1508 29.3712 32.5378C29.5657 32.7424 29.8498 32.9273 30.0433 33.1348C30.6007 33.7336 30.8071 34.5543 31.1444 35.279C31.3922 35.8113 31.7033 36.3742 32.0356 36.9331L32.0435 37.1514C31.9762 37.0399 31.9108 36.9309 31.8475 36.8263C31.3181 35.953 31.0189 35.2021 30.6068 34.2878C30.1882 33.3599 29.8556 33.2358 29.2309 32.5482C29.0022 32.2961 28.8263 31.9893 28.5973 31.7397C28.1197 31.2193 27.0466 30.8247 26.3806 30.5521C25.1061 30.0302 23.9082 30.0155 22.7577 30.8337C21.8529 31.4771 21.5408 32.454 20.9787 33.3531C20.7701 33.6865 20.5159 33.994 20.3087 34.3274C19.6844 35.3305 19.0173 37.2705 18.9465 38.4465C18.8177 40.5825 19.8819 42.2244 19.3662 44.4057C18.8188 46.7215 16.9171 48.2522 16.3018 50.5155C16.1105 51.219 16.0267 51.9516 15.8109 52.6501C15.6998 53.0097 15.524 53.3471 15.3995 53.6952H15.8757C16.3547 52.9058 16.4604 51.9757 16.6834 51.0985C17.2577 48.8377 18.7713 47.4563 19.5963 45.3563C20.299 43.5673 20.0275 42.5801 19.6495 40.8044C19.1946 38.6677 19.5176 37.1011 20.4432 35.1535C20.759 34.4889 21.2128 33.9724 21.5854 33.3531C22.1237 32.4583 22.3805 31.6652 23.3712 31.129C24.7058 30.4068 25.9335 30.9596 27.1893 31.5325C28.1333 31.9634 28.2959 32.3946 28.9011 33.1384C29.5492 33.9347 30.2396 34.645 30.6848 35.5955C30.8129 35.8689 30.9035 36.1595 31.0301 36.4332C31.3732 37.1759 31.863 37.7769 32.2877 38.4645C32.6491 39.05 32.9242 39.673 33.386 40.1934C33.8067 40.6678 34.2253 40.9476 34.6072 41.2882C34.5634 41.2803 34.5191 41.2734 34.4745 41.267C34.2224 41.053 33.9531 40.8541 33.7182 40.6545C33.7049 40.7113 33.7474 40.7228 33.7783 40.7527C33.957 40.9253 34.1775 41.085 34.3753 41.2529C34.3393 41.2486 34.303 41.2457 34.2667 41.2421C34.075 41.0796 33.8772 40.9221 33.7031 40.7411C32.6196 39.6136 31.9996 38.0009 30.9945 36.7856L30.6895 36.2113C30.7499 36.4965 30.9294 36.7695 31.0811 37.0165C31.4332 37.5895 31.8781 38.1167 32.2301 38.6947C32.6074 39.314 32.8706 39.9524 33.3572 40.5102C33.5859 40.7724 33.8628 40.999 34.1297 41.2321C34.0851 41.2296 34.0401 41.2274 33.9948 41.2263C33.6247 40.894 33.268 40.5948 32.9447 40.1438C32.6196 39.6899 32.4402 39.1763 32.1557 38.7116C31.709 37.9819 31.0786 37.3402 30.7125 36.5483C30.591 36.2854 30.523 35.9994 30.3968 35.739C30.1181 35.165 29.5172 34.7076 29.1036 34.2051C28.53 33.5085 28.1236 32.6766 27.2918 32.2378C26.7984 31.9774 25.3819 31.4491 24.8493 31.4203C23.2134 31.3322 22.6186 32.459 21.845 33.6117C21.2617 34.4806 20.8129 35.0866 20.4267 36.0883C19.7955 37.7254 19.6071 38.9155 19.9721 40.6541C20.2753 42.0978 20.577 43.0311 20.2325 44.5488C19.6826 46.9711 17.7684 48.5924 17.1167 50.9244C16.8632 51.8311 16.7596 52.7979 16.3087 53.637L16.3378 53.6942H16.7848C16.9132 53.3374 17.0617 52.9853 17.1682 52.6206C17.5504 51.3086 17.659 50.4407 18.3772 49.2136C19.6859 46.9776 20.9582 45.5041 20.7946 42.688C20.7316 41.6058 20.2782 40.5847 20.2167 39.5154C20.1264 37.9441 20.8906 35.7074 21.7932 34.4252C23.1573 32.4885 24.8313 32.0558 26.9588 33.2053C27.7511 33.6333 27.9794 34.2116 28.599 34.7385C28.8605 34.9608 29.1762 35.1212 29.4341 35.3459C30.0235 35.8603 30.2253 36.7011 30.6946 37.3165C31.0984 37.8466 31.677 38.2987 32.0287 38.8673C32.2679 39.254 32.397 39.7035 32.6077 40.106C32.8354 40.5412 33.1227 40.899 33.4144 41.2475C33.3662 41.2526 33.3183 41.2583 33.2709 41.2644C33.0321 40.9871 32.7991 40.7005 32.6074 40.3653C32.3945 39.9931 32.2647 39.5795 32.0708 39.1997C31.6335 38.3433 30.8096 37.7689 30.3385 36.9507C30.0728 36.4893 29.8883 35.9505 29.5218 35.5463C29.2054 35.1974 28.7522 34.9895 28.4106 34.6673C27.7068 34.0034 27.6378 33.5966 26.642 33.1474C24.9989 32.4061 23.6424 32.4522 22.3672 33.8156C21.3124 34.9435 20.3774 37.3424 20.3037 38.8781C20.2307 40.4013 20.9596 41.8032 20.9104 43.3508C20.8255 46.0195 19.4543 47.4178 18.2805 49.5779C17.6634 50.7133 17.5655 51.6398 17.2038 52.8285C17.1142 53.123 16.9732 53.401 16.901 53.6938L17.2214 53.6762C17.6612 52.708 17.7547 51.6258 18.1654 50.6454C18.4664 49.9271 18.9278 49.292 19.3187 48.6252C20.6968 46.2737 21.539 44.3589 21.0179 41.5421C20.755 40.1218 20.4418 39.3083 20.8266 37.8139C21.5976 34.8198 23.5313 32.0774 26.9408 33.9454C27.4947 34.249 27.7888 34.7414 28.27 35.0974C28.6325 35.3657 29.0389 35.5074 29.3496 35.8642C29.7682 36.3444 29.9156 37.0173 30.3037 37.5355C30.6723 38.0275 31.2164 38.3617 31.5627 38.8727C31.9568 39.4539 32.1064 40.17 32.4847 40.7782C32.6063 40.9735 32.7501 41.1555 32.9008 41.3328C32.8372 41.3475 32.7742 41.3641 32.7131 41.3817C32.5854 41.2242 32.4628 41.0602 32.3517 40.8821C31.9565 40.2477 31.7824 39.4726 31.3491 38.8842C30.9826 38.3868 30.4072 38.0466 30.0609 37.5183C29.7304 37.0148 29.5851 36.3659 29.1514 35.9322C28.8055 35.5862 28.3326 35.4208 27.965 35.1132C27.4242 34.6612 27.2742 34.3504 26.564 34.0332C23.3691 32.6057 21.8127 35.2345 21.115 37.9294C20.6406 39.7611 21.3592 41.0638 21.4311 42.8304C21.5149 44.8887 20.8302 46.5154 19.8484 48.2605C19.3662 49.1175 18.7624 49.9242 18.3869 50.8381C18.0071 51.7624 17.8849 52.7688 17.5069 53.6938L17.8209 53.6906C18.1334 52.9151 18.2679 52.0775 18.5534 51.2931C18.967 50.1573 19.7981 49.0269 20.3677 47.9436C21.261 46.245 21.7663 44.7333 21.6907 42.7732C21.6397 41.4457 21.1959 40.2254 21.2844 38.8785C21.3595 37.738 22.1769 35.6294 22.9868 34.8108C24.0286 33.7581 25.5847 33.8325 26.7959 34.5515C27.1872 34.7834 27.4583 35.1363 27.8248 35.3977C28.1157 35.6056 28.4674 35.7538 28.7418 35.9811C29.3435 36.4796 29.4557 37.2032 29.8991 37.7952C30.2084 38.2081 30.6597 38.5048 30.993 38.8936C31.5386 39.5298 31.6796 40.3369 32.1089 41.0379C32.2028 41.1911 32.3111 41.3367 32.4258 41.4788C32.0899 41.6097 31.7979 41.7881 31.5544 42.0053C31.5174 41.9532 31.4807 41.9 31.4454 41.8456C31.0718 41.2706 30.8298 40.6214 30.4367 40.0556C30.1051 39.578 29.6977 39.2051 29.3345 38.7634C28.5109 37.7603 28.2045 36.977 26.9876 36.2926C24.5842 34.941 23.1648 36.5037 22.7121 38.8066C22.3244 40.7782 22.5955 42.7926 22.2568 44.7851C21.8465 47.1991 20.6763 48.9708 19.6736 51.1165C19.286 51.9459 18.9965 52.8134 18.7465 53.6945L18.8555 53.6452C19.1079 52.8799 19.3363 52.1045 19.6646 51.3672C20.6108 49.2416 21.8159 47.4606 22.2863 45.1031C22.6628 43.2167 22.4693 41.3892 22.7024 39.5183C22.9498 37.5327 23.8977 35.2708 26.3406 36.1322C27.9352 36.6943 28.3797 37.7873 29.3632 38.9659C29.8041 39.4946 30.2321 39.8931 30.5975 40.5013C30.8611 40.94 31.0445 41.4216 31.3235 41.8525C31.3721 41.9277 31.4242 42.0021 31.4778 42.0762C31.3135 42.2355 31.1743 42.4143 31.0621 42.6092C30.8888 42.3636 30.7158 42.1176 30.5694 41.8568C30.3849 41.5281 30.2447 41.1709 30.0494 40.8476C29.7495 40.3506 29.373 39.9859 29.0173 39.5428C28.1736 38.4915 27.2864 37.1277 25.8505 36.8533C23.5223 36.4084 23.3173 39.896 23.2468 41.4184C23.1688 43.1012 23.1281 44.6193 22.6621 46.2572C21.9745 48.6726 20.4867 50.7162 19.6981 53.073C19.6319 53.2705 19.5503 53.4931 19.5262 53.6945H19.93C20.0102 53.4294 20.0929 53.1604 20.189 52.9008C21.006 50.695 22.3194 48.7777 22.9509 46.4593C23.4558 44.6057 23.4155 43.0088 23.5061 41.1289C23.5903 39.377 24.0873 36.0124 26.6495 37.5262C28.1021 38.3843 29.56 40.8893 30.3972 42.347C30.5406 42.597 30.7 42.8401 30.8532 43.0861C30.8362 43.1393 30.8215 43.1933 30.8082 43.2483C29.9775 41.7255 29.0248 40.2103 27.9204 38.8806C27.1811 37.9909 25.6354 36.5681 24.5454 37.7826C23.3928 39.0669 23.71 42.4369 23.5363 44.1302C23.3288 46.1504 22.7153 47.9026 21.8594 49.7232C21.4502 50.5939 20.9621 51.4305 20.5889 52.3185C20.4033 52.7601 20.2246 53.2342 20.1037 53.6942H20.623C20.6263 53.5859 20.6773 53.4701 20.7169 53.3697C22.0025 50.094 23.7294 47.6821 23.9402 43.986C24.0276 42.4545 23.6406 39.1986 24.7774 38.0721C25.9691 36.8907 27.6112 38.995 28.2452 39.8834C29.2356 41.2706 29.9771 42.8225 30.7708 44.3388C30.7917 44.4607 30.8208 44.5798 30.8585 44.6948C29.8897 42.8692 29.0342 40.953 27.7471 39.3428C27.1527 38.599 25.7944 37.2097 24.8482 38.1721C23.7618 39.2773 24.1088 42.3923 24.0283 43.8723C23.9297 45.6742 23.4597 47.3937 22.7714 49.0488C22.2766 50.2386 21.6332 51.3618 21.1373 52.5501C20.9844 52.9166 20.8241 53.3075 20.7385 53.6949H21.3444C21.9486 51.9448 22.8786 50.3325 23.5374 48.6032C24.1031 47.1182 24.4861 45.5868 24.5476 43.9878C24.5972 42.6984 24.2994 40.0046 25.124 38.9961C25.9076 38.0376 27.0045 39.263 27.5004 39.9071C28.7864 41.5777 29.6067 43.663 30.6572 45.4915C32.0827 47.9731 34.1768 50.0857 34.9809 52.8806C35.0578 53.1482 35.0913 53.4467 35.2053 53.6945H36.1428C35.9497 52.7375 35.5796 51.8168 35.1046 50.968C34.1412 49.2459 32.7199 47.8454 31.6882 46.1622C31.5483 45.9339 31.4131 45.7022 31.2807 45.4681C31.3588 45.5649 31.4447 45.6558 31.5382 45.7418C31.8522 46.2831 32.1859 46.8111 32.5545 47.3157C33.9649 49.2484 35.3797 50.6446 36.0928 53.0381C36.1572 53.2547 36.1921 53.492 36.2726 53.6949H37.1235C36.8013 52.6166 36.3305 51.5891 35.7048 50.6565C34.6461 49.0783 33.1292 47.8174 32.1722 46.1784C32.2409 46.213 32.3121 46.245 32.3848 46.2752C33.5312 48.1306 35.3207 49.5358 36.3784 51.5118C36.7502 52.207 37.016 52.954 37.2824 53.6949H38.1912C37.7057 52.2555 36.9383 50.9262 35.9558 49.7707C34.9924 48.6378 33.724 47.6764 32.8789 46.4377C33.1741 46.5108 33.4953 46.5507 33.8387 46.5539C34.6587 47.6088 35.7422 48.4817 36.6038 49.4977C37.65 50.7317 38.4749 52.139 39.059 53.6488C39.0755 53.7103 39.2596 53.7089 39.2589 53.6798C38.5857 52.1099 37.746 50.6 36.6193 49.3089C35.8461 48.4227 34.7773 47.5347 33.9829 46.5525C34.3731 46.5438 34.7363 46.4841 35.0668 46.3809C36.4406 47.9961 38.512 49.3074 39.5822 50.9903L41.3106 53.6902C41.3861 53.7388 41.8939 53.5557 41.9989 53.5068C41.7281 53.278 41.5091 52.9932 41.2951 52.7101C40.5543 51.7301 40.0174 50.7104 39.1866 49.7699C38.1427 48.5878 36.6542 47.4728 35.5401 46.1925C35.5904 46.1676 35.6397 46.1421 35.6879 46.1151C36.7592 47.3405 38.1847 48.4252 39.1866 49.5391C40.154 50.6144 40.747 51.7765 41.6119 52.8835C41.7022 52.9989 41.9859 53.359 42.0978 53.4075C42.2664 53.4809 42.6505 53.2694 42.8353 53.218C41.8162 52.4825 41.2286 51.3064 40.4813 50.3213C39.3941 48.8874 37.9783 47.7408 36.7045 46.4823C36.4949 46.2752 36.2838 46.0666 36.0799 45.8511C36.1011 45.8342 36.122 45.817 36.1428 45.7997C37.4777 47.2865 39.1705 48.5101 40.4234 50.1192C41.1095 51.0003 41.7166 52.1343 42.5462 52.8716C42.6394 52.9543 42.8774 53.1748 42.9932 53.1755L44.0753 52.8853C43.9782 52.7961 43.8408 52.7407 43.7319 52.6666C42.5631 51.8757 41.804 50.6662 40.9017 49.6117C40.0814 48.6532 39.0985 47.634 38.1919 46.7539C37.6899 46.2665 37.1116 45.8051 36.6053 45.2894C36.6243 45.2617 36.6423 45.2333 36.6603 45.2048C37.0505 45.6152 37.4824 45.991 37.8837 46.3842C38.9781 47.4559 40.0785 48.5331 41.075 49.6984C41.8619 50.6184 42.5757 51.7178 43.5596 52.4354C43.7801 52.5961 44.1534 52.9169 44.4216 52.7849C43.7042 52.3886 43.0569 51.8739 42.5031 51.2704C42.3844 51.141 42.2747 50.973 42.1578 50.8367C42.0949 50.7637 41.9453 50.6759 41.9554 50.5777C42.548 51.2097 43.1194 51.8344 43.8358 52.3321C43.9394 52.4041 44.4777 52.7605 44.5522 52.7702C44.6086 52.7778 44.5978 52.7594 44.595 52.7127C42.7109 51.7761 41.6486 49.8764 40.1957 48.4425C40.1742 48.4378 40.176 48.4727 40.1817 48.4853C40.2087 48.5457 40.5097 48.8061 40.5845 48.8902C40.674 48.9909 40.7495 49.1107 40.8445 49.2071C40.8528 49.2887 40.8085 49.2308 40.7862 49.2071C40.6931 49.1089 40.6053 48.9733 40.5133 48.8744C39.7444 48.0479 38.946 47.2488 38.1459 46.4528C37.6759 45.9968 37.1803 45.5566 36.7387 45.0703C36.7603 45.0308 36.7804 44.9905 36.7998 44.9498C36.966 45.1509 37.1641 45.3634 37.4112 45.6008C38.5487 46.6938 39.7081 47.7627 40.7877 48.9176C41.8262 50.0282 42.6696 51.3866 43.9512 52.2451C44.116 52.3555 44.696 52.7159 44.86 52.7058C45.1362 52.6889 45.4865 52.5454 45.7774 52.5386L45.0948 52.1976C43.8157 51.5668 43.0831 50.4213 42.1726 49.4078C40.806 47.8868 39.2611 46.5233 37.8294 45.0674C37.532 44.765 37.2659 44.4445 37.025 44.1072C37.0293 44.0579 37.0318 44.0083 37.0332 43.9579C37.7834 44.9955 38.7432 45.7976 39.6631 46.7247C40.4464 47.5145 41.2681 48.3054 42.0276 49.1204C42.7462 49.8912 43.3277 50.7684 44.1487 51.442C44.4896 51.7214 45.4893 52.4141 45.8914 52.4976C45.9274 52.5051 46.2766 52.5407 46.1816 52.453C45.0438 52.0189 44.0602 51.2474 43.2532 50.3468C42.9083 49.962 42.5969 49.5419 42.2445 49.1632C41.9255 48.8205 41.5706 48.5086 41.2491 48.168C41.2778 48.1213 41.3127 48.1778 41.3357 48.1968C41.536 48.3648 41.7119 48.6061 41.9122 48.7744C41.9352 48.7935 41.9701 48.8499 41.9989 48.8032C41.5752 48.3515 41.1106 47.9404 40.6711 47.5056C39.3812 46.2288 37.9463 44.8797 36.9721 43.321C36.9404 43.1814 36.8966 43.0469 36.8419 42.9178C36.9189 43.0595 36.9983 43.1987 37.0825 43.3335C37.7992 44.4798 38.7148 45.3527 39.6473 46.3086C40.4676 47.1495 41.3303 47.9674 42.133 48.8273C43.4248 50.212 44.4612 51.8239 46.3819 52.4397L47.8549 52.4231C47.847 52.3735 47.7974 52.3728 47.7618 52.3577C47.231 52.1322 46.7067 51.9523 46.191 51.6783C44.4932 50.7755 43.131 49.0535 41.7543 47.7199C40.7661 46.7629 39.6876 45.8968 38.8425 44.8042C38.1376 43.8932 37.4166 42.8908 36.8588 41.8834C36.5772 41.3749 36.3489 40.7588 35.9702 40.3196C35.2524 39.4877 34.5166 39.0223 33.8801 38.0247C33.8207 37.9315 33.7607 37.8366 33.6999 37.7409H33.7927C33.8808 37.8779 33.9678 38.0114 34.0531 38.1401C34.6295 39.0119 35.3398 39.4917 35.9986 40.2333C36.4334 40.7228 36.6808 41.422 37.0027 41.9989C37.5612 43.0001 38.362 44.0708 39.0734 44.9768C39.9106 46.0436 41.1171 46.9966 42.1003 47.9508C43.9318 49.7282 45.3343 51.5474 47.9053 52.3296C48.3695 52.471 48.8583 52.4127 49.3258 52.5386L49.233 52.4731C48.1509 52.0203 47.0145 51.6132 46.0223 50.9816C44.7431 50.1674 43.7826 48.9938 42.6915 47.9659C41.3221 46.6758 39.6836 45.6745 38.617 44.1068C38.0128 43.2185 37.4594 42.2416 36.9642 41.2878C36.6776 40.7357 36.4488 40.1499 36.1259 39.6165C35.7206 38.9468 35.2376 38.3919 34.819 37.7413H34.96C35.0114 37.8269 35.065 37.9121 35.1211 37.9962C35.4523 38.4915 35.8666 38.9443 36.1658 39.4611C36.5456 40.1161 36.8315 40.8958 37.1951 41.5766C37.9506 42.9912 39.0014 44.6909 40.2098 45.7454C40.9089 46.3554 41.6579 46.9071 42.3452 47.5333C43.9272 48.9744 45.1344 50.5425 47.1231 51.4967C48.2624 52.043 49.6199 52.6127 50.8534 52.8723C50.902 52.8828 50.9487 52.8918 50.9987 52.8853C50.9793 52.8472 50.9013 52.7983 50.8639 52.7752C49.725 52.08 48.5526 51.5693 47.4025 50.9284C45.4336 49.8315 44.021 48.0655 42.2096 46.7744C41.7572 46.4521 41.2487 46.1709 40.8064 45.8411C39.068 44.5441 37.9722 41.8978 37.0616 39.979C36.6528 39.1177 36.1788 38.344 35.7059 37.5643L35.7379 36.6821C36.1166 37.2823 36.5175 37.8729 36.8498 38.4883C38.0783 40.7627 38.7655 43.8986 40.8308 45.5854C41.2782 45.9508 41.8007 46.2583 42.2671 46.601C44.0854 47.9371 45.5454 49.7063 47.5176 50.8417C48.3009 51.2924 49.1334 51.6589 49.922 52.1012C50.5916 52.4771 51.2091 52.9418 51.9219 53.2309C51.4846 52.858 50.9595 52.5206 50.46 52.2264C49.1873 51.4765 47.8143 50.9507 46.6049 50.0811C45.1765 49.0539 44.0171 47.6688 42.6135 46.6298C42.1082 46.2558 41.5472 45.9285 41.0617 45.5274C39.1647 43.9601 38.5598 41.5655 37.5612 39.4212C37.0397 38.302 36.3708 37.2985 35.7533 36.2566L35.8555 33.4408C36.2007 34.2677 36.547 35.0744 36.9674 35.7743C37.4838 36.6342 38.0876 37.4201 38.5483 38.3189C39.3765 39.9352 39.8314 41.7514 40.6909 43.3598C41.381 44.652 42.0845 45.0088 43.1662 45.8752C44.3479 46.8215 45.3304 48.0695 46.4988 49.0625C48.1563 50.4709 50.3029 51.3042 52.1049 52.6015C52.5465 52.9195 53.0025 53.3417 53.4423 53.6298C53.4913 53.6618 53.5287 53.7046 53.5959 53.6924L53.3657 53.4467C51.1706 51.4488 48.2746 50.5461 46.1093 48.5288C45.3225 47.7958 44.6281 46.97 43.861 46.2191C42.9058 45.2843 41.8863 44.6042 41.1624 43.436C40.1227 41.7586 39.606 39.81 38.6681 38.0833C37.9316 36.7277 37.0106 35.5438 36.369 34.122C36.2032 33.7545 36.04 33.3732 35.8724 32.988L35.8853 32.6356C36.1604 33.2628 36.4305 33.8994 36.7383 34.532C37.1346 35.3467 37.6352 36.1041 38.1337 36.8587L38.0189 36.8288C38.3782 37.4168 38.754 37.9995 39.0529 38.6221C39.8099 40.1988 40.3525 41.8964 41.2947 43.3904C42.0352 44.5643 43.3072 45.5199 44.2789 46.5223C45.799 48.09 46.7933 49.22 48.7302 50.3508C50.4712 51.3668 52.2538 52.275 53.7257 53.6924H54.6633C53.9519 53.0608 53.2147 52.444 52.434 51.8973C50.8606 50.7957 49.0183 50.0192 47.5532 48.787C46.3014 47.7343 45.4016 46.2637 44.4346 44.9531C43.8531 44.1654 43.218 43.4274 42.6972 42.5941C41.5727 40.7955 40.6251 38.8875 39.5416 37.0658C38.9295 36.0368 38.2045 35.1086 37.5737 34.1005C36.9944 33.1747 36.4823 32.2439 35.9321 31.3401L35.9576 30.6388C36.6725 31.7386 37.3101 32.8816 38.0351 34.0141C38.471 34.6953 38.9719 35.3334 39.415 36.0095C40.9193 38.3056 42.0909 40.867 43.6139 43.1483C44.399 44.324 45.2653 45.5814 46.1011 46.7197C46.3028 46.9945 46.5074 47.2876 46.7592 47.5185L45.3405 44.9419C43.214 41.937 41.6752 38.5623 39.6175 35.5189C39.3477 35.1201 39.0446 34.7396 38.7742 34.3429C37.8096 32.9265 36.9613 31.4289 35.9803 30.0241L35.9907 29.7382C36.9192 31.0344 37.6974 32.3781 38.6127 33.7253C39.1622 34.5338 39.7789 35.2992 40.3212 36.1135C41.3785 37.701 42.243 39.3993 43.2173 41.0357C44.0919 42.5049 45.0445 43.8842 45.8705 45.3929C46.2237 46.0378 46.5175 46.7276 46.921 47.343C48.1257 49.1801 49.9612 50.0282 51.7482 51.1705C52.9 51.907 54.0037 52.7198 54.9822 53.6776C56.1262 53.7391 57.2126 53.7884 58.0253 52.8562C58.7036 52.0782 58.8999 50.6561 58.2408 49.8128C57.4863 48.8471 55.8806 47.8868 54.7283 47.498C53.3316 47.0265 51.8356 46.942 50.4597 46.5165C48.1513 45.8026 48.2947 43.1595 47.8136 41.2288C47.5658 40.2347 46.9764 39.8032 46.4193 39.0166C45.1182 37.1795 44.3673 34.9708 43.022 33.211C41.5885 31.3361 39.8634 29.5325 38.2315 27.8324C37.5637 27.1368 36.8279 26.4714 36.2766 25.6762C36.232 25.6119 36.1885 25.5457 36.1457 25.4781L36.159 25.1094C36.5129 25.6669 36.8372 26.1546 37.3835 26.7322C38.3631 27.7691 39.3823 28.7365 40.3421 29.804C41.6018 31.2045 43.2309 32.9463 44.14 34.5741C44.9769 36.0721 45.6382 37.6042 46.6502 39.0166C47.2234 39.8168 47.7416 40.1768 47.9865 41.1997C48.4361 43.0768 48.3469 45.703 50.5819 46.3647C51.5716 46.6575 52.6915 46.7758 53.707 47.0186C55.2958 47.3984 56.5466 47.9663 57.7941 49.0186C57.8265 49.046 57.8412 49.0884 57.8952 49.0758C57.7477 48.8593 57.6524 48.5406 57.4687 48.3547C57.3155 48.1997 56.8785 47.9479 56.6743 47.8303C54.929 46.8269 53.1176 46.6474 51.2016 46.2061C49.0967 45.7213 49.001 44.7938 48.6148 42.8502C48.4138 41.8381 48.4224 40.7631 47.8107 39.9039C47.304 39.1925 46.7638 38.6199 46.2866 37.8506C45.3847 36.3969 44.7165 34.604 43.7146 33.2682C42.1682 31.2067 40.2543 29.0646 38.4386 27.2353C37.9718 26.7653 37.4529 26.3326 37.0239 25.823C36.6981 25.4356 36.4427 25.0008 36.1788 24.5724L36.2223 23.3759C36.911 24.1876 37.3447 25.0886 38.1635 25.8086C38.4915 26.0967 38.8612 26.3412 39.1874 26.6311C39.7178 27.1026 40.2241 27.7047 40.6888 28.2456C41.7727 29.508 42.8731 30.8894 43.8592 32.2299C44.3911 32.9528 44.8712 33.7077 45.3757 34.449C45.0085 33.6937 44.5374 32.9841 44.0437 32.3051C42.8328 30.6395 41.3278 28.6509 39.9246 27.1638C39.1251 26.3164 38.1819 25.6942 37.4436 24.798C37.026 24.2912 36.6646 23.7276 36.2273 23.2374L36.2698 22.0674C36.4938 22.248 36.7268 22.4142 36.953 22.6055C37.782 23.3068 38.3178 24.2502 39.1158 25.0008C40.3604 26.1722 41.3375 27.0692 42.388 28.4506C43.569 30.0036 44.9093 31.6253 45.9363 33.2686C46.4995 34.1699 46.8559 35.0129 47.3227 35.9498C48.0811 37.4719 49.3186 38.3796 49.7818 40.0686C49.9979 40.8562 50.0493 41.6791 50.3086 42.4556C50.4985 43.0239 51.1393 44.3906 51.5979 44.7438C52.1258 45.1502 53.2917 45.426 53.9512 45.6792C54.9538 46.0644 56.0046 46.5187 56.8573 47.1722C56.8023 47.024 56.671 46.7553 56.5552 46.6525C56.392 46.5075 55.8809 46.2421 55.6655 46.1288C54.5647 45.549 53.4308 45.2796 52.338 44.783C51.6611 44.4755 51.5453 44.0806 51.2174 43.4515C50.5452 42.1629 50.4924 41.3277 50.1281 39.9826C49.762 38.6303 49.2596 38.1466 48.4799 37.0727C47.7812 36.1102 47.4173 35.0791 46.8527 34.0551C45.6961 31.9594 43.9725 29.8393 42.5031 27.9324C41.5378 26.6797 40.6521 25.8201 39.52 24.7418C38.708 23.9686 38.0966 22.9936 37.2709 22.2886C36.9818 22.0419 36.6305 21.824 36.3604 21.5549C36.3366 21.5312 36.3143 21.5071 36.2917 21.4834L36.3007 21.2363C36.6621 21.6445 37.1307 21.9322 37.5306 22.289C38.248 22.9288 38.7839 23.7978 39.4912 24.4825C40.6395 25.5942 41.5662 26.4477 42.561 27.7309C44.0142 29.6055 45.6318 31.64 46.8239 33.6807C47.4367 34.7299 47.8438 35.879 48.5378 36.8712C48.9895 37.5168 49.5351 38.0937 49.8918 38.8062C50.478 39.9772 50.4485 41.3853 50.9969 42.5768L51.8381 44.1151C51.8658 43.6572 52.0938 43.2515 52.1941 42.812C52.4825 41.5493 52.0154 40.3955 51.5716 39.2324C50.6772 36.8871 49.1467 34.3382 47.7078 32.2777C46.8232 31.0107 45.754 29.9256 44.8007 28.7225C43.4413 27.0073 42.2513 25.072 40.7614 23.4723C39.6225 22.2491 38.2556 21.2704 37.3911 19.8034C36.9742 19.0963 36.7081 18.3669 36.4305 17.6343L36.4496 17.1089H36.2273C36.1511 16.9172 36.0716 16.7258 35.9857 16.5349C35.571 15.6134 35.1147 15.3322 34.4709 14.6456C33.7564 13.8838 33.3917 13.1958 32.3229 12.8412C31.462 12.5553 30.6205 12.6837 29.7635 12.4869C29.6786 12.4675 29.3204 12.3308 29.2827 12.3546L28.5868 13.7357C28.9669 13.841 29.3381 13.995 29.7225 14.086C30.2012 14.1996 30.701 14.2388 31.1782 14.3611C32.7181 14.756 33.7898 15.7925 34.4979 17.1085H34.3203C33.8254 16.2263 33.0209 15.3584 32.132 14.9074C30.9815 14.3241 29.6822 14.4014 28.5091 13.8842C28.4401 13.8799 28.2466 14.3172 28.2696 14.3413C28.6753 14.4471 29.0691 14.5888 29.4812 14.6736C31.1383 15.0146 32.0982 14.9312 33.3043 16.332C33.519 16.5816 33.6942 16.8416 33.8412 17.1089H32.6628C32.2582 16.6949 31.7378 16.3522 31.2113 16.1461C30.4097 15.8321 29.5524 15.8001 28.7253 15.603C28.3962 15.5246 28.0798 15.4001 27.7507 15.3232C27.7439 15.3645 27.7993 15.3609 27.8298 15.3732C28.7113 15.7202 29.6628 15.7731 30.5726 16.0062C31.3588 16.2072 32.0298 16.5723 32.5952 17.1092H31.8791C31.8133 17.0639 31.7425 17.0204 31.6738 16.9967C31.722 17.0337 31.7695 17.0715 31.8169 17.1092H31.3225L31.3246 17.1657C30.568 16.6136 29.8121 16.5777 28.7605 16.3183C28.3527 16.218 27.9028 15.9929 27.522 15.913C27.4659 15.9011 27.4087 15.8871 27.3519 15.9047C27.3271 15.9979 27.2577 16.0824 27.2267 16.1694C27.2163 16.1989 27.1857 16.1979 27.2311 16.2324C27.723 16.3352 28.1974 16.5068 28.685 16.6248C29.7577 16.8844 30.536 16.9236 31.3415 17.6199L31.3498 17.8472C30.5313 17.0729 29.5366 17.0179 28.316 16.705C28.1416 16.6604 27.1746 16.3424 27.0922 16.3946L24.2609 21.6981C24.6411 21.7092 25.0158 21.7761 25.3862 21.8567C26.2831 22.0509 27.3023 22.3663 28.1902 22.63C29.9534 23.1532 30.596 23.9553 31.6112 25.0655L31.6217 25.3533C30.9064 24.6027 30.3335 23.8222 29.4042 23.291C28.6958 22.886 27.8859 22.7476 27.1102 22.5271C26.1335 22.2494 25.155 21.8653 24.1211 21.9052L23.9434 22.2753C24.5803 22.2433 25.2078 22.3854 25.8185 22.5497C26.6233 22.7666 27.6281 23.0335 28.4009 23.3137C29.9163 23.8632 30.614 24.8645 31.6425 25.9215L31.6652 26.5488C31.6342 26.5193 31.6033 26.4898 31.5731 26.4596C30.5097 25.4112 29.7678 24.2818 28.2858 23.7463C27.5414 23.4773 26.6201 23.2327 25.8476 23.0112C25.1485 22.8109 24.4228 22.6001 23.6884 22.7127L22.9918 24.006C23.1504 23.9876 23.3094 23.9359 23.4683 23.92C24.6015 23.8078 25.4869 24.0819 26.5568 24.3502C27.481 24.5818 28.3527 24.7321 29.1744 25.2518C30.0649 25.8147 30.6971 26.6915 31.5166 27.3235C31.5771 27.3699 31.6375 27.4145 31.6983 27.4576L31.7051 27.6472C31.5407 27.5367 31.3804 27.4209 31.2282 27.2943C29.9818 26.2564 29.4341 25.2777 27.7288 24.7933C27.0361 24.5965 26.2223 24.3923 25.5196 24.2333C24.8137 24.0736 23.6266 23.9445 22.9383 24.1693C22.8192 24.2081 22.7926 24.4246 22.7031 24.5253C23.7226 24.2376 24.7033 24.3495 25.7153 24.5858C27.0556 24.8983 28.3757 25.1569 29.4794 26.0143C30.071 26.474 30.5511 27.0753 31.129 27.5382C31.3171 27.6889 31.5145 27.8191 31.7155 27.9417L31.7785 29.6778C31.5832 29.5627 31.366 29.4361 31.1175 29.2803C29.6707 28.3719 28.982 27.3091 27.2253 26.7394C25.5703 26.2028 23.9837 25.659 22.2633 26.2927C22.1392 26.3384 21.6648 26.5416 21.5868 26.6117C21.5717 26.6254 21.3825 26.9444 21.3768 26.9642C21.3646 27.0041 21.38 27.0156 21.4192 27.0066C22.5254 26.261 23.8657 26.1463 25.1503 26.4207C26.0529 26.6135 27.4727 27.0199 28.2718 27.4537C29.1334 27.9216 29.7822 28.6121 30.5525 29.1829C30.9851 29.5033 31.4019 29.7112 31.7885 29.9443L31.8097 30.5312C31.4055 30.2449 30.9402 30.0313 30.5403 29.7429C29.2359 28.8013 28.7145 27.9903 27.0523 27.4608C24.9126 26.7797 22.7962 26.2492 20.914 27.8863L15.5912 37.7671C15.5042 38.7249 15.6117 39.6881 15.7887 40.6297C15.981 41.6543 16.436 42.9419 16.2281 43.9723C15.948 45.3613 14.667 46.1813 13.9859 47.3559C12.9894 49.0751 13.2361 51.1967 12.4758 53.0007C12.3769 53.2352 12.2263 53.4507 12.1446 53.6934H13.0246L13.0196 53.6963ZM40.0066 48.2292C39.9141 48.1195 39.7969 48.0209 39.6894 47.9264C39.6768 47.9803 39.7196 47.995 39.7466 48.0274C39.839 48.1371 39.9562 48.2357 40.0637 48.3302C40.0763 48.2763 40.0335 48.2616 40.0066 48.2292ZM38.795 47.0028C38.6702 46.8686 38.5462 46.7176 38.4055 46.5992C38.3732 46.5719 38.3584 46.5294 38.3045 46.542C38.4293 46.6762 38.5533 46.8272 38.694 46.9456C38.7263 46.9729 38.7411 47.0153 38.795 47.0028ZM55.3534 46.9161L55.0222 46.7715C54.2418 46.5208 53.4546 46.2601 52.6418 46.1378L54.2281 46.5561L55.353 46.9164L55.3534 46.9161ZM46.5211 36.8094L46.1226 36.0689C46.1877 36.2918 46.314 36.5249 46.4247 36.7328C46.9037 37.6341 47.396 38.1714 48.0257 38.94C48.8795 39.9823 48.8597 40.4613 49.1021 41.7295C49.2344 42.4225 49.4013 43.0893 49.671 43.7428C49.7235 43.75 49.6951 43.6824 49.6872 43.6547C49.6117 43.39 49.498 43.1196 49.4257 42.8487C49.0632 41.4903 49.1794 40.2434 48.2566 39.0846C47.6643 38.3404 46.9426 37.6909 46.5218 36.8094H46.5211ZM48.0836 38.7519C48.0412 38.6386 47.9491 38.5235 47.8772 38.425C47.6025 38.0484 47.3112 37.7078 47.062 37.3072C46.8494 36.9651 46.6854 36.5824 46.4833 36.2415C46.4646 36.2098 46.4542 36.1624 46.4107 36.1555C46.8358 37.096 47.4043 37.9754 48.0833 38.7519H48.0836ZM11.7217 53.6967C11.8138 53.6794 11.9929 53.2795 12.0385 53.1766C12.9343 51.1625 12.5625 48.7352 13.7899 46.8499C14.7878 45.3171 16.1012 44.9488 15.7998 42.7516C15.6344 41.545 15.2258 40.4146 15.1406 39.1698C15.1298 39.013 15.1593 38.8289 15.1406 38.6792C15.1356 38.639 15.1252 38.5958 15.0834 38.6364C15.0259 38.8558 14.8414 39.0205 14.8518 39.2558C14.9043 40.4523 15.3672 41.5971 15.5117 42.7513C15.7703 44.8157 14.5584 45.2207 13.6 46.6881C12.205 48.8233 12.7779 51.5301 11.4772 53.696H11.7224L11.7217 53.6967ZM10.12 53.3791C10.5562 52.5569 10.7827 51.6826 10.9244 50.7644C11.1869 49.0632 11.2844 47.598 12.2144 46.0824C12.5988 45.4562 13.1343 44.9603 13.531 44.3701C14.1905 43.3893 13.8622 42.5009 13.6683 41.4353C13.5874 41.5065 13.3781 41.859 13.3662 41.9503C13.3511 42.065 13.5123 42.5797 13.5256 42.7757C13.609 43.9978 12.8628 44.5441 12.2316 45.4365C11.4268 46.5744 11.0111 47.853 10.7637 49.219C10.5242 50.5407 10.4929 51.9639 9.77796 53.1396C9.7722 53.2032 10.0538 53.3442 10.1203 53.3795L10.12 53.3791ZM9.587 53.0324C10.0408 52.3832 10.2027 51.5855 10.3422 50.8169C10.6669 49.0287 10.791 47.4236 11.7415 45.8116C12.0731 45.2494 12.4963 44.7959 12.8506 44.2665C13.2972 43.5983 13.3882 43.0142 13.2357 42.2143C13.1537 42.2999 13.0861 42.4351 13.0293 42.5412C11.7997 44.8207 10.5508 47.1006 9.3554 49.3977C9.21011 49.6772 9.03031 49.9746 8.92997 50.2706C8.59373 51.2625 8.8318 52.3102 9.587 53.0331V53.0324Z" fill="#4B5A2A"/>
<path d="M35.4351 40.6839C35.9753 41.1956 36.3051 41.8869 36.6514 42.5616C36.5643 42.4253 36.464 42.2973 36.3511 42.1786C36.1519 41.7833 35.9433 41.3935 35.6649 41.0601C35.6164 41.0903 35.6779 41.123 35.6941 41.1464C35.7408 41.214 35.8063 41.2751 35.8476 41.3391C35.9965 41.5697 36.1256 41.8214 36.2497 42.0779C36.1889 42.0203 36.1245 41.966 36.0576 41.9135C35.9853 41.7617 35.9109 41.6125 35.8289 41.4733C35.3913 40.7328 34.4994 40.1749 33.9193 39.5171C33.4961 39.0373 33.2382 38.4468 32.9048 37.9066C32.8714 37.8523 32.8376 37.7983 32.8038 37.7444H32.912C33.1918 38.1753 33.4788 38.5914 33.764 38.9802C34.2969 39.7067 34.8036 40.0857 35.4355 40.6842L35.4351 40.6839ZM33.3831 38.6104C33.6111 38.9748 33.8438 39.3157 34.1337 39.634C34.375 39.8987 34.6533 40.1221 34.9 40.3821L35.2176 40.6267C34.5314 39.9743 33.8675 39.3269 33.3569 38.5209C33.3109 38.5475 33.3677 38.5856 33.3828 38.6101L33.3831 38.6104Z" fill="#4B5A2A"/>
<path d="M37.004 43.5081C37.5722 44.4061 38.2702 45.2017 39.0542 45.9217L39.0402 45.9645C38.2673 45.2844 37.5931 44.4971 37.0205 43.6411C37.0162 43.5962 37.0108 43.5519 37.004 43.5081Z" fill="#4B5A2A"/>
<path d="M34.9433 38.7235C35.3374 39.1903 35.8312 39.5669 36.1937 40.0697C36.7561 40.8487 37.0798 41.8557 37.607 42.6664L38.3618 43.8011C37.8634 43.2357 37.438 42.56 37.0776 41.8975C36.7917 41.3724 36.5709 40.8127 36.239 40.3125C35.7229 39.5342 34.9411 39.0263 34.4265 38.2304C34.3251 38.0736 34.2312 37.9107 34.1424 37.7449H34.2812C34.4704 38.0855 34.6822 38.4149 34.9433 38.7239V38.7235Z" fill="#4B5A2A"/>
<path d="M33.9063 47.2037C34.878 47.2037 35.7616 46.9031 36.3945 46.3568C37.0311 45.8076 37.3813 45.0469 37.3813 44.215C37.3813 43.3831 37.0228 42.6037 36.3715 42.0546C35.7379 41.5205 34.8622 41.2263 33.9063 41.2263C32.8947 41.2263 32.0273 41.5136 31.398 42.0571C30.7744 42.5955 30.4313 43.3619 30.4313 44.215C30.4313 45.0681 30.774 45.8119 31.3965 46.3557C32.032 46.9106 32.8998 47.2041 33.9063 47.2041V47.2037ZM33.9063 41.8736C35.5448 41.8736 36.734 42.8584 36.734 44.215C36.734 45.5716 35.5448 46.5564 33.9063 46.5564C32.2679 46.5564 31.0786 45.5936 31.0786 44.215C31.0786 42.8364 32.215 41.8736 33.9063 41.8736ZM31.7781 38.3918H36.0346L36.806 17.1113H31.0071L31.7785 38.3918H31.7781ZM35.4103 37.7444H32.4024L31.6781 17.7587H36.1345L35.4103 37.7444Z" fill="#4B5A2A"/>
</g>
<defs>
<clipPath id="clip0_390_3098">
<rect width="69" height="69" fill="white" transform="matrix(-1 0 0 1 69 0)"/>
</clipPath>
</defs>
</svg>
