<svg width="77" height="77" viewBox="0 0 77 77" fill="none" xmlns="http://www.w3.org/2000/svg">
<circle cx="38.5" cy="38.5" r="38.5" fill="url(#paint0_linear_390_3334)"/>
<g clip-path="url(#clip0_390_3334)">
<path d="M35.035 8.14678C35.8359 7.3372 37.0205 8.70281 36.0049 9.35019C35.2278 9.8458 34.4388 8.74957 35.035 8.14678Z" fill="#4B5A2A"/>
<path d="M41.0141 7.71026C41.8736 7.51281 41.8067 8.75686 41.095 8.62199C40.5631 8.52128 40.6066 7.80377 41.0141 7.71026Z" fill="#4B5A2A"/>
<path d="M39.4788 4L41.9044 4.18019C59.2061 5.92056 72.3056 19.8921 72.9734 37.2703C73.7143 56.5533 58.5822 72.3663 39.4252 72.9824C20.8925 73.5783 4.90018 58.9094 4.04033 40.3616C4.0263 40.0623 4.08384 39.7311 4.0058 39.4434C4.02055 38.7618 3.98602 38.0756 4.0058 37.3944C4.54308 19.012 19.34 4.5233 37.6458 4H39.4788ZM15.7449 61.8884C26.8715 72.8302 44.5606 74.18 57.3163 65.175C71.408 55.2269 75.3944 35.9633 66.2331 21.2218C59.7599 10.8054 47.9903 4.99589 35.7232 6.01335C18.7197 7.42392 5.70429 21.6444 5.87655 38.7413C5.96609 47.6399 9.44362 55.6919 15.7453 61.8884H15.7449Z" fill="#4B5A2A"/>
<path d="M19.7029 55.6643C20.6674 55.4999 21.0975 56.6746 20.3571 57.1813C20.091 57.3633 19.7231 57.3561 19.4494 57.1954C18.8359 56.8354 18.9783 55.788 19.7033 55.6647L19.7029 55.6643Z" fill="#4B5A2A"/>
<path d="M58.0867 18.5311C59.1577 18.3581 59.4835 20.0269 58.3629 20.1729C57.2427 20.319 57.0471 18.6994 58.0867 18.5311Z" fill="#4B5A2A"/>
<path d="M40.6557 66.3767C41.6148 66.2131 42.0571 67.5402 41.2059 67.9333C40.1792 68.4073 39.5085 66.959 40.4241 66.4684C40.4899 66.4332 40.5834 66.3889 40.6557 66.3767Z" fill="#4B5A2A"/>
<path d="M13.377 34.7791C14.3127 34.618 14.7906 35.8013 13.9808 36.2814C12.8724 36.9385 12.1852 34.9841 13.377 34.7791Z" fill="#4B5A2A"/>
<path d="M21.5363 15.836C22.4282 15.7259 22.8169 16.9685 21.9883 17.3663C20.857 17.9098 20.3485 15.9824 21.5363 15.836Z" fill="#4B5A2A"/>
<path d="M61.0551 42.5471C61.619 41.9706 62.6762 42.5913 62.39 43.397C62.2015 43.9275 61.4582 44.0893 61.0597 43.6868C60.7634 43.3876 60.7634 42.8453 61.0551 42.5471Z" fill="#4B5A2A"/>
<path d="M67.1076 42.9753C68.253 42.793 68.3411 44.4053 67.3468 44.5103C66.3869 44.6114 66.1651 43.1253 67.1076 42.9753Z" fill="#4B5A2A"/>
<path d="M11.4723 45.383C12.1707 45.2409 12.7407 45.8825 12.3516 46.5141C11.8359 47.3514 10.5434 46.6659 11.0005 45.7739C11.081 45.6168 11.2982 45.4182 11.4723 45.383Z" fill="#4B5A2A"/>
<path d="M67.1076 30.1779C67.9947 30.0272 68.3817 31.1292 67.6812 31.578C66.9828 32.0254 66.1783 31.2104 66.6199 30.5163C66.7163 30.3649 66.9292 30.2081 67.1079 30.1775L67.1076 30.1779Z" fill="#4B5A2A"/>
<path d="M25.9781 65.5174C26.724 64.7157 27.8665 66.0594 26.961 66.6622C26.1586 67.1963 25.3779 66.1622 25.9781 65.5174Z" fill="#4B5A2A"/>
<path d="M26.985 60.7728C27.2551 60.5027 27.778 60.5121 28.0516 60.7768C28.6385 61.3443 28.0559 62.2956 27.2152 62.0086C26.7059 61.8349 26.6261 61.1314 26.985 60.7728Z" fill="#4B5A2A"/>
<path d="M13.4097 30.1203C12.7634 30.7619 11.7414 29.9081 12.2722 29.1442C12.8684 28.2864 14.1944 29.3413 13.4097 30.1203Z" fill="#4B5A2A"/>
<path d="M46.0467 14.577C46.6872 14.4702 47.1816 15.105 46.8343 15.688C46.6142 16.0574 46.1129 16.1656 45.7568 15.9283C45.2224 15.5722 45.4073 14.6839 46.0467 14.577Z" fill="#4B5A2A"/>
<path d="M65.8498 34.9587C66.5205 34.8512 67.0049 35.5928 66.5971 36.1373C66.1072 36.7912 65.1266 36.3614 65.2647 35.559C65.3128 35.2799 65.5675 35.0041 65.8501 34.9587H65.8498Z" fill="#4B5A2A"/>
<path d="M53.0771 16.0297C52.3982 15.3982 53.3533 14.2311 54.1035 14.9134C54.8242 15.569 53.8118 16.7131 53.0771 16.0297Z" fill="#4B5A2A"/>
<path d="M16.5415 17.4155C17.3866 17.3479 17.7139 18.5844 16.8364 18.8635C15.7705 19.2026 15.4828 17.5 16.5415 17.4155Z" fill="#4B5A2A"/>
<path d="M8.65529 32.9966C7.98855 32.3018 9.05482 31.2566 9.7399 31.9655C10.411 32.66 9.33353 33.703 8.65529 32.9966Z" fill="#4B5A2A"/>
<path d="M63.2946 21.2055C62.684 21.8119 61.6497 20.9998 62.1935 20.2661C62.789 19.463 64.0603 20.4448 63.2946 21.2055Z" fill="#4B5A2A"/>
<path d="M50.6083 62.4733C50.5393 62.5341 50.3976 62.6053 50.3066 62.6211C49.1357 62.8247 49.1127 61.1117 50.2437 61.2278C50.8525 61.2904 51.073 62.0644 50.6083 62.4733Z" fill="#4B5A2A"/>
<path d="M43.9591 9.69298C44.2206 9.68759 44.5209 9.88216 44.6251 10.1221C44.9416 10.8504 43.9548 11.5445 43.4136 10.8665C43.0299 10.3857 43.3658 9.70521 43.9591 9.69298Z" fill="#4B5A2A"/>
<path d="M35.7691 67.5271C36.9393 67.3836 36.7415 69.3233 35.5986 68.901C34.9312 68.6547 35.0294 67.6178 35.7691 67.5271Z" fill="#4B5A2A"/>
<path d="M55.9298 61.8108C57.0277 61.5827 57.2147 63.271 56.028 63.1699C55.23 63.1019 55.2742 61.9471 55.9298 61.8108Z" fill="#4B5A2A"/>
<path d="M54.3222 60.308C54.2532 60.3688 54.1115 60.44 54.0205 60.4559C52.8496 60.6594 52.8265 58.9464 53.9575 59.0625C54.5664 59.1251 54.7868 59.8991 54.3222 60.308Z" fill="#4B5A2A"/>
<path d="M59.6437 59.646C60.7416 59.4179 60.9286 61.1062 59.7418 61.0051C58.9438 60.9371 58.9881 59.7823 59.6437 59.646Z" fill="#4B5A2A"/>
<path d="M11.7598 39.4523C12.5294 39.3229 12.9224 40.3281 12.2708 40.7539C11.9363 40.9726 11.4516 40.8036 11.2721 40.4623C11.0596 40.058 11.3059 39.5286 11.7598 39.4523Z" fill="#4B5A2A"/>
<path d="M16.8652 45.3823C17.5985 45.3251 17.9466 46.4159 17.1846 46.7112C16.0982 47.1324 15.8141 45.4643 16.8652 45.3823Z" fill="#4B5A2A"/>
<path d="M18.5543 60.0854C19.3196 60.0037 19.5983 61.101 18.91 61.4132C17.93 61.8574 17.4665 60.2015 18.5543 60.0854Z" fill="#4B5A2A"/>
<path d="M15.4257 49.6248C16.4211 49.4198 16.6016 50.7944 15.7972 50.9667C14.8068 51.1789 14.6216 49.7902 15.4257 49.6248Z" fill="#4B5A2A"/>
<path d="M52.2281 10.9823C53.2498 10.8079 53.2983 12.3433 52.3579 12.3623C51.5452 12.3785 51.4071 11.1226 52.2281 10.9823Z" fill="#4B5A2A"/>
<path d="M14.7446 55.3766C15.6217 55.2806 15.7562 56.5937 14.9471 56.6951C13.975 56.8167 13.8891 55.4701 14.7446 55.3766Z" fill="#4B5A2A"/>
<path d="M31.6314 10.2777C31.0323 10.8636 29.9786 9.87308 30.764 9.28432C31.4336 8.78224 32.1877 9.73353 31.6314 10.2777Z" fill="#4B5A2A"/>
<path d="M41.3025 13.247C42.3853 13.0597 42.3231 14.6263 41.333 14.4932C40.6328 14.399 40.6346 13.3628 41.3025 13.247Z" fill="#4B5A2A"/>
<path d="M63.0464 46.7855C64.1246 46.601 64.0857 48.1274 63.1097 48.035C62.4056 47.9684 62.4128 46.8938 63.0464 46.7855Z" fill="#4B5A2A"/>
<path d="M23.2611 12.0251C23.9652 11.9068 24.259 12.8757 23.6441 13.1627C22.8065 13.5536 22.3649 12.1758 23.2611 12.0251Z" fill="#4B5A2A"/>
<path d="M61.8612 31.7946C62.4399 31.7097 62.8149 32.5894 62.2025 32.8922C61.3675 33.3051 60.9827 31.9233 61.8612 31.7946Z" fill="#4B5A2A"/>
<path d="M17.2557 38.737C17.8243 39.3473 16.835 40.1713 16.3754 39.4556C15.9874 38.8517 16.812 38.2604 17.2557 38.737Z" fill="#4B5A2A"/>
<path d="M15.5338 26.0441C16.3235 25.916 16.4073 27.1058 15.6636 27.1367C14.9616 27.1662 14.8915 26.148 15.5338 26.0441Z" fill="#4B5A2A"/>
<path d="M23.009 61.5956C23.925 61.4399 23.77 62.9065 22.9475 62.6102C22.4322 62.4242 22.4879 61.6841 23.009 61.5956Z" fill="#4B5A2A"/>
<path d="M68.4013 38.9129C68.6088 38.8701 68.8041 38.9086 68.9447 39.0719C69.3327 39.5218 68.8066 40.2012 68.2912 39.8689C67.9431 39.6445 67.9744 39.0007 68.4013 38.9125V38.9129Z" fill="#4B5A2A"/>
<path d="M66.494 51.0064C66.0124 51.488 65.3011 50.7679 65.7316 50.2979C66.2351 49.748 66.9867 50.5133 66.494 51.0064Z" fill="#4B5A2A"/>
<path d="M21.7151 51.1707C22.5131 51.0046 22.6084 52.2137 21.814 52.1716C21.2311 52.1407 21.2203 51.2739 21.7151 51.1707Z" fill="#4B5A2A"/>
<path d="M65.5619 25.6124C66.1782 25.4983 66.4681 26.2432 65.9441 26.5338C65.2752 26.9046 64.8455 25.7447 65.5619 25.6124Z" fill="#4B5A2A"/>
<path d="M11.6736 24.4778C11.2061 24.0074 11.8728 23.2575 12.3817 23.7517C12.8765 24.2329 12.0883 24.895 11.6736 24.4778Z" fill="#4B5A2A"/>
<path d="M61.5721 24.2105C62.2641 24.0684 62.418 25.0762 61.8073 25.2002C61.1169 25.3409 60.987 24.3306 61.5721 24.2105Z" fill="#4B5A2A"/>
<path d="M15.2458 21.5145C15.9754 21.3645 16.0725 22.4658 15.377 22.5115C14.8556 22.5456 14.6772 21.6314 15.2458 21.5145Z" fill="#4B5A2A"/>
<path d="M48.6208 67.5416C48.2414 67.1392 48.7377 66.4073 49.2369 66.7996C49.8065 67.2471 49.0765 68.025 48.6208 67.5416Z" fill="#4B5A2A"/>
<path d="M57.908 14.8282C58.3741 14.8012 58.5625 15.4986 58.0856 15.7622C57.4574 16.1096 57.0629 14.8771 57.908 14.8282Z" fill="#4B5A2A"/>
<path d="M37.3847 63.3565C38.0428 63.2213 38.1745 64.1604 37.6199 64.2744C36.9687 64.4082 36.8191 63.4727 37.3847 63.3565Z" fill="#4B5A2A"/>
<path d="M33.323 11.8441C34.0095 11.6869 34.2112 12.5569 33.6222 12.7181C33.0065 12.8864 32.8123 11.961 33.323 11.8441Z" fill="#4B5A2A"/>
<path d="M47.9477 9.43952C48.5364 9.40427 48.6367 10.2728 48.0844 10.361C47.4234 10.4667 47.3446 9.47585 47.9477 9.43952Z" fill="#4B5A2A"/>
<path d="M8.77641 42.723C9.51579 42.573 9.55751 43.6789 8.84007 43.6149C8.35566 43.5718 8.30675 42.8183 8.77641 42.723Z" fill="#4B5A2A"/>
<path d="M28.3643 12.1678C28.8451 12.0703 29.1519 12.6861 28.7153 12.9864C28.1169 13.3982 27.6926 12.3038 28.3643 12.1678Z" fill="#4B5A2A"/>
<path d="M42.6683 62.2427C43.3782 62.0582 43.4516 63.1192 42.8032 63.0998C42.2922 63.0847 42.2505 62.3514 42.6683 62.2427Z" fill="#4B5A2A"/>
<path d="M33.5761 64.4712C33.9778 64.4478 34.2436 65.015 33.8185 65.2897C33.2169 65.6785 32.8724 64.5122 33.5761 64.4712Z" fill="#4B5A2A"/>
<path d="M8.20232 38.2278C8.79137 38.1545 8.88164 39.0119 8.33322 39.0809C7.69489 39.1615 7.70532 38.2897 8.20232 38.2278Z" fill="#4B5A2A"/>
<path d="M30.9167 66.735C31.3971 66.6649 31.5992 67.3425 31.1745 67.5687C30.6106 67.869 30.2672 66.83 30.9167 66.735Z" fill="#4B5A2A"/>
<path d="M53.5947 18.8895C54.1636 18.7805 54.3323 19.6077 53.822 19.7293C53.1811 19.8818 53.1053 18.9834 53.5947 18.8895Z" fill="#4B5A2A"/>
<path d="M20.7664 47.2563C21.139 46.8657 21.7902 47.425 21.4008 47.8368C20.9778 48.2838 20.3902 47.6508 20.7664 47.2563Z" fill="#4B5A2A"/>
<path d="M10.358 49.3736C11.0222 49.238 11.1038 50.2299 10.4565 50.1943C9.9764 50.1681 9.92857 49.461 10.358 49.3736Z" fill="#4B5A2A"/>
<path d="M49.5339 13.3529C49.9597 13.2727 50.288 13.9075 49.8087 14.133C49.1811 14.4283 48.9423 13.4644 49.5339 13.3529Z" fill="#4B5A2A"/>
<path d="M44.4499 68.6935C44.0637 68.2568 44.7236 67.6915 45.0868 68.1464C45.4457 68.5963 44.7577 69.0416 44.4499 68.6935Z" fill="#4B5A2A"/>
<path d="M57.6919 30.5362C58.2525 30.428 58.3974 31.2437 57.8904 31.3473C57.3107 31.4659 57.1765 30.6355 57.6919 30.5362Z" fill="#4B5A2A"/>
<path d="M45.2565 65.2243C45.7974 65.1433 45.8776 65.94 45.4554 66.0364C44.825 66.1806 44.711 65.3059 45.2565 65.2243Z" fill="#4B5A2A"/>
<path d="M63.0488 52.7363C62.9797 52.797 62.838 52.8682 62.747 52.8841C61.5761 53.0876 61.5531 51.3746 62.6841 51.4908C63.2929 51.5533 63.5134 52.3273 63.0488 52.7363Z" fill="#4B5A2A"/>
<path d="M55.1093 52.5062C55.8191 52.3217 55.8925 53.3827 55.2441 53.3632C54.7331 53.3481 54.6914 52.6148 55.1093 52.5062Z" fill="#4B5A2A"/>
<path d="M57.6979 55.4877C58.2388 55.4068 58.319 56.2034 57.8968 56.2998C57.2664 56.444 57.1524 55.5693 57.6979 55.4877Z" fill="#4B5A2A"/>
<path d="M42.3139 49.9719C42.2449 50.0326 42.1032 50.1038 42.0122 50.1197C40.8413 50.3232 40.8182 48.6102 41.9492 48.7264C42.5581 48.7889 42.7785 49.5629 42.3139 49.9719Z" fill="#4B5A2A"/>
<path d="M34.3744 49.7418C35.0843 49.5573 35.1576 50.6183 34.5092 50.5988C33.9982 50.5837 33.9565 49.8504 34.3744 49.7418Z" fill="#4B5A2A"/>
<path d="M36.9626 52.7233C37.5035 52.6424 37.5837 53.439 37.1615 53.5354C36.531 53.6796 36.417 52.8049 36.9626 52.7233Z" fill="#4B5A2A"/>
<path d="M36.3764 56.9333C37.3355 56.7697 37.7779 58.0968 36.9266 58.4899C35.8999 58.964 35.2292 57.5156 36.1448 57.025C36.2106 56.9898 36.3041 56.9456 36.3764 56.9333Z" fill="#4B5A2A"/>
<path d="M46.3285 53.0302C46.2595 53.091 46.1178 53.1622 46.0268 53.178C44.8559 53.3816 44.8329 51.6685 45.9639 51.7847C46.5727 51.8473 46.7932 52.6213 46.3285 53.0302Z" fill="#4B5A2A"/>
<path d="M31.4898 58.084C32.66 57.9405 32.4622 59.8801 31.3193 59.4579C30.6519 59.2115 30.7501 58.1747 31.4898 58.084Z" fill="#4B5A2A"/>
<path d="M44.341 58.0983C43.9616 57.6958 44.4579 56.9639 44.9571 57.3563C45.5267 57.8037 44.7967 58.5816 44.341 58.0983Z" fill="#4B5A2A"/>
<path d="M33.1054 53.9137C33.7635 53.7784 33.8952 54.7175 33.3406 54.8315C32.6894 54.9653 32.5398 54.0298 33.1054 53.9137Z" fill="#4B5A2A"/>
<path d="M38.389 52.7999C39.0989 52.6154 39.1723 53.6764 38.5239 53.6569C38.0129 53.6418 37.9712 52.9085 38.389 52.7999Z" fill="#4B5A2A"/>
<path d="M40.9777 55.7814C41.5186 55.7005 41.5988 56.4971 41.1766 56.5935C40.5462 56.7377 40.4322 55.863 40.9777 55.7814Z" fill="#4B5A2A"/>
<path d="M48.6762 34.9746C49.6353 34.811 50.0777 36.1381 49.2264 36.5312C48.1997 37.0052 47.529 35.5569 48.4446 35.0663C48.5104 35.0311 48.6039 34.9868 48.6762 34.9746Z" fill="#4B5A2A"/>
<path d="M56.6413 36.1395C56.2619 35.7371 56.7582 35.0052 57.2574 35.3975C57.827 35.845 57.097 36.6229 56.6413 36.1395Z" fill="#4B5A2A"/>
<path d="M53.2775 33.8224C53.8184 33.7415 53.8986 34.5381 53.4764 34.6345C52.846 34.7787 52.732 33.9041 53.2775 33.8224Z" fill="#4B5A2A"/>
<path d="M38.5705 10.4065C39.2948 10.241 39.2826 11.3006 38.6806 11.2182C38.2238 11.156 38.2346 10.4831 38.5705 10.4065Z" fill="#4B5A2A"/>
<path d="M50.7187 17.2009C51.3107 17.0801 51.4211 17.8429 51.018 17.9673C50.4109 18.1544 50.2142 17.3041 50.7187 17.2009Z" fill="#4B5A2A"/>
<path d="M23.6919 56.3831C24.1842 56.2828 24.3856 56.8622 24.0073 57.1298C23.4808 57.502 23.1294 56.4979 23.6919 56.3831Z" fill="#4B5A2A"/>
<path d="M63.6416 40.0653C63.9495 39.6801 64.627 40.1286 64.2774 40.576C63.9196 41.0339 63.3172 40.471 63.6416 40.0653Z" fill="#4B5A2A"/>
<path d="M12.012 52.1397C12.3886 52.0685 12.7029 52.6356 12.3202 52.8817C11.7366 53.2568 11.4118 52.253 12.012 52.1397Z" fill="#4B5A2A"/>
<path d="M52.873 65.4218C52.5605 65.7976 51.9218 65.3286 52.2207 64.8949C52.5138 64.4694 53.2435 64.9765 52.873 65.4218Z" fill="#4B5A2A"/>
<path d="M16.3937 32.206C15.9902 32.5912 15.467 31.9622 15.8482 31.6065C16.242 31.2389 16.771 31.8464 16.3937 32.206Z" fill="#4B5A2A"/>
<path d="M26.4958 9.86717C26.9029 9.78805 27.1679 10.3311 26.8202 10.5879C26.2858 10.9828 25.8729 9.98838 26.4958 9.86717Z" fill="#4B5A2A"/>
<path d="M36.5433 13.5369C36.9458 13.1816 37.5179 13.8671 37.0536 14.1732C36.5894 14.4792 36.2013 13.8394 36.5433 13.5369Z" fill="#4B5A2A"/>
<path d="M43.9222 24.973C44.5627 24.8662 45.0571 25.501 44.7097 26.084C44.4897 26.4534 43.9883 26.5616 43.6323 26.3243C43.0979 25.9682 43.2828 25.0799 43.9222 24.973Z" fill="#4B5A2A"/>
<path d="M41.8351 20.0887C42.0965 20.0833 42.3968 20.2779 42.5011 20.5178C42.8176 21.2461 41.8308 21.9402 41.2896 21.2623C40.9058 20.7814 41.2417 20.101 41.8351 20.0887Z" fill="#4B5A2A"/>
<path d="M39.1779 23.643C40.2608 23.4556 40.1985 25.0223 39.2085 24.8892C38.5083 24.795 38.5101 23.7588 39.1779 23.643Z" fill="#4B5A2A"/>
<path d="M31.1984 22.2398C31.885 22.0827 32.0867 22.9527 31.4976 23.1138C30.882 23.2821 30.6878 22.3567 31.1984 22.2398Z" fill="#4B5A2A"/>
<path d="M36.4455 20.8025C37.1698 20.637 37.1576 21.6966 36.5556 21.6142C36.0988 21.552 36.1096 20.8791 36.4455 20.8025Z" fill="#4B5A2A"/>
<path d="M34.4188 23.9329C34.8212 23.5776 35.3934 24.2631 34.9291 24.5692C34.4649 24.8752 34.0768 24.2354 34.4188 23.9329Z" fill="#4B5A2A"/>
<path d="M14.2404 41.9315C14.8578 41.8135 14.8593 42.7954 14.2702 42.7134C13.8308 42.6522 13.8185 42.0124 14.2404 41.9315Z" fill="#4B5A2A"/>
<path d="M23.8525 38.3838C24.5858 38.3266 24.9339 39.4174 24.1719 39.7127C23.0855 40.1338 22.8014 38.4658 23.8525 38.3838Z" fill="#4B5A2A"/>
<path d="M22.4125 42.6263C23.4079 42.4213 23.5884 43.7959 22.784 43.9681C21.7936 44.1803 21.6084 42.7917 22.4125 42.6263Z" fill="#4B5A2A"/>
<path d="M28.702 44.1722C29.5 44.006 29.5953 45.2152 28.8009 45.1731C28.2179 45.1422 28.2071 44.2754 28.702 44.1722Z" fill="#4B5A2A"/>
<path d="M27.7537 40.2578C28.1263 39.8672 28.7775 40.4264 28.3881 40.8382C27.9651 41.2853 27.3775 40.6523 27.7537 40.2578Z" fill="#4B5A2A"/>
<path d="M21.2272 34.9329C21.8447 34.815 21.8461 35.7968 21.257 35.7148C20.8176 35.6537 20.8054 35.0139 21.2272 34.9329Z" fill="#4B5A2A"/>
<path d="M25.0949 15.2219C25.6225 15.1625 25.6937 15.97 25.1568 16.0081C24.6558 16.044 24.5825 15.2794 25.0949 15.2219Z" fill="#4B5A2A"/>
<path d="M17.6531 52.8593C18.0947 52.7594 18.3536 53.3003 17.9689 53.5707C17.4481 53.9372 17.1086 52.9827 17.6531 52.8593Z" fill="#4B5A2A"/>
<path d="M19.6285 14.1847C20.0194 14.5145 19.5152 15.1399 19.1175 14.7853C18.7198 14.4307 19.238 13.8552 19.6285 14.1847Z" fill="#4B5A2A"/>
<path d="M9.6407 27.3726C10.0395 27.3186 10.2614 27.8739 9.8989 28.1005C9.36271 28.4357 9.04876 27.4528 9.6407 27.3726Z" fill="#4B5A2A"/>
<path d="M62.2919 27.948C62.8306 27.8437 63.0003 28.7331 62.3541 28.6978C61.8963 28.6727 61.8798 28.0278 62.2919 27.948Z" fill="#4B5A2A"/>
<path d="M67.6108 47.0716C68.0135 47.0338 68.1912 47.6236 67.8096 47.8107C67.272 48.0739 66.9958 47.1295 67.6108 47.0716Z" fill="#4B5A2A"/>
<path d="M50.7455 41.3791C51.3094 40.8026 52.3667 41.4234 52.0804 42.229C51.892 42.7595 51.1486 42.9213 50.7502 42.5189C50.4538 42.2196 50.4538 41.6773 50.7455 41.3791Z" fill="#4B5A2A"/>
<path d="M56.7981 41.8071C57.9434 41.6247 58.0316 43.2371 57.0372 43.3421C56.0774 43.4432 55.8555 41.9571 56.7981 41.8071Z" fill="#4B5A2A"/>
<path d="M52.7368 45.6175C53.815 45.433 53.7761 46.9594 52.8001 46.867C52.096 46.8004 52.1032 45.7258 52.7368 45.6175Z" fill="#4B5A2A"/>
<path d="M53.3325 38.8971C53.6404 38.5119 54.3179 38.9604 53.9683 39.4078C53.6105 39.8657 53.0082 39.3028 53.3325 38.8971Z" fill="#4B5A2A"/>
<path d="M57.3017 45.9038C57.7045 45.8661 57.8821 46.4559 57.5005 46.6429C56.9629 46.9062 56.6867 45.9617 57.3017 45.9038Z" fill="#4B5A2A"/>
<path d="M9.60427 35.4961C9.99517 35.4278 10.2336 35.9723 9.8765 36.2021C9.33815 36.5488 9.04074 35.5947 9.60427 35.4961Z" fill="#4B5A2A"/>
<path d="M64.7681 54.0857C65.2575 54.057 65.3341 54.8245 64.8299 54.8536C64.3214 54.8831 64.3038 54.1131 64.7681 54.0857Z" fill="#4B5A2A"/>
<path d="M55.8324 15.9297C50.5744 15.1421 45.913 19.4673 46.373 24.774C46.428 25.4103 46.592 25.8357 46.4348 26.4964C46.2273 27.3693 45.096 28.627 44.4857 29.3129C43.1148 30.8533 41.0035 32.8667 39.1946 33.8474C38.9706 33.969 38.7325 34.0611 38.4998 34.1618C38.2675 34.0611 38.0291 33.9686 37.805 33.8474C35.9961 32.8667 33.8848 30.8533 32.5139 29.3129C31.9037 28.627 30.7723 27.3693 30.5648 26.4964C30.4076 25.8354 30.5716 25.4103 30.6267 24.774C31.0866 19.467 26.4256 15.1417 21.1672 15.9297C14.3323 16.9537 11.8469 25.2477 16.8546 29.9664C19.4094 32.3736 23.1739 32.826 26.281 31.1914C27.0056 30.8101 27.3807 30.3606 28.2837 30.4642C28.8785 30.5325 29.1813 30.8695 29.5428 31.2935C30.3684 32.261 31.1337 33.3169 31.9393 34.3053C32.7757 35.3317 33.6439 36.3334 34.4818 37.3591C34.507 37.3782 34.5965 37.2739 34.6152 37.2509C34.8187 37.0023 34.9791 36.6851 35.2032 36.4459C35.2147 36.396 34.8968 36.2478 34.8321 36.205C33.5716 35.3699 32.1964 33.3238 31.2146 32.1114C30.659 31.4252 29.5546 29.8779 28.7466 29.6265C27.4936 29.237 26.6338 30.1343 25.6028 30.621C22.0404 32.3027 17.9252 30.9666 15.9772 27.5905C13.6091 23.4861 15.7783 18.247 20.2865 16.9504C25.4147 15.4755 30.3415 19.5943 29.7927 24.9049C29.7172 25.6354 29.3248 26.5043 29.7474 27.1798C30.1002 27.7434 30.723 28.2638 31.0819 28.8439C32.7459 30.8537 35.1086 33.4025 37.4249 34.6293C37.4674 34.652 37.5109 34.67 37.5601 34.6685C37.5921 34.7038 37.4433 34.7948 37.4123 34.8282C37.2688 34.9847 37.1171 35.1947 36.9869 35.3666C36.8128 35.5968 36.6406 35.832 36.4694 36.0697L34.7288 38.1676L34.7849 38.291L34.8403 38.3647C32.5848 41.511 30.3084 44.6939 28.1683 47.9132C26.2051 50.866 23.8931 54.5532 23.0678 58.0203C22.9009 58.7216 22.6452 60.111 22.8373 60.7853C22.9757 61.2719 23.2206 61.205 23.6033 61.0457C25.1442 60.4051 26.9794 58.3699 28.0554 57.0909C30.5878 54.082 32.7966 50.7556 35.2165 47.6525C35.2916 47.5449 35.3528 47.6417 35.4341 47.6532C35.7505 47.6974 35.8976 47.264 35.639 47.0781L38.4991 43.255L41.3592 47.0781C41.1006 47.2637 41.2477 47.6971 41.5641 47.6532C41.6454 47.642 41.7066 47.5449 41.7817 47.6525C44.2016 50.7552 46.4104 54.082 48.9428 57.0909C50.0192 58.3699 51.8543 60.4051 53.3949 61.0457C53.7776 61.2047 54.0225 61.2719 54.1609 60.7853C54.3526 60.111 54.0973 58.7216 53.9304 58.0203C53.1051 54.5532 50.7931 50.866 48.8299 47.9132C46.6898 44.6943 44.4134 41.511 42.1579 38.3647L42.2133 38.291L42.2694 38.1676L40.5288 36.0697C40.3576 35.832 40.1854 35.5968 40.0113 35.3666C39.8811 35.1947 39.7294 34.9847 39.5859 34.8282C39.5549 34.7944 39.4061 34.7034 39.4381 34.6685C39.4873 34.67 39.5309 34.652 39.5733 34.6293C41.89 33.4025 44.2523 30.854 45.9163 28.8439C46.2755 28.2641 46.8984 27.7437 47.2508 27.1798C47.6734 26.5043 47.281 25.6358 47.2055 24.9049C46.6567 19.5943 51.5839 15.4758 56.7117 16.9504C61.2199 18.247 63.3891 23.4861 61.021 27.5905C59.073 30.9666 54.9579 32.3031 51.3955 30.621C50.3648 30.1343 49.5046 29.237 48.2516 29.6265C47.4436 29.8779 46.3392 31.4252 45.7836 32.1114C44.8022 33.3238 43.427 35.3699 42.1662 36.205C42.1014 36.2478 41.7835 36.3963 41.795 36.4459C42.0194 36.6851 42.1795 37.002 42.383 37.2509C42.4017 37.2739 42.4913 37.3782 42.5164 37.3591C43.354 36.3334 44.2225 35.3321 45.0589 34.3053C45.8645 33.3166 46.6298 32.261 47.4554 31.2935C47.8172 30.8695 48.1197 30.5328 48.7145 30.4642C49.6175 30.3602 49.9926 30.8101 50.7172 31.1914C53.8243 32.826 57.5888 32.3736 60.1436 29.9664C65.1513 25.2477 62.666 16.9537 55.831 15.9297H55.8324ZM37.194 37.4469C37.3152 36.8142 37.8629 36.3046 38.4998 36.2172C39.1367 36.3042 39.6844 36.8142 39.8056 37.4469C39.9915 38.4169 39.3032 39.1739 38.4998 39.2836C37.6964 39.1739 37.0081 38.4169 37.194 37.4469ZM34.1606 40.7456C33.983 41.1682 33.75 41.5631 33.5029 41.9483C32.7027 43.1949 31.7774 44.5249 30.9165 45.7344C30.4249 46.425 29.8815 47.0774 29.3155 47.7075L34.1606 40.746V40.7456ZM27.0819 51.1098C27.3973 50.5916 27.7227 50.074 28.0564 49.5676C28.1899 49.3648 28.3222 49.1414 28.4851 48.9659L26.9974 51.5608L25.9958 53.0358C26.3144 52.374 26.7 51.7385 27.0822 51.1102L27.0819 51.1098ZM35.301 46.1297C34.7727 46.8245 34.2739 47.5439 33.7316 48.2286C33.1717 48.9361 32.5085 49.6162 31.9817 50.3341C31.4261 51.0908 30.9546 51.9486 30.4076 52.7225C30.1034 53.1534 29.7776 53.5753 29.4593 53.9964C28.361 55.4502 27.2171 56.8755 25.9685 58.203C26.0944 57.8225 26.3019 57.438 26.4989 57.0873C27.5548 55.2099 29.0461 53.6451 30.2091 51.8284C30.6004 51.2174 30.9399 50.5711 31.3542 49.9748C31.9501 49.117 32.7114 48.3588 33.3562 47.5323C33.8877 46.8508 34.3437 46.1153 34.8727 45.4345C35.4229 44.7259 36.0256 44.0742 36.5536 43.3402C36.7438 43.0758 37.1815 42.5011 37.2908 42.2281C37.3221 42.1497 37.3221 42.0562 37.2167 42.09C36.5104 43.3301 35.5157 44.3605 34.6584 45.4881C34.2746 45.9927 33.9344 46.5278 33.555 47.0353C32.9876 47.7952 32.3449 48.4847 31.7512 49.2209C30.9259 50.2445 30.326 51.453 29.5769 52.5355C28.3895 54.2514 27.0121 55.7246 26.0703 57.6232C25.9512 57.8635 25.8545 58.1871 25.7272 58.4047C25.629 58.5727 25.4096 58.7335 25.2715 58.8727C25.8135 57.457 26.5604 56.1292 27.4447 54.9013C28.1586 53.9101 28.9285 52.9959 29.5927 51.9622C30.0638 51.2289 30.4796 50.4394 30.9629 49.7176C31.5563 48.8311 32.3521 48.0592 33.0073 47.2108C33.4928 46.5825 33.9111 45.9056 34.3901 45.2737C34.8339 44.6882 35.3442 44.1516 35.7922 43.57C36.2288 43.0032 36.6035 42.3929 36.9851 41.7886L36.9862 41.7372L36.2752 40.9068C35.6937 42.4454 34.5008 43.6527 33.5489 44.968C32.9901 45.7402 32.4978 46.567 31.9101 47.3183C31.4059 47.9628 30.8054 48.5261 30.3361 49.1983C29.4654 50.4452 28.8537 51.8349 27.9435 53.0977C26.6777 54.8535 25.6171 56.2407 24.922 58.3494C24.8213 58.6551 24.7404 59.1255 24.626 59.392C24.5789 59.5013 24.4218 59.6204 24.3074 59.6488C24.726 57.7423 25.5305 55.9055 26.6255 54.2964C27.0999 53.5997 27.6418 52.9462 28.1039 52.2406C28.9274 50.9832 29.5241 49.5389 30.4778 48.3765C30.7971 47.9869 31.1654 47.632 31.4815 47.2381C32.1306 46.4286 32.6747 45.4945 33.281 44.6465C34.129 43.4603 35.1759 42.4101 35.679 41.0201C35.716 40.9179 35.8893 40.4532 35.8703 40.3889C35.8602 40.355 35.8286 40.3367 35.7933 40.3443C35.5369 41.0823 35.2629 41.7836 34.8083 42.4252C34.3397 43.0866 33.7845 43.7157 33.308 44.3789C32.706 45.2169 32.1748 46.1088 31.5466 46.9281C31.0327 47.5985 30.4217 48.1844 29.9344 48.8771C29.2292 49.8795 28.7315 51.035 28.0665 52.0694C27.5095 52.9362 26.8327 53.7235 26.2774 54.591C25.2813 56.1465 24.5383 57.9311 24.1815 59.7488L23.7453 60.0505C24.0737 57.6642 25.0367 55.3682 26.3896 53.3911C26.737 52.8833 27.1196 52.4028 27.4508 51.882C28.1938 50.7131 28.7717 49.3997 29.5755 48.2772C29.9081 47.8125 30.3188 47.4133 30.6784 46.9706C31.3455 46.1491 31.8781 45.2471 32.4776 44.3789C33.2681 43.2348 34.1347 42.2227 34.7263 40.9514C34.8238 40.7417 34.8943 40.5169 34.9932 40.3079C35.0849 40.1141 35.2312 39.9307 35.2837 39.7285C35.2276 39.6742 35.0698 39.9249 35.0378 39.9774C34.7472 40.4558 34.5562 41.0495 34.2804 41.5495C33.8402 42.3468 33.1889 43.1136 32.665 43.87C31.9213 44.9435 31.2405 46.0667 30.4105 47.0774C30.2066 47.3255 29.9693 47.5482 29.7697 47.8021C28.7674 49.0785 28.1187 50.6063 27.2362 51.9622C26.8981 52.4819 26.5047 52.9678 26.1591 53.4821C24.99 55.2214 24.0438 57.4524 23.7223 59.5326C23.7032 59.6553 23.6939 60.0757 23.6266 60.1332C23.5964 60.1591 23.5684 60.1613 23.5306 60.1573C23.6162 58.4911 24.1441 56.8262 24.8375 55.32C25.506 53.8673 26.409 52.7646 27.2362 51.4267C27.968 50.2431 28.5754 48.8965 29.4212 47.8017C30.1171 46.9011 30.8097 46.1491 31.466 45.1881C32.1906 44.1275 33.0196 43.0018 33.6881 41.9217C34.1056 41.2474 34.3509 40.5014 34.7796 39.854C34.8641 39.7264 35.1392 39.3189 35.2302 39.2336C35.2496 39.2153 35.2618 39.1847 35.2963 39.1934C35.8271 39.9076 36.4205 40.5726 36.9973 41.2499L37.9859 42.5712C37.116 43.7775 36.199 44.9468 35.2992 46.1304L35.301 46.1297ZM48.9436 49.5673C49.2769 50.0737 49.6027 50.5916 49.9181 51.1095C50.3004 51.7378 50.6856 52.373 51.0045 53.0351L50.003 51.5601L48.5152 48.9652C48.6782 49.1411 48.8105 49.3644 48.9439 49.5669L48.9436 49.5673ZM47.6845 47.7071C47.1185 47.077 46.5751 46.425 46.0835 45.7341C45.2226 44.5245 44.2973 43.1949 43.4971 41.948C43.25 41.5631 43.0167 41.1682 42.8394 40.7453L47.6845 47.7068V47.7071ZM41.7015 39.1926C41.736 39.184 41.7483 39.2149 41.7677 39.2329C41.8583 39.3182 42.1338 39.7257 42.2183 39.8533C42.647 40.5011 42.8922 41.2466 43.3097 41.921C43.9783 43.001 44.8072 44.1268 45.5318 45.1874C46.1885 46.1487 46.8808 46.9004 47.5766 47.801C48.4225 48.8958 49.0299 50.2427 49.7617 51.426C50.5888 52.7639 51.4915 53.8666 52.1604 55.3193C52.8537 56.8255 53.382 58.4903 53.4672 60.1566C53.4295 60.1606 53.4011 60.1581 53.3712 60.1325C53.3043 60.075 53.2946 59.6545 53.2755 59.5319C52.954 57.4517 52.0082 55.2207 50.8388 53.4814C50.4932 52.9671 50.0997 52.4809 49.7617 51.9615C48.8792 50.6056 48.2308 49.0778 47.2282 47.8014C47.0286 47.5474 46.7916 47.3248 46.5873 47.0767C45.7573 46.0664 45.0766 44.9428 44.3329 43.8692C43.8089 43.1129 43.1576 42.3465 42.7175 41.5487C42.4416 41.0488 42.2507 40.455 41.9601 39.9767C41.9281 39.9238 41.7702 39.6731 41.7141 39.7278C41.7666 39.9296 41.913 40.1134 42.0047 40.3072C42.1036 40.5165 42.1737 40.741 42.2715 40.9506C42.8631 42.222 43.7298 43.2337 44.5202 44.3782C45.1197 45.246 45.6523 46.1484 46.3194 46.9698C46.679 47.4126 47.0894 47.8118 47.4224 48.2765C48.2261 49.399 48.804 50.7124 49.547 51.8813C49.8782 52.4021 50.2605 52.8826 50.6082 53.3904C51.9615 55.3674 52.9246 57.6635 53.2525 60.0498L52.8163 59.7481C52.4599 57.9304 51.717 56.1457 50.7204 54.5902C50.1648 53.7231 49.4884 52.9355 48.9313 52.0687C48.2664 51.034 47.7687 49.8787 47.0635 48.8764C46.5765 48.184 45.9655 47.5982 45.4513 46.9274C44.8234 46.1081 44.2922 45.2158 43.6899 44.3782C43.2134 43.715 42.6581 43.0859 42.1895 42.4245C41.735 41.7829 41.4609 41.0816 41.2045 40.3435C41.1693 40.3363 41.1376 40.3543 41.1276 40.3881C41.1082 40.4525 41.2818 40.9172 41.3189 41.0193C41.822 42.4094 42.8685 43.4596 43.7168 44.6457C44.3232 45.4935 44.8673 46.4275 45.5164 47.2374C45.8321 47.6312 46.2004 47.9862 46.5201 48.3757C47.4741 49.5385 48.0704 50.9829 48.8939 52.2399C49.356 52.9452 49.8983 53.5987 50.3723 54.2957C51.4674 55.9048 52.2722 57.7415 52.6904 59.6481C52.5761 59.6197 52.4189 59.501 52.3718 59.3913C52.2571 59.1251 52.1765 58.6543 52.0759 58.3486C51.3807 56.2396 50.3202 54.8524 49.0543 53.0969C48.1441 51.8345 47.5324 50.4445 46.6618 49.1975C46.1925 48.5254 45.5919 47.9621 45.0877 47.3176C44.5001 46.5663 44.0078 45.7395 43.4489 44.9673C42.497 43.652 41.3041 42.4447 40.7226 40.906L40.0117 41.7365L40.0127 41.7879C40.3947 42.3921 40.7694 43.0025 41.2056 43.5693C41.6533 44.1509 42.1636 44.6875 42.6078 45.273C43.0868 45.9049 43.505 46.5818 43.9905 47.2101C44.6461 48.0585 45.4416 48.8303 46.0349 49.7169C46.5179 50.4387 46.9336 51.2282 47.4051 51.9615C48.0693 52.9952 48.8393 53.9094 49.5531 54.9006C50.4374 56.1281 51.1844 57.456 51.7263 58.8719C51.5882 58.7328 51.3688 58.572 51.2707 58.404C51.1434 58.1864 51.0466 57.8627 50.9276 57.6225C49.9861 55.7235 48.6084 54.2507 47.4209 52.5348C46.6718 51.4522 46.072 50.2438 45.2467 49.2202C44.6529 48.484 44.0103 47.7945 43.4428 47.0346C43.0638 46.5267 42.7232 45.9916 42.3395 45.4873C41.4822 44.3598 40.4874 43.3294 39.7811 42.0893C39.6758 42.0555 39.6758 42.149 39.7071 42.2274C39.8164 42.5004 40.254 43.0751 40.4443 43.3395C40.9722 44.0735 41.5749 44.7252 42.1252 45.4338C42.6542 46.1146 43.1102 46.8501 43.6417 47.5316C44.2861 48.3581 45.0478 49.1166 45.6437 49.974C46.058 50.5704 46.3974 51.2167 46.7887 51.8277C47.9517 53.6443 49.4434 55.2092 50.4989 57.0866C50.696 57.4373 50.9035 57.8217 51.0294 58.2023C49.7811 56.8751 48.6368 55.4498 47.5385 53.9957C47.2203 53.5746 46.8948 53.1527 46.5902 52.7218C46.0432 51.9478 45.5718 51.0901 45.0161 50.3333C44.4893 49.6155 43.8262 48.935 43.2662 48.2279C42.7243 47.5431 42.2251 46.8238 41.6968 46.129C40.7971 44.9457 39.88 43.7761 39.0101 42.5698L39.9987 41.2484C40.5756 40.5708 41.1693 39.9062 41.6997 39.1919L41.7015 39.1926Z" fill="#4B5A2A"/>
<path d="M53.7522 17.6157C58.6758 16.9557 62.4446 21.7291 60.6012 26.3665C59.1001 30.1425 54.5808 31.5322 51.1299 29.4146C49.8791 28.6471 49.0538 27.2182 47.5114 28.537C47.3229 28.6981 47.141 28.8999 46.9723 29.0819C45.0652 31.1384 43.6188 33.4247 41.2684 35.0648C41.1428 35.1525 40.9954 35.2522 40.858 35.3108C40.8555 35.3586 40.8454 35.3672 40.8983 35.3647C41.0652 35.3568 41.8171 34.8224 41.9908 34.6896C43.3304 33.6657 44.5373 32.1357 45.6388 30.8543C46.2451 30.149 47.351 28.5845 48.1795 28.2676C49.3001 27.8393 50.0337 28.851 50.8673 29.4095C53.9432 31.4707 58.0583 30.6942 60.1135 27.6181C62.5511 23.9701 60.8065 18.9917 56.6324 17.6999C51.9836 16.2609 47.2082 20.1685 48.0404 25.0343C48.2062 26.0036 48.8092 26.7736 48.0468 27.6792C47.6671 28.1306 47.1226 28.5719 46.7076 29.0441C45.0354 30.9467 43.535 33.0813 41.4985 34.6249C41.3565 34.7324 40.8142 35.0648 40.7509 35.1626C40.7289 35.1968 40.7217 35.2209 40.7649 35.2295C40.853 35.2471 41.268 34.9587 41.3644 34.8925C43.667 33.3032 45.2026 30.8762 47.0823 28.8567C47.8001 28.0856 48.6604 27.2725 49.7176 28.0428C50.1862 28.3845 50.571 28.815 51.077 29.1466C54.6915 31.5153 59.4749 29.794 60.6501 25.6378C61.6211 22.2042 59.4896 18.6328 56.0117 17.8923C51.4071 16.9122 47.3265 20.9979 48.5172 25.6015C48.5744 25.8227 48.6675 26.0349 48.7161 26.2593C48.8164 26.7243 48.8625 27.3674 48.3277 27.5713C48.8973 26.7344 48.3058 25.8083 48.1706 24.9307C47.6236 21.3745 50.2405 18.0861 53.7529 17.6153L53.7522 17.6157ZM54.2381 18.6105C57.2064 18.4163 59.864 20.5771 60.0276 23.595C60.2844 28.3356 54.9494 31.0927 51.2212 28.172C47.3334 25.126 49.3832 18.9281 54.2381 18.6105Z" fill="#4B5A2A"/>
<path d="M41.6087 36.1827C41.6566 36.1752 42.0187 35.9554 42.087 35.9105C42.7185 35.4962 43.2576 34.8761 43.7485 34.3057C44.6623 33.244 45.4988 32.1125 46.4003 31.0404C47.385 29.8701 48.2178 28.6278 49.9296 29.5446C50.2364 29.7089 50.5306 29.9359 50.8359 30.111C53.7797 31.8003 57.281 31.4374 59.6883 29.0277C63.419 25.2934 61.9924 18.939 56.9962 17.2296C52.1291 15.5644 46.9487 19.4181 47.3907 24.5867C47.4472 25.2456 47.828 26.3289 47.673 26.904C47.5547 27.3417 47.0153 27.7952 46.7218 28.1484C44.9305 30.3049 43.3374 32.3308 41.0427 34.0086C40.7352 34.2334 40.3824 34.4301 40.0836 34.656C40.067 34.6686 39.9904 34.7348 40.0016 34.7477C40.0412 34.7527 40.0577 34.7671 40.1001 34.7553C40.3062 34.6966 40.9539 34.2241 41.1614 34.0741C42.9944 32.7462 44.5738 30.9713 46.0249 29.2453C46.3381 28.8727 46.6186 28.471 46.9372 28.1027C47.2019 27.7966 47.6086 27.4823 47.7705 27.109C48.0409 26.485 47.7478 25.9135 47.6392 25.3031C46.7146 20.1137 51.5314 15.8532 56.574 17.2512C60.6877 18.3916 62.8066 22.9931 60.9876 26.8864C59.1679 30.7818 54.5713 32.1388 50.8632 29.9506C50.153 29.5316 49.406 28.8512 48.5142 29.0306C47.6665 29.2011 47.0624 30.0139 46.5352 30.639C45.0924 32.3495 43.6287 34.5869 41.8202 35.8839C41.7558 35.9299 41.599 35.9982 41.5552 36.0475C41.4994 36.1101 41.5516 36.1921 41.6095 36.1831L41.6087 36.1827Z" fill="#4B5A2A"/>
<path d="M28.4831 25.6022C29.6742 20.9986 25.5932 16.9126 20.9886 17.893C17.5108 18.6332 15.3793 22.2049 16.3503 25.6386C17.5255 29.7947 22.3088 31.5161 25.9234 29.1474C26.4293 28.8158 26.8141 28.3853 27.2827 28.0436C28.34 27.2732 29.2002 28.0864 29.918 28.8575C31.7978 30.8769 33.3333 33.3039 35.636 34.8932C35.7324 34.9598 36.1474 35.2482 36.2355 35.2302C36.2786 35.2216 36.2718 35.1975 36.2495 35.1633C36.1866 35.0655 35.6439 34.7332 35.5018 34.6256C33.4649 33.082 31.965 30.9478 30.2927 29.0449C29.8777 28.5726 29.3333 28.1313 28.9535 27.68C28.1911 26.7744 28.7942 26.0043 28.96 25.0351C29.7918 20.1693 25.0167 16.2616 20.3679 17.7006C16.1942 18.9925 14.4493 23.9708 16.8868 27.6188C18.942 30.6946 23.0572 31.4715 26.133 29.4103C26.9666 28.8517 27.7002 27.84 28.8208 28.2684C29.6494 28.5849 30.7549 30.1497 31.3615 30.855C32.463 32.1361 33.6699 33.6664 35.0095 34.6904C35.1832 34.8231 35.9352 35.3575 36.102 35.3655C36.1553 35.368 36.1452 35.3593 36.1423 35.3115C36.005 35.2532 35.8575 35.1533 35.732 35.0655C33.3815 33.4255 31.9351 31.1388 30.0281 29.0826C29.859 28.9006 29.6774 28.6989 29.489 28.5377C27.9462 27.2189 27.1209 28.6478 25.8705 29.4153C22.4192 31.533 17.9002 30.1436 16.3992 26.3672C14.5558 21.7298 18.3246 16.9565 23.2481 17.6164C26.7602 18.0872 29.3775 21.3756 28.8305 24.9318C28.6953 25.8098 28.1037 26.7355 28.6734 27.5724C28.1386 27.3685 28.1846 26.7254 28.285 26.2604C28.3335 26.0356 28.4267 25.8238 28.4838 25.6026L28.4831 25.6022ZM25.7784 28.172C22.0502 31.0931 16.7153 28.3356 16.972 23.595C17.1353 20.5771 19.7929 18.4163 22.7616 18.6105C27.6164 18.9281 29.6663 25.1257 25.7784 28.172Z" fill="#4B5A2A"/>
<path d="M20.0041 17.2295C15.0079 18.9389 13.5809 25.2933 17.312 29.0276C19.7193 31.4373 23.2205 31.7998 26.1644 30.1109C26.4697 29.9357 26.7635 29.7088 27.0706 29.5444C28.7824 28.6277 29.6153 29.8699 30.5999 31.0403C31.5015 32.112 32.338 33.2435 33.2518 34.3056C33.7427 34.876 34.2817 35.496 34.9132 35.9104C34.9816 35.9553 35.3437 36.1751 35.3915 36.1826C35.4494 36.1916 35.5016 36.1096 35.4458 36.047C35.4023 35.9981 35.2452 35.9298 35.1808 35.8834C33.3723 34.5865 31.9082 32.349 30.4658 30.6385C29.9382 30.0131 29.3341 29.2006 28.4868 29.0301C27.5949 28.8507 26.848 29.5311 26.1378 29.9501C22.4297 32.1383 17.8334 30.7813 16.0134 26.8859C14.1944 22.9926 16.3133 18.3911 20.427 17.2507C25.4696 15.8527 30.2863 20.1135 29.3618 25.3027C29.2532 25.913 28.9601 26.4845 29.2305 27.1085C29.3923 27.4822 29.7987 27.7962 30.0637 28.1022C30.3824 28.4705 30.6632 28.8722 30.9761 29.2448C32.4268 30.9708 34.0066 32.7457 35.8396 34.0736C36.0471 34.2239 36.6948 34.6965 36.9008 34.7548C36.9429 34.7666 36.9598 34.7523 36.9994 34.7472C37.0105 34.7346 36.9339 34.6681 36.9174 34.6555C36.6185 34.4296 36.2658 34.2329 35.9583 34.0081C33.6635 32.3303 32.0704 30.3044 30.2792 28.1479C29.9857 27.7947 29.4463 27.3412 29.328 26.9035C29.1726 26.3284 29.5538 25.2451 29.6103 24.5862C30.0522 19.4176 24.8719 15.5639 20.0048 17.2291L20.0041 17.2295Z" fill="#4B5A2A"/>
<path d="M39.5147 38.4288C40.089 37.726 39.5841 36.6794 38.69 36.6553C38.6271 36.6535 38.5635 36.6597 38.4998 36.6726C38.4362 36.66 38.3725 36.6539 38.3096 36.6553C37.4155 36.6791 36.9106 37.7257 37.485 38.4288C37.7712 38.7791 38.1517 38.8838 38.4994 38.8215C38.8472 38.8838 39.228 38.7787 39.5139 38.4288H39.5147Z" fill="#4B5A2A"/>
</g>
<defs>
<linearGradient id="paint0_linear_390_3334" x1="38.5" y1="0" x2="38.5" y2="77" gradientUnits="userSpaceOnUse">
<stop stop-color="#F7F3CF"/>
<stop offset="1" stop-color="#EFE28B"/>
</linearGradient>
<clipPath id="clip0_390_3334">
<rect width="69" height="69" fill="white" transform="translate(4 4)"/>
</clipPath>
</defs>
</svg>
