<svg width="77" height="77" viewBox="0 0 77 77" fill="none" xmlns="http://www.w3.org/2000/svg">
<circle cx="38.5" cy="38.5" r="38.5" fill="#4B5A2A"/>
<g clip-path="url(#clip0_417_2556)">
<path d="M39.4685 4C39.4878 4.01815 39.5581 4.03063 39.608 4.0329L40.3681 4.0624C41.6309 4.11232 42.8516 4.26662 44.1075 4.46858C49.2729 5.30135 54.2569 7.41052 58.5204 10.4228C59.4257 11.0627 60.2834 11.7457 61.1229 12.4616C62.9835 14.0489 64.6184 15.8245 66.0887 17.7691C66.4676 18.2706 66.7989 18.7528 67.1495 19.2747C68.4133 21.1558 69.4798 23.1277 70.3511 25.2278C71.7148 28.5113 72.5078 31.7539 72.8561 35.296C72.9718 36.4725 73.0319 38.4126 72.9854 39.5767L72.9627 40.1599C72.8277 43.5795 72.0268 47.3417 70.8264 50.565C69.5694 53.9415 67.8654 56.9776 65.6258 59.805C64.5083 61.2164 63.3103 62.5279 61.992 63.7544C60.9868 64.6893 59.9544 65.5561 58.8392 66.3582C57.4585 67.3499 56.038 68.2257 54.5348 69.0222C53.0259 69.8221 51.466 70.4903 49.8538 71.0644C45.9511 72.452 41.6445 73.1112 37.5012 72.9853C35.3581 72.9195 33.2343 72.6925 31.1332 72.2194C28.3967 71.6022 25.7613 70.6787 23.2506 69.425C21.5352 68.5684 19.8834 67.5949 18.3279 66.474C16.8792 65.4302 15.5166 64.2945 14.2494 63.0396C12.2798 61.0893 10.0369 58.2438 8.69478 55.8306L7.84503 54.3046C6.158 51.2719 4.93613 47.1171 4.39157 43.6793L4.38022 43.6101C4.22252 42.6162 4.12382 41.6303 4.06483 40.6239L4.06029 40.557C4.06029 40.5456 4.05348 40.5184 4.05008 40.4991L4.03987 40.4379C4.0376 40.4254 4.03419 40.3879 4.03419 40.3777V40.2994L4.03533 40.2268V40.1553V40.0839V40.0124V39.9409V39.7594V39.6868V39.613C4.0376 39.5756 4.03079 39.4916 3.99902 39.5086V37.3881L4.05348 36.5315C4.3008 32.6241 5.10177 29.0797 6.57777 25.4536C7.70548 22.6852 9.16787 20.1336 10.9491 17.7521C11.3382 17.2325 11.7069 16.7514 12.1233 16.2613C13.7286 14.3711 15.4973 12.6443 17.4748 11.1523C19.4443 9.66491 21.078 8.6472 23.2846 7.54099C24.6982 6.83189 26.1402 6.24985 27.6412 5.75064C29.8069 5.03132 32.0045 4.53779 34.2679 4.26549C35.0858 4.16678 35.863 4.08623 36.6776 4.05332C36.9476 4.04198 37.2131 4.04992 37.4558 4.0034H39.4685V4ZM36.192 8.42823L36.1875 10.4636C36.5278 10.4024 36.8092 10.3354 37.1257 10.2401C38.3839 9.79879 39.4968 9.0443 40.3613 8.02319V5.96621L38.8207 5.90721C37.9335 5.90494 37.078 5.91969 36.1875 6.00252L36.1829 7.88704C36.7003 7.64197 37.1768 7.34244 37.6113 6.95669L38.0344 6.65262C38.1286 6.66284 38.2137 6.66851 38.2557 6.70368C38.292 6.73318 38.309 6.86819 38.2897 6.91811C38.022 7.58978 36.9033 8.22968 36.1909 8.42823H36.192ZM63.4101 29.251L65.2809 28.079L68.6198 25.9097L67.9289 24.3621C67.3242 23.0063 66.5607 21.7651 65.7495 20.5193C64.3631 18.392 62.3323 16.0174 60.44 14.3348C59.2805 13.3035 58.3264 12.532 57.0432 11.6515C54.4338 9.86119 51.5726 8.48382 48.5605 7.4854C47.3896 7.13936 46.2529 6.81827 45.0537 6.57661C43.8545 6.33494 42.5543 6.16249 41.2769 6.03882L41.2882 14.7784C41.2894 15.9016 41.4391 16.9783 41.691 18.0573C42.003 19.395 42.6689 20.8427 43.6934 21.7594C44.5409 22.5173 45.6731 22.6932 46.7203 22.2745C47.4849 21.9693 48.2269 21.7118 49.0404 21.5416C52.0343 20.9164 55.0839 21.5858 57.4687 23.5169C59.1602 24.8863 60.3265 26.9149 60.9051 28.9923C61.0526 29.521 61.157 30.0214 61.2602 30.5591L63.4112 29.2499L63.4101 29.251ZM21.5953 35.3289C23.0986 33.7405 25.1702 32.8839 27.3587 32.944C29.5471 33.0041 31.3329 34.0162 32.7158 35.6602C33.7573 36.898 34.7387 37.9543 36.3372 38.4297C37.1438 38.6691 37.9709 38.652 38.7378 38.3026C39.1565 38.112 39.5422 37.8635 39.8701 37.5356C40.5553 36.8526 41.0171 36.0266 41.3132 35.1042C41.8385 33.475 41.9497 31.5723 41.6819 29.8841C41.4584 28.4761 40.7244 27.2973 39.7169 26.317C38.7095 25.3367 37.9335 24.4563 37.2233 23.2015C36.6095 22.1168 36.1602 20.9993 35.8528 19.7909C35.4704 18.2888 35.2492 16.697 35.2492 15.1324V6.07967C32.8996 6.31339 30.7112 6.76835 28.458 7.47065C22.984 9.25192 18.0545 12.4015 14.2165 16.6981C12.087 19.0807 10.3273 21.7379 8.97046 24.631C8.31018 26.0402 7.76561 27.4822 7.305 28.9708C6.51991 31.5099 6.03661 34.3668 5.91635 37.0285C5.80744 39.2999 5.95719 41.5361 6.29982 43.7814C6.43256 44.6516 6.61635 45.4685 6.81262 46.3183L9.17694 45.6149L13.0581 44.4724C13.3837 44.3828 13.6719 44.3056 14.0009 44.2579L18.0205 44.629C18.3994 44.6641 18.4754 44.9614 18.6354 44.9648C18.6751 44.9648 18.7738 44.9024 18.7715 44.8502C18.7386 44.2693 18.7012 43.618 18.7125 43.0099C18.7647 40.1587 19.6111 37.4256 21.5953 35.33V35.3289ZM36.184 12.76C37.0066 12.7623 37.7712 12.6 38.5211 12.3198C39.1882 12.0793 39.7839 11.7412 40.3625 11.3316L40.3602 8.82306C39.6557 9.61045 38.8116 10.2265 37.8291 10.6236C37.2947 10.8449 36.7513 10.956 36.1829 10.981V12.7611L36.184 12.76ZM36.1909 14.9225C37.6646 15.0031 39.0317 14.7705 40.3557 14.2713L40.35 11.9794C40.1004 12.1882 39.8905 12.347 39.6262 12.5047C38.5949 13.1526 37.3844 13.4294 36.1761 13.2921L36.1897 14.9225H36.1909ZM39.4537 16.7968L40.4623 16.5552L40.3613 14.8885C40.1458 15.0031 39.9211 15.1063 39.6874 15.1846C38.6618 15.5579 37.2539 15.7122 36.1886 15.4478L36.2986 16.9954C37.3515 17.1031 38.3964 17.0487 39.4537 16.7957V16.7968ZM36.9646 20.2141L38.8275 19.5334L40.9025 18.7664L40.5315 17.0555C40.215 17.2064 39.9075 17.321 39.566 17.4083C38.5291 17.7056 37.457 17.7884 36.369 17.5547C36.5142 18.476 36.6549 19.3133 36.9646 20.2153V20.2141ZM38.1615 22.9416L40.2252 21.6414L41.7125 20.702C41.4698 20.2244 41.2553 19.749 41.0715 19.2498C40.6313 19.5073 40.1912 19.7206 39.7203 19.9248C38.8808 20.2777 38.0152 20.5069 37.086 20.618C37.3798 21.4327 37.7054 22.2098 38.1626 22.9416H38.1615ZM40.4192 24.4586L42.5022 22.8826C42.7132 22.7476 42.9004 22.6262 43.1398 22.5105C42.6825 22.1293 42.3014 21.6369 41.944 21.1116C40.9717 22.0419 39.684 22.9133 38.3952 23.3183C38.7957 23.8992 39.2087 24.4586 39.7135 24.9657L40.4192 24.4586ZM42.7449 31.1435C43.395 31.3897 44.0417 31.5156 44.719 31.5859C46.4469 31.7391 48.1169 31.1128 49.3603 29.9193C50.3246 28.9934 50.9997 27.8419 51.3219 26.5371C51.677 25.0973 51.6214 23.6054 51.0791 22.2189C50.6684 22.2348 50.2883 22.2609 49.8992 22.3176C50.6128 23.8153 50.5969 25.508 49.9241 26.9898C49.0971 28.8766 47.2796 30.2176 45.191 30.2245C44.2607 30.2142 43.3757 29.9669 42.56 29.5097L42.7449 31.1457V31.1435ZM48.0114 37.0409L49.3932 36.3999C49.383 34.9567 49.7483 33.5828 50.3961 32.2905C51.4399 30.271 53.2528 28.4852 55.4583 27.7715C53.5705 26.8003 52.8523 24.5448 53.7747 22.5945C53.1564 22.422 52.5698 22.3188 51.9209 22.2598L52.1081 22.8509C52.9499 25.5137 51.8551 28.8244 49.6723 30.7373C48.3324 31.9116 46.6046 32.5049 44.8222 32.3631C45.6357 32.784 46.4174 33.568 46.9483 34.335C47.4759 35.1678 47.8264 36.072 48.0114 37.0421V37.0409ZM40.0652 25.3401C40.4101 25.7032 40.7471 26.0175 41.0568 26.3828C41.6274 27.0567 42.0381 27.8214 42.3501 28.6497C43.6514 29.6118 45.3679 29.9147 46.8814 29.2669C49.5078 28.1402 50.5515 24.9646 49.3195 22.4254C48.8815 22.5082 48.4822 22.6126 48.0613 22.7465C48.2655 23.1209 48.4515 23.4579 48.5673 23.8754C49.0222 25.5239 48.2337 27.3063 46.6647 28.0166C45.0843 28.7325 43.2169 28.1561 42.2514 26.747C42.1289 26.7062 41.9962 26.6347 41.9406 26.5292C41.9565 26.4679 42.0086 26.3646 42.0495 26.3159L43.1443 24.9975C43.4892 24.5822 43.7842 24.1534 44.0689 23.6973L44.3639 23.2253C43.9623 23.0812 43.6106 22.8815 43.2906 22.6251C42.5317 23.6587 41.2848 24.8942 40.0675 25.3401H40.0652ZM58.5396 26.039C58.1199 26.1525 57.7364 26.2137 57.3291 26.2137C56.8447 26.1763 56.4181 26.0356 56.0369 25.7406C55.2847 25.1575 55.0363 24.1602 55.4084 23.2559C55.0533 23.0767 54.7209 22.9224 54.3351 22.7862C53.5376 24.698 54.3431 26.7946 56.3342 27.4981C57.3291 27.3063 58.3196 27.2995 59.361 27.4595C59.133 26.9501 58.8607 26.486 58.5385 26.039H58.5396ZM42.6973 26.4872C43.6242 27.6206 45.1331 28.1153 46.465 27.4811C48.1951 26.6574 48.5775 24.4472 47.4883 22.9292C47.1185 23.1016 46.7679 23.2242 46.4151 23.3081C47.2467 24.167 47.3341 25.6113 46.3527 26.3715C45.849 26.7617 45.2273 26.848 44.6135 26.6392C44.1529 26.469 43.7547 26.182 43.4427 25.7645L42.6984 26.4883L42.6973 26.4872ZM45.8751 26.0129C46.8224 25.4683 46.5195 24.0808 45.8671 23.4182C45.5722 23.4499 45.3146 23.4329 45.0423 23.3989C44.8256 23.8879 44.5556 24.3156 44.2595 24.7388L43.8091 25.381C44.2992 25.98 45.1229 26.4452 45.8751 26.0129ZM57.3076 24.6208C57.1828 24.6696 57.1034 24.6878 57.0137 24.6673C56.9661 24.6571 56.881 24.5516 56.8969 24.5062C56.9105 24.4676 56.9513 24.4166 57.0126 24.3428C56.6802 24.0365 56.3103 23.754 55.8906 23.5282C55.6058 24.4563 56.0959 25.3991 57.0693 25.5999C57.4471 25.6782 57.8192 25.6533 58.2118 25.5659C57.9157 25.221 57.6264 24.909 57.3087 24.6219L57.3076 24.6208ZM54.7572 36.9842L56.2649 36.4158L59.5426 35.1462C59.7127 35.0804 59.7956 34.9919 59.867 34.8251C60.2233 33.9958 60.5216 33.1936 61.3101 32.7035L62.9064 31.7119L64.2826 30.8292L67.7519 28.5203L69.2381 27.5253L68.9375 26.7311L65.7926 28.7858C64.4357 29.6719 63.0822 30.5172 61.6573 31.2944L57.4006 33.6145L55.2677 34.6663C55.0737 35.5036 55.0034 36.232 54.1377 36.5883L48.7567 38.8007L47.5587 39.259C47.8446 39.4009 48.1486 39.3997 48.4584 39.2863L52.7434 37.7274L54.7594 36.9865L54.7572 36.9842ZM51.7053 35.3448C51.753 34.6334 51.9243 33.9844 52.217 33.3559C52.9363 31.7085 54.5325 30.2664 56.2763 29.7808C57.5708 29.3826 58.9322 29.4632 60.2006 29.9748C60.0815 29.4189 59.9476 28.8936 59.7456 28.3592C58.4194 28.0517 57.0625 28.0801 55.7771 28.5101C54.4009 28.9708 53.1825 29.8761 52.2533 30.9744C51.8494 31.4521 51.5386 31.9558 51.2073 32.4822C50.6763 33.576 50.2305 34.8342 50.2146 36.0459L51.7065 35.3425L51.7053 35.3448ZM66.6435 31.2558L70.1072 30.3345C69.9392 29.656 69.7623 29.0003 69.5217 28.3513L65.1312 31.2785L64.0874 31.9603L66.6435 31.2546V31.2558ZM55.1123 32.6729C56.1991 31.5258 57.7568 31.2195 59.2249 31.6812L60.3889 31.0368L60.3367 30.6147C59.4734 30.2517 58.5941 30.094 57.6661 30.1121C56.7925 30.1677 55.9666 30.4094 55.2064 30.8428C53.6737 31.7436 52.5925 33.256 52.3214 35.0747L53.4491 34.5438L54.2909 34.1296C54.4316 33.5646 54.7061 33.1017 55.1134 32.6729H55.1123ZM60.8075 34.7537L67.0281 32.8873L70.4793 31.9422L70.3159 31.1503L67.9856 31.7777L63.5973 32.952L61.4905 33.5624C61.1967 33.9322 60.9857 34.3168 60.8075 34.7537ZM56.1912 33.2742L58.4886 32.1135C57.7262 31.9603 56.9944 32.101 56.3273 32.4323C55.7839 32.7727 55.3086 33.197 55.0147 33.8165L56.1923 33.2742H56.1912ZM36.8761 39.4848C36.85 40.1043 37.027 40.6341 37.3265 41.1753L36.7139 41.3364C36.3236 40.7408 36.2033 40.0612 36.293 39.3748C35.9118 39.2749 35.5657 39.149 35.2084 38.9924C34.9236 39.4837 34.7273 39.9942 34.6286 40.5229C34.9406 40.8905 35.2152 41.2207 35.4273 41.6564L34.6967 41.8481C34.3484 41.3194 33.9377 40.9042 33.4204 40.5581C32.245 39.7707 30.5943 39.6153 29.394 40.4719L29.8251 41.4363C30.9993 40.8542 32.3982 41.1515 33.2445 42.1601C33.0471 42.26 32.8747 42.3144 32.6727 42.3519C31.9171 41.6825 30.8938 41.5407 29.976 41.9366L30.1689 42.4744C30.5852 42.3802 30.9755 42.353 31.3907 42.5368C31.376 42.5879 31.3158 42.6525 31.2444 42.6911L30.3595 43.1676C30.3379 43.179 30.2902 43.2561 30.3073 43.2573C30.3243 43.2584 30.3901 43.2709 30.4094 43.2663L31.0413 43.1109L38.9375 41.0233L43.0842 39.9262L46.4832 39.0015C46.4015 38.3809 46.7838 37.7251 47.2977 37.3836C47.0379 35.9325 46.5263 34.8308 45.529 33.7666C44.7485 32.9871 43.8182 32.4301 42.7404 32.1339L42.6383 33.4376C44.896 34.2147 46.1462 36.5236 45.9568 38.8721L45.3237 39.0503C45.5018 37.7149 45.1717 36.409 44.3707 35.3561C43.8715 34.7695 43.2895 34.3044 42.5396 34.0514L42.2389 35.2438C43.1987 35.7033 43.8397 36.5769 44.0224 37.6105C44.1438 38.2254 44.1245 38.8245 43.9056 39.4145L43.302 39.596C43.6684 38.5828 43.5936 37.5345 43.0354 36.6495C42.7915 36.2626 42.4341 35.9926 42.0472 35.7623C41.9428 36.0664 41.818 36.3432 41.6547 36.6404C42.1686 37.0194 42.5407 37.564 42.5816 38.2164C42.6224 38.8687 42.332 39.4451 41.8544 39.8479C41.7817 39.9091 41.6161 39.9557 41.5344 39.9228C41.05 39.4621 40.6801 38.9243 40.3477 38.3639L39.8258 38.7723C40.0074 39.3033 40.2921 39.7356 40.6756 40.1667C40.603 40.2575 40.4668 40.3187 40.3409 40.3312C39.9745 40.3686 39.4333 39.3487 39.338 39.0185L38.6562 39.3192C38.6857 39.7968 38.8649 40.2302 39.1349 40.6648C39.0169 40.7283 38.849 40.7873 38.7299 40.7828C38.4519 40.7714 38.0934 39.7163 38.1116 39.436C37.6884 39.5245 37.2925 39.5223 36.8716 39.4837L36.8761 39.4848ZM39.6194 41.3251L36.6821 42.1159L34.4187 42.7297L31.5359 43.5375C31.5178 43.542 31.4463 43.5443 31.4565 43.55L31.5042 43.5761C31.5155 43.5817 31.5235 43.5851 31.5598 43.5999L32.1145 43.8291C32.135 43.8382 32.1928 43.8926 32.2087 43.9085C32.2416 43.9414 32.0839 43.9675 32.0544 43.9607L31.2864 43.7837C31.0765 43.7349 30.8949 43.7236 30.7112 43.7871L31.1128 43.98C31.1377 43.9925 31.1911 44.0322 31.2103 44.0503C31.2841 44.1173 30.3833 44.4747 30.2721 44.5087L26.0891 45.81C26.063 45.818 26.0109 45.8441 26.0097 45.8622C26.0086 45.8804 26.0154 45.9258 26.0222 45.953C26.3297 47.1647 26.9037 48.6544 27.9804 49.3681C28.5476 49.7447 29.1603 49.9183 29.8376 49.8956C30.4491 49.8752 31.0277 49.9558 31.612 50.1191C32.7215 50.4289 33.6711 51.0642 34.3688 51.9753C34.6003 52.2782 34.7988 52.5687 35.0019 52.8875C35.3638 53.4548 35.922 53.811 36.5981 53.87C36.9385 53.8995 37.2664 53.8655 37.6101 53.8167C39.3913 53.5648 41.2792 53.5558 42.9526 54.3057C45.2522 55.337 46.7566 57.4087 47.3726 59.8231C47.7118 61.1517 47.8582 62.4939 47.8616 63.869L47.8684 67.2114L47.8627 69.6213C47.8627 69.6383 47.8729 69.6882 47.8763 69.7052C47.8786 69.7166 47.9217 69.7052 47.9433 69.6995C50.2997 68.9553 52.571 67.9863 54.7231 66.761C55.9734 66.0496 57.1601 65.2827 58.3003 64.4079C59.3633 63.5933 60.3696 62.7435 61.3022 61.8166L59.8114 58.4446L59.2793 57.2522C59.1977 57.1387 59.1024 57.0355 58.9764 56.9753C58.5283 56.762 58.1959 56.4319 57.9917 55.9712L56.7925 53.2585L55.7261 50.9133C55.5774 50.5866 55.6069 50.2451 55.7431 49.9274C55.9348 49.4781 56.3149 49.1661 56.8106 49.1173C57.4732 49.0526 58.0677 49.3987 58.399 49.9762C58.6554 50.4221 58.8573 50.8736 59.0865 51.3411L59.9918 53.1916C60.1575 53.5297 60.3288 53.8451 60.4706 54.1911L60.7656 54.9116C60.8926 55.2213 61.1445 55.4346 61.2897 55.7489L62.1156 57.5347L63.1798 59.7936C64.4709 58.389 65.8062 56.4761 66.7501 54.8446C70.578 48.2267 71.9609 40.3664 70.6483 32.809L65.9775 34.1047L63.2354 34.9159L61.6028 35.4196C61.4508 37.3064 60.9811 39.1002 60.3118 40.8588C60.0134 41.6416 59.6708 42.3609 59.2782 43.1007C58.6474 44.2909 57.9123 45.3755 57.041 46.4C55.1747 48.5965 52.892 50.3268 50.2441 51.4738C46.2778 53.1916 41.7307 53.4219 37.6703 51.905C34.3234 50.6547 31.5201 47.9737 30.0327 44.7152C30.2778 44.6165 30.4797 44.5495 30.7191 44.469C30.7849 44.4474 30.8949 44.4905 30.9312 44.5552L31.5076 45.5877C31.6222 45.1599 31.5303 44.7504 31.3771 44.3476C31.3624 44.3101 31.3465 44.2319 31.3601 44.2001C31.3817 44.1479 31.6415 44.081 31.7663 44.1229C31.8275 44.1434 31.9013 44.2432 31.9353 44.3192C32.1996 44.9081 32.1452 45.5536 31.8661 46.1402C32.1792 46.5952 32.481 47.0059 32.8497 47.4086C33.4669 46.2514 33.5803 44.5768 32.9995 43.4025L33.5826 43.2425C34.2395 44.7129 34.041 46.4987 33.2581 47.8795L34.3303 48.8995C35.3922 47.1897 35.7892 44.7481 35.0745 42.8636L35.8437 42.6366C36.6708 44.7833 36.2328 47.5346 34.9474 49.3794C35.3547 49.6755 35.7654 49.9512 36.1988 50.1963C36.9612 47.9566 38.6902 45.9417 40.8628 45.0192C42.9015 44.1536 44.9936 44.2046 47.0164 45.1043C48.194 45.6285 49.2151 46.4125 50.0489 47.3939C50.6729 48.128 51.1143 48.9517 51.4705 49.8423L52.951 48.8859C52.0014 48.0202 51.2924 46.9786 50.9168 45.7703C50.4982 44.4077 50.5175 42.9986 51.011 41.6541C50.463 41.0902 50.0512 40.4254 49.8254 39.6709L48.7545 40.06C48.506 40.1361 48.2632 40.1826 48.0091 40.1916C47.7663 41.3478 47.1627 42.6287 46.2188 43.3367C46.06 43.4558 45.8683 43.4195 45.7548 43.2913C45.6482 43.1699 45.6867 42.9884 45.8093 42.8579C46.5909 42.0206 47.013 41.1367 47.2898 40.043C46.996 39.9012 46.794 39.714 46.6375 39.4383L45.6414 39.7174L43.4234 40.296L39.6194 41.3194V41.3251ZM27.4097 38.8846L27.8465 38.9527C28.5374 37.4335 28.9198 35.8088 28.9175 34.1262C28.0394 33.8664 27.1261 33.7915 26.1833 33.939C26.4942 34.6028 26.7143 35.2846 26.8686 36.0096L27.176 37.8204L27.4086 38.8846H27.4097ZM26.417 39.1898L26.7358 38.9981C26.5827 38.4694 26.4511 37.9463 26.3728 37.3949L26.1175 35.6046C26.0392 35.0555 25.9246 34.5449 25.7772 34.0026C24.688 34.2431 24.089 34.5199 23.1882 35.1666C24.4509 36.3874 25.1169 37.9668 26.4182 39.1898H26.417ZM31.9376 36.1843L31.5745 36.7891C31.2988 37.2474 31.0572 37.7035 30.8235 38.1891C30.7701 38.3003 30.6828 38.4546 30.5671 38.4807C30.4684 38.5023 30.3992 38.3332 30.3992 38.2504C30.3799 37.8681 30.5069 37.5379 30.651 37.1941C30.8745 36.6586 31.1468 36.1832 31.5393 35.7464C30.9154 35.0861 30.3005 34.681 29.4689 34.3168C29.5698 35.4174 29.4496 36.434 29.1784 37.4732C28.998 38.0938 28.7416 38.6679 28.4523 39.2534C28.7246 39.4689 28.9538 39.7197 29.1523 40.0249C29.8455 39.309 30.9312 39.0764 31.9058 39.183C32.1214 38.5567 32.5457 37.8408 33.0505 37.4051C32.7975 37.1589 32.5615 36.9093 32.3335 36.645L31.9364 36.1843H31.9376ZM47.3556 38.5545L51.5533 36.78L53.8235 35.8179C53.98 35.7521 54.0969 35.6466 54.199 35.5172C54.2705 35.3618 54.3329 35.2245 54.3896 35.0396L53.0531 35.6693L51.4081 36.426L47.8219 38.0473C47.5961 38.1494 47.4316 38.3287 47.3556 38.5545ZM25.9054 39.63C25.4459 39.2579 25.0692 38.8222 24.7221 38.331C24.3522 37.7954 24.0606 37.2406 23.7668 36.6563C23.5512 36.1832 23.2948 35.7532 22.9579 35.355C22.2647 35.9143 21.7133 36.5338 21.2572 37.2769C22.4734 38.6237 23.8088 39.6607 25.5208 40.1735C25.6455 39.9693 25.7613 39.807 25.9065 39.63H25.9054ZM57.3836 37.2247C58.5714 37.252 59.2204 37.4222 60.2981 37.8079C60.4524 37.1022 60.575 36.4124 60.6544 35.701L59.0377 36.3001L56.4987 37.2667L57.3836 37.2259V37.2247ZM41.6581 39.2851C41.9496 38.9164 42.0484 38.5522 42.0166 38.1381C41.9496 37.7285 41.7398 37.3518 41.4255 37.0807C41.2065 37.421 40.9864 37.6979 40.7403 37.986L41.1419 38.5522C41.3155 38.7973 41.4641 39.0378 41.6581 39.2851ZM25.2246 40.8508C24.1049 40.608 22.5154 39.5347 21.829 38.6759L21.019 37.6627C20.5675 38.4217 20.2657 39.2034 20.0683 40.026C21.5012 40.9393 23.3697 41.4794 25.0306 41.5361L25.2246 40.8508ZM34.1385 40.1168C34.2588 39.5903 34.4153 39.1399 34.7126 38.7349C34.2758 38.4546 33.8606 38.1721 33.4476 37.8045C33.0312 38.2322 32.6909 38.7417 32.363 39.2466C33.1277 39.478 33.5554 39.6539 34.1397 40.1168H34.1385ZM53.668 46.8051C52.0786 44.5677 52.4927 41.6326 54.7458 40.0464C55.8849 39.2454 57.3076 39.0333 58.6497 39.3668C59.0309 39.4621 59.3531 39.5994 59.7366 39.7367L60.0962 38.5511C57.5923 37.5436 54.8287 37.8567 52.9941 39.9137C52.6867 40.2575 52.436 40.5922 52.217 41.004C51.7189 41.94 51.4149 42.9543 51.4557 44.0356C51.5204 45.7442 52.3463 47.3179 53.6317 48.4048L54.4645 47.7093C54.1604 47.4427 53.912 47.1579 53.668 46.8017V46.8051ZM52.8864 38.8914L53.4116 38.4149L52.7003 38.6679L52.8875 38.8926L52.8864 38.8914ZM51.3037 40.9949C51.6577 40.2949 52.0423 39.7571 52.5381 39.2307L52.1716 38.8324L50.4812 39.4746C50.6775 40.0737 50.9486 40.5581 51.3049 40.9961L51.3037 40.9949ZM29.2578 42.6423C29.0548 41.9695 28.8188 41.3671 28.5295 40.7805C28.3752 40.5195 28.2277 40.2779 28.0133 40.0793C27.64 39.7321 27.1136 39.7321 26.7438 40.0861C25.894 40.8463 25.7227 42.5028 25.7828 43.5602L29.259 42.6435L29.2578 42.6423ZM54.5518 44.3771C54.418 43.2505 54.9058 42.2441 55.7896 41.5872C56.4079 41.1265 57.1771 40.9598 57.9486 41.0698C58.3445 41.1209 58.6905 41.2298 59.0638 41.4317L59.5426 40.313C58.0325 39.5642 56.1072 39.613 54.7912 40.7419C52.6493 42.5788 52.9306 45.439 54.8559 47.3394L55.6603 46.5475C55.0431 45.9632 54.6528 45.2371 54.5518 44.3782V44.3771ZM24.8559 43.2992L24.9251 42.2214C23.9801 42.2305 23.0747 42.0569 22.1773 41.746C21.3525 41.4578 20.6128 41.0165 19.9469 40.4537C19.7654 41.2298 19.6882 41.9945 19.6474 42.7751C20.4347 42.9974 21.1801 43.154 21.9675 43.2788C22.9114 43.3855 23.9324 43.483 24.8571 43.2981L24.8559 43.2992ZM56.9252 42.7637C57.4108 42.4801 57.9361 42.5073 58.4319 42.7195L58.8448 41.9241C58.3309 41.6972 57.7614 41.5543 57.1873 41.6303C55.9632 41.7914 55.1123 42.8465 55.1304 44.0741C55.1418 44.8581 55.4821 45.5616 56.0199 46.1311L56.6495 45.4039C55.9666 44.5983 55.9915 43.3083 56.9241 42.7637H56.9252ZM57.0149 44.9455L58.1755 43.2062C58.0053 43.1563 57.851 43.1154 57.6876 43.112C57.1964 43.1007 56.8061 43.4762 56.7607 43.963C56.729 44.3135 56.805 44.6709 57.0149 44.9455ZM22.1751 44.5677L24.1661 44.0095C23.3969 44.0707 22.6765 44.0537 21.9266 43.9028C21.1256 43.7655 20.3757 43.5625 19.6326 43.213C19.6292 43.6963 19.6496 44.1513 19.7064 44.6301L21.1824 44.2182C21.5726 44.1048 21.9277 44.2568 22.1739 44.5677H22.1751ZM29.7071 43.8597C29.5891 43.7258 29.5846 43.6056 29.5925 43.415L28.6883 43.6782L28.357 44.25L29.7071 43.8597ZM26.5951 44.7776C27.5209 44.503 27.4914 44.621 27.9237 43.8393L22.4394 45.3494L22.596 45.9666L26.594 44.7776H26.5951ZM21.8756 46.7778L21.4932 45.2972C21.4683 45.2144 21.4354 45.1191 21.4081 45.0601L18.8646 45.7794L19.3637 47.5675L21.8756 46.7778ZM18.6422 48.3708L17.8435 45.5389L14.3798 45.2042L15.2069 48.0724L15.8887 50.5128L17.5928 49.2194L18.6411 48.3708H18.6422ZM49.4896 50.8021L50.7728 50.2076L50.2679 49.1491C48.8316 46.7177 46.3187 45.1032 43.42 45.2552C42.0393 45.3278 40.7618 45.8395 39.6727 46.6871C38.3873 47.6866 37.4388 49.0424 36.8977 50.5809L38.1751 51.1278C38.4588 50.1464 38.9818 49.2886 39.6908 48.5704C40.0244 48.2017 40.3908 47.9317 40.8015 47.6617C44.0394 45.5287 48.1259 47.4041 49.4896 50.801V50.8021ZM13.4654 45.2972L7.02364 47.1829L7.88587 50.1293L14.3276 48.2437L13.4654 45.2972ZM20.6423 48.9891C22.3986 48.4547 23.8008 47.8205 25.3948 47.0717L25.1169 46.0948L22.7696 46.8017C22.7253 47.2453 22.4451 47.5425 22.0401 47.6662L20.4052 48.162L20.6435 48.9891H20.6423ZM46.2234 49.6574C46.8451 50.1237 47.2773 50.7046 47.5315 51.4523L48.9394 51.003L48.3721 49.9319C47.8355 49.165 47.173 48.508 46.3538 48.0474C44.348 46.9185 42.0744 47.1522 40.3727 48.7089C40.1083 48.9517 39.8746 49.1842 39.6613 49.4668C39.2495 50.0295 38.9182 50.6047 38.6993 51.2946L40.0686 51.6724C40.4044 50.6694 41.0783 49.8366 42.0132 49.3091C43.3542 48.5523 45.0049 48.6918 46.2245 49.6574H46.2234ZM21.7655 51.6599L25.6592 49.2762L26.2639 48.8904L25.6036 47.6571C25.2598 47.8886 24.9149 48.069 24.5405 48.2358C23.3368 48.7996 22.0854 49.1877 20.7671 49.3964C21.0428 50.2076 21.348 50.9417 21.7666 51.6599H21.7655ZM41.8385 70.9226V64.9196C41.8634 64.1333 41.7885 63.4038 41.6218 62.6471C41.3767 61.7065 40.8911 60.7387 39.8996 60.429C39.1803 60.2043 38.3532 60.3779 37.6033 60.5061C36.9147 60.6241 36.2567 60.7206 35.551 60.7421C33.5508 60.8011 31.6687 59.9831 30.5251 58.3334L29.9215 57.4632C29.6095 57.0139 29.1444 56.77 28.576 56.7893C26.9956 56.8449 25.4652 56.4648 24.1344 55.5991C23.347 55.0874 22.6606 54.4736 22.0684 53.7441C21.2833 52.7752 20.6775 51.7268 20.2022 50.5741C19.9231 49.8956 19.7393 49.2126 19.5419 48.5239C19.4976 48.7225 19.4273 48.8586 19.3206 49.0073C19.1073 49.1979 18.9043 49.3726 18.6728 49.5496L16.2756 51.3876C16.0691 51.5464 15.8547 51.6463 15.6096 51.7325L12.7019 52.6016L9.54226 53.5557C10.8061 55.9247 12.3127 58.0997 14.0803 60.1204C16.5343 62.9125 19.5997 65.3326 22.8762 67.0946C23.7396 67.5586 24.5802 67.9841 25.489 68.3573C30.5637 70.6242 36.3202 71.5069 41.8373 70.9215L41.8385 70.9226ZM11.3019 52.0615L13.4178 51.4318L15.081 50.9167L14.5443 49.056L13.5879 49.3544L10.6269 50.236L8.29316 50.9292L9.10774 52.7366L11.3019 52.0627V52.0615ZM23.4003 53.8122C24.595 52.8784 25.6841 51.9072 26.7301 50.8521L27.488 50.1339C27.1783 49.9047 26.8776 49.6585 26.611 49.3919C26.3558 49.6097 26.1073 49.8003 25.8305 49.9864C24.8242 50.6966 23.7781 51.3002 22.6516 51.8006C22.4405 51.8947 22.2465 51.9605 22.0083 52.0411C22.3781 52.6923 22.8331 53.2766 23.4003 53.8122ZM44.6668 50.6297C45.2227 50.8714 45.5937 51.2616 45.7991 51.8255L46.9755 51.5759C46.6704 50.9054 46.2302 50.3801 45.6527 49.966C44.0213 48.9267 42.0654 49.4055 41.0228 51.0086L40.6404 51.779L41.9667 51.956C42.2809 50.784 43.5414 50.1407 44.6668 50.6297ZM61.2318 57.5585L60.4831 55.8998C60.1495 55.1612 59.2657 55.5163 58.8369 54.6211L57.0239 50.8407L56.6223 49.9433C56.4964 50.1214 56.4102 50.3404 56.4317 50.5435L57.9077 53.8417L58.6554 55.6036C58.9776 56.3638 59.6084 56.0756 60.0826 57.1047L61.9216 61.2209L62.6091 60.4902L61.2318 57.5574V57.5585ZM57.4494 50.0079L58.2027 51.5044C58.2617 51.3218 57.6298 50.1203 57.4494 50.0079ZM26.8981 55.7239L27.7421 53.8031C28.1029 52.9817 28.4535 52.1886 28.922 51.4273L29.3679 50.7919C28.9493 50.7432 28.5215 50.649 28.1097 50.4686L27.0444 51.5555C26.2105 52.4064 24.7243 53.4911 23.6114 54.0311C24.5961 54.9002 25.5775 55.4788 26.8992 55.7239H26.8981ZM29.2011 55.9315C29.706 54.5519 30.3855 53.263 31.1638 52.0184C31.3624 51.7019 31.5428 51.4239 31.7685 51.1323C31.2387 50.9462 30.7066 50.8328 30.1462 50.801C29.8546 51.2469 29.5789 51.6565 29.3361 52.1194L28.0416 54.5973C27.817 55.0262 27.581 55.4006 27.3167 55.8113C28.0167 55.9088 28.5238 55.8113 29.2011 55.9304V55.9315ZM45.2 51.8777C45.0072 51.5067 44.7315 51.2242 44.3594 51.0835C43.6072 50.7987 42.8085 51.2276 42.568 51.9708C43.4858 52.04 44.3378 51.998 45.2012 51.8777H45.2ZM29.7865 56.1335C30.0724 56.3025 30.2551 56.4398 30.4479 56.644C31.6449 55.3835 32.7238 54.0606 33.6654 52.5834C33.282 52.0366 32.7782 51.6077 32.1679 51.3161L30.9494 53.7588L30.4956 54.6449L29.7877 56.1335H29.7865ZM59.7513 54.5099L58.5419 52.0263C58.534 52.0105 58.4965 51.9662 58.4841 51.973C58.4716 51.9798 58.4557 51.9912 58.4443 52.0003C58.433 52.0093 58.4443 52.0695 58.4568 52.0956L59.4858 54.2308C59.546 54.3568 59.6061 54.4634 59.7513 54.5088V54.5099ZM33.5145 56.829C33.7335 56.315 33.9468 55.8555 34.2123 55.3858C34.446 54.974 34.699 54.6041 35.0348 54.2297C34.6286 53.9199 34.3246 53.5274 34.0557 53.0974L33.299 54.3239C32.5672 55.3416 31.7311 56.2401 30.727 56.9958C31.3056 57.9023 31.9035 58.6965 32.8679 59.2093C32.9881 58.3867 33.1946 57.6062 33.5168 56.829H33.5145ZM36.2748 59.7675C36.0547 58.1587 36.3202 56.1097 37.2448 54.7697L36.7014 54.7913C36.31 54.8072 35.9526 54.7051 35.6043 54.536C35.3763 54.8707 35.1687 55.1782 34.969 55.5265C34.2622 56.7564 33.6575 58.0226 33.1753 59.3704C34.2372 59.8345 35.1301 59.8901 36.2759 59.7675H36.2748ZM37.6442 59.5735L38.8252 59.4056C38.8127 58.2597 39.0975 57.1047 39.7419 56.1403C40.1117 55.5866 40.5156 55.0999 41.0454 54.6846C40.0493 54.5337 39.026 54.5315 38.0083 54.713C37.0451 56.3082 36.8716 57.9 36.7524 59.7153L37.6442 59.5746V59.5735ZM42.4874 58.591C42.0257 59.0664 41.6093 59.5531 41.2111 60.0954C41.5333 60.4086 41.8033 60.7149 42.0018 61.0995C42.3286 60.7988 42.6848 60.6116 43.0774 60.4244C44.1211 59.9604 45.2341 59.7482 46.3867 59.721C45.9817 58.4162 45.5007 57.5551 44.6124 56.5726C43.7671 55.6933 42.7166 55.0795 41.5242 54.7913C40.9002 55.4176 40.4158 56.1267 40.0516 56.9356C39.6931 57.7196 39.5275 58.549 39.4753 59.4147C39.9087 59.4578 40.3023 59.578 40.6824 59.763C41.0148 59.2365 41.3779 58.7543 41.7988 58.2948C42.3082 57.782 42.8675 57.3668 43.4858 56.9969C43.7433 56.8426 43.9838 56.7053 44.2867 56.6066C44.2527 56.8222 44.1234 56.9572 43.9804 57.1001L42.4885 58.591H42.4874ZM42.6496 63.0498C43.5652 62.6675 44.4535 62.5075 45.3747 62.4417H46.8814C46.802 61.6316 46.6987 60.859 46.4854 60.0716C44.9822 60.4437 43.6106 60.8624 42.2628 61.6135C42.4443 62.1274 42.5498 62.5767 42.6508 63.0487L42.6496 63.0498ZM45.9159 64.864L46.9449 64.9275L46.9279 62.9296L44.6997 63.1735L42.72 63.6262C42.7778 64.122 42.7767 64.5872 42.7722 65.0966C43.8171 64.9105 44.8427 64.8561 45.917 64.8651L45.9159 64.864ZM45.883 67.5291C46.2676 67.57 46.6012 67.6199 46.9472 67.6948L46.9404 65.4358L44.8211 65.5743L42.7767 65.6083L42.7699 67.6823C43.8046 67.5076 44.8177 67.4633 45.8819 67.5302L45.883 67.5291ZM42.7744 68.1214L42.7722 70.8194C44.196 70.5947 45.5619 70.344 46.9483 69.9798L46.946 68.1055L46.1905 68.1475L44.2153 68.1724L42.7767 68.1214H42.7744Z" fill="#F7F3CF"/>
<path d="M13.5448 36.3941C14.0053 36.3941 14.3787 36.0208 14.3787 35.5602C14.3787 35.0997 14.0053 34.7263 13.5448 34.7263C13.0843 34.7263 12.7109 35.0997 12.7109 35.5602C12.7109 36.0208 13.0843 36.3941 13.5448 36.3941Z" fill="#F7F3CF"/>
<path d="M21.6404 17.5206C22.0928 17.5206 22.4595 17.1539 22.4595 16.7015C22.4595 16.2491 22.0928 15.8823 21.6404 15.8823C21.188 15.8823 20.8213 16.2491 20.8213 16.7015C20.8213 17.1539 21.188 17.5206 21.6404 17.5206Z" fill="#F7F3CF"/>
<path d="M30.5344 27.3516C30.9693 27.3516 31.3218 26.9991 31.3218 26.5642C31.3218 26.1294 30.9693 25.7769 30.5344 25.7769C30.0996 25.7769 29.7471 26.1294 29.7471 26.5642C29.7471 26.9991 30.0996 27.3516 30.5344 27.3516Z" fill="#F7F3CF"/>
<path d="M28.2353 21.4827C28.6651 21.4827 29.0136 21.1342 29.0136 20.7043C29.0136 20.2745 28.6651 19.926 28.2353 19.926C27.8055 19.926 27.457 20.2745 27.457 20.7043C27.457 21.1342 27.8055 21.4827 28.2353 21.4827Z" fill="#F7F3CF"/>
<path d="M16.5943 18.9672C17.0147 18.9672 17.3555 18.6263 17.3555 18.2059C17.3555 17.7854 17.0147 17.4446 16.5943 17.4446C16.1738 17.4446 15.833 17.7854 15.833 18.2059C15.833 18.6263 16.1738 18.9672 16.5943 18.9672Z" fill="#F7F3CF"/>
<path d="M9.21993 33.2287C9.63911 33.2287 9.97892 32.8889 9.97892 32.4697C9.97892 32.0505 9.63911 31.7107 9.21993 31.7107C8.80075 31.7107 8.46094 32.0505 8.46094 32.4697C8.46094 32.8889 8.80075 33.2287 9.21993 33.2287Z" fill="#F7F3CF"/>
<path d="M12.8754 30.3072C13.2914 30.3072 13.6287 29.97 13.6287 29.5539C13.6287 29.1378 13.2914 28.8005 12.8754 28.8005C12.4593 28.8005 12.1221 29.1378 12.1221 29.5539C12.1221 29.97 12.4593 30.3072 12.8754 30.3072Z" fill="#F7F3CF"/>
<path d="M11.8864 40.8599C12.2843 40.8599 12.6068 40.5373 12.6068 40.1394C12.6068 39.7415 12.2843 39.4189 11.8864 39.4189C11.4886 39.4189 11.166 39.7415 11.166 40.1394C11.166 40.5373 11.4886 40.8599 11.8864 40.8599Z" fill="#F7F3CF"/>
<path d="M19.5978 24.4371C19.9856 24.4371 20.3 24.1226 20.3 23.7348C20.3 23.3469 19.9856 23.0325 19.5978 23.0325C19.2099 23.0325 18.8955 23.3469 18.8955 23.7348C18.8955 24.1226 19.2099 24.4371 19.5978 24.4371Z" fill="#F7F3CF"/>
<path d="M31.1407 10.5182C31.5166 10.5182 31.8214 10.2134 31.8214 9.83748C31.8214 9.46152 31.5166 9.15674 31.1407 9.15674C30.7647 9.15674 30.46 9.46152 30.46 9.83748C30.46 10.2134 30.7647 10.5182 31.1407 10.5182Z" fill="#F7F3CF"/>
<path d="M38.6616 33.6827C39.02 33.6827 39.3106 33.3922 39.3106 33.0337C39.3106 32.6753 39.02 32.3848 38.6616 32.3848C38.3032 32.3848 38.0127 32.6753 38.0127 33.0337C38.0127 33.3922 38.3032 33.6827 38.6616 33.6827Z" fill="#F7F3CF"/>
<path d="M24.7914 25.0407C25.1417 25.0407 25.4256 24.7567 25.4256 24.4064C25.4256 24.0562 25.1417 23.7722 24.7914 23.7722C24.4412 23.7722 24.1572 24.0562 24.1572 24.4064C24.1572 24.7567 24.4412 25.0407 24.7914 25.0407Z" fill="#F7F3CF"/>
<path d="M25.7604 29.5914C26.1037 29.5914 26.3821 29.313 26.3821 28.9696C26.3821 28.6263 26.1037 28.3479 25.7604 28.3479C25.417 28.3479 25.1387 28.6263 25.1387 28.9696C25.1387 29.313 25.417 29.5914 25.7604 29.5914Z" fill="#F7F3CF"/>
<path d="M23.7904 13.1039C23.5851 13.3206 23.3162 13.3319 23.0621 13.1878C22.7512 13.0108 22.6559 12.6092 22.8522 12.3097C23.0485 12.0101 23.483 11.9443 23.7553 12.1735C24.0468 12.4186 24.0718 12.8066 23.7904 13.1039Z" fill="#F7F3CF"/>
<path d="M17.0578 38.4944C17.3918 38.4944 17.6625 38.2236 17.6625 37.8896C17.6625 37.5557 17.3918 37.2849 17.0578 37.2849C16.7239 37.2849 16.4531 37.5557 16.4531 37.8896C16.4531 38.2236 16.7239 38.4944 17.0578 38.4944Z" fill="#F7F3CF"/>
<path d="M15.6042 27.0986C15.9169 27.0986 16.1703 26.8451 16.1703 26.5325C16.1703 26.2198 15.9169 25.9663 15.6042 25.9663C15.2915 25.9663 15.0381 26.2198 15.0381 26.5325C15.0381 26.8451 15.2915 27.0986 15.6042 27.0986Z" fill="#F7F3CF"/>
<path d="M32.3556 14.6617C32.6582 14.6617 32.9036 14.4163 32.9036 14.1137C32.9036 13.811 32.6582 13.5657 32.3556 13.5657C32.053 13.5657 31.8076 13.811 31.8076 14.1137C31.8076 14.4163 32.053 14.6617 32.3556 14.6617Z" fill="#F7F3CF"/>
<path d="M12.047 24.5879C12.3302 24.5879 12.5598 24.3583 12.5598 24.0751C12.5598 23.7919 12.3302 23.5623 12.047 23.5623C11.7638 23.5623 11.5342 23.7919 11.5342 24.0751C11.5342 24.3583 11.7638 24.5879 12.047 24.5879Z" fill="#F7F3CF"/>
<path d="M15.3483 22.4969C15.6296 22.4969 15.8577 22.2688 15.8577 21.9874C15.8577 21.7061 15.6296 21.478 15.3483 21.478C15.0669 21.478 14.8389 21.7061 14.8389 21.9874C14.8389 22.2688 15.0669 22.4969 15.3483 22.4969Z" fill="#F7F3CF"/>
<path d="M21.7366 31.9389C22.0167 31.9389 22.2437 31.7118 22.2437 31.4317C22.2437 31.1516 22.0167 30.9246 21.7366 30.9246C21.4565 30.9246 21.2295 31.1516 21.2295 31.4317C21.2295 31.7118 21.4565 31.9389 21.7366 31.9389Z" fill="#F7F3CF"/>
<path d="M27.9005 16.7389C28.168 16.7389 28.3849 16.522 28.3849 16.2545C28.3849 15.9869 28.168 15.77 27.9005 15.77C27.6329 15.77 27.416 15.9869 27.416 16.2545C27.416 16.522 27.6329 16.7389 27.9005 16.7389Z" fill="#F7F3CF"/>
<path d="M28.4125 13.1096C28.6738 13.1096 28.8856 12.8977 28.8856 12.6364C28.8856 12.3752 28.6738 12.1633 28.4125 12.1633C28.1513 12.1633 27.9395 12.3752 27.9395 12.6364C27.9395 12.8977 28.1513 13.1096 28.4125 13.1096Z" fill="#F7F3CF"/>
<path d="M8.8984 43.6679C9.1578 43.6679 9.36809 43.4576 9.36809 43.1982C9.36809 42.9388 9.1578 42.7285 8.8984 42.7285C8.639 42.7285 8.42871 42.9388 8.42871 43.1982C8.42871 43.4576 8.639 43.6679 8.8984 43.6679Z" fill="#F7F3CF"/>
<path d="M33.5026 23.3627C33.757 23.3627 33.9632 23.1564 33.9632 22.902C33.9632 22.6476 33.757 22.4414 33.5026 22.4414C33.2482 22.4414 33.042 22.6476 33.042 22.902C33.042 23.1564 33.2482 23.3627 33.5026 23.3627Z" fill="#F7F3CF"/>
<path d="M8.30442 39.0991C8.55129 39.0991 8.75142 38.899 8.75142 38.6521C8.75142 38.4052 8.55129 38.2051 8.30442 38.2051C8.05755 38.2051 7.85742 38.4052 7.85742 38.6521C7.85742 38.899 8.05755 39.0991 8.30442 39.0991Z" fill="#F7F3CF"/>
<path d="M34.5872 33.922C34.8284 33.922 35.024 33.7264 35.024 33.4851C35.024 33.2439 34.8284 33.0483 34.5872 33.0483C34.3459 33.0483 34.1504 33.2439 34.1504 33.4851C34.1504 33.7264 34.3459 33.922 34.5872 33.922Z" fill="#F7F3CF"/>
<path d="M35.8199 29.3157C36.0587 29.3157 36.2522 29.1222 36.2522 28.8834C36.2522 28.6447 36.0587 28.4512 35.8199 28.4512C35.5812 28.4512 35.3877 28.6447 35.3877 28.8834C35.3877 29.1222 35.5812 29.3157 35.8199 29.3157Z" fill="#F7F3CF"/>
<path d="M29.8135 31.0176C30.0497 31.0176 30.2412 30.8261 30.2412 30.5898C30.2412 30.3536 30.0497 30.1621 29.8135 30.1621C29.5772 30.1621 29.3857 30.3536 29.3857 30.5898C29.3857 30.8261 29.5772 31.0176 29.8135 31.0176Z" fill="#F7F3CF"/>
<path d="M26.5482 10.7087C26.7819 10.7087 26.9713 10.5192 26.9713 10.2855C26.9713 10.0518 26.7819 9.8623 26.5482 9.8623C26.3145 9.8623 26.125 10.0518 26.125 10.2855C26.125 10.5192 26.3145 10.7087 26.5482 10.7087Z" fill="#F7F3CF"/>
<path d="M20.598 20.7587C20.8317 20.7587 21.0212 20.5693 21.0212 20.3355C21.0212 20.1018 20.8317 19.9124 20.598 19.9124C20.3643 19.9124 20.1748 20.1018 20.1748 20.3355C20.1748 20.5693 20.3643 20.7587 20.598 20.7587Z" fill="#F7F3CF"/>
<path d="M14.3387 42.7331C14.5705 42.7331 14.7585 42.5452 14.7585 42.3133C14.7585 42.0815 14.5705 41.8936 14.3387 41.8936C14.1069 41.8936 13.9189 42.0815 13.9189 42.3133C13.9189 42.5452 14.1069 42.7331 14.3387 42.7331Z" fill="#F7F3CF"/>
<path d="M18.7705 28.5884C19.003 28.5884 19.1914 28.4 19.1914 28.1675C19.1914 27.935 19.003 27.7466 18.7705 27.7466C18.5381 27.7466 18.3496 27.935 18.3496 28.1675C18.3496 28.4 18.5381 28.5884 18.7705 28.5884Z" fill="#F7F3CF"/>
<path d="M16.155 32.2826C16.3862 32.2826 16.5736 32.0952 16.5736 31.864C16.5736 31.6328 16.3862 31.4453 16.155 31.4453C15.9238 31.4453 15.7363 31.6328 15.7363 31.864C15.7363 32.0952 15.9238 32.2826 16.155 32.2826Z" fill="#F7F3CF"/>
<path d="M9.73135 28.1346C9.95567 28.1346 10.1375 27.9528 10.1375 27.7284C10.1375 27.5041 9.95567 27.3223 9.73135 27.3223C9.50704 27.3223 9.3252 27.5041 9.3252 27.7284C9.3252 27.9528 9.50704 28.1346 9.73135 28.1346Z" fill="#F7F3CF"/>
<path d="M25.0972 16.0559C25.3203 16.0559 25.5011 15.875 25.5011 15.652C25.5011 15.4289 25.3203 15.248 25.0972 15.248C24.8742 15.248 24.6934 15.4289 24.6934 15.652C24.6934 15.875 24.8742 16.0559 25.0972 16.0559Z" fill="#F7F3CF"/>
<path d="M19.3741 14.9826C19.5953 14.9826 19.7746 14.8033 19.7746 14.5821C19.7746 14.361 19.5953 14.1816 19.3741 14.1816C19.1529 14.1816 18.9736 14.361 18.9736 14.5821C18.9736 14.8033 19.1529 14.9826 19.3741 14.9826Z" fill="#F7F3CF"/>
<path d="M9.70845 36.2682C9.92712 36.2682 10.1044 36.091 10.1044 35.8723C10.1044 35.6536 9.92712 35.4763 9.70845 35.4763C9.48977 35.4763 9.3125 35.6536 9.3125 35.8723C9.3125 36.091 9.48977 36.2682 9.70845 36.2682Z" fill="#F7F3CF"/>
<path d="M24.1254 21.1591C24.3441 21.1591 24.5214 20.9818 24.5214 20.7632C24.5214 20.5445 24.3441 20.3672 24.1254 20.3672C23.9068 20.3672 23.7295 20.5445 23.7295 20.7632C23.7295 20.9818 23.9068 21.1591 24.1254 21.1591Z" fill="#F7F3CF"/>
<path d="M32.1776 18.6599C32.39 18.6599 32.5622 18.4877 32.5622 18.2752C32.5622 18.0628 32.39 17.8906 32.1776 17.8906C31.9652 17.8906 31.793 18.0628 31.793 18.2752C31.793 18.4877 31.9652 18.6599 32.1776 18.6599Z" fill="#F7F3CF"/>
<path d="M37.3457 42.2599C37.559 42.1692 37.7677 42.1124 38.0071 42.0523C38.8773 42.7671 39.9392 43.154 41.0692 43.1154C42.9967 43.0485 44.5317 41.957 45.2192 40.153L45.8784 39.95C45.6923 40.7805 45.2907 41.4578 44.7586 42.0659C43.5447 43.4535 41.5366 44.0628 39.7418 43.626C38.8319 43.4047 38.0185 42.9804 37.3457 42.2599Z" fill="#F7F3CF"/>
<path d="M62.0482 53.153C62.5069 53.153 62.8787 52.7811 62.8787 52.3224C62.8787 51.8638 62.5069 51.4919 62.0482 51.4919C61.5896 51.4919 61.2178 51.8638 61.2178 52.3224C61.2178 52.7811 61.5896 53.153 62.0482 53.153Z" fill="#F7F3CF"/>
<path d="M39.4521 41.6553L40.134 41.4454C41.0768 41.8595 42.1319 41.4783 42.8614 40.8078C43.1166 40.6955 43.3628 40.6002 43.6635 40.54C43.1098 41.5918 42.0025 42.1965 40.8533 42.1579C40.3461 42.1171 39.8844 42.0116 39.4521 41.6542V41.6553Z" fill="#F7F3CF"/>
<path d="M67.2428 44.5213C67.6751 44.5213 68.0256 44.1708 68.0256 43.7384C68.0256 43.3061 67.6751 42.9556 67.2428 42.9556C66.8104 42.9556 66.46 43.3061 66.46 43.7384C66.46 44.1708 66.8104 44.5213 67.2428 44.5213Z" fill="#F7F3CF"/>
<path d="M56.1382 63.1644C56.5392 63.1644 56.8643 62.8393 56.8643 62.4383C56.8643 62.0373 56.5392 61.7122 56.1382 61.7122C55.7372 61.7122 55.4121 62.0373 55.4121 62.4383C55.4121 62.8393 55.7372 63.1644 56.1382 63.1644Z" fill="#F7F3CF"/>
<path d="M57.8329 58.0488C58.2239 58.0488 58.5409 57.7318 58.5409 57.3408C58.5409 56.9498 58.2239 56.6328 57.8329 56.6328C57.442 56.6328 57.125 56.9498 57.125 57.3408C57.125 57.7318 57.442 58.0488 57.8329 58.0488Z" fill="#F7F3CF"/>
<path d="M52.1974 54.5836C52.5815 54.5836 52.8929 54.2722 52.8929 53.8881C52.8929 53.504 52.5815 53.1926 52.1974 53.1926C51.8133 53.1926 51.502 53.504 51.502 53.8881C51.502 54.2722 51.8133 54.5836 52.1974 54.5836Z" fill="#F7F3CF"/>
<path d="M63.7397 47.6141C63.6568 47.816 63.5105 47.951 63.3437 47.9976C63.1429 48.0531 62.9557 48.0066 62.7878 47.883C62.6301 47.7672 62.5484 47.5812 62.545 47.3928C62.5416 47.2045 62.6437 47.0298 62.7957 46.9061C63.0147 46.728 63.3256 46.7257 63.5479 46.8845C63.7703 47.0434 63.8542 47.3361 63.7408 47.6141H63.7397Z" fill="#F7F3CF"/>
<path d="M68.4616 35.3244C68.6942 35.5445 68.7203 35.8724 68.5433 36.1038C68.3663 36.3353 68.0634 36.4204 67.7991 36.2661C67.4814 36.0811 67.3793 35.7169 67.5654 35.4174C67.7514 35.1179 68.1803 35.0566 68.4616 35.3232V35.3244Z" fill="#F7F3CF"/>
<path d="M68.5106 39.9965C68.2338 39.9818 68.05 39.7514 68.0137 39.5064C67.9751 39.2443 68.1294 38.9856 68.4164 38.9096C68.7034 38.8336 69.0234 39.0877 69.0608 39.3906C69.0983 39.6936 68.8328 40.0135 68.5106 39.9965Z" fill="#F7F3CF"/>
<path d="M66.127 51.1256C66.4215 51.1256 66.6602 50.8868 66.6602 50.5923C66.6602 50.2978 66.4215 50.0591 66.127 50.0591C65.8325 50.0591 65.5938 50.2978 65.5938 50.5923C65.5938 50.8868 65.8325 51.1256 66.127 51.1256Z" fill="#F7F3CF"/>
<path d="M64.1488 37.3018C64.4408 37.3018 64.6775 37.0651 64.6775 36.7731C64.6775 36.4811 64.4408 36.2444 64.1488 36.2444C63.8568 36.2444 63.6201 36.4811 63.6201 36.7731C63.6201 37.0651 63.8568 37.3018 64.1488 37.3018Z" fill="#F7F3CF"/>
<path d="M48.8995 67.6438C49.1827 67.6438 49.4123 67.4142 49.4123 67.131C49.4123 66.8478 49.1827 66.6182 48.8995 66.6182C48.6163 66.6182 48.3867 66.8478 48.3867 67.131C48.3867 67.4142 48.6163 67.6438 48.8995 67.6438Z" fill="#F7F3CF"/>
<path d="M54.6522 58.5886C54.9266 58.5886 55.1491 58.3661 55.1491 58.0917C55.1491 57.8172 54.9266 57.5947 54.6522 57.5947C54.3778 57.5947 54.1553 57.8172 54.1553 58.0917C54.1553 58.3661 54.3778 58.5886 54.6522 58.5886Z" fill="#F7F3CF"/>
<path d="M49.7568 58.0407C50.0199 58.0407 50.2333 57.8273 50.2333 57.5642C50.2333 57.301 50.0199 57.0876 49.7568 57.0876C49.4936 57.0876 49.2803 57.301 49.2803 57.5642C49.2803 57.8273 49.4936 58.0407 49.7568 58.0407Z" fill="#F7F3CF"/>
<path d="M63.9189 40.7805C64.1589 40.7805 64.3534 40.5859 64.3534 40.3459C64.3534 40.1059 64.1589 39.9114 63.9189 39.9114C63.6789 39.9114 63.4844 40.1059 63.4844 40.3459C63.4844 40.5859 63.6789 40.7805 63.9189 40.7805Z" fill="#F7F3CF"/>
<path d="M52.9013 65.0773C52.9546 65.3484 52.7538 65.5561 52.5326 65.572C52.2717 65.5912 52.0822 65.4006 52.0811 65.1261C52.0811 64.8946 52.2546 64.6893 52.494 64.7142C52.6823 64.7335 52.8605 64.8697 52.9002 65.0761L52.9013 65.0773Z" fill="#F7F3CF"/>
<path d="M60.2571 60.2768C60.3047 60.4822 60.1595 60.6433 60.0336 60.7125C59.8509 60.8124 59.6615 60.7738 59.5355 60.641C59.4096 60.5083 59.3642 60.3177 59.4663 60.1452C59.5514 60.0023 59.7295 59.9319 59.8918 59.9546C60.0359 59.9751 60.2151 60.0999 60.256 60.2768H60.2571Z" fill="#F7F3CF"/>
<path d="M29.6788 48.2676C29.9 48.2676 30.0793 48.0883 30.0793 47.8671C30.0793 47.6459 29.9 47.4666 29.6788 47.4666C29.4576 47.4666 29.2783 47.6459 29.2783 47.8671C29.2783 48.0883 29.4576 48.2676 29.6788 48.2676Z" fill="#F7F3CF"/>
<path d="M67.616 47.8228C67.8359 47.8228 68.0142 47.6445 68.0142 47.4246C68.0142 47.2047 67.8359 47.0264 67.616 47.0264C67.3961 47.0264 67.2178 47.2047 67.2178 47.4246C67.2178 47.6445 67.3961 47.8228 67.616 47.8228Z" fill="#F7F3CF"/>
<path d="M48.3359 44.1104C48.2327 44.2238 48.1045 44.2749 47.9695 44.2613C47.8571 44.2499 47.7131 44.1524 47.67 44.0196C47.6268 43.8869 47.6836 43.7326 47.7766 43.6316C47.856 43.5454 48.0012 43.4818 48.143 43.5125C48.2576 43.5363 48.3745 43.635 48.4085 43.7155C48.4607 43.8381 48.4301 44.0071 48.3348 44.1104H48.3359Z" fill="#F7F3CF"/>
<path d="M64.8236 54.8287C65.0304 54.8287 65.198 54.661 65.198 54.4542C65.198 54.2475 65.0304 54.0798 64.8236 54.0798C64.6168 54.0798 64.4492 54.2475 64.4492 54.4542C64.4492 54.661 64.6168 54.8287 64.8236 54.8287Z" fill="#F7F3CF"/>
<path d="M49.0517 42.1216C49.2565 42.1216 49.4226 41.9555 49.4226 41.7506C49.4226 41.5457 49.2565 41.3796 49.0517 41.3796C48.8468 41.3796 48.6807 41.5457 48.6807 41.7506C48.6807 41.9555 48.8468 42.1216 49.0517 42.1216Z" fill="#F7F3CF"/>
<path d="M52.4669 61.7314C52.6686 61.7314 52.8322 61.5678 52.8322 61.3661C52.8322 61.1643 52.6686 61.0007 52.4669 61.0007C52.2651 61.0007 52.1016 61.1643 52.1016 61.3661C52.1016 61.5678 52.2651 61.7314 52.4669 61.7314Z" fill="#F7F3CF"/>
<path d="M37.5723 44.6518C37.4589 44.5587 37.3919 44.4146 37.4294 44.2853C37.4634 44.1662 37.5927 44.072 37.7266 44.047C37.9036 44.013 38.0636 44.1026 38.135 44.2422C38.2145 44.3987 38.1714 44.5678 38.0329 44.6688C37.8945 44.7697 37.7289 44.78 37.5723 44.6518Z" fill="#F7F3CF"/>
<path d="M49.5599 45.2224C49.751 45.2224 49.9059 45.0674 49.9059 44.8763C49.9059 44.6852 49.751 44.5303 49.5599 44.5303C49.3688 44.5303 49.2139 44.6852 49.2139 44.8763C49.2139 45.0674 49.3688 45.2224 49.5599 45.2224Z" fill="#F7F3CF"/>
<path d="M37.638 46.2095C37.5461 46.3524 37.3873 46.4307 37.2398 46.3865C37.1172 46.349 36.9947 46.2049 36.9981 46.0665C37.0015 45.9281 37.107 45.7772 37.2511 45.7329C37.3816 45.6932 37.5347 45.7216 37.6198 45.818C37.7049 45.9145 37.7219 46.0756 37.6368 46.2083L37.638 46.2095Z" fill="#F7F3CF"/>
<path d="M19.875 57.2954C20.3474 57.2954 20.7304 56.9124 20.7304 56.4399C20.7304 55.9675 20.3474 55.5845 19.875 55.5845C19.4025 55.5845 19.0195 55.9675 19.0195 56.4399C19.0195 56.9124 19.4025 57.2954 19.875 57.2954Z" fill="#F7F3CF"/>
<path d="M40.7649 67.959C41.2229 67.959 41.5942 67.5877 41.5942 67.1297C41.5942 66.6716 41.2229 66.3003 40.7649 66.3003C40.3069 66.3003 39.9355 66.6716 39.9355 67.1297C39.9355 67.5877 40.3069 67.959 40.7649 67.959Z" fill="#F7F3CF"/>
<path d="M26.5069 66.7724C26.9254 66.7724 27.2647 66.4331 27.2647 66.0145C27.2647 65.5959 26.9254 65.2566 26.5069 65.2566C26.0883 65.2566 25.749 65.5959 25.749 66.0145C25.749 66.4331 26.0883 66.7724 26.5069 66.7724Z" fill="#F7F3CF"/>
<path d="M35.8411 68.9347C36.249 68.9347 36.5797 68.604 36.5797 68.1961C36.5797 67.7882 36.249 67.4575 35.8411 67.4575C35.4332 67.4575 35.1025 67.7882 35.1025 68.1961C35.1025 68.604 35.4332 68.9347 35.8411 68.9347Z" fill="#F7F3CF"/>
<path d="M18.5785 61.3968C18.9751 61.3968 19.2966 61.0753 19.2966 60.6786C19.2966 60.282 18.9751 59.9604 18.5785 59.9604C18.1819 59.9604 17.8604 60.282 17.8604 60.6786C17.8604 61.0753 18.1819 61.3968 18.5785 61.3968Z" fill="#F7F3CF"/>
<path d="M14.7544 56.6769C15.1322 56.6769 15.4385 56.3706 15.4385 55.9927C15.4385 55.6149 15.1322 55.3086 14.7544 55.3086C14.3766 55.3086 14.0703 55.6149 14.0703 55.9927C14.0703 56.3706 14.3766 56.6769 14.7544 56.6769Z" fill="#F7F3CF"/>
<path d="M37.9117 64.3285C38.2895 64.3285 38.5958 64.0222 38.5958 63.6444C38.5958 63.2665 38.2895 62.9602 37.9117 62.9602C37.5338 62.9602 37.2275 63.2665 37.2275 63.6444C37.2275 64.0222 37.5338 64.3285 37.9117 64.3285Z" fill="#F7F3CF"/>
<path d="M23.1232 62.6041C23.4258 62.6041 23.6711 62.3587 23.6711 62.0561C23.6711 61.7534 23.4258 61.5081 23.1232 61.5081C22.8205 61.5081 22.5752 61.7534 22.5752 62.0561C22.5752 62.3587 22.8205 62.6041 23.1232 62.6041Z" fill="#F7F3CF"/>
<path d="M27.0966 60.4812C27.3672 60.4812 27.5867 60.2618 27.5867 59.9911C27.5867 59.7204 27.3672 59.501 27.0966 59.501C26.8259 59.501 26.6064 59.7204 26.6064 59.9911C26.6064 60.2618 26.8259 60.4812 27.0966 60.4812Z" fill="#F7F3CF"/>
<path d="M30.9181 67.5802C31.1707 67.5802 31.3754 67.3755 31.3754 67.123C31.3754 66.8705 31.1707 66.6658 30.9181 66.6658C30.6656 66.6658 30.4609 66.8705 30.4609 67.123C30.4609 67.3755 30.6656 67.5802 30.9181 67.5802Z" fill="#F7F3CF"/>
<path d="M33.5826 65.319C33.8326 65.319 34.0352 65.1163 34.0352 64.8663C34.0352 64.6163 33.8326 64.4136 33.5826 64.4136C33.3325 64.4136 33.1299 64.6163 33.1299 64.8663C33.1299 65.1163 33.3325 65.319 33.5826 65.319Z" fill="#F7F3CF"/>
<path d="M17.7047 53.6363C17.9397 53.6363 18.1302 53.4458 18.1302 53.2109C18.1302 52.9759 17.9397 52.7854 17.7047 52.7854C17.4698 52.7854 17.2793 52.9759 17.2793 53.2109C17.2793 53.4458 17.4698 53.6363 17.7047 53.6363Z" fill="#F7F3CF"/>
<path d="M58.2036 20.2572C58.6704 20.2572 59.0488 19.8787 59.0488 19.4119C59.0488 18.9451 58.6704 18.5667 58.2036 18.5667C57.7368 18.5667 57.3584 18.9451 57.3584 19.4119C57.3584 19.8787 57.7368 20.2572 58.2036 20.2572Z" fill="#F7F3CF"/>
<path d="M53.5444 16.3045C53.9686 16.3045 54.3125 15.9606 54.3125 15.5364C54.3125 15.1122 53.9686 14.7683 53.5444 14.7683C53.1202 14.7683 52.7764 15.1122 52.7764 15.5364C52.7764 15.9606 53.1202 16.3045 53.5444 16.3045Z" fill="#F7F3CF"/>
<path d="M62.768 21.4848C63.1765 21.4848 63.5077 21.1537 63.5077 20.7451C63.5077 20.3366 63.1765 20.0054 62.768 20.0054C62.3595 20.0054 62.0283 20.3366 62.0283 20.7451C62.0283 21.1537 62.3595 21.4848 62.768 21.4848Z" fill="#F7F3CF"/>
<path d="M52.3247 12.4299C52.7138 12.4299 53.0292 12.1144 53.0292 11.7253C53.0292 11.3362 52.7138 11.0208 52.3247 11.0208C51.9355 11.0208 51.6201 11.3362 51.6201 11.7253C51.6201 12.1144 51.9355 12.4299 52.3247 12.4299Z" fill="#F7F3CF"/>
<path d="M44.9931 14.641C45.3646 14.641 45.6658 14.3398 45.6658 13.9682C45.6658 13.5966 45.3646 13.2954 44.9931 13.2954C44.6215 13.2954 44.3203 13.5966 44.3203 13.9682C44.3203 14.3398 44.6215 14.641 44.9931 14.641Z" fill="#F7F3CF"/>
<path d="M46.6302 19.295C46.9334 19.295 47.1793 19.0492 47.1793 18.7459C47.1793 18.4426 46.9334 18.1968 46.6302 18.1968C46.3269 18.1968 46.0811 18.4426 46.0811 18.7459C46.0811 19.0492 46.3269 19.295 46.6302 19.295Z" fill="#F7F3CF"/>
<path d="M65.6897 26.6096C65.981 26.6096 66.2172 26.3734 66.2172 26.082C66.2172 25.7906 65.981 25.5544 65.6897 25.5544C65.3983 25.5544 65.1621 25.7906 65.1621 26.082C65.1621 26.3734 65.3983 26.6096 65.6897 26.6096Z" fill="#F7F3CF"/>
<path d="M61.7123 25.2006C61.9968 25.2006 62.2274 24.97 62.2274 24.6855C62.2274 24.401 61.9968 24.1704 61.7123 24.1704C61.4279 24.1704 61.1973 24.401 61.1973 24.6855C61.1973 24.97 61.4279 25.2006 61.7123 25.2006Z" fill="#F7F3CF"/>
<path d="M57.8802 15.872C58.1565 15.872 58.3805 15.648 58.3805 15.3717C58.3805 15.0954 58.1565 14.8713 57.8802 14.8713C57.6039 14.8713 57.3799 15.0954 57.3799 15.3717C57.3799 15.648 57.6039 15.872 57.8802 15.872Z" fill="#F7F3CF"/>
<path d="M47.962 10.4014C48.2258 10.4014 48.4396 10.1875 48.4396 9.9237C48.4396 9.6599 48.2258 9.44604 47.962 9.44604C47.6982 9.44604 47.4844 9.6599 47.4844 9.9237C47.4844 10.1875 47.6982 10.4014 47.962 10.4014Z" fill="#F7F3CF"/>
<path d="M53.6476 19.8249C53.9001 19.8249 54.1049 19.6202 54.1049 19.3676C54.1049 19.1151 53.9001 18.9104 53.6476 18.9104C53.3951 18.9104 53.1904 19.1151 53.1904 19.3676C53.1904 19.6202 53.3951 19.8249 53.6476 19.8249Z" fill="#F7F3CF"/>
<path d="M49.5678 14.2621C49.8097 14.2621 50.0057 14.066 50.0057 13.8242C50.0057 13.5823 49.8097 13.3862 49.5678 13.3862C49.3259 13.3862 49.1299 13.5823 49.1299 13.8242C49.1299 14.066 49.3259 14.2621 49.5678 14.2621Z" fill="#F7F3CF"/>
<path d="M50.8006 18.0846C51.0399 18.0846 51.234 17.8905 51.234 17.6512C51.234 17.4118 51.0399 17.2178 50.8006 17.2178C50.5612 17.2178 50.3672 17.4118 50.3672 17.6512C50.3672 17.8905 50.5612 18.0846 50.8006 18.0846Z" fill="#F7F3CF"/>
<path d="M62.3601 28.7086C62.5801 28.7086 62.7583 28.5303 62.7583 28.3103C62.7583 28.0904 62.5801 27.9121 62.3601 27.9121C62.1402 27.9121 61.9619 28.0904 61.9619 28.3103C61.9619 28.5303 62.1402 28.7086 62.3601 28.7086Z" fill="#F7F3CF"/>
<path d="M43.6483 9.36993C43.8106 9.36993 43.9422 9.23837 43.9422 9.07608C43.9422 8.91379 43.8106 8.78223 43.6483 8.78223C43.486 8.78223 43.3545 8.91379 43.3545 9.07608C43.3545 9.23837 43.486 9.36993 43.6483 9.36993Z" fill="#F7F3CF"/>
<path d="M48.3543 33.7313C48.5705 33.7313 48.7457 33.5561 48.7457 33.3399C48.7457 33.1237 48.5705 32.9485 48.3543 32.9485C48.1381 32.9485 47.9629 33.1237 47.9629 33.3399C47.9629 33.5561 48.1381 33.7313 48.3543 33.7313Z" fill="#F7F3CF"/>
<path d="M53.0322 28.2072C53.2295 28.2072 53.3895 28.0472 53.3895 27.8498C53.3895 27.6524 53.2295 27.4924 53.0322 27.4924C52.8348 27.4924 52.6748 27.6524 52.6748 27.8498C52.6748 28.0472 52.8348 28.2072 53.0322 28.2072Z" fill="#F7F3CF"/>
<path d="M38.9148 8.2297C39.0996 8.2297 39.2494 8.07985 39.2494 7.895C39.2494 7.71015 39.0996 7.5603 38.9148 7.5603C38.7299 7.5603 38.5801 7.71015 38.5801 7.895C38.5801 8.07985 38.7299 8.2297 38.9148 8.2297Z" fill="#F7F3CF"/>
<path d="M44.3918 69.8231C44.5822 69.8231 44.7367 69.6687 44.7367 69.4782C44.7367 69.2877 44.5822 69.1333 44.3918 69.1333C44.2013 69.1333 44.0469 69.2877 44.0469 69.4782C44.0469 69.6687 44.2013 69.8231 44.3918 69.8231Z" fill="#F7F3CF"/>
<path d="M44.7521 25.3968C44.9269 25.3968 45.0686 25.255 45.0686 25.0802C45.0686 24.9054 44.9269 24.7637 44.7521 24.7637C44.5773 24.7637 44.4355 24.9054 44.4355 25.0802C44.4355 25.255 44.5773 25.3968 44.7521 25.3968Z" fill="#F7F3CF"/>
</g>
<defs>
<clipPath id="clip0_417_2556">
<rect width="69" height="69" fill="white" transform="translate(4 4)"/>
</clipPath>
</defs>
</svg>
