<svg width="77" height="77" viewBox="0 0 77 77" fill="none" xmlns="http://www.w3.org/2000/svg">
<circle cx="38.5" cy="38.5" r="38.5" fill="#4B5A2A"/>
<path d="M74.0002 36.3588V39.571L73.6485 43.0125C71.4363 58.5264 59.0776 70.7001 43.5365 72.7075L40.3662 72.9893C39.5034 72.9633 38.6309 73.0242 37.7687 72.9893C16.5953 72.128 0.96791 53.1398 4.49944 32.1086C8.15687 10.3303 30.8829 -2.54672 51.6136 5.33098C64.4389 10.2044 73.407 22.6155 74.0002 36.3588ZM52.7406 18.7266V21.5968C53.548 21.6385 52.7919 22.1599 52.7509 22.3993C52.6831 22.7934 52.952 23.338 53.3544 23.442C53.3653 23.1957 53.7636 23.0384 53.8204 22.8475C53.9319 22.4719 53.7218 20.8243 53.9032 20.6403C53.947 20.6355 54.0394 20.7313 54.0394 20.7429V22.6908C54.1961 22.593 54.387 22.6176 54.4397 22.8085C54.5731 23.2922 53.585 23.5809 53.7287 23.9189L54.4841 24.6031C54.7147 24.4389 55.2286 23.6405 55.5263 23.9381C55.8239 24.2357 55.0254 24.7495 54.8612 24.9801L55.646 25.7648C55.8328 25.5972 56.1168 25.1463 56.3707 25.4535C56.6245 25.7607 56.0128 26.0344 56.0491 26.1795C56.1989 26.5339 57.0399 27.0019 56.9804 27.3665C56.9612 27.4842 56.838 27.541 56.8524 27.6956C56.8695 27.8728 57.0412 28.1978 57.085 28.4277C57.3745 29.9425 57.0625 31.4963 56.9797 33.009C58.197 33.3299 58.962 33.0576 60.0733 32.6525C60.648 32.4432 62.5503 31.7802 62.9458 31.5099C63.0882 31.4128 63.2832 30.8832 63.4371 30.6848C63.6917 30.3564 64.0763 30.1532 64.4519 29.9911C66.3097 29.1871 68.5138 28.7116 70.4174 27.959C70.4947 27.9282 70.5289 28.0049 70.5118 27.855C70.4769 27.5396 70.1451 26.7118 70.0178 26.3642C65.7719 14.7495 54.8352 6.36684 42.5196 5.12778C20.5066 2.91239 2.69022 21.9218 6.41335 43.7521C6.58647 44.7674 6.83896 45.769 7.08941 46.7666L7.17768 46.8815C7.90916 46.3157 8.69197 46.7023 9.05669 47.4692L11.2416 46.3301C11.0719 45.7985 10.6052 45.3113 10.5587 44.7339C10.4218 43.0344 12.6491 42.7018 13.0925 44.2857L21.0253 39.933C21.2114 38.2054 21.4187 36.484 21.7267 34.7742C22.2412 31.9198 23.0685 29.1297 23.5393 26.267C23.6905 25.3482 23.7548 24.4177 23.9143 23.4981C24.3707 20.8572 25.1419 18.3921 25.3957 15.6848C25.4457 15.1525 25.3868 14.417 25.4689 13.9127C25.5682 13.3031 26.5159 13.5173 26.9415 13.6664C26.8498 14.0413 27.014 14.2863 27.142 14.6243C28.3032 17.6798 30.861 19.8508 32.3705 22.6901C32.4868 22.7072 32.4389 22.5307 32.4396 22.45C32.4513 21.525 31.1539 19.6934 30.5798 18.91C29.8004 17.8481 28.8561 16.9129 28.1711 15.7826C28.0103 15.5171 27.1242 13.8963 27.2439 13.7376C27.3439 13.7663 27.4075 13.8108 27.4725 13.8915C27.7633 14.2541 28.0062 14.9862 28.2574 15.4241C28.9635 16.6563 29.9537 17.6408 30.7857 18.7738C31.353 19.5463 31.8491 20.3632 32.337 21.187C32.4218 20.849 32.181 20.4316 32.0414 20.1162C31.8135 19.601 31.4734 19.0037 31.1689 18.5282C30.7693 17.9042 27.9207 14.4197 27.998 14.0509C28.0103 13.9934 28.1465 13.9066 28.1999 13.9442C29.2899 16.1391 31.3208 17.7298 32.235 20.0259C32.35 20.0437 32.3048 19.8651 32.3041 19.7864C32.3 19.1221 31.2045 17.333 30.7857 16.7247C30.1986 15.8715 29.4405 15.1354 28.9526 14.2185C29.0915 14.2247 29.2489 14.1925 29.383 14.2315C29.5369 14.2767 31.0006 16.1664 31.197 16.4504C31.5603 16.9744 31.8826 17.5423 32.1666 18.1129C32.2857 18.1293 32.2309 17.9576 32.2337 17.8748C32.2686 16.9909 31.8929 16.5249 31.4009 15.8366C31.2456 15.6191 30.3245 14.6106 30.3211 14.5257C30.3191 14.482 30.4197 14.4012 30.5257 14.456C30.6024 14.4956 31.0136 14.9342 31.1067 15.0375C31.5569 15.5377 31.8778 16.1349 32.2679 16.6782C32.5128 15.7737 31.6479 15.1744 31.3448 14.4238C31.5487 14.2356 32.1919 15.2722 32.2343 15.448L32.5094 14.5285C32.7277 14.3383 33.1355 14.4046 33.2293 14.6927C33.3312 15.0074 33.2696 16.2307 33.2621 16.6474C33.2197 19.0783 33.2505 21.4483 33.5427 23.8792C33.735 25.4795 34.2386 27.2625 34.3522 28.8108C34.409 29.5901 34.3091 30.4241 33.3997 30.5897C32.4341 30.7649 30.7515 29.6599 29.9571 29.105C28.0192 27.7517 26.3763 25.9161 25.3294 23.7876C25.2363 23.7704 25.2253 23.91 25.2117 23.9757C25.0892 24.56 24.9393 25.6355 24.9893 26.2123C25.1015 27.5068 26.2128 28.8341 27.0051 29.8009C27.6251 28.0056 29.0477 29.3055 29.8086 30.2107C29.9632 30.3947 30.4149 31.1521 30.5264 31.2014C30.7584 31.304 31.0991 31.2219 31.4851 31.4046C32.6716 31.9649 33.9252 33.1746 35.2246 33.6802C35.6318 33.8389 36.4344 33.999 36.537 33.3853C36.6671 32.606 35.7693 31.2103 35.6153 30.3509C35.5948 30.236 35.5702 30.1238 35.5845 30.0061C35.6468 29.9972 35.6714 29.9986 35.7221 30.0383C35.8528 30.1402 36.5063 31.9335 36.6445 32.2598C36.8785 32.8126 37.313 33.2067 36.9647 33.8806C36.2202 35.3222 33.8225 33.6556 32.9234 33.1096C32.3486 32.7606 31.7855 32.385 31.2428 31.9882L31.21 32.0888L33.6706 35.9188L33.8923 35.94C34.5704 35.6226 35.2513 35.2641 35.9937 35.1313C36.1025 35.2524 35.7063 35.6014 35.6167 35.6766C35.2417 35.992 34.7039 36.2664 34.2851 36.5325L34.2126 36.6687L36.0971 39.4369C36.0704 38.8971 35.9061 38.3826 35.9267 37.8318C35.9739 36.5804 37.1878 33.6473 38.2826 33.0083C38.3784 32.9522 38.4441 33.0254 38.5933 32.9173C38.6514 32.8756 38.9991 32.5314 38.9327 32.4664C38.5618 32.604 38.195 33.0076 37.805 32.7401C37.4588 32.5027 37.001 31.2178 36.8313 30.7745C35.1781 26.4436 34.5253 21.4107 34.6922 16.7788C34.7135 16.1924 34.7395 15.292 34.8353 14.7351C34.9365 14.1467 35.6742 14.1515 35.7864 14.7372C35.4764 18.5378 35.6208 22.3904 36.4727 26.1104L37.1556 25.3263C37.1084 25.2059 36.9805 25.3092 36.9462 25.2531C36.8539 25.1019 36.7423 24.6154 36.6972 24.4156C36.043 21.566 35.9041 17.1291 36.4036 14.2528C36.4495 13.988 36.5658 13.8874 36.6794 14.1837C36.3331 16.8643 36.2599 19.6927 36.6185 22.3761C36.6842 22.866 36.8723 24.2651 37.1187 24.6099C37.209 24.7365 37.3965 24.8781 37.5436 24.939C37.6558 24.9486 38.3476 24.2569 38.323 24.0995C38.3148 24.0462 37.6059 23.6363 37.5279 23.3805C37.081 20.1477 36.9606 16.8321 37.4984 13.6041L37.7044 13.7745C37.3 16.4141 37.2487 19.1077 37.5744 21.7617C37.6045 22.008 37.6955 22.8837 37.8084 23.0315C37.8837 23.1294 38.0486 23.1499 38.1471 23.2395C38.3497 23.4243 38.5105 23.6555 38.763 23.7828L39.5465 22.9323L38.8978 22.3521L38.7972 22.8297C38.5885 22.1387 38.5125 21.3977 38.4551 20.6766C38.2977 18.6924 38.2416 15.5082 38.5953 13.574C38.6179 13.4502 38.661 13.3442 38.7616 13.2634C38.9984 13.2552 38.739 14.4532 38.7281 14.5948C38.6754 15.2763 38.6891 15.9646 38.5878 16.6419C38.5543 17.2249 38.6439 21.6967 38.8608 21.8424C38.934 21.8917 39.1037 21.8568 39.244 21.9375C39.3843 22.0183 39.7524 22.53 39.8599 22.554L40.0624 22.3207C39.6067 19.1891 39.6423 15.9817 40.0959 12.8529H40.2992C40.2916 13.8669 40.0809 14.8815 40.0268 15.8941C39.9824 16.7268 40.0084 17.6087 40.0261 18.4229C40.0323 18.713 40.0768 20.6937 40.1644 20.7785C40.1781 20.7915 40.3922 20.7655 40.5038 20.8148C40.6762 20.8914 40.9766 21.4805 41.1949 21.2834L41.6013 20.7422C41.2962 19.0051 41.42 17.2372 41.3913 15.4809L41.5993 12.9884L41.8053 13.0294C41.589 15.5609 41.483 18.1102 41.7368 20.643L42.4902 19.8535C42.2678 17.6915 42.3164 15.4542 42.5532 13.2935C42.5641 13.1909 42.5607 13.1211 42.6599 13.0582L42.8166 13.2114C42.5532 15.3344 42.4738 17.4883 42.6934 19.6188C43.8204 19.4478 42.6811 20.4344 42.6982 20.5322L43.4886 21.2547L44.2679 20.4734C44.2679 20.1942 43.2361 19.8309 43.5768 19.3746C43.802 19.0742 44.1605 19.731 44.2652 19.6188C44.4801 17.4931 44.3802 15.3386 44.4028 13.1957C44.5341 13.1745 44.5855 13.2497 44.6073 13.3667C44.673 13.7287 44.5882 14.3314 44.6046 14.7358C44.6511 15.851 44.6641 16.9608 44.6101 18.0842C44.5916 18.4687 44.3898 19.6174 44.5061 19.8911C44.5362 19.9616 44.6552 20.0307 44.7093 20.095L45.6994 19.0366L45.7699 13.468C45.8623 13.4803 45.8897 13.5604 45.9034 13.6418C46.1689 15.2318 45.9875 17.0894 45.9034 18.6931C45.8794 19.1556 46.0614 19.3978 45.7686 19.7892C45.6659 19.9267 45.1377 20.3434 45.1589 20.4631L45.9424 21.2568L46.7217 20.4631L46.3858 19.924C46.3906 19.6845 46.6862 19.744 46.7498 19.6038C46.8004 19.4909 46.847 18.8238 46.8627 18.6267C46.9202 17.8995 46.9558 17.0292 46.9346 16.3012C46.9133 15.5732 46.7272 14.6961 46.7204 13.9798C46.7163 13.5651 47.0119 13.559 47.1186 13.9298C47.3349 14.6776 47.1795 15.667 47.3444 16.438L47.1371 20.0286C47.404 19.807 47.5976 19.7351 47.742 20.119L47.5764 20.4385L48.3455 21.1808L48.4913 21.1767L48.7143 20.8852L48.637 18.2833C48.7821 17.2365 48.6815 16.059 48.9306 15.0231C48.9798 14.8193 49.1324 14.4573 49.3124 14.7433C49.2878 15.6978 49.0893 16.6474 49.0469 17.6005C49.0079 18.4865 49.0017 19.5928 49.0469 20.4761C49.0633 20.7949 49.1188 21.6296 49.2009 21.8937C49.2467 22.0408 49.5321 22.2153 49.6306 22.3514L50.1376 21.7767C50.0617 20.5185 50.0247 19.2104 50.0719 17.9419C50.0938 17.361 50.1274 16.5277 50.2156 15.9666C50.2478 15.7634 50.4011 15.5062 50.4894 15.8264C50.2225 17.7619 50.2847 19.7194 50.2806 21.6686C50.7569 21.1801 50.891 21.1897 51.3727 21.6686C51.279 20.1244 51.2379 18.559 51.4425 17.0216L51.6499 17.1947C51.5527 18.2504 51.4624 19.3465 51.5075 20.407C51.5219 20.7422 51.5479 21.2349 51.5869 21.5578C51.6259 21.8807 51.7751 22.1524 52.0823 22.2782C52.6147 21.9382 52.4628 21.6413 52.4648 21.1582C52.4676 20.3461 52.4388 19.534 52.5367 18.7287H52.7413L52.7406 18.7266ZM32.6415 24.3985C32.5074 23.5577 31.9045 22.6648 31.4399 21.9444C30.2445 20.0909 28.6652 18.5111 27.5717 16.5858L26.832 15.1737C26.7923 15.6307 27.0414 16.1021 27.2296 16.5181C28.1944 18.6548 29.9311 20.3605 31.262 22.2591L32.6415 24.3985ZM32.9152 26.0392C32.8687 25.1963 32.469 24.6182 32.0557 23.9264C30.6838 21.6324 28.813 19.7543 27.4355 17.4739L26.7643 16.1302C26.52 16.8294 26.9196 17.5382 27.2296 18.1581C28.2991 20.2968 30.1015 22.0709 31.507 23.9962C31.9948 24.6647 32.443 25.3605 32.9152 26.0392ZM33.1205 27.4062C33.089 26.6392 32.5601 25.9557 32.1515 25.3345C30.8815 23.4044 29.2879 21.7111 27.9385 19.8419L26.559 17.4287C26.5761 17.5772 26.4885 17.7277 26.4947 17.868C26.5166 18.3565 27.4876 20.1101 27.7879 20.6081C29.2851 23.0931 31.4071 25.0861 33.1205 27.4069V27.4062ZM33.3251 28.568C33.2785 27.9652 32.7756 27.3891 32.4246 26.9061C30.9876 24.9288 29.177 23.2464 27.8413 21.1685C27.3363 20.383 26.9463 19.5572 26.5227 18.728C26.4824 18.6493 26.4591 18.5392 26.3537 18.5221C26.2914 18.9018 26.431 19.17 26.5679 19.5032C28.0295 23.0623 31.0109 25.5993 33.3251 28.568ZM26.2175 19.4108C26.0088 19.9137 26.1614 20.1627 26.3414 20.6184C26.7431 21.6337 27.4458 22.8434 28.0753 23.7376C29.5985 25.9024 31.7246 27.4596 33.3607 29.5238C33.4845 29.4341 33.4777 29.3842 33.4332 29.248C33.3696 29.0544 32.8317 28.3784 32.6702 28.165C30.9233 25.8552 28.6707 23.9175 27.2309 21.3696L26.2182 19.4108H26.2175ZM47.1693 20.7785L46.3878 21.6221L47.2281 22.4123L48.0184 21.5728L47.1693 20.7785ZM32.8474 29.5922C30.7939 27.2441 28.2526 25.3304 26.752 22.5314L25.8754 20.8456C25.7324 21.3101 25.9664 21.7459 26.158 22.1681C26.9832 23.9853 28.4654 25.8045 29.9071 27.1674C30.6037 27.8256 31.6616 28.8293 32.4034 29.3876C32.5224 29.4772 32.6942 29.584 32.8474 29.5922ZM45.5619 21.5297L44.7066 20.862L43.9224 21.631L44.7757 22.4192L45.5605 21.629V21.5297H45.5619ZM42.2562 20.9188L41.4617 21.6994C41.6191 21.8363 42.1967 22.5081 42.3732 22.478L43.0958 21.6406L42.2555 20.9188H42.2562ZM40.2992 22.075C40.3943 22.1599 40.6817 21.7918 40.6961 21.6981L40.2314 21.3231L40.2999 22.0744L40.2992 22.075ZM31.4803 28.9087C30.991 28.3832 30.3923 27.9659 29.8722 27.476C28.3627 26.0543 27.1215 24.5005 26.1368 22.6682C25.9835 22.3829 25.8932 22.0148 25.6708 21.802C25.6818 21.9717 25.5887 22.1072 25.6304 22.2803C25.677 22.4746 26.0629 23.2197 26.182 23.4441C27.2364 25.4316 28.8041 27.203 30.6797 28.4469C30.9246 28.6097 31.2114 28.7951 31.4816 28.9087H31.4803ZM48.3989 21.9512L47.6181 22.7839L48.468 23.5782L49.2495 22.7346L48.3989 21.9519V21.9512ZM50.8021 21.9491L50.0719 22.7243L50.9191 23.505L51.6417 22.6655C51.487 22.5184 50.9991 21.9108 50.8021 21.9491ZM45.9478 22.0121L45.2184 22.7927C45.2184 22.9207 45.9123 23.598 46.0655 23.5679L46.8607 22.7927L45.9485 22.0121H45.9478ZM43.4913 22.0826C43.4085 22.1045 42.7571 22.7729 42.7571 22.8612L43.6049 23.6418L44.3343 22.8612C44.2324 22.6737 43.6685 22.036 43.4913 22.0826ZM41.097 22.1537C40.8726 22.1729 40.5284 22.7927 40.2999 22.9296L41.1531 23.7143L41.938 22.9296L41.097 22.1537ZM51.3139 23.9805C51.3207 23.9921 51.4549 24.0339 51.5103 24.0879C51.7074 24.2781 51.8901 24.4841 52.0905 24.6715L52.872 23.8279L52.0905 23.0336C51.966 23.2163 51.1948 23.7766 51.3139 23.9805ZM49.6395 23.1054L48.9169 23.9456L49.6983 24.6749L50.4798 23.8957L49.6395 23.1054ZM47.2493 23.1786C47.0858 23.1937 46.446 23.9565 46.4563 24.0133L47.2965 24.7351L48.091 23.9545L47.2493 23.1786ZM44.7203 23.2436L43.9915 24.0236L44.8352 24.8043L45.6255 23.9648C45.4723 23.8177 44.8749 23.2033 44.7203 23.2436ZM39.9228 23.3066L39.1414 24.1502L39.9817 24.9404L40.7761 24.0913L39.9228 23.3066ZM42.3253 23.3127L41.5309 24.0913L42.3841 24.8761L43.1656 24.0325C43.039 23.8895 42.4847 23.2854 42.326 23.3127H42.3253ZM50.8698 24.2672L50.1472 25.1073L50.9875 25.8298L51.7169 25.0485C51.7169 24.9028 50.9458 24.2542 50.8691 24.2672H50.8698ZM53.2668 24.2699C53.1867 24.2911 52.5271 24.965 52.5401 25.0389L53.3215 25.8333L54.0914 24.9794C53.9271 24.8357 53.4666 24.2179 53.2675 24.2699H53.2668ZM48.4769 24.3356L47.6825 25.1162L48.5358 25.9044L49.324 25.1162L48.4769 24.3349V24.3356ZM44.4684 25.1518L43.6145 24.3999C43.468 24.6024 42.7886 25.0923 42.8235 25.316L43.6754 26.0358L44.4253 25.2928L44.4684 25.1518ZM46.0169 24.4095L45.2225 25.1847L46.1346 25.966L46.9291 25.1853C46.7457 25.0458 46.2284 24.3691 46.0176 24.4102L46.0169 24.4095ZM41.1627 24.4724L40.3724 25.3126L41.2223 26.1049C41.3358 25.9544 42.0256 25.3879 42.0037 25.2627L41.1634 24.4724H41.1627ZM38.7609 24.5367L37.9795 25.3311L38.7609 26.1747L39.5492 25.3215C39.5492 25.1101 38.8957 24.7242 38.7609 24.5367ZM52.1001 25.4289L51.3686 26.2109L52.2178 26.9909L52.9404 26.1514C52.9247 26.0597 52.1679 25.4173 52.1001 25.4289ZM54.493 25.4289L53.7711 26.2007L54.543 26.9225C54.6969 26.7597 55.2088 26.3745 55.1876 26.1521L54.493 25.4289ZM47.3054 25.4932L46.524 26.3368C46.6663 26.4737 47.224 27.1277 47.3745 27.1154L48.1546 26.2869L47.3047 25.4925L47.3054 25.4932ZM49.7079 25.4994L48.9135 26.278L49.7668 27.0627L50.5482 26.2191C50.4216 26.0762 49.8673 25.472 49.7086 25.4994H49.7079ZM44.8448 25.5616L44.0634 26.4052L44.9132 27.1996L45.6947 26.356L44.8448 25.5616ZM41.5979 26.5161L42.4519 27.268L43.2333 26.4244L42.393 25.6342C42.2767 25.7587 41.5199 26.4059 41.5979 26.5161ZM39.9906 25.7094L39.2098 26.5421L40.0604 27.2735L40.8445 26.4832L39.9906 25.7094ZM36.8128 26.6529L37.6572 27.3323L38.3771 26.4928L37.5984 25.7683C37.4943 25.9072 36.7307 26.5373 36.8128 26.6529ZM51.7737 27.2783C51.7669 27.2666 51.6328 27.2249 51.5773 27.1708C51.3803 26.9806 51.1976 26.7747 50.9971 26.5872L50.2156 27.4308L51.0648 28.2231C51.1791 28.035 51.8743 27.4514 51.773 27.2776L51.7737 27.2783ZM53.3304 26.5907C53.2121 26.7179 52.5873 27.2447 52.6085 27.3624L53.39 28.1568L54.103 27.3132L53.3311 26.5913L53.3304 26.5907ZM55.5906 26.5934L54.9323 27.3624L55.6378 28.0863L56.3618 27.3036C56.1449 27.1873 55.8041 26.5366 55.5906 26.5934ZM48.5351 26.6707L47.755 27.4993L48.6049 28.2936L49.3863 27.45C49.244 27.3132 48.6863 26.6591 48.5358 26.6714L48.5351 26.6707ZM46.0847 26.7275L45.2903 27.5082L46.1435 28.2963L46.9968 27.5082L46.0847 26.7268V26.7275ZM43.6234 26.7959C43.4769 26.9505 42.8686 27.4377 42.9069 27.6354L43.7417 28.3579L44.5362 27.5773L43.624 26.7959H43.6234ZM41.3837 28.4215C41.3954 28.4147 41.4371 28.2806 41.4912 28.2252C41.6814 28.0281 41.8874 27.8455 42.0749 27.645L41.2209 26.8548L40.4388 27.7059C40.6427 27.8126 41.1997 28.529 41.3844 28.4215H41.3837ZM38.7746 26.9348C38.6829 26.9587 38.052 27.619 38.0595 27.7141L38.8985 28.4824C39.0456 28.3319 39.643 27.8502 39.6046 27.6546C39.4459 27.5054 38.971 26.8828 38.7746 26.9341V26.9348ZM37.2131 27.6197L36.7444 27.2694L36.9832 28.0199C37.079 27.9296 37.2966 27.764 37.2131 27.6197ZM51.4419 28.635L52.2958 29.3171L53.0088 28.4749L52.2267 27.7647C52.1104 27.8851 51.3645 28.5255 51.4419 28.635ZM54.493 27.7524L53.8436 28.477L54.4834 29.2494L55.1937 28.5235C55.2149 28.3996 54.6073 27.7319 54.4923 27.7524H54.493ZM49.8352 27.8393L48.9819 28.6022L49.894 29.3835L50.6885 28.6022L49.8352 27.8393ZM48.2278 28.5693L47.3732 27.8968L46.5931 28.7294C46.7758 28.8697 47.3294 29.4882 47.5059 29.4615L48.2285 28.5693H48.2278ZM44.127 28.8396L44.981 29.5265L45.7713 28.739L44.9112 27.9481L44.8085 27.9837L44.1263 28.8396H44.127ZM42.4615 28.0281L41.667 28.8067L42.5792 29.5881L43.3018 28.7479L42.4622 28.0281H42.4615ZM37.6668 28.0904C37.5258 28.2779 37.1447 28.4865 37.1549 28.7301C37.1625 28.9135 37.4984 29.6955 37.7256 29.6558L38.4551 28.8752L37.6668 28.0904ZM40.0049 28.0965C39.9249 28.1178 39.2652 28.7917 39.2782 28.8656L40.1185 29.5881L40.8404 28.8163C40.6728 28.6726 40.2047 28.0439 40.0049 28.0965ZM56.4316 28.0897C56.3659 28.0213 55.9403 28.4215 55.958 28.5242L56.5677 29.1146L56.4316 28.0897ZM23.2095 37.8619C23.2765 35.7389 23.915 33.6706 24.2811 31.5873C24.383 31.0064 24.5048 30.4091 24.5678 29.8234C24.615 29.3835 24.7381 28.7472 24.5418 28.3627C23.7507 31.9403 22.816 35.4987 22.4575 39.1605L24.2352 38.1548C24.5007 35.299 25.1371 32.4938 25.3328 29.6278C25.3177 29.402 25.1104 29.1023 24.9188 28.9771C24.7477 30.9674 24.2407 32.9002 23.8568 34.8529C23.6892 35.7061 23.6023 36.6995 23.3806 37.5205C23.3484 37.6402 23.3573 37.8195 23.2095 37.8612V37.8619ZM51.0655 28.9107L50.2841 29.7543L51.1339 30.5487L51.9181 29.6955L51.0655 28.9107ZM53.4913 30.4125L54.103 29.6367L53.3996 28.9148L52.677 29.6866C52.794 29.7974 53.3818 30.4905 53.4913 30.4132V30.4125ZM55.6713 28.9189C55.4394 28.7848 55.0445 29.5128 54.8666 29.6367L55.4407 30.3434L56.1613 29.5587L55.6713 28.9189ZM48.6144 29.053L47.82 29.8316L48.6733 30.6164L49.4547 29.7728C49.3281 29.6298 48.7739 29.0257 48.6151 29.053H48.6144ZM70.7424 29.2309C70.6891 29.1919 70.674 29.0647 70.6199 29.0571C70.5084 29.0421 69.8755 29.2706 70.0041 29.5258L69.6948 29.5908L69.6599 29.3883C69.5908 29.4848 68.7779 29.5983 68.8737 29.7283L69.0126 29.7632L68.9065 30.002C68.5705 29.9781 68.8018 29.7215 68.3913 29.8275C68.0505 29.9158 68.0922 30.1108 68.0512 30.1395C67.9896 30.1819 67.8733 30.0266 67.7747 30.0335C67.696 30.0396 67.4586 30.1354 67.3738 30.1778C66.864 30.4337 66.2755 30.5569 65.6918 30.7519C65.4523 30.8319 65.1006 30.9168 64.9063 30.992C63.9873 31.3478 63.8108 31.9896 64.2295 32.8708C64.4102 32.7285 64.454 32.9269 64.2241 32.9741L64.3568 33.2409L64.4971 33.2827C64.5655 32.8633 64.9555 32.4918 65.0424 33.1157C65.0726 33.3299 64.8563 33.1267 64.7674 33.178L64.5662 33.6234L64.9774 33.7329L65.1855 33.3182L65.0445 33.2491C65.115 33.1205 65.2949 33.1814 65.3702 33.1308C65.5242 33.0261 65.4893 32.3351 65.8916 32.4678C66.0203 32.5102 66.036 32.8345 65.9991 32.8701C65.9737 32.8947 65.3675 32.9009 65.6898 33.2847C66.0121 33.6686 66.1126 32.9892 66.2502 32.7524C66.2994 32.6676 66.4144 32.6464 66.4664 32.554C66.5595 32.3871 66.5198 32.0039 66.851 32.1257C66.9516 32.1627 66.944 32.5342 67.2355 32.4254C67.5688 32.3009 67.4415 31.7097 67.7453 31.709C67.9958 31.709 67.9677 32.1633 68.1538 32.1209C68.5322 31.8582 68.4836 31.4491 68.8395 31.1644L69.0071 31.2705L68.9448 31.5695L69.25 31.7043C69.5183 31.4012 69.5367 31.0132 69.8652 30.7553L70.0349 30.8586L69.9001 31.1309L70.297 31.291C70.5638 30.9995 70.5878 30.34 71.0599 30.4132L70.9566 30.8237L71.2652 30.8908C71.374 30.576 71.0456 30.21 71.0059 30.0212C70.9689 29.844 71.088 29.6298 70.9457 29.3342C70.8861 29.2104 70.804 29.2754 70.7424 29.2316V29.2309ZM43.7506 29.116L42.9692 29.9103C43.468 30.7587 44.0312 30.7259 44.6005 29.9603L43.7506 29.116ZM46.1531 29.1194L45.4237 29.9007C45.4237 30.0376 46.1456 30.7033 46.2722 30.6814L46.9934 29.8419L46.1531 29.1194ZM41.2941 29.1851L40.5051 29.9692L41.3584 30.7573L42.1399 29.9781L41.2941 29.1844V29.1851ZM38.843 29.2583L38.1143 30.0369L38.9662 30.8217L39.7511 30.0369C39.5574 29.9007 39.0538 29.2029 38.843 29.2583ZM33.1205 36.2897L30.8788 32.825C30.3143 31.8137 29.8948 30.6376 28.9827 29.8686C28.2834 29.2788 27.2515 29.0339 27.5101 30.316C29.1832 32.3043 30.6468 34.4554 32.0626 36.6318C32.2932 36.8356 32.8303 36.3013 33.1205 36.289V36.2897ZM26.2853 30.6862C26.1915 32.6751 25.989 34.6654 25.7043 36.6331L25.5326 36.5955C25.6749 34.5053 26.0239 32.422 25.9965 30.3243L25.601 29.8665L24.5075 37.9988C25.0933 37.6738 25.6975 37.2687 26.3763 37.6669C26.4878 37.7319 26.9552 38.2936 27.0352 38.2033L27.1071 34.4082L26.8977 31.4053L26.2846 30.6862H26.2853ZM56.4671 30.0034L55.7555 30.73L56.2612 31.4367C56.3686 31.315 56.5308 31.2349 56.5664 31.0598C56.5992 30.899 56.7443 29.9411 56.4671 30.0034ZM52.3971 31.6427L52.9972 30.8579L52.2958 30.0725L51.511 30.8572C51.6519 30.9592 52.2815 31.7248 52.3971 31.6427ZM54.4246 30.0766L53.7629 30.8572L54.2857 31.5031L55.063 30.7204L54.4239 30.0766H54.4246ZM49.9036 30.1423L49.1222 30.9845L49.9625 31.7063L50.7569 30.9257L49.9036 30.1423ZM47.4423 30.2107L46.6615 31.0522C46.678 31.148 47.5087 31.785 47.5696 31.7747L48.2956 30.9934L47.4423 30.21V30.2107ZM45.4257 30.6855L44.981 30.2887L44.7428 30.5158L45.4257 30.6855ZM40.8452 31.0953L40.1274 30.3455C39.877 30.6287 39.5273 30.8572 39.359 31.1993C39.3966 31.6995 40.5804 31.094 40.8452 31.0953ZM42.8276 30.6862C42.8878 30.6191 42.636 30.3311 42.5299 30.3496C42.4471 30.4241 41.9989 30.7977 42.0769 30.8914L42.8282 30.6862H42.8276ZM37.7694 30.4816C37.8358 30.6616 38.0862 31.6235 38.2813 31.5749L38.5864 31.1993C38.4859 31.1261 37.8618 30.3858 37.7694 30.4823V30.4816ZM71.0545 31.1029L70.7192 31.0584L70.6131 31.4388L70.9169 31.5702L71.0551 31.1035L71.0545 31.1029ZM44.7764 31.1644C44.4041 31.12 43.9614 31.1966 43.5803 31.1644L44.4855 31.4552C45.5489 31.8418 46.6451 32.552 47.367 33.4263C47.7577 33.8991 47.9747 34.4773 48.3291 34.9247C48.6836 35.3722 49.2296 35.8094 49.6976 36.0851L48.0787 33.3983C47.3691 32.37 46.0539 31.3163 44.7764 31.1644ZM55.0658 32.5999L55.8684 31.8151L55.3627 31.1699L54.662 31.8965L55.0658 32.5999ZM53.39 31.2342L52.677 32.0279L53.2531 32.7353L53.8881 31.9403C53.908 31.7316 53.4851 31.4381 53.3893 31.2349L53.39 31.2342ZM51.0792 31.3088C50.9991 31.33 50.3354 32.0087 50.3504 32.0799L51.2701 32.8722L51.9222 32.0874C51.8203 31.8999 51.2571 31.2623 51.0792 31.3088ZM49.595 32.0546L48.6822 31.3772L47.9596 32.1462L48.741 32.9406L49.5519 32.1955L49.595 32.0546ZM70.1724 31.5079L69.8029 31.3745L69.5573 31.8466L69.9665 31.9848L70.1724 31.5079ZM70.6329 32.1038C70.6918 32.0546 70.7068 31.8801 70.7842 31.8137L70.3804 31.6447L70.1717 32.1209C70.2997 32.1606 70.5235 32.1955 70.6323 32.1038H70.6329ZM69.1467 31.8486L68.7361 31.8089L68.5617 32.1914L68.9407 32.3946L69.1467 31.8486ZM41.9394 31.9855C41.3612 31.8479 41.2667 32.3289 40.9492 32.669C39.736 33.9669 37.9795 34.5525 37.2589 36.2924C37.0886 36.7029 36.9592 37.1374 36.9497 37.5882L37.6038 36.3636C38.4133 34.9288 39.957 34.3199 41.0177 33.1472C41.3447 32.786 41.6116 32.3481 41.9394 31.9855ZM43.9217 32.1907C43.5611 32.2078 42.7865 31.8808 42.4875 32.0204C42.1015 32.201 41.5384 33.0788 41.2223 33.4216C39.6772 35.0985 38.3853 35.2169 37.3472 37.6115C37.1426 38.0836 36.8682 38.581 37.0181 39.0921L37.4375 38.1117C38.3955 36.1645 39.2906 35.9462 40.7782 34.6859C41.5671 34.0168 42.1734 33.0849 43.1232 32.5882L43.9217 32.1914V32.1907ZM69.7578 32.1257C69.7468 32.1134 69.5217 32.084 69.4622 32.0676L69.3821 32.1127L69.2158 32.5992L69.6941 32.4295C69.7728 32.3823 69.7899 32.1633 69.7571 32.1257H69.7578ZM41.0505 32.1223C41.0163 32.0963 40.6413 32.1935 40.5722 32.2242C40.2882 32.3488 38.7849 33.8218 38.5214 34.1379C38.4571 34.2145 38.3558 34.2487 38.3853 34.3767L40.1261 33.1452L41.0512 32.123L41.0505 32.1223ZM68.1217 32.2591L67.7576 32.1962C67.4579 32.4302 67.5948 32.5944 67.8835 32.734L68.1224 32.2591H68.1217ZM56.279 33.1301C56.3666 32.851 56.4986 32.357 56.1339 32.2632L55.4229 32.9741L55.7124 33.3278L56.2783 33.1301H56.279ZM54.2782 32.3275L53.6295 33.1103C53.6247 33.2806 53.9593 33.6138 54.0729 33.7602L54.7147 32.9652L54.2782 32.3275ZM44.6737 32.4637C44.142 32.2844 43.5673 32.5807 43.1067 32.8441C42.17 33.3812 41.6054 34.2549 40.809 34.9213C40.0939 35.52 39.3042 35.8627 38.6597 36.5996C37.9405 37.422 37.2672 38.6351 37.0858 39.7072C37.3575 39.3637 37.4471 38.8513 37.6401 38.451C38.6186 36.4279 39.5636 36.2862 41.082 34.9897C42.4875 33.7897 42.4971 33.2663 44.4431 32.6094C44.5328 32.5793 44.6518 32.5889 44.673 32.4637H44.6737ZM49.9809 32.4685L49.1851 33.3155L50.1082 34.038C50.2519 34.0387 50.6994 33.3572 50.8931 33.2491L49.9809 32.4685ZM52.3006 32.4658L51.7265 33.1917L52.3643 33.9655L52.8802 33.1157L52.3006 32.4658ZM68.2585 32.8728C68.3742 32.8934 68.847 32.8161 68.8046 32.6347C68.7416 32.3618 68.1484 32.4514 68.2585 32.8728ZM67.1644 32.6005C66.9208 32.5355 66.7511 32.5136 66.5561 32.6991C66.6026 32.9112 66.7319 33.0487 66.9584 33.0788L67.1644 32.6012V32.6005ZM63.0615 32.5999C61.8414 33.0384 60.5071 33.7739 59.2651 34.0996C58.2264 34.3726 57.7413 34.0428 56.8852 34.1085C56.5363 34.1352 54.3329 34.922 54.0736 35.1286C53.3079 35.7389 53.7739 37.1401 54.6894 37.1832C55.0774 37.201 57.2855 36.408 57.6284 36.1535C57.9965 35.8798 58.2661 35.4481 58.6938 35.169C59.935 34.3582 61.9365 34.1632 63.3359 33.659C63.4344 33.6036 63.394 33.5666 63.3749 33.4886C63.3064 33.2095 63.134 32.8858 63.0615 32.6005V32.5999ZM67.2328 33.2143C67.3587 33.2533 67.8233 33.1677 67.7788 32.9762C67.7159 32.7032 67.1219 32.7921 67.2328 33.2143ZM45.4257 32.9419C44.1934 32.9419 43.2525 33.4147 42.3486 34.2043C41.912 34.586 41.5261 35.0999 41.0827 35.4673C40.3505 36.0741 39.5827 36.3731 38.9334 37.1456C38.2019 38.0159 37.5573 39.3487 37.3595 40.4577L38.3723 38.2252C38.9628 36.8466 40.2273 36.343 41.2873 35.4673C42.0461 34.8399 42.6845 33.9942 43.6015 33.544L45.4244 32.9419H45.4257ZM25.0543 47.3618V44.7305C25.0543 44.725 25.2192 44.5683 25.0214 44.6292C24.8038 44.6956 24.0908 45.115 24.0587 45.3756L23.8917 49.0709C23.7453 49.2495 23.6885 48.6173 23.6844 48.5605L23.8233 45.3804C23.7323 45.284 23.087 45.7006 23.0035 45.8245V47.2599L22.8667 47.329L22.6963 45.9278L15.9713 49.7188C16.7157 50.7123 16.1416 52.0649 14.834 51.9418C13.9342 51.8569 13.811 50.8895 13.332 50.31L11.1807 51.469C11.8424 52.5603 11.0732 53.7966 9.81007 53.5133C9.72796 53.5968 10.8139 55.3504 10.9432 55.5577C15.8228 63.3848 23.9916 68.913 33.1082 70.5085C54.0517 74.1744 72.774 57.9674 72.0891 36.8008L71.7442 32.9426L65.8006 34.9617C65.141 35.2196 64.6038 34.7612 64.1057 34.664C63.7594 34.5963 60.8082 35.4714 60.2758 35.6575C59.0311 36.0926 59.0571 36.5182 58.134 37.1387C57.9623 37.2544 57.5086 37.4323 57.4552 37.4843C57.2931 37.6423 57.4532 37.9591 57.46 38.1671C57.5394 40.6548 57.0611 44.9022 54.9905 46.5702C54.1577 47.2407 54.1919 46.898 53.6856 47.9988C53.5063 48.3881 53.3441 48.7966 53.2182 49.2064C52.9904 49.2604 53.0882 48.9943 53.1135 48.8616C53.2175 48.3108 53.5042 47.8113 53.6979 47.2934C53.0602 47.5377 52.395 47.5431 51.7299 47.6485C51.5951 47.7477 51.4877 48.7288 51.2373 48.8643L51.4419 47.5664C50.7767 47.5678 50.1657 47.3317 49.5971 47.0197C49.5266 47.2353 49.5047 47.4952 49.4219 47.7032C49.3781 47.8134 49.428 47.8702 49.2549 47.8394C49.2091 47.3276 49.4582 46.8863 49.1851 46.4053C49.0873 46.3889 49.09 46.5258 49.0702 46.5962C48.8964 47.2291 48.8786 47.9543 48.7527 48.6029C48.7356 48.6919 48.7451 48.9341 48.6398 48.9327C48.3531 47.4959 48.3469 46.0735 47.974 44.6429C47.9548 44.5697 47.9931 44.3569 47.8542 44.4233C47.7304 44.4828 47.7529 44.6005 47.7646 44.7106C47.8029 45.063 48.0013 45.5788 48.0711 45.9818C48.2141 46.8111 48.2662 47.6464 48.3756 48.4791C48.4167 48.7925 48.6014 49.2283 48.6172 49.4548C48.6357 49.7202 48.5077 50.1246 48.4995 50.3996C48.4844 50.9121 48.5173 51.4279 48.5015 51.9404C48.3756 51.9192 48.3866 51.8001 48.3565 51.7105C48.1854 51.2076 48.0718 50.505 47.9767 49.9713C47.6831 48.3245 47.6414 46.6393 47.2781 45.0096L47.0673 44.9699C47.5025 46.326 47.4122 47.7669 47.5463 49.1722C47.6571 50.3387 47.7509 51.5477 47.9877 52.6944C48.1012 53.2438 48.3613 53.7747 48.3654 54.3323C48.1601 54.1175 48.0574 53.6837 47.9753 53.3902C47.5655 51.924 47.4806 50.2162 47.3417 48.6933C47.3034 48.2773 47.2254 45.1348 46.8292 45.1088L46.4172 45.3106L46.7799 45.8381C47.3191 48.0358 47.0324 50.3312 47.4313 52.5678C47.7064 54.1106 48.4502 55.5146 48.5713 57.0656C48.4728 57.082 48.479 56.9473 48.4557 56.8754C47.8481 54.9836 47.2247 52.9338 47.0687 50.949C46.9818 49.8393 47.0906 46.3075 46.422 45.5823C46.1244 45.2586 45.6338 45.5515 45.2362 45.6329C44.9372 45.6945 44.4849 45.6746 44.2611 45.8197C44.166 45.8819 43.3757 46.8569 43.3456 46.9506C43.3284 47.004 43.3647 47.1579 43.4112 47.1566C43.8574 46.7919 44.2112 46.211 44.7408 45.9572C46.2838 45.2196 46.5185 46.9582 46.5883 48.0789C46.6889 49.6942 46.5869 51.2199 46.8839 52.8408C47.081 53.917 47.4792 54.8701 47.7851 55.9039C48.0438 56.7769 48.2306 57.6684 48.5002 58.5373C50.9718 58.8192 52.7023 56.5367 53.3373 54.4151C53.5617 53.6652 53.6281 52.6602 53.9004 51.9712C53.9518 51.8405 53.9921 51.6428 54.1762 51.6667C54.2542 51.7557 53.9997 53.7227 53.9723 54.0251C53.9429 54.3549 53.9942 54.7038 53.9627 55.0404C53.7602 57.1997 52.4436 58.8431 50.4866 59.6963C51.3461 60.7075 52.6564 60.204 53.3852 59.3145C55.0685 57.2586 55.0042 52.5719 55.659 49.9015C55.7658 49.465 56.1469 47.979 56.4015 47.7053C56.6006 47.4911 56.94 47.5637 57.1145 47.461C57.3505 47.3228 57.4025 46.666 57.731 46.6092C57.8685 46.7912 57.3656 47.394 57.3327 47.5486C57.2999 47.7032 57.5476 48.0385 57.5141 48.3334C57.4744 48.6748 57.1678 49.3446 57.0679 49.738C56.2803 52.8223 56.4453 57.3557 54.6442 59.8899C53.1854 61.9425 50.3196 62.3694 49.0544 59.9023C48.4057 59.985 47.7571 59.7668 47.1364 59.5944C47.0995 60.6227 47.0871 62.0349 46.7621 63.0132C46.5076 63.7809 45.5304 63.6317 45.4312 63.0413C45.3477 62.5439 45.7111 61.2022 45.7679 60.5837C45.7959 60.282 45.8295 59.8605 45.8397 59.5622C45.8527 59.1633 45.8815 58.7569 45.5291 58.5004C45.412 59.9139 45.3525 61.3493 45.0076 62.7279L44.6751 62.7361C44.8078 62.0944 44.9351 61.4328 45.0083 60.7807C45.0658 60.2662 45.1274 59.6601 45.1527 59.1483C45.1753 58.696 45.2492 58.2048 45.0152 57.8169L44.8797 57.8511C44.7832 59.2755 44.7326 60.8047 44.4479 62.2025C44.4219 62.3297 44.3672 62.9688 44.1284 62.7019C44.4602 61.3117 44.5629 59.8872 44.6758 58.4662C44.7155 57.9619 44.9112 57.6171 44.606 57.1334L43.8416 62.6896C43.7835 62.8675 43.44 62.8559 43.3852 62.693C43.3175 62.4926 43.6747 60.6412 43.7185 60.2423C43.7876 59.6108 43.789 58.9615 43.856 58.3293C43.9231 57.6971 44.1441 56.9562 44.1817 56.3985C44.1961 56.1864 44.0572 55.9812 44.0606 55.7657C43.893 55.7445 43.9525 55.767 43.9176 55.8608C43.7431 56.3342 43.6254 57.0848 43.5358 57.5979C43.245 59.2612 43.193 60.9689 42.727 62.5979L42.4895 62.667C43.0185 60.8841 43.0554 59.0067 43.3996 57.1874C43.5098 56.6052 43.8396 55.7205 43.8868 55.2279C43.9012 55.076 43.8718 54.7887 43.7534 54.6717C42.9405 56.4964 42.7694 58.4874 42.4006 60.4263C42.3335 60.7794 42.0673 62.2716 41.9072 62.4625C41.8162 62.5706 41.8128 62.5028 41.7368 62.4276C42.3082 60.2827 42.4622 58.0509 43.0862 55.9182C43.232 55.4188 43.6439 54.5772 43.7055 54.1414C43.7253 54.0032 43.75 53.8814 43.6165 53.7836C42.8953 55.2648 42.2788 56.7899 41.9633 58.4176C41.7998 59.2605 41.7444 60.1294 41.5794 60.973C41.4953 61.4047 41.2879 61.8118 41.3256 62.2579C41.2373 62.3475 40.5681 62.0328 40.5154 61.872C38.7739 58.2062 37.6401 54.2858 35.9157 50.6151C35.3471 49.4048 34.6683 48.2451 34.0894 47.0423C32.7838 44.3288 31.717 41.5032 30.8658 38.6125L30.6037 38.7124C31.5754 42.3269 32.6538 45.9196 33.9601 49.4267C35.4545 53.4394 37.3883 57.2599 39.205 61.1304C39.1044 61.2549 39.1003 61.246 39.0011 61.1304C38.8102 60.9066 38.6049 60.44 38.464 60.1636C37.4375 58.1398 36.4193 55.91 35.5024 53.8294C33.4749 49.2269 31.7916 44.3364 30.6605 39.4314C30.5722 39.3316 30.3437 39.7256 30.3348 39.792C31.4358 44.4123 32.4834 49.2167 34.4986 53.5345C35.6016 55.8984 37.0578 58.0933 38.1116 60.4811C38.0212 60.581 37.6599 59.9755 37.6216 59.9118C36.6568 58.2896 35.6413 56.3657 34.7949 54.6737C32.493 50.0705 31.2654 44.9918 30.1815 39.9795C30.1193 39.9145 29.8339 40.1635 29.8558 40.2709C30.7885 45.9333 32.1098 51.5114 34.8866 56.5634C35.2691 57.2599 35.8384 58.0091 36.1662 58.7015C36.2189 58.813 36.2852 58.9143 36.2654 59.0463C34.8264 58.0413 34.0011 56.5292 33.2676 54.9706C31.1409 50.4496 30.0419 45.507 29.2235 40.5946L28.4811 41.1159C28.7343 41.6756 28.6508 42.3235 28.2355 42.7833L25.4293 44.4198C25.289 45.3394 25.3574 46.3506 25.1891 47.2565C25.1679 47.3687 25.2336 47.3735 25.0543 47.3598V47.3618ZM66.7374 33.4729C66.7627 33.4503 66.8284 33.3237 66.7935 33.282L66.3884 33.141C65.9915 33.5817 66.4021 33.7719 66.7381 33.4722L66.7374 33.4729ZM27.6525 37.8619C27.8564 37.7785 28.5926 37.5226 28.6132 37.3488L27.6867 33.2827L27.6531 37.8619H27.6525ZM29.8387 37.5205C29.4959 36.408 29.3132 35.0061 28.867 33.9477C28.7767 33.7335 28.5947 33.4134 28.4045 33.2834L29.2927 37.2646L29.8387 37.5205ZM65.7876 33.5659L65.3955 33.4961L65.2511 33.8978L65.7883 33.8204V33.5659H65.7876ZM53.2203 33.5563L52.6811 34.3548L52.9206 34.6442L53.6254 34.0695L53.2203 33.5557V33.5563ZM51.3727 33.6254C51.2523 33.6063 51.2229 33.6213 51.1367 33.6966C50.9464 33.8615 50.7288 34.2508 50.4859 34.4116L51.5096 35.2661C51.4768 34.7174 51.3331 34.179 51.3734 33.6261L51.3727 33.6254ZM46.7922 33.8991C46.3598 33.6959 45.904 33.8588 45.4654 33.9723C43.154 34.5683 42.7338 35.4775 40.9759 36.7282C40.4306 37.1162 39.8291 37.3214 39.3816 37.8681C38.9135 38.4394 38.2847 40.0896 38.0418 40.834C37.9925 40.9852 37.8714 41.1966 37.9384 41.3485C38.0055 41.5004 38.0103 41.4224 38.0582 41.3301C38.5953 40.2983 38.9313 38.5523 39.7504 37.7579C40.1603 37.3604 40.8411 37.0765 41.3181 36.7282C42.4957 35.8703 43.3414 34.677 44.9118 34.3753L46.7929 33.8991H46.7922ZM51.7156 34.8549L52.0358 34.4793L51.6471 34.0353L51.7156 34.8556V34.8549ZM47.4519 34.5388C47.3102 34.4526 47.1289 34.3883 46.9633 34.376C46.0826 34.3083 43.7103 35.2449 42.9706 35.7841C42.4622 36.1542 42.0557 36.6516 41.5617 37.0409C41.1703 37.3488 40.7008 37.5718 40.3348 37.8647C39.2098 38.7637 38.9744 40.4468 38.3292 41.6721C38.2375 41.9698 38.5296 42.1559 38.726 42.305C39.2372 41.3971 39.5075 40.3038 39.9454 39.389C40.3703 38.5016 40.8103 38.4674 41.4617 37.8982C41.8053 37.5985 42.0434 37.2161 42.3855 36.9082C43.2231 36.1556 44.7298 35.6322 45.8212 35.3537C46.5917 35.1573 47.2507 35.0383 48.0232 35.3339C47.9938 35.1334 47.7707 35.0725 47.6852 34.9487C47.6216 34.8556 47.6681 34.6716 47.4519 34.5402V34.5388ZM30.5141 37.6478L29.9407 35.5398L29.2933 34.5135L30.224 37.721L30.5141 37.6471V37.6478ZM50.1164 34.7899C49.996 34.8775 49.8461 35.0335 49.9022 35.1929C49.9529 35.3373 50.6522 36.1713 50.7829 36.1487L51.2352 35.7095L50.1164 34.7899ZM52.6715 36.7686C52.4053 36.1296 52.9103 35.2949 52.3314 34.8549L52.0214 35.6116L52.6722 36.7679L52.6715 36.7686ZM49.6641 36.7679C48.9586 36.1446 48.0951 35.366 47.1022 35.3304C46.1312 35.2949 43.4934 36.2247 42.727 36.8384C42.326 37.1599 42.0222 37.6409 41.6677 37.9659C41.2654 38.334 40.6735 38.5557 40.3375 39.0278C40.0015 39.4999 39.2078 41.5209 38.9683 42.1689C38.8868 42.3892 38.8006 42.4788 39.0346 42.6444C39.2433 42.643 40.187 40.0671 40.356 39.7291C40.7296 38.9806 41.2784 38.7904 41.8053 38.2389C42.0947 37.9358 42.2925 37.5746 42.623 37.2797C43.5748 36.4306 45.9102 35.6226 47.1727 35.7403C48.1149 35.8278 48.7657 36.5784 49.6648 36.7679H49.6641ZM50.6892 37.7928C50.3532 37.069 49.5095 37.0183 48.8656 36.7118C48.1888 36.3896 47.794 35.9537 46.9551 35.888C45.9718 35.8114 43.5967 36.6981 42.8269 37.3481C42.4184 37.6929 42.1542 38.1527 41.795 38.5037C41.5288 38.7637 41.0875 38.9888 40.8452 39.2631C40.423 39.7414 40.1562 40.7211 39.8996 41.3253C39.8106 41.5353 39.2002 42.7272 39.2153 42.8072C39.2303 42.8873 39.4096 43.0385 39.4767 42.9878C39.9475 42.1258 40.215 41.1597 40.6276 40.2764C40.9773 39.5286 41.5049 39.1988 42.042 38.6145C42.5518 38.0597 42.6257 37.7018 43.3538 37.2605C44.4158 36.6167 46.4234 35.8347 47.6113 36.3937C48.5433 37.0648 49.6586 37.3242 50.6885 37.7928H50.6892ZM52.057 37.0409L51.5801 36.1145L51.0628 36.4936L51.5773 37.214L52.057 37.0402V37.0409ZM51.5089 40.117C51.4952 39.062 51.201 38.2943 50.2327 37.8058C49.7832 37.5794 49.1933 37.4685 48.7287 37.2598C47.9384 36.9047 47.4395 36.3095 46.4829 36.3567C45.5017 36.4053 43.3982 37.2715 42.7249 37.9988C42.2541 38.5071 41.7964 39.0264 41.3222 39.5354C40.5017 40.4153 40.2807 42.1141 39.6204 43.1527C39.7791 43.2889 39.9208 43.4907 40.0946 43.2985C40.2684 43.1062 40.6632 42.2222 40.7884 41.9417C40.9862 41.4977 41.0936 40.9811 41.3215 40.5617C41.5185 40.1998 43.156 38.3559 43.4886 38.1493C43.9327 37.8736 45.551 37.1497 46.0361 37.0744C47.2117 36.8924 47.8946 37.5055 48.8861 37.9905C49.6285 38.3539 50.3504 38.4818 50.928 39.1612L51.5075 40.1184L51.5089 40.117ZM44.1263 50.9832C44.062 47.6013 41.032 45.8792 38.8622 43.8431C37.9282 42.9666 37.0721 41.9581 36.3058 40.9319C35.3567 39.6606 34.539 38.2834 33.6015 37.0033L32.6743 37.5198C34.231 40.0109 36.1634 42.1983 38.3155 44.1852C40.0713 45.8053 42.0365 47.2435 43.2669 49.3494L44.1263 50.9832ZM51.3721 41.5517C51.7169 40.5946 51.0505 39.4164 50.2731 38.8588C49.7893 38.5119 49.2104 38.3812 48.6822 38.1253C47.7242 37.6608 47.0878 37.0142 45.9567 37.2653C44.1284 37.6717 42.8207 38.8465 41.6985 40.2525C41.2489 40.8155 41.0854 41.6188 40.7884 42.2811C40.5975 42.7073 40.3354 43.1007 40.1616 43.5331C40.3019 43.5626 40.3204 43.464 40.3799 43.3758C40.9219 42.5698 41.1442 41.3492 41.6766 40.572C41.9195 40.2176 42.7714 39.2707 43.0992 38.919C43.7842 38.1835 45.7549 37.4097 46.7587 37.5191C47.3287 37.5814 47.7406 38.0008 48.2265 38.2389C49.5067 38.8656 50.5564 39.0216 51.1018 40.5583L51.3714 41.551L51.3721 41.5517ZM51.8517 37.5903L52.2951 38.5434C52.8569 38.3388 52.4566 37.7901 52.2206 37.4576L51.8517 37.591V37.5903ZM51.099 41.4156C51.0881 40.9921 50.9054 40.5125 50.7008 40.1403C50.1048 39.0538 49.1229 38.8807 48.0903 38.3764C47.3561 38.0172 47.0331 37.5513 46.0929 37.6751C45.6125 37.7381 43.8615 38.4572 43.4776 38.7507C43.2983 38.8875 41.7964 40.6397 41.678 40.847C41.1969 41.6893 40.9848 42.8346 40.3738 43.6371L40.7077 43.8759C40.9027 43.4428 41.0573 42.9789 41.2654 42.5527C42.1741 40.6917 43.6446 38.6898 45.7535 38.1554C46.9305 37.8571 47.4779 38.4366 48.4557 38.8991C49.4917 39.3897 50.3005 39.4889 50.8397 40.6849L51.099 41.4156ZM53.5617 38.9553C54.2699 38.5051 53.8423 38.0378 53.288 37.7251C53.1915 38.2088 53.4488 38.5187 53.5617 38.9553ZM36.2647 50.2313C35.757 48.67 35.2096 47.1059 34.5896 45.5857C33.9122 43.9245 33.0739 42.3262 32.404 40.663C32.0681 39.8283 31.8423 38.9464 31.4461 38.137C31.2141 38.282 31.3366 38.4462 31.3941 38.6665C32.0599 41.2048 33.232 43.7322 34.2242 46.1563L36.2647 50.232V50.2313ZM56.9106 39.1598C56.7552 38.841 56.9106 38.4681 56.8086 38.1356L56.4295 38.6481C56.4644 38.7466 56.8004 39.2522 56.9106 39.1598ZM55.2519 38.2204C55.0398 38.215 54.7743 38.3258 54.6593 38.5112L55.1698 39.1605C55.2457 39.1797 55.657 38.7712 55.67 38.7062C55.6953 38.5748 55.3949 38.2239 55.2526 38.2204H55.2519ZM36.47 49.9583C36.2421 47.3167 35.1671 44.9207 34.0682 42.5534C33.5707 41.4813 32.9836 40.171 32.404 39.1598C32.246 38.8834 32.0475 38.5666 31.8224 38.3409L36.4693 49.9583H36.47ZM50.9636 42.5096C51.0895 42.4781 51.0915 42.4001 51.086 42.2907C51.0621 41.7789 50.6905 40.7437 50.3758 40.3284C49.749 39.5033 48.9237 39.4178 48.0444 39.0367C47.5271 38.8123 47.0269 38.3634 46.4131 38.3381C45.8726 38.3155 44.231 39.0572 43.791 39.4061L41.8716 41.8617L41.9045 41.9629C42.1494 41.6489 42.4765 41.3807 42.7263 41.0755C43.3284 40.3394 43.4325 39.8467 44.3309 39.3309C45.1274 38.8731 46.123 38.3566 47.0235 38.6918C47.5566 38.8903 48.8231 39.5156 49.324 39.8091C50.2786 40.3688 50.9163 41.3923 50.9642 42.5096H50.9636ZM27.3788 39.1619L27.9597 40.184L29.487 39.1119C29.5554 38.8841 29.3385 38.3901 29.0593 38.4079C28.6754 38.4325 27.8139 39.0695 27.3781 39.1619H27.3788ZM27.1995 42.1258C27.3007 42.0526 27.454 42.0786 27.5047 41.9137C27.5532 41.7187 27.4568 41.5435 27.3897 41.3691C27.0537 40.4947 26.3831 39.6572 26.0013 38.7938C25.9254 38.6802 25.7899 38.6008 25.6496 38.6241C25.5689 38.6371 24.4638 39.2741 24.4439 39.3411C24.4706 39.7763 25.4416 40.6219 24.6759 40.7984C24.3563 40.7848 23.9512 39.6682 23.7904 39.6552L23.0035 40.0493C22.9426 40.13 23.6878 41.1385 23.6091 41.3663C23.1055 42.0019 22.7113 40.8525 22.5197 40.4632L21.6658 40.8682C21.7506 41.2048 22.5416 42.0991 22.0455 42.342C21.6439 42.5383 21.2333 41.4197 21.0889 41.1426L20.2692 41.5538C20.2001 41.6461 21.2538 43.3087 21.3312 43.6015C21.3797 43.7849 21.3996 43.932 21.2258 44.049C21.1539 44.0914 21.0807 44.0935 21.0013 44.0716C20.7098 43.9909 19.9681 42.3625 19.756 42.0307L19.6212 41.9602L18.9013 42.3057C18.8165 42.42 20.0153 44.0134 19.0758 43.8786C18.8219 43.8424 18.4511 42.9796 18.3484 42.7196L17.5287 43.0973C17.5321 43.4483 18.3717 44.3802 17.944 44.595C17.413 44.8611 17.1749 43.7719 16.9498 43.4647L16.1615 43.852C16.091 44.1817 17.0462 45.1191 16.5775 45.3462C16.4865 45.39 16.2641 45.4146 16.1806 45.3661C16.0725 45.3031 15.6284 44.2447 15.5135 44.2194L13.7049 45.2094L13.6475 45.3982L15.4478 48.7213L19.3112 46.6099L18.9704 46.4731C19.0621 46.0051 19.3146 46.4423 19.4241 46.4635C19.4898 46.4765 19.8449 46.289 19.927 46.2329C20.0194 46.17 20.0434 46.0325 20.0796 46.0113C20.148 45.9709 20.3479 45.9907 20.5025 45.9203C21.7944 45.3312 23.2163 44.3261 24.461 43.6262C25.3362 43.1336 26.3811 42.7196 27.2002 42.1271L27.1995 42.1258ZM50.4852 43.3977C50.8808 43.0747 50.8103 42.667 50.7391 42.2209C50.5674 41.1508 50.0309 40.4228 49.0962 39.8994C48.7472 39.7044 46.953 38.7931 46.6848 38.7568C45.878 38.646 44.1427 39.5005 43.6138 40.1163C43.3312 40.4447 43.104 40.899 42.8269 41.2432C42.6414 41.4731 42.367 41.6667 42.1782 41.8931C41.6376 42.539 41.3502 43.2772 41.1189 44.0805L41.392 44.1503C41.5747 43.6002 41.8148 42.9666 42.185 42.5151C42.4717 42.1648 42.8365 41.9855 43.1382 41.6913C43.4913 41.3472 43.7958 40.8983 44.1633 40.5973C45.865 39.2043 47.4437 39.6654 49.2009 40.6151C50.2457 41.1795 50.4524 42.2907 50.4859 43.3977H50.4852ZM52.4676 39.7756L52.9377 39.4574C52.9021 39.3247 52.8966 38.8451 52.7734 38.8191L52.3964 39.0722L52.4676 39.7756ZM54.3794 38.8875C54.35 38.8677 53.8977 39.2926 53.9011 39.3993L54.3466 40.1163L54.7797 39.5478L54.3801 38.8875H54.3794ZM55.9971 39.0976L55.5543 39.6175L55.9895 40.2545L56.5705 39.6736L55.9964 39.0982L55.9971 39.0976ZM53.5597 39.7756C53.4659 39.6846 53.431 39.7824 53.4215 39.8789C53.3955 40.145 53.5638 40.5029 53.4933 40.8005L53.8957 40.483L53.5597 39.7756ZM49.5964 44.6962C49.7421 44.6436 49.7976 44.3836 49.8037 44.2495C49.9221 41.6961 48.0917 39.1058 45.321 40.1847C44.2303 40.6096 43.971 41.146 43.2053 41.8966C42.9405 42.1566 42.6134 42.303 42.3506 42.6136C41.9572 43.0795 41.7943 43.6494 41.5302 44.1852L41.7348 44.2577C42.0078 43.8355 42.1043 43.3593 42.419 42.9557C42.7578 42.5212 43.1875 42.37 43.5481 42.0348C43.776 41.8234 43.9203 41.5346 44.2002 41.3198C44.955 40.7423 46.1976 40.3975 47.1186 40.6452C48.9942 41.1494 49.5321 42.9461 49.595 44.6962H49.5964ZM53.0136 40.0493L52.4669 40.4249V41.6208C52.6065 41.6728 53.0136 41.081 53.0136 41.04V40.0493ZM54.9973 41.2103C55.0829 41.2692 55.6145 40.7471 55.6139 40.6295L55.1575 40.0534L54.5977 40.5603L54.9973 41.2096V41.2103ZM56.7046 41.0742L56.773 40.3223L56.3761 40.6972L56.7053 41.0735L56.7046 41.0742ZM35.9233 46.2678C35.7009 44.9713 35.3861 43.4408 34.7538 42.2783C34.4363 41.694 33.8095 41.0625 33.3956 40.5275L35.9233 46.2678ZM49.9385 44.1496C50.488 43.8424 50.2916 42.7778 50.1636 42.2496C49.9782 41.4874 49.5943 40.9496 48.845 40.6643L49.4499 41.6653C49.7702 42.4603 50.0008 43.2827 49.9392 44.1503L49.9385 44.1496ZM49.322 45.3455C49.3719 44.987 49.322 44.4335 49.322 44.047C49.322 43.7596 48.9005 42.5253 48.7438 42.2332C47.8597 40.5795 45.6885 40.4844 44.2974 41.5524C43.9046 41.8541 43.2518 42.4378 42.8638 42.7846C42.3848 43.2122 42.1796 43.7466 42.0071 44.3535C42.2309 44.5163 42.4416 43.7651 42.5285 43.6111C42.924 42.9078 43.245 42.8927 43.817 42.4391C44.517 41.8836 44.8188 41.3978 45.8322 41.2418C48.5467 40.8244 49.1174 43.3929 49.1858 45.5166C49.2549 45.5412 49.3179 45.3743 49.322 45.3462V45.3455ZM54.04 42.0991C54.1139 42.1538 54.6559 41.7474 54.6552 41.588L54.2029 40.9408L53.7027 41.3205L54.04 42.0998V42.0991ZM55.9875 41.0755L55.4168 41.6653C55.3874 41.8158 55.7904 42.2626 55.919 42.3714L56.567 41.7235L55.9875 41.0755ZM53.2531 41.6906C52.7912 42.1401 52.6332 42.1271 52.9329 42.7614C52.9828 42.8667 53.0232 42.9776 53.1163 43.0549L53.6739 42.5452L53.2531 41.6906ZM48.3647 43.2608C48.0752 42.24 46.9647 41.7542 45.9732 41.8261L47.3184 42.2229C47.7721 42.4665 48.0581 42.8654 48.3647 43.2601V43.2608ZM54.9063 42.1066C54.8495 42.1223 54.4013 42.5719 54.3911 42.6218L54.8276 43.3292L55.4674 42.7388C55.3819 42.5725 55.1027 42.0532 54.9063 42.1066ZM52.2295 42.5787C52.1186 42.6033 51.7464 43.1021 51.7279 43.243C51.7115 43.3676 51.9551 44.0127 52.0221 44.0121L52.6482 43.4339C52.5606 43.2834 52.4101 42.5383 52.2288 42.5787H52.2295ZM47.2712 43.397C46.3037 42.0895 43.8341 43.204 43.193 44.3439C43.1396 44.4383 43.0718 44.4999 43.1013 44.6278L43.6843 44.0832C44.5868 43.4093 45.7371 42.7751 46.8812 43.2068C47.0331 43.2642 47.1159 43.3929 47.2712 43.397ZM53.9367 42.9885L53.3038 43.5673C53.7458 44.4493 53.7862 44.4664 54.4301 43.7055L53.9367 42.9878V42.9885ZM55.8157 44.4226C56.3146 43.4934 55.9936 42.5937 55.1985 43.7733C55.2621 43.8951 55.6946 44.5122 55.8157 44.4226ZM46.8613 43.945C45.7925 43.592 44.7463 43.982 43.9908 44.764C44.2775 44.8851 44.4541 44.5998 44.697 44.48C45.0733 44.2939 45.5051 44.075 45.9389 44.0771C46.238 44.0784 46.7519 44.4027 46.8613 43.9457V43.945ZM51.4898 44.4711C51.6376 44.3015 51.4008 43.9977 51.3392 43.8082C51.1818 44.1229 50.3799 44.7257 50.9239 44.9672C51.0477 44.7804 51.3693 44.6094 51.4898 44.4711ZM52.8473 43.9471L52.2123 44.5245L52.7057 45.31L53.3544 44.6634C53.3168 44.5238 52.9712 43.9183 52.8467 43.9464L52.8473 43.9471ZM54.7578 44.166L54.1146 44.74L54.6956 45.5132L55.4011 44.9254L54.7572 44.1653L54.7578 44.166ZM11.7712 44.2933C11.286 44.415 12.0257 45.5782 12.1667 45.8594C13.0227 47.5623 13.9793 49.2632 14.9134 50.9086L15.1419 50.8826L15.2801 50.6733L11.9676 44.3494C11.9115 44.2912 11.8499 44.2734 11.7712 44.2933ZM46.2455 44.3555C45.8726 44.2112 45.3751 44.3699 45.0159 44.5259C44.9248 44.5656 44.7072 44.6661 44.6737 44.764L45.0419 44.7571L46.2448 44.3555H46.2455ZM36.4714 45.0377C36.6376 44.8871 37.1392 44.5929 36.8457 44.3548C36.5528 44.5033 36.3311 44.701 36.4714 45.0377ZM36.6082 45.858L37.4232 44.9945L37.1789 44.7017C36.7177 44.9809 36.4659 45.3093 36.6082 45.858ZM51.7553 44.9042L51.1107 45.4913L51.5431 46.2658L52.2541 45.6726C52.2815 45.5624 51.8743 44.8762 51.7546 44.9042H51.7553ZM36.676 46.3362C36.8046 46.3663 36.8374 46.263 36.9148 46.2001C37.0058 46.1262 37.6394 45.4379 37.6668 45.3797C37.7297 45.2443 37.714 45.1957 37.5984 45.1081C37.4403 45.2504 36.5199 46.1666 36.676 46.3362ZM53.7643 45.1068L52.9479 45.7554L53.5932 46.5285L54.3794 45.8922L53.7643 45.1068ZM42.6914 45.5173C42.3027 45.5385 41.9565 45.3531 41.5979 45.2436L42.3253 45.9209C42.4587 45.9456 42.6189 45.6199 42.6914 45.5173ZM36.8792 46.8145L38.0411 45.4824L37.8714 45.3127C37.6962 45.6986 36.9339 46.2404 36.7793 46.5429C36.7403 46.6195 36.7334 46.6961 36.743 46.7803L36.8792 46.8145ZM36.9483 47.7026L38.5146 45.949L38.1451 45.5843C37.9843 46.0366 36.8374 46.8384 36.8326 47.2435C36.832 47.3057 36.8628 47.6827 36.9476 47.7019L36.9483 47.7026ZM43.5118 45.7218C43.2477 45.494 42.8734 46.1536 42.7598 46.3691L42.9665 46.4402L43.5118 45.7218ZM44.0579 45.7218C43.5556 45.6267 43.4509 46.3068 43.0629 46.5422L43.0383 46.6345L43.2032 46.8138L44.0572 45.7218H44.0579ZM50.7569 45.858L49.9392 46.4389C50.3073 46.742 50.7788 47.0731 51.1702 46.6421L50.7569 45.858ZM37.0167 48.1808C37.3048 47.4672 38.0219 47.0375 38.4886 46.4738C38.5803 46.3629 38.7192 46.2124 38.726 46.0626L37.1563 47.602C37.0523 47.7238 36.8101 48.0522 37.0167 48.1801V48.1808ZM53.1505 46.8138L52.5695 46.0639L51.8695 46.7105C52.0379 47.2099 52.7577 46.8295 53.1505 46.8138ZM37.1536 49.2064C37.3069 48.553 37.7345 48.0145 38.1766 47.5295C38.3298 47.3611 38.5468 47.2489 38.7247 47.0519C38.8868 46.872 39.3816 46.3143 38.8855 46.276L38.7951 46.2979C38.4592 46.848 37.0366 47.9393 37.0133 48.5592L37.1536 49.2071V49.2064ZM47.9548 58.4326C47.7523 56.4526 46.6752 54.6402 46.3344 52.7067C46.2133 52.0204 46.136 51.1707 46.1066 50.4742C46.0601 49.3788 46.5466 44.7695 44.2632 46.8487C44.1414 46.9595 43.6808 47.4604 43.7171 47.5999C43.9142 47.8565 44.2132 47.3393 44.4069 47.1969C45.4757 46.4094 45.7692 47.5527 45.8356 48.4216C45.9335 49.7093 45.7822 51.0208 45.9054 52.3153C46.0724 54.0627 46.7026 55.386 47.222 57.0136C47.3198 57.3195 47.4313 58.0317 47.5449 58.2458C47.5826 58.3163 47.9261 58.4648 47.9555 58.4326H47.9548ZM37.3602 50.6418C37.4752 50.6227 37.4827 50.5084 37.5156 50.4222C37.753 49.7962 37.8365 49.3945 38.2197 48.8027C38.4633 48.4264 39.5191 47.2777 39.5896 47.0218C39.6368 46.8507 39.476 46.7933 39.3754 46.6783C38.57 47.9762 36.8251 48.8369 37.3595 50.6418H37.3602ZM37.5648 51.5306C37.6709 51.5135 37.6935 51.4033 37.7338 51.3239C38.1649 50.4817 38.234 49.5601 38.8061 48.7056C39.0743 48.3046 39.6642 47.7689 39.8346 47.3413C39.8722 47.2469 39.9002 47.0827 39.7853 47.0888C39.6642 47.0957 38.4092 48.7815 38.2792 48.9984C38.0424 49.3925 37.5593 50.5323 37.5087 50.9668C37.4841 51.1762 37.5635 51.328 37.5648 51.5292V51.5306ZM47.3396 58.159C47.0091 56.6052 46.2181 55.1513 45.9239 53.5948C45.605 51.9082 45.8069 50.4133 45.7015 48.7596C45.6495 47.9386 45.4825 46.4854 44.3993 47.3947C44.1017 47.6444 43.7664 47.9468 44.1605 48.2485C45.1486 47.0998 45.3724 48.4312 45.4278 49.3063C45.5366 51.0181 45.3436 52.4604 45.72 54.2085C45.9519 55.2867 46.4104 56.1926 46.7416 57.2189C46.8867 57.6691 46.732 58.0071 47.3396 58.159ZM10.0208 49.4075L12.2406 48.1829L11.7931 47.253L9.53568 48.3867L10.0201 49.4069L10.0208 49.4075ZM40.1616 47.3618C40.0829 47.3016 39.9735 47.4446 39.9269 47.5021C39.4938 48.0405 38.804 48.9772 38.531 49.5923C38.3757 49.9426 37.7612 51.4957 37.714 51.7871C37.6832 51.976 37.7544 52.1039 37.7701 52.2818C38.4024 51.5614 38.4845 50.4721 38.8731 49.5923C39.2071 48.8356 39.7572 48.3922 40.1083 47.7498C40.1555 47.6636 40.2595 47.4371 40.1616 47.3618ZM7.87427 47.5773C7.45891 47.6902 7.65667 48.0351 7.79078 48.3211C8.44495 49.7216 9.31329 51.0352 9.95445 52.4453C10.133 52.6752 10.5087 52.6102 10.3951 52.212C10.2815 51.8138 9.7827 50.9812 9.57263 50.572C9.17301 49.7921 8.55101 48.4114 8.0905 47.7491C8.03781 47.6731 7.98922 47.5678 7.87495 47.5773H7.87427ZM44.9296 47.994L44.7764 47.9345C43.9327 48.3094 44.4465 48.7097 44.6388 49.3439C45.1206 50.9312 44.8489 52.7115 45.1719 54.3467C45.3183 55.0876 45.6351 55.8847 45.9602 56.5655C46.1552 56.9746 46.3447 57.4926 46.7238 57.7491C46.4768 56.7858 46.0197 55.8854 45.7494 54.931C45.5154 54.1058 45.3327 53.1069 45.2861 52.2503C45.2424 51.4471 45.4216 48.4962 44.9296 47.9933V47.994ZM38.1786 53.5797C39.3337 51.9055 39.6019 49.816 40.9013 48.215L40.7419 48.046L40.1336 48.8711C39.2331 50.2518 39.0689 51.9705 38.0712 53.306L38.1786 53.5804V53.5797ZM12.4753 48.4552L10.2254 49.6224L10.6319 50.5734L12.8845 49.4089L12.476 48.4552H12.4753ZM38.4537 54.6737C38.5611 54.7544 39.8558 52.6314 39.9488 52.4446C40.5045 51.3226 40.7727 50.0493 41.4939 49.0018L41.3577 48.7288L40.6543 49.8009C39.9803 51.1974 39.7422 52.4248 38.8513 53.7384C38.6364 54.0552 38.2505 54.2735 38.4544 54.6737H38.4537ZM38.7253 55.2888C39.0784 54.4555 39.6553 53.7282 40.1055 52.9434C40.7576 51.8056 41.3174 50.6268 41.8607 49.4335L41.665 49.0702C40.9876 49.9166 40.7481 51.0167 40.3108 51.9862C39.8455 53.018 39.1708 53.9314 38.5598 54.8776L38.726 55.2888H38.7253ZM38.8636 55.9723L40.9937 52.5329L42.2302 50.1417C42.2918 49.9508 42.1022 49.7462 41.9729 49.6169C41.4987 50.611 41.0464 51.6346 40.5154 52.6013C40.2301 53.1199 38.7999 55.2395 38.7924 55.5946C38.7897 55.7164 38.8718 55.845 38.8636 55.9723ZM39.4096 57.0663C39.8619 55.6781 40.8281 54.4862 41.5411 53.2164C41.8388 52.6855 42.4724 51.6311 42.638 51.1016C42.7112 50.8662 42.7434 50.7397 42.5203 50.5741C42.0851 51.4088 41.6643 52.2599 41.1997 53.0802C40.6646 54.0237 39.9632 54.9953 39.4986 55.9586C39.4315 56.0975 39.216 56.5176 39.2064 56.6284C39.1995 56.7064 39.2639 57.2202 39.4103 57.0663H39.4096ZM42.896 51.1201C42.7147 51.0831 42.779 51.1673 42.727 51.2548C42.4656 51.6941 42.2685 52.2154 42.0201 52.6691C41.3673 53.8616 40.5003 55.0329 39.9085 56.2309C39.6491 56.7557 39.2755 57.3393 39.6163 57.8853L40.0617 56.6579C40.978 54.9029 42.0769 53.2499 42.9302 51.458L42.896 51.1201ZM40.0932 58.8425C40.1698 56.2713 42.1891 54.2735 43.1013 51.9678L42.9986 51.6674C42.0427 53.8308 40.3628 55.7335 39.8161 58.0563C39.8065 58.3115 39.8551 58.6899 40.0932 58.8431V58.8425ZM41.2551 61.5765C41.5466 60.2177 41.6219 58.8123 41.9592 57.4618C42.3089 56.0612 42.9466 54.6888 43.5679 53.3929L43.442 52.7614L41.7218 56.337C41.0772 57.7573 40.8274 59.4411 40.9787 60.9997C40.9992 61.209 41.0546 61.4622 41.2551 61.5771V61.5765ZM40.7775 60.62V58.8773C40.7775 58.6481 40.9951 57.8709 41.0703 57.5986C41.4316 56.2911 42.1351 55.115 42.6921 53.8896C42.6435 53.7945 42.5607 53.98 42.5415 54.0121C42.1782 54.6327 41.7512 55.4072 41.4351 56.0496C40.7953 57.3502 40.4641 58.5571 40.5797 60.0323L40.7775 60.6206V60.62Z" fill="#F7F3CF"/>
<path d="M13.6222 34.185C14.7656 34.0262 14.9654 35.8256 13.7932 35.9331C12.7381 36.0302 12.515 34.3382 13.6222 34.185Z" fill="#F7F3CF"/>
<path d="M58.8059 17.7852C59.731 17.5978 60.2819 18.7855 59.4731 19.3418C58.3625 20.106 57.5065 18.0486 58.8059 17.7852Z" fill="#F7F3CF"/>
<path d="M21.7537 15.0519C23.1086 14.7741 23.1784 16.7959 21.8748 16.6789C20.9203 16.5933 20.9141 15.2243 21.7537 15.0519Z" fill="#F7F3CF"/>
<path d="M36.6524 7.20007C37.2942 7.87193 36.4553 8.99605 35.6157 8.40697C34.6837 7.75357 35.8662 6.37631 36.6524 7.20007Z" fill="#F7F3CF"/>
<path d="M12.9383 28.1712C13.9928 28.0255 14.1734 29.5909 13.1881 29.7263C12.1268 29.8721 11.9174 28.3121 12.9383 28.1712Z" fill="#F7F3CF"/>
<path d="M53.7205 15.2181C53.0164 14.4805 54.1154 13.4139 54.827 14.0782C55.5982 14.798 54.4486 15.9809 53.7205 15.2181Z" fill="#F7F3CF"/>
<path d="M58.9955 25.7319C60.08 25.7319 60.0705 27.4711 58.7943 27.2645C57.9732 27.1318 58.0478 25.7319 58.9955 25.7319Z" fill="#F7F3CF"/>
<path d="M9.0381 31.1796C10.4498 30.8573 10.3553 33.059 8.9861 32.6376C8.37094 32.448 8.39694 31.326 9.0381 31.1796Z" fill="#F7F3CF"/>
<path d="M17.3745 16.8361C18.0355 17.4573 17.2459 18.5746 16.4439 18.0738C15.4989 17.484 16.5732 16.0835 17.3745 16.8361Z" fill="#F7F3CF"/>
<path d="M63.5849 19.2268C64.9301 19.1495 64.3649 21.4387 63.1647 20.5726C62.566 20.1408 62.9314 19.2644 63.5849 19.2268Z" fill="#F7F3CF"/>
<path d="M18.7465 33.7096C19.8488 33.4838 19.9905 35.0054 19.1249 35.1812C18.1101 35.3872 17.8501 33.8929 18.7465 33.7096Z" fill="#F7F3CF"/>
<path d="M44.5203 8.76496C45.3612 8.71433 45.5658 10.1696 44.6393 10.2551C43.563 10.355 43.4898 8.82722 44.5203 8.76496Z" fill="#F7F3CF"/>
<path d="M11.8424 38.9708C13.1035 38.7149 13.0412 40.7777 11.7199 40.3597C11.1451 40.1777 11.1622 39.109 11.8424 38.9708Z" fill="#F7F3CF"/>
<path d="M53.537 10.2763C54.2623 10.9653 53.1689 12.0668 52.4969 11.2821C51.9016 10.5869 52.9266 9.69613 53.537 10.2763Z" fill="#F7F3CF"/>
<path d="M19.4041 22.5087C20.0315 21.9114 21.0504 22.8371 20.4428 23.5131C19.7626 24.2705 18.6938 23.1847 19.4041 22.5087Z" fill="#F7F3CF"/>
<path d="M32.0722 8.43103C32.6764 9.03791 31.754 10.0033 31.1025 9.43405C30.3895 8.81076 31.4105 7.76601 32.0722 8.43103Z" fill="#F7F3CF"/>
<path d="M23.6694 11.0869C24.4228 11.013 24.6513 12.2514 23.8535 12.3684C22.8996 12.508 22.864 11.1656 23.6694 11.0869Z" fill="#F7F3CF"/>
<path d="M16.6678 39.1386C16.2264 38.7356 16.6083 37.8078 17.3808 38.1191C18.206 38.4523 17.4068 39.8132 16.6678 39.1386Z" fill="#F7F3CF"/>
<path d="M15.7408 25.2996C16.5325 25.1703 16.6604 26.4224 15.9221 26.5161C15.1242 26.6174 14.9696 25.4255 15.7408 25.2996Z" fill="#F7F3CF"/>
<path d="M66.4623 24.8891C67.2081 24.7345 67.3258 25.901 66.645 25.9701C65.9641 26.0392 65.8362 25.0184 66.4623 24.8891Z" fill="#F7F3CF"/>
<path d="M11.9782 22.9096C13.0114 22.6756 12.8411 24.165 11.9775 23.9057C11.5669 23.7826 11.5074 23.0163 11.9782 22.9096Z" fill="#F7F3CF"/>
<path d="M62.3609 23.5241C63.3195 23.3127 63.2593 24.8193 62.3068 24.5052C61.9161 24.3759 61.9291 23.6192 62.3609 23.5241Z" fill="#F7F3CF"/>
<path d="M15.9403 21.6439C15.4818 22.1441 14.7326 21.4455 15.1404 20.9454C15.5482 20.4453 16.4692 21.0665 15.9403 21.6439Z" fill="#F7F3CF"/>
<path d="M56.6844 21.8848C57.5247 21.633 57.6219 22.9179 56.8828 22.8926C56.2629 22.8714 56.1931 22.0319 56.6844 21.8848Z" fill="#F7F3CF"/>
<path d="M59.0098 14.1001C59.6503 14.6166 58.4638 15.6094 58.1839 14.6111C58.0518 14.1391 58.6629 13.8202 59.0098 14.1001Z" fill="#F7F3CF"/>
<path d="M41.7123 6.71638C42.3076 6.69653 42.3924 7.63113 41.8341 7.72486C41.0861 7.85007 41.0574 6.73827 41.7123 6.71638Z" fill="#F7F3CF"/>
<path d="M33.7857 10.9494C34.5835 10.7694 34.6875 12.0598 33.7733 11.8915C33.3347 11.8108 33.345 11.0486 33.7857 10.9494Z" fill="#F7F3CF"/>
<path d="M48.246 9.34641C47.8149 8.88869 48.5765 8.17919 49.0117 8.68275C49.4182 9.15347 48.6737 9.8007 48.246 9.34641Z" fill="#F7F3CF"/>
<path d="M8.96565 42.2565C9.58628 42.2237 9.59107 43.111 9.08813 43.1938C8.34912 43.3149 8.3368 42.29 8.96565 42.2565Z" fill="#F7F3CF"/>
<path d="M29.2048 12.0782C28.7237 12.5551 28.0654 11.7922 28.5424 11.3817C29.0214 10.9698 29.6071 11.6793 29.2048 12.0782Z" fill="#F7F3CF"/>
<path d="M54.057 18.2654C54.5503 17.742 55.2784 18.7163 54.5846 19.0331C54.0912 19.2588 53.7778 18.561 54.057 18.2654Z" fill="#F7F3CF"/>
<path d="M8.21836 37.7373C8.96969 37.5197 9.01349 38.8669 8.16499 38.5836C7.74485 38.4434 7.89333 37.8317 8.21836 37.7373Z" fill="#F7F3CF"/>
<path d="M50.1237 12.5218C50.8997 12.3474 50.8709 13.5645 50.0703 13.2977C49.6933 13.1718 49.7234 12.6121 50.1237 12.5218Z" fill="#F7F3CF"/>
<path d="M39.1182 9.51279C39.5281 9.42658 39.8216 9.88499 39.5486 10.2202C39.0552 10.8251 38.4065 9.66263 39.1182 9.51279Z" fill="#F7F3CF"/>
<path d="M20.7981 19.1486C21.1779 19.0686 21.5002 19.4866 21.2587 19.8178C20.7735 20.4821 20.0619 19.3033 20.7981 19.1486Z" fill="#F7F3CF"/>
<path d="M58.5336 29.8084C59.1577 29.6975 59.1515 30.615 58.6445 30.6684C58.1073 30.7252 58.0006 29.9028 58.5336 29.8084Z" fill="#F7F3CF"/>
<path d="M26.6423 9.03844C27.0193 8.66146 27.7132 9.35522 27.2123 9.71031C26.7114 10.0654 26.3268 9.35385 26.6423 9.03844Z" fill="#F7F3CF"/>
<path d="M16.0473 30.9762C16.4147 30.6088 17.0894 31.2225 16.644 31.6064C16.1766 32.0087 15.7298 31.2937 16.0473 30.9762Z" fill="#F7F3CF"/>
<path d="M63.1135 27.2796C63.6677 27.179 63.7888 27.9466 63.3557 28.0753C62.7405 28.2579 62.5955 27.374 63.1135 27.2796Z" fill="#F7F3CF"/>
<path d="M18.713 27.868C18.4551 27.6108 18.7548 26.9752 19.1729 27.1661C19.8373 27.4698 19.1393 28.2936 18.713 27.868Z" fill="#F7F3CF"/>
<path d="M19.5676 13.2701C20.2786 13.1408 20.167 14.3601 19.465 14.0289C19.1242 13.8681 19.2049 13.3365 19.5676 13.2701Z" fill="#F7F3CF"/>
<path d="M9.65403 35.0054C10.2617 34.8255 10.3965 35.6451 9.8812 35.7827C9.40153 35.9106 9.19967 35.1402 9.65403 35.0054Z" fill="#F7F3CF"/>
<path d="M9.65407 26.7364C10.0345 26.6235 10.3637 26.9978 10.157 27.3077C9.72318 27.959 9.00948 26.928 9.65407 26.7364Z" fill="#F7F3CF"/>
<path d="M40.093 61.7125C39.9527 61.7419 39.9342 61.6427 39.8747 61.5552C39.4991 60.9982 39.07 59.8851 38.7819 59.2303C37.9848 57.4186 37.3361 55.5432 36.5704 53.7192C35.8574 52.0203 35.0184 50.3763 34.3506 48.6603C34.4922 48.6302 34.5093 48.7287 34.5689 48.817C35.0971 49.6018 35.7328 51.2417 36.14 52.1668C36.9782 54.0729 37.6857 56.031 38.4884 57.9515C39.0132 59.2077 39.6462 60.4331 40.0923 61.7118L40.093 61.7125Z" fill="#F7F3CF"/>
<path d="M19.9071 55.3722C21.2866 55.0547 21.4515 57.1647 20.0994 57.0676C19.099 56.9957 19.1092 55.5555 19.9071 55.3722Z" fill="#F7F3CF"/>
<path d="M62.6325 51.2034C64.04 50.8791 64.1139 53.0418 62.7625 52.8926C61.8394 52.7907 61.81 51.3936 62.6325 51.2034Z" fill="#F7F3CF"/>
<path d="M41.1695 66.2392C42.538 66.0004 42.5141 68.1556 41.1845 67.9031C40.271 67.7301 40.3011 66.3911 41.1695 66.2392Z" fill="#F7F3CF"/>
<path d="M62.2922 41.9094C63.4219 41.6782 63.6128 43.325 62.6706 43.5186C61.5805 43.7423 61.3287 42.1065 62.2922 41.9094Z" fill="#F7F3CF"/>
<path d="M67.9664 42.5245C69.2091 42.2699 69.2789 44.2623 68.0239 44.0769C67.1768 43.9517 67.1542 42.6907 67.9664 42.5245Z" fill="#F7F3CF"/>
<path d="M26.6748 65.2129C27.8079 64.9509 27.981 66.4554 27.1756 66.6689C26.0172 66.9754 25.8174 65.4113 26.6748 65.2129Z" fill="#F7F3CF"/>
<path d="M36.18 67.3994C37.255 67.1955 37.4041 68.7822 36.4202 68.8745C35.5491 68.9559 35.2815 67.5698 36.18 67.3994Z" fill="#F7F3CF"/>
<path d="M59.5607 47.1689C60.4598 47.0725 60.6268 48.5982 59.6777 48.6646C58.6684 48.735 58.6027 47.2716 59.5607 47.1689Z" fill="#F7F3CF"/>
<path d="M56.7557 61.5908C57.8129 61.3855 57.9237 62.9975 56.935 63.0577C56.0947 63.109 55.862 61.7639 56.7557 61.5908Z" fill="#F7F3CF"/>
<path d="M18.7474 59.814C19.5048 59.6669 19.9366 60.7472 19.2674 61.1556C18.2376 61.7851 17.6614 60.0247 18.7474 59.814Z" fill="#F7F3CF"/>
<path d="M58.6535 56.417C59.8325 56.417 59.3863 58.3088 58.3271 57.8011C57.6544 57.4788 57.8707 56.417 58.6535 56.417Z" fill="#F7F3CF"/>
<path d="M27.2219 53.0481C28.1867 52.8291 28.4611 54.2467 27.6694 54.452C26.6239 54.7223 26.3755 53.2403 27.2219 53.0481Z" fill="#F7F3CF"/>
<path d="M14.4796 56.2932C13.8084 55.6699 14.8854 54.5253 15.5211 55.3545C16.0706 56.0709 15.038 56.8118 14.4796 56.2932Z" fill="#F7F3CF"/>
<path d="M63.9352 46.35C64.8262 46.222 64.9021 47.4734 64.2439 47.6205C63.2859 47.8354 63.0881 46.4711 63.9352 46.35Z" fill="#F7F3CF"/>
<path d="M30.8477 60.8368C31.5039 60.7287 31.8371 61.6633 31.2316 61.9773C30.3523 62.4343 30.0156 60.9729 30.8477 60.8368Z" fill="#F7F3CF"/>
<path d="M23.3271 61.3833C23.9902 61.2472 24.2947 62.2427 23.6905 62.4336C22.7626 62.7264 22.7195 61.5079 23.3271 61.3833Z" fill="#F7F3CF"/>
<path d="M67.4183 49.8418C67.8425 50.1826 67.4402 51.1083 66.7977 50.7689C66.0121 50.3543 66.8332 49.3704 67.4183 49.8418Z" fill="#F7F3CF"/>
<path d="M62.7699 55.9872C63.6054 55.7956 63.7348 56.9355 63.0115 57.0545C62.408 57.1538 62.0918 56.1425 62.7699 55.9872Z" fill="#F7F3CF"/>
<path d="M21.7924 50.9347C22.3199 50.4065 23.1171 51.2419 22.5608 51.7373C22.0045 52.2326 21.3353 51.3924 21.7924 50.9347Z" fill="#F7F3CF"/>
<path d="M69.3342 38.421C70.0479 38.2752 70.2326 39.3138 69.6448 39.489C68.901 39.7113 68.6691 38.5564 69.3342 38.421Z" fill="#F7F3CF"/>
<path d="M37.8178 63.1616C38.5 62.9584 38.7976 63.9504 38.1818 64.1441C37.4585 64.3719 37.2792 63.3217 37.8178 63.1616Z" fill="#F7F3CF"/>
<path d="M58.9421 39.5162C59.6544 39.3588 59.8296 40.3817 59.1844 40.5158C58.4973 40.6581 58.3448 39.6482 58.9421 39.5162Z" fill="#F7F3CF"/>
<path d="M49.9852 67.4345C49.5335 67.9654 48.7384 67.115 49.2557 66.6702C49.7463 66.2488 50.3896 66.959 49.9852 67.4345Z" fill="#F7F3CF"/>
<path d="M26.6746 59.4042C27.5539 59.1401 27.5148 60.5735 26.6917 60.3169C26.2708 60.1856 26.2777 59.5233 26.6746 59.4042Z" fill="#F7F3CF"/>
<path d="M33.9907 64.3206C34.523 64.2365 34.7269 65.2039 34.1056 65.2662C33.4556 65.3312 33.4391 64.4075 33.9907 64.3206Z" fill="#F7F3CF"/>
<path d="M31.1858 66.647C32.0295 66.3884 32.0295 67.767 31.1858 67.5084C30.8587 67.4085 30.856 66.7482 31.1858 66.647Z" fill="#F7F3CF"/>
<path d="M31.1178 56.7043C30.7544 57.1545 30.0188 56.512 30.452 56.0721C30.8769 55.6411 31.464 56.2753 31.1178 56.7043Z" fill="#F7F3CF"/>
<path d="M45.1315 67.8771C45.8561 67.6548 45.982 68.6462 45.3765 68.7413C44.9084 68.8152 44.6901 68.0119 45.1315 67.8771Z" fill="#F7F3CF"/>
<path d="M25.9422 46.952C25.9819 47.7655 25.9121 48.5695 25.8745 49.3782C25.8697 49.4835 25.9395 49.6484 25.7732 49.6163C25.6521 49.5369 25.676 49.4329 25.6658 49.3132C25.6336 48.9198 25.648 48.3437 25.6699 47.9434C25.6788 47.7847 25.7226 47.1505 25.7492 47.0663C25.778 46.9767 25.8485 46.9336 25.9422 46.9527V46.952Z" fill="#F7F3CF"/>
<path d="M64.6846 39.4458C65.2915 39.2706 65.4667 40.2093 64.9261 40.312C64.3855 40.4146 64.196 39.5867 64.6846 39.4458Z" fill="#F7F3CF"/>
<path d="M23.9396 56.1221C24.7258 55.8778 24.8032 57.0854 23.9971 56.9281C23.6262 56.8555 23.6379 56.2158 23.9396 56.1221Z" fill="#F7F3CF"/>
<path d="M53.5432 65.3853C53.1682 65.7411 52.4476 65.111 53.017 64.6868C53.4453 64.3673 53.9093 65.0378 53.5432 65.3853Z" fill="#F7F3CF"/>
<path d="M45.8171 65.0726C46.3337 64.9932 46.5472 65.8922 45.9314 65.9504C45.3812 66.0017 45.323 65.1492 45.8171 65.0726Z" fill="#F7F3CF"/>
<path d="M17.9787 52.5178C18.7232 52.5178 18.3236 53.7487 17.7345 53.278C17.3882 53.0015 17.5798 52.5178 17.9787 52.5178Z" fill="#F7F3CF"/>
<path d="M58.6534 43.7014C59.4286 43.7014 58.9572 44.989 58.3769 44.426C58.1087 44.1646 58.2722 43.7014 58.6534 43.7014Z" fill="#F7F3CF"/>
<path d="M27.1051 44.8672C27.1085 44.8556 27.2638 44.6982 27.2761 44.6975C27.361 44.768 27.4219 44.8213 27.4451 44.937C27.4766 45.0978 27.3781 46.5605 27.3097 46.6091C27.246 46.6385 27.1051 46.5482 27.1051 46.5072C27.1051 46.1562 27.0346 45.1142 27.1051 44.8672Z" fill="#F7F3CF"/>
<path d="M60.5842 59.8105C61.1111 59.7148 61.2623 60.4769 60.8264 60.6062C60.2112 60.7889 60.0662 59.905 60.5842 59.8105Z" fill="#F7F3CF"/>
<path d="M59.5588 53.2896C59.1975 53.6324 58.5981 53.0467 59.0319 52.6615C59.3987 52.3365 59.9365 52.9311 59.5588 53.2896Z" fill="#F7F3CF"/>
<path d="M68.5668 46.6365C69.0554 46.6598 69.0958 47.5417 68.432 47.4302C67.9694 47.3522 68.0974 46.6139 68.5668 46.6365Z" fill="#F7F3CF"/>
<path d="M54.5169 50.6417L54.3117 50.6082C54.2562 50.5685 54.2494 50.5487 54.2542 50.4844C54.2699 50.2771 54.634 49.2186 54.7387 48.9826C54.7797 48.8895 54.8037 48.7917 54.894 48.7288C55.0172 48.8136 55.0048 48.8957 54.9932 49.0284C54.9528 49.4916 54.5197 50.1279 54.5169 50.6411V50.6417Z" fill="#F7F3CF"/>
<path d="M65.9857 54.5206C65.6546 54.8538 65.025 54.2462 65.4842 53.9171C65.9385 53.5921 66.2766 54.2277 65.9857 54.5206Z" fill="#F7F3CF"/>
<path d="M69.3361 30.8092C69.3183 30.84 69.0918 30.9358 69.0781 31.0658C68.5964 31.0158 69.085 30.7388 69.1822 30.4815C69.3259 30.4446 69.4039 30.6922 69.3361 30.8092Z" fill="#F7F3CF"/>
<path d="M67.8478 31.5057C67.8375 31.3791 67.8396 31.2443 67.9443 31.1588C68.2898 30.8762 68.478 31.6466 67.8478 31.5057Z" fill="#F7F3CF"/>
<path d="M70.0424 30.1471C70.273 30.0027 70.5275 30.3688 70.3127 30.5193C70.0047 30.7355 69.8761 30.2504 70.0424 30.1471Z" fill="#F7F3CF"/>
<path d="M68.5063 30.212C68.8177 30.1628 68.7465 30.7819 68.4304 30.6855C68.2401 30.6273 68.3339 30.2394 68.5063 30.212Z" fill="#F7F3CF"/>
<path d="M70.7011 29.8508C70.411 30.1491 70.1715 29.4615 70.5601 29.471C70.7606 29.4758 70.8414 29.7071 70.7011 29.8508Z" fill="#F7F3CF"/>
<path d="M66.0473 31.8582C66.3203 31.7884 66.3559 32.1907 66.1656 32.2523C65.8146 32.3659 65.7742 31.928 66.0473 31.8582Z" fill="#F7F3CF"/>
<path d="M67.575 30.8914L67.5654 31.2225C67.2958 31.3826 67.0789 31.1869 67.2438 30.9009L67.575 30.8914Z" fill="#F7F3CF"/>
<path d="M66.8974 31.9102C66.7551 31.8082 66.8823 31.4388 67.128 31.5065C67.3935 31.5804 67.1567 32.0956 66.8974 31.9102Z" fill="#F7F3CF"/>
<path d="M66.3897 31.243C66.7572 31.1479 66.6197 31.7261 66.3111 31.6426C66.1331 31.594 66.2077 31.2902 66.3897 31.243Z" fill="#F7F3CF"/>
<path d="M69.6934 29.8665C69.809 30.5233 69.148 30.2592 69.3813 29.9294L69.6934 29.8665Z" fill="#F7F3CF"/>
<path d="M65.7744 30.9702C66.0898 30.8853 66.031 31.3328 65.8223 31.3649C65.6369 31.3937 65.4815 31.0488 65.7744 30.9702Z" fill="#F7F3CF"/>
<path d="M65.6533 31.6501C65.8668 31.9895 65.1764 32.1564 65.3222 31.6823C65.3673 31.5345 65.6219 31.6002 65.6533 31.6501Z" fill="#F7F3CF"/>
<path d="M65.3169 32.2597C65.3416 32.2966 65.3238 32.4855 65.2889 32.5354L64.9775 32.5997L64.9837 32.2651C65.0131 32.2125 65.2916 32.2214 65.3169 32.2597Z" fill="#F7F3CF"/>
<path d="M66.8894 30.6197C66.9968 30.6929 66.8935 31.0918 66.6848 30.996C66.3639 30.8489 66.6752 30.4726 66.8894 30.6197Z" fill="#F7F3CF"/>
</svg>
