<svg width="77" height="77" viewBox="0 0 77 77" fill="none" xmlns="http://www.w3.org/2000/svg">
<circle cx="38.5" cy="38.5" r="38.5" fill="#4B5A2A"/>
<path d="M40.0569 72.9993H37.0924L33.5646 72.6526C18.2838 70.48 6.20703 58.2305 4.28934 42.9012L4.01009 39.6425C4.0337 38.8365 3.97839 38.0216 4.01009 37.2169C4.83639 16.1912 23.9377 0.842274 44.7186 4.55556C65.832 8.32819 78.3189 30.4615 70.8316 50.6441C66.0694 63.4804 53.7654 72.4078 40.0569 73V72.9993ZM36.5392 5.96869C22.0139 6.68234 9.5102 17.5638 6.59151 31.7458C2.72039 50.5544 15.5101 68.4807 34.5076 70.8348C51.0369 72.8826 66.5841 62.105 70.2772 45.9109C75.1891 24.3705 58.4533 4.89349 36.5392 5.96869Z" fill="#F7F3CF"/>
<path d="M53.0607 33.7127C53.1497 34.4317 53.2482 35.1562 53.0607 35.8685L57.5086 34.4216C57.607 34.3387 57.5693 33.9454 57.6394 33.7437C57.9052 32.9721 59.8458 32.7353 60.5399 32.4318L60.4043 32.0277C59.5261 32.3441 58.9831 31.0874 59.4613 30.4439C59.7028 30.1195 61.2427 29.6048 61.6515 29.5974C61.9186 29.592 62.1399 29.6783 62.2923 29.905C62.4279 30.1067 62.4508 30.5188 62.5257 30.6146C62.5911 30.6982 62.7409 30.6699 62.8279 30.7164C63.0721 30.8459 63.1024 31.7856 63.2731 31.822C63.5463 31.7053 63.9233 31.6527 64.1783 31.5232C64.7847 31.2163 64.7064 30.1653 65.5995 29.71C67.1914 28.8979 68.9337 30.5242 69.385 31.9758C69.9158 33.6837 69.2211 36.4729 66.9904 36.1228C66.4859 36.0439 65.9294 35.4732 65.6258 35.4604C65.3054 35.4476 64.8076 35.7329 64.4758 35.7983C64.3975 35.8961 64.7557 36.6786 64.7651 36.8567C64.7759 37.0557 64.5978 37.1784 64.5837 37.3221C64.5655 37.5029 64.7415 37.7518 64.7193 38.058C64.693 38.4169 64.5095 38.6057 64.1979 38.7521C63.9382 38.8735 62.7861 39.229 62.525 39.2405C61.4633 39.2883 61.0606 37.7943 62.0171 37.3066L61.955 37.0138C60.7922 37.2445 59.2165 38.487 58.3537 37.0968L53.9376 38.3622C54.9379 40.8047 55.6212 43.3915 55.9504 46.0188C56.5231 50.5901 56.1035 59.2247 52.2182 62.3505C48.8699 65.0439 43.9033 63.4055 40.3006 62.0847C40.2156 62.1171 40.2143 62.1798 40.1968 62.254C40.1064 62.6304 40.0713 63.8129 39.8878 64.0341C39.7044 64.2554 38.7728 64.484 38.474 64.5063C37.9708 64.5434 36.4181 64.3228 36.2009 63.8169C36.1159 62.4921 35.9816 61.166 35.6154 59.8878L33.3206 58.5778C33.328 59.2854 33.3105 59.995 33.3172 60.7033C33.3226 61.2524 33.4778 61.4878 33.2194 62.082C32.1651 64.5029 26.4175 64.1616 26.176 61.3765C26.1335 60.8854 26.2428 60.4139 26.2489 59.962C26.2799 57.4453 26.2428 54.9239 26.1753 52.4147C24.9956 50.7243 23.8232 49.0265 22.945 47.1513L22.7926 47.1318L20.9896 47.8279C20.8654 48.122 20.8735 48.5051 20.6219 48.7405C20.3602 48.9854 19.6978 49.0535 19.5434 49.2113C19.3059 49.4535 19.5596 49.8447 19.5771 50.1226C19.6499 51.2774 18.1093 51.643 17.5643 50.7169C17.428 50.4855 17.3882 50.1422 17.2769 49.8926C16.6942 49.5169 15.9232 51.3442 15.6965 51.6983C14.9714 52.8322 13.6466 54.1428 12.5923 52.5192C9.27568 52.9577 7.60757 49.1581 10.1782 46.9206C10.2713 46.8397 10.5492 46.7088 10.5816 46.6529C10.6328 46.5638 10.4102 46.0626 10.7502 45.606C11.7289 44.2907 14.0399 45.7314 15.1953 45.8812C15.4328 45.9122 15.6844 45.861 15.855 45.6748C15.3073 44.6954 15.6169 43.3524 16.9673 43.633C17.6169 43.7679 17.6823 44.7561 18.0027 44.8168C18.3872 44.8896 19.4988 43.9399 19.9251 45.0232L21.9744 44.3615C22.0459 44.2603 21.6695 43.2472 21.6182 43.0252C20.8148 39.5602 21.198 35.9616 22.6556 32.7326L19.2365 30.1734C18.2105 30.3023 17.5447 29.3053 16.6368 28.8696C14.8001 27.9873 12.1033 27.7546 10.7529 25.9941C10.3704 25.4956 10.1202 24.6423 10.6868 24.1789C11.563 23.4625 12.0574 24.7866 12.6126 25.0774C12.7826 25.1664 13.0719 25.1435 13.1785 25.2527C13.4119 25.4942 13.1124 25.965 13.9239 25.6595L15.8719 26.3657L15.0679 24.392C14.4385 24.1931 14.7077 23.8194 14.5168 23.443C14.2362 22.8912 13.1745 22.5661 13.0584 22.0042C12.8568 21.0214 13.8611 20.7287 14.6375 21.0309C16.7245 21.843 17.2061 25.1549 18.4655 26.6362C19.0685 27.3458 20.1882 27.6284 20.4499 28.6274L23.7538 30.9485L24.9679 29.1974C24.2192 28.8925 22.6064 28.8116 22.0074 28.3509C21.1312 27.6777 21.8449 25.3013 22.7251 25.101C23.3578 24.9573 26.2866 25.9118 26.4478 25.7573C26.9389 22.8224 26.7244 19.8585 26.5854 16.8987C26.7736 15.2515 29.8704 15.0067 31.125 15.122C31.8953 15.1928 33.1614 15.5571 33.3071 16.4434C33.4623 17.385 33.3962 18.6134 33.4589 19.5941C33.4731 19.8201 33.55 20.0703 33.5587 20.3024C33.9614 19.6676 34.6225 19.1577 35.0737 18.583C35.4764 18.0697 35.5466 17.7048 35.4622 17.0518C35.3152 15.9092 34.1698 14.9068 35.3442 13.9342C36.1604 13.2583 37.8649 12.7558 38.4349 13.9449C38.5064 14.094 39.332 16.6775 39.5222 16.5291C39.9236 15.5787 39.8204 14.4448 40.0821 13.4829C40.4045 12.2998 42.2291 12.3706 43.1155 12.8347C44.3519 13.4809 43.4048 14.807 43.4986 15.8545L44.5826 13.7385C45.4911 12.9554 47.881 14.1001 47.7414 15.2758C47.653 16.0211 46.7512 16.8016 46.9501 17.7601C47.025 18.1196 48.0712 19.0235 48.3775 19.4322C49.0898 20.384 49.5511 21.5604 49.7663 22.7266L52.4152 22.4636C54.6094 22.5728 54.9116 26.9296 52.9575 27.4382C52.2756 27.6156 51.2901 27.6149 50.5508 27.7262C50.3822 27.7519 49.2253 27.9158 49.2274 28.0183C49.4891 28.1674 49.8338 28.4642 50.1319 28.4588L53.8486 27.6554C54.9575 27.4227 55.373 28.9674 55.1929 29.8085C55.0128 30.6497 54.1426 30.5701 53.4715 30.6814C53.4425 30.7495 53.6287 30.8156 53.6394 30.8156H54.9872C55.1072 30.8156 55.4641 31.221 55.5275 31.3539C55.8013 31.9286 55.8047 33.2142 55.1808 33.5697C55.1335 33.5967 54.8098 33.7134 54.7855 33.7134H53.0675L53.0607 33.7127ZM42.2467 13.4289C41.9849 13.3851 41.5283 13.4289 41.2362 13.4289C41.2099 13.4289 41.1344 13.5166 41.0683 13.4971C40.8774 13.7595 42.0558 13.9679 42.1799 13.9672C42.3789 13.9665 42.6183 13.8586 42.82 13.833C42.9212 13.6954 42.3397 13.4444 42.2473 13.4296L42.2467 13.4289ZM37.4966 14.1709C37.1715 14.0731 36.8511 14.1399 36.5347 14.2525C36.4181 14.2937 35.6228 14.6795 35.7455 14.8434C36.3391 14.9642 37.1358 14.6802 37.4966 14.1709ZM41.1971 14.3119L40.9731 14.2417L40.8753 14.349C40.7823 15.2266 40.6298 17.9442 39.1776 17.5085C38.4808 17.2994 37.9634 15.4957 37.7651 14.8441C37.5567 14.8481 37.4764 15.0094 37.5074 15.1975C37.5459 15.4309 37.8622 16.1614 37.9776 16.4184C38.217 16.9533 38.5934 17.8194 39.2302 17.928C40.9354 18.2174 41.0372 15.4289 41.1964 14.3126L41.1971 14.3119ZM46.7053 14.9331C46.4112 14.5864 45.6962 14.3288 45.2456 14.3726C45.1525 14.8373 46.6297 15.3318 46.7943 15.1807C46.8065 15.0862 46.7633 15.0019 46.7053 14.9331ZM37.9688 17.7419C38.5293 18.4616 39.3017 18.8731 40.2103 18.4683C41.5768 17.8599 41.4608 15.835 41.7374 14.6013L41.6315 14.4475L41.4075 14.4427C41.2288 15.5362 41.1418 18.0211 39.6801 18.2073C38.1968 18.3962 37.668 16.2451 37.2936 15.1807L36.957 15.2488C37.4501 16.5095 37.7853 17.6825 37.4103 19.0363C37.0629 20.2896 36.1401 20.927 35.4595 21.9374C34.0019 24.102 33.8758 26.6497 34.4977 29.1299C34.6899 29.8969 34.9456 30.8493 35.5857 31.3478C35.699 31.3674 35.8427 31.1792 35.8022 31.0665C33.9628 27.2925 34.4343 22.7644 38.0147 20.2464C41.5296 17.7749 45.9862 18.7348 47.3009 23.0005L47.6031 22.9958C47.1619 20.6262 45.2787 18.954 42.9549 18.4812C42.938 18.3665 43.1107 18.415 43.1903 18.4137C43.8129 18.4049 44.3734 18.6673 44.9077 18.9533C44.2912 17.7432 45.1667 16.525 45.5148 15.3817L45.3117 15.3439C44.8557 16.0859 44.246 18.7631 42.9205 17.8086C42.1354 17.2434 42.5913 15.29 42.7539 14.4731L42.4787 14.4677C42.3141 15.698 41.7023 17.4167 42.6858 18.4137H41.2713C41.2591 18.3152 41.448 18.293 41.5128 18.2855C41.7448 18.2606 41.9822 18.2903 42.2143 18.2788C41.6463 17.1429 42.0463 15.7075 42.2143 14.5062H41.9451C41.7994 15.9179 41.7677 18.2694 40.1124 18.7712C39.6254 18.9189 39.2032 18.9048 38.7324 18.6963C38.4241 18.5594 38.331 18.3118 38.0376 18.2127C38.1172 18.6592 37.9641 19.0754 37.8359 19.4923C38.1941 19.3621 38.47 19.0383 38.8801 19.0201C39.0136 19.014 38.9867 19.0322 38.9806 19.155C38.4005 19.3749 37.8649 19.7655 37.3975 20.1668L37.8575 18.7402L37.9708 17.7412L37.9688 17.7419ZM43.0217 17.5402C43.6294 18.2734 44.2311 17.2103 44.4942 16.6876C44.5866 16.5041 45.135 15.3446 45.1492 15.2515C45.1613 15.1726 45.0628 15.0687 45.0082 15.0471C44.8854 14.9986 44.9097 15.1186 44.876 15.1793C44.4193 16.0016 44.1758 17.5436 43.0217 17.5402ZM36.7445 15.3952C36.6825 15.3581 36.445 15.3325 36.4889 15.4815C36.5658 15.7426 36.7553 16.04 36.841 16.3429C37.6882 19.3392 35.7961 19.9611 34.5651 22.1209C33.4892 24.0076 33.2208 26.3522 33.6768 28.4703C33.8157 29.1144 34.014 29.4928 34.4322 30.0062L34.0134 28.1337C33.6822 26.2409 33.9243 24.1614 34.8343 22.4575C35.9169 20.4312 37.5405 19.982 37.2936 17.2373C37.272 16.9985 36.8666 15.4687 36.7445 15.3952ZM33.386 28.6584C32.9024 25.9711 33.268 23.333 34.9085 21.1172C35.7746 19.9469 36.8821 19.2245 36.8255 17.5699C36.8127 17.2022 36.4869 15.5901 36.1745 15.4586C36.0923 15.4242 35.9978 15.408 36.0147 15.5496C36.045 15.8107 36.2514 16.1797 36.3175 16.4609C36.868 18.7941 35.8009 19.1031 34.6002 20.6747C33.1763 22.5378 32.6205 24.7327 32.7803 27.0747C32.8167 27.6123 32.8707 28.3738 33.3854 28.6591L33.386 28.6584ZM46.0537 15.6535L45.7225 15.5894C45.3691 16.4967 44.8018 17.4761 45.0062 18.4872C45.1336 19.1186 46.0281 19.6535 46.4604 20.1324C47.1653 20.9142 47.622 21.9078 47.881 22.9229L48.1427 22.9303C47.9518 21.8727 47.4587 20.9014 46.7937 20.069C46.393 19.5678 45.6301 18.9931 45.4291 18.4016C45.1067 17.4511 45.6314 16.4818 46.0544 15.6542L46.0537 15.6535ZM46.4577 15.7203C46.2574 15.5227 45.8959 16.44 45.85 16.5608C45.0109 18.7678 46.3788 18.9209 47.4034 20.469C47.8823 21.1921 48.2054 22.0157 48.4199 22.8555L48.6817 22.8636C48.567 21.7857 47.9977 20.5857 47.3016 19.7628C46.8679 19.2501 46.2122 18.844 46.0058 18.1614C45.7252 17.2346 46.1846 16.5635 46.4584 15.721L46.4577 15.7203ZM32.2886 16.3456C32.236 16.2822 32.0444 16.21 31.9567 16.1729C30.9206 15.7324 29.1777 15.8701 28.1524 16.3152C27.7342 16.4967 27.1608 16.8279 27.6923 17.2717C28.4863 17.9341 31.094 17.6839 31.9506 17.149C32.2191 16.9817 32.5564 16.6714 32.2879 16.3463L32.2886 16.3456ZM31.4326 27.3782C31.0002 25.8976 30.9867 24.4258 31.4987 22.9634C31.7611 22.2133 32.2157 21.5415 32.5071 20.8042L32.3756 17.6076L31.9979 17.9071C32.0613 19.2373 32.4006 20.4076 31.8292 21.6764C31.0684 23.3647 30.5618 24.0386 30.835 26.0568C30.8876 26.4446 30.9699 27.3539 31.4326 27.3789V27.3782ZM30.8262 27.1752C30.4721 26.0817 30.4323 24.6463 30.7244 23.5361C31.0744 22.2052 32.1321 21.2042 31.9068 19.7263L31.7685 17.9436L31.3618 18.1223C31.3496 19.0039 31.5345 19.9091 31.4151 20.7901C31.3341 21.3904 30.8471 22.0406 30.6225 22.6255C30.2083 23.702 30.0694 24.8413 30.1537 25.9954C30.1658 26.1661 30.2576 26.873 30.2987 26.9957C30.3581 27.1718 30.6677 27.1893 30.8262 27.1752ZM27.4394 27.5623C27.8259 27.1758 28.1065 24.4784 28.1342 23.8437C28.2016 22.3145 28.1699 20.5122 28.0633 18.9897C28.0532 18.8407 28.0107 18.2667 27.9858 18.1911C27.952 18.0899 27.7915 18.0245 27.693 18.011C27.5338 17.9894 27.5905 18.1264 27.5898 18.2498C27.5723 20.1331 27.807 21.897 27.6593 23.8403C27.5568 25.188 27.322 26.5276 26.918 27.816C27.03 27.787 27.3767 27.6251 27.4394 27.5623ZM30.0856 27.1084C29.6768 25.2683 29.8852 23.6035 30.6326 21.8943C30.7534 21.6184 31.011 21.3202 31.1102 21.0241C31.4036 20.1499 31.1082 19.211 31.1635 18.3145L31.065 18.1628L30.551 18.324C30.6158 19.3648 31.0495 20.5978 30.3878 21.5159L30.3601 21.2184C30.7277 20.2687 30.3628 19.2643 30.354 18.2815L29.7483 18.3496L30.0842 21.416L30.0168 22.931C29.9035 22.931 29.8886 22.7071 29.8825 22.6282C29.8637 22.3833 29.9014 22.1324 29.8825 21.8875C29.7895 20.7084 29.6222 19.5348 29.6141 18.3489H29.2094L29.4819 22.0191L29.3443 27.1097H30.0856V27.1084ZM28.5261 18.2909L28.1989 18.214C28.2468 18.5803 28.3217 19.0268 28.3365 19.3904C28.4134 21.2804 28.4701 23.3735 28.2583 25.2474C28.174 25.9934 27.9662 26.7192 27.7955 27.4456C28.0053 27.3256 28.2799 27.3728 28.3709 27.1118C28.5031 26.734 28.5686 25.7013 28.603 25.2548C28.6684 24.4062 28.6198 23.5381 28.7412 22.6976L28.5267 18.2909H28.5261ZM29.0643 18.3591C28.924 18.295 28.7628 18.2167 28.6751 18.3908C29.0212 21.3142 28.9733 24.2652 28.5355 27.1758L29.146 27.0672C29.1365 25.5617 29.1992 24.0629 29.2067 22.5573C29.21 21.8302 29.2485 21.0774 29.2121 20.3334C29.1797 19.6784 29.0643 19.0174 29.0643 18.3584V18.3591ZM46.9967 23.1327C46.0227 19.2602 42.051 18.1527 38.7317 20.0892C36.1186 21.6137 34.7149 24.6072 35.0798 27.6062C35.2174 28.7374 35.6174 29.8267 36.0154 30.883C36.0977 30.9424 36.5496 30.5006 36.5523 30.3798C34.9746 27.4787 35.3159 23.6669 37.7981 21.3803C40.7121 18.6957 45.4298 19.0235 46.6668 23.1273L46.9967 23.1341V23.1327ZM46.391 23.2676C46.1758 22.1101 45.2645 21.0248 44.2358 20.4703C41.5971 19.0478 38.4416 20.5162 36.93 22.8696C35.5216 25.0612 35.5614 27.8692 36.7567 30.1417C36.8417 30.2045 37.297 29.8625 37.2841 29.7161C37.2761 29.6264 36.9287 28.9586 36.8572 28.7266C36.0457 26.0966 36.7971 22.8872 39.16 21.327C41.6308 19.6953 44.9562 20.3476 45.997 23.2575L46.3903 23.2683L46.391 23.2676ZM45.7164 23.4018C44.9832 20.9857 42.3964 20.1493 40.1468 21.0997C37.8602 22.0656 36.6501 24.5917 36.8241 27.0065C36.8619 27.5333 37.1836 29.049 37.4636 29.4672C37.5533 29.6008 37.8319 29.2655 37.8238 29.1765C37.8164 29.0949 37.5695 28.5977 37.5162 28.4035C37.0629 26.7441 37.1189 25.0308 37.9816 23.5165C39.5398 20.782 43.4703 20.0278 45.2578 22.9513C45.4014 23.186 45.3367 23.4747 45.7164 23.4018ZM31.7692 27.3107C31.5985 25.8511 31.6977 24.3469 32.155 22.9452C32.3398 22.3772 32.7061 21.9617 32.578 21.3135L31.7017 23.1651C31.407 24.0062 31.3139 24.8973 31.3746 25.7856L31.7692 27.3101V27.3107ZM45.1775 23.4693C44.1913 21.0686 41.2497 20.7584 39.3516 22.326C37.3995 23.9388 37.0616 26.7394 38.0362 28.995C38.5604 28.6166 38.3054 28.4797 38.1887 28.0676C37.6389 26.135 38.07 23.818 39.7273 22.5668C41.1512 21.4923 43.1431 21.4181 44.3707 22.8278C44.6487 23.1462 44.6959 23.5948 45.1775 23.4693ZM17.2837 26.2322C17.2972 26.1573 17.2742 26.0973 17.2527 26.0278C17.0874 25.4963 16.4034 24.1985 16.106 23.6703C15.6648 22.8865 14.852 21.5955 13.8449 21.6818L13.8119 21.8531C14.2274 22.1938 15.0443 22.6673 15.2257 23.2029C15.2884 23.387 15.2345 23.8268 15.2695 23.8666C15.3046 23.9064 15.6156 23.8929 15.791 24.187L16.6179 26.2915L17.283 26.2322H17.2837ZM43.5606 23.6042C43.0284 22.8474 42.0416 22.7071 41.2025 22.9317C41.1708 23.0868 41.2193 23.0396 41.2888 23.0828C41.8777 23.4538 42.8773 23.5813 43.5613 23.6042H43.5606ZM52.4988 23.4167C51.6206 23.4969 51.6658 26.0716 52.5231 26.4669C53.2449 26.7994 53.4317 25.3843 53.3966 24.9195C53.3649 24.504 53.0438 23.3668 52.4988 23.4167ZM51.3575 23.7877L51.4769 23.6035L51.4115 23.4727C50.2722 23.613 49.1275 23.7148 47.9936 23.8942C45.4493 24.2969 43.5842 25.0619 41.0224 24.0211C40.7883 23.926 40.5307 23.7337 40.3067 23.6575C40.1779 23.6136 40.161 23.5644 40.0571 23.7067C40.0302 23.8423 40.1961 23.8551 40.273 23.8942C40.7114 24.1155 41.1816 24.3205 41.5883 24.6005C42.08 24.9391 42.5664 25.6278 43.1903 25.6264C43.709 25.6251 45.106 24.9701 45.7171 24.7846C47.5545 24.2275 49.4574 24.0251 51.3575 23.7883V23.7877ZM51.309 24.0764C49.3481 24.2565 47.3805 24.5047 45.5006 25.1064C44.6689 25.3728 43.5121 26.0669 42.648 25.764C42.0983 25.3984 41.6942 24.9472 41.1134 24.6039C40.9502 24.5074 40.0544 24.0352 39.9404 24.019C39.8177 24.0015 39.7199 24.0399 39.7199 24.1769C41.0932 24.7509 42.5536 25.6844 42.3816 27.3782C44.6439 25.0767 48.1535 24.7981 51.1902 24.3448L51.309 24.077V24.0764ZM42.2811 27.6473C42.2838 25.9097 41.0298 24.9114 39.5182 24.413L39.4548 24.5823C40.4551 25.0942 41.4912 25.7897 41.6976 26.9843C42.0632 29.1023 40.3708 30.7029 39.2221 32.2368C39.1674 32.3097 38.9347 32.5707 38.9799 32.6334C39.129 32.6692 39.2389 32.7232 39.4015 32.6908C39.929 32.5856 41.1836 30.1586 41.3711 30.1424C41.5586 30.1262 41.307 30.5417 41.2814 30.591C40.9482 31.2466 40.4153 31.9292 39.9904 32.5343C39.9748 32.7124 40.0214 32.5977 40.1084 32.5856C40.3843 32.5471 40.6521 32.4749 40.9151 32.3859C41.5661 31.3707 41.9296 30.1552 42.563 29.1097C44.3168 26.2126 46.992 25.6143 50.1393 25.1644C50.3592 25.1327 51.1848 25.1246 51.2321 24.9769C51.2658 24.8716 51.2341 24.7286 51.2422 24.6153C51.1417 24.5135 48.7586 24.9195 48.4105 24.9843C46.7491 25.2959 44.8362 25.7816 43.4325 26.7441C43.0837 26.9836 42.7566 27.3701 42.4504 27.5812C42.393 27.6203 42.3836 27.6757 42.2817 27.6473H42.2811ZM16.0702 27.8497L16.0048 27.1421C14.6827 26.7084 13.2365 26.5222 12.131 25.6237C11.8234 25.3735 11.5563 25.014 11.2534 24.7509C10.8102 25.0996 11.4983 25.7074 11.7944 25.961C12.9694 26.9647 14.6193 27.3991 16.0702 27.8497ZM38.1037 32.4992C38.2858 32.4776 38.4625 32.6166 38.6406 32.535C38.6986 32.5087 39.3367 31.7228 39.4494 31.5879C40.1489 30.7502 41.218 29.3971 41.4534 28.336C41.8231 26.674 40.8882 25.4888 39.4136 24.8845C39.3044 24.8838 39.1985 24.9904 39.2801 25.0888C39.3496 25.1732 40.1091 25.534 40.3276 25.7256C42.6008 27.7161 39.7286 30.4797 38.4423 31.9953C38.3897 32.0567 38.0558 32.454 38.1037 32.4985V32.4992ZM51.309 25.6258L51.2415 25.221C49.5093 25.5313 47.7623 25.6339 46.1238 26.336C44.1873 27.165 43.1094 28.4365 42.2021 30.2976C41.8784 30.962 41.6011 31.6824 41.3387 32.365C41.4811 32.2753 41.6983 32.2928 41.8311 32.2179C42.0322 32.1039 42.4166 30.8979 42.5603 30.5889C43.2342 29.1394 43.9802 27.8531 45.4028 27.0301C47.1559 26.0156 49.3211 25.7856 51.3096 25.6264L51.309 25.6258ZM37.8211 32.3528C38.955 30.8891 41.1357 29.2271 40.8598 27.1475C40.7499 26.3205 39.9924 25.6831 39.2706 25.3654L39.1141 25.4578C39.0595 25.6662 39.5425 25.847 39.7205 25.9954C40.0706 26.2861 40.3944 26.7556 40.4551 27.215C40.7269 29.2736 38.5138 30.7974 37.3617 32.197C37.2976 32.342 37.7455 32.3764 37.8204 32.3528H37.8211ZM39.0474 25.8956C38.955 26.3057 39.2558 26.3091 39.4507 26.5357C40.1172 27.3114 39.819 28.2119 39.3442 28.9896C38.6346 30.1512 37.4696 30.9431 36.555 31.9265C36.555 31.967 36.9867 32.1937 37.0595 32.1019C38.184 30.649 40.4322 29.3842 40.192 27.277C40.1165 26.6139 39.5944 26.1897 39.0474 25.8956ZM51.4445 25.8962C49.5491 26.0015 47.3582 26.2308 45.6719 27.165C43.8095 28.1971 42.9644 30.1795 42.2811 32.0958C42.4571 31.9866 42.7242 31.9286 42.8517 31.7579C43.0918 31.4382 43.3563 30.4561 43.5923 30.0055C45.1721 26.9903 48.3215 26.4015 51.4432 26.0979V25.8962H51.4445ZM23.0772 26.0305C22.856 25.8382 22.5309 26.6794 22.5018 26.8359C22.4695 27.0099 22.3993 27.5671 22.5733 27.6467C22.655 27.6844 22.8438 27.3465 22.8782 27.279C23.0685 26.8986 23.1575 26.4473 23.0772 26.0298V26.0305ZM26.2448 26.6376L23.6175 26.0305L23.6236 26.361C23.9494 26.3961 26.064 26.9971 26.1693 26.8979L26.2441 26.6376H26.2448ZM51.6354 26.3779C48.078 26.4851 44.2912 27.6655 43.2922 31.4888C43.9552 31.2007 44.0389 30.5336 44.3579 29.961C45.823 27.3296 48.9953 26.929 51.7137 26.6362L51.6354 26.3779ZM25.9656 27.4369L26.0384 27.2163L23.6175 26.5694L23.5561 26.7981C23.5683 26.8568 23.6182 26.8703 23.6627 26.8952C23.8583 27.0038 25.3814 27.3721 25.6903 27.4295C25.7672 27.4436 25.9069 27.4753 25.9662 27.4369H25.9656ZM17.2007 26.7839C16.6146 26.846 16.4635 27.4861 16.7555 27.9401C16.8844 28.1397 18.11 28.9809 18.4068 29.1866C18.5154 29.2621 18.7076 29.4321 18.8311 29.3701C18.9923 29.2358 19.5616 28.5647 19.4766 28.3913C19.4213 28.2787 18.5795 27.7209 18.3967 27.5792C18.0763 27.331 17.6365 26.7381 17.2 26.7846L17.2007 26.7839ZM25.8408 27.648L23.5217 27.1084C23.3808 27.3357 23.3342 27.3229 23.5629 27.3951C24.2826 27.6224 25.0387 27.8234 25.7686 27.9799L25.8408 27.648ZM23.1453 27.849L25.4172 28.4412L25.6371 28.2881L23.3666 27.592C23.2647 27.5542 23.1346 27.8348 23.146 27.849H23.1453ZM33.5216 30.2753C32.7533 29.2736 31.4171 28.2294 30.1173 28.1208C30.0438 28.1148 29.8664 28.0709 29.8839 28.1863C30.5571 28.4197 31.4448 28.8622 31.635 29.6021L30.578 28.8068C29.6296 28.2456 28.8195 28.0386 27.7955 28.5923C27.776 28.6746 27.8657 28.6794 27.9271 28.6942C29.3672 29.0429 29.9379 29.2615 31.0313 30.3083C31.0778 30.3529 31.7658 31.2399 31.6228 30.7272C31.4238 30.0136 30.4255 29.2095 29.7483 28.9627L28.7392 28.7266C30.0815 28.3934 31.2957 29.5084 31.8731 30.6139L32.5132 30.307C32.3398 29.9515 32.1361 29.6089 31.9331 29.2702C31.8987 29.2122 31.4157 28.6396 31.7962 28.8008C32.0309 28.8999 32.5213 29.932 32.7122 30.1755L33.5223 30.2746L33.5216 30.2753ZM54.2728 29.8038C54.4044 29.3573 54.3416 28.7003 53.9706 28.39C53.7393 28.3832 53.8803 29.7498 54.2728 29.8038ZM53.3298 28.5242L50.7707 29.163C50.8665 29.2965 50.9939 29.2723 51.1322 29.2601C51.8135 29.2001 52.6074 28.7556 53.3312 28.7934V28.5249L53.3298 28.5242ZM50.1636 30.1404C50.0456 29.8389 49.7623 29.6615 49.5113 29.4793C48.7255 28.9094 47.5721 28.3353 46.7282 29.0969C47.0561 29.3573 47.3272 29.0396 47.6442 29.0011C47.9404 28.9647 48.3046 29.0564 48.5434 29.2352C48.6628 29.3249 48.7248 29.4895 48.7673 29.5164C49.0344 29.6891 49.6213 29.5488 49.7596 30.1802L50.1643 30.1404H50.1636ZM51.1073 29.4679L51.3285 29.6547C51.9127 29.4402 52.5831 29.3714 53.1666 29.2028C53.5106 29.103 53.4823 28.9337 53.141 28.9714C52.4671 29.047 51.7683 29.3222 51.1073 29.4679ZM26.7831 32.8365C26.6151 31.8254 27.1595 30.7333 28.2981 30.8156C29.4819 30.9013 31.1196 32.8149 32.0748 33.5764C35.0366 35.938 38.1718 36.8641 41.9559 36.0506C42.9549 35.8354 44.0969 35.4597 44.9009 34.8257L44.5502 34.4628C40.8821 36.4985 36.8585 36.0054 33.5958 33.4705C32.3574 32.5087 31.5203 31.3228 30.3905 30.3421C29.2606 29.3613 27.2553 28.4993 26.0431 29.8712C26.3602 29.8281 26.6381 29.6473 26.9598 29.6095C29.3598 29.3283 30.7851 31.8679 32.4788 33.1049L34.5995 34.6557C34.3877 34.6361 34.1557 34.481 33.9729 34.3737C33.0859 33.8537 32.0835 33.0692 31.2977 32.3994C30.1557 31.4267 28.3217 29.136 26.603 30.195C25.5966 30.8156 25.7794 32.7171 26.8512 33.1731C26.7676 32.8999 26.5537 32.8372 26.4438 32.537C26.1497 31.7356 26.3494 30.7191 27.2559 30.4783C26.547 30.9991 26.3231 31.7781 26.6381 32.6119C26.665 32.6827 26.6934 32.8452 26.7831 32.8358V32.8365ZM30.0849 36.4769L19.9548 29.2082L19.6547 29.5691L29.4785 36.7791C29.5028 36.7899 29.9129 36.6388 29.9857 36.6105C30.0653 36.5794 30.1119 36.6611 30.0849 36.4762V36.4769ZM48.4793 29.534C48.223 29.1063 47.5916 29.2412 47.199 29.4011C47.3636 29.9583 48.0456 29.3741 48.4793 29.534ZM46.0537 29.6014C46.4267 29.6284 46.712 29.9542 47.0628 29.6358C46.7397 29.3829 46.3141 29.1461 46.0537 29.6014ZM53.4654 29.6014L53.3669 29.3471C52.7882 29.4713 52.2142 29.6028 51.6476 29.7734C51.5693 29.7971 51.3906 29.7701 51.4445 29.9043C51.4702 29.9677 51.5653 30.0466 51.6503 30.0433C52.1272 30.0237 52.9103 29.5522 53.4654 29.6014ZM49.2874 30.5451C48.9178 30.1701 48.8152 29.7323 48.1798 29.7343C48.1178 29.7343 47.57 29.8112 47.7387 29.9387C48.2405 29.9387 48.8867 30.2072 49.1828 30.6173C49.2962 30.7738 49.367 31.076 49.4924 31.1839C49.7265 31.3856 50.0719 31.3296 50.366 31.7255C50.8179 32.334 50.3545 32.7029 50.4334 33.3424L50.567 33.3754C50.9326 32.8284 50.8725 32.1754 50.6493 31.5771C50.3558 30.7906 49.8897 31.198 49.5295 30.877C49.2348 30.6139 49.5424 30.4945 49.4904 30.1788C49.4614 30.0001 49.1997 29.8072 49.0183 29.8051L49.2874 30.5458V30.5451ZM53.5997 29.737L51.7137 30.2416C51.8041 30.3758 51.8553 30.3164 51.968 30.3002C52.4907 30.2247 53.056 29.9664 53.6003 29.9387V29.737H53.5997ZM46.5926 30.2753C46.5805 29.9016 46.0874 29.7977 45.7846 29.8045L45.8905 30.1363L46.5926 30.2753ZM49.2881 31.4206C49.1336 30.9728 48.9805 30.6712 48.567 30.4244C48.3323 30.2841 46.9488 29.7815 46.795 29.9394L46.9265 30.3798C47.2119 30.3414 47.4587 30.2207 47.7582 30.2901C47.8048 30.3009 48.5097 30.6955 48.5798 30.7481C48.7323 30.8615 48.8753 31.0429 48.9508 31.219L48.2102 30.8156C48.2297 31.4274 48.7909 31.4281 49.2874 31.4213L49.2881 31.4206ZM26.2448 30.0743C25.4961 30.2625 25.0947 31.5387 25.4023 32.1626C25.457 32.2739 25.7315 32.3616 25.807 32.4992C25.8475 32.313 25.7227 32.1282 25.7065 31.9259C25.6499 31.2055 25.7187 30.6011 26.2448 30.0743ZM46.8618 31.2203C46.4328 31.1097 46.0894 31.1461 45.7859 30.7798C45.647 30.6126 45.6105 30.4008 45.448 30.2766C45.2078 30.504 45.5013 31.105 45.6975 31.225C45.8223 31.3012 45.9471 31.219 46.055 31.2507C46.337 31.3336 46.5299 31.7201 46.8618 31.2203ZM64.179 35.1285C64.6329 35.0213 65.2366 34.6894 65.6926 34.7218C66.4602 34.7764 66.8602 35.7943 67.839 35.3187C69.7809 34.3758 68.6983 30.0655 66.297 30.2726C65.4903 30.3421 65.4565 31.0523 65.1341 31.6021C64.7476 32.2631 64.1102 32.2719 63.4471 32.5093L63.4377 32.769C63.7857 32.7063 64.1864 32.4635 64.5432 32.5006C64.7746 32.5248 64.7226 32.6813 65.0457 32.5269C65.9995 32.0702 65.6946 30.3266 66.9877 30.8696C68.2808 31.4125 68.8514 33.6027 67.9523 34.6051C67.1799 35.4658 66.5142 34.0621 65.7021 34.1201C65.2083 34.1552 65.3088 34.3933 65.1422 34.5268C64.9574 34.6746 64.3624 34.7926 64.1108 34.8594L64.179 35.1292V35.1285ZM47.199 30.9491C46.8672 30.5384 46.277 30.4453 45.7846 30.3441C46.018 30.8635 46.6756 31.0463 47.199 30.9491ZM50.1461 30.3717C49.0459 30.4655 50.2216 31.0915 50.6324 30.6476C50.5218 30.4082 50.3977 30.3502 50.1461 30.3717ZM61.6785 30.3495C61.6117 30.3016 60.2323 30.7299 60.1136 30.8102C59.9686 30.908 60.0866 31.308 60.1439 31.3458C60.3254 31.4652 61.5308 30.9161 61.8174 30.8783L61.6785 30.3495ZM48.0746 31.4888C48.1616 30.8021 47.854 30.3448 47.1323 30.5465C47.2517 30.7043 47.4648 30.7448 47.6044 30.9154C47.7845 31.1367 47.7535 31.536 48.0746 31.4888ZM34.0606 31.0166C33.7091 30.2274 32.3001 30.6962 31.8387 31.1859C32.1692 31.4733 32.4586 31.9859 32.8134 32.2314C32.8707 32.2705 32.8801 32.3252 32.982 32.2975C33.0016 31.7673 33.2943 31.484 33.8245 31.4834C34.0997 31.4834 34.3311 31.6284 34.5988 31.5906C34.1671 30.9539 33.0899 31.1542 32.5786 31.6237C32.6137 30.9862 33.5675 30.9019 34.0606 31.0166ZM46.1886 31.6918C46.7896 32.5323 47.0601 31.5218 47.4662 31.1185L47.2679 30.9498C47.1343 31.4058 46.6884 31.7903 46.1893 31.6918H46.1886ZM51.1079 34.3865C51.6793 33.9589 51.2348 33.0726 51.2368 32.5329C51.2395 31.9023 51.4203 31.6844 50.9359 31.0874C50.7666 30.879 50.5177 30.9195 50.6364 31.1164C50.9292 31.6028 51.0931 31.994 51.0816 32.5889C51.0769 32.8075 50.9137 33.2466 50.9204 33.3302C50.9299 33.4463 51.0864 33.6392 51.1052 33.822C51.1255 34.0149 51.0169 34.1869 51.1086 34.3865H51.1079ZM25.0313 31.8254L24.9983 31.0173C24.7777 31.3458 24.456 31.7235 25.0313 31.8254ZM45.5815 33.7795C45.6544 33.4503 45.4075 33.2803 45.2996 33.0173C45.1573 32.6705 45.1296 32.2463 45.1937 31.8753C45.2578 31.5043 45.7117 31.2183 45.1114 31.0166C44.8024 31.6412 44.7586 32.2058 44.9724 32.8729C45.0008 32.9626 45.4473 33.9373 45.5822 33.7788L45.5815 33.7795ZM28.2657 31.2196C27.3335 31.2756 26.9821 32.1505 27.1878 32.9714H27.6586C27.6458 32.5181 27.7611 31.8618 28.0316 31.4894C28.1294 31.3552 28.3035 31.4065 28.265 31.2196H28.2657ZM29.3443 31.7579C28.5443 30.9208 27.8913 31.9002 28.1611 32.7731C28.2016 32.9033 28.5079 33.3538 28.667 33.1744L28.7716 33.4422C28.7594 32.5889 29.2546 32.1883 30.0849 32.4311C29.8981 32.1923 29.575 31.8051 29.2519 31.8267C28.8883 31.851 28.5598 32.2577 28.5375 32.6085C28.5267 32.7771 28.7008 33.0854 28.5362 33.1724C28.3224 32.4884 28.4606 31.6655 29.3443 31.7572V31.7579ZM47.6031 31.422C47.4628 31.3916 47.45 31.4942 47.3866 31.5751C47.2463 31.7525 47.1033 31.9205 46.9636 32.0952C46.8969 32.1781 46.8193 32.1653 46.9306 32.2625C47.4001 32.6719 47.7076 31.8065 47.6031 31.4213V31.422ZM62.3584 31.4213L61.8896 31.5603L63.5361 36.8708L63.9065 36.7413L62.3584 31.4213ZM50.2978 32.6341C50.629 32.0338 49.6935 31.1326 49.2213 31.7249C49.7467 31.8969 49.9774 32.2206 50.2978 32.6341ZM52.4543 31.6911H53.9032L54.003 31.5899L53.9032 31.4888H52.3875L52.455 31.6911H52.4543ZM65.1989 33.5009C65.7709 33.4395 66.1945 33.4139 66.7186 33.6992C67.0127 33.8591 67.387 34.4419 67.5698 33.8368C67.8309 32.9734 67.4727 31.762 66.5371 31.4894C66.3698 32.2496 65.957 33.028 65.1213 33.1751L65.1982 33.5016L65.1989 33.5009ZM45.649 31.5569C45.4608 31.5238 45.5363 31.598 45.4979 31.7046C45.3009 32.2442 45.4338 32.6968 45.9518 32.9721L46.1212 32.7036C45.6321 32.5512 45.6186 31.9913 45.649 31.5569ZM49.1532 31.8921C49.2928 31.7066 48.5279 31.5495 48.4125 31.5562C48.335 31.6291 48.7147 31.9711 48.7923 32.0176L49.1532 31.8921ZM54.544 31.5562C54.3929 32.0075 54.3174 32.5114 54.6445 32.9026C54.9602 32.7771 54.8192 31.3491 54.544 31.5562ZM46.6453 32.3124C46.6203 32.2766 46.4416 32.2402 46.3559 32.1633C46.1906 32.0163 46.049 31.8395 45.8844 31.6911C45.6962 32.1997 46.1083 32.3447 46.3242 32.599C46.54 32.8533 46.5819 33.2338 47.0641 33.1737C46.905 33.4146 47.197 33.5333 47.4277 33.5103C48.0753 33.4449 48.2958 32.1114 47.8378 31.6911C47.8061 32.137 48.0611 32.8304 47.5835 33.1211C47.1586 33.3801 46.9191 33.0078 46.7323 32.6618C46.6702 32.5464 46.6824 32.3657 46.6446 32.3124H46.6453ZM63.1672 37.0132L61.5841 31.7579C61.4734 31.6082 61.1476 31.7579 61.1564 31.913L62.8043 37.0772L63.1665 37.0132H63.1672ZM35.4083 32.3643C35.243 31.9508 33.9466 31.6797 33.637 31.7721C33.2201 31.8962 33.1621 32.8399 33.6889 32.9053C33.9796 32.4547 33.5594 32.398 33.5223 32.0284C34.0356 32.3967 34.7918 32.3333 35.4083 32.365V32.3643ZM48.2756 31.7586L48.1427 31.791C48.8038 32.8614 47.6827 34.2537 46.5252 33.9825C46.3937 34.1161 46.9178 34.309 47.0351 34.3144C47.2665 34.3245 47.821 34.0978 48.0031 33.9447C48.2331 33.7518 48.7538 32.964 48.7505 32.6672C48.7498 32.5727 48.3228 31.8004 48.2749 31.7593L48.2756 31.7586ZM53.9369 31.8935H52.5892C52.5622 31.9717 52.6189 32.1633 52.6904 32.1633H53.9369V31.8935ZM48.884 32.2308L49.0675 32.4898C49.3225 32.5572 49.4277 32.2179 49.7211 32.5721C50.1393 33.0766 49.825 33.6999 50.0132 34.1666C50.1137 34.4156 50.5211 34.6287 50.772 34.4884C50.9407 34.394 50.5218 34.1849 50.4644 34.1201C50.0503 33.6513 50.3727 32.9296 49.7596 32.3319C49.4398 32.0203 49.2732 32.0635 48.8847 32.2308H48.884ZM40.1246 35.2621C40.9941 35.4145 41.1809 34.4796 41.815 34.0898C42.1644 33.8753 42.592 33.8301 42.9205 33.5778C43.3144 33.2756 43.5923 32.6395 43.6949 32.1626C43.2848 32.4331 43.0689 32.9114 42.679 33.2014C42.3364 33.4557 41.9175 33.5481 41.56 33.7673C40.9556 34.1376 40.6318 34.7818 40.1246 35.2621ZM51.0398 35.0597C52.3686 34.7063 51.8695 33.2554 51.5781 32.2975C51.4621 32.2847 51.5046 32.5296 51.5093 32.6024C51.5376 33.0618 51.7137 33.4422 51.6307 33.9319C51.5423 34.4513 51.1066 34.5619 51.0405 35.0591L51.0398 35.0597ZM53.9369 32.2975L52.7241 32.398C52.8084 32.477 52.7444 32.5545 52.8894 32.5721C53.0344 32.5896 53.887 32.5592 53.9362 32.4979V32.2975H53.9369ZM46.9299 32.4999C46.8685 32.5768 47.2442 32.9707 47.3549 32.9613C47.6375 32.8783 47.6955 32.6314 47.6692 32.365C47.448 32.5856 47.2254 32.6442 46.9292 32.4999H46.9299ZM33.8582 32.8372C34.5854 32.9862 35.3213 33.1609 36.0356 32.8243C36.1381 32.7758 36.1799 32.7562 36.0808 32.6692C35.7071 32.342 35.411 32.6301 35.0339 32.6361C34.5732 32.6442 33.8366 32.2254 33.7935 32.879C33.7725 33.198 34.4619 33.6088 34.7661 33.6466C35.5621 33.7457 36.2123 33.2823 36.957 33.1049C36.9024 32.9849 36.5584 32.8999 36.4511 32.9006C36.2204 32.9026 35.7395 33.1798 35.4245 33.223C34.9004 33.2945 34.242 33.2419 33.8589 32.8365L33.8582 32.8372ZM30.6245 32.9033C30.2677 32.3906 28.976 32.4183 29.0036 33.2048C29.0232 33.7505 29.3814 33.8537 29.6478 34.2516L29.7861 33.8449C30.1018 33.9137 30.2866 34.1815 30.5996 34.3103C31.208 34.5599 31.5736 34.3946 32.1739 34.251C31.8764 33.7464 31.4697 34.0392 31.0002 33.9758C30.7642 33.9441 30.4046 33.7916 30.2873 33.5785C30.694 33.6156 31.0785 33.8139 31.5001 33.712C30.9146 32.8338 29.979 32.968 29.3449 33.712C29.3665 33.1434 30.153 32.9208 30.6245 32.9026V32.9033ZM49.5397 32.7178L49.1518 32.7366C49.5181 33.4031 49.3811 34.5822 50.171 34.9518C50.6047 35.1548 50.8159 35.1285 50.9724 34.6564C50.5629 34.7569 50.0921 34.8311 49.8371 34.4095C49.5194 33.8854 49.8722 33.2291 49.5397 32.7171V32.7178ZM41.6976 34.8142C42.2568 34.3596 42.9138 34.3838 43.4278 33.8827C43.7819 33.5373 43.9917 33.2007 43.8291 32.7016L43.481 33.3296C42.9542 34.0769 42.53 33.9124 41.9465 34.2881C41.6989 34.4473 41.4487 34.8365 41.2032 35.0273C41.1654 35.1825 41.3516 35.1434 41.4244 35.1137C41.5964 35.0449 41.6059 34.8891 41.6976 34.8142ZM53.9929 32.713L53.373 32.7097L52.8604 32.8689C53.197 33.1306 53.6752 32.8135 54.0725 32.9026L53.9936 32.7124L53.9929 32.713ZM42.5502 32.9046C40.8335 32.8392 40.2872 34.3764 39.1141 35.2621C40.0949 35.4712 40.4254 34.3663 40.986 33.8469C41.4588 33.4085 42.107 33.3451 42.5509 32.9046H42.5502ZM47.1316 33.7795L46.1893 32.9039C46.0625 33.5292 46.5286 33.9049 47.1316 33.7795ZM50.0962 36.0708C49.854 35.6877 49.3043 35.453 49.1842 34.9956C49.0432 34.4594 49.2665 33.8523 49.1228 33.2378C49.1046 33.1596 49.0493 32.914 48.9515 32.9046C48.6189 33.4017 48.9387 33.7586 48.9542 34.2833C48.965 34.6489 48.7721 34.9633 48.8597 35.2506C48.9616 35.5845 49.765 35.9508 50.0962 36.0708ZM64.7118 34.11L64.3807 33.1346L63.6387 33.3086L63.9139 34.313C64.2032 34.3643 64.4522 34.1943 64.7118 34.11ZM60.8023 33.1798C60.6633 33.084 59.4505 33.6216 59.1922 33.6466C59.2347 33.8328 59.238 34.0661 59.4782 34.0392C59.5827 34.027 60.7557 33.6567 60.8097 33.6129C60.9176 33.5252 60.8623 33.2223 60.8023 33.1805V33.1798ZM38.4403 33.4436C37.2072 32.9255 36.242 33.7053 35.0717 33.9481C35.2511 34.05 35.5162 34.2779 35.6977 34.3366C36.097 34.4655 36.702 33.8368 37.156 33.7424C37.5762 33.6554 38.333 33.9049 38.4403 33.4436ZM27.2559 33.4442L27.7234 33.8213L27.9183 33.6695C27.9379 33.5724 27.776 33.341 27.6795 33.3167L27.2553 33.4442H27.2559ZM47.2894 34.7677C47.2328 34.7225 47.2146 34.5936 47.1336 34.5545C47.0183 34.4985 46.8591 34.5329 46.7262 34.4891C46.2743 34.3407 46.1043 33.7296 45.9862 33.308C45.9006 33.2189 45.7819 33.7889 45.7832 33.8827C45.794 34.4007 46.6082 34.7258 47.0129 34.8756C47.7825 35.1616 48.7242 35.5643 48.681 34.3184C48.5407 34.4324 48.4705 34.6017 48.3107 34.7218C47.9862 34.9653 47.6233 35.0321 47.2901 34.7663L47.2894 34.7677ZM50.8375 33.4436L50.5177 33.7457L50.8044 34.1161C51.0101 33.9562 50.7707 33.6688 50.8375 33.4436ZM25.0313 36.8796C25.2627 36.3285 24.7784 36.1977 24.4944 35.8334C24.06 35.2756 23.8637 34.45 24.0067 33.7532L23.6856 33.5103C23.488 34.481 23.7234 35.7794 24.427 36.5086C24.5072 36.5916 24.9423 36.9565 25.032 36.8796H25.0313ZM39.5182 33.511L38.7796 33.513C38.7695 33.942 38.4201 34.4709 37.9863 34.5727C37.6929 34.6415 37.2228 34.5424 37.0251 34.8567C38.1873 35.227 38.8754 34.2962 39.5182 33.5103V33.511ZM40.3263 33.511C39.6234 33.3687 39.3759 34.3029 38.876 34.6543L38.0356 35.1272C39.0521 35.4577 39.8514 34.2435 40.3263 33.511ZM41.9438 34.9923C42.5805 34.8263 43.6456 34.6172 44.1643 34.2152C44.3849 34.0439 44.2075 33.7815 44.0638 33.5805C43.9512 33.4233 43.8709 33.7565 43.7616 33.8793C43.1822 34.5268 42.5927 34.5241 41.9445 34.9923H41.9438ZM48.2533 34.4978C48.4523 34.3252 48.6304 33.9164 48.6129 33.6452C48.2345 34.0054 48.0017 34.4344 47.4007 34.454C47.4655 34.8682 48.028 34.6928 48.2527 34.4972L48.2533 34.4978ZM59.6637 37.0145L58.6876 33.7828C57.9969 33.94 58.5487 35.0827 58.7025 35.5838C58.8563 36.085 58.9837 37.1784 59.6637 37.0145ZM36.217 34.5876C36.7385 34.9073 36.8815 34.4803 37.2761 34.4014C37.7293 34.3103 38.2379 34.4803 38.4396 33.8476C38.0565 34.0911 37.6059 33.9238 37.1722 34.0284C37.0022 34.0695 36.4592 34.3366 36.3034 34.4378C36.238 34.4803 36.1826 34.4304 36.217 34.5876ZM61.0073 33.8496L59.3939 34.3198L59.976 36.0661L61.551 35.598L61.4478 35.3282C60.8886 35.5967 59.7986 35.7828 59.9355 34.829C60.0171 34.2611 60.7571 34.3461 61.0121 34.1498C61.1078 34.0763 61.0323 33.8678 61.0067 33.8489L61.0073 33.8496ZM24.6124 34.1316C24.6017 34.112 24.2543 33.88 24.2232 33.9157C24.1484 34.7434 24.5072 35.6054 25.2 36.0702C25.4489 35.7727 24.9362 35.3579 24.7966 34.9923C24.713 34.7744 24.6462 34.1909 24.6124 34.1316ZM28.8721 34.6564C28.947 34.5741 28.3817 34.0479 28.2873 33.9946C28.2171 33.9548 28.089 33.8739 28.0647 34.0169C28.0404 34.1599 28.7487 34.5525 28.8721 34.6564ZM24.8296 37.2162C24.918 37.1197 24.3845 36.8068 24.2914 36.7103C23.9345 36.342 23.5366 35.509 23.432 35.0091L23.2809 34.0493C23.2708 34.3609 23.0536 34.6692 23.0165 34.9639C22.9045 35.8584 23.4988 37.1116 24.0209 37.8219C23.548 37.8624 23.4246 37.4098 23.1453 37.1487C23.1109 38.6185 24.3089 38.7217 24.8957 37.5184C24.713 37.4361 24.5679 37.5899 24.3555 37.5258C23.8826 37.3835 23.513 36.3292 23.4819 35.8685L24.1524 37.1177C24.3615 37.3457 24.5659 37.2688 24.829 37.2155L24.8296 37.2162ZM32.7129 34.655C32.435 34.1559 31.9311 34.6044 31.4582 34.6476C31.1392 34.6766 30.8073 34.6631 30.5105 34.5343C30.4073 34.4897 29.9507 34.1093 29.8839 34.1849C29.8475 34.6098 30.2569 34.9167 30.6252 35.0267C31.3969 35.2574 32.0066 34.8918 32.7135 34.6557L32.7129 34.655ZM25.6323 34.8675L24.8303 34.3191C24.7136 34.4729 25.4954 36.5268 25.6323 34.8675ZM49.7832 34.9693C49.651 34.8479 49.483 34.572 49.4898 34.3865C49.2152 34.4992 49.4702 35.1191 49.6091 35.2641C49.9424 35.6128 50.5002 35.5926 50.9056 35.3963C50.8786 35.2668 50.7714 35.2769 50.6709 35.2614C50.3248 35.2081 50.0766 35.2385 49.7838 34.9693H49.7832ZM61.207 34.5275C60.9662 34.5309 60.3928 34.6489 60.3369 34.8951C60.2114 35.4469 61.0721 35.0098 61.348 34.9929L61.2063 34.5275H61.207ZM50.366 36.2739L50.6668 36.6516C51.8068 36.5477 52.0476 35.658 52.0496 34.6564C51.9531 34.6402 51.9579 34.7737 51.9356 34.8439C51.8688 35.0577 51.8634 35.285 51.7744 35.4914C51.5552 36 50.9083 36.3231 50.366 36.2739ZM30.5571 35.196C30.8066 35.4806 31.3024 35.6176 31.6694 35.6041L33.4528 35.0941C32.897 34.5154 32.4849 35.0496 31.8913 35.2155C31.38 35.3585 31.0663 35.3201 30.5571 35.196ZM50.2311 35.8024C50.7133 36.3555 51.6199 35.6661 51.6455 35.0604C51.1889 35.3565 50.8422 35.8395 50.2311 35.8024ZM43.4932 37.7551C44.6702 37.6142 44.8308 36.1403 45.4196 35.3336L45.2787 35.1292C44.4072 35.8314 44.422 37.0826 43.4932 37.7551ZM57.8424 35.1299L46.6911 38.831L46.6608 39.1029L57.9713 35.567L57.8424 35.1292V35.1299ZM25.1669 43.2816C25.3059 43.2633 25.6505 43.2391 25.6984 43.1042C25.7558 42.9409 25.579 42.0323 25.5683 41.7679C25.5035 40.2017 25.6398 38.6428 26.062 37.1346C26.143 36.8452 26.5659 35.8456 26.5686 35.687C26.5713 35.5285 26.2252 35.3187 26.0809 35.2628C24.916 37.7019 24.7838 40.6226 25.1669 43.2809V43.2816ZM36.6879 36.5423C36.6697 36.4277 36.5543 36.4243 36.4707 36.3899C35.8272 36.1214 34.9928 35.8159 34.3284 35.5676C33.2309 35.1569 32.6434 35.8031 31.5675 35.8705C31.5513 35.9676 31.6849 35.9616 31.7557 35.9838C32.4194 36.195 33.1958 35.8516 33.952 35.9447C34.8424 36.054 35.6821 36.9329 36.6879 36.543V36.5423ZM44.7741 37.2843C45.3981 36.9626 45.5134 36.2091 45.8905 35.6702L45.7839 35.4975L45.5795 35.4955L44.7734 37.285L44.7741 37.2843ZM44.5711 35.6C43.6497 35.7781 43.4183 36.6017 42.8537 37.2175C42.7256 37.3572 42.5805 37.4847 42.447 37.6189L41.8089 38.0917C42.822 38.054 43.5836 37.542 44.0571 36.6692C44.2439 36.3245 44.3384 35.9224 44.5711 35.6ZM46.7943 35.9373L46.1198 35.7639L45.5815 36.8115C45.6524 36.8702 46.567 36.226 46.6824 36.1275C46.7525 36.0675 46.8227 36.0607 46.7937 35.9366L46.7943 35.9373ZM27.0542 36.8796L27.3895 36.1767L26.9868 35.8685C27.0063 36.1518 26.7838 36.3488 26.6846 36.6111C26.5652 36.9268 26.5092 37.3025 26.3797 37.6196L27.1878 37.2492C27.0779 37.4165 26.947 37.6027 26.7797 37.7167C26.4526 37.9393 26.1335 37.8374 26.2448 38.46C26.2806 38.6597 26.9416 39.1683 27.1089 39.4853C27.3706 39.9818 27.237 40.5524 27.7267 40.9221C27.6647 39.9177 27.8279 38.974 26.8107 38.4357C26.6536 38.3528 26.3622 38.398 26.3797 38.1599C27.1595 38.0708 28.0269 37.6971 28.3136 36.912C28.1004 36.3535 27.6235 37.602 27.4576 37.4179C27.4354 36.9686 28.2367 36.6165 27.5595 36.3393C27.4306 36.5579 27.3193 36.7987 27.0536 36.8796H27.0542ZM58.1817 36.4074L58.0144 35.8712L46.7714 39.3862L46.6783 39.4711L46.7276 39.7106L58.1817 36.4081V36.4074ZM61.7527 36.34L61.5793 35.8725C61.3648 35.9629 60.038 36.2752 60.0158 36.4391L60.1763 36.8169L61.7527 36.34ZM40.731 38.1599C41.6396 38.0486 42.3188 37.37 42.9212 36.746L43.4251 36.0715C42.4322 36.1902 42.076 37.1096 41.3725 37.6904L40.731 38.1599ZM32.3088 36.2739C32.4828 36.4695 32.9233 36.684 33.1837 36.7184C33.4441 36.7528 33.6646 36.6644 33.9513 36.686C34.5044 36.7285 35.0184 37.0934 35.5776 37.1487C36.242 37.2148 36.8497 37.0887 37.361 36.6442C37.1088 36.3717 36.8376 36.7089 36.5577 36.7825C35.4359 37.0779 34.7277 36.2536 33.7503 36.1464C33.2613 36.0931 32.7938 36.2543 32.3088 36.2746V36.2739ZM24.7615 38.1599C23.1123 39.316 22.9619 37.9568 22.8 36.6516C22.7899 36.5707 22.7703 36.2833 22.6739 36.2732C22.4142 37.3221 22.2644 38.514 23.4145 39.0705C23.4894 39.3227 22.9288 39.0738 22.8526 39.0246C22.6003 38.8614 22.5592 38.5983 22.3366 38.4297C22.3534 39.6344 23.2668 39.948 24.1875 39.2364C24.5565 38.9511 24.7804 38.6502 24.7608 38.1599H24.7615ZM47.8574 36.3528C47.7852 36.3703 47.5134 36.5457 47.5363 36.6428C47.6908 36.7919 47.91 36.7879 48.0968 36.8917C48.6149 37.1804 48.7377 37.5204 49.4216 37.0482C49.4203 36.9619 48.0503 36.3056 47.8574 36.3528ZM42.1455 36.4762C41.5978 36.4122 41.5391 36.8573 41.2679 37.1818C40.8828 37.6425 40.3647 37.9285 39.7563 37.9602C39.2018 37.9892 38.5219 37.6803 38.103 38.1599C39.1735 38.3879 40.1812 38.371 41.0683 37.656C41.1742 37.5703 42.2177 36.5322 42.1455 36.4769V36.4762ZM41.4048 36.6111C40.9691 36.5403 40.8295 36.8931 40.5516 37.0712C39.7995 37.5535 39.1917 37.0988 38.4828 37.1548C38.0072 37.1926 37.4366 37.5966 36.9577 37.7228L35.8798 37.89C36.2541 37.9359 36.6811 38.1052 37.0575 38.0985C37.5816 38.089 38.0956 37.6762 38.6157 37.6277C39.0723 37.5852 39.5627 37.7585 40.074 37.6722C40.6446 37.5757 41.0959 37.0631 41.4042 36.6105L41.4048 36.6111ZM40.528 36.6779C39.927 36.7852 39.2281 36.7629 38.6056 36.7481C38.3411 36.7413 38.0963 36.6253 37.8029 36.6813C37.3482 36.7683 36.9651 37.3828 36.1125 37.4199C35.7219 37.4368 35.3786 37.2614 35.0042 37.2499C35.3186 37.6344 36.0477 37.6776 36.5138 37.6155C37.102 37.5366 37.6801 37.0482 38.2204 36.9632C38.9138 36.854 39.8089 37.231 40.4025 36.8526C40.4902 36.7966 40.5644 36.8466 40.528 36.6779ZM34.8693 37.5528C34.6056 36.9848 34.1051 36.8944 33.5223 36.9477L34.2845 37.3639L34.8693 37.5528ZM33.3867 37.9575C33.4495 37.8732 32.9139 37.6836 32.8451 37.658C31.6606 37.2202 30.5355 36.7622 29.4434 37.687C28.2502 38.6981 28.1834 40.8404 29.3234 41.9231C29.4097 41.9433 30.2873 41.6876 30.3547 41.6317C30.5254 41.4907 30.1591 40.8721 30.6717 40.7305C31.1743 40.5915 31.2087 41.921 31.3017 42.2994C31.5311 43.2262 31.9567 43.8475 32.3655 44.6724C32.8869 45.724 33.1446 47.0218 34.6022 47.0926C35.4305 46.5935 36.4073 46.5665 36.7675 45.5513C37.2241 44.263 36.5145 43.1568 35.8885 42.0924L35.5425 41.1251C35.0474 42.205 35.9007 43.0198 36.1165 44.0202C36.5725 46.1294 34.5908 47.4151 33.2633 45.5938C32.2764 44.2401 31.7894 42.5531 31.4994 40.9227C31.9709 41.2701 31.9183 42.0715 32.0572 42.6212C32.2684 43.4542 33.2059 45.581 33.9297 46.0046C34.6015 46.3979 35.3064 46.2657 35.7321 45.5952C36.7499 43.9932 34.2474 42.3204 35.6086 40.6199C35.8946 40.2624 36.3054 40.0364 36.7479 40.2887C37.2848 40.5942 37.388 41.7962 37.5782 42.3561C37.9708 43.5089 39.3947 45.2768 40.6581 45.4758C41.506 45.6094 42.737 45.1547 43.5431 44.8505C43.8831 44.7224 44.3937 44.3291 44.6743 44.4923C45.3481 44.8836 44.9448 45.7551 44.4665 46.1105C44.3627 46.1874 44.053 46.4525 43.964 46.2481C44.4827 45.9938 44.9448 45.3584 44.704 44.7648C44.337 44.7399 44.3606 45.2606 44.051 45.4245C43.7583 45.5797 42.1812 46.0707 41.8102 46.1483C39.4818 46.6367 37.8366 44.4579 37.1749 42.491C37.0474 42.1113 36.8707 40.978 36.5907 40.7845C36.5111 40.7291 36.4498 40.7042 36.3513 40.7217C36.1118 41.4165 36.7041 42.0249 36.9921 42.607C37.4993 43.6323 37.5088 44.7473 38.2352 45.5412C38.9313 46.3014 40.1934 46.8964 41.2342 46.8525C42.2116 46.8114 43.2942 46.2259 44.0976 45.7078C44.3235 45.9979 42.8848 46.6717 42.6824 46.7513C40.9563 47.4272 39.2544 46.9699 38.0329 45.6087C37.8636 45.4198 37.7786 45.1696 37.5634 45.0347C37.4892 45.9911 38.6022 46.3979 39.2673 46.7999C39.8548 47.1547 39.9782 47.4576 40.764 47.527C42.076 47.6431 45.3003 46.7547 45.5067 45.1979C45.591 44.5598 45.1815 43.5507 44.5212 43.3652C43.052 42.9531 41.9607 44.1638 40.6743 43.776C40.0551 43.5891 39.676 42.9848 39.1802 42.6091C39.4271 43.9696 40.277 44.6987 41.6875 44.41C42.5596 44.2313 43.7536 43.3571 44.5023 44.0586C44.4638 44.3419 44.2446 44.1112 44.0591 44.0977C42.6264 43.9912 41.3502 45.4529 39.8581 44.3905C38.1475 43.173 39.2106 40.7015 37.869 39.4388C37.3374 38.9389 36.0309 38.7501 35.3611 39.026C33.7226 39.6998 33.5837 41.7092 34.3155 43.1271C34.6312 43.7382 36.0423 45.1756 34.8154 45.691C33.8683 46.0889 33.7348 45.2451 33.4211 44.6954C32.7014 43.4327 32.1557 42.8404 32.3135 41.235L32.5078 40.6556C32.5483 41.2364 32.4829 41.7821 32.584 42.3656C32.7371 43.2472 33.1796 43.7807 33.5978 44.5186C33.7301 44.7507 33.9284 45.3814 34.1267 45.4731C34.2656 45.5372 34.4842 45.5352 34.5638 45.3733C34.8349 44.8215 34.0161 44.0175 33.7543 43.5547C33.1972 42.5686 33.009 41.4131 33.3847 40.3197C33.0117 40.3649 32.6616 40.4836 32.2805 40.4465C31.548 40.375 30.9058 39.6465 30.2508 40.3055C29.9574 40.1315 30.0883 39.7612 30.2819 39.5406C30.8424 38.9032 31.7557 39.7126 32.4161 39.7733C33.4771 39.8711 33.7328 39.3949 34.3951 38.802C34.4869 38.7197 34.8956 38.5342 34.8005 38.4324C34.4572 38.4924 33.9486 38.0452 33.6882 38.0553C33.5506 38.0607 33.3672 38.2462 33.2201 38.2995C32.3028 38.6307 31.9877 38.1707 31.1952 38.0951C29.7874 37.9615 29.1048 39.1049 29.293 40.4013C29.353 40.8135 29.6201 41.0131 29.6788 41.3962C28.8815 40.9841 28.918 39.5123 29.2869 38.8135C29.521 38.3703 30.093 37.9002 30.5948 37.83C31.6235 37.6863 32.4066 38.5086 33.3847 37.9582L33.3867 37.9575ZM46.4577 37.285C45.2584 37.8199 45.5282 39.5393 45.9856 40.5187C45.2375 39.8624 45.3677 38.6138 45.649 37.7558C44.8146 38.0182 45.0338 39.2917 45.2429 39.948C45.4385 40.5612 46.1792 41.7423 46.797 41.9662C47.5464 42.2381 47.9134 41.4765 47.595 40.8303C47.5356 40.7103 47.0776 40.1362 47.0662 40.4843C47.0608 40.6509 47.999 41.5264 47.0655 41.8664C47.0898 41.4752 46.7269 41.3032 46.5636 41.0536C45.8311 39.9339 45.7637 38.4357 46.4584 37.285H46.4577ZM47.6705 37.6877C47.7744 37.5764 47.3326 37.3518 47.2395 37.3572L46.9299 37.89L47.6705 37.6877ZM63.6225 37.5663C63.5004 37.5825 62.3442 37.946 62.291 37.9906C62.2451 38.0283 62.2215 38.0675 62.2201 38.1275C62.2019 38.3912 62.3247 38.5153 62.5864 38.4951C62.7024 38.4863 63.7837 38.145 63.8687 38.0857C64.0724 37.944 63.9611 37.5218 63.6232 37.5656L63.6225 37.5663ZM28.1315 37.9589L27.121 38.3636C27.1493 38.487 27.3402 38.4924 27.434 38.5882C27.552 38.7089 27.6323 38.9147 27.7605 39.0361L28.1308 37.9589H28.1315ZM44.9751 38.0931C44.5239 38.232 44.4045 38.2489 44.3667 38.7305C44.2595 40.1025 44.9933 42.0431 46.277 42.6873C47.6517 43.3773 48.7417 41.6323 48.2203 40.4735C48.0334 40.058 47.8345 40.1126 47.4695 40.3501C48.5049 41.1635 47.6004 42.8876 46.3957 42.029C45.3137 41.258 44.5502 39.3841 44.9745 38.0931H44.9751ZM39.956 39.2384H38.7432C38.7155 39.2384 38.6251 39.0651 38.6426 39.2715C39.5492 40.2361 38.9772 41.8576 40.2123 42.6212C41.4649 43.3956 43.2214 42.3257 43.68 41.0765C43.8777 40.5389 43.7637 39.5332 43.5775 38.9848C43.5458 38.891 43.5114 38.7986 43.4885 38.7029L42.8868 38.8357C43.8392 40.2887 42.8025 42.5315 40.93 42.174C39.8804 41.9736 39.9377 40.9821 39.5769 40.2253C39.4467 39.9521 39.1991 39.7329 39.1141 39.4421C39.2275 39.3302 39.5917 39.8826 39.6396 39.9609C40.0592 40.6435 40.0376 41.7187 40.9455 41.9568C42.5367 42.3743 43.5701 40.1652 42.7424 38.9133L41.9438 38.9706C42.0052 39.3214 42.1111 39.7443 41.8399 40.0465C41.4892 40.1598 41.6423 39.2486 41.4635 39.0469L40.7978 39.1062C40.9549 39.4152 41.1492 40.5511 41.4642 40.6232C42.1104 40.5956 42.2507 39.8239 42.3485 39.3079C42.8079 39.8084 42.4497 40.9268 41.8251 41.177C40.4996 41.7079 40.5907 39.8563 39.956 39.2405V39.2384ZM27.1203 40.1814C26.947 39.6384 26.6387 39.2034 26.2097 38.8351C26.0492 38.8047 26.1301 38.9086 26.1086 39.0003C25.9312 39.7659 26.346 39.6202 26.5295 40.1329C26.5949 40.3157 26.5814 40.5005 26.6448 40.6914C26.8418 41.2856 27.4522 41.8327 27.4576 42.5409L27.8617 42.4728C27.9041 42.4256 27.5939 41.5487 27.5372 41.4172C27.4434 41.2006 26.7817 40.1976 26.8519 40.1153L27.121 40.1821L27.1203 40.1814ZM40.0571 56.2865C41.7198 56.7991 42.6898 58.447 44.1893 59.2638C47.3582 60.9906 50.8995 59.0345 52.0516 55.8507C53.3899 52.1509 51.7676 48.4228 51.9835 44.5962C52.0678 43.1075 52.5008 41.631 52.5885 40.1477C52.6007 39.942 52.629 38.9396 52.5251 38.8627L51.9113 39.0104C52.0388 40.6327 51.456 42.1726 51.1956 43.7416C50.6169 47.2242 51.6482 48.8646 51.8479 52.01C52.1683 57.0669 48.1252 61.6153 43.3947 57.8365C42.5023 57.1236 41.4521 55.8399 40.1583 56.1549C40.0578 56.1792 40.0396 56.1064 40.0571 56.2878V56.2865ZM22.3373 39.4408C22.4931 40.2698 23.1811 40.4148 23.9055 40.1666C24.4485 39.9804 24.7453 39.8057 24.6273 39.1703C24.1146 39.6067 23.4489 40.0377 22.7595 39.7254C22.5949 39.6512 22.5302 39.4388 22.3379 39.4408H22.3373ZM51.4439 39.171C50.6776 39.1528 50.9643 39.5743 50.9042 40.0796C50.8476 40.5511 50.6209 41.2472 50.4139 41.6782C50.1103 42.3109 49.6537 42.6091 49.7899 43.4198C49.8682 43.8873 50.3545 44.261 50.2176 44.7163C50.1528 44.9315 49.6645 45.1453 49.4904 45.3375C49.0783 45.7942 49.0351 46.6056 49.3002 47.1446C49.4102 47.3672 49.7076 47.5749 49.6914 47.8259C49.6773 48.0458 49.2199 48.4444 49.0938 48.7149C48.764 49.4211 49.0574 49.9897 49.5134 50.5361C49.6327 50.6791 49.8965 50.7452 49.9498 51.0137C50.0031 51.2821 49.7825 51.755 49.7562 52.0734C49.7171 52.5482 49.8 52.9631 49.8951 53.4204C49.2537 54.2514 48.196 54.9327 48.0813 56.0774L48.3039 56.1563C48.7289 55.1553 49.3407 53.9742 50.4995 53.726C50.229 53.247 50.0274 52.7115 50.1015 52.1489C50.1474 51.8009 50.4327 51.4474 50.3525 51.0805C50.2789 50.7445 49.6577 50.4619 49.4459 50.0977C48.9049 49.1668 49.5005 48.4019 50.1528 47.7537C49.8176 47.1628 49.3825 46.9517 49.4958 46.1517C49.5936 45.4596 50.5447 45.0751 50.6223 44.7156C50.7585 44.0829 49.8749 43.4623 50.3653 42.7089C50.7073 42.1841 51.1302 42.3251 51.2348 41.4887C51.2435 41.4165 51.2928 41.2438 51.1754 41.2607C51.0681 41.6323 50.8563 41.9878 50.5339 42.203C50.4833 42.2138 50.4901 42.1376 50.5015 42.1032C50.6317 41.7086 50.9926 41.2033 51.1552 40.7345C51.3272 40.2361 51.481 39.7012 51.4439 39.1703V39.171ZM50.7026 39.3733L50.3066 39.4482C50.3012 40.0573 50.3565 40.6995 49.9302 41.1952C49.6678 41.5008 49.1855 41.5325 49.2887 42.0688C50.4523 41.602 50.7545 40.549 50.7026 39.3733ZM52.8597 41.3949C53.3696 40.8303 53.4263 40.1194 53.1275 39.4408L52.8597 41.3949ZM50.0962 39.5757L49.7717 39.6553L49.423 41.2593C49.5768 41.4097 49.9154 40.6907 49.9471 40.6044C50.0698 40.2678 50.1265 39.9352 50.0968 39.575L50.0962 39.5757ZM25.9757 39.8448C25.8023 40.6374 26.2792 41.0192 26.5733 41.6391C26.6488 41.7976 26.9517 42.7372 27.0192 42.7413L27.2451 42.5679C27.1507 41.9662 26.7892 41.4678 26.549 40.9221C26.3865 40.5524 26.4236 40.085 25.9757 39.8448ZM48.8159 39.9123L48.3444 40.0479L48.6149 40.6529L48.8159 39.9123ZM24.5598 40.317C22.4722 40.8006 22.3561 42.1976 23.148 43.9541L23.4819 43.8873C23.0691 43.2121 22.918 42.1335 23.3585 41.4394C23.434 41.3207 23.9265 40.8121 23.8071 41.2141C23.7632 41.3632 23.6216 41.4893 23.5582 41.6391C23.2755 42.3048 23.3942 43.1015 23.6924 43.745L24.0883 43.6849C23.7646 42.9713 23.6283 42.3311 23.9845 41.5946C24.2226 41.1015 24.7231 40.972 24.5592 40.317H24.5598ZM22.4722 41.1925L22.8074 40.692L22.4047 40.3845L22.4722 41.1932V41.1925ZM53.8695 47.9304C53.7636 47.4394 54.1919 47.0407 54.2108 46.4829C54.2351 45.7753 53.6981 45.1581 53.6968 44.8654C53.6954 44.5578 54.0415 44.0782 54.0044 43.519C53.9639 42.9099 53.3346 42.1908 53.3352 41.9669C53.3352 41.7632 53.711 41.4509 53.7022 41.1851L53.5322 40.7534C53.4202 41.0563 52.9379 41.689 52.9285 41.9743C52.9177 42.2988 53.4277 42.6833 53.5659 43.0117C53.8546 43.695 53.6624 44.3406 53.2631 44.9335C53.1963 44.9814 53.1437 44.9146 53.1545 44.8269C53.1835 44.5955 53.4067 44.2846 53.4486 44.0404C53.5794 43.2795 53.2158 42.7898 52.7241 42.2704C52.7632 42.4741 52.6115 42.7048 52.6668 42.8957C52.7329 43.1237 53.1599 43.289 53.1255 43.7787C53.0897 44.288 52.3659 44.7048 52.4516 45.0535C52.9251 45.3389 53.3211 45.836 53.3325 46.4174C53.342 46.8991 52.8739 47.3638 52.9386 47.8117C53.0418 48.5199 54.4179 48.5665 54.5939 49.5978C54.7632 50.5908 54.3275 50.7297 53.9922 51.4568C53.6934 52.103 54.1339 52.1118 54.2438 52.644C54.3538 53.1762 54.2755 53.5479 54.0388 53.9965C53.9201 54.2211 53.5693 54.5833 53.5349 54.7742C53.4755 55.1047 53.6637 55.6774 53.6705 56.0477C53.6846 56.8625 53.3717 57.8291 52.7943 58.4119C52.4401 58.7694 51.7987 58.9623 51.7137 59.5208C52.8725 59.0237 53.8067 58.2615 53.9362 56.9259C53.9976 56.2925 53.7696 55.2922 53.8836 54.7843C53.9538 54.472 54.3848 54.1846 54.5453 53.8966C54.8813 53.2929 54.8698 52.4025 54.6094 51.7719L54.1723 52.1084C54.0273 51.4602 54.7167 51.0575 54.8833 50.4612C55.0816 49.7523 54.855 48.9638 54.2688 48.5078C54.055 48.3412 53.4121 48.1125 53.344 47.8825C53.2165 47.4542 53.5868 47.1068 53.6509 46.7351C53.7696 46.0458 53.5396 45.6154 53.1282 45.1008C53.804 45.2229 53.9329 46.1807 53.8695 46.7513C53.8222 47.1763 53.1889 47.8839 53.8695 47.9297V47.9304ZM26.4478 42.8775L26.6515 42.8458C26.8316 42.7224 26.4472 41.921 26.348 41.7308C26.2583 41.5588 26.1268 41.3146 25.977 41.1932C25.8313 41.8583 26.3635 42.2543 26.4485 42.8782L26.4478 42.8775ZM24.5598 43.5507C24.4404 43.1574 24.317 42.864 24.3548 42.4357C24.3892 42.0465 24.686 41.718 24.5592 41.26C24.1187 41.6141 23.9716 42.1564 24.0182 42.7116C24.0425 43.005 24.1666 43.6559 24.5598 43.5507ZM44.706 42.2023L44.2682 41.5305C44.0166 41.9629 43.7832 42.3494 43.394 42.6765L42.4827 43.2809C42.8342 43.1716 43.361 43.123 43.6753 42.9585C44.0281 42.7736 44.2399 42.2455 44.706 42.2023ZM53.8688 41.5966C53.7076 41.5352 53.6543 41.7949 53.6658 41.8981C53.6772 42.0013 53.9018 42.2644 54.0037 42.3379L53.8695 41.5966H53.8688ZM50.0962 41.8671C49.3103 42.1996 49.0392 42.8822 49.2516 43.689C49.3838 44.1908 49.8594 44.4896 49.6253 45.0333C50.4759 44.6367 49.7643 44.1551 49.5916 43.6181C49.3737 42.9396 49.6665 42.3811 50.0962 41.8671ZM24.829 43.4165C24.7386 43.1008 24.7291 42.775 24.6779 42.4559C24.6684 42.3952 24.6495 42.2536 24.5605 42.2711C24.5551 42.634 24.545 43.15 24.829 43.4165ZM30.6238 42.3379L20.2941 45.72L20.1862 45.8144L20.3157 46.3142L30.692 42.6738L30.6238 42.3379ZM48.3444 42.8107L47.6935 43.3389C46.9636 43.7429 46.1502 43.521 45.5201 43.0401C45.3387 42.9018 45.052 42.5025 44.8706 42.4721C44.4834 42.4074 44.1057 42.7892 43.8972 43.0785C44.8706 43.0846 45.9181 43.2755 46.1576 44.3622C46.6972 44.1308 47.3947 44.2549 47.8675 43.9163C48.2608 43.635 48.165 43.2134 48.3437 42.8101L48.3444 42.8107ZM50.7019 43.9547L50.9717 42.4728C50.5488 42.7574 50.4469 42.9935 50.5171 43.5015L50.7019 43.9547ZM20.5875 47.1203L30.7109 43.2674C30.9233 43.1844 30.8357 42.8991 30.6218 42.972L20.4499 46.5847L20.5875 47.121V47.1203ZM52.455 44.4269C52.8239 44.1557 53.0472 43.606 52.6223 43.2816L52.455 44.4269ZM54.9467 48.47L54.803 46.4923L54.3416 43.8212C54.3248 44.1416 54.1015 44.6299 54.1393 44.9267C54.1609 45.096 54.3551 45.3092 54.4266 45.5203C54.6816 46.269 54.6135 46.926 54.2742 47.6302L54.946 48.47H54.9467ZM31.3652 44.3588C31.2383 44.1477 31.2579 43.9109 30.9604 43.9837C30.0363 44.2111 29.2006 45.4623 29.3443 46.4154C29.3672 46.5335 29.9898 46.9962 30.1018 46.976C30.4532 46.9125 30.3878 46.3257 30.5038 46.0242C30.6792 45.5702 31.2039 45.1116 31.7031 45.1001C31.7544 45.0502 31.5662 44.5429 31.4043 44.5632C30.4026 44.806 29.861 45.7321 29.8158 46.7183C29.6647 46.6744 29.6809 46.5496 29.6863 46.4262C29.7254 45.5122 30.437 44.5281 31.3658 44.3588H31.3652ZM49.3548 47.9311C49.3845 47.606 49.0918 47.4178 48.9866 47.121C48.8375 46.7014 48.8476 46.1888 48.9704 45.7605C49.1572 45.1068 49.7198 44.8822 48.9521 44.1578C48.915 44.4721 48.8422 44.8235 48.8172 45.1352C48.7714 45.7193 48.6945 46.9469 48.9171 47.4603C48.9474 47.5311 49.2705 48.0296 49.3555 47.9311H49.3548ZM18.1525 45.5122C17.8456 45.523 17.5461 45.4488 17.3174 45.235C17.0193 44.9557 16.995 44.2246 16.5221 44.3702C16.137 44.489 16.3913 45.1176 16.5282 45.3503C16.8412 45.8825 17.741 46.4019 18.3616 46.178L18.1525 45.5122ZM47.8527 45.1203C47.5842 44.7972 46.7235 44.7608 46.3653 44.9746C46.1542 45.1008 46.1407 45.5311 46.0375 45.7922C45.8898 46.1672 45.0952 47.2404 44.7957 47.5156C44.0274 48.2218 43.133 47.8306 42.2615 48.1483C40.7242 48.7095 41.187 50.5914 42.5313 51.0832C43.533 51.4494 44.5407 51.1499 45.425 50.638L46.2554 50.0882C45.6604 50.0599 45.1694 50.5685 44.6183 50.7742C44.0821 50.9746 43.5013 51.069 42.938 50.9462C41.502 50.6339 41.0844 49.0758 42.3822 48.2683C42.4915 48.3351 42.3607 48.4174 42.3155 48.4707C41.8615 49.0076 41.558 49.4697 42.0423 50.1577C42.6689 51.0481 44.0153 50.8086 44.8652 50.4147C45.3198 50.2042 46.2088 49.4366 46.6608 49.9857C46.936 50.3196 46.739 50.557 46.4523 50.7891C45.4406 51.6079 43.8298 52.1435 42.5488 51.8076C39.9276 51.1196 40.8018 47.8805 38.1179 47.0744C36.5293 46.5975 36.0336 47.3011 34.7702 47.7982C33.5844 48.265 33.1648 47.1675 32.1415 47.0549C31.6073 46.9962 30.897 47.0785 30.6346 47.6154L30.8613 47.9304C31.2269 47.5331 31.724 47.4501 32.2461 47.5567C32.9759 47.7065 33.3118 48.5469 34.2299 48.5436C35.4042 48.5388 36.0862 47.1844 37.784 47.5439C40.2244 48.0613 39.4973 51.0609 41.7064 51.9095C41.9337 51.9965 42.2743 51.9749 42.4166 52.1759C41.7779 52.2353 41.1634 52.0046 40.6966 51.5715C39.5222 50.4822 39.7469 48.4093 37.9674 47.8319C36.188 47.2545 35.3826 48.9388 33.8987 48.7338C33.1668 48.6326 32.6845 47.7456 31.9318 47.666C31.5378 47.6242 31.2451 47.8137 30.895 47.9324L31.1857 48.3284C32.2306 47.6323 32.8451 49.0859 33.8333 49.2046C35.413 49.3948 36.2555 47.5547 37.9884 48.2839C39.2389 48.8107 39.2376 50.501 39.9924 51.4683C40.4936 52.1105 41.3563 52.5678 42.1806 52.5678C42.7485 52.5678 45.9822 51.6012 46.4793 51.2882C47.3839 50.7182 47.4075 49.2997 46.2905 49.2747C45.4567 49.2565 44.5623 50.3756 43.4676 50.3513C42.878 50.3378 42.2811 49.9776 42.3539 49.3213C42.449 48.4619 43.4628 48.7668 44.0213 48.6279C44.4834 48.5132 45.4021 47.7793 45.6638 47.3733C46.0328 46.8012 46.105 45.0697 47.1343 45.3355C48.0274 45.5662 47.8736 47.4299 47.6017 48.1011L48.0085 48.4714C48.2081 47.8947 47.9221 47.3813 47.8756 46.8195C47.8479 46.4862 47.8675 46.0815 47.8716 45.7395C47.8743 45.523 48.0227 45.3234 47.8547 45.121L47.8527 45.1203ZM28.6023 49.0771C28.7379 48.3702 28.4337 47.6788 28.3986 47.0245C28.3628 46.3567 28.6428 45.6822 28.2326 45.0347L27.8583 45.2067C28.1645 46.1193 27.8684 47.2026 27.9925 48.1031C28.0269 48.3547 28.404 48.9051 28.6016 49.0771H28.6023ZM50.5676 45.1689C50.4408 45.1392 50.4078 45.2411 50.3322 45.3031C49.8432 45.7038 49.5059 46.2731 49.8128 46.9011C49.9053 47.0906 50.3214 47.3793 50.3383 47.4899C50.4091 47.9493 50.0483 48.0876 49.829 48.3709C49.4297 48.8876 49.2543 49.5014 49.6638 50.0828C49.8938 50.41 50.4617 50.58 50.5562 51.0123C50.6398 51.3955 50.2763 52.043 50.2985 52.5442C50.3201 53.0447 50.5784 53.4858 50.7707 53.9276C49.5066 54.1368 48.8226 55.4291 48.5447 56.5543C47.6442 56.3708 46.7046 55.9162 46.1886 56.9954C46.3829 57.5094 46.6088 56.9617 46.8827 56.8119C47.278 56.5954 48.0537 56.4605 48.2102 57.0278C47.8938 56.9704 47.5856 56.9145 47.2625 56.99C46.8186 57.0932 46.4814 57.7974 46.0571 57.3954C45.91 57.2558 45.8149 56.9151 45.6787 56.764C45.1573 56.1853 44.4416 56.7155 44.1697 56.592C43.8062 56.1111 43.5505 55.6126 43.023 55.2767C42.9603 55.3509 43.8035 56.8214 44.0348 56.9273C44.2264 57.0156 44.7512 56.8301 45.1134 56.9253C45.5505 57.0399 45.908 57.7961 46.4341 57.8345C46.7498 57.8575 47.112 57.4993 47.4689 57.3974C47.8257 57.2956 48.2392 57.3583 48.5002 57.2834C48.9056 57.1674 48.8874 56.3654 49.0722 56.0362C49.1673 55.8662 49.3076 55.8487 49.3589 55.7651C49.7609 55.1074 49.9363 54.3566 50.8388 54.13C50.8874 54.4066 50.5663 54.4545 50.4031 54.6029C49.9977 54.9698 49.5066 55.7165 49.2334 56.1954C49.0027 56.6001 49.0587 57.0939 48.6169 57.3306C49.253 57.4048 49.7575 56.5489 50.0429 56.0619C50.2526 55.705 50.3801 55.2963 50.6223 54.9563C50.7457 54.7829 51.0911 54.5084 51.1423 54.3978C51.3191 54.0147 50.6985 52.9577 50.7005 52.4113C50.7032 51.6349 51.4749 51.237 50.6398 50.5226C50.283 50.2177 49.74 50.1166 49.6975 49.5054C49.6415 48.6994 50.5231 48.4822 50.6257 48.0154C50.6506 47.9021 50.5899 47.208 50.5562 47.1014C50.5191 46.9834 50.3282 46.8707 50.2452 46.7392C49.7663 45.981 50.7248 45.9028 50.5703 45.1675L50.5676 45.1689ZM19.0827 45.2492C18.9653 45.2896 18.7663 45.3051 18.7751 45.4576L19.8078 48.3264C19.967 48.2596 20.2098 48.2117 20.1687 47.9837C19.9542 47.5594 19.4624 45.4879 19.2068 45.2957C19.1677 45.2667 19.1366 45.2377 19.0833 45.2492H19.0827ZM27.7261 47.5945C27.7315 46.8276 27.7537 46.0559 27.5912 45.3031L27.2633 45.4765C27.4947 46.1631 27.1723 47.0623 27.7261 47.5945ZM41.473 57.6349C41.7826 58.9731 41.9397 60.6952 43.4952 61.1707C44.3627 61.4358 44.6028 60.9198 45.1944 60.9535C45.6193 60.9771 46.082 61.3954 46.4564 61.5788C48.3208 62.4901 50.2641 62.3073 51.2321 60.2878C51.4783 59.7738 51.5309 59.1964 51.9464 58.7782C52.5096 58.2109 52.8901 58.194 53.2287 57.2976C53.6334 56.2258 53.2583 55.645 53.4142 54.7202C53.5302 54.0315 54.2459 53.8865 54.0556 52.7654C53.9646 52.2305 53.4863 52.1206 53.742 51.4757C54.0165 50.7816 54.6013 50.5988 54.3936 49.5972C54.2108 48.7149 53.002 48.7365 52.7761 48.0478C52.5022 47.2127 53.4162 46.6704 52.9164 45.8185C52.8482 45.7031 52.5251 45.3328 52.3882 45.403C52.4766 45.8704 52.6223 46.265 52.5818 46.7446C52.5696 46.8869 52.484 47.0313 52.4772 47.1662C52.4664 47.3982 52.5386 48.124 52.6209 48.3372C52.8192 48.8471 53.6813 48.9537 53.9626 49.556C54.3733 50.4356 53.4047 51.0393 53.0607 51.7388C53.5585 52.4518 53.9335 52.9597 53.4762 53.84C53.3575 54.0693 52.9723 54.4511 52.9352 54.6521C52.8981 54.8531 53.1423 55.5398 53.1302 55.9182C53.1106 56.528 52.8287 57.386 52.4516 57.8689C52.2236 58.1617 51.6509 58.5151 51.5187 58.7559C51.3548 59.0547 51.2746 59.5896 51.0972 59.9519C50.0705 62.0483 47.6571 62.3269 45.9849 60.8031C46.449 60.9569 46.8247 61.2631 47.2962 61.4109C48.7714 61.8743 50.1555 61.3846 50.8725 59.9964C51.0978 59.5593 51.1774 58.909 51.3852 58.5549C51.5241 58.3182 51.9383 58.0854 52.1508 57.8379C52.7572 57.1317 52.9717 56.0484 52.7895 55.1418C52.6924 55.1256 52.6985 55.2585 52.6755 55.3293C52.3983 56.1853 52.5042 56.7296 51.9127 57.5323C51.6489 57.8898 51.0344 58.3101 50.9211 58.6972C50.8563 58.9171 50.855 59.1728 50.7714 59.4237C50.3127 60.8011 48.8483 61.5073 47.454 61.1869C46.7107 61.0163 46.219 60.4713 45.5957 60.2824C44.7141 60.0146 43.6928 60.3229 42.9907 59.5181C42.7101 59.1964 42.6723 58.7364 42.3802 58.4443C42.1617 59.4062 42.9428 60.4557 43.931 60.532C44.5455 60.5792 45.1026 60.2122 45.7151 60.5333L44.1347 60.8045C42.6365 60.8766 41.8696 59.4331 41.9957 58.0868L41.4716 57.6349H41.473ZM27.1197 46.3136L27.0522 45.5048L26.7831 45.5729C26.7514 45.6046 26.8782 45.8805 26.9072 45.954C26.9436 46.0478 27.0232 46.2805 27.1197 46.3136ZM47.398 47.9965C47.6287 47.4495 47.7839 46.1301 47.3023 45.7065C47.0884 45.5183 46.7491 45.5095 46.5933 45.7746C47.3373 45.9709 47.3029 46.7763 47.1687 47.3955C47.0958 47.7341 46.7647 47.9324 47.398 47.9965ZM32.3763 46.3817C32.263 46.2313 32.1382 45.7153 31.9426 45.7092C31.5689 45.7773 31.1743 46.0572 31.096 46.4485C31.1918 46.4896 31.2964 46.3817 31.3314 46.3817H32.3756H32.3763ZM11.3546 46.4485H12.3988C12.4945 46.4485 13.1218 46.6657 13.2756 46.7169C13.733 46.8694 14.1572 47.1129 14.6159 47.2626L14.9923 46.5841C14.104 46.491 12.3374 45.4421 11.507 45.894C11.2628 46.0269 11.2709 46.2191 11.3539 46.4491L11.3546 46.4485ZM26.4445 45.7766C26.3898 45.7375 26.0829 45.8684 26.0027 45.9041C25.9406 45.9318 25.8772 45.8637 25.915 46.0026C26.4701 47.3409 27.1581 48.613 27.9689 49.8123C28.6731 50.8538 29.5419 51.7455 30.0802 52.8889C30.1207 52.9752 30.0788 53.0568 30.2535 52.9847C30.5193 52.874 30.0215 52.0248 29.9183 51.8386C29.461 51.0123 28.7824 50.2488 28.265 49.4488C27.5237 48.3041 26.8451 47.0866 26.4445 45.7766ZM37.5627 45.7753L37.4244 45.8164L37.2268 46.2461L37.9681 46.3136C37.8656 46.1085 37.5985 46.0161 37.5627 45.776V45.7753ZM46.2561 47.7962C46.7734 47.9169 46.8915 47.5695 46.967 47.1264C47.0297 46.7554 47.05 46.0094 46.5252 46.0782C46.4719 46.3264 46.5994 46.5814 46.5893 46.8093C46.5731 47.1587 46.3053 47.4576 46.2567 47.7955L46.2561 47.7962ZM25.3011 48.9422C25.0145 47.9992 25.1838 47.0394 25.436 46.1119L24.9113 46.3284C24.742 47.2208 24.6199 48.2286 25.3011 48.9422ZM17.0139 46.5827C16.5478 46.0107 16.0007 46.3797 15.5636 46.7837C14.334 47.9216 13.9616 52.0059 11.4881 51.268C10.106 50.8558 9.71345 48.9004 10.821 47.9702C11.7546 47.1864 13.0517 47.7692 14.0176 48.1921L14.2436 47.8286C13.1367 47.2808 12.0406 46.7041 10.8379 47.3807C8.68952 48.5894 9.72694 52.016 12.1957 51.838C13.6345 51.7341 14.2807 50.2258 14.8486 49.1007C15.3876 48.0323 15.5926 46.833 17.0139 46.5827ZM24.6273 46.4491L24.0978 46.6825L24.4263 47.5264C24.5234 47.5311 24.5281 47.2829 24.5403 47.2039C24.5787 46.9557 24.5868 46.6974 24.6273 46.4491ZM25.7052 46.4485C25.5271 46.4323 25.5959 46.4451 25.5723 46.5497C25.0455 48.8707 25.9042 50.3648 28.1982 50.9638C28.2657 50.8977 27.9588 50.6009 27.8961 50.559C27.5615 50.3324 27.121 50.24 26.7514 49.9513C26.1625 49.4919 25.7531 48.7857 25.7065 48.0316C25.6715 47.4643 25.9527 46.9901 25.7045 46.4491L25.7052 46.4485ZM18.5612 46.7871C18.1693 46.8606 16.1775 47.4697 16.2071 47.898C16.9431 48.3398 17.9265 47.5291 18.6962 47.3881L18.5612 46.7871ZM44.7734 47.1905L43.6281 47.7281C44.0686 47.7537 44.4834 47.5075 44.7734 47.1905ZM27.66 50.1543C27.3652 49.5864 26.7318 49.3786 26.435 48.7857C26.2225 48.3621 26.2799 48.012 26.1585 47.5797C26.1362 47.4994 26.0748 47.2687 25.9763 47.2572C25.7531 48.5476 26.3534 49.78 27.66 50.1537V50.1543ZM29.2094 49.9864C29.1918 49.4724 29.2094 48.9516 29.2094 48.4363C29.2094 48.3115 28.9321 47.3753 28.8377 47.3254C28.721 47.3098 28.7331 47.3213 28.7352 47.4272C28.7399 47.7274 28.8707 48.1456 28.8728 48.437C28.8741 48.6839 28.7385 49.098 28.7736 49.3577C28.8053 49.5931 29.096 49.8427 29.1439 50.0876H29.2431C29.3382 50.0768 29.2107 50.0039 29.21 49.987L29.2094 49.9864ZM29.5473 50.559C29.6707 50.5381 29.6606 50.4201 29.6903 50.3324C29.9648 49.5284 29.9183 48.0896 29.21 47.5264C29.5527 48.5247 29.2694 49.5628 29.5473 50.5584V50.559ZM18.9673 47.9318C18.8864 47.8731 18.4284 48.3459 18.3616 48.437C17.965 48.9766 17.857 49.751 18.2112 50.3392C18.3171 50.5159 18.4486 50.5402 18.651 50.4788C19.0213 50.3668 18.715 49.8865 18.6962 49.6484C18.6671 49.2768 18.8338 48.8046 19.1751 48.6292L18.9666 47.9318H18.9673ZM29.9513 51.1654C30.118 51.0427 30.2023 50.694 30.2542 50.4923C30.4741 49.643 30.5969 48.6549 29.8164 48.066C30.0775 48.696 30.0984 49.3031 30.0013 49.9695C29.9379 50.4039 29.6775 50.7162 29.9513 51.1654ZM41.2693 48.2009H40.5286L40.8666 48.8741L41.2699 48.2009H41.2693ZM11.8767 48.2852C10.8527 48.3466 10.5344 49.7591 11.3532 50.3924C12.4554 51.2457 13.2635 49.6896 13.6406 48.8478C13.5947 48.6454 12.1357 48.269 11.8767 48.2852ZM32.1975 49.1884C32.9739 49.8474 33.751 50.2569 34.7999 49.9176C35.7678 49.6046 36.3951 48.2866 37.6113 48.7945C38.5017 49.1661 38.6946 50.7095 39.1681 51.4825C40.5441 53.728 43.4021 53.33 45.5134 52.4788C46.7991 51.9607 48.5805 50.6299 47.4979 49.0812C46.3316 47.4124 44.6938 49.5075 43.4682 49.409C43.3286 49.3975 42.8011 49.2032 42.7485 49.2397C42.4834 49.5931 42.7573 49.9095 43.1188 50.0241C44.507 50.4653 45.6733 48.4329 46.8847 49.2228C47.6665 49.7328 47.3832 50.899 46.7228 51.3968C46.1589 51.8218 43.8372 52.4525 43.0507 52.6433C41.2861 53.0717 40.0524 52.3095 39.3259 50.7182C38.9239 49.838 38.8356 48.8033 37.7644 48.4383C35.96 47.8245 35.0926 50.3506 32.9881 49.1048C32.5112 48.8228 31.8468 48.012 31.2984 48.6043C31.7544 48.5449 31.9506 48.9786 32.1975 49.1877V49.1884ZM51.2408 50.8963C51.168 50.6818 51.1902 50.2825 51.0432 50.1179C50.8516 49.9027 50.2486 49.9338 50.1973 49.4899C50.1481 49.0643 50.7707 48.723 50.6695 48.3358C50.3801 48.6272 49.8479 49.1122 49.9066 49.5641C49.9741 50.0876 50.6041 50.1496 50.9076 50.4558C51.0533 50.6022 51.0735 50.7958 51.2415 50.8963H51.2408ZM15.6662 49.0083C16.3724 49.2619 17.4766 49.465 17.6196 48.47C17.0645 48.6953 16.4722 48.7641 15.8989 48.557L15.6662 49.0083ZM52.9939 51.3004C54.1413 50.244 54.1083 49.4845 52.6567 48.8073C52.5352 49.3813 53.4088 49.5243 53.4668 49.923C53.5282 50.3466 52.9946 50.5193 52.9352 50.7432C52.8934 50.901 53.0358 51.1223 52.9939 51.301V51.3004ZM50.9717 49.6835L50.8044 48.9429L50.5177 49.382L50.9717 49.6842V49.6835ZM16.2051 49.3476C15.9872 49.3186 15.6992 49.0946 15.4975 49.2781C14.9046 50.3331 14.425 51.5283 13.3377 52.1745C13.6399 52.9739 14.3765 52.2218 14.6908 51.84C15.2534 51.1567 15.5852 50.2272 16.1707 49.5459L16.2051 49.3469V49.3476ZM31.2316 51.301C31.2208 51.473 31.1641 51.9169 31.0292 52.0093C30.7419 52.2062 31.0805 51.1324 31.0893 51.0575C31.1304 50.6872 31.0899 50.3115 30.9935 49.9547L30.6252 49.212C30.665 49.7672 30.5834 50.2697 30.4249 50.7978C30.3419 51.0737 30.0809 51.2774 30.2212 51.5695L30.6913 50.6272C30.7817 50.982 30.3291 51.5816 30.3844 51.8407C30.4087 51.9526 30.7797 52.6541 30.8647 52.7789C31.0953 53.1175 31.4866 53.4312 31.7159 53.8143C31.9034 54.128 32.037 54.7114 32.2097 54.9374C32.4026 55.1897 32.6022 55.098 32.5759 54.7782C32.5442 54.3917 32.0572 53.5695 31.8245 53.2329C31.5918 52.8963 31.1803 52.6029 31.1702 52.2029C31.1648 51.9978 31.2795 51.7516 31.297 51.5337C31.3031 51.4595 31.3469 51.2828 31.2316 51.2997V51.301ZM31.9055 49.8859C31.8764 49.9223 32.0539 50.6993 32.1139 50.7891C32.2009 50.9192 32.3689 50.9334 32.4781 51.0312C33.2302 51.7057 33.2113 52.3364 33.7091 53.102C35.0663 55.1897 37.7954 54.0322 38.0282 51.7982C38.1671 50.4599 37.5418 48.3898 36.045 50.0228C36.186 50.5368 36.356 50.9024 36.2784 51.4636C36.1948 52.0727 35.6106 52.3978 35.1358 51.9445C34.9091 51.7287 34.5705 50.8585 34.466 50.7945C34.3338 50.7142 34.0822 50.7796 33.9263 50.7621C34.4093 51.4339 34.5543 52.7634 35.5756 52.7877C36.7358 52.8153 36.9907 51.4123 36.5543 50.5597C37.6369 51.531 36.5287 53.5297 35.0919 52.9314C34.2562 52.5833 34.1537 51.1654 33.6248 50.7601C33.4602 50.6339 32.9813 50.5577 32.7351 50.437C32.4404 50.2919 32.2022 50.0282 31.9055 49.8859ZM28.6697 51.5702C28.6954 51.4609 28.632 51.4326 28.5713 51.3658C28.3311 51.1007 27.4961 50.9914 27.0967 50.8194C26.6974 50.6474 26.3696 50.3945 26.0431 50.0876C26.3548 50.7884 26.9996 51.3752 27.778 51.4852C28.0795 51.5277 28.3891 51.4454 28.6697 51.5702ZM35.5439 51.4353C35.7509 51.5789 35.6801 50.4565 35.5101 50.358L35.073 50.5928L35.5439 51.4353ZM49.2881 50.8963V52.8167C49.2881 52.8794 49.4412 53.3631 49.5565 53.3894C49.626 52.9651 49.4567 52.6062 49.4911 52.1435C49.5316 51.6046 49.9612 51.1641 49.2874 50.8963H49.2881ZM45.6497 55.5472C46.0287 55.9937 46.2615 55.5836 46.5926 55.4453C46.8132 55.3529 47.1181 55.3421 47.3023 55.2113C47.4965 55.073 47.8689 54.3317 48.0476 54.0693C48.2135 53.8258 48.5582 53.5944 48.5501 53.2929C48.5447 53.0838 48.4274 52.8342 48.4132 52.6137C48.3808 52.0875 48.4827 51.5418 48.3437 51.0312C48.227 51.1432 47.9039 51.6329 47.8844 51.753C47.8621 51.8899 48.0591 52.4349 48.0611 52.6825C48.0732 54.1691 46.9272 55.0818 45.6497 55.5472ZM51.4439 53.4231C51.4958 53.0514 51.4439 52.4761 51.4439 52.0754C51.4439 52.0552 51.3892 51.7435 51.3771 51.6707C51.3602 51.5708 51.3744 51.4629 51.2429 51.4353C51.2084 51.7536 50.973 52.0896 50.973 52.412C50.973 52.8012 51.282 53.2019 51.3103 53.5911C51.3778 53.616 51.4405 53.4508 51.4445 53.4231H51.4439ZM29.0745 52.0417C29.0144 51.614 28.3763 51.8029 28.0384 51.7638C27.7004 51.7246 27.3895 51.6248 27.0873 51.502C27.0927 51.6147 27.3079 51.8184 27.3922 51.871C27.4576 51.9122 27.78 52.0417 27.8279 52.0417H29.0745ZM35.9472 54.9401C34.5935 55.0197 33.6451 54.4228 32.9962 53.2747C32.756 52.8497 32.5375 52.1105 32.271 51.7759C32.2076 51.6963 32.1598 51.6133 32.0397 51.6376C31.8953 52.3499 32.4289 52.7506 32.7675 53.3017C33.1007 53.8447 33.0643 54.1738 33.6619 54.5637C34.323 54.9948 35.1877 55.1748 35.409 56.0848L35.9472 54.9401ZM47.7373 51.9749C47.1174 52.184 47.369 52.5253 47.3036 52.9887C47.2321 53.4953 46.9178 53.9843 46.5077 54.2811C45.9943 54.6521 45.0743 54.812 44.9765 55.5458C45.4277 55.6598 45.5121 55.3752 45.8163 55.2072C46.0881 55.0575 46.4152 54.9617 46.6824 54.7931C47.6159 54.2029 48.0483 53.0319 47.738 51.9749H47.7373ZM38.7755 52.0423C38.5975 52.0241 38.6669 52.039 38.6433 52.1428C38.584 52.4032 38.5759 52.6764 38.4403 52.9179L39.3158 52.783L38.7755 52.043V52.0423ZM29.3443 52.5125C29.2761 52.0606 28.8127 52.3148 28.5052 52.3142C28.2333 52.3142 27.9925 52.2798 27.7274 52.244C28.0525 52.7499 28.8417 52.7081 29.3443 52.5118V52.5125ZM52.9926 54.1975C53.3885 53.5499 53.7406 52.9583 53.0944 52.3115C53.1032 52.8693 52.9717 53.415 52.9271 53.9634C52.9211 54.0369 52.8779 54.215 52.9933 54.1975H52.9926ZM29.8144 53.2524C29.8758 53.1641 29.6235 52.673 29.5136 52.6643C29.1291 52.8895 28.7021 52.9712 28.2664 52.8511C28.5807 53.3981 29.2741 53.4042 29.8144 53.2524ZM46.6594 52.7836C46.0672 52.9793 45.5073 53.2417 44.9077 53.4231C44.2217 53.6309 43.5249 53.7766 42.8193 53.8946L43.3826 54.3263C44.0423 53.6713 45.1067 53.6437 45.9862 53.5924C45.3097 54.1738 44.2014 53.7246 43.5613 54.503L43.9269 54.8039C44.1488 54.4727 44.4524 54.2008 44.8753 54.1927C45.0379 54.1894 45.2024 54.2696 45.332 54.2528C45.8507 54.1846 46.7363 53.3867 46.6601 52.7836H46.6594ZM27.3234 53.6592C27.4313 54.5199 27.3787 55.3887 27.3875 56.2561C27.4003 57.5532 27.4158 58.8571 27.3929 60.1643C27.3827 60.7512 27.09 61.4574 27.693 61.8783C27.8596 61.8817 27.7821 60.9313 27.7915 60.7647C27.8913 58.9495 27.9507 56.9947 27.8644 55.1715C27.8549 54.9684 27.8171 54.2319 27.78 54.1098C27.7429 53.9877 27.4394 53.7482 27.3227 53.6578L27.3234 53.6592ZM33.9931 57.5C33.8434 56.2986 32.6967 56.2049 31.9493 55.67C31.3901 55.27 31.4103 54.6636 31.0825 54.1111C31.0104 53.989 30.7965 53.5998 30.6245 53.6895C30.3749 53.8413 30.6933 54.0052 30.8087 54.2507C30.9672 54.5887 30.9625 54.9792 31.0933 55.3138C31.3146 55.8784 32.066 56.1367 32.4903 56.5448L33.9931 57.5006V57.5ZM45.5822 57.5C45.3475 57.2328 45.0385 57.0676 44.681 57.102C44.3654 57.1323 44.2345 57.3394 43.9006 57.1263C43.3327 56.7627 42.959 55.5297 42.4497 54.9388C41.1991 53.4885 38.9017 53.2383 37.4298 54.5017L38.2912 54.217C39.7017 53.8561 41.1155 54.0113 42.1131 55.1404C42.6547 55.7536 42.9401 56.586 43.4379 57.1849C44.1576 58.0517 44.7073 57.3097 45.5822 57.4993V57.5ZM30.7581 55.2093C30.636 54.4241 30.6036 53.7118 29.6134 54.132L30.7581 55.2093ZM42.8861 56.7593C42.0112 54.8605 40.6312 53.8636 38.4787 54.4059C36.4464 54.9185 36.0437 56.6258 36.3519 58.5111L36.6548 57.0291C37.0818 55.0251 38.818 53.9668 40.7452 54.8922C41.5971 55.301 41.6099 55.6983 42.1502 56.2494C42.3121 56.414 42.6972 56.588 42.8861 56.7593ZM28.5355 62.2844C28.7055 59.8723 28.6893 57.4575 28.607 55.0372C28.5719 54.7749 28.261 54.5678 28.0654 54.4005L28.1348 59.7603L27.9918 61.9161C27.9109 62.1252 28.4782 62.3458 28.5362 62.2844H28.5355ZM45.0433 54.4012C44.8072 54.3 44.0254 54.7937 44.1293 55.0089L44.4389 55.1802L45.0433 54.4018V54.4012ZM54.2728 56.2197L54.6101 54.4679C54.4286 54.5968 54.1676 54.816 54.14 55.0474L54.2728 56.2197ZM35.3408 58.2075C35.2983 57.6585 35.3408 57.017 35.3408 56.4558C35.3408 56.4113 34.9665 55.7745 34.897 55.6868C34.4781 55.1566 33.8225 55.0541 33.353 54.6029L33.3307 55.1985C34.1476 55.5027 34.6238 56.1738 34.8889 56.9758C35.0413 57.4359 35.0353 58.0268 35.3752 58.3762C35.4859 58.3242 35.3422 58.2244 35.3415 58.2082L35.3408 58.2075ZM46.2561 58.4443C46.8436 58.592 47.309 58.0018 47.7879 57.9209C48.1758 57.8548 48.9427 58.0119 49.1761 57.8959C50.0665 57.4541 50.998 55.701 51.174 54.7378C50.4132 55.4042 50.312 56.5057 49.5505 57.1903C48.851 57.819 48.2911 57.3961 47.5336 57.5991C47.1883 57.6915 46.7303 58.0834 46.4854 58.107C46.0881 58.1455 45.8311 57.6747 45.4055 57.6389C45.0318 57.6072 44.6122 57.8386 44.2345 57.8386C44.6318 58.4004 45.0055 58.0227 45.481 58.0349C45.7771 58.0423 45.9748 58.2156 46.2554 58.2433C46.2702 58.3384 46.0699 58.3728 46.0153 58.3728C45.7529 58.3708 45.4486 58.2217 45.1782 58.3438C45.9464 58.7492 46.8807 58.82 47.713 58.5886L48.8159 58.1091C48.5434 58.1084 48.2756 58.0915 48.0038 58.1387C47.485 58.2278 47.2341 58.5988 46.6358 58.5738C46.5758 58.5711 46.2581 58.5367 46.2554 58.4463L46.2561 58.4443ZM41.674 55.9499C40.5057 54.4281 38.0902 54.3701 37.1944 56.221C36.2474 58.1779 36.7047 59.8095 37.0137 61.7906C37.0973 62.3276 37.1459 62.8759 37.1708 63.4189L37.3604 63.4985C37.5823 62.2007 37.1391 60.9083 37.0251 59.6234C36.9057 58.2784 36.9132 56.4733 38.1084 55.587C39.3354 54.6777 40.4605 55.5802 41.6733 55.9512L41.674 55.9499ZM29.3382 62.4813C29.4664 62.3916 29.405 60.6669 29.409 60.3613C29.4266 58.9441 29.467 57.4763 29.3436 56.0524C29.3058 55.6214 29.2498 55.3118 28.806 55.1418L28.8013 62.3808L29.3382 62.482V62.4813ZM34.8687 58.0389C34.6771 56.9731 34.3655 55.8588 33.2545 55.4393L32.7803 55.6821L32.8221 55.8204C33.2147 55.985 33.6734 56.3141 33.9257 56.6581C34.2791 57.1418 34.2144 57.8736 34.8687 58.0389ZM40.192 55.6801C39.591 55.1985 38.7445 55.4136 38.1765 55.8548C37.7813 56.1624 37.5809 56.5246 37.4285 56.9934C36.7459 59.0945 37.8177 61.4169 37.6322 63.5646C37.8494 63.5909 37.8818 63.5302 37.9047 63.3326C38.1104 61.5518 36.9557 57.7596 38.1421 56.36C38.6791 55.7266 39.4399 55.7543 40.192 55.6801ZM30.0707 56.1664C30.0545 56.1394 29.5777 55.7813 29.5466 55.8157C29.7928 58.0463 29.6741 60.3195 29.6134 62.5542L30.1099 62.5448C30.1969 62.5218 30.2063 62.4625 30.2205 62.3856C30.3115 61.8898 30.1611 61.3279 30.1503 60.8382C30.1227 59.5937 30.2205 58.2925 30.1557 57.0588C30.149 56.93 30.0937 56.2042 30.0707 56.1657V56.1664ZM39.4507 55.9512C38.5516 56.0942 37.9924 56.6993 37.9094 57.6099C37.8238 58.5536 38.3593 59.4426 38.4389 60.366C38.53 61.4284 38.3337 62.5036 38.3728 63.5653C38.4592 63.6793 38.4949 63.5572 38.5064 63.4648C38.5421 63.1822 38.5435 62.8908 38.5941 62.6082C38.785 61.5323 39.1297 60.8254 38.8248 59.7104C38.5921 58.8598 37.7287 57.7542 38.5738 56.9617C38.0356 58.2379 39.1195 59.2193 39.1796 60.4335C39.2295 61.4466 38.6406 62.5232 38.7769 63.566L38.9617 63.481C39.0177 62.1879 39.8872 60.7809 39.4157 59.5235C39.2018 58.9542 38.6615 58.4409 38.5806 57.7988C38.4902 57.0817 38.8848 56.3627 39.4507 55.9519V55.9512ZM30.4896 62.4874C31.1716 62.4422 30.9092 62.2001 30.8943 61.7785C30.8748 61.2207 30.8363 60.6466 30.8235 60.0976C30.7986 59.0197 30.8478 57.9377 30.8269 56.8598L30.3891 56.4888L30.4896 62.4874ZM51.9821 59.7913C51.6165 59.9107 51.6064 60.3215 51.431 60.621C50.3916 62.393 48.683 62.8011 46.8166 62.0274C46.4018 61.8554 45.6112 61.2564 45.2739 61.2092C44.9104 61.1586 44.5697 61.4298 44.194 61.4682C42.9866 61.5923 42.0349 60.5252 41.6935 59.4689C41.5175 58.9246 41.475 57.8082 41.1715 57.4305C40.9158 57.1121 39.5175 56.4146 39.3172 56.9286C39.2612 57.0716 39.4123 57.0197 39.4858 57.0271C41.2989 57.2025 40.959 58.6966 41.5748 59.993C42.0794 61.054 43.3954 62.3896 44.6804 61.7535C44.9279 61.6308 44.7309 61.3286 45.2436 61.5134C45.9107 61.7535 46.4375 62.4766 47.3859 62.6048C49.3231 62.8665 51.8081 62.0206 51.9828 59.792L51.9821 59.7913ZM31.6269 62.1414C31.5243 60.9461 31.4704 59.7448 31.4974 58.5421C31.5109 57.9431 31.8407 57.3367 31.0967 57.0285L31.1635 62.2844L31.6269 62.1414ZM42.3478 61.5431C41.8291 60.8834 41.3947 60.3154 41.1155 59.508C40.8369 58.7013 40.8902 57.7165 39.9688 57.3529C39.5627 57.1924 38.9489 57.0824 39.2464 57.7414C40.4396 57.5242 40.4969 58.6723 40.8146 59.4723C40.9334 59.7711 41.0527 60.0733 41.2153 60.3525C41.3091 60.5131 42.1752 61.7023 42.3478 61.5444V61.5431ZM32.2272 57.7833L31.838 57.5674V61.9471C32.5456 61.6969 32.1746 60.4841 32.1712 59.8952C32.1692 59.562 32.3021 57.9107 32.2279 57.7826L32.2272 57.7833ZM40.3256 59.05C40.3081 58.449 40.0524 57.9485 39.3833 57.9721C39.243 58.1104 40.1313 58.9832 40.3256 59.05ZM50.7026 58.7816C50.3066 58.8848 50.1886 59.3434 49.9599 59.6213C49.3171 60.4024 48.5022 60.6885 47.4999 60.6028C47.1147 60.5697 46.7687 60.3377 46.391 60.4315C48.0813 61.6065 50.2911 60.8362 50.7026 58.7816ZM38.1698 63.5646C38.1098 62.2048 38.4491 60.8186 38.0309 59.4932L37.8346 58.9158C37.7415 59.9944 38.0322 61.0507 38.103 62.1171C38.1293 62.5184 38.0875 62.9279 38.103 63.3299C38.1064 63.4122 38.0524 63.5808 38.1698 63.5646ZM44.2338 59.792L42.8875 58.9151C43.0021 59.3799 43.564 59.7556 44.0146 59.8426C44.0841 59.8561 44.25 59.9121 44.2338 59.792ZM52.0509 60.8699C52.2904 60.7411 53.3406 59.1431 53.2624 59.0507L52.3828 59.6868L52.0509 60.8699ZM49.7596 59.4554L48.6317 59.9782L47.4014 60.3303C48.2796 60.5394 49.226 60.1785 49.7596 59.4554ZM45.9856 62.4206C45.4513 62.1866 45.3043 61.8446 44.7067 62.2183L45.7704 62.4679L45.9862 62.4206H45.9856Z" fill="#F7F3CF"/>
<path d="M20.5622 55.8385C21.232 56.5083 20.4563 57.7157 19.5127 57.1916C18.426 56.5879 19.6685 54.9448 20.5622 55.8385Z" fill="#F7F3CF"/>
<path d="M61.7995 51.5176C63.1431 51.2073 63.2733 53.2599 61.9904 53.1904C61.0123 53.1371 60.9887 51.7044 61.7995 51.5176Z" fill="#F7F3CF"/>
<path d="M58.0286 18.5656C59.1652 18.3322 59.4654 20.0341 58.4009 20.2196C57.2623 20.4179 56.9871 18.7795 58.0286 18.5656Z" fill="#F7F3CF"/>
<path d="M13.5613 34.7393C14.7201 34.6766 14.7997 36.6185 13.4129 36.404C12.4834 36.2603 12.5744 34.7926 13.5613 34.7393Z" fill="#F7F3CF"/>
<path d="M40.6459 66.3436C41.9848 66.1103 41.972 68.233 40.6607 67.9841C39.7467 67.8107 39.8142 66.4887 40.6459 66.3436Z" fill="#F7F3CF"/>
<path d="M21.5099 15.8715C22.8677 15.6206 22.9041 17.5895 21.6286 17.4755C20.6822 17.3905 20.6863 16.0239 21.5099 15.8715Z" fill="#F7F3CF"/>
<path d="M61.4652 42.3534C62.5843 42.1233 62.8143 43.8495 61.7107 43.952C60.732 44.0437 60.5296 42.5456 61.4652 42.3534Z" fill="#F7F3CF"/>
<path d="M67.0572 42.9598C68.2295 42.7197 68.386 44.5658 67.1746 44.4991C66.2727 44.4498 66.2343 43.1284 67.0572 42.9598Z" fill="#F7F3CF"/>
<path d="M35.4572 7.91865C36.4865 7.70685 36.7151 9.22454 35.8969 9.43634C34.759 9.73044 34.4676 8.12236 35.4572 7.91865Z" fill="#F7F3CF"/>
<path d="M13.4871 29.0187C14.2028 29.7343 13.1209 30.8196 12.3971 30.1431C11.6403 29.4355 12.7526 28.2841 13.4871 29.0187Z" fill="#F7F3CF"/>
<path d="M57.9594 26.4495C59.2268 26.1601 59.3779 27.9901 58.1455 27.922C57.2558 27.8728 57.2612 26.6087 57.9594 26.4495Z" fill="#F7F3CF"/>
<path d="M54.1161 14.9345C54.9195 15.7008 53.5529 16.8556 52.9256 15.889C52.4386 15.1383 53.4666 14.3147 54.1161 14.9345Z" fill="#F7F3CF"/>
<path d="M8.97603 31.7728C10.379 31.4524 10.2711 33.6278 8.92476 33.2109C8.27654 33.0099 8.34939 31.9165 8.97603 31.7728Z" fill="#F7F3CF"/>
<path d="M16.6535 17.4283C17.5958 17.3946 17.6795 18.8185 16.841 18.9514C15.7085 19.1302 15.6235 17.4654 16.6535 17.4283Z" fill="#F7F3CF"/>
<path d="M26.3592 65.3319C27.4836 65.0716 27.6239 66.5629 26.8523 66.7673C25.7103 67.0702 25.5133 65.5269 26.3592 65.3319Z" fill="#F7F3CF"/>
<path d="M18.182 35.509C17.5203 34.8055 18.6529 33.7505 19.3065 34.4851C19.9614 35.2217 18.8451 36.2139 18.182 35.509Z" fill="#F7F3CF"/>
<path d="M62.7385 19.9874C63.9837 19.9159 63.5931 21.9908 62.4464 21.3945C61.72 21.0167 62.0228 20.0292 62.7385 19.9874Z" fill="#F7F3CF"/>
<path d="M23.6393 21.0666C24.2882 20.4163 25.3095 21.3229 24.7314 22.0581C24.1122 22.846 22.9196 21.7876 23.6393 21.0666Z" fill="#F7F3CF"/>
<path d="M43.8814 9.66778C44.7684 9.55581 45.022 11.0695 43.9981 11.1423C43.047 11.2098 42.9485 9.78515 43.8814 9.66778Z" fill="#F7F3CF"/>
<path d="M35.7272 67.4892C36.7741 67.2767 36.9353 68.8517 35.9647 68.9421C35.1094 69.0217 34.8268 67.672 35.7272 67.4892Z" fill="#F7F3CF"/>
<path d="M58.7628 47.5487C59.7159 47.4927 59.7955 48.9901 58.8181 49.0131C57.8717 49.0353 57.8764 47.6006 58.7628 47.5487Z" fill="#F7F3CF"/>
<path d="M11.7408 39.4557C12.785 39.2439 12.8889 40.6563 12.1799 40.8384C11.0899 41.1191 10.8842 39.6297 11.7408 39.4557Z" fill="#F7F3CF"/>
<path d="M56.008 61.7597C56.9766 61.5722 57.1581 62.9685 56.3817 63.1459C55.3146 63.3901 55.1096 61.9337 56.008 61.7597Z" fill="#F7F3CF"/>
<path d="M18.5471 60.0059C19.5123 59.8373 19.7066 61.3968 18.7231 61.4541C17.8193 61.5074 17.6958 60.155 18.5471 60.0059Z" fill="#F7F3CF"/>
<path d="M57.8777 56.6589C58.8585 56.6589 58.7681 58.1416 57.8163 58.1031C56.9732 58.0687 56.9179 56.6589 57.8777 56.6589Z" fill="#F7F3CF"/>
<path d="M19.1926 24.2559C18.5208 23.5855 19.5609 22.5757 20.2071 23.2752C20.8358 23.9558 19.8159 24.8778 19.1926 24.2559Z" fill="#F7F3CF"/>
<path d="M51.8687 11.1591C52.5304 10.5743 53.5051 11.5705 52.8265 12.2181C52.1547 12.8589 51.1793 11.7682 51.8687 11.1591Z" fill="#F7F3CF"/>
<path d="M14.6365 55.3577C15.5829 55.1425 15.8298 56.4915 15.0123 56.6777C14.0659 56.8929 13.819 55.5438 14.6365 55.3577Z" fill="#F7F3CF"/>
<path d="M31.1457 9.13081C31.8991 9.05931 32.1379 10.3423 31.3264 10.4617C30.3753 10.6013 30.1737 9.22322 31.1457 9.13081Z" fill="#F7F3CF"/>
<path d="M63.0841 46.7313C63.9522 46.6065 64.0318 47.8402 63.3883 47.9845C62.4439 48.1957 62.2497 46.8513 63.0841 46.7313Z" fill="#F7F3CF"/>
<path d="M23.3902 11.9686C24.1841 11.9133 24.3109 13.1187 23.5784 13.2246C22.6023 13.3663 22.6293 12.0213 23.3902 11.9686Z" fill="#F7F3CF"/>
<path d="M16.4961 39.621C15.9032 39.0793 16.8098 38.081 17.3885 38.7623C17.9012 39.3653 17.0418 40.1194 16.4961 39.621Z" fill="#F7F3CF"/>
<path d="M22.7612 62.4673C22.3416 61.9458 23.143 61.1189 23.6178 61.7779C24.0887 62.4315 23.1221 62.9158 22.7612 62.4673Z" fill="#F7F3CF"/>
<path d="M65.9095 50.1018C66.7277 49.8576 66.9746 50.9679 66.2656 51.1372C65.6114 51.2937 65.3483 50.2698 65.9095 50.1018Z" fill="#F7F3CF"/>
<path d="M62.472 57.1418C61.9216 57.6456 61.1526 56.706 61.7826 56.2851C62.3526 55.904 62.9475 56.7067 62.472 57.1418Z" fill="#F7F3CF"/>
<path d="M21.547 51.2524C22.067 50.7317 22.8522 51.5553 22.3045 52.0436C21.7567 52.532 21.0964 51.7037 21.547 51.2524Z" fill="#F7F3CF"/>
<path d="M68.4045 38.9134C69.108 38.7698 69.2894 39.7937 68.7107 39.967C67.9775 40.1863 67.7495 39.0477 68.4045 38.9134Z" fill="#F7F3CF"/>
<path d="M65.5752 25.5705C66.3104 25.4181 66.4264 26.5688 65.7553 26.637C65.0841 26.7051 64.958 25.6987 65.5752 25.5705Z" fill="#F7F3CF"/>
<path d="M61.5317 24.2242C62.3735 24.0393 62.47 25.2582 61.6524 25.2258C61.0622 25.2029 61.0474 24.3301 61.5317 24.2242Z" fill="#F7F3CF"/>
<path d="M55.9389 22.6086C56.8037 22.4102 56.8259 23.6257 56.1339 23.6021C55.5315 23.5819 55.4324 22.7252 55.9389 22.6086Z" fill="#F7F3CF"/>
<path d="M58.1625 39.9932C58.8627 39.8367 59.0388 40.8465 58.4013 40.9787C57.7275 41.1183 57.5386 40.1329 58.1625 39.9932Z" fill="#F7F3CF"/>
<path d="M49.3344 67.5222C48.8892 68.0457 48.1054 67.2072 48.616 66.7688C49.0996 66.3533 49.7337 67.0534 49.3344 67.5222Z" fill="#F7F3CF"/>
<path d="M57.5267 15.7014C57.1814 15.3553 57.5038 14.6896 58.067 14.8582C58.8029 15.0788 58.1358 16.3118 57.5267 15.7014Z" fill="#F7F3CF"/>
<path d="M41.1683 7.66382C41.8368 7.6618 41.7808 8.56634 41.2992 8.64526C40.5579 8.76735 40.5403 7.66585 41.1683 7.66382Z" fill="#F7F3CF"/>
<path d="M33.3678 11.8256C34.1536 11.6482 34.2568 12.9204 33.3556 12.7544C32.9233 12.6748 32.9334 11.9234 33.3678 11.8256Z" fill="#F7F3CF"/>
<path d="M47.7855 9.4674C48.5363 9.24818 48.6941 10.2006 48.1437 10.3686C47.544 10.5514 47.2924 9.61108 47.7855 9.4674Z" fill="#F7F3CF"/>
<path d="M8.90508 42.6948C9.51485 42.6611 9.52295 43.5373 9.02582 43.6189C8.31419 43.7356 8.25146 42.7312 8.90508 42.6948Z" fill="#F7F3CF"/>
<path d="M28.855 12.9407C28.403 13.427 27.715 12.6466 28.1926 12.2439C28.6695 11.8426 29.2327 12.5333 28.855 12.9407Z" fill="#F7F3CF"/>
<path d="M33.57 64.4516C34.0948 64.3687 34.2958 65.3225 33.6833 65.3838C33.0425 65.4479 33.0263 64.5373 33.57 64.4516Z" fill="#F7F3CF"/>
<path d="M53.349 19.0409C53.7328 18.6571 54.4255 19.1968 54.0053 19.6635C53.5662 20.1519 52.9415 19.4484 53.349 19.0409Z" fill="#F7F3CF"/>
<path d="M30.8058 66.7459C31.6375 66.4909 31.6375 67.8501 30.8058 67.5951C30.4834 67.496 30.4807 66.845 30.8058 66.7459Z" fill="#F7F3CF"/>
<path d="M8.23726 38.238C8.95496 38.1085 8.85311 39.4191 8.06863 39.0536C7.6855 38.8748 7.86964 38.3048 8.23726 38.238Z" fill="#F7F3CF"/>
<path d="M52.4971 64.7282C52.9962 64.6755 53.1635 65.4452 52.7446 65.574C51.9966 65.8034 51.9595 64.7855 52.4971 64.7282Z" fill="#F7F3CF"/>
<path d="M44.6203 67.9592C45.284 67.8101 45.3784 68.714 44.7828 68.7875C44.2965 68.8475 44.0935 68.0772 44.6203 67.9592Z" fill="#F7F3CF"/>
<path d="M20.5673 19.9106C20.9383 19.8324 21.2756 20.2175 21.0213 20.571C20.5484 21.2266 19.8375 20.0644 20.5673 19.9106Z" fill="#F7F3CF"/>
<path d="M63.8226 39.9239C64.4486 39.7431 64.5814 40.7077 64.0007 40.7718C63.4786 40.8291 63.3545 40.0588 63.8226 39.9239Z" fill="#F7F3CF"/>
<path d="M50.684 17.2144C51.2871 17.0424 51.4328 17.9294 50.9235 18.069C50.4142 18.2087 50.2004 17.3527 50.684 17.2144Z" fill="#F7F3CF"/>
<path d="M38.6242 10.4091C39.0283 10.3241 39.3176 10.7761 39.0485 11.1066C38.579 11.6826 37.9099 10.5595 38.6242 10.4091Z" fill="#F7F3CF"/>
<path d="M23.7332 56.3689C24.5102 56.1949 24.4387 57.3915 23.663 57.1507C23.373 57.061 23.3352 56.458 23.7332 56.3689Z" fill="#F7F3CF"/>
<path d="M26.497 9.86943C27.2633 9.71226 27.2053 10.8947 26.4262 10.6532C26.1334 10.5622 26.1024 9.95104 26.497 9.86943Z" fill="#F7F3CF"/>
<path d="M49.2414 13.516C49.6063 13.0715 50.3395 13.6314 49.8977 14.0732C49.5578 14.4125 48.9041 13.9262 49.2414 13.516Z" fill="#F7F3CF"/>
<path d="M45.6311 65.3345C45.9171 65.636 45.5326 66.2762 45.0719 65.9949C44.5526 65.6779 45.1799 64.859 45.6311 65.3345Z" fill="#F7F3CF"/>
<path d="M19.0172 41.6762C19.6128 41.5514 19.6938 42.4519 19.1885 42.5294C18.7339 42.5996 18.4661 41.7922 19.0172 41.6762Z" fill="#F7F3CF"/>
<path d="M14.3006 41.8772C14.6305 41.8273 14.9381 42.2644 14.6568 42.5754C14.1205 43.1683 13.5877 41.9851 14.3006 41.8772Z" fill="#F7F3CF"/>
<path d="M57.7601 30.4212C58.293 30.3267 58.3773 31.0896 58.0003 31.2063C57.3001 31.4222 57.2279 30.5156 57.7601 30.4212Z" fill="#F7F3CF"/>
<path d="M16.0519 31.5024C16.7979 31.2805 16.7689 32.4784 16.0694 32.2693C15.6856 32.1547 15.7207 31.6009 16.0519 31.5024Z" fill="#F7F3CF"/>
<path d="M59.7808 60.0045C60.3002 59.9101 60.4493 60.6615 60.0196 60.789C59.4132 60.9691 59.2702 60.0976 59.7808 60.0045Z" fill="#F7F3CF"/>
<path d="M62.2738 27.928C62.9383 27.8066 62.9005 28.9189 62.205 28.7125C61.8361 28.6025 61.888 27.9988 62.2738 27.928Z" fill="#F7F3CF"/>
<path d="M19.3549 14.1136C20.0807 13.978 19.9552 15.1949 19.2531 14.8617C18.9239 14.7059 19.0163 14.177 19.3549 14.1136Z" fill="#F7F3CF"/>
<path d="M17.5991 52.8639C18.2682 52.6575 18.3566 53.5479 17.8399 53.6498C17.3819 53.7395 17.2085 52.9847 17.5991 52.8639Z" fill="#F7F3CF"/>
<path d="M58.1655 44.2407C58.5264 44.6016 57.9233 45.3004 57.5706 44.8026C57.2387 44.3344 57.8491 43.9243 58.1655 44.2407Z" fill="#F7F3CF"/>
<path d="M9.58302 35.5461C10.1813 35.3687 10.3149 36.1768 9.80696 36.3123C9.33412 36.4385 9.13513 35.679 9.58302 35.5461Z" fill="#F7F3CF"/>
<path d="M25.4871 15.9065C25.1768 16.2175 24.5745 15.7865 24.8922 15.3453C25.2294 14.8772 25.8554 15.5376 25.4871 15.9065Z" fill="#F7F3CF"/>
<path d="M9.58281 27.3918C9.97809 27.2745 10.283 27.6441 10.0381 27.9827C9.61519 28.5662 8.97034 27.574 9.58281 27.3918Z" fill="#F7F3CF"/>
<path d="M67.459 47.0678C67.9811 46.9066 68.23 47.5757 67.8152 47.7612C67.2364 48.0202 67.0246 47.202 67.459 47.0678Z" fill="#F7F3CF"/>
<path d="M58.7704 53.5743C58.4203 53.9062 57.8666 53.3524 58.1991 53.003C58.5741 52.6084 59.165 53.2 58.7704 53.5743Z" fill="#F7F3CF"/>
<path d="M38.3045 42.9443C38.1764 42.8748 38.1109 42.6077 38.0684 42.4735C37.7764 41.5447 37.8661 39.9777 36.6391 39.7255C35.2786 39.4455 34.6007 40.8499 34.7511 42.0175C34.8179 42.5362 35.2071 43.1015 35.2529 43.5278C35.259 43.5838 35.2368 43.7693 35.1389 43.7524C35.1025 43.4131 34.8685 43.1399 34.7497 42.8269C34.3437 41.7524 34.3612 40.2435 35.5396 39.6735C36.0077 39.4469 36.3673 39.3956 36.8583 39.5723C38.1959 40.0546 38.086 41.776 38.3038 42.9436L38.3045 42.9443Z" fill="#F7F3CF"/>
<path d="M34.3297 38.4304C33.9702 39.1515 33.1054 39.3235 32.3594 39.221C31.6694 39.1259 31.1554 38.6119 30.4174 38.9984C29.7206 39.3633 29.8724 40.2226 30.0168 40.8554C29.3564 40.2247 29.7119 38.9404 30.5753 38.684C31.6316 38.3711 32.3533 39.4699 33.67 38.8142C33.7907 38.7542 34.2562 38.3616 34.3297 38.4304Z" fill="#F7F3CF"/>
<path d="M51.982 50.0201L51.4633 47.8785C51.0903 45.9682 51.3041 44.0957 51.6468 42.2043C51.7702 42.2246 51.719 42.549 51.7129 42.6414C51.6144 44.1261 51.3662 45.3544 51.5126 46.8862C51.6124 47.9365 51.9227 48.9638 51.9827 50.0201H51.982Z" fill="#F7F3CF"/>
<path d="M44.0319 26.9075L42.6187 28.3577L41.6069 29.8046C41.9031 28.7874 42.645 27.8403 43.4983 27.2164C43.6501 27.1058 43.8484 26.95 44.0312 26.9081L44.0319 26.9075Z" fill="#F7F3CF"/>
<path d="M34.3539 53.231C33.8938 52.7831 33.7347 52.0998 33.4406 51.5494L32.8477 50.7616C34.0024 51.2209 33.7731 52.8782 34.9839 53.3754C36.7242 54.0897 38.0409 51.596 36.9198 50.1585C36.8881 50.1181 36.3525 49.7086 36.7768 49.83C37.3528 49.9946 37.5943 51.086 37.566 51.6067C37.4803 53.1953 35.6355 54.4796 34.3539 53.231Z" fill="#F7F3CF"/>
<path d="M44.234 24.8857C43.9035 25.2183 42.9106 25.3181 42.6172 24.8857C43.1717 24.9842 43.6796 24.9498 44.234 24.8857Z" fill="#F7F3CF"/>
<path d="M30.2049 16.2101C30.499 16.2061 31.4083 16.2796 31.6316 16.4314C31.6882 16.4698 31.7408 16.5069 31.7611 16.5764C31.8211 16.8287 31.6451 16.8975 31.4515 16.9858C30.7149 17.3217 29.3813 17.4337 28.6002 17.2401C28.3675 17.1821 27.9203 17.0681 28.1267 16.7619C28.3662 16.4064 29.78 16.2169 30.2049 16.2108V16.2101Z" fill="#F7F3CF"/>
<path d="M17.1939 27.2541C17.8017 27.0429 17.884 27.9758 17.3201 27.9191C16.9875 27.8854 16.9133 27.3519 17.1939 27.2541Z" fill="#F7F3CF"/>
<path d="M52.4318 23.8835C52.9087 23.727 53.107 24.6612 53.1232 24.9971C53.134 25.2245 53.0288 26.0784 52.7556 26.1027C52.102 26.1614 52.019 24.0184 52.4318 23.8835Z" fill="#F7F3CF"/>
</svg>
