<svg width="77" height="77" viewBox="0 0 77 77" fill="none" xmlns="http://www.w3.org/2000/svg">
<circle cx="38.5" cy="38.5" r="38.5" fill="#4B5A2A"/>
<path d="M19.5 32C19.2238 32 19 32.2238 19 32.5C19 32.7762 19.2238 33 19.5 33C19.7762 33 20 32.7762 20 32.5C20 32.2238 19.7762 32 19.5 32Z" fill="#4B5A2A"/>
<path d="M21.5 31C21.2237 31 21 31.2237 21 31.5C21 31.7763 21.2237 32 21.5 32C21.7763 32 22 31.7763 22 31.5C22 31.2237 21.7763 31 21.5 31Z" fill="#4B5A2A"/>
<path d="M22.5 29C22.2239 29 22 29.2239 22 29.5C22 29.7761 22.2239 30 22.5 30C22.7761 30 23 29.7761 23 29.5C23 29.2239 22.7761 29 22.5 29Z" fill="#4B5A2A"/>
<path d="M33 47C32.6163 47.3325 32.2942 47.659 32 48C32.3861 47.6688 32.7138 47.3395 33 47Z" fill="#4B5A2A"/>
<g clip-path="url(#clip0_447_2147)">
<path d="M40.4482 72H37.4608C37.4461 71.982 37.3232 71.9415 37.276 71.9401C34.7265 71.8783 31.8533 71.3593 29.4094 70.627C19.728 67.7255 11.9703 60.9256 7.86387 51.6788C6.33758 48.2423 5.45317 44.5971 5.10764 40.8749L5.06113 39.7857L5 39.6009V36.4807C5.08173 36.4568 5.08239 35.5789 5.11296 35.2147C5.8771 26.168 10.2347 17.7253 17.2156 11.9037C22.7507 7.28757 29.7728 4.46316 36.9823 4.07771L37.7345 4.03783C38.5937 3.99198 39.4482 3.98467 40.3087 4.03584L40.9944 4.07704C45.5002 4.34819 49.8977 5.49257 53.9509 7.49625C58.0042 9.49992 61.5392 12.1655 64.4768 15.501C68.8789 20.4999 71.7049 26.6425 72.6432 33.229C72.7967 34.3043 72.905 35.3011 72.9488 36.3777C72.9934 37.4763 73.0339 38.5575 72.9575 39.662L72.911 40.3326C72.4438 47.1172 69.9899 53.5728 65.8031 58.9146C63.221 62.2089 60.086 64.9934 56.4899 67.1406C52.0286 69.8049 47.0345 71.4663 41.8556 71.879C41.3971 71.9156 40.5479 71.9202 40.4482 72ZM42.8848 69.8913L42.2038 63.1346C42.0968 62.0746 41.9699 61.0964 41.6835 60.0723C40.5047 55.9779 42.7134 52.4849 44.8975 49.2405C45.1912 48.8045 45.5401 48.3686 45.7215 47.8814C46.0544 46.9876 46.7813 46.3948 47.1733 45.5747C47.9109 44.0316 48.5986 40.946 48.7362 39.2028L48.8525 37.7355C48.9541 36.4542 49.5588 34.3687 51.2266 34.5156C51.6844 34.5562 52.0246 34.7888 52.3143 35.1583L52.3084 33.2283C52.3064 32.5212 52.4692 31.8195 52.8473 31.2453C53.4267 30.3661 54.5543 30.1295 55.3922 30.7442C55.6015 29.4862 56.5098 28.4601 57.8055 28.7631C58.3471 28.89 58.888 29.3473 59.0335 29.9886L59.7272 33.0449C59.7843 31.8361 60.492 30.3448 61.9665 30.501C62.6203 30.5701 63.207 31.0519 63.3412 31.7371C63.6303 33.2084 63.9718 34.6558 64.0536 36.1624L64.2449 39.6713C64.2801 40.3127 64.2722 40.9925 64.1858 41.6165C64.1499 41.8751 65.0875 41.8638 65.5333 42.7988C65.7546 43.2633 65.6921 43.8103 65.427 44.2549L64.4542 45.8877C63.3672 47.7126 63.6442 48.5394 62.7964 49.7382C61.8834 51.0282 61.1531 52.3766 60.5292 53.8306C60.1318 54.7571 59.6249 55.5585 58.9086 56.269C58.1418 57.0299 57.3789 57.7343 56.5756 58.4521C56.04 58.9305 55.5463 59.3831 55.0573 59.9161C54.3516 60.6843 53.9064 61.7091 54.0087 62.7738C54.1164 63.8962 54.3955 64.9489 54.6367 66.0401C60.9106 62.6083 65.93 56.9721 68.6603 50.4227C72.301 41.6903 71.8824 31.8733 67.6377 23.4273C64.5333 17.2495 59.4714 12.2838 53.2845 9.23476C45.0676 5.18488 35.4328 4.8074 26.9262 8.23857C17.2489 12.1389 10.1596 20.4141 7.73762 30.5874C6.20336 37.031 6.69241 43.8448 9.14298 50.0021C10.1689 52.5806 11.5809 54.9857 13.2295 57.204C15.9432 60.8565 19.3792 63.8497 23.3647 66.0355L23.9049 63.4961C24.1673 62.262 23.9128 61.0439 23.0763 60.0796C22.5294 59.4489 21.9301 58.908 21.3035 58.3471C20.4995 57.628 19.7453 56.9182 18.9858 56.1553C18.3266 55.4927 17.8868 54.7504 17.504 53.8944C16.9 52.5427 16.2588 51.2521 15.4016 50.0419C14.1551 48.2822 14.7744 47.7439 13.2401 45.3634C12.6587 44.4616 11.8215 43.3783 12.7544 42.3788C13.0434 42.0691 13.4282 41.8771 13.8288 41.7202C13.765 41.1148 13.7125 40.5306 13.7458 39.9319L13.9571 36.1465C14.0461 34.5568 14.3923 33.0336 14.7458 31.4965C14.8833 30.897 15.5345 30.5774 15.9937 30.5063C16.6263 30.4079 17.1505 30.6518 17.5618 31.0938C18.0469 31.6161 18.1884 32.288 18.2961 33.0356C18.5027 32.0089 18.7187 30.9947 18.9878 29.9693C19.1446 29.3732 19.5978 28.9419 20.0842 28.7963C20.7121 28.6083 21.3001 28.7212 21.7766 29.1273C22.253 29.5333 22.4849 30.0716 22.6085 30.7442C23.4377 30.1527 24.5222 30.3355 25.1222 31.1795C25.8996 32.2727 25.6903 33.9168 25.6803 35.2221C25.9023 34.8413 26.2804 34.5748 26.7481 34.5196C28.2087 34.3481 28.7934 35.8355 29.0459 37.0038C29.1894 37.667 29.1615 38.3296 29.2612 39.0028C29.4113 40.0136 29.4678 41.0198 29.713 42.0146C30.0107 43.2241 30.3316 44.4635 30.8393 45.592C31.1915 46.3742 31.9051 46.9284 32.2274 47.7691C32.4088 48.2423 32.7271 48.6816 33.0148 49.1042C33.7371 50.1669 34.4055 51.1996 35.0341 52.3227C35.6627 53.4459 36.1723 54.6992 36.4574 56.0098C36.7451 57.3362 36.7099 58.6229 36.3504 59.9281C36.0826 60.9003 35.9238 61.8254 35.8215 62.8415L35.1132 69.8886C37.7039 70.2036 40.2695 70.2096 42.8862 69.89L42.8848 69.8913ZM19.9028 39.0739L21.2264 38.9636L21.3706 35.2061L20.0463 35.125C19.8755 35.1144 19.7572 34.8785 19.7958 34.7289C19.8263 34.61 19.9852 34.495 20.1267 34.501L21.4131 34.5568C21.6098 33.4815 21.7786 32.4621 21.8018 31.3722C21.8144 30.7914 21.6583 30.1906 21.2463 29.8198C20.9839 29.5832 20.6343 29.5068 20.2908 29.633C20.0749 29.7121 19.8556 29.9932 19.7845 30.3016C19.4523 31.7477 19.132 33.1606 18.9114 34.6366C18.712 35.9717 18.1991 39.254 18.6489 40.3944L20.2117 44.3559C21.0231 44.1246 21.7201 43.9824 22.5088 43.9007C22.1513 42.4393 21.7394 41.0231 21.2782 39.6062L19.9247 39.7046C19.744 39.7179 19.5792 39.5325 19.5825 39.3769C19.5851 39.266 19.7486 39.0872 19.9021 39.0746L19.9028 39.0739ZM58.1783 39.7013L56.7098 39.6255L55.4892 43.904C56.3278 43.9944 57.0494 44.1532 57.7962 44.3333L59.4056 40.4456C59.4853 39.5796 59.6195 38.7243 59.5092 37.8617L59.0767 34.4957C58.8959 33.0895 58.5484 31.7537 58.2467 30.376C58.1663 30.0092 57.9311 29.6928 57.6348 29.6111C57.2879 29.5154 56.9331 29.6231 56.6832 29.8949C55.7762 30.8811 56.4068 33.2496 56.5869 34.5482C57.256 34.6545 58.1677 34.2179 58.2328 34.804C58.2454 34.919 58.0906 35.1224 57.9437 35.1303L56.6248 35.2028L56.7856 38.9662L58.2148 39.0965C58.3158 39.1058 58.4448 39.3291 58.4388 39.4294C58.4335 39.5172 58.2813 39.7066 58.1776 39.7013H58.1783ZM23.7075 39.8229L24.9288 39.7338L24.8125 36.4362L23.7089 36.4183C23.5554 36.4156 23.3733 36.2309 23.3686 36.1086C23.3607 35.9185 23.5188 35.7849 23.7115 35.7856L24.7693 35.7896L24.8318 33.4251C24.8504 32.7239 24.6305 31.4207 23.7833 31.2732C23.5275 31.2287 23.2058 31.3264 23.0218 31.5556L22.6344 35.1676L22.3912 40.1399L23.4431 43.8821C24.3421 43.8854 25.1733 43.9558 26.0279 44.1L25.0212 40.3984L23.7075 40.4735C23.5454 40.4828 23.374 40.3067 23.37 40.1684C23.3653 40.0056 23.5162 39.8375 23.7069 39.8235L23.7075 39.8229ZM54.3968 39.8408C54.5436 39.8534 54.6726 40.102 54.6393 40.2083C54.5948 40.3505 54.4307 40.4795 54.2752 40.4708L52.9841 40.4004L51.9795 44.0901C52.8811 43.9545 53.6984 43.886 54.5822 43.8588L55.6161 40.1226L55.3649 35.0187L54.9902 31.5749C54.8752 31.3456 54.5137 31.2353 54.3024 31.2586C52.721 31.4334 53.2818 34.7196 53.2393 35.7849L54.337 35.7883C54.4938 35.7883 54.6506 35.9577 54.6486 36.1119C54.6466 36.2282 54.4759 36.4176 54.339 36.4196L53.1988 36.4382L53.0765 39.7292L54.3975 39.8415L54.3968 39.8408ZM16.4309 41.0443C16.296 41.0656 16.0993 40.8755 16.0927 40.7539C16.086 40.6429 16.2422 40.4316 16.3585 40.4123L17.6821 40.191L17.6462 39.6115L17.4336 36.7798L16.0694 36.8436C15.9425 36.8496 15.7618 36.6369 15.7658 36.5213C15.781 36.0149 16.7704 36.298 17.4196 36.1438C17.4927 35.0825 17.5273 34.1029 17.4349 33.0675C17.3705 32.3412 16.9851 31.2101 16.0967 31.3543C15.8668 31.3915 15.589 31.5829 15.5325 31.872C15.2993 33.0635 15.084 34.2146 14.9199 35.4247C14.7465 36.704 14.7305 37.9468 14.6607 39.2274C14.6149 40.0601 14.5777 40.8603 14.7312 41.6797C16.4674 41.8465 17.9319 43.4075 18.7565 44.8483C18.9825 44.8164 19.2017 44.7354 19.3606 44.5911L17.8103 40.827L16.4309 41.0457V41.0443ZM61.5718 41.0477L60.1804 40.8463L58.6361 44.6244L59.2488 44.8709C60.0235 43.4428 61.5439 41.8564 63.2655 41.683C63.5014 40.7858 63.2402 36.4083 63.106 35.5789L62.5426 32.1039C62.4847 31.749 62.304 31.4486 61.9844 31.3702C61.1106 31.1556 60.7079 32.1311 60.6103 32.8668C60.4641 33.966 60.5059 35.0114 60.5863 36.1405C61.2382 36.3219 62.2223 36.0043 62.2429 36.5126C62.2475 36.6196 62.0954 36.8403 61.9738 36.8356L60.5624 36.7858L60.3299 40.197L61.607 40.407C61.7618 40.4323 61.916 40.6117 61.908 40.7579C61.9007 40.8955 61.7226 41.0689 61.5718 41.047V41.0477ZM28.7442 41.8265L28.4299 39.5756L27.4259 39.5916C27.289 39.5936 27.1335 39.3517 27.1528 39.2327C27.1721 39.1138 27.3395 38.9682 27.4625 38.9636L28.3695 38.9264C28.2844 37.8032 28.2638 36.6363 27.6073 35.7138C27.3821 35.3968 26.9488 35.2447 26.6126 35.4646C26.4146 35.5942 26.3534 35.8999 26.3601 36.1518L26.5143 42.0578C26.5907 42.8427 26.7953 43.5837 27.0246 44.2914L29.6565 45.0058L28.8798 42.4858L27.7714 42.5197C27.6126 42.4811 27.4505 42.3642 27.4299 42.2226C27.4093 42.0811 27.5668 41.8817 27.7163 41.8744L28.7449 41.8259L28.7442 41.8265ZM50.2532 42.5064L49.097 42.5051L48.3474 45.0178L50.9914 44.2874L51.3449 42.9988C51.4625 42.5695 51.4831 42.1143 51.4964 41.6557L51.6559 36.0847C51.6632 35.8341 51.5608 35.5563 51.3974 35.456C51.198 35.3337 50.907 35.3251 50.6977 35.4547C49.8033 36.0056 49.6757 37.99 49.6558 38.9284L50.5681 38.9722C50.705 38.9789 50.8678 39.1716 50.8618 39.2965C50.8572 39.3969 50.695 39.5956 50.594 39.5943L49.5774 39.581L49.2618 41.8325L50.2771 41.8724C50.4279 41.8784 50.5967 42.0718 50.5854 42.2133C50.5754 42.3409 50.4027 42.5064 50.2525 42.5064H50.2532ZM31.9935 49.184C31.2519 49.0471 30.5762 49.081 29.8246 49.1547C27.4698 49.3853 25.1594 48.9348 23.0789 47.8203C22.9062 47.7279 22.8696 47.496 22.9421 47.3518C22.9979 47.2401 23.2391 47.1597 23.3859 47.2361C25.273 48.219 27.3588 48.6623 29.4904 48.4888C30.1954 48.4317 30.822 48.4164 31.5463 48.4197C31.2513 47.8249 30.933 47.2461 30.5529 46.7118C30.2253 46.2519 29.8094 45.9841 29.2672 45.8027C27.602 45.2457 25.891 44.8816 24.1222 44.7825C22.3859 44.6855 20.7347 44.9832 19.1399 45.6571C19.2934 45.9814 19.3499 46.4074 19.5679 46.6732L21.5699 49.1195C21.6948 49.2724 21.8982 49.3734 22.0988 49.386C26.386 49.6638 30.3609 52.1692 31.9118 56.2517C31.9888 56.4544 31.8998 56.6737 31.735 56.7561C31.5915 56.8279 31.3257 56.7368 31.2513 56.5507C30.6825 55.1305 29.824 53.9244 28.6485 52.9202C26.7694 51.3133 24.4132 50.3862 21.9341 50.2426C21.5214 50.2187 21.2031 50.0499 20.946 49.7362L18.7672 47.0813C18.1479 45.4332 17.4761 44.0688 15.9711 43.0454C15.2973 42.5875 14.1159 42.3057 13.4899 42.8932C14.7863 42.7742 15.5 44.0077 15.8402 45.0344C15.9571 45.386 15.8189 45.7369 15.5379 45.9588L14.8727 46.4852C15.5046 47.9818 15.2262 48.2994 16.2043 49.6485C17.0236 50.7783 17.621 52.0057 18.2077 53.2724C18.5007 53.9051 18.7698 54.5318 19.2124 55.0681C19.8383 55.8263 20.5586 56.4424 21.2683 57.1216C21.9228 57.7476 22.6171 58.2753 23.2185 58.9611C24.4796 60.4019 26.273 61.2605 28.2173 61.0791C29.8811 60.9236 30.3595 60.0131 30.6645 60.5169C30.7383 60.6385 30.7104 60.9043 30.5728 60.9947C28.8313 62.1431 26.5043 62.0341 24.6398 61.0492C24.9361 61.9131 24.9547 62.7438 24.7787 63.6184L24.2019 66.4867C27.3867 68.1355 30.6792 69.2294 34.2361 69.7624L35.0062 62.1823C35.0873 61.3821 35.2627 60.6704 35.4494 59.9028C36.6229 55.9393 34.1391 52.3075 31.9922 49.1846L31.9935 49.184ZM42.5446 59.8909C42.8177 60.8538 42.9393 61.7696 43.0436 62.7784L43.7646 69.767C47.3049 69.2154 50.6319 68.1288 53.7994 66.4854C53.525 64.6525 52.7157 62.8748 53.3429 61.0479C51.497 62.0321 49.1535 62.1537 47.4159 60.9821C47.267 60.8817 47.2351 60.6531 47.3149 60.5102C47.6677 59.8776 48.5328 61.5024 51.2399 61.0166C52.6459 60.7641 53.8041 60.0563 54.7403 59.0063C55.3423 58.3318 56.0274 57.7842 56.6866 57.1688C57.4062 56.4969 58.1152 55.8715 58.7544 55.1206C59.2275 54.565 59.5132 53.919 59.8109 53.2545C60.4448 51.8389 61.1558 50.5218 62.0528 49.2591C62.6648 48.3978 62.706 47.4534 63.12 46.4752L62.4568 45.9462C62.1957 45.7382 62.0488 45.3999 62.1578 45.047C62.4668 44.0482 63.2801 42.7038 64.5493 42.9051C63.5466 42.1535 62.2748 42.751 61.4136 43.5285C60.3897 44.4542 59.7132 45.6398 59.3239 46.9896L57.0447 49.7548C56.7862 50.0685 56.4573 50.2147 56.0454 50.242C52.0758 50.5058 48.2617 52.7507 46.7574 56.5281C46.6756 56.7341 46.4477 56.8199 46.2969 56.7541C46.1201 56.6763 46.0072 56.469 46.0836 56.2676C47.6431 52.1513 51.5701 49.7116 55.8786 49.388C56.1025 49.3714 56.3065 49.2724 56.45 49.1002L58.4959 46.6367L58.8521 45.6618C57.3171 44.9813 55.7198 44.7234 54.0573 44.7719C52.3575 44.8218 50.0239 45.3062 48.4345 45.9223C47.477 46.2938 46.9062 47.5604 46.4504 48.425C47.2039 48.4137 47.8385 48.4317 48.5521 48.4882C50.6658 48.6557 52.7343 48.2091 54.6061 47.2421C54.7835 47.1504 54.9756 47.2009 55.0646 47.3425C55.1477 47.4747 55.1138 47.714 54.9496 47.803C52.8585 48.9414 50.5322 49.3867 48.1561 49.1481C47.4238 49.0743 46.768 49.059 46.0218 49.1767C43.8809 52.2589 41.3825 55.9393 42.5453 59.8915L42.5446 59.8909ZM15.2355 45.3288C14.9285 44.4655 14.3172 43.1743 13.2594 43.7086L14.5544 45.8572L15.2355 45.3288ZM63.4535 45.8591L64.7506 43.686C63.6529 43.2314 63.0814 44.4496 62.7758 45.3109L63.4535 45.8591Z" fill="#F7F3CF"/>
<path d="M37.5325 35.7896L37.5285 34.2079C36.2315 35.2015 34.8587 35.1197 33.7523 33.9594C32.8839 33.8032 32.1643 33.2988 31.826 32.4615L30.7848 33.5859C30.2054 34.2119 29.2127 34.1727 28.6539 33.5819C28.095 32.9911 28.0964 32.0581 28.7283 31.46L29.8539 30.3953C28.9821 29.9746 28.505 29.2356 28.3622 28.3332C27.4106 27.4466 27.107 26.1341 27.7329 24.9246L26.3036 24.9359C25.473 24.9425 24.8405 24.268 24.8139 23.4951C24.7853 22.6677 25.4465 21.9719 26.3089 21.9772L27.8585 21.9865C27.1003 20.7876 27.3103 19.3482 28.3416 18.3998C28.4319 17.4249 28.9662 16.656 29.8373 16.1769L28.5549 14.9833C27.9788 14.33 28.008 13.395 28.6432 12.8341C29.2831 12.2692 30.1968 12.3549 30.7901 13.0155C31.135 13.3996 31.4918 13.7592 31.8666 14.136C32.1543 13.1484 32.8334 12.4885 33.7816 12.2699C34.7803 11.1939 36.3391 11.0796 37.5265 12.0426L37.5172 10.2516C37.5126 9.41887 38.1598 8.75297 38.9578 8.741C39.7558 8.72904 40.4609 9.38962 40.4555 10.2509L40.4449 12.0712C41.5871 11.1102 43.1772 11.1554 44.1865 12.2519C45.1467 12.4832 45.8218 13.1438 46.1348 14.1426L47.2265 12.9876C47.8092 12.3157 48.7628 12.2951 49.3727 12.8633C49.9827 13.4315 49.99 14.447 49.3588 15.0498L48.1754 16.1802C49.0744 16.676 49.5422 17.4429 49.6565 18.3866C50.6485 19.3342 50.9256 20.7418 50.1429 21.9766L51.7097 21.9739C52.4918 21.9726 53.1084 22.5913 53.1689 23.3316C53.2293 24.0726 52.733 24.8315 51.9137 24.9053C51.3794 24.9538 50.8479 24.908 50.2525 24.9252C50.9123 26.1009 50.5887 27.4466 49.6299 28.3365C49.5036 29.2489 48.992 29.9919 48.1488 30.4046L49.3455 31.563C49.9395 32.1378 49.8565 33.0848 49.3043 33.6165C48.7402 34.1601 47.8119 34.1986 47.2444 33.6005L46.16 32.4568C45.8351 33.3008 45.1381 33.8012 44.2842 33.9441C43.1473 35.1005 41.7712 35.2247 40.4489 34.1973L40.4688 35.6873C40.4801 36.5014 39.8648 37.1413 39.0568 37.1865C38.3312 37.2271 37.5358 36.6403 37.5339 35.789L37.5325 35.7896ZM39.5492 10.2117C39.5492 9.90001 39.2967 9.64748 38.9851 9.64748C38.6734 9.64748 38.4209 9.90001 38.4209 10.2117C38.4209 10.5234 38.6734 10.7759 38.9851 10.7759C39.2967 10.7759 39.5492 10.5234 39.5492 10.2117ZM41.635 20.147L42.346 19.4313C41.6582 18.8205 40.8742 18.443 39.9904 18.2257C39.7452 18.1653 39.5671 17.9519 39.5678 17.6888L39.5698 11.5754C39.1273 11.7382 38.7977 11.7183 38.3977 11.5628L38.407 17.6223C38.407 17.9466 38.2462 18.1719 37.9345 18.2503C37.0887 18.4617 36.3265 18.8192 35.6454 19.4286L36.3624 20.149C37.9266 18.8444 40.0921 18.8777 41.635 20.1477V20.147ZM36.5943 14.4968C36.7219 14.8936 36.8116 15.3063 36.8521 15.7157L37.5352 15.5429C37.5305 14.9348 37.5571 14.3752 37.5046 13.7818C37.4435 13.0933 36.8853 12.5536 36.3258 12.3602C35.6627 12.1316 34.9923 12.3004 34.4932 12.8254C35.0693 12.9584 35.5836 13.2435 35.9983 13.6415C36.167 13.5704 36.3916 13.5 36.5066 13.5585C36.6561 13.6336 36.7976 13.8728 36.7471 14.0296L36.5943 14.4975V14.4968ZM41.3984 14.4377C41.3473 14.332 41.2529 14.1406 41.2343 14.0396C41.2011 13.8515 41.324 13.6515 41.4795 13.5638C41.5911 13.5006 41.8117 13.5664 41.9838 13.6415C42.4177 13.2514 42.9074 12.9557 43.4975 12.8294C43.1407 12.4546 42.6862 12.2413 42.1639 12.2645C41.3187 12.3024 40.5519 12.969 40.4702 13.8402C40.4157 14.4171 40.4476 14.96 40.4429 15.5409L41.1293 15.7077C41.1911 15.2491 41.2815 14.867 41.3978 14.4377H41.3984ZM30.1782 13.9413C30.1782 13.6256 29.9223 13.3697 29.6067 13.3697C29.2911 13.3697 29.0353 13.6256 29.0353 13.9413C29.0353 14.2569 29.2911 14.5128 29.6067 14.5128C29.9223 14.5128 30.1782 14.2569 30.1782 13.9413ZM48.9388 13.9413C48.9388 13.6249 48.6824 13.3684 48.3661 13.3684C48.0498 13.3684 47.7933 13.6249 47.7933 13.9413C47.7933 14.2576 48.0498 14.5141 48.3661 14.5141C48.6824 14.5141 48.9388 14.2576 48.9388 13.9413ZM34.2135 15.4372C34.1225 15.3156 33.8215 15.3535 33.7377 15.4472C33.2799 15.9582 34.0965 16.3935 34.4726 16.8647C34.9936 16.5357 35.4481 16.2699 35.9571 16.0227C36.0255 15.2744 35.7557 14.5414 35.2182 14.12C34.6441 13.6701 33.8866 13.5266 33.2121 13.7711C32.856 13.9001 32.733 14.1918 32.6586 14.5414C32.6021 14.8059 32.6294 15.083 32.9045 15.1707C33.064 14.8491 33.2965 14.6065 33.6321 14.5194C34.3358 14.3367 35.0833 14.7647 35.177 15.5076C35.1557 15.6598 34.8441 15.8373 34.6966 15.8339C34.4892 15.83 34.377 15.6558 34.2128 15.4365L34.2135 15.4372ZM42.8117 15.4492C42.9001 14.8869 43.3991 14.5447 43.8656 14.4829C44.4184 14.4104 44.8902 14.6876 45.1102 15.1734C45.4258 14.9906 45.3872 14.7427 45.3235 14.4729C45.2424 14.13 45.0776 13.8582 44.7168 13.7432C44.035 13.5266 43.2676 13.7007 42.7294 14.1599C42.1911 14.6191 41.926 15.3555 42.0622 16.0393C42.5872 16.2925 43.0204 16.5404 43.5094 16.8547C43.8031 16.5444 44.1686 16.2373 44.3753 15.9097C44.4955 15.719 44.2756 15.3827 44.1221 15.3575C43.5626 15.2664 43.7314 15.9595 43.1659 15.8133C43.0397 15.7808 42.7898 15.5934 42.8124 15.4492H42.8117ZM33.0806 18.1958L33.8301 17.4369L30.9941 14.4782C30.7948 14.8976 30.5343 15.1282 30.1861 15.3136L33.0806 18.1958ZM50.3854 22.8704L46.2923 22.8691C45.9567 22.8691 45.776 22.6524 45.7587 22.3334C45.6956 21.1332 45.1919 20.048 44.4955 19.0797C44.3912 18.9348 44.3414 18.7514 44.4842 18.6105L47.8239 15.3103C47.4325 15.1342 47.1601 14.8491 46.9833 14.4915L43.8091 17.7964C43.6702 17.9413 43.5161 17.9818 43.3466 17.8509C42.4808 17.1837 41.5413 16.6786 40.4615 16.4633L40.4655 17.3279C43.4928 18.1161 45.3726 20.9618 45.0351 24.0361L50.3947 24.0321C50.2319 23.6087 50.2465 23.2731 50.3847 22.8711L50.3854 22.8704ZM33.0606 21.9593C33.6008 19.6413 35.2893 17.9253 37.5332 17.3252L37.5139 16.456C34.8261 17.078 32.7543 19.184 32.2653 21.9579C32.5297 21.9799 32.7756 21.9812 33.0613 21.9593H33.0606ZM46.3308 17.9818L45.4404 18.869C46.065 19.8393 46.467 20.8295 46.6517 21.9626L47.2557 21.9546L47.085 20.8335C48.0671 20.5192 48.6903 19.7689 48.7694 18.778C48.8412 17.8875 48.3156 17.1152 47.4657 16.858L46.9893 17.3319C47.5999 17.6449 48.0106 18.1327 47.9607 18.7913C47.9149 19.4 47.4797 19.9317 46.8438 20.0427L46.5288 19.3601C46.6072 19.297 46.7162 19.2119 46.786 19.1701C47.0551 19.0106 47.2331 18.6497 46.9747 18.3859C46.8125 18.2204 46.556 18.0855 46.3301 17.9818H46.3308ZM31.0021 18.4058C30.743 18.6943 30.9622 19.0179 31.1968 19.1688C31.2772 19.2206 31.3762 19.2904 31.4659 19.3548L31.1456 20.0606C30.3091 19.8685 29.7968 19.0179 30.1177 18.2025C30.2798 17.7911 30.624 17.5658 31.0087 17.3405C30.8652 17.1777 30.6832 16.9989 30.4958 16.8627C29.8738 17.0714 29.3921 17.5412 29.2672 18.1812C29.0379 19.3535 29.7336 20.4753 30.9018 20.8328L30.7516 21.9666L31.3423 21.9805C31.5377 20.8421 31.9496 19.8267 32.5556 18.8677L31.6593 17.9891C31.444 18.0895 31.1622 18.2264 31.0014 18.4052L31.0021 18.4058ZM29.9316 21.9579L29.9429 21.3718C29.2432 20.9664 28.7967 20.3676 28.4864 19.6027C28.0592 20.4294 28.2891 21.4456 29.0652 21.9619C29.3217 21.9958 29.5994 21.9759 29.931 21.9586L29.9316 21.9579ZM48.083 21.9712L48.9129 21.9666C49.695 21.4549 49.9535 20.4547 49.4937 19.6074C49.186 20.3842 48.7681 20.9897 48.0405 21.3645L48.083 21.9719V21.9712ZM35.684 25.8663C34.4999 24.2906 34.5577 22.2962 35.7225 20.7983L35.0248 20.0932C33.5138 22.0138 33.4819 24.7252 35.054 26.5568C35.2873 26.3275 35.4919 26.1188 35.6846 25.8663H35.684ZM42.2802 25.9115L42.944 26.5647C44.4935 24.6641 44.4497 21.9958 42.9633 20.0972L42.2788 20.7983C43.457 22.3554 43.4589 24.371 42.2802 25.9108V25.9115ZM41.8317 23.3655C41.8317 21.7971 40.5605 20.5258 38.9924 20.5258C37.4242 20.5258 36.1531 21.7971 36.1531 23.3655C36.1531 24.9339 37.4242 26.2052 38.9924 26.2052C40.5605 26.2052 41.8317 24.9339 41.8317 23.3655ZM26.8325 23.4472C26.8325 23.1342 26.5787 22.8804 26.2658 22.8804C25.9528 22.8804 25.699 23.1342 25.699 23.4472C25.699 23.7603 25.9528 24.0141 26.2658 24.0141C26.5787 24.0141 26.8325 23.7603 26.8325 23.4472ZM31.0798 32.0175L34.1936 28.7645C34.3152 28.6375 34.5185 28.6329 34.6427 28.7339C35.4946 29.427 36.4122 29.8962 37.5226 30.1235L37.5133 29.2848C34.5995 28.5212 32.6819 25.8424 32.9111 22.8697L27.5927 22.8717C27.7329 23.2745 27.7415 23.6127 27.5854 24.0361L31.8214 24.0327C32.0234 24.0327 32.2001 24.2201 32.2267 24.4115C32.3855 25.5559 32.7909 26.5913 33.4972 27.5137C33.5656 27.6035 33.5975 27.86 33.5092 27.9484L30.2699 31.2054C30.6659 31.4048 30.8812 31.6872 31.0798 32.0169V32.0175ZM52.2771 23.4472C52.2771 23.1336 52.0233 22.8797 51.7097 22.8797C51.3961 22.8797 51.1422 23.1336 51.1422 23.4472C51.1422 23.7609 51.3961 24.0148 51.7097 24.0148C52.0233 24.0148 52.2771 23.7609 52.2771 23.4472ZM29.9177 25.3074C29.9954 25.2595 29.9635 24.9505 29.8951 24.9206L28.8479 24.9286C28.2585 25.4935 28.0917 26.3421 28.5083 27.0505C28.7881 26.2916 29.2366 25.73 29.9183 25.3067L29.9177 25.3074ZM31.4327 27.2612C31.4486 27.3263 31.2234 27.4679 31.1622 27.5011C30.9689 27.6055 30.7503 27.9843 30.9935 28.2268C31.1642 28.3963 31.4593 28.5259 31.7044 28.5525L32.5516 27.7091C31.9749 26.8452 31.6154 25.966 31.4101 24.9425L30.7782 24.9246L30.9071 25.8184C29.9894 26.0949 29.3369 26.8266 29.2406 27.7789C29.1509 28.6694 29.6426 29.449 30.4944 29.7294C30.6878 29.5779 30.8539 29.4197 30.9941 29.2489C30.3396 28.9612 29.9409 28.4541 30.0366 27.7669C30.113 27.2147 30.5509 26.6797 31.1629 26.6113C31.2513 26.7894 31.3935 27.105 31.432 27.2619L31.4327 27.2612ZM40.4821 30.1235C43.1254 29.5393 45.0809 27.523 45.7208 24.9399C45.3899 24.9173 45.1381 24.9193 44.8503 24.9412C44.2869 27.1383 42.6058 28.7352 40.4456 29.2855L40.4814 30.1235H40.4821ZM46.8577 26.5893C47.5315 26.7455 47.9362 27.2778 47.9707 27.8812C48.0073 28.5106 47.6365 28.9771 46.9913 29.2569L47.4903 29.7367C48.3654 29.4623 48.8412 28.6787 48.7574 27.7709C48.6737 26.8631 47.9966 26.0982 47.0969 25.7965L47.2311 24.9219L46.6178 24.9326C46.4065 25.9467 46.0378 26.8412 45.4431 27.7098L46.2989 28.5691C46.5474 28.5252 46.8929 28.3896 47.0218 28.2095C47.364 27.7324 46.6737 27.4426 46.5381 27.2672L46.8571 26.5887L46.8577 26.5893ZM49.5016 27.0552C49.901 26.3414 49.7369 25.4788 49.1521 24.9246L48.071 24.9213C48.0325 25.0136 48.0205 25.2462 48.1016 25.2987C48.7455 25.7194 49.2279 26.2949 49.5016 27.0545V27.0552ZM39.5831 34.3588L39.5731 28.918C39.6057 28.6382 39.8017 28.4481 40.0595 28.377C40.8928 28.1451 41.6396 27.8268 42.3094 27.2207L41.6237 26.5435C40.0834 27.8241 37.9299 27.8248 36.3571 26.5415L35.6667 27.1987C36.3132 27.8028 37.082 28.1464 37.9133 28.373C38.2521 28.4654 38.3983 28.7053 38.3983 29.0476L38.403 34.388C38.8143 34.2172 39.1638 34.2485 39.5831 34.3595V34.3588ZM46.9162 32.0235C47.1022 31.6666 47.3601 31.3862 47.7288 31.2154L44.9055 28.3883L44.1772 29.1692L46.9155 32.0228L46.9162 32.0235ZM32.8766 31.3829L32.549 31.7338C32.6121 32.1903 32.838 32.6894 33.3058 32.8728C33.9929 33.1426 34.8042 32.9273 35.3218 32.4508C35.8395 31.9743 36.0594 31.2147 35.9391 30.5389C35.3896 30.291 34.9637 30.0325 34.478 29.7068L33.6626 30.5654C33.5231 30.7123 33.6673 31.1077 33.8102 31.2081C34.2839 31.5404 34.2912 30.6924 34.7497 30.7628C34.8773 30.7821 35.157 30.9303 35.1663 31.0579C35.2095 31.6507 34.678 32.0833 34.159 32.1484C33.5929 32.2196 33.1071 31.9338 32.8772 31.3835L32.8766 31.3829ZM44.2277 32.1371C43.5486 32.2382 42.8782 31.8334 42.8005 31.1263C42.7825 30.9629 43.0722 30.7887 43.2211 30.7681C43.6968 30.7023 43.7832 31.6321 44.2497 31.1888C44.358 31.0865 44.4836 30.7336 44.3786 30.6259L43.4955 29.7208C42.9912 30.063 42.5692 30.2983 42.0476 30.5409C41.9739 31.1536 42.0921 31.8042 42.5167 32.292C43.0423 32.8961 43.9254 33.1499 44.6869 32.8781C45.1673 32.7067 45.4019 32.1823 45.4384 31.7258L45.1141 31.3616C44.9819 31.7497 44.7095 32.0647 44.2284 32.1365L44.2277 32.1371ZM37.5099 32.4794C37.5604 31.9544 37.5272 31.5317 37.5332 31.028L36.8289 30.8565C36.8488 32.1551 36.1305 33.2762 34.8501 33.7175C35.1896 33.9594 35.6089 34.091 36.0521 33.992C36.7405 33.8384 37.4348 33.249 37.5093 32.4794H37.5099ZM41.2542 33.6909C41.8722 34.1468 42.6131 34.1102 43.1739 33.7201C41.9333 33.2988 41.1313 32.2348 41.1811 30.8778L40.4516 31.0227C40.4688 32.1146 40.227 32.9333 41.2542 33.6916V33.6909ZM30.2798 32.5598C30.2798 32.2448 30.0247 31.9896 29.7097 31.9896C29.3947 31.9896 29.1396 32.2448 29.1396 32.5598C29.1396 32.8748 29.3947 33.13 29.7097 33.13C30.0247 33.13 30.2798 32.8748 30.2798 32.5598ZM48.8458 32.5611C48.8458 32.2481 48.592 31.9949 48.2797 31.9949C47.9674 31.9949 47.7136 32.2488 47.7136 32.5611C47.7136 32.8735 47.9674 33.1274 48.2797 33.1274C48.592 33.1274 48.8458 32.8735 48.8458 32.5611ZM39.5532 35.7046C39.5532 35.3949 39.3027 35.1443 38.993 35.1443C38.6834 35.1443 38.4329 35.3949 38.4329 35.7046C38.4329 36.0142 38.6834 36.2648 38.993 36.2648C39.3027 36.2648 39.5532 36.0142 39.5532 35.7046Z" fill="#F7F3CF"/>
<path d="M58.3988 20.0387C58.8623 20.0387 59.238 19.6629 59.238 19.1993C59.238 18.7358 58.8623 18.36 58.3988 18.36C57.9353 18.36 57.5596 18.7358 57.5596 19.1993C57.5596 19.6629 57.9353 20.0387 58.3988 20.0387Z" fill="#F7F3CF"/>
<path d="M22.3739 17.3459C22.823 17.3459 23.1872 16.9817 23.1872 16.5324C23.1872 16.0832 22.823 15.719 22.3739 15.719C21.9247 15.719 21.5605 16.0832 21.5605 16.5324C21.5605 16.9817 21.9247 17.3459 22.3739 17.3459Z" fill="#F7F3CF"/>
<path d="M36.9897 49.8891C37.437 49.8891 37.7997 49.5264 37.7997 49.079C37.7997 48.6316 37.437 48.2689 36.9897 48.2689C36.5423 48.2689 36.1797 48.6316 36.1797 49.079C36.1797 49.5264 36.5423 49.8891 36.9897 49.8891Z" fill="#F7F3CF"/>
<path d="M36.0101 43.3079C36.4501 43.3079 36.8068 42.9511 36.8068 42.5111C36.8068 42.071 36.4501 41.7142 36.0101 41.7142C35.5701 41.7142 35.2134 42.071 35.2134 42.5111C35.2134 42.9511 35.5701 43.3079 36.0101 43.3079Z" fill="#F7F3CF"/>
<path d="M61.9155 57.1947C62.3496 57.1947 62.7015 56.8427 62.7015 56.4085C62.7015 55.9743 62.3496 55.6223 61.9155 55.6223C61.4813 55.6223 61.1294 55.9743 61.1294 56.4085C61.1294 56.8427 61.4813 57.1947 61.9155 57.1947Z" fill="#F7F3CF"/>
<path d="M67.3109 43.9425C67.7377 43.9425 68.0836 43.5965 68.0836 43.1696C68.0836 42.7428 67.7377 42.3967 67.3109 42.3967C66.8841 42.3967 66.5381 42.7428 66.5381 43.1696C66.5381 43.5965 66.8841 43.9425 67.3109 43.9425Z" fill="#F7F3CF"/>
<path d="M53.8195 16.1484C54.2419 16.1484 54.5843 15.8059 54.5843 15.3834C54.5843 14.961 54.2419 14.6185 53.8195 14.6185C53.3971 14.6185 53.0547 14.961 53.0547 15.3834C53.0547 15.8059 53.3971 16.1484 53.8195 16.1484Z" fill="#F7F3CF"/>
<path d="M10.1461 32.8223C10.5622 32.8223 10.8996 32.4849 10.8996 32.0687C10.8996 31.6525 10.5622 31.3151 10.1461 31.3151C9.72994 31.3151 9.39258 31.6525 9.39258 32.0687C9.39258 32.4849 9.72994 32.8223 10.1461 32.8223Z" fill="#F7F3CF"/>
<path d="M17.4028 18.7667C17.8197 18.7667 18.1576 18.4287 18.1576 18.0118C18.1576 17.5948 17.8197 17.2568 17.4028 17.2568C16.9859 17.2568 16.6479 17.5948 16.6479 18.0118C16.6479 18.4287 16.9859 18.7667 17.4028 18.7667Z" fill="#F7F3CF"/>
<path d="M13.7477 29.9374C14.1598 29.9374 14.4939 29.6033 14.4939 29.1911C14.4939 28.779 14.1598 28.4448 13.7477 28.4448C13.3356 28.4448 13.0015 28.779 13.0015 29.1911C13.0015 29.6033 13.3356 29.9374 13.7477 29.9374Z" fill="#F7F3CF"/>
<path d="M62.9015 21.2449C63.3044 21.2449 63.6311 20.9182 63.6311 20.5152C63.6311 20.1122 63.3044 19.7855 62.9015 19.7855C62.4985 19.7855 62.1719 20.1122 62.1719 20.5152C62.1719 20.9182 62.4985 21.2449 62.9015 21.2449Z" fill="#F7F3CF"/>
<path d="M67.0459 31.2307C67.4467 31.2307 67.7715 30.9058 67.7715 30.505C67.7715 30.1042 67.4467 29.7793 67.0459 29.7793C66.6452 29.7793 66.3203 30.1042 66.3203 30.505C66.3203 30.9058 66.6452 31.2307 67.0459 31.2307Z" fill="#F7F3CF"/>
<path d="M56.3768 62.3386C56.776 62.3386 57.0997 62.0148 57.0997 61.6155C57.0997 61.2162 56.776 60.8925 56.3768 60.8925C55.9775 60.8925 55.6538 61.2162 55.6538 61.6155C55.6538 62.0148 55.9775 62.3386 56.3768 62.3386Z" fill="#F7F3CF"/>
<path d="M46.1294 41.2903C46.5261 41.2903 46.8477 40.9687 46.8477 40.5719C46.8477 40.1752 46.5261 39.8535 46.1294 39.8535C45.7327 39.8535 45.4111 40.1752 45.4111 40.5719C45.4111 40.9687 45.7327 41.2903 46.1294 41.2903Z" fill="#F7F3CF"/>
<path d="M19.3611 60.5793C19.7552 60.5793 20.0747 60.2598 20.0747 59.8656C20.0747 59.4714 19.7552 59.1519 19.3611 59.1519C18.967 59.1519 18.6475 59.4714 18.6475 59.8656C18.6475 60.2598 18.967 60.5793 19.3611 60.5793Z" fill="#F7F3CF"/>
<path d="M20.372 24.1591C20.7562 24.1591 21.0677 23.8475 21.0677 23.4633C21.0677 23.079 20.7562 22.7675 20.372 22.7675C19.9877 22.7675 19.6763 23.079 19.6763 23.4633C19.6763 23.8475 19.9877 24.1591 20.372 24.1591Z" fill="#F7F3CF"/>
<path d="M52.6052 12.3211C52.9891 12.3211 53.3002 12.0098 53.3002 11.6259C53.3002 11.242 52.9891 10.9308 52.6052 10.9308C52.2213 10.9308 51.9102 11.242 51.9102 11.6259C51.9102 12.0098 52.2213 12.3211 52.6052 12.3211Z" fill="#F7F3CF"/>
<path d="M15.5931 55.9221C15.9659 55.9221 16.2682 55.6198 16.2682 55.2469C16.2682 54.874 15.9659 54.5717 15.5931 54.5717C15.2202 54.5717 14.918 54.874 14.918 55.2469C14.918 55.6198 15.2202 55.9221 15.5931 55.9221Z" fill="#F7F3CF"/>
<path d="M31.7422 10.443C32.1125 10.443 32.4127 10.1428 32.4127 9.77248C32.4127 9.40214 32.1125 9.10193 31.7422 9.10193C31.3719 9.10193 31.0718 9.40214 31.0718 9.77248C31.0718 10.1428 31.3719 10.443 31.7422 10.443Z" fill="#F7F3CF"/>
<path d="M57.6031 24.6734C57.9734 24.6734 58.2735 24.3732 58.2735 24.0028C58.2735 23.6325 57.9734 23.3323 57.6031 23.3323C57.2328 23.3323 56.9326 23.6325 56.9326 24.0028C56.9326 24.3732 57.2328 24.6734 57.6031 24.6734Z" fill="#F7F3CF"/>
<path d="M11.777 49.5496C12.1242 49.5496 12.4056 49.2681 12.4056 48.9209C12.4056 48.5737 12.1242 48.2922 11.777 48.2922C11.4299 48.2922 11.1484 48.5737 11.1484 48.9209C11.1484 49.2681 11.4299 49.5496 11.777 49.5496Z" fill="#F7F3CF"/>
<path d="M24.0803 13.1578C24.4194 13.1578 24.6943 12.8829 24.6943 12.5437C24.6943 12.2046 24.4194 11.9297 24.0803 11.9297C23.7412 11.9297 23.4663 12.2046 23.4663 12.5437C23.4663 12.8829 23.7412 13.1578 24.0803 13.1578Z" fill="#F7F3CF"/>
<path d="M68.1202 35.884C68.4439 35.884 68.7063 35.6215 68.7063 35.2978C68.7063 34.9741 68.4439 34.7117 68.1202 34.7117C67.7966 34.7117 67.5342 34.9741 67.5342 35.2978C67.5342 35.6215 67.7966 35.884 68.1202 35.884Z" fill="#F7F3CF"/>
<path d="M16.4353 26.7741C16.7451 26.7741 16.9961 26.523 16.9961 26.2132C16.9961 25.9035 16.7451 25.6523 16.4353 25.6523C16.1256 25.6523 15.8745 25.9035 15.8745 26.2132C15.8745 26.523 16.1256 26.7741 16.4353 26.7741Z" fill="#F7F3CF"/>
<path d="M44.1075 9.45474C44.4025 9.45474 44.6417 9.21551 44.6417 8.92042C44.6417 8.62533 44.4025 8.38611 44.1075 8.38611C43.8124 8.38611 43.5732 8.62533 43.5732 8.92042C43.5732 9.21551 43.8124 9.45474 44.1075 9.45474Z" fill="#F7F3CF"/>
<path d="M40.1906 53.6805C40.4838 53.6805 40.7215 53.4428 40.7215 53.1495C40.7215 52.8563 40.4838 52.6185 40.1906 52.6185C39.8974 52.6185 39.6597 52.8563 39.6597 53.1495C39.6597 53.4428 39.8974 53.6805 40.1906 53.6805Z" fill="#F7F3CF"/>
<path d="M41.4467 51.94C41.7385 51.94 41.975 51.7034 41.975 51.4116C41.975 51.1198 41.7385 50.8833 41.4467 50.8833C41.155 50.8833 40.9185 51.1198 40.9185 51.4116C40.9185 51.7034 41.155 51.94 41.4467 51.94Z" fill="#F7F3CF"/>
<path d="M42.0677 49.9516C42.3613 49.9516 42.5993 49.7136 42.5993 49.42C42.5993 49.1263 42.3613 48.8883 42.0677 48.8883C41.7741 48.8883 41.5361 49.1263 41.5361 49.42C41.5361 49.7136 41.7741 49.9516 42.0677 49.9516Z" fill="#F7F3CF"/>
<path d="M68.5768 39.4641C68.87 39.4641 69.1077 39.2264 69.1077 38.9331C69.1077 38.6398 68.87 38.4021 68.5768 38.4021C68.2836 38.4021 68.0459 38.6398 68.0459 38.9331C68.0459 39.2264 68.2836 39.4641 68.5768 39.4641Z" fill="#F7F3CF"/>
<path d="M39.2421 55.5406C39.5327 55.5406 39.7683 55.3049 39.7683 55.0143C39.7683 54.7236 39.5327 54.4879 39.2421 54.4879C38.9514 54.4879 38.7158 54.7236 38.7158 55.0143C38.7158 55.3049 38.9514 55.5406 39.2421 55.5406Z" fill="#F7F3CF"/>
<path d="M40.1882 46.3257C40.4796 46.3257 40.7158 46.0895 40.7158 45.7981C40.7158 45.5066 40.4796 45.2704 40.1882 45.2704C39.8969 45.2704 39.6606 45.5066 39.6606 45.7981C39.6606 46.0895 39.8969 46.3257 40.1882 46.3257Z" fill="#F7F3CF"/>
<path d="M66.2125 50.4561C66.5046 50.4561 66.7414 50.2192 66.7414 49.9271C66.7414 49.6349 66.5046 49.3981 66.2125 49.3981C65.9204 49.3981 65.6836 49.6349 65.6836 49.9271C65.6836 50.2192 65.9204 50.4561 66.2125 50.4561Z" fill="#F7F3CF"/>
<path d="M39.1831 44.6477C39.4719 44.6477 39.706 44.4136 39.706 44.1247C39.706 43.8358 39.4719 43.6017 39.1831 43.6017C38.8943 43.6017 38.6602 43.8358 38.6602 44.1247C38.6602 44.4136 38.8943 44.6477 39.1831 44.6477Z" fill="#F7F3CF"/>
<path d="M41.55 47.9187C41.8403 47.9187 42.0756 47.6833 42.0756 47.393C42.0756 47.1027 41.8403 46.8673 41.55 46.8673C41.2597 46.8673 41.0244 47.1027 41.0244 47.393C41.0244 47.6833 41.2597 47.9187 41.55 47.9187Z" fill="#F7F3CF"/>
<path d="M38.9926 63.2616C39.2792 63.2616 39.5115 63.0292 39.5115 62.7425C39.5115 62.4559 39.2792 62.2235 38.9926 62.2235C38.706 62.2235 38.4736 62.4559 38.4736 62.7425C38.4736 63.0292 38.706 63.2616 38.9926 63.2616Z" fill="#F7F3CF"/>
<path d="M38.9902 61.3443C39.275 61.3443 39.5059 61.1134 39.5059 60.8286C39.5059 60.5438 39.275 60.3129 38.9902 60.3129C38.7055 60.3129 38.4746 60.5438 38.4746 60.8286C38.4746 61.1134 38.7055 61.3443 38.9902 61.3443Z" fill="#F7F3CF"/>
<path d="M38.9898 65.1855C39.2768 65.1855 39.5094 64.9528 39.5094 64.6658C39.5094 64.3788 39.2768 64.1461 38.9898 64.1461C38.7029 64.1461 38.4702 64.3788 38.4702 64.6658C38.4702 64.9528 38.7029 65.1855 38.9898 65.1855Z" fill="#F7F3CF"/>
<path d="M38.9924 69.0074C39.2787 69.0074 39.5107 68.7754 39.5107 68.4891C39.5107 68.2028 39.2787 67.9707 38.9924 67.9707C38.7062 67.9707 38.4741 68.2028 38.4741 68.4891C38.4741 68.7754 38.7062 69.0074 38.9924 69.0074Z" fill="#F7F3CF"/>
<path d="M61.8588 24.9139C62.1414 24.9139 62.3705 24.6848 62.3705 24.4022C62.3705 24.1196 62.1414 23.8905 61.8588 23.8905C61.5762 23.8905 61.3472 24.1196 61.3472 24.4022C61.3472 24.6848 61.5762 24.9139 61.8588 24.9139Z" fill="#F7F3CF"/>
<path d="M38.9884 67.0928C39.2725 67.0928 39.5027 66.8625 39.5027 66.5785C39.5027 66.2944 39.2725 66.0641 38.9884 66.0641C38.7044 66.0641 38.4741 66.2944 38.4741 66.5785C38.4741 66.8625 38.7044 67.0928 38.9884 67.0928Z" fill="#F7F3CF"/>
<path d="M38.9885 42.7843C39.2747 42.7843 39.5068 42.5522 39.5068 42.2659C39.5068 41.9796 39.2747 41.7476 38.9885 41.7476C38.7023 41.7476 38.4702 41.9796 38.4702 42.2659C38.4702 42.5522 38.7023 42.7843 38.9885 42.7843Z" fill="#F7F3CF"/>
<path d="M65.7737 26.2929C66.061 26.2929 66.294 26.0599 66.294 25.7726C66.294 25.4852 66.061 25.2522 65.7737 25.2522C65.4864 25.2522 65.2534 25.4852 65.2534 25.7726C65.2534 26.0599 65.4864 26.2929 65.7737 26.2929Z" fill="#F7F3CF"/>
<path d="M38.9895 39.0288C39.2728 39.0288 39.5025 38.7991 39.5025 38.5157C39.5025 38.2324 39.2728 38.0027 38.9895 38.0027C38.7062 38.0027 38.4766 38.2324 38.4766 38.5157C38.4766 38.7991 38.7062 39.0288 38.9895 39.0288Z" fill="#F7F3CF"/>
<path d="M38.9856 57.531C39.2689 57.531 39.4986 57.3013 39.4986 57.0179C39.4986 56.7346 39.2689 56.5049 38.9856 56.5049C38.7023 56.5049 38.4727 56.7346 38.4727 57.0179C38.4727 57.3013 38.7023 57.531 38.9856 57.531Z" fill="#F7F3CF"/>
<path d="M38.9909 59.435C39.2749 59.435 39.5052 59.2047 39.5052 58.9206C39.5052 58.6365 39.2749 58.4062 38.9909 58.4062C38.7068 58.4062 38.4766 58.6365 38.4766 58.9206C38.4766 59.2047 38.7068 59.435 38.9909 59.435Z" fill="#F7F3CF"/>
<path d="M12.9345 24.3012C13.2182 24.3012 13.4482 24.0712 13.4482 23.7875C13.4482 23.5038 13.2182 23.2738 12.9345 23.2738C12.6509 23.2738 12.4209 23.5038 12.4209 23.7875C12.4209 24.0712 12.6509 24.3012 12.9345 24.3012Z" fill="#F7F3CF"/>
<path d="M38.9871 40.9048C39.2715 40.9048 39.5021 40.6742 39.5021 40.3898C39.5021 40.1053 39.2715 39.8748 38.9871 39.8748C38.7027 39.8748 38.4722 40.1053 38.4722 40.3898C38.4722 40.6742 38.7027 40.9048 38.9871 40.9048Z" fill="#F7F3CF"/>
<path d="M24.895 28.4568C25.1746 28.4568 25.4013 28.2301 25.4013 27.9504C25.4013 27.6707 25.1746 27.444 24.895 27.444C24.6154 27.444 24.3887 27.6707 24.3887 27.9504C24.3887 28.2301 24.6154 28.4568 24.895 28.4568Z" fill="#F7F3CF"/>
<path d="M44.6011 45.2378C44.879 45.2378 45.1042 45.0126 45.1042 44.7348C45.1042 44.4569 44.879 44.2317 44.6011 44.2317C44.3233 44.2317 44.0981 44.4569 44.0981 44.7348C44.0981 45.0126 44.3233 45.2378 44.6011 45.2378Z" fill="#F7F3CF"/>
<path d="M32.5854 41.5296C32.8639 41.5296 33.0897 41.3037 33.0897 41.0252C33.0897 40.7466 32.8639 40.5208 32.5854 40.5208C32.3069 40.5208 32.0811 40.7466 32.0811 41.0252C32.0811 41.3037 32.3069 41.5296 32.5854 41.5296Z" fill="#F7F3CF"/>
<path d="M58.0799 15.711C58.354 15.711 58.5762 15.4887 58.5762 15.2146C58.5762 14.9404 58.354 14.7181 58.0799 14.7181C57.8057 14.7181 57.5835 14.9404 57.5835 15.2146C57.5835 15.4887 57.8057 15.711 58.0799 15.711Z" fill="#F7F3CF"/>
<path d="M16.183 22.2371C16.4604 22.2371 16.6853 22.0122 16.6853 21.7347C16.6853 21.4572 16.4604 21.2323 16.183 21.2323C15.9056 21.2323 15.6807 21.4572 15.6807 21.7347C15.6807 22.0122 15.9056 22.2371 16.183 22.2371Z" fill="#F7F3CF"/>
<path d="M48.3111 10.326C48.5746 10.326 48.7882 10.1124 48.7882 9.84886C48.7882 9.58534 48.5746 9.3717 48.3111 9.3717C48.0476 9.3717 47.834 9.58534 47.834 9.84886C47.834 10.1124 48.0476 10.326 48.3111 10.326Z" fill="#F7F3CF"/>
<path d="M9.82757 43.0992C10.0837 43.0992 10.2914 42.8916 10.2914 42.6354C10.2914 42.3792 10.0837 42.1715 9.82757 42.1715C9.57142 42.1715 9.36377 42.3792 9.36377 42.6354C9.36377 42.8916 9.57142 43.0992 9.82757 43.0992Z" fill="#F7F3CF"/>
<path d="M53.9091 19.6094C54.1612 19.6094 54.3656 19.405 54.3656 19.1528C54.3656 18.9007 54.1612 18.6963 53.9091 18.6963C53.657 18.6963 53.4526 18.9007 53.4526 19.1528C53.4526 19.405 53.657 19.6094 53.9091 19.6094Z" fill="#F7F3CF"/>
<path d="M9.24541 38.5941C9.48908 38.5941 9.68662 38.3965 9.68662 38.1528C9.68662 37.9091 9.48908 37.7115 9.24541 37.7115C9.00174 37.7115 8.8042 37.9091 8.8042 38.1528C8.8042 38.3965 9.00174 38.5941 9.24541 38.5941Z" fill="#F7F3CF"/>
<path d="M27.2173 10.6264C27.4492 10.6264 27.6373 10.4383 27.6373 10.2064C27.6373 9.97442 27.4492 9.78638 27.2173 9.78638C26.9854 9.78638 26.7974 9.97442 26.7974 10.2064C26.7974 10.4383 26.9854 10.6264 27.2173 10.6264Z" fill="#F7F3CF"/>
<path d="M21.3564 20.5291C21.5873 20.5291 21.7744 20.342 21.7744 20.1111C21.7744 19.8803 21.5873 19.6931 21.3564 19.6931C21.1256 19.6931 20.9385 19.8803 20.9385 20.1111C20.9385 20.342 21.1256 20.5291 21.3564 20.5291Z" fill="#F7F3CF"/>
<path d="M60.0101 59.9561C60.2365 59.9561 60.4201 59.7725 60.4201 59.546C60.4201 59.3196 60.2365 59.136 60.0101 59.136C59.7837 59.136 59.6001 59.3196 59.6001 59.546C59.6001 59.7725 59.7837 59.9561 60.0101 59.9561Z" fill="#F7F3CF"/>
<path d="M25.7888 15.8951C26.009 15.8951 26.1875 15.7166 26.1875 15.4964C26.1875 15.2762 26.009 15.0977 25.7888 15.0977C25.5686 15.0977 25.3901 15.2762 25.3901 15.4964C25.3901 15.7166 25.5686 15.8951 25.7888 15.8951Z" fill="#F7F3CF"/>
<path d="M10.6488 27.7869C10.8683 27.7869 11.0462 27.609 11.0462 27.3895C11.0462 27.17 10.8683 26.9921 10.6488 26.9921C10.4294 26.9921 10.2515 27.17 10.2515 27.3895C10.2515 27.609 10.4294 27.7869 10.6488 27.7869Z" fill="#F7F3CF"/>
<path d="M62.4925 28.3611C62.7097 28.3611 62.8859 28.1849 62.8859 27.9676C62.8859 27.7504 62.7097 27.5742 62.4925 27.5742C62.2752 27.5742 62.0991 27.7504 62.0991 27.9676C62.0991 28.1849 62.2752 28.3611 62.4925 28.3611Z" fill="#F7F3CF"/>
<path d="M20.1471 14.8325C20.364 14.8325 20.5398 14.6567 20.5398 14.4398C20.5398 14.2228 20.364 14.047 20.1471 14.047C19.9302 14.047 19.7544 14.2228 19.7544 14.4398C19.7544 14.6567 19.9302 14.8325 20.1471 14.8325Z" fill="#F7F3CF"/>
<path d="M10.6296 35.8076C10.8447 35.8076 11.019 35.6332 11.019 35.4181C11.019 35.203 10.8447 35.0287 10.6296 35.0287C10.4146 35.0287 10.2402 35.203 10.2402 35.4181C10.2402 35.6332 10.4146 35.8076 10.6296 35.8076Z" fill="#F7F3CF"/>
<path d="M67.6735 47.197C67.8875 47.197 68.0609 47.0235 68.0609 46.8096C68.0609 46.5956 67.8875 46.4221 67.6735 46.4221C67.4596 46.4221 67.2861 46.5956 67.2861 46.8096C67.2861 47.0235 67.4596 47.197 67.6735 47.197Z" fill="#F7F3CF"/>
<path d="M43.3926 39.5079C43.6062 39.5079 43.7793 39.3348 43.7793 39.1212C43.7793 38.9075 43.6062 38.7344 43.3926 38.7344C43.179 38.7344 43.0059 38.9075 43.0059 39.1212C43.0059 39.3348 43.179 39.5079 43.3926 39.5079Z" fill="#F7F3CF"/>
<path d="M64.928 54.0932C65.1298 54.0932 65.2934 53.9296 65.2934 53.7277C65.2934 53.5258 65.1298 53.3622 64.928 53.3622C64.7261 53.3622 64.5625 53.5258 64.5625 53.7277C64.5625 53.9296 64.7261 54.0932 64.928 54.0932Z" fill="#F7F3CF"/>
<path d="M34.7894 37.7468C34.9894 37.7468 35.1515 37.5847 35.1515 37.3847C35.1515 37.1846 34.9894 37.0225 34.7894 37.0225C34.5894 37.0225 34.4272 37.1846 34.4272 37.3847C34.4272 37.5847 34.5894 37.7468 34.7894 37.7468Z" fill="#F7F3CF"/>
<path d="M46.1187 36.4701C46.3213 36.4701 46.4855 36.3059 46.4855 36.1033C46.4855 35.9007 46.3213 35.7365 46.1187 35.7365C45.9162 35.7365 45.752 35.9007 45.752 36.1033C45.752 36.3059 45.9162 36.4701 46.1187 36.4701Z" fill="#F7F3CF"/>
<path d="M53.3143 27.858C53.5062 27.858 53.6618 27.7024 53.6618 27.5104C53.6618 27.3185 53.5062 27.1628 53.3143 27.1628C53.1224 27.1628 52.9668 27.3185 52.9668 27.5104C52.9668 27.7024 53.1224 27.858 53.3143 27.858Z" fill="#F7F3CF"/>
<path d="M31.9176 37.2317C32.1132 37.2317 32.2718 37.0732 32.2718 36.8775C32.2718 36.6819 32.1132 36.5233 31.9176 36.5233C31.722 36.5233 31.5635 36.6819 31.5635 36.8775C31.5635 37.0732 31.722 37.2317 31.9176 37.2317Z" fill="#F7F3CF"/>
<path d="M33.7691 45.814C33.9614 45.814 34.1173 45.6581 34.1173 45.4658C34.1173 45.2735 33.9614 45.1176 33.7691 45.1176C33.5768 45.1176 33.4209 45.2735 33.4209 45.4658C33.4209 45.6581 33.5768 45.814 33.7691 45.814Z" fill="#F7F3CF"/>
<path d="M12.9458 53.2033C13.137 53.2033 13.292 53.0483 13.292 52.8571C13.292 52.6659 13.137 52.5109 12.9458 52.5109C12.7546 52.5109 12.5996 52.6659 12.5996 52.8571C12.5996 53.0483 12.7546 53.2033 12.9458 53.2033Z" fill="#F7F3CF"/>
<path d="M42.4352 42.2852C42.6245 42.2852 42.778 42.1317 42.778 41.9423C42.778 41.7529 42.6245 41.5994 42.4352 41.5994C42.2458 41.5994 42.0923 41.7529 42.0923 41.9423C42.0923 42.1317 42.2458 42.2852 42.4352 42.2852Z" fill="#F7F3CF"/>
<path d="M41.0136 23.3755C41.0136 24.4913 40.1093 25.3958 38.9936 25.3958C37.878 25.3958 36.9736 24.4913 36.9736 23.3755C36.9736 22.2597 37.878 21.3552 38.9936 21.3552C40.1093 21.3552 41.0136 22.2597 41.0136 23.3755ZM40.1345 23.3762C40.1345 22.7468 39.6242 22.2364 38.995 22.2364C38.3657 22.2364 37.8554 22.7468 37.8554 23.3762C37.8554 24.0055 38.3657 24.5159 38.995 24.5159C39.6242 24.5159 40.1345 24.0055 40.1345 23.3762Z" fill="#F7F3CF"/>
</g>
<defs>
<clipPath id="clip0_447_2147">
<rect width="68" height="68" fill="white" transform="translate(5 4)"/>
</clipPath>
</defs>
</svg>
