<svg width="77" height="77" viewBox="0 0 77 77" fill="none" xmlns="http://www.w3.org/2000/svg">
<circle cx="38.5" cy="38.5" r="38.5" fill="#4B5A2A"/>
<path d="M74 36.767V40.3031C73.9792 40.3149 73.9375 40.4447 73.9368 40.5057C73.8806 43.159 73.1089 46.861 72.2956 49.413C70.707 54.3961 68.0185 58.9011 64.4619 62.7259C58.6553 68.9715 50.2026 73.1808 41.7103 73.8561L40.9795 73.9144C40.6963 73.9366 39.8677 73.8936 39.9586 73.9998H37.0467C34.2749 73.8436 31.5455 73.4598 28.8125 72.6596C23.2676 71.0362 18.1148 68.1324 13.9349 64.1202C10.2214 60.5556 7.35591 56.2124 5.44675 51.4548C4.7611 49.7468 4.28155 48.0651 3.87349 46.2801C1.60346 36.361 3.82144 25.8561 9.78763 17.629C16.132 8.88145 26.1941 3.48604 36.9877 3.03144C41.8484 2.8267 46.7403 3.62276 51.2852 5.39116C55.8301 7.15955 60.3514 10.0592 63.9219 13.6973C66.0983 15.9148 67.9498 18.414 69.4787 21.1179C72.0201 25.6125 73.4774 30.6033 73.9084 35.7308C73.941 36.1188 73.9001 36.4491 73.9993 36.767H74ZM38.2882 30.7754C39.0752 29.2402 39.9885 27.9951 41.0975 26.8104C44.16 23.5325 48.2934 21.501 52.7571 20.9854L60.6165 20.0477C62.4174 19.8326 64.1183 19.453 65.8686 19.0344C58.2209 8.27278 44.9873 3.12306 32.0722 5.59451C23.7194 7.21091 16.1015 12.0025 11.1756 19.0351C14.0577 19.7208 16.885 20.2435 19.7859 20.7314C21.6222 21.0402 23.3675 21.3643 25.1615 21.8113C30.5419 23.2257 35.2749 25.9387 38.2875 30.7754H38.2882ZM10.8335 25.4661C11.2887 23.6879 11.5691 21.9681 11.5448 20.1623L10.5267 19.9284L10.145 20.6064C10.2228 22.2707 9.92643 23.8288 9.33307 25.3772L10.8342 25.4661H10.8335ZM66.1663 25.4841L67.6431 25.3862C66.3335 23.8802 65.9407 21.9077 66.5376 19.9409L65.2655 20.2108C64.7346 21.7058 65.0282 24.3237 66.1663 25.4841ZM13.1139 25.5764C13.5102 23.8961 13.8232 22.3596 14.0008 20.6661L12.3332 20.3219C12.3366 22.1111 12.0861 23.7462 11.6586 25.507L13.1139 25.5764ZM64.0351 25.6187L65.2114 25.5264C64.2842 23.9649 64.0344 22.1812 64.4327 20.3878L63.0996 20.6418C62.5798 22.2811 62.8504 24.3084 64.0344 25.618L64.0351 25.6187ZM15.4332 25.6729C15.8392 24.1217 16.1889 22.708 16.4936 21.1547L14.767 20.816C14.5886 22.4748 14.3221 23.9919 13.9439 25.5861L15.4332 25.6729ZM63.1023 25.6583C62.0954 24.214 61.8775 22.4942 62.2564 20.7959L60.9982 21.002C60.3583 22.6566 60.7352 24.4958 62.0176 25.7402L63.1023 25.6583ZM69.3586 25.2433C68.6667 23.6754 67.9804 22.2589 67.1018 20.8611C66.7964 22.5435 67.396 24.2036 68.6147 25.2974C68.8485 25.3481 69.1365 25.3314 69.3586 25.2433ZM60.3861 25.8672C60.6304 25.8623 60.8177 25.845 61.0634 25.7922C59.9988 24.4604 59.6699 22.8246 60.1571 21.1256L58.7802 21.2824C58.5581 22.0556 58.4561 22.844 58.6289 23.6283C59.3278 24.3112 59.8774 25.0059 60.3861 25.8679V25.8672ZM17.7678 25.9213C18.2438 24.4521 18.6755 23.0571 19.06 21.6169L17.2723 21.3053C16.9759 22.8003 16.6414 24.2557 16.2514 25.7395L17.7678 25.9213ZM57.7864 22.9065L57.944 21.3782L55.6927 21.6572C56.4623 22.0056 57.1278 22.3963 57.7864 22.9072V22.9065ZM20.0961 26.3461C20.7332 24.9421 21.2495 23.5686 21.6867 22.0729L19.8463 21.7328L18.5992 26.0463L20.0954 26.3454L20.0961 26.3461ZM8.5107 25.28C8.97983 24.1286 9.27616 23.0057 9.34903 21.8494C8.68211 22.9856 8.17064 24.0926 7.66751 25.2689C7.96245 25.3321 8.25045 25.3557 8.51 25.28H8.5107ZM48.9534 31.5132C49.7875 31.0357 50.6384 30.8392 51.5759 30.765C52.7023 29.2478 54.1562 28.0784 55.9071 27.4593C53.9702 26.4432 53.2755 24.1037 54.1923 22.1513C53.6239 21.9057 53.0486 21.9473 52.4323 22.0535C53.3928 25.203 52.347 28.6648 49.7258 30.7303C48.4232 31.7568 46.8596 32.2641 45.1642 32.2072C45.7048 32.5972 46.1712 32.9942 46.648 33.4474C47.3489 32.6826 48.0762 32.0378 48.9534 31.5125V31.5132ZM22.4258 26.9617C23.2176 25.4876 23.8443 24.1446 24.4057 22.6448L22.4556 22.2319C22.0351 23.7337 21.5104 25.0975 20.9129 26.5321L22.4251 26.961L22.4258 26.9617ZM40.4708 29.1014C41.3452 30.0515 42.2953 30.7365 43.4674 31.0974C45.4182 31.6971 47.5224 31.3868 49.1394 30.1299C51.5399 28.2644 52.5059 25.0552 51.5815 22.1805L50.5169 22.4192C51.1498 24.3903 50.755 26.5029 49.4468 28.0631C47.276 30.6526 43.432 30.6401 41.2585 28.0791L40.4701 29.1028L40.4708 29.1014ZM59.1439 25.702C58.4027 25.929 57.7545 25.9755 57.107 25.7263C55.939 25.278 55.3852 23.9843 55.8995 22.8232C55.5518 22.6316 55.2194 22.4817 54.8314 22.3637C54.2166 23.7442 54.4699 25.3293 55.5601 26.3662C57.0862 27.8174 57.64 26.605 59.96 27.1442C59.6859 26.5911 59.461 26.1913 59.1446 25.7006L59.1439 25.702ZM48.2129 28.3109C49.9041 26.9339 50.5717 24.6464 49.834 22.5969C49.4065 22.7066 49.0707 22.8148 48.7292 22.9682C49.4676 24.6651 48.8264 26.6327 47.2836 27.5599C45.7409 28.4872 43.7485 28.1638 42.5666 26.7347C42.2613 27.0137 42.0038 27.2768 41.7387 27.5856C43.4202 29.5817 46.2274 29.9287 48.2129 28.3116V28.3109ZM24.5917 27.8875C25.582 26.4342 26.4509 25.0108 27.0942 23.4298L25.1532 22.828C24.6007 24.409 23.9331 25.8214 23.194 27.2733L24.5917 27.8882V27.8875ZM43.8026 25.6555L43.0434 26.2968C43.7749 27.1095 44.7673 27.5454 45.8402 27.3982C46.7625 27.2719 47.5515 26.6646 47.9429 25.9609C48.4447 25.0573 48.4808 24.0898 48.0741 23.1986L47.1837 23.5956C47.6272 24.6776 47.2129 25.8804 46.1309 26.3044C45.2871 26.6348 44.4536 26.3468 43.8033 25.6562L43.8026 25.6555ZM58.7323 25.1468C58.055 24.3618 57.3492 23.6699 56.472 23.1452C56.2034 23.842 56.4338 24.5326 57.005 24.9289C57.5102 25.2794 58.1313 25.3633 58.733 25.1468H58.7323ZM26.5848 29.0604C27.8465 27.7099 28.8965 26.2198 29.8022 24.5527L27.8347 23.7115C27.1574 25.3619 26.2816 26.8104 25.326 28.2609L26.5848 29.0604ZM46.3523 25.3807C46.7493 24.9698 46.777 24.3514 46.5647 23.8691C45.7659 24.3077 45.0469 24.7408 44.3488 25.2551C44.8457 25.8623 45.786 25.9664 46.3523 25.3807ZM28.4072 30.5283C29.9569 29.1868 31.306 27.7584 32.3762 26.0241L30.4823 24.8907C29.6044 26.6258 28.5148 28.1214 27.2476 29.5379L28.4072 30.5283ZM58.3159 53.2447L60.5138 55.4469C61.0572 55.991 61.7602 56.5039 62.5569 56.5046L66.8506 56.5067C69.5057 52.3251 71.1116 47.8021 71.7848 42.8814C72.5558 37.2473 71.8244 31.5562 69.757 26.2454L67.1171 26.4127L60.8663 26.8409C61.5326 28.3053 61.9142 29.7427 62.0017 31.2869C62.019 31.5923 61.8199 31.8012 61.5527 31.8144C61.3327 31.8255 61.0953 31.6478 61.0683 31.3917L60.9746 30.5047C57.835 28.8932 54.1652 30.7456 53.0375 33.968C52.9695 34.163 52.7758 34.2352 52.6141 34.2164C52.4983 34.2025 52.288 34.0061 52.3393 33.8527C53.5004 30.3652 57.2965 28.279 60.7067 29.6511C60.7477 29.6677 60.8337 29.6948 60.8288 29.6691C60.74 29.227 60.5374 28.5607 60.3618 28.0791C57.5879 27.408 54.914 28.3498 53.0097 30.4034C52.2269 31.2473 51.6578 32.2002 51.2067 33.2545C51.1061 33.4905 50.8584 33.564 50.6273 33.4766C50.4683 33.4169 50.29 33.1365 50.3872 32.9262L50.9118 31.7866C48.2913 32.2974 45.922 35.5524 44.8554 37.7914C43.6562 40.3086 43.0358 42.9814 42.8949 45.7769C42.7825 48.0041 42.8713 50.1486 43.0316 52.3647C43.0608 52.7665 42.9157 53.101 42.4834 53.1934C42.051 53.2857 41.5971 53.3301 41.1356 53.3301L35.7337 53.328C35.1826 53.328 34.6462 53.2954 34.1257 53.2253C33.6052 53.1552 33.3443 52.7499 33.3845 52.2377C33.6038 49.431 33.6087 46.6708 33.2311 43.8773L34.1507 43.5616C34.4026 45.271 34.4435 46.877 34.4914 48.6467C35.3797 46.9922 35.5664 45.1148 35.0744 43.2652C35.3429 43.1396 35.5858 43.0459 35.8697 42.9515C36.6844 45.7332 35.9779 48.113 34.4623 50.4714L34.3804 52.3182L35.6899 52.3792C36.1854 48.9001 38.5478 45.8394 42.0087 44.8414L42.1135 43.7927C39.613 44.4076 37.1098 43.1097 36.3888 40.5862L35.1833 40.9957L35.1771 41.256L34.4456 41.3594C34.3207 41.2345 34.1868 41.147 34.0945 41.1692L33.8023 41.24L33.7509 41.5197L32.8987 41.7009C32.3317 39.1274 31.8272 37.2577 30.5829 34.9667C29.0124 32.0746 26.5585 29.8239 23.5535 28.4927C22.4466 28.002 21.3619 27.6634 20.1821 27.3608C18.2501 26.9443 16.3659 26.7105 14.3735 26.6057L7.27124 26.2316C4.7486 32.6902 4.25518 39.7631 5.91589 46.5279L12.6066 44.5707C13.0605 44.4381 13.4734 44.3972 13.9335 44.4923L17.307 44.7761C17.5832 44.7997 17.799 44.9406 18.0134 45.1558L20.6922 44.3958C21.1024 44.2792 21.4584 44.4166 21.7394 44.7442L30.018 42.4858C30.6745 42.3068 31.3345 42.4941 31.9896 42.3727L35.8926 41.6474C36.0605 41.6162 36.2722 41.7418 36.2992 41.8653C36.3374 42.0416 36.2486 42.2498 36.0709 42.3137L32.1451 43.7212L30.7717 44.4596L22.3335 47.0463C22.2773 47.4967 22.0261 47.7889 21.6242 47.9152L19.0149 48.7363C18.9413 49.0479 18.8198 49.3206 18.5749 49.508L15.6761 51.7303C15.4276 51.9212 15.1369 52.0572 14.8308 52.1495L8.7175 53.995L10.1783 56.5032L16.0363 56.4983C16.969 56.4976 17.8052 56.313 18.6477 55.9292C20.6443 55.02 22.3293 54.8431 24.3169 55.941C25.1122 56.3803 25.9221 56.7038 26.8576 56.7197L29.1491 56.76L31.6086 54.9083C32.3845 54.3246 33.4595 54.4072 34.1208 55.0818C34.5185 54.7986 34.9175 54.6092 35.3735 54.5779C36.1126 54.5273 36.6525 54.9673 36.971 55.5697C37.4762 55.5329 38.0557 55.6218 38.3798 56.0167C39.0086 56.7836 38.7733 57.6504 38.0113 58.3292L33.2922 62.5392C32.7141 63.0549 32.0736 63.3727 31.3067 63.4963L27.326 64.1369C26.7493 64.2299 26.1435 64.1251 25.5772 63.9772L21.0802 62.8043C20.3827 62.6225 19.7526 62.603 19.0572 62.8078L16.2868 63.6233C19.0822 66.1218 22.2967 68.0505 25.7347 69.4865C33.9931 72.9358 43.296 72.8949 51.5274 69.3858C55.048 67.8853 58.3305 65.8796 61.1599 63.2534L60.5089 63.093C59.79 62.9161 59.1786 63.0639 58.5359 63.3991C57.7885 63.7885 56.989 64.1827 56.1132 64.207C54.3998 64.2548 52.7307 64.2382 51.0353 64.2007C50.4427 64.1875 49.9541 63.8849 49.6626 63.4838C49.3087 62.9966 49.3545 62.4351 49.5211 61.9C49.054 61.732 48.664 61.3815 48.5252 60.9936C48.342 60.4828 48.3635 60.0185 48.6459 59.5555C47.9478 59.1287 47.6841 58.3382 48.0096 57.5769L43.4293 57.5796C42.5007 57.5796 41.7685 56.998 41.7456 56.0666C41.7262 55.2567 42.3841 54.4912 43.2946 54.4863L50.4031 54.4489C50.0943 54.0415 49.8694 53.6403 49.8653 53.1267C49.8611 52.634 50.1887 52.1731 50.7133 52.1697L55.6941 52.137C56.701 52.1308 57.5949 52.5181 58.3166 53.2412L58.3159 53.2447ZM30.0069 32.2953C31.8224 31.019 33.3921 29.6004 34.6732 27.8737C34.1104 27.3538 33.5719 26.9041 32.9924 26.4842C31.8897 28.2824 30.5121 29.7406 28.9638 31.0877L30.0069 32.2953ZM36.6025 30.0397C36.1674 29.4554 35.7385 28.9598 35.234 28.424C33.8939 30.2 32.2956 31.6381 30.4837 32.9137L31.3248 34.2671C33.3783 33.0643 35.0667 31.8636 36.6025 30.0404V30.0397ZM41.2481 30.9309C40.7276 30.5346 40.3709 30.2216 39.9538 29.8079L39.2237 31.0947C39.9434 30.9857 40.5964 30.9357 41.2481 30.9309ZM32.3435 36.3172L34.5955 35.1388C35.86 34.3309 36.9953 33.4259 37.9669 32.2634C37.6983 31.6978 37.4096 31.1856 37.0703 30.6928L35.3728 32.3932C34.2222 33.3614 33.0125 34.1984 31.7023 34.9451L32.3442 36.3172H32.3435ZM45.2746 35.1478L46.0914 34.063C44.2364 31.9948 41.6388 31.2126 38.9579 32.0406L39.4132 33.124C41.6658 32.4452 43.9088 33.3128 45.2746 35.1478ZM33.0979 38.3952C35.361 37.7844 37.361 36.5373 38.9038 34.7432C38.7497 34.1477 38.5679 33.6098 38.3236 33.013C36.6344 34.8674 34.8766 35.9758 32.6197 37.0217L33.0979 38.3952ZM44.1184 37.0606L44.8589 35.7787C43.761 34.0033 41.6339 33.1774 39.6339 33.7917L39.9774 34.8487C41.7505 34.3483 43.5091 35.3158 44.1177 37.0606H44.1184ZM39.6463 38.2973L38.6526 39.2662C38.6401 40.124 39.0148 40.809 39.8164 41.2615C40.5506 41.6759 42.1211 41.739 42.6027 40.8611C43.0524 40.04 43.2967 39.0205 43.5375 38.1474C43.7617 37.3326 43.092 36.3894 42.5777 35.9987C41.8373 35.4358 41.0142 35.2547 40.1391 35.5191L40.314 36.4234C41.5715 36.1257 42.7089 37.0883 42.7561 38.3598C42.7956 39.4335 42.0066 40.3801 40.9441 40.3982C40.1821 40.4107 39.6797 39.845 39.6935 39.1239C39.6991 38.8359 39.681 38.5569 39.6463 38.298V38.2973ZM39.4895 37.2459L39.1342 35.5719C37.538 37.3451 35.5484 38.4854 33.2957 39.1309L33.6108 40.453C35.9412 40.2385 38.1133 39.2114 39.4895 37.2459ZM41.078 39.718C41.6964 39.6077 42.0219 39.0837 42.0614 38.5291C42.094 38.0711 41.9566 37.6623 41.6436 37.3944C41.3112 37.1098 40.8726 36.9481 40.4201 37.1182C40.561 37.8205 40.5617 38.432 40.4312 39.1267C40.4028 39.278 40.4986 39.5396 40.6027 39.6195C40.6915 39.6875 40.9226 39.7451 41.078 39.7173V39.718ZM42.2217 43.0396L42.4042 41.9174C41.3383 42.3838 40.1925 42.3394 39.2466 41.7161C38.5603 41.2636 38.13 40.5522 37.9801 39.7548L37.0349 40.2871C37.5803 42.5462 39.9899 43.7399 42.221 43.0396H42.2217ZM27.5425 44.5686L29.723 43.935C30.3136 43.7635 30.8404 43.5262 31.3657 43.2368C30.832 43.2034 30.3539 43.2388 29.8396 43.3811L22.0025 45.5569L22.1891 46.1753L27.5419 44.5686H27.5425ZM20.9441 45.2606L18.3028 46.015L18.8185 47.8195L21.4598 47.065L20.9441 45.2606ZM18.0849 48.669L17.2653 45.7276L13.7246 45.4188L15.2514 50.8538L18.0856 48.6683L18.0849 48.669ZM12.7558 45.4875L6.13241 47.4447L7.02418 50.4637L13.6476 48.5065L12.7558 45.4875ZM37.8989 52.3404C38.3076 49.9987 39.8122 48.2227 41.9032 47.3163L41.94 45.7339C39.0426 46.7159 36.9662 49.415 36.5845 52.3702C37.0814 52.3806 37.479 52.3876 37.8982 52.3404H37.8989ZM39.9906 52.3508C40.3022 51.1487 41.0052 50.3069 41.9365 49.6517L41.8962 48.0971C40.1571 48.9355 38.9503 50.4651 38.6144 52.3709C39.1154 52.391 39.5457 52.3938 39.9906 52.3515V52.3508ZM14.4144 51.2855L13.8724 49.3776L7.44404 51.2952L8.26919 53.1364L14.4137 51.2855H14.4144ZM42.067 52.3688L41.9774 50.4873C41.3869 51.037 40.9434 51.5915 40.713 52.382L42.067 52.3688ZM54.2478 63.3158L55.9099 63.3172C56.7003 63.2381 57.4047 62.9688 58.1008 62.5975C59.6276 61.7813 60.3347 62.1144 62.0114 62.4608C63.5805 60.9401 64.9796 59.2807 66.2176 57.4394L62.4909 57.4172C61.4701 57.411 60.6304 56.7995 59.8899 56.1485L57.6115 53.8596C57.0543 53.2995 56.3402 53.0462 55.556 53.0504L50.8375 53.0788C50.8063 54.1393 52.1311 54.4378 52.9917 54.4454L54.5795 54.46C54.9168 54.4627 55.0389 54.85 55.0091 55.1373C54.8196 56.9501 55.4748 58.9851 57.4415 59.3571C57.7073 59.407 57.8031 59.7554 57.7427 59.9303C57.6518 60.1934 57.4214 60.2732 57.1452 60.219C56.064 60.0074 55.1847 59.2738 54.6822 58.3292C54.5948 58.6838 54.4858 58.9503 54.2887 59.255C54.939 59.9546 54.9112 60.9957 54.1687 61.6231C54.5462 62.1603 54.5275 62.7245 54.2485 63.3151L54.2478 63.3158ZM53.2297 56.6642C53.6232 56.6642 53.8973 56.8308 54.1694 57.0272L54.05 55.3809L43.4355 55.4101C43.0052 55.4115 42.6749 55.569 42.6575 56.0125C42.6464 56.2957 42.8942 56.667 43.2953 56.667L53.2297 56.6642ZM31.2554 57.2791L33.3651 55.6565C32.9827 55.3358 32.474 55.4122 32.1027 55.6926L30.5267 56.8835L31.2554 57.2784V57.2791ZM31.7675 59.1558L34.0882 57.3791L36.0598 55.9147C35.9786 55.6245 35.6892 55.4399 35.3735 55.5073C35.1084 55.5642 34.819 55.7078 34.59 55.8827L31.7363 58.0564C31.7856 58.4548 31.7793 58.7491 31.7675 59.1565V59.1558ZM36.0765 57.023L32.458 59.7749C32.0423 60.0913 31.5524 60.3329 31.0028 60.3336L24.2954 60.3481C23.9956 60.3481 23.8346 60.0698 23.8686 59.8255C23.8963 59.627 24.0962 59.4209 24.3572 59.4202L30.0416 59.4112C30.3344 59.4112 30.5968 59.2918 30.7245 59.1023C30.8723 58.8837 30.9118 58.6006 30.8293 58.3535C30.6995 57.9627 30.3011 57.7469 29.8875 57.7365L26.9228 57.6608C26.1483 57.6407 25.4009 57.4936 24.7076 57.1667L23.2482 56.4789C21.77 55.7821 20.4091 56.1485 18.9961 56.7933C18.1613 57.1507 17.3111 57.4103 16.3826 57.4131L10.8036 57.4311C12.1867 59.4396 13.7052 61.2497 15.4512 62.8855L18.7949 61.9146C19.6103 61.6779 20.4021 61.6252 21.2252 61.884L25.8943 63.0958C26.505 63.254 27.0998 63.2513 27.7147 63.1479L31.2748 62.5496C31.8744 62.449 32.3435 62.1582 32.7898 61.7591L37.6449 57.4193C37.835 57.2493 37.8295 56.8794 37.7302 56.7183C37.3874 56.1596 36.4637 56.7281 36.0751 57.0237L36.0765 57.023ZM53.2401 58.815C53.5954 58.8136 53.7342 58.3958 53.7322 58.1571C53.7301 57.9516 53.5573 57.588 53.2596 57.5873L49.46 57.5762C49.0554 57.5748 48.7889 57.8677 48.8035 58.2168C48.8181 58.5659 49.0727 58.8303 49.4565 58.8289L53.2408 58.8143L53.2401 58.815ZM53.2991 61.0172C53.6683 61.0151 53.8383 60.6174 53.8335 60.3752C53.8286 60.133 53.6662 59.7714 53.3366 59.7728L49.8084 59.7846C49.435 59.786 49.283 60.2246 49.333 60.4994C49.3913 60.8187 49.6439 61.038 50.0117 61.0359L53.2998 61.0172H53.2991ZM52.9563 63.1173C53.3477 63.0923 53.5476 62.755 53.5219 62.4635C53.4962 62.1721 53.2596 61.9368 52.9244 61.9402L50.8556 61.9625C50.4496 61.9666 50.2497 62.3983 50.3094 62.7099C50.3788 63.0729 50.6682 63.2638 51.0534 63.2388L52.957 63.1173H52.9563Z" fill="#F7F3CF"/>
<path d="M56.5083 32.5647C54.9101 33.7001 55.3313 35.0514 54.6276 34.9029C54.3882 34.8522 54.3327 34.6176 54.4167 34.3803C54.6908 33.6036 55.0662 32.9283 55.6617 32.3592C57.1496 30.9358 59.4252 30.8296 61.0338 32.1288C61.1678 32.2371 61.115 32.4855 61.0067 32.5966C60.8902 32.716 60.7007 32.7548 60.5334 32.6278C59.346 31.7277 57.7533 31.6798 56.5083 32.5647Z" fill="#F7F3CF"/>
<path d="M59.3555 33.9979C58.8434 33.7765 58.47 33.6106 57.9273 33.8153C57.0918 34.1304 57.1653 34.8487 56.7621 34.991C56.6455 35.032 56.345 34.9105 56.3631 34.7634C56.4568 33.9895 57.0328 33.4142 57.6622 33.1775C58.3951 32.902 59.2195 32.9637 59.7678 33.5495C59.8982 33.689 59.5381 34.0763 59.3555 33.9979Z" fill="#F7F3CF"/>
<path d="M26.511 35.4742C27.012 35.4742 27.4181 35.0681 27.4181 34.5671C27.4181 34.0662 27.012 33.66 26.511 33.66C26.0101 33.66 25.604 34.0662 25.604 34.5671C25.604 35.0681 26.0101 35.4742 26.511 35.4742Z" fill="#F7F3CF"/>
<path d="M49.1169 42.4346C49.616 42.4346 50.0205 42.03 50.0205 41.5309C50.0205 41.0319 49.616 40.6273 49.1169 40.6273C48.6179 40.6273 48.2134 41.0319 48.2134 41.5309C48.2134 42.03 48.6179 42.4346 49.1169 42.4346Z" fill="#F7F3CF"/>
<path d="M23.7911 40.8215C24.287 40.8215 24.6891 40.4195 24.6891 39.9235C24.6891 39.4275 24.287 39.0254 23.7911 39.0254C23.2951 39.0254 22.8931 39.4275 22.8931 39.9235C22.8931 40.4195 23.2951 40.8215 23.7911 40.8215Z" fill="#F7F3CF"/>
<path d="M64.1749 33.4913C64.6701 33.4913 65.0716 33.0898 65.0716 32.5946C65.0716 32.0993 64.6701 31.6979 64.1749 31.6979C63.6798 31.6979 63.2783 32.0993 63.2783 32.5946C63.2783 33.0898 63.6798 33.4913 64.1749 33.4913Z" fill="#F7F3CF"/>
<path d="M45.4426 66.4591C45.9324 66.4591 46.3295 66.062 46.3295 65.5722C46.3295 65.0823 45.9324 64.6852 45.4426 64.6852C44.9528 64.6852 44.5557 65.0823 44.5557 65.5722C44.5557 66.062 44.9528 66.4591 45.4426 66.4591Z" fill="#F7F3CF"/>
<path d="M12.8273 36.3437C13.3033 36.3437 13.6892 35.9578 13.6892 35.4817C13.6892 35.0057 13.3033 34.6198 12.8273 34.6198C12.3512 34.6198 11.9653 35.0057 11.9653 35.4817C11.9653 35.9578 12.3512 36.3437 12.8273 36.3437Z" fill="#F7F3CF"/>
<path d="M62.7401 53.587C63.2158 53.587 63.6014 53.2014 63.6014 52.7257C63.6014 52.25 63.2158 51.8644 62.7401 51.8644C62.2645 51.8644 61.8789 52.25 61.8789 52.7257C61.8789 53.2014 62.2645 53.587 62.7401 53.587Z" fill="#F7F3CF"/>
<path d="M40.8387 68.8203C41.3125 68.8203 41.6965 68.4362 41.6965 67.9624C41.6965 67.4887 41.3125 67.1046 40.8387 67.1046C40.365 67.1046 39.981 67.4887 39.981 67.9624C39.981 68.4362 40.365 68.8203 40.8387 68.8203Z" fill="#F7F3CF"/>
<path d="M53.9608 45.4821C54.408 45.4821 54.7706 45.1194 54.7706 44.6721C54.7706 44.2248 54.408 43.8622 53.9608 43.8622C53.5135 43.8622 53.1509 44.2248 53.1509 44.6721C53.1509 45.1194 53.5135 45.4821 53.9608 45.4821Z" fill="#F7F3CF"/>
<path d="M68.082 44.7034C68.5304 44.7034 68.8939 44.3398 68.8939 43.8914C68.8939 43.4429 68.5304 43.0793 68.082 43.0793C67.6335 43.0793 67.27 43.4429 67.27 43.8914C67.27 44.3398 67.6335 44.7034 68.082 44.7034Z" fill="#F7F3CF"/>
<path d="M8.37739 33.0853C8.81126 33.0853 9.16298 32.7336 9.16298 32.2997C9.16298 31.8658 8.81126 31.514 8.37739 31.514C7.94352 31.514 7.5918 31.8658 7.5918 32.2997C7.5918 32.7336 7.94352 33.0853 8.37739 33.0853Z" fill="#F7F3CF"/>
<path d="M26.1656 67.6003C26.5987 67.6003 26.9498 67.2491 26.9498 66.816C26.9498 66.3829 26.5987 66.0317 26.1656 66.0317C25.7324 66.0317 25.3813 66.3829 25.3813 66.816C25.3813 67.2491 25.7324 67.6003 26.1656 67.6003Z" fill="#F7F3CF"/>
<path d="M12.1418 30.0808C12.5733 30.0808 12.9232 29.7309 12.9232 29.2993C12.9232 28.8677 12.5733 28.5178 12.1418 28.5178C11.7102 28.5178 11.3604 28.8677 11.3604 29.2993C11.3604 29.7309 11.7102 30.0808 12.1418 30.0808Z" fill="#F7F3CF"/>
<path d="M59.1283 50.5603C59.5583 50.5603 59.9069 50.2117 59.9069 49.7816C59.9069 49.3516 59.5583 49.0029 59.1283 49.0029C58.6982 49.0029 58.3496 49.3516 58.3496 49.7816C58.3496 50.2117 58.6982 50.5603 59.1283 50.5603Z" fill="#F7F3CF"/>
<path d="M49.2505 49.1703C49.6717 49.1703 50.0132 48.8288 50.0132 48.4075C50.0132 47.9863 49.6717 47.6448 49.2505 47.6448C48.8293 47.6448 48.4878 47.9863 48.4878 48.4075C48.4878 48.8288 48.8293 49.1703 49.2505 49.1703Z" fill="#F7F3CF"/>
<path d="M25.3131 50.4172C25.7355 50.4172 26.0779 50.0748 26.0779 49.6524C26.0779 49.23 25.7355 48.8876 25.3131 48.8876C24.8907 48.8876 24.5483 49.23 24.5483 49.6524C24.5483 50.0748 24.8907 50.4172 25.3131 50.4172Z" fill="#F7F3CF"/>
<path d="M35.7729 69.8281C36.1949 69.8281 36.5369 69.486 36.5369 69.0639C36.5369 68.6419 36.1949 68.2998 35.7729 68.2998C35.3509 68.2998 35.0088 68.6419 35.0088 69.0639C35.0088 69.486 35.3509 69.8281 35.7729 69.8281Z" fill="#F7F3CF"/>
<path d="M11.1208 40.9362C11.5332 40.9362 11.8675 40.6018 11.8675 40.1894C11.8675 39.777 11.5332 39.4426 11.1208 39.4426C10.7083 39.4426 10.374 39.777 10.374 40.1894C10.374 40.6018 10.7083 40.9362 11.1208 40.9362Z" fill="#F7F3CF"/>
<path d="M40.7643 61.7051C41.1747 61.7051 41.5075 61.3723 41.5075 60.9618C41.5075 60.5513 41.1747 60.2185 40.7643 60.2185C40.3538 60.2185 40.021 60.5513 40.021 60.9618C40.021 61.3723 40.3538 61.7051 40.7643 61.7051Z" fill="#F7F3CF"/>
<path d="M37.9034 65.0829C38.2921 65.0829 38.6071 64.7678 38.6071 64.3792C38.6071 63.9905 38.2921 63.6754 37.9034 63.6754C37.5148 63.6754 37.1997 63.9905 37.1997 64.3792C37.1997 64.7678 37.5148 65.0829 37.9034 65.0829Z" fill="#F7F3CF"/>
<path d="M62.191 44.5042C62.577 44.5042 62.8899 44.1913 62.8899 43.8053C62.8899 43.4193 62.577 43.1064 62.191 43.1064C61.8051 43.1064 61.4922 43.4193 61.4922 43.8053C61.4922 44.1913 61.8051 44.5042 62.191 44.5042Z" fill="#F7F3CF"/>
<path d="M54.4352 38.0843C54.8039 38.0843 55.1028 37.7854 55.1028 37.4167C55.1028 37.0479 54.8039 36.749 54.4352 36.749C54.0665 36.749 53.7676 37.0479 53.7676 37.4167C53.7676 37.7854 54.0665 38.0843 54.4352 38.0843Z" fill="#F7F3CF"/>
<path d="M30.7202 52.8027C31.0785 52.8027 31.369 52.5122 31.369 52.1538C31.369 51.7954 31.0785 51.5049 30.7202 51.5049C30.3618 51.5049 30.0713 51.7954 30.0713 52.1538C30.0713 52.5122 30.3618 52.8027 30.7202 52.8027Z" fill="#F7F3CF"/>
<path d="M63.8964 48.2956C64.2502 48.2956 64.537 48.0088 64.537 47.655C64.537 47.3012 64.2502 47.0144 63.8964 47.0144C63.5426 47.0144 63.2559 47.3012 63.2559 47.655C63.2559 48.0088 63.5426 48.2956 63.8964 48.2956Z" fill="#F7F3CF"/>
<path d="M16.4472 38.5043C16.7937 38.5043 17.0745 38.2234 17.0745 37.8769C17.0745 37.5304 16.7937 37.2495 16.4472 37.2495C16.1007 37.2495 15.8198 37.5304 15.8198 37.8769C15.8198 38.2234 16.1007 38.5043 16.4472 38.5043Z" fill="#F7F3CF"/>
<path d="M68.9286 36.2896C69.2678 36.2896 69.5428 36.0146 69.5428 35.6754C69.5428 35.3362 69.2678 35.0612 68.9286 35.0612C68.5894 35.0612 68.3145 35.3362 68.3145 35.6754C68.3145 36.0146 68.5894 36.2896 68.9286 36.2896Z" fill="#F7F3CF"/>
<path d="M60.7998 37.8519C61.1382 37.8519 61.4126 37.5775 61.4126 37.2391C61.4126 36.9006 61.1382 36.6262 60.7998 36.6262C60.4614 36.6262 60.187 36.9006 60.187 37.2391C60.187 37.5775 60.4614 37.8519 60.7998 37.8519Z" fill="#F7F3CF"/>
<path d="M66.8362 29.6291C67.1769 29.6291 67.4531 29.3529 67.4531 29.0121C67.4531 28.6714 67.1769 28.3951 66.8362 28.3951C66.4955 28.3951 66.2192 28.6714 66.2192 29.0121C66.2192 29.3529 66.4955 29.6291 66.8362 29.6291Z" fill="#F7F3CF"/>
<path d="M21.3467 36.9572C21.6798 36.9572 21.9498 36.6872 21.9498 36.3541C21.9498 36.021 21.6798 35.751 21.3467 35.751C21.0137 35.751 20.7437 36.021 20.7437 36.3541C20.7437 36.6872 21.0137 36.9572 21.3467 36.9572Z" fill="#F7F3CF"/>
<path d="M18.8527 34.2943C19.185 34.2943 19.4543 34.0249 19.4543 33.6925C19.4543 33.3602 19.185 33.0908 18.8527 33.0908C18.5204 33.0908 18.251 33.3602 18.251 33.6925C18.251 34.0249 18.5204 34.2943 18.8527 34.2943Z" fill="#F7F3CF"/>
<path d="M19.1191 42.3595C19.4483 42.3595 19.7152 42.0925 19.7152 41.7633C19.7152 41.434 19.4483 41.1671 19.1191 41.1671C18.7898 41.1671 18.5229 41.434 18.5229 41.7633C18.5229 42.0925 18.7898 42.3595 19.1191 42.3595Z" fill="#F7F3CF"/>
<path d="M45.1224 61.0894C45.4505 61.0894 45.7164 60.8234 45.7164 60.4953C45.7164 60.1672 45.4505 59.9012 45.1224 59.9012C44.7943 59.9012 44.5283 60.1672 44.5283 60.4953C44.5283 60.8234 44.7943 61.0894 45.1224 61.0894Z" fill="#F7F3CF"/>
<path d="M58.1049 41.7454C58.4269 41.7454 58.6879 41.4844 58.6879 41.1625C58.6879 40.8405 58.4269 40.5795 58.1049 40.5795C57.783 40.5795 57.522 40.8405 57.522 41.1625C57.522 41.4844 57.783 41.7454 58.1049 41.7454Z" fill="#F7F3CF"/>
<path d="M69.409 40.0347C69.7172 40.0347 69.967 39.7849 69.967 39.4767C69.967 39.1685 69.7172 38.9187 69.409 38.9187C69.1009 38.9187 68.8511 39.1685 68.8511 39.4767C68.8511 39.7849 69.1009 40.0347 69.409 40.0347Z" fill="#F7F3CF"/>
<path d="M21.2783 52.4002C21.5876 52.4002 21.8384 52.1494 21.8384 51.8401C21.8384 51.5308 21.5876 51.28 21.2783 51.28C20.969 51.28 20.7183 51.5308 20.7183 51.8401C20.7183 52.1494 20.969 52.4002 21.2783 52.4002Z" fill="#F7F3CF"/>
<path d="M64.8967 37.2792C65.201 37.2792 65.4478 37.0325 65.4478 36.7282C65.4478 36.4238 65.201 36.1771 64.8967 36.1771C64.5924 36.1771 64.3457 36.4238 64.3457 36.7282C64.3457 37.0325 64.5924 37.2792 64.8967 37.2792Z" fill="#F7F3CF"/>
<path d="M66.9332 51.4965C67.2364 51.4965 67.4822 51.2507 67.4822 50.9475C67.4822 50.6443 67.2364 50.3986 66.9332 50.3986C66.63 50.3986 66.3843 50.6443 66.3843 50.9475C66.3843 51.2507 66.63 51.4965 66.9332 51.4965Z" fill="#F7F3CF"/>
<path d="M21.2659 31.7692C21.5629 31.7692 21.8037 31.5284 21.8037 31.2314C21.8037 30.9343 21.5629 30.6935 21.2659 30.6935C20.9688 30.6935 20.728 30.9343 20.728 31.2314C20.728 31.5284 20.9688 31.7692 21.2659 31.7692Z" fill="#F7F3CF"/>
<path d="M49.2134 68.4956C49.5074 68.4956 49.7457 68.2572 49.7457 67.9632C49.7457 67.6692 49.5074 67.4309 49.2134 67.4309C48.9195 67.4309 48.6812 67.6692 48.6812 67.9632C48.6812 68.2572 48.9195 68.4956 49.2134 68.4956Z" fill="#F7F3CF"/>
<path d="M45.5685 45.8234C45.8663 45.8234 46.1077 45.582 46.1077 45.2841C46.1077 44.9863 45.8663 44.7449 45.5685 44.7449C45.2707 44.7449 45.0293 44.9863 45.0293 45.2841C45.0293 45.582 45.2707 45.8234 45.5685 45.8234Z" fill="#F7F3CF"/>
<path d="M46.1958 51.5889C46.476 51.5889 46.7031 51.3618 46.7031 51.0816C46.7031 50.8014 46.476 50.5742 46.1958 50.5742C45.9156 50.5742 45.6885 50.8014 45.6885 51.0816C45.6885 51.3618 45.9156 51.5889 46.1958 51.5889Z" fill="#F7F3CF"/>
<path d="M8.0459 43.8254C8.31611 43.8254 8.53516 43.6063 8.53516 43.3361C8.53516 43.0659 8.31611 42.8468 8.0459 42.8468C7.77569 42.8468 7.55664 43.0659 7.55664 43.3361C7.55664 43.6063 7.77569 43.8254 8.0459 43.8254Z" fill="#F7F3CF"/>
<path d="M30.7037 68.4288C30.9659 68.4288 31.1784 68.2163 31.1784 67.9541C31.1784 67.6919 30.9659 67.4794 30.7037 67.4794C30.4415 67.4794 30.229 67.6919 30.229 67.9541C30.229 68.2163 30.4415 68.4288 30.7037 68.4288Z" fill="#F7F3CF"/>
<path d="M27.0397 54.1346C27.2984 54.1346 27.5082 53.9248 27.5082 53.6661C27.5082 53.4074 27.2984 53.1976 27.0397 53.1976C26.781 53.1976 26.5713 53.4074 26.5713 53.6661C26.5713 53.9248 26.781 54.1346 27.0397 54.1346Z" fill="#F7F3CF"/>
<path d="M33.4515 66.1012C33.7087 66.1012 33.9172 65.8927 33.9172 65.6355C33.9172 65.3783 33.7087 65.1698 33.4515 65.1698C33.1943 65.1698 32.9858 65.3783 32.9858 65.6355C32.9858 65.8927 33.1943 66.1012 33.4515 66.1012Z" fill="#F7F3CF"/>
<path d="M7.43413 39.1255C7.69169 39.1255 7.90049 38.9167 7.90049 38.6591C7.90049 38.4016 7.69169 38.1927 7.43413 38.1927C7.17657 38.1927 6.96777 38.4016 6.96777 38.6591C6.96777 38.9167 7.17657 39.1255 7.43413 39.1255Z" fill="#F7F3CF"/>
<path d="M64.6616 40.8514C64.91 40.8514 65.1113 40.65 65.1113 40.4016C65.1113 40.1533 64.91 39.9519 64.6616 39.9519C64.4133 39.9519 64.2119 40.1533 64.2119 40.4016C64.2119 40.65 64.4133 40.8514 64.6616 40.8514Z" fill="#F7F3CF"/>
<path d="M53.353 49.6545C53.5994 49.6545 53.7992 49.4547 53.7992 49.2082C53.7992 48.9618 53.5994 48.762 53.353 48.762C53.1065 48.762 52.9067 48.9618 52.9067 49.2082C52.9067 49.4547 53.1065 49.6545 53.353 49.6545Z" fill="#F7F3CF"/>
<path d="M44.5868 70.2458C44.8313 70.2458 45.0296 70.0476 45.0296 69.803C45.0296 69.5585 44.8313 69.3602 44.5868 69.3602C44.3423 69.3602 44.144 69.5585 44.144 69.803C44.144 70.0476 44.3423 70.2458 44.5868 70.2458Z" fill="#F7F3CF"/>
<path d="M18.2074 28.3082C18.45 28.3082 18.6467 28.1115 18.6467 27.8689C18.6467 27.6263 18.45 27.4296 18.2074 27.4296C17.9647 27.4296 17.7681 27.6263 17.7681 27.8689C17.7681 28.1115 17.9647 28.3082 18.2074 28.3082Z" fill="#F7F3CF"/>
<path d="M15.5186 32.1198C15.7616 32.1198 15.9586 31.9228 15.9586 31.6798C15.9586 31.4367 15.7616 31.2397 15.5186 31.2397C15.2756 31.2397 15.0786 31.4367 15.0786 31.6798C15.0786 31.9228 15.2756 32.1198 15.5186 32.1198Z" fill="#F7F3CF"/>
<path d="M17.115 54.0866C17.3603 54.0866 17.5592 53.8877 17.5592 53.6424C17.5592 53.3971 17.3603 53.1982 17.115 53.1982C16.8698 53.1982 16.6709 53.3971 16.6709 53.6424C16.6709 53.8877 16.8698 54.0866 17.115 54.0866Z" fill="#F7F3CF"/>
<path d="M13.6427 42.8621C13.8849 42.8621 14.0813 42.6657 14.0813 42.4235C14.0813 42.1812 13.8849 41.9849 13.6427 41.9849C13.4005 41.9849 13.2041 42.1812 13.2041 42.4235C13.2041 42.6657 13.4005 42.8621 13.6427 42.8621Z" fill="#F7F3CF"/>
<path d="M52.9039 66.3629C53.1442 66.3629 53.339 66.168 53.339 65.9277C53.339 65.6874 53.1442 65.4926 52.9039 65.4926C52.6636 65.4926 52.4688 65.6874 52.4688 65.9277C52.4688 66.168 52.6636 66.3629 52.9039 66.3629Z" fill="#F7F3CF"/>
<path d="M29.429 48.5676C29.6651 48.5676 29.8565 48.3762 29.8565 48.1401C29.8565 47.9039 29.6651 47.7125 29.429 47.7125C29.1929 47.7125 29.0015 47.9039 29.0015 48.1401C29.0015 48.3762 29.1929 48.5676 29.429 48.5676Z" fill="#F7F3CF"/>
<path d="M8.90868 27.8348C9.14248 27.8348 9.33201 27.6452 9.33201 27.4114C9.33201 27.1776 9.14248 26.988 8.90868 26.988C8.67488 26.988 8.48535 27.1776 8.48535 27.4114C8.48535 27.6452 8.67488 27.8348 8.90868 27.8348Z" fill="#F7F3CF"/>
<path d="M8.87959 36.2119C9.10649 36.2119 9.29043 36.0279 9.29043 35.801C9.29043 35.5741 9.10649 35.3901 8.87959 35.3901C8.65269 35.3901 8.46875 35.5741 8.46875 35.801C8.46875 36.0279 8.65269 36.2119 8.87959 36.2119Z" fill="#F7F3CF"/>
<path d="M63.0561 28.4228C63.2827 28.4228 63.4663 28.2391 63.4663 28.0126C63.4663 27.7861 63.2827 27.6024 63.0561 27.6024C62.8296 27.6024 62.646 27.7861 62.646 28.0126C62.646 28.2391 62.8296 28.4228 63.0561 28.4228Z" fill="#F7F3CF"/>
<path d="M68.4627 48.0902C68.6888 48.0902 68.8721 47.9069 68.8721 47.6807C68.8721 47.4546 68.6888 47.2712 68.4627 47.2712C68.2365 47.2712 68.0532 47.4546 68.0532 47.6807C68.0532 47.9069 68.2365 48.0902 68.4627 48.0902Z" fill="#F7F3CF"/>
<path d="M37.7797 44.9581C38.0024 44.9581 38.1829 44.7775 38.1829 44.5548C38.1829 44.3321 38.0024 44.1516 37.7797 44.1516C37.557 44.1516 37.3765 44.3321 37.3765 44.5548C37.3765 44.7775 37.557 44.9581 37.7797 44.9581Z" fill="#F7F3CF"/>
<path d="M49.2385 37.0176C49.4601 37.0176 49.6396 36.838 49.6396 36.6165C49.6396 36.3949 49.4601 36.2153 49.2385 36.2153C49.017 36.2153 48.8374 36.3949 48.8374 36.6165C48.8374 36.838 49.017 37.0176 49.2385 37.0176Z" fill="#F7F3CF"/>
<path d="M69.0873 32.1039C69.3047 32.1039 69.4808 31.9277 69.4808 31.7104C69.4808 31.4931 69.3047 31.3169 69.0873 31.3169C68.87 31.3169 68.6938 31.4931 68.6938 31.7104C68.6938 31.9277 68.87 32.1039 69.0873 32.1039Z" fill="#F7F3CF"/>
<path d="M65.5907 55.3116C65.8061 55.3116 65.9807 55.137 65.9807 54.9215C65.9807 54.7061 65.8061 54.5315 65.5907 54.5315C65.3753 54.5315 65.2007 54.7061 65.2007 54.9215C65.2007 55.137 65.3753 55.3116 65.5907 55.3116Z" fill="#F7F3CF"/>
<path d="M37.3113 46.6598C37.5209 46.6598 37.6909 46.4898 37.6909 46.2801C37.6909 46.0705 37.5209 45.9005 37.3113 45.9005C37.1016 45.9005 36.9316 46.0705 36.9316 46.2801C36.9316 46.4898 37.1016 46.6598 37.3113 46.6598Z" fill="#F7F3CF"/>
<path d="M29.4185 39.4557C29.6297 39.4557 29.8009 39.2845 29.8009 39.0733C29.8009 38.8621 29.6297 38.6909 29.4185 38.6909C29.2073 38.6909 29.0361 38.8621 29.0361 39.0733C29.0361 39.2845 29.2073 39.4557 29.4185 39.4557Z" fill="#F7F3CF"/>
<path d="M58.4938 46.2072C58.6698 46.2072 58.8124 46.0646 58.8124 45.8886C58.8124 45.7127 58.6698 45.5701 58.4938 45.5701C58.3179 45.5701 58.1753 45.7127 58.1753 45.8886C58.1753 46.0646 58.3179 46.2072 58.4938 46.2072Z" fill="#F7F3CF"/>
<path d="M38.0898 15.1645L39.4174 13.9722C40.0336 13.419 40.2321 12.5446 39.7894 11.8318C39.5284 11.4126 39.0593 11.2197 38.5728 11.1926C37.7178 11.144 37.0467 11.7166 36.9065 12.5571C36.8094 13.1407 36.4735 13.6335 35.8711 13.7681C35.3728 13.8799 34.8239 13.8695 34.345 13.6932C33.7718 13.4829 33.4436 12.9742 33.4873 12.3516C33.6171 10.5083 34.81 8.95156 36.5429 8.30472C39.3091 7.27269 42.7353 8.56498 43.3877 11.575C43.7596 13.2886 43.2378 14.9189 41.9692 16.0314L40.7859 17.0697C40.3508 17.4514 40.1336 17.9469 40.1023 18.5285C40.0697 19.1337 39.6728 19.6209 39.0669 19.7368C38.6873 19.8097 38.239 19.8028 37.8733 19.7299C37.148 19.5848 36.8191 19.0109 36.8156 18.3238C36.8094 17.121 37.1612 15.996 38.0891 15.1632L38.0898 15.1645ZM38.7602 15.6996C37.5714 16.7601 37.5492 18.5868 37.8358 18.7784C38.1224 18.9699 38.4923 18.929 38.8268 18.9075C39.6519 18.8533 38.79 17.695 40.221 16.4339L41.4008 15.3943C42.4216 14.4948 42.838 13.2067 42.5618 11.8346C42.042 9.25138 39.1113 8.24989 36.7948 9.1334C35.368 9.67752 34.4193 10.9636 34.3527 12.5001C34.3471 12.6355 34.5144 12.8631 34.6296 12.893C35.132 13.0234 35.9391 13.1366 36.0404 12.4752C36.2174 11.3147 37.1085 10.418 38.289 10.3417C39.1752 10.2841 40.0496 10.6193 40.5187 11.3779C41.1648 12.4224 40.931 13.7633 40.0218 14.5739L38.7609 15.6996H38.7602Z" fill="#F7F3CF"/>
<path d="M40.346 22.3098C40.346 23.3287 39.5201 24.1546 38.5013 24.1546C37.4826 24.1546 36.6567 23.3287 36.6567 22.3098C36.6567 21.291 37.4826 20.4651 38.5013 20.4651C39.5201 20.4651 40.346 21.291 40.346 22.3098ZM39.491 22.3119C39.491 21.7664 39.0489 21.3243 38.5034 21.3243C37.958 21.3243 37.5159 21.7664 37.5159 22.3119C37.5159 22.8574 37.958 23.2995 38.5034 23.2995C39.0489 23.2995 39.491 22.8574 39.491 22.3119Z" fill="#F7F3CF"/>
<path d="M58.779 19.7368C59.2615 19.7368 59.6527 19.3456 59.6527 18.863C59.6527 18.3805 59.2615 17.9893 58.779 17.9893C58.2965 17.9893 57.9053 18.3805 57.9053 18.863C57.9053 19.3456 58.2965 19.7368 58.779 19.7368Z" fill="#F7F3CF"/>
<path d="M21.1569 16.9177C21.6256 16.9177 22.0056 16.5377 22.0056 16.0689C22.0056 15.6001 21.6256 15.2201 21.1569 15.2201C20.6881 15.2201 20.3081 15.6001 20.3081 16.0689C20.3081 16.5377 20.6881 16.9177 21.1569 16.9177Z" fill="#F7F3CF"/>
<path d="M27.9455 21.005C28.3916 21.005 28.7533 20.6433 28.7533 20.1971C28.7533 19.751 28.3916 19.3893 27.9455 19.3893C27.4994 19.3893 27.1377 19.751 27.1377 20.1971C27.1377 20.6433 27.4994 21.005 27.9455 21.005Z" fill="#F7F3CF"/>
<path d="M53.989 15.6762C54.4298 15.6762 54.7871 15.3189 54.7871 14.8781C54.7871 14.4373 54.4298 14.08 53.989 14.08C53.5482 14.08 53.1909 14.4373 53.1909 14.8781C53.1909 15.3189 53.5482 15.6762 53.989 15.6762Z" fill="#F7F3CF"/>
<path d="M15.9628 18.4091C16.3974 18.4091 16.7497 18.0568 16.7497 17.6221C16.7497 17.1874 16.3974 16.8351 15.9628 16.8351C15.5281 16.8351 15.1758 17.1874 15.1758 17.6221C15.1758 18.0568 15.5281 18.4091 15.9628 18.4091Z" fill="#F7F3CF"/>
<path d="M52.7324 11.68C53.1344 11.68 53.4604 11.354 53.4604 10.9519C53.4604 10.5498 53.1344 10.2239 52.7324 10.2239C52.3303 10.2239 52.0044 10.5498 52.0044 10.9519C52.0044 11.354 52.3303 11.68 52.7324 11.68Z" fill="#F7F3CF"/>
<path d="M30.9371 9.7178C31.3257 9.7178 31.6408 9.40272 31.6408 9.01405C31.6408 8.62538 31.3257 8.3103 30.9371 8.3103C30.5485 8.3103 30.2334 8.62538 30.2334 9.01405C30.2334 9.40272 30.5485 9.7178 30.9371 9.7178Z" fill="#F7F3CF"/>
<path d="M45.1876 13.9514C45.5709 13.9514 45.8816 13.6407 45.8816 13.2574C45.8816 12.8741 45.5709 12.5634 45.1876 12.5634C44.8044 12.5634 44.4937 12.8741 44.4937 13.2574C44.4937 13.6407 44.8044 13.9514 45.1876 13.9514Z" fill="#F7F3CF"/>
<path d="M22.9348 12.5544C23.2901 12.5544 23.5782 12.2664 23.5782 11.9111C23.5782 11.5557 23.2901 11.2677 22.9348 11.2677C22.5795 11.2677 22.2915 11.5557 22.2915 11.9111C22.2915 12.2664 22.5795 12.5544 22.9348 12.5544Z" fill="#F7F3CF"/>
<path d="M46.8768 18.7472C47.1922 18.7472 47.448 18.4915 47.448 18.176C47.448 17.8606 47.1922 17.6049 46.8768 17.6049C46.5614 17.6049 46.3057 17.8606 46.3057 18.176C46.3057 18.4915 46.5614 18.7472 46.8768 18.7472Z" fill="#F7F3CF"/>
<path d="M32.1878 13.9708C32.4987 13.9708 32.7506 13.7188 32.7506 13.408C32.7506 13.0971 32.4987 12.8451 32.1878 12.8451C31.877 12.8451 31.625 13.0971 31.625 13.408C31.625 13.7188 31.877 13.9708 32.1878 13.9708Z" fill="#F7F3CF"/>
<path d="M58.4455 15.2243C58.7333 15.2243 58.9667 14.991 58.9667 14.7031C58.9667 14.4152 58.7333 14.1819 58.4455 14.1819C58.1577 14.1819 57.9243 14.4152 57.9243 14.7031C57.9243 14.991 58.1577 15.2243 58.4455 15.2243Z" fill="#F7F3CF"/>
<path d="M48.2455 9.59008C48.5192 9.59008 48.741 9.36822 48.741 9.09454C48.741 8.82086 48.5192 8.599 48.2455 8.599C47.9718 8.599 47.75 8.82086 47.75 9.09454C47.75 9.36822 47.9718 9.59008 48.2455 9.59008Z" fill="#F7F3CF"/>
<path d="M27.6031 16.1043C27.8752 16.1043 28.0958 15.8837 28.0958 15.6115C28.0958 15.3394 27.8752 15.1188 27.6031 15.1188C27.331 15.1188 27.1104 15.3394 27.1104 15.6115C27.1104 15.8837 27.331 16.1043 27.6031 16.1043Z" fill="#F7F3CF"/>
<path d="M28.1277 12.3732C28.3976 12.3732 28.6163 12.1544 28.6163 11.8846C28.6163 11.6147 28.3976 11.396 28.1277 11.396C27.8579 11.396 27.6392 11.6147 27.6392 11.8846C27.6392 12.1544 27.8579 12.3732 28.1277 12.3732Z" fill="#F7F3CF"/>
<path d="M43.641 8.39929C43.9054 8.39929 44.1198 8.18489 44.1198 7.92041C44.1198 7.65593 43.9054 7.44153 43.641 7.44153C43.3765 7.44153 43.1621 7.65593 43.1621 7.92041C43.1621 8.18489 43.3765 8.39929 43.641 8.39929Z" fill="#F7F3CF"/>
<path d="M54.0936 19.2927C54.3554 19.2927 54.5676 19.0804 54.5676 18.8186C54.5676 18.5568 54.3554 18.3446 54.0936 18.3446C53.8318 18.3446 53.6196 18.5568 53.6196 18.8186C53.6196 19.0804 53.8318 19.2927 54.0936 19.2927Z" fill="#F7F3CF"/>
<path d="M33.3643 22.9251C33.6265 22.9251 33.839 22.7126 33.839 22.4504C33.839 22.1882 33.6265 21.9757 33.3643 21.9757C33.1022 21.9757 32.8896 22.1882 32.8896 22.4504C32.8896 22.7126 33.1022 22.9251 33.3643 22.9251Z" fill="#F7F3CF"/>
<path d="M43.8865 22.2194C44.1371 22.2194 44.3404 22.0162 44.3404 21.7655C44.3404 21.5149 44.1371 21.3116 43.8865 21.3116C43.6358 21.3116 43.4326 21.5149 43.4326 21.7655C43.4326 22.0162 43.6358 22.2194 43.8865 22.2194Z" fill="#F7F3CF"/>
<path d="M49.9009 13.5608C50.1512 13.5608 50.3541 13.3579 50.3541 13.1076C50.3541 12.8573 50.1512 12.6544 49.9009 12.6544C49.6506 12.6544 49.4478 12.8573 49.4478 13.1076C49.4478 13.3579 49.6506 13.5608 49.9009 13.5608Z" fill="#F7F3CF"/>
<path d="M51.1667 17.4967C51.4135 17.4967 51.6136 17.2966 51.6136 17.0497C51.6136 16.8029 51.4135 16.6028 51.1667 16.6028C50.9198 16.6028 50.7197 16.8029 50.7197 17.0497C50.7197 17.2966 50.9198 17.4967 51.1667 17.4967Z" fill="#F7F3CF"/>
<path d="M26.2101 9.90448C26.4523 9.90448 26.6487 9.7081 26.6487 9.46585C26.6487 9.2236 26.4523 9.02722 26.2101 9.02722C25.9679 9.02722 25.7715 9.2236 25.7715 9.46585C25.7715 9.7081 25.9679 9.90448 26.2101 9.90448Z" fill="#F7F3CF"/>
<path d="M20.0913 20.2491C20.3324 20.2491 20.5278 20.0536 20.5278 19.8125C20.5278 19.5714 20.3324 19.376 20.0913 19.376C19.8502 19.376 19.6548 19.5714 19.6548 19.8125C19.6548 20.0536 19.8502 20.2491 20.0913 20.2491Z" fill="#F7F3CF"/>
<path d="M24.7191 15.4109C24.9518 15.4109 25.1404 15.2223 25.1404 14.9896C25.1404 14.757 24.9518 14.5684 24.7191 14.5684C24.4865 14.5684 24.2979 14.757 24.2979 14.9896C24.2979 15.2223 24.4865 15.4109 24.7191 15.4109Z" fill="#F7F3CF"/>
<path d="M18.8286 14.3082C19.0597 14.3082 19.2471 14.1208 19.2471 13.8897C19.2471 13.6586 19.0597 13.4712 18.8286 13.4712C18.5975 13.4712 18.4102 13.6586 18.4102 13.8897C18.4102 14.1208 18.5975 14.3082 18.8286 14.3082Z" fill="#F7F3CF"/>
<path d="M23.7157 20.6642C23.9437 20.6642 24.1286 20.4793 24.1286 20.2512C24.1286 20.0231 23.9437 19.8383 23.7157 19.8383C23.4876 19.8383 23.3027 20.0231 23.3027 20.2512C23.3027 20.4793 23.4876 20.6642 23.7157 20.6642Z" fill="#F7F3CF"/>
<path d="M32.0046 18.0908C32.2262 18.0908 32.4058 17.9112 32.4058 17.6896C32.4058 17.4681 32.2262 17.2885 32.0046 17.2885C31.7831 17.2885 31.6035 17.4681 31.6035 17.6896C31.6035 17.9112 31.7831 18.0908 32.0046 18.0908Z" fill="#F7F3CF"/>
<path d="M53.4671 27.928C53.6852 27.928 53.862 27.7512 53.862 27.5331C53.862 27.315 53.6852 27.1382 53.4671 27.1382C53.2491 27.1382 53.0723 27.315 53.0723 27.5331C53.0723 27.7512 53.2491 27.928 53.4671 27.928Z" fill="#F7F3CF"/>
</svg>
