<svg width="77" height="77" viewBox="0 0 77 77" fill="none" xmlns="http://www.w3.org/2000/svg">
<circle cx="38.5" cy="38.5" r="38.5" fill="#4B5A2A"/>
<path d="M39.8381 3C39.792 3.05536 40.3619 3.03548 40.523 3.04613L40.9381 3.07239C42.3823 3.16465 43.8081 3.32078 45.2395 3.58053C49.6438 4.37823 53.7159 5.96865 57.5262 8.31419C58.8341 9.11969 60.0491 10.0146 61.2392 10.9834C63.3122 12.671 65.0949 14.5354 66.7435 16.6417C67.8314 18.0313 68.7831 19.4897 69.6383 21.0376C70.0847 21.8459 70.4935 22.638 70.8724 23.4818C72.6523 27.449 73.6281 31.4325 73.9205 35.7694L73.9581 36.3265C73.9688 36.482 73.9418 37.0618 74.0007 37.0164V39.1313C73.9375 39.1561 73.9716 39.5663 73.9595 39.7494L73.9198 40.3746C73.7303 43.339 73.0973 46.5774 72.1193 49.3885C70.8128 53.1456 69.0109 56.4797 66.5405 59.596C63.6933 63.1885 60.279 66.1642 56.2878 68.4147C54.6577 69.3337 52.6258 70.3117 50.8658 70.9128L49.3464 71.4323C47.7482 71.978 46.1067 72.2967 44.4326 72.5692C42.5086 72.8822 40.1475 73.0461 38.2101 72.9886C35.1791 72.8992 32.686 72.5486 29.7564 71.7531C25.7772 70.6722 21.8059 68.761 18.4767 66.3338C11.1983 61.0267 6.27095 53.345 4.59611 44.4831C4.31082 42.9742 4.07591 41.464 4.04185 39.9396L4.01985 38.9652C4.00636 38.379 3.9872 37.7928 4.01204 37.198L4.03475 36.6445C4.21288 32.331 5.13405 28.1743 6.82025 24.1993C7.25883 23.166 7.74496 22.1901 8.27367 21.2022C8.93154 19.9716 9.67529 18.8269 10.4829 17.6843C11.4424 16.3274 12.5076 15.0627 13.6566 13.8555C15.4897 11.9294 17.5456 10.2396 19.7648 8.77052C24.8639 5.39664 30.7067 3.47833 36.8092 3.0731L37.2166 3.04613C37.5288 3.02555 37.8404 3.07097 38.1242 3H39.8374H39.8381ZM72.1073 37.995C72.1073 19.7126 57.287 4.89134 39.0042 4.89134C20.7215 4.89134 5.90192 19.7126 5.90192 37.995C5.90192 56.2775 20.7222 71.0987 39.0049 71.0987C57.2877 71.0987 72.108 56.2782 72.108 37.995H72.1073Z" fill="#F7F3CF"/>
<path d="M26.9592 60.9771C26.3553 60.9771 25.823 60.6705 25.3908 60.3795C24.4441 59.7422 24.1099 58.7266 24.1099 57.6436L24.1177 24.0105C24.1177 23.474 24.1461 22.9978 24.3944 22.5088C24.8557 21.5997 25.7584 20.77 26.823 20.7608L30.2152 20.7303C30.2621 19.3379 31.4352 18.1938 32.8389 18.1945H35.3065C35.2951 17.6325 35.2987 17.0995 35.4576 16.5835C36.2539 14.001 39.1891 12.7817 41.5822 14.0258C43.1179 14.8242 44.0299 16.4125 43.8702 18.1832L46.584 18.2116C47.7294 18.2236 48.9976 19.489 48.9352 20.7452L52.2693 20.7516C53.6056 20.7544 55.037 22.2732 55.037 23.53L55.0476 57.8963C55.0476 58.6145 54.822 59.3086 54.3458 59.8437C53.8462 60.405 53.1088 60.9636 52.2998 60.9643L26.9578 60.9763L26.9592 60.9771ZM42.0137 18.1953C42.0435 17.3713 41.9938 16.8639 41.4828 16.2656C41.0258 15.7305 40.4204 15.4218 39.7129 15.382C38.4582 15.3111 37.3298 16.2081 37.1829 17.4707C37.1545 17.7162 37.1722 17.9582 37.1701 18.1988L42.0137 18.1953ZM46.4719 23.7337C46.8771 23.623 47.0801 23.2951 47.0801 22.9062V20.7934C47.0801 20.4003 46.7806 20.0823 46.3967 20.0213L32.8063 20.0291C32.4103 20.0291 32.0916 20.4287 32.0931 20.7906L32.0994 23.1298C32.0994 23.3803 32.4557 23.738 32.7318 23.7387L39.6575 23.7444L46.4726 23.7344L46.4719 23.7337ZM53.1897 23.6237C53.0584 23.0907 52.634 22.6053 52.0854 22.6053L48.9238 22.6039C49.1161 24.0311 48.0559 25.5519 46.54 25.5562L35.9431 25.5867L32.9106 25.5881C31.614 25.5889 30.475 24.6897 30.2649 23.4023C30.2216 23.1361 30.255 22.8544 30.2465 22.5854L27.329 22.584C26.6981 22.584 25.9941 22.9708 25.9884 23.6677L25.9628 26.8507L25.9671 58.0041C25.9671 58.4662 26.4532 59.09 26.9436 59.0907L36.7031 59.107L52.1593 59.0999C52.6149 59.0999 53.1776 58.5435 53.1776 58.0858L53.1897 42.6648V23.623V23.6237Z" fill="#F7F3CF"/>
<path d="M20.1487 57.0752C20.6194 57.0752 21.001 56.6936 21.001 56.2228C21.001 55.7521 20.6194 55.3705 20.1487 55.3705C19.678 55.3705 19.2964 55.7521 19.2964 56.2228C19.2964 56.6936 19.678 57.0752 20.1487 57.0752Z" fill="#F7F3CF"/>
<path d="M62.7984 52.8851C63.2652 52.8851 63.6436 52.5066 63.6436 52.0398C63.6436 51.573 63.2652 51.1946 62.7984 51.1946C62.3315 51.1946 61.9531 51.573 61.9531 52.0398C61.9531 52.5066 62.3315 52.8851 62.7984 52.8851Z" fill="#F7F3CF"/>
<path d="M58.9349 19.4826C59.4005 19.4826 59.778 19.1051 59.778 18.6395C59.778 18.1739 59.4005 17.7964 58.9349 17.7964C58.4693 17.7964 58.0918 18.1739 58.0918 18.6395C58.0918 19.1051 58.4693 19.4826 58.9349 19.4826Z" fill="#F7F3CF"/>
<path d="M13.6979 35.8141C14.1545 35.8141 14.5246 35.4439 14.5246 34.9873C14.5246 34.5307 14.1545 34.1605 13.6979 34.1605C13.2413 34.1605 12.8711 34.5307 12.8711 34.9873C12.8711 35.4439 13.2413 35.8141 13.6979 35.8141Z" fill="#F7F3CF"/>
<path d="M41.3429 67.844C41.7995 67.844 42.1697 67.4738 42.1697 67.0172C42.1697 66.5606 41.7995 66.1904 41.3429 66.1904C40.8863 66.1904 40.5161 66.5606 40.5161 67.0172C40.5161 67.4738 40.8863 67.844 41.3429 67.844Z" fill="#F7F3CF"/>
<path d="M21.9219 16.7063C22.3765 16.7063 22.7451 16.3377 22.7451 15.8831C22.7451 15.4284 22.3765 15.0598 21.9219 15.0598C21.4672 15.0598 21.0986 15.4284 21.0986 15.8831C21.0986 16.3377 21.4672 16.7063 21.9219 16.7063Z" fill="#F7F3CF"/>
<path d="M20.4 49.7468C20.8531 49.7468 21.2204 49.3795 21.2204 48.9264C21.2204 48.4733 20.8531 48.106 20.4 48.106C19.9469 48.106 19.5796 48.4733 19.5796 48.9264C19.5796 49.3795 19.9469 49.7468 20.4 49.7468Z" fill="#F7F3CF"/>
<path d="M36.8108 9.27939C37.2615 9.27939 37.6269 8.91399 37.6269 8.46324C37.6269 8.0125 37.2615 7.64709 36.8108 7.64709C36.36 7.64709 35.9946 8.0125 35.9946 8.46324C35.9946 8.91399 36.36 9.27939 36.8108 9.27939Z" fill="#F7F3CF"/>
<path d="M68.4227 30.979C68.8718 30.979 69.236 30.6149 69.236 30.1657C69.236 29.7165 68.8718 29.3524 68.4227 29.3524C67.9735 29.3524 67.6094 29.7165 67.6094 30.1657C67.6094 30.6149 67.9735 30.979 68.4227 30.979Z" fill="#F7F3CF"/>
<path d="M58.2363 45.3716C58.6781 45.3716 59.0361 45.0135 59.0361 44.5718C59.0361 44.1301 58.6781 43.772 58.2363 43.772C57.7946 43.772 57.4365 44.1301 57.4365 44.5718C57.4365 45.0135 57.7946 45.3716 58.2363 45.3716Z" fill="#F7F3CF"/>
<path d="M58.6548 27.9216C59.0958 27.9216 59.4532 27.5642 59.4532 27.1232C59.4532 26.6823 59.0958 26.3248 58.6548 26.3248C58.2139 26.3248 57.8564 26.6823 57.8564 27.1232C57.8564 27.5642 58.2139 27.9216 58.6548 27.9216Z" fill="#F7F3CF"/>
<path d="M13.7554 51.6311C14.1921 51.6311 14.546 51.2772 14.546 50.8405C14.546 50.4039 14.1921 50.0499 13.7554 50.0499C13.3188 50.0499 12.9648 50.4039 12.9648 50.8405C12.9648 51.2772 13.3188 51.6311 13.7554 51.6311Z" fill="#F7F3CF"/>
<path d="M68.1542 44.1204C68.5896 44.1204 68.9426 43.7674 68.9426 43.3319C68.9426 42.8965 68.5896 42.5435 68.1542 42.5435C67.7187 42.5435 67.3657 42.8965 67.3657 43.3319C67.3657 43.7674 67.7187 44.1204 68.1542 44.1204Z" fill="#F7F3CF"/>
<path d="M54.1774 15.4906C54.6125 15.4906 54.9651 15.1379 54.9651 14.7028C54.9651 14.2677 54.6125 13.915 54.1774 13.915C53.7423 13.915 53.3896 14.2677 53.3896 14.7028C53.3896 15.1379 53.7423 15.4906 54.1774 15.4906Z" fill="#F7F3CF"/>
<path d="M16.7953 18.1767C17.2272 18.1767 17.5773 17.8266 17.5773 17.3946C17.5773 16.9627 17.2272 16.6125 16.7953 16.6125C16.3633 16.6125 16.0132 16.9627 16.0132 17.3946C16.0132 17.8266 16.3633 18.1767 16.7953 18.1767Z" fill="#F7F3CF"/>
<path d="M14.1339 46.6392C14.5611 46.6392 14.9075 46.2928 14.9075 45.8656C14.9075 45.4384 14.5611 45.092 14.1339 45.092C13.7067 45.092 13.3604 45.4384 13.3604 45.8656C13.3604 46.2928 13.7067 46.6392 14.1339 46.6392Z" fill="#F7F3CF"/>
<path d="M46.4532 64.2835C46.8805 64.2835 47.2268 63.9371 47.2268 63.5099C47.2268 63.0827 46.8805 62.7363 46.4532 62.7363C46.026 62.7363 45.6797 63.0827 45.6797 63.5099C45.6797 63.9371 46.026 64.2835 46.4532 64.2835Z" fill="#F7F3CF"/>
<path d="M9.28395 32.6205C9.70451 32.6205 10.0454 32.2796 10.0454 31.859C10.0454 31.4385 9.70451 31.0975 9.28395 31.0975C8.86339 31.0975 8.52246 31.4385 8.52246 31.859C8.52246 32.2796 8.86339 32.6205 9.28395 32.6205Z" fill="#F7F3CF"/>
<path d="M26.8502 66.6782C27.2696 66.6782 27.6095 66.3382 27.6095 65.9188C27.6095 65.4994 27.2696 65.1594 26.8502 65.1594C26.4308 65.1594 26.0908 65.4994 26.0908 65.9188C26.0908 66.3382 26.4308 66.6782 26.8502 66.6782Z" fill="#F7F3CF"/>
<path d="M63.6224 20.7183C64.0371 20.7183 64.3733 20.3821 64.3733 19.9674C64.3733 19.5527 64.0371 19.2166 63.6224 19.2166C63.2077 19.2166 62.8716 19.5527 62.8716 19.9674C62.8716 20.3821 63.2077 20.7183 63.6224 20.7183Z" fill="#F7F3CF"/>
<path d="M13.0045 29.681C13.4188 29.681 13.7547 29.3451 13.7547 28.9308C13.7547 28.5165 13.4188 28.1807 13.0045 28.1807C12.5902 28.1807 12.2544 28.5165 12.2544 28.9308C12.2544 29.3451 12.5902 29.681 13.0045 29.681Z" fill="#F7F3CF"/>
<path d="M36.3541 68.8616C36.7613 68.8616 37.0914 68.5315 37.0914 68.1242C37.0914 67.717 36.7613 67.3868 36.3541 67.3868C35.9468 67.3868 35.6167 67.717 35.6167 68.1242C35.6167 68.5315 35.9468 68.8616 36.3541 68.8616Z" fill="#F7F3CF"/>
<path d="M56.8327 63.0252C57.2376 63.0252 57.5658 62.697 57.5658 62.2921C57.5658 61.8872 57.2376 61.559 56.8327 61.559C56.4278 61.559 56.0996 61.8872 56.0996 62.2921C56.0996 62.697 56.4278 63.0252 56.8327 63.0252Z" fill="#F7F3CF"/>
<path d="M12.0227 40.3576C12.4232 40.3576 12.7479 40.0329 12.7479 39.6323C12.7479 39.2317 12.4232 38.907 12.0227 38.907C11.6221 38.907 11.2974 39.2317 11.2974 39.6323C11.2974 40.0329 11.6221 40.3576 12.0227 40.3576Z" fill="#F7F3CF"/>
<path d="M19.8731 23.7329C20.2717 23.7329 20.5949 23.4098 20.5949 23.0112C20.5949 22.6126 20.2717 22.2894 19.8731 22.2894C19.4745 22.2894 19.1514 22.6126 19.1514 23.0112C19.1514 23.4098 19.4745 23.7329 19.8731 23.7329Z" fill="#F7F3CF"/>
<path d="M18.802 61.2233C19.1967 61.2233 19.5167 60.9033 19.5167 60.5086C19.5167 60.1139 19.1967 59.7939 18.802 59.7939C18.4074 59.7939 18.0874 60.1139 18.0874 60.5086C18.0874 60.9033 18.4074 61.2233 18.802 61.2233Z" fill="#F7F3CF"/>
<path d="M58.5833 57.7969C58.9737 57.7969 59.2901 57.4804 59.2901 57.09C59.2901 56.6996 58.9737 56.3832 58.5833 56.3832C58.1929 56.3832 57.8765 56.6996 57.8765 57.09C57.8765 57.4804 58.1929 57.7969 58.5833 57.7969Z" fill="#F7F3CF"/>
<path d="M52.9695 11.5206C53.352 11.5206 53.6622 11.2105 53.6622 10.8279C53.6622 10.4454 53.352 10.1353 52.9695 10.1353C52.587 10.1353 52.2769 10.4454 52.2769 10.8279C52.2769 11.2105 52.587 11.5206 52.9695 11.5206Z" fill="#F7F3CF"/>
<path d="M38.4115 64.1502C38.7925 64.1502 39.1013 63.8413 39.1013 63.4603C39.1013 63.0794 38.7925 62.7705 38.4115 62.7705C38.0305 62.7705 37.7217 63.0794 37.7217 63.4603C37.7217 63.8413 38.0305 64.1502 38.4115 64.1502Z" fill="#F7F3CF"/>
<path d="M45.5038 13.7958C45.884 13.7958 46.1922 13.4875 46.1922 13.1073C46.1922 12.7272 45.884 12.4189 45.5038 12.4189C45.1236 12.4189 44.8154 12.7272 44.8154 13.1073C44.8154 13.4875 45.1236 13.7958 45.5038 13.7958Z" fill="#F7F3CF"/>
<path d="M14.9262 56.4868C15.3021 56.4868 15.6068 56.1821 15.6068 55.8062C15.6068 55.4303 15.3021 55.1256 14.9262 55.1256C14.5503 55.1256 14.2456 55.4303 14.2456 55.8062C14.2456 56.1821 14.5503 56.4868 14.9262 56.4868Z" fill="#F7F3CF"/>
<path d="M31.5249 9.5931C31.9 9.5931 32.204 9.28902 32.204 8.91392C32.204 8.53882 31.9 8.23474 31.5249 8.23474C31.1498 8.23474 30.8457 8.53882 30.8457 8.91392C30.8457 9.28902 31.1498 9.5931 31.5249 9.5931Z" fill="#F7F3CF"/>
<path d="M64.0007 47.683C64.3625 47.683 64.6558 47.3897 64.6558 47.028C64.6558 46.6662 64.3625 46.3729 64.0007 46.3729C63.639 46.3729 63.3457 46.6662 63.3457 47.028C63.3457 47.3897 63.639 47.683 64.0007 47.683Z" fill="#F7F3CF"/>
<path d="M58.8901 34.6388C59.248 34.6388 59.5381 34.3487 59.5381 33.9908C59.5381 33.633 59.248 33.3429 58.8901 33.3429C58.5323 33.3429 58.2422 33.633 58.2422 33.9908C58.2422 34.3487 58.5323 34.6388 58.8901 34.6388Z" fill="#F7F3CF"/>
<path d="M23.6499 12.4084C23.9913 12.4084 24.268 12.1317 24.268 11.7903C24.268 11.4489 23.9913 11.1721 23.6499 11.1721C23.3085 11.1721 23.0317 11.4489 23.0317 11.7903C23.0317 12.1317 23.3085 12.4084 23.6499 12.4084Z" fill="#F7F3CF"/>
<path d="M17.3562 37.9596C17.6972 37.9596 17.9736 37.6832 17.9736 37.3422C17.9736 37.0012 17.6972 36.7247 17.3562 36.7247C17.0152 36.7247 16.7388 37.0012 16.7388 37.3422C16.7388 37.6832 17.0152 37.9596 17.3562 37.9596Z" fill="#F7F3CF"/>
<path d="M68.9953 35.7601C69.3292 35.7601 69.5999 35.4894 69.5999 35.1554C69.5999 34.8215 69.3292 34.5508 68.9953 34.5508C68.6613 34.5508 68.3906 34.8215 68.3906 35.1554C68.3906 35.4894 68.6613 35.7601 68.9953 35.7601Z" fill="#F7F3CF"/>
<path d="M64.965 36.7182C65.2645 36.7182 65.5072 36.4754 65.5072 36.176C65.5072 35.8765 65.2645 35.6338 64.965 35.6338C64.6656 35.6338 64.4229 35.8765 64.4229 36.176C64.4229 36.4754 64.6656 36.7182 64.965 36.7182Z" fill="#F7F3CF"/>
<path d="M32.8001 13.7675C33.0987 13.7675 33.3408 13.5254 33.3408 13.2267C33.3408 12.928 33.0987 12.6859 32.8001 12.6859C32.5014 12.6859 32.2593 12.928 32.2593 13.2267C32.2593 13.5254 32.5014 13.7675 32.8001 13.7675Z" fill="#F7F3CF"/>
<path d="M15.7824 26.3873C16.0819 26.3873 16.3246 26.1445 16.3246 25.8451C16.3246 25.5456 16.0819 25.3029 15.7824 25.3029C15.483 25.3029 15.2402 25.5456 15.2402 25.8451C15.2402 26.1445 15.483 26.3873 15.7824 26.3873Z" fill="#F7F3CF"/>
<path d="M23.4397 62.4355C23.7348 62.4355 23.9741 62.1962 23.9741 61.9011C23.9741 61.606 23.7348 61.3667 23.4397 61.3667C23.1445 61.3667 22.9053 61.606 22.9053 61.9011C22.9053 62.1962 23.1445 62.4355 23.4397 62.4355Z" fill="#F7F3CF"/>
<path d="M62.495 24.4746C62.7878 24.4746 63.0251 24.2372 63.0251 23.9444C63.0251 23.6517 62.7878 23.4143 62.495 23.4143C62.2022 23.4143 61.9648 23.6517 61.9648 23.9444C61.9648 24.2372 62.2022 24.4746 62.495 24.4746Z" fill="#F7F3CF"/>
<path d="M69.4819 39.4598C69.7724 39.4598 70.0078 39.2244 70.0078 38.934C70.0078 38.6435 69.7724 38.4081 69.4819 38.4081C69.1915 38.4081 68.9561 38.6435 68.9561 38.934C68.9561 39.2244 69.1915 39.4598 69.4819 39.4598Z" fill="#F7F3CF"/>
<path d="M66.5682 25.9593C66.8567 25.9593 67.0905 25.7255 67.0905 25.437C67.0905 25.1485 66.8567 24.9147 66.5682 24.9147C66.2798 24.9147 66.0459 25.1485 66.0459 25.437C66.0459 25.7255 66.2798 25.9593 66.5682 25.9593Z" fill="#F7F3CF"/>
<path d="M20.874 40.1822C21.1566 40.1822 21.3857 39.9531 21.3857 39.6705C21.3857 39.3879 21.1566 39.1588 20.874 39.1588C20.5914 39.1588 20.3623 39.3879 20.3623 39.6705C20.3623 39.9531 20.5914 40.1822 20.874 40.1822Z" fill="#F7F3CF"/>
<path d="M49.3371 67.5304C49.6193 67.5304 49.8481 67.3016 49.8481 67.0194C49.8481 66.7372 49.6193 66.5084 49.3371 66.5084C49.0549 66.5084 48.8262 66.7372 48.8262 67.0194C48.8262 67.3016 49.0549 67.5304 49.3371 67.5304Z" fill="#F7F3CF"/>
<path d="M22.0213 31.3586C22.3027 31.3586 22.5308 31.1305 22.5308 30.849C22.5308 30.5676 22.3027 30.3395 22.0213 30.3395C21.7399 30.3395 21.5117 30.5676 21.5117 30.849C21.5117 31.1305 21.7399 31.3586 22.0213 31.3586Z" fill="#F7F3CF"/>
<path d="M12.1596 23.8437C12.4387 23.8437 12.6649 23.6175 12.6649 23.3384C12.6649 23.0594 12.4387 22.8331 12.1596 22.8331C11.8805 22.8331 11.6543 23.0594 11.6543 23.3384C11.6543 23.6175 11.8805 23.8437 12.1596 23.8437Z" fill="#F7F3CF"/>
<path d="M67.0132 50.7702C67.2907 50.7702 67.5156 50.5452 67.5156 50.2677C67.5156 49.9902 67.2907 49.7653 67.0132 49.7653C66.7357 49.7653 66.5107 49.9902 66.5107 50.2677C66.5107 50.5452 66.7357 50.7702 67.0132 50.7702Z" fill="#F7F3CF"/>
<path d="M58.6113 15.0101C58.8845 15.0101 59.106 14.7886 59.106 14.5154C59.106 14.2422 58.8845 14.0208 58.6113 14.0208C58.3382 14.0208 58.1167 14.2422 58.1167 14.5154C58.1167 14.7886 58.3382 15.0101 58.6113 15.0101Z" fill="#F7F3CF"/>
<path d="M8.93717 43.2865C9.2037 43.2865 9.41975 43.0704 9.41975 42.8039C9.41975 42.5374 9.2037 42.3213 8.93717 42.3213C8.67065 42.3213 8.45459 42.5374 8.45459 42.8039C8.45459 43.0704 8.67065 43.2865 8.93717 43.2865Z" fill="#F7F3CF"/>
<path d="M15.5371 21.7117C15.8024 21.7117 16.0175 21.4965 16.0175 21.2312C16.0175 20.9658 15.8024 20.7507 15.5371 20.7507C15.2717 20.7507 15.0566 20.9658 15.0566 21.2312C15.0566 21.4965 15.2717 21.7117 15.5371 21.7117Z" fill="#F7F3CF"/>
<path d="M19.5254 44.4432C19.7814 44.4432 19.9889 44.2357 19.9889 43.9798C19.9889 43.7238 19.7814 43.5164 19.5254 43.5164C19.2695 43.5164 19.062 43.7238 19.062 43.9798C19.062 44.2357 19.2695 44.4432 19.5254 44.4432Z" fill="#F7F3CF"/>
<path d="M48.4944 9.45819C48.7507 9.45819 48.9585 9.25039 48.9585 8.99405C48.9585 8.73771 48.7507 8.52991 48.4944 8.52991C48.2381 8.52991 48.0303 8.73771 48.0303 8.99405C48.0303 9.25039 48.2381 9.45819 48.4944 9.45819Z" fill="#F7F3CF"/>
<path d="M63.6108 31.9122C63.8647 31.9122 64.0706 31.7063 64.0706 31.4523C64.0706 31.1983 63.8647 30.9924 63.6108 30.9924C63.3568 30.9924 63.1509 31.1983 63.1509 31.4523C63.1509 31.7063 63.3568 31.9122 63.6108 31.9122Z" fill="#F7F3CF"/>
<path d="M60.1061 40.574C60.3597 40.574 60.5653 40.3684 60.5653 40.1148C60.5653 39.8612 60.3597 39.6556 60.1061 39.6556C59.8525 39.6556 59.647 39.8612 59.647 40.1148C59.647 40.3684 59.8525 40.574 60.1061 40.574Z" fill="#F7F3CF"/>
<path d="M28.2773 15.8995C28.5305 15.8995 28.7358 15.6942 28.7358 15.441C28.7358 15.1878 28.5305 14.9825 28.2773 14.9825C28.0241 14.9825 27.8188 15.1878 27.8188 15.441C27.8188 15.6942 28.0241 15.8995 28.2773 15.8995Z" fill="#F7F3CF"/>
<path d="M28.7921 12.2275C29.0429 12.2275 29.2463 12.0241 29.2463 11.7733C29.2463 11.5224 29.0429 11.3191 28.7921 11.3191C28.5412 11.3191 28.3379 11.5224 28.3379 11.7733C28.3379 12.0241 28.5412 12.2275 28.7921 12.2275Z" fill="#F7F3CF"/>
<path d="M54.2781 19.0688C54.5258 19.0688 54.7266 18.868 54.7266 18.6203C54.7266 18.3726 54.5258 18.1718 54.2781 18.1718C54.0304 18.1718 53.8296 18.3726 53.8296 18.6203C53.8296 18.868 54.0304 19.0688 54.2781 19.0688Z" fill="#F7F3CF"/>
<path d="M40.6972 11.7215C40.9418 11.7215 41.1401 11.5232 41.1401 11.2787C41.1401 11.0341 40.9418 10.8358 40.6972 10.8358C40.4527 10.8358 40.2544 11.0341 40.2544 11.2787C40.2544 11.5232 40.4527 11.7215 40.6972 11.7215Z" fill="#F7F3CF"/>
<path d="M8.35109 38.5663C8.59488 38.5663 8.79251 38.3687 8.79251 38.1249C8.79251 37.8811 8.59488 37.6835 8.35109 37.6835C8.1073 37.6835 7.90967 37.8811 7.90967 38.1249C7.90967 38.3687 8.1073 38.5663 8.35109 38.5663Z" fill="#F7F3CF"/>
<path d="M58.8695 50.2875C59.1121 50.2875 59.3088 50.0909 59.3088 49.8482C59.3088 49.6056 59.1121 49.4089 58.8695 49.4089C58.6269 49.4089 58.4302 49.6056 58.4302 49.8482C58.4302 50.0909 58.6269 50.2875 58.8695 50.2875Z" fill="#F7F3CF"/>
<path d="M31.3565 67.4537C31.0882 67.47 30.9129 67.2621 30.9016 67.0399C30.8895 66.8043 31.0385 66.5694 31.2969 66.5637C31.541 66.558 31.7376 66.7546 31.756 66.9668C31.7766 67.2039 31.6297 67.4374 31.3572 67.4537H31.3565Z" fill="#F7F3CF"/>
<path d="M34.077 65.1806C34.3189 65.1806 34.5149 64.9845 34.5149 64.7427C34.5149 64.5009 34.3189 64.3048 34.077 64.3048C33.8352 64.3048 33.6392 64.5009 33.6392 64.7427C33.6392 64.9845 33.8352 65.1806 34.077 65.1806Z" fill="#F7F3CF"/>
<path d="M50.1743 13.3814C50.4138 13.3814 50.6079 13.1873 50.6079 12.9478C50.6079 12.7083 50.4138 12.5142 50.1743 12.5142C49.9349 12.5142 49.7407 12.7083 49.7407 12.9478C49.7407 13.1873 49.9349 13.3814 50.1743 13.3814Z" fill="#F7F3CF"/>
<path d="M63.1706 28.1543C63.4077 28.1543 63.5999 27.962 63.5999 27.7249C63.5999 27.4878 63.4077 27.2955 63.1706 27.2955C62.9334 27.2955 62.7412 27.4878 62.7412 27.7249C62.7412 27.962 62.9334 28.1543 63.1706 28.1543Z" fill="#F7F3CF"/>
<path d="M51.3735 17.3158C51.6102 17.3158 51.8021 17.1239 51.8021 16.8872C51.8021 16.6504 51.6102 16.4585 51.3735 16.4585C51.1367 16.4585 50.9448 16.6504 50.9448 16.8872C50.9448 17.1239 51.1367 17.3158 51.3735 17.3158Z" fill="#F7F3CF"/>
<path d="M60.6684 60.5682C60.9001 60.5682 61.0879 60.3804 61.0879 60.1488C61.0879 59.9172 60.9001 59.7294 60.6684 59.7294C60.4368 59.7294 60.249 59.9172 60.249 60.1488C60.249 60.3804 60.4368 60.5682 60.6684 60.5682Z" fill="#F7F3CF"/>
<path d="M20.8788 19.9893C21.1077 19.9893 21.2933 19.8038 21.2933 19.5749C21.2933 19.346 21.1077 19.1604 20.8788 19.1604C20.6499 19.1604 20.4644 19.346 20.4644 19.5749C20.4644 19.8038 20.6499 19.9893 20.8788 19.9893Z" fill="#F7F3CF"/>
<path d="M64.7958 40.2817C65.0254 40.2817 65.2116 40.0955 65.2116 39.8658C65.2116 39.6362 65.0254 39.45 64.7958 39.45C64.5661 39.45 64.3799 39.6362 64.3799 39.8658C64.3799 40.0955 64.5661 40.2817 64.7958 40.2817Z" fill="#F7F3CF"/>
<path d="M26.8998 9.80601C27.1294 9.80601 27.3156 9.61981 27.3156 9.39012C27.3156 9.16044 27.1294 8.97424 26.8998 8.97424C26.6701 8.97424 26.4839 9.16044 26.4839 9.39012C26.4839 9.61981 26.6701 9.80601 26.8998 9.80601Z" fill="#F7F3CF"/>
<path d="M16.3735 31.7065C16.6016 31.7065 16.7865 31.5215 16.7865 31.2934C16.7865 31.0653 16.6016 30.8804 16.3735 30.8804C16.1454 30.8804 15.9604 31.0653 15.9604 31.2934C15.9604 31.5215 16.1454 31.7065 16.3735 31.7065Z" fill="#F7F3CF"/>
<path d="M17.9145 53.34C18.1419 53.34 18.3262 53.1557 18.3262 52.9283C18.3262 52.701 18.1419 52.5167 17.9145 52.5167C17.6872 52.5167 17.5029 52.701 17.5029 52.9283C17.5029 53.1557 17.6872 53.34 17.9145 53.34Z" fill="#F7F3CF"/>
<path d="M14.54 42.3049C14.7674 42.3049 14.9516 42.1206 14.9516 41.8933C14.9516 41.666 14.7674 41.4817 14.54 41.4817C14.3127 41.4817 14.1284 41.666 14.1284 41.8933C14.1284 42.1206 14.3127 42.3049 14.54 42.3049Z" fill="#F7F3CF"/>
<path d="M53.1006 65.4403C53.3279 65.4403 53.5122 65.256 53.5122 65.0287C53.5122 64.8014 53.3279 64.6171 53.1006 64.6171C52.8733 64.6171 52.689 64.8014 52.689 65.0287C52.689 65.256 52.8733 65.4403 53.1006 65.4403Z" fill="#F7F3CF"/>
<path d="M9.85604 48.2883C10.0818 48.2883 10.2648 48.1053 10.2648 47.8795C10.2648 47.6537 10.0818 47.4707 9.85604 47.4707C9.63028 47.4707 9.44727 47.6537 9.44727 47.8795C9.44727 48.1053 9.63028 48.2883 9.85604 48.2883Z" fill="#F7F3CF"/>
<path d="M25.4418 15.2479C25.6664 15.2479 25.8484 15.0658 25.8484 14.8412C25.8484 14.6166 25.6664 14.4346 25.4418 14.4346C25.2172 14.4346 25.0352 14.6166 25.0352 14.8412C25.0352 15.0658 25.2172 15.2479 25.4418 15.2479Z" fill="#F7F3CF"/>
<path d="M19.0312 27.9132C19.2543 27.9132 19.4351 27.7324 19.4351 27.5094C19.4351 27.2864 19.2543 27.1056 19.0312 27.1056C18.8082 27.1056 18.6274 27.2864 18.6274 27.5094C18.6274 27.7324 18.8082 27.9132 19.0312 27.9132Z" fill="#F7F3CF"/>
<path d="M19.6319 14.1187C19.8491 14.1187 20.0251 13.9427 20.0251 13.7256C20.0251 13.5084 19.8491 13.3324 19.6319 13.3324C19.4148 13.3324 19.2388 13.5084 19.2388 13.7256C19.2388 13.9427 19.4148 14.1187 19.6319 14.1187Z" fill="#F7F3CF"/>
<path d="M9.77065 27.4738C9.987 27.4738 10.1624 27.2984 10.1624 27.0821C10.1624 26.8657 9.987 26.6903 9.77065 26.6903C9.5543 26.6903 9.37891 26.8657 9.37891 27.0821C9.37891 27.2984 9.5543 27.4738 9.77065 27.4738Z" fill="#F7F3CF"/>
<path d="M68.5068 47.4544C68.7227 47.4544 68.8978 47.2794 68.8978 47.0634C68.8978 46.8474 68.7227 46.6724 68.5068 46.6724C68.2908 46.6724 68.1157 46.8474 68.1157 47.0634C68.1157 47.2794 68.2908 47.4544 68.5068 47.4544Z" fill="#F7F3CF"/>
<path d="M9.77984 35.6879C9.99345 35.6879 10.1666 35.5147 10.1666 35.3011C10.1666 35.0875 9.99345 34.9143 9.77984 34.9143C9.56623 34.9143 9.39307 35.0875 9.39307 35.3011C9.39307 35.5147 9.56623 35.6879 9.77984 35.6879Z" fill="#F7F3CF"/>
<path d="M24.4552 20.406C24.668 20.406 24.8405 20.2334 24.8405 20.0206C24.8405 19.8078 24.668 19.6353 24.4552 19.6353C24.2424 19.6353 24.0698 19.8078 24.0698 20.0206C24.0698 20.2334 24.2424 20.406 24.4552 20.406Z" fill="#F7F3CF"/>
<path d="M65.7047 54.6183C65.9132 54.6183 66.0822 54.4492 66.0822 54.2407C66.0822 54.0322 65.9132 53.8632 65.7047 53.8632C65.4962 53.8632 65.3271 54.0322 65.3271 54.2407C65.3271 54.4492 65.4962 54.6183 65.7047 54.6183Z" fill="#F7F3CF"/>
<path d="M44.0052 8.47876C44.1926 8.47876 44.3445 8.32688 44.3445 8.13953C44.3445 7.95217 44.1926 7.80029 44.0052 7.80029C43.8179 7.80029 43.666 7.95217 43.666 8.13953C43.666 8.32688 43.8179 8.47876 44.0052 8.47876Z" fill="#F7F3CF"/>
<path d="M50.9936 55.7402C50.9929 56.2923 50.4741 56.8253 49.9376 56.826L40.0298 56.8381C39.4996 56.8381 38.8928 56.3981 38.8936 55.8254V46.0216C38.895 45.4943 39.423 44.9614 39.9474 44.9606L49.7481 44.9401C50.5146 44.9386 51.0099 45.4879 51.0085 46.248L50.9936 55.7402ZM49.8822 46.033L40.0007 46.0365L40.0042 55.7558L49.8858 55.7523L49.8822 46.033Z" fill="#F7F3CF"/>
<path d="M33.9872 34.46L28.8257 34.472C28.4751 34.4728 28.1515 34.1016 28.1515 33.7645L28.1479 31.1599L28.1522 28.6561C28.1529 28.2388 28.4957 27.913 28.9009 27.9116L33.7431 27.9003C34.3129 27.8989 34.704 28.2324 34.7033 28.8207L34.6969 33.7347C34.6969 34.0853 34.3576 34.4586 33.9865 34.46H33.9872ZM33.2612 29.3268L29.5765 29.3296L29.5794 33.0427L33.264 33.0399L33.2612 29.3268Z" fill="#F7F3CF"/>
<path d="M33.9844 43.3923L28.83 43.3979C28.3758 43.3979 28.1424 42.9551 28.1431 42.5584L28.1487 37.5607C28.2006 37.1782 28.4603 36.8609 28.8669 36.8602L33.8148 36.8489C34.34 36.8475 34.6991 37.181 34.6998 37.7126L34.7034 42.5208C34.7034 42.9303 34.4635 43.3923 33.9837 43.393L33.9844 43.3923ZM29.5717 38.2505L29.5646 41.9786L33.2606 41.9857L33.2677 38.2576L29.5717 38.2505Z" fill="#F7F3CF"/>
<path d="M37.4035 51.0448C37.4035 53.6813 35.266 55.8182 32.6302 55.8182C29.9945 55.8182 27.8569 53.6806 27.8569 51.0448C27.8569 48.409 29.9945 46.2714 32.6302 46.2714C35.266 46.2714 37.4035 48.409 37.4035 51.0448ZM36.3688 51.0419C36.3688 48.9781 34.6961 47.3054 32.6324 47.3054C30.5686 47.3054 28.8959 48.9781 28.8959 51.0419C28.8959 53.1057 30.5686 54.7785 32.6324 54.7785C34.6961 54.7785 36.3688 53.1057 36.3688 51.0419Z" fill="#F7F3CF"/>
<path d="M50.3796 42.1112L37.1824 42.1169C36.8787 42.1169 36.6218 41.8997 36.5267 41.6421C36.4486 41.4306 36.516 41.2078 36.6359 41.0566C36.7715 40.8849 36.973 40.7869 37.2207 40.8054L50.2568 40.8039C50.6202 40.7649 50.9523 40.9686 51.0233 41.3312C51.0943 41.6939 50.8061 42.1119 50.3796 42.1119V42.1112Z" fill="#F7F3CF"/>
<path d="M50.3447 33.1513L37.2589 33.1556C36.9899 33.1556 36.809 33.0896 36.6578 32.91C36.5066 32.7305 36.4577 32.4842 36.5421 32.2663C36.6684 31.9399 36.9559 31.8427 37.2944 31.8427L50.2588 31.8391C50.6293 31.8391 50.9564 32.0165 51.016 32.4076C51.0721 32.7731 50.7762 33.1513 50.3454 33.1513H50.3447Z" fill="#F7F3CF"/>
<path d="M50.389 39.4343L43.5945 39.4372L38.5295 39.4343L37.0896 39.4393C36.7596 39.4407 36.514 39.1199 36.4991 38.8176C36.4849 38.5344 36.7241 38.1519 37.0782 38.1519L45.0132 38.1462L50.4401 38.1533C50.7829 38.1533 51.0263 38.5053 51.027 38.785C51.0277 39.1185 50.7814 39.435 50.3883 39.435L50.389 39.4343Z" fill="#F7F3CF"/>
<path d="M50.3547 29.1699C50.7372 29.1699 51.004 29.4432 51.0289 29.7859C51.0494 30.0734 50.8011 30.4538 50.442 30.4545L37.2575 30.4594C36.9417 30.4594 36.677 30.358 36.5429 30.0592C36.4598 29.8754 36.4911 29.6433 36.616 29.4531C36.7018 29.3232 36.8857 29.1728 37.1092 29.1728L44.3217 29.1763L50.3547 29.1699Z" fill="#F7F3CF"/>
<path d="M45.9871 54.2024C45.9871 54.4316 45.7827 54.6523 45.5591 54.653L44.1802 54.6608C43.9595 54.6019 43.7856 54.4181 43.7856 54.1797L43.7871 51.1464L43.7984 47.5894C43.7991 47.3432 44.0184 47.1729 44.2469 47.1714L45.4917 47.165C45.7543 47.1636 45.9906 47.351 45.9906 47.6356L45.9849 51.1961L45.9871 54.2017V54.2024ZM45.2369 47.918H44.5351L44.5393 53.9036H45.2412L45.2369 47.918Z" fill="#F7F3CF"/>
<path d="M48.3783 54.6579L47.0292 54.6608C46.7468 54.6161 46.6006 54.3932 46.6006 54.1115L46.6063 49.8157C46.6063 49.5609 46.7425 49.3643 46.9895 49.3083L48.301 49.3012C48.5146 49.2997 48.7729 49.4623 48.7736 49.7099L48.7793 54.2208C48.753 54.445 48.6026 54.609 48.3776 54.6586L48.3783 54.6579ZM47.3337 50.052L47.3301 53.8986H48.0313L48.0348 50.0527H47.3337V50.052Z" fill="#F7F3CF"/>
<path d="M42.7568 54.6508L41.4113 54.6607C41.1693 54.6025 41.0423 54.3946 41.043 54.1511L41.0472 51.7907C41.0472 51.5686 41.236 51.3606 41.4446 51.3592L42.6859 51.3493C42.9357 51.3471 43.1968 51.4969 43.1968 51.7822L43.194 54.2242C43.194 54.4584 43.0003 54.6486 42.7568 54.6508ZM41.7917 52.1164L41.7775 53.8999L42.463 53.9056L42.4772 52.1221L41.7917 52.1164Z" fill="#F7F3CF"/>
<path d="M33.7335 52.3065L34.1508 52.2867C34.0763 52.1263 33.999 51.985 33.901 51.8459C33.153 51.8814 32.6151 51.7778 31.8181 51.8573C31.5201 52.1696 31.2702 52.496 31.0467 52.8651C30.909 53.0922 30.6635 53.1866 30.4335 53.0411C30.2036 52.8956 30.1901 52.6081 30.3519 52.3974C30.567 52.1185 31.2724 51.1441 31.5818 51.1362C32.3859 51.1171 33.153 51.1128 33.9571 51.1746C34.3865 51.2072 34.8712 52.0297 35.0401 52.3881C35.1103 52.5372 35.0926 52.7167 35.0195 52.8445C34.9421 52.9786 34.791 53.0801 34.6157 53.0808L33.3496 53.0844C33.0934 53.0844 32.9714 52.7934 32.943 52.5869C32.9132 52.3669 32.9508 52.1213 33.1743 52.0546C33.3979 51.9879 33.6356 52.0588 33.7335 52.3065Z" fill="#F7F3CF"/>
<path d="M33.9619 49.7C33.9619 50.4366 33.3643 51.0342 32.6277 51.0342C31.891 51.0342 31.2935 50.4366 31.2935 49.7C31.2935 48.9633 31.891 48.3657 32.6277 48.3657C33.3643 48.3657 33.9619 48.9633 33.9619 49.7ZM33.1663 49.7269C33.1663 49.4288 32.9243 49.1868 32.6262 49.1868C32.3282 49.1868 32.0862 49.4288 32.0862 49.7269C32.0862 50.025 32.3282 50.267 32.6262 50.267C32.9243 50.267 33.1663 50.025 33.1663 49.7269Z" fill="#F7F3CF"/>
</svg>
