<svg width="84" height="77" viewBox="0 0 84 77" fill="none" xmlns="http://www.w3.org/2000/svg">
<path d="M15.1339 69.9231C14.3774 70.6488 13.2613 69.4744 13.9716 68.7609C14.741 67.9885 15.9207 69.1685 15.1339 69.9231Z" fill="#F7F3CF"/>
<path d="M0.687729 67.4992C0.937081 67.4793 1.23498 67.6406 1.36524 67.8519C1.80702 68.5692 0.898316 69.3623 0.259919 68.8175C-0.256597 68.3768 0.0542209 67.5498 0.688079 67.4992H0.687729Z" fill="#F7F3CF"/>
<path d="M9.29375 69.8079C9.97162 69.1758 10.9523 70.2301 10.2608 70.8618C9.58467 71.4792 8.61485 70.441 9.29375 69.8079Z" fill="#F7F3CF"/>
<path d="M22.3621 68.8262C22.8573 68.7232 23.1936 69.4597 22.698 69.7555C22.067 70.1323 21.6461 68.9753 22.3621 68.8262Z" fill="#F7F3CF"/>
<path d="M4.94439 68.8961C5.44938 68.7923 5.67812 69.5212 5.19444 69.7394C4.60738 70.0041 4.35767 69.0169 4.94439 68.8961Z" fill="#F7F3CF"/>
<path d="M18.2781 70.0831C18.8572 69.9825 18.9658 70.8028 18.4713 70.9048C17.9104 71.02 17.7693 70.1718 18.2781 70.0831Z" fill="#F7F3CF"/>
<path d="M18.8376 67.4297C19.2822 67.3574 19.5071 67.9343 19.1428 68.19C18.597 68.573 18.2076 67.532 18.8376 67.4297Z" fill="#F7F3CF"/>
<circle cx="45.3276" cy="38.5" r="38.5" fill="#4B5A2A"/>
<path d="M26.3276 32C26.0515 32 25.8276 32.2238 25.8276 32.5C25.8276 32.7762 26.0515 33 26.3276 33C26.6038 33 26.8276 32.7762 26.8276 32.5C26.8276 32.2238 26.6038 32 26.3276 32Z" fill="#4B5A2A"/>
<path d="M28.3276 31C28.0514 31 27.8276 31.2237 27.8276 31.5C27.8276 31.7763 28.0514 32 28.3276 32C28.6039 32 28.8276 31.7763 28.8276 31.5C28.8276 31.2237 28.6039 31 28.3276 31Z" fill="#4B5A2A"/>
<path d="M29.3276 29C29.0516 29 28.8276 29.2239 28.8276 29.5C28.8276 29.7761 29.0516 30 29.3276 30C29.6037 30 29.8276 29.7761 29.8276 29.5C29.8276 29.2239 29.6037 29 29.3276 29Z" fill="#4B5A2A"/>
<path d="M39.8276 47C39.4439 47.3325 39.1219 47.659 38.8276 48C39.2138 47.6688 39.5415 47.3395 39.8276 47Z" fill="#4B5A2A"/>
<path d="M78.8276 37.3387V39.4326C78.7532 39.6757 78.8056 39.9638 78.794 40.2194C78.0135 57.3926 63.6024 71.7468 46.3129 71.9602C46.2539 71.9609 46.1579 71.9379 46.1215 71.9958C45.634 71.9861 45.143 72.0091 44.6555 71.9958C25.9705 71.4832 11.2332 56.2178 11.8461 37.4274C12.4503 18.9045 27.8088 4.39206 46.3835 5.01961C64.0309 5.61572 78.2625 19.6389 78.8276 37.3387ZM40.9553 17.8464C41.0161 18.5064 40.9099 19.2537 40.9553 19.9232C41.167 19.7409 41.3315 19.5052 41.526 19.3072C41.6755 19.1549 42.2112 18.7268 42.2461 18.5438C42.3743 17.8722 41.7991 16.6727 41.7275 15.9575C41.6231 14.9168 42.3369 14.5232 43.1807 14.2079C43.9553 13.9184 44.7634 13.5961 45.4765 14.1981C45.9672 14.6126 46.037 15.3275 46.3136 15.874C46.4282 15.045 46.3398 13.9924 47.2988 13.6484C47.6948 13.5063 49.0167 13.5391 49.4375 13.6579C50.0658 13.8353 50.4293 14.3951 50.415 15.0362L50.715 14.5515C51.3964 13.7958 52.7304 14.3818 53.4746 14.7862C54.9292 15.5765 54.1204 16.7006 53.7907 17.8363C53.7676 17.9155 53.6985 18.0755 53.7135 18.1467C53.747 18.3081 54.3648 18.8462 54.5164 19.0145C55.6057 20.2249 56.2119 21.7576 56.3862 23.3749C56.7497 23.3424 57.1154 23.3106 57.4786 23.2687C58.0105 23.2076 58.5546 23.0225 59.0704 23.2212C60.504 23.7733 60.9549 26.2706 60.4383 27.5547C60.409 27.6273 60.2609 27.8312 60.2938 27.8784C61.1899 28.2559 61.515 29.5756 61.2402 30.442C62.1038 31.0657 62.2481 32.9899 61.4207 33.6674C60.9486 34.0543 60.1087 34.0365 59.5244 34.1273C59.5831 34.5334 59.6976 34.9333 59.6644 35.3485L64.7744 33.6077C64.8467 33.0524 65.1457 32.7531 65.6496 32.5558C66.3774 32.2709 67.2142 32.1085 67.951 31.8277C67.995 31.3517 68.2416 31.0517 68.6705 30.8646L75.4442 28.6257C72.8438 20.4491 66.6973 13.5171 58.9436 9.87584C48.1586 4.81078 35.2049 6.17692 25.8255 13.5025C16.6952 20.6335 12.1855 32.1165 14.049 43.633C14.1734 44.4024 14.3487 45.1689 14.5327 45.9249L20.4177 44.358C20.879 44.2917 21.3442 44.5001 21.6061 44.8804L24.0175 44.2232C24.32 44.1921 24.5823 44.2026 24.8533 44.3482C25.0373 44.4471 25.1655 44.6077 25.3282 44.731L29.225 43.758C29.0971 43.2244 28.9327 42.7006 28.8195 42.1621C28.4339 40.3305 28.3962 38.6563 28.7151 36.809C28.9512 35.4407 29.3877 34.1151 29.9608 32.8548C29.9374 32.8153 29.9109 32.8128 29.8717 32.8034C29.16 32.6351 28.3617 32.7563 27.9077 32.0449C27.5476 31.4806 27.6112 30.8768 27.7439 30.2534C27.8797 29.6161 28.1214 29.0797 28.7364 28.7836C28.5213 28.2004 28.6987 27.5012 28.9424 26.9495C29.2847 26.1742 29.8145 25.7094 30.7071 25.7904C31.3919 25.8529 32.1889 26.082 32.8863 26.1941C33.0854 26.2259 33.2851 26.2612 33.4863 26.2751C33.8415 24.2266 33.8558 22.1551 33.8366 20.0786C33.8303 19.3878 33.6801 18.3416 33.8596 17.6962C34.5707 15.1393 40.6875 14.9357 40.956 17.8464H40.9553ZM50.5767 17.7814C50.2882 18.0682 49.7805 17.9973 49.4745 17.7741C48.8725 17.3355 49.2021 15.9013 49.1239 15.228C49.1183 15.1798 49.112 15.1337 49.0862 15.0914L49.0286 15.0443C48.8358 15.0132 47.9334 14.9213 47.8136 15.0355C47.7867 15.061 47.7703 15.1228 47.7647 15.1609C47.655 15.8981 47.815 17.3875 47.1235 17.8352C46.8158 18.0343 46.1876 18.2002 45.8526 18.0102C45.3438 17.7217 44.9719 16.1003 44.7075 15.5255C44.6104 15.3142 44.5839 15.2849 44.3398 15.3317C44.2168 15.3551 43.2603 15.7343 43.2208 15.7937C43.2281 16.1464 43.4056 16.496 43.4936 16.8441C43.6423 17.434 43.8082 18.108 43.7478 18.7184C43.6734 19.4682 42.7734 20.0891 42.2992 20.6202C40.2831 22.8769 39.7156 25.8337 39.952 28.7965C40.8502 29.8302 41.6018 31.0231 41.7589 32.4172C41.9461 32.207 42.0907 31.9489 42.2685 31.7229C43.1199 30.639 44.3446 29.9423 45.0491 28.7413L45.0648 28.6725C44.5762 26.5423 44.9226 24.0244 46.8298 22.7068C48.1523 21.7933 50.0494 21.7419 51.023 23.1713C51.1564 23.3672 51.2333 23.5851 51.345 23.7915L54.918 23.5167C54.7486 22.1327 54.1539 20.8472 53.2256 19.817C52.9417 19.5017 52.3571 19.0687 52.2401 18.6733C52.0344 17.9767 52.6071 16.8553 52.8537 16.197C52.8638 16.1674 52.8589 16.1443 52.8425 16.1185C52.7891 16.0336 52.0334 15.7207 51.8898 15.6732C51.799 15.6432 51.6523 15.5653 51.5668 15.6104C51.4812 15.6554 51.0045 16.9814 50.9099 17.1888C50.8313 17.361 50.707 17.6519 50.5771 17.7811L50.5767 17.7814ZM39.2692 17.5946C39.2186 17.5391 38.9954 17.4392 38.9141 17.4092C38.0749 17.0984 36.8533 17.1371 36.0347 17.4982C35.807 17.5988 35.5049 17.7444 35.4057 17.9833C35.4144 18.0235 35.6868 18.1467 35.7451 18.1691C36.5435 18.4757 37.8318 18.321 38.6253 18.029C38.7342 17.9889 39.2944 17.7542 39.3066 17.6718C39.2986 17.6445 39.2885 17.6156 39.2692 17.5943V17.5946ZM38.4073 27.671C38.3888 26.2049 38.5851 24.7036 39.0611 23.3166C39.1603 23.0274 39.4893 22.404 39.5214 22.1711C39.5609 21.8823 39.4917 21.5771 39.4882 21.303C39.4788 20.5937 39.5144 19.8795 39.491 19.171C39.4854 19.0058 39.3978 18.8162 39.4886 18.6482L39.4201 18.6133C38.2435 19.4441 36.5816 19.4346 35.3013 18.841C35.3872 19.5656 35.3634 20.2944 35.3694 21.0236C35.3823 22.6199 35.3624 24.2437 35.1207 25.8327C35.0229 26.4745 34.885 27.1178 34.7079 27.7405C35.8908 27.262 37.2189 27.1398 38.4073 27.6706V27.671ZM49.7165 23.8666C49.3038 23.3326 48.6088 23.3787 48.0413 23.6232C47.9892 23.6738 48.0455 23.686 48.0933 23.6923C48.6329 23.7604 49.1721 23.8425 49.7165 23.8669V23.8666ZM36.0689 42.1548C36.4094 42.109 36.7593 41.9407 37.0991 41.9114C38.3689 41.801 39.1439 43.1424 38.2687 44.1279C38.0047 44.4254 37.5591 44.5833 37.1952 44.7296C36.2557 45.1078 35.273 45.3868 34.3402 45.7839C33.7524 46.7065 32.9282 47.4685 32.9418 48.6475C33.5547 49.5809 34.1959 50.4952 34.9346 51.3336C35.5118 50.2402 36.1736 49.1922 36.7729 48.1118C37.6247 46.5762 38.3902 44.9873 39.3003 43.4843C39.8008 42.658 40.3847 41.8873 40.9002 41.0701C42.0442 39.2566 43.0036 37.447 44.463 35.8374C45.1248 35.1072 45.8928 34.4737 46.5584 33.7442C47.1654 33.079 47.6798 32.2932 48.4488 31.7952C49.1655 31.3315 50.0036 31.2026 50.7985 30.9337C51.1774 29.5169 52.1032 28.3118 53.5487 27.8903C54.5904 27.5864 55.9654 27.5997 57.0641 27.4963C57.4713 27.4579 57.8795 27.4017 58.2864 27.3574C58.5406 27.3298 58.8944 27.4104 59.0435 27.1374C59.3404 26.594 59.1071 25.1786 58.6869 24.7222C58.5679 24.5929 58.491 24.5916 58.3196 24.5982C57.6927 24.6216 56.9418 24.784 56.2961 24.844C53.4484 25.1087 50.445 25.3892 47.6498 24.6946C47.5185 24.6621 47.1186 24.5018 47.0289 24.5462C46.7554 24.8863 46.5899 25.2945 46.4872 25.7164C46.4341 25.9339 46.3 26.5863 46.3381 26.7731C46.3552 26.8562 46.4397 26.962 46.4708 27.0598C46.7652 27.9825 46.4264 28.9047 45.9127 29.679C45.0718 30.9463 43.8012 31.482 42.9652 32.8045C42.4424 33.6318 42.2094 34.1053 41.5148 34.8443C39.6241 36.8561 37.441 39.1079 35.9844 41.4602C35.8806 41.6275 35.5988 42.0835 35.5457 42.2431C35.5167 42.3301 35.5786 42.2742 35.6065 42.269C35.7046 42.2505 35.8359 42.2232 35.9093 42.1527C36.0636 42.005 36.3486 41.3834 36.5082 41.1459C37.4641 39.7235 38.8771 38.1381 40.0302 36.8495C40.926 35.8483 42.0642 34.8551 42.764 33.7194C43.0892 33.1918 43.3036 32.6826 43.73 32.2073C44.3604 31.505 45.3124 31.1038 45.7381 30.2189C45.802 30.2105 45.7685 30.2922 45.7566 30.3247C45.4468 31.1572 44.3467 31.6625 43.7841 32.3313C43.3486 32.8488 43.0797 33.5183 42.7019 34.0763C42.1225 34.9323 41.2211 35.7246 40.5188 36.5006C39.945 37.1344 39.3782 37.785 38.8271 38.4391C37.836 39.6156 36.8274 40.8131 36.0689 42.1548ZM33.2066 27.7412L30.5171 27.2676C30.2727 27.328 30.0862 28.2161 30.1393 28.4522C30.1448 28.4846 30.1693 28.4899 30.1937 28.5024C30.3037 28.5597 30.8021 28.6397 30.9652 28.6732C31.488 28.7811 32.0237 28.8772 32.5535 28.9281C32.8793 28.5793 33.1685 28.2447 33.2066 27.7412ZM36.4873 28.6135C34.3915 28.75 32.9104 30.5223 31.9437 32.2195C31.5369 32.934 31.189 33.6936 30.9379 34.4765C31.4639 34.1252 31.9605 33.7236 32.3866 33.2553C33.2911 32.2621 33.9913 31.0916 35.0743 30.2538L36.4873 28.6131V28.6135ZM30.5891 35.5937C31.1894 35.0873 31.8467 34.6693 32.3869 34.0934C32.997 33.4428 33.4217 32.6533 33.9916 31.9985C34.4509 31.4708 35.0715 30.9878 35.5632 30.4637C35.7308 30.2849 35.882 30.0502 36.0507 29.8693C36.3636 29.5344 36.7803 29.2023 37.0638 28.8583C37.0918 28.8244 37.2137 28.697 37.1511 28.6652C36.9804 28.6582 36.7398 28.5496 36.5938 28.6676C36.0036 29.5201 35.3819 30.318 34.6377 31.0395C34.4069 31.263 34.139 31.4418 33.9211 31.6842C33.135 32.5593 32.6632 33.4935 31.7216 34.3012C31.4834 34.5055 30.9404 34.8261 30.7735 35.0108C30.6879 35.1055 30.6044 35.4582 30.5887 35.5937H30.5891ZM37.6394 28.7885C37.4857 28.7637 37.4403 28.6596 37.3062 28.7867C36.8487 29.2211 36.3828 30.1336 35.9784 30.6697C35.5066 31.2948 34.959 31.7467 34.4453 32.3124C33.5785 33.2668 32.9555 34.3306 31.9853 35.2277C31.678 35.512 30.4501 36.421 30.3463 36.6951C30.302 36.8114 30.2671 37.0024 30.2569 37.1292C31.1136 36.3574 32.0132 35.6307 32.7707 34.7566C33.2101 34.2499 33.5816 33.6828 34.0101 33.1687C34.6265 32.4291 35.3505 31.7844 35.999 31.0737L36.0336 31.1083C35.815 31.3549 35.61 31.6154 35.3886 31.8595C35.0928 32.186 34.7317 32.5031 34.4453 32.8359C33.7699 33.6202 33.1982 34.5114 32.4917 35.2801C31.9319 35.8888 31.2872 36.4014 30.6931 36.9717C30.404 37.249 30.243 37.3307 30.1749 37.7449C30.1117 38.1286 30.1155 38.5261 30.0652 38.9088C30.1298 38.9242 30.1333 38.8879 30.1644 38.8512C30.5391 38.4122 30.8828 37.9226 31.269 37.4777C32.3436 36.2394 33.4182 35.0276 34.4641 33.762C35.1284 32.9585 35.7151 32.3865 36.2267 31.4411C36.7059 30.5555 36.9668 29.5742 37.6397 28.7885H37.6394ZM38.2662 29.1038C38.1412 29.1104 37.9855 28.8674 37.9016 28.9631C37.7993 29.0801 37.6139 29.4572 37.5395 29.6133C37.2357 30.2496 37.0569 30.815 36.6765 31.4376C35.2499 33.7732 33.2373 35.7906 31.4782 37.8618C31.209 38.1789 30.1539 39.4438 30.1022 39.7665C30.0561 40.0556 30.1955 40.4576 30.17 40.7593C30.36 40.5019 30.5059 40.1992 30.6788 39.9247C32.5675 36.9266 35.3847 34.4144 37.1511 31.284C37.448 30.7577 37.6446 30.1801 37.9355 29.6601C37.9893 29.5641 38.3019 29.1555 38.2662 29.1041V29.1038ZM59.6875 29.1139C59.6442 29.072 59.5712 29.0319 59.5094 29.0305L57.0124 29.3982L57.9633 30.4556L59.9096 30.0621C60.0423 29.951 59.8181 29.24 59.6875 29.1139ZM52.802 29.8134C51.9391 30.7497 51.5923 32.691 52.259 33.8022C52.8296 34.7535 54.0034 34.9993 54.9515 35.403C55.5526 35.6586 56.1393 35.9516 56.6617 36.3473L58.2186 35.8053C58.263 35.7735 58.264 35.7313 58.2707 35.6827C58.4163 34.5802 57.8097 32.6973 57.2628 31.7313C56.7232 30.7783 55.2075 28.9648 53.9971 29.1059C53.5881 29.1534 53.0776 29.5155 52.8027 29.8134H52.802ZM33.6606 36.4664C34.0891 36.0553 34.4746 35.587 34.8459 35.1219C35.7231 34.0225 36.6622 32.7322 37.4092 31.5424C37.7962 30.926 38.0969 30.2953 38.5477 29.7142C38.5652 29.6919 38.8358 29.446 38.6689 29.452C38.4807 29.459 37.6404 31.072 37.4934 31.3126C36.8229 32.4109 35.962 33.5916 35.1752 34.6138C34.7159 35.2106 34.2113 35.7665 33.7294 36.3441C33.6965 36.3833 33.6448 36.4011 33.6602 36.4664H33.6606ZM33.3815 38.0368C33.4151 37.9366 33.5216 37.8238 33.5914 37.741C33.9218 37.352 34.2798 36.9853 34.6017 36.5875C35.9652 34.9026 37.0652 32.992 38.3934 31.3046C38.6986 30.9169 39.0398 30.5534 39.3841 30.2014L38.8442 29.5885C38.3127 30.0233 38.0473 30.7252 37.689 31.2979C36.9234 32.5209 36.0172 33.813 35.1252 34.9473C33.9071 36.4968 32.4714 37.7543 31.328 39.3872C30.9313 39.9533 30.5496 40.5403 30.25 41.1651C30.3205 41.5 30.3488 41.8457 30.4483 42.174C30.4633 42.2232 30.4263 42.2358 30.5182 42.225C31.0123 41.2122 31.6406 40.2631 32.3164 39.3635L32.3331 39.4152C31.7628 40.2208 31.1573 41.0635 30.7095 41.9453C30.6093 42.1426 30.4997 42.2871 30.522 42.518C30.5259 42.5592 30.6037 42.9049 30.6575 42.8351C31.2784 41.5908 31.9832 40.3829 32.8084 39.2626C33.5069 38.3144 34.3465 37.4718 35.0697 36.5327C36.3874 34.8226 37.5468 32.7472 39.0171 31.196C39.111 31.0971 39.5919 30.6819 39.6122 30.6369C39.6625 30.5248 39.512 30.3631 39.4027 30.324C38.1126 31.6269 37.1697 33.22 36.0968 34.6976C35.2538 35.8587 34.3863 37.0101 33.3812 38.0372L33.3815 38.0368ZM31.4611 30.289L29.3996 30.025C29.2407 30.0792 29.1307 30.6624 29.1212 30.8282C29.116 30.919 29.1104 31.0734 29.1457 31.1537C29.1876 31.2494 30.4791 31.3989 30.6683 31.4359L31.4611 30.2887V30.289ZM75.8954 30.0442L75.1596 30.2758C75.2242 30.7731 75.6768 31.7428 75.5308 32.2101C75.47 32.4046 75.2332 32.4291 75.0806 32.3075C74.7695 32.0596 74.5596 30.9005 74.4639 30.4979L73.7455 30.7409C73.6882 30.8227 74.1985 32.3159 74.0986 32.6976C74.0462 32.8974 73.8622 32.9588 73.6834 32.8666C73.3341 32.6868 73.0952 31.3828 73.0331 30.9864L72.3014 31.1974C72.233 31.2756 72.7998 32.7881 72.6171 33.2403C72.5683 33.3611 72.4537 33.4149 72.3259 33.3887C71.8956 33.3 71.67 31.8556 71.5852 31.4746C71.5527 31.424 71.5384 31.4457 71.4968 31.4554C71.318 31.498 71.1085 31.6527 70.9038 31.666C70.8626 31.6908 70.8696 31.7264 70.8713 31.7662C70.8783 31.9384 70.9932 32.2216 71.0334 32.4105C71.099 32.7179 71.2733 33.4058 71.2115 33.6838C71.1567 33.93 70.9227 33.9869 70.7313 33.8294C70.3992 33.5563 70.2385 32.3571 70.1362 31.9286L69.3846 32.1713C69.3316 32.251 69.488 32.9717 69.5191 33.1219C69.7423 34.2094 70.1128 35.3454 70.5909 36.3438L76.7999 34.787C76.6833 33.1743 76.2541 31.6112 75.8961 30.0435L75.8954 30.0442ZM40.1301 32.8488C40.2006 32.7758 40.457 32.6117 40.4587 32.5132C40.4556 32.3313 40.0145 31.0556 39.9258 31.0573C39.5832 31.5113 39.1477 31.8867 38.7733 32.3128C37.4525 33.8158 36.3905 35.5678 35.1602 37.1463C34.417 38.0997 33.5918 38.9863 32.8989 39.9809C32.1561 41.0467 31.5302 42.1876 30.9376 43.3421L32.8137 42.8801C33.4112 41.4983 34.2232 40.224 35.0977 39.0038C36.7104 36.7534 38.2002 34.8397 40.1298 32.8495L40.1301 32.8488ZM50.7635 31.0916C50.0574 31.3203 49.3045 31.4481 48.6587 31.8312C47.8722 32.2981 47.2918 33.1694 46.6807 33.8322C46.0238 34.5446 45.2558 35.1928 44.6024 35.9073C43.1035 37.5462 42.0603 39.5098 40.8998 41.3844C40.5471 41.9543 40.1392 42.4949 39.7886 43.0652C38.7859 44.696 37.9718 46.4355 37.0516 48.1118C36.4289 49.246 35.7273 50.3366 35.1057 51.4716L35.2995 51.7366L35.3865 51.7171C35.9306 50.7882 36.5271 49.8903 37.0516 48.9495C38.1866 46.9129 39.175 44.7914 40.4029 42.8075C41.4994 41.0359 42.5398 39.0677 43.7684 37.4124C44.6991 36.1587 45.6703 35.3566 46.7149 34.2509C47.3428 33.5864 47.8792 32.7874 48.6577 32.2848C49.2828 31.8815 49.9924 31.7128 50.6937 31.4935L50.7625 31.0916H50.7635ZM59.1116 32.7255C59.1553 32.7524 60.0042 32.6424 60.1307 32.6218C60.3304 32.589 60.4956 32.6051 60.5176 32.3529C60.5319 32.1881 60.4928 31.5092 60.2767 31.4911L58.652 31.6496L59.1116 32.7252V32.7255ZM35.8017 52.2643L36.2257 52.6945C37.0013 51.8393 37.8716 51.1283 38.4702 50.1232C39.3597 48.6303 39.8605 46.8528 40.611 45.2838C40.9969 44.4767 41.4764 43.756 41.9035 42.9814C43.0176 40.9605 43.4248 38.7604 44.9701 36.9385C45.523 36.2865 46.0367 36.069 46.6904 35.5874C47.6435 34.8855 48.2966 33.7725 49.4033 33.2742C49.8122 33.0901 50.2579 33.022 50.678 32.8733C50.6665 32.5988 50.657 32.325 50.6563 32.0495C50.6563 31.967 50.7213 31.9091 50.6413 31.8605C50.2222 32.0386 49.7707 32.1319 49.3547 32.3184C48.2623 32.8083 47.618 33.8357 46.82 34.67C46.0786 35.4453 45.2369 36.0599 44.5514 36.9036C43.4206 38.2949 42.6889 39.7766 41.7987 41.3062C41.2424 42.2627 40.5831 43.1556 40.0414 44.1212C39.4034 45.2593 38.8393 46.4526 38.2156 47.6005C37.397 49.1074 36.5578 50.5605 35.5475 51.95C35.5429 51.9759 35.7615 52.2196 35.8014 52.2647L35.8017 52.2643ZM40.523 33.2427L40.5611 33.1649C40.5527 33.1223 40.5108 32.5722 40.4325 32.6271C40.0889 33.1945 39.5238 33.6237 39.0698 34.1095C38.1157 35.1303 37.3778 36.2031 36.5512 37.315C35.2429 39.0747 33.8401 40.8037 32.9977 42.8532L33.399 42.7488C34.1924 40.8532 35.5143 39.2912 36.7258 37.6638C37.1588 37.0824 37.5419 36.4625 37.9897 35.8912C38.7464 34.926 39.6279 34.0735 40.523 33.2427ZM30.1344 39.4326C31.5369 37.3506 33.4364 35.6506 34.9105 33.6154L35.3704 32.9061C34.7788 33.4624 34.3189 34.1524 33.7989 34.7723C33.003 35.7211 32.1459 36.6113 31.3385 37.5476C31.0829 37.844 30.1916 38.8652 30.0907 39.1634C30.0778 39.2021 30.0355 39.5196 30.134 39.4323L30.1344 39.4326ZM50.7286 33.0458C50.3336 33.1037 49.909 33.2172 49.543 33.3786C48.3769 33.893 47.6795 35.0555 46.6559 35.7966C46.4243 35.9642 46.1659 36.0965 45.9358 36.2631C43.7649 37.8339 43.2676 40.8543 42.0086 43.0509C41.5026 43.9334 40.9368 44.7282 40.5066 45.6672C39.7093 47.4084 39.2064 49.5617 37.9715 51.055C37.7714 51.297 36.2955 52.6596 36.3151 52.7777L36.3832 52.8531C36.4345 52.8873 36.4628 52.866 36.5065 52.8367C36.6636 52.7309 36.8836 52.4372 37.0453 52.2933C37.3027 52.0646 37.5968 51.8659 37.8493 51.6312C39.4781 50.1166 39.8189 47.5928 40.7158 45.6327C41.2683 44.4258 42.1043 43.4169 42.6369 42.2135C43.5767 40.0895 44.1005 37.7173 46.1589 36.3466C46.329 36.2334 46.5406 36.144 46.7121 36.0274C47.9533 35.1837 48.5361 33.9007 50.0927 33.4397C50.2013 33.4076 50.6609 33.3332 50.6951 33.3091C50.7555 33.2665 50.7216 33.1177 50.7283 33.0458H50.7286ZM68.1812 33.2553L66.4521 33.8123L66.2304 33.9412C66.3358 34.539 66.4808 35.1484 66.6711 35.7253C66.7141 35.8556 66.9044 36.4723 67.0161 36.494L68.9125 35.9562C68.6408 35.0653 68.3087 34.1842 68.1815 33.2553H68.1812ZM40.9553 34.128C40.8848 34.113 40.8621 34.1434 40.8143 34.1786C40.2642 34.582 39.513 35.455 39.0716 35.996C38.019 37.2863 36.8344 38.8487 35.9009 40.2247C35.5688 40.7143 35.2506 41.2231 35.0222 41.7713C35.267 41.4644 35.4357 41.1036 35.6494 40.7761C36.5952 39.3261 37.7979 37.7934 38.8826 36.4353C39.1543 36.0948 39.4603 35.7026 39.7512 35.3841C40.0809 35.0231 40.5904 34.6655 40.8694 34.3033C40.9092 34.2516 40.9634 34.2003 40.956 34.1284L40.9553 34.128ZM51.4205 34.6927C50.4775 34.882 49.5905 35.2783 48.8435 35.8902C48.2795 36.3522 47.8028 36.8952 47.1794 37.2975C46.0908 37.9998 45.7245 38.0295 45.1381 39.3048C44.6415 40.3846 44.2615 41.5398 43.7433 42.6217C43.1691 43.8195 42.3879 44.8874 41.8333 46.0866C41.0744 47.7273 40.5422 49.8023 39.4491 51.2411C38.8027 52.0918 37.7881 52.6579 36.9933 53.3577C36.9231 53.4656 37.1201 53.4932 37.1843 53.409C37.7567 52.895 38.4224 52.4896 38.9846 51.9636C40.6794 50.3778 41.2316 47.6875 42.2517 45.6672C42.6613 44.856 43.202 44.1115 43.627 43.3079C44.3219 41.9938 44.7721 40.6336 45.3829 39.3048C45.8935 38.1936 46.2822 38.1028 47.2359 37.4931C48.1534 36.9067 48.8421 35.9726 49.8203 35.4701C50.3476 35.1994 50.9462 35.0884 51.4976 34.8788C51.5678 34.832 51.4232 34.7549 51.4208 34.6927H51.4205ZM65.3192 36.1521L65.0231 35.0363L54.1312 38.5247C54.0142 38.5715 53.8375 38.6193 53.8749 38.7796C53.9133 38.9172 54.1546 38.8763 54.2625 38.8652L65.3192 36.1517V36.1521ZM52.7881 36.8498C52.348 36.8222 51.9178 36.9291 51.4969 37.0422C50.4751 37.3167 49.4421 37.6834 48.7387 38.5072C48.5065 38.7792 48.3322 39.133 48.094 39.3984C47.8558 39.6638 47.5621 39.8178 47.3442 40.0797C46.8874 40.6287 46.6374 41.7319 46.3087 42.4296C45.8806 43.3386 45.2691 44.5158 44.74 45.3634C44.1749 46.2682 43.2152 46.8528 42.7179 47.7391C42.596 47.9563 42.5272 48.1963 42.4169 48.4156C41.6873 49.8676 40.6512 51.4744 39.5427 52.6614C39.0436 53.1957 38.4939 53.687 38.0043 54.2318C37.9495 54.338 38.2435 54.457 38.2855 54.5451C39.285 53.3273 40.4849 52.25 41.4429 51.0015C42.1089 50.1334 42.3722 49.4807 42.8454 48.5298C43.3514 47.5128 44.2451 47.04 44.8933 46.1104C45.6207 45.0673 46.4827 43.5167 47.0002 42.3535C47.2775 41.7298 47.4423 40.9427 47.918 40.4443C48.057 40.2987 48.2711 40.1737 48.4087 40.0274C48.7991 39.6125 48.9535 39.1375 49.4616 38.7764C49.8988 38.4656 51.7323 37.6583 52.2464 37.617C52.3973 37.6048 52.6927 37.601 52.838 37.6212C52.9414 37.6359 53.0681 37.7302 53.1474 37.7176C53.2019 37.7089 53.4869 37.5109 53.5927 37.4623C54.1473 37.2078 54.7829 37.0981 55.3361 36.833C55.1318 36.7241 54.9187 36.6137 54.7074 36.5202C53.8707 36.15 53.1446 35.9893 52.3379 35.5039C52.209 35.4264 51.959 35.2015 51.8332 35.2109C51.3293 35.4114 50.7663 35.5113 50.2662 35.7072C48.9846 36.2093 48.2676 37.2888 47.1661 38.0172C46.3999 38.524 46.2085 38.533 45.7775 39.4211C45.1643 40.6849 44.6858 42.0326 44.0457 43.3086C43.6057 44.1855 43.0535 44.9677 42.6132 45.8198C41.6793 47.6263 41.1265 49.525 39.9223 51.2264C39.2074 52.2371 38.1775 52.7843 37.228 53.5393V53.6332C37.3516 53.6507 37.5053 53.9538 37.6048 53.9025C37.7277 53.8393 38.1852 53.3088 38.3375 53.167C38.6483 52.8779 39.0105 52.6135 39.3157 52.3303C40.2771 51.4381 41.0685 50.1379 41.6947 48.9851C42.1574 48.1341 42.4724 47.1853 42.9393 46.3555C43.2557 45.7929 43.7042 45.3075 44.0108 44.7393C44.5371 43.7636 45.0955 42.5351 45.5694 41.5164C45.8341 40.9475 46.0059 40.3217 46.2665 39.7703C46.6423 38.9741 47.1843 38.8693 47.7629 38.335C48.3933 37.7529 48.6329 37.2594 49.4714 36.8324C50.0068 36.5596 52.2831 35.7697 52.7978 35.8483C52.8286 35.8528 52.9029 35.8633 52.8935 35.9087C52.4168 35.9261 51.9286 36.0784 51.4707 36.2139C50.5348 36.4905 49.3994 36.8704 48.6695 37.5315C48.3559 37.8157 48.1076 38.1947 47.7979 38.4747C47.5377 38.7101 47.2091 38.8603 46.9433 39.0862C46.2728 39.6554 46.1205 40.5672 45.7789 41.3425C45.3085 42.4108 44.6967 43.6753 44.1564 44.7111C43.7129 45.5618 43.0619 46.2445 42.6362 47.135C41.7802 48.9261 41.0046 50.873 39.5207 52.2552C39.2081 52.5461 38.8613 52.8073 38.5467 53.0975C38.239 53.3815 37.9505 53.6891 37.6404 53.9706L37.9369 54.2304C38.4569 53.6144 39.0663 53.0776 39.6122 52.4878C40.1773 51.877 40.9354 50.9065 41.2518 50.1484C41.3 50.0328 41.299 50.227 41.3398 50.1666C41.6769 49.6752 41.9814 49.1982 42.2423 48.6604C42.3879 48.36 42.4892 48.0339 42.6481 47.7398C43.1401 46.828 44.0876 46.2483 44.6565 45.3505C45.1877 44.512 45.8362 43.2828 46.2563 42.3783C46.5888 41.6627 46.7991 40.5952 47.2904 40.027C47.5359 39.7431 47.8806 39.5514 48.1289 39.2601C48.5728 38.7391 48.745 38.2924 49.3565 37.8702C49.9886 37.4334 51.8451 36.7318 52.5921 36.7863C52.6285 36.789 52.7853 36.8027 52.7881 36.8512V36.8498ZM40.362 58.0002V60.7049C40.362 60.8945 40.1874 61.3391 40.0885 61.5137C39.0073 63.4208 34.9189 63.4159 33.6815 61.696C33.2146 61.0471 33.2652 60.4933 33.275 59.7264C33.3061 57.2658 33.5031 53.9413 32.8755 51.5781C32.71 50.9547 32.1295 50.3031 31.7747 49.7468C31.2655 48.9481 30.7979 48.1187 30.4113 47.253L26.4423 48.6544C26.3672 49.1172 26.1018 49.4653 25.6761 49.6508C25.0031 49.9437 24.1359 50.1851 23.4252 50.4372C23.3729 50.4557 23.3173 50.4543 23.2646 50.4676C23.1755 50.888 22.9227 51.2435 22.5337 51.4297L17.2899 53.2893C21.7653 61.777 29.9887 67.8307 39.4474 69.5775C54.0174 72.2686 68.2 64.8229 74.2613 51.4276C75.8493 47.9179 76.7042 44.0985 76.9773 40.2526C77.0199 38.9329 77.0496 37.6073 76.9249 36.2911C75.8654 36.5676 74.8079 36.8585 73.7462 37.1264C72.8592 37.3502 71.4584 37.8158 70.6035 37.8926C70.1875 37.9299 69.6951 37.7312 69.4667 37.3796L69.422 37.3701C68.6883 37.5262 67.9381 37.8161 67.2047 37.9495C66.6432 38.0515 66.1741 37.9876 65.8371 37.4829L60.1184 38.8044C60.3172 39.2556 60.5592 39.6879 60.753 40.1419C62.7957 44.9283 62.9993 50.8 61.7214 55.8162C61.1634 58.0065 60.0999 60.7933 58.1261 62.0634C54.9215 64.1252 49.9275 62.5516 46.6814 61.2277C44.4861 60.3323 42.3865 59.2281 40.3623 58.0006L40.362 58.0002ZM38.7566 54.4403C38.7496 54.4501 38.7534 54.485 38.7377 54.5084C38.7 54.5639 38.54 54.6736 38.5498 54.7322L39.0017 55.0532C39.5479 54.4075 40.1112 53.7635 40.6938 53.1485C41.5194 52.2769 42.4305 51.6053 42.9519 50.4854C43.3071 49.7227 43.43 48.8228 44.0401 48.2053C44.2521 47.9909 44.5584 47.8111 44.778 47.5994C45.0969 47.2925 45.4196 46.8556 45.6393 46.4715C46.3073 45.303 46.9185 44.2316 47.4773 43.0041C47.9009 42.0731 48.4359 41.5115 49.0327 40.7202C49.3041 40.3605 49.4871 39.938 49.8402 39.6429C50.1754 39.3624 51.6838 38.6773 52.1172 38.6039C52.3089 38.5715 52.4926 38.5662 52.6836 38.5945L52.824 38.0714H52.2132C51.88 38.0714 50.2813 38.7827 49.9034 38.9727C49.2982 39.2769 49.0551 39.8681 48.6186 40.3406C48.4918 40.4775 48.3315 40.583 48.2152 40.7048C47.7011 41.2437 47.5111 42.0689 47.2108 42.7369C46.7124 43.844 45.9047 45.2199 45.2296 46.2354C44.7854 46.9035 44.4222 47.1451 43.8704 47.6686C43.0507 48.4463 42.9928 49.2128 42.4759 50.1484C41.8613 51.2603 41.1055 51.8645 40.2757 52.7647C39.7648 53.3189 39.3279 53.942 38.758 54.4406C39.8598 52.9243 41.549 51.7139 42.4291 50.0667C42.6764 49.6036 42.8108 49.1329 43.0214 48.6695C43.46 47.7046 44.3995 47.2698 45.0138 46.4037C45.5366 45.6665 46.1603 44.5368 46.5951 43.7266C47.0299 42.9164 47.2614 42.1768 47.6288 41.4099C47.9232 40.7953 48.1237 40.7244 48.5494 40.2711C48.7995 40.0047 48.9741 39.6708 49.2119 39.3977C49.6481 38.8962 50.6693 38.5051 51.3007 38.2404C51.8008 38.0309 52.3232 37.8933 52.8705 37.9966L53.0692 37.7581C52.4755 37.6628 51.9555 37.7361 51.4051 37.961C50.8449 38.1898 49.623 38.7003 49.2287 39.1005C48.9524 39.3813 48.7764 39.7801 48.5148 40.0619C48.0619 40.5505 47.8338 40.584 47.5244 41.2702C47.1993 41.991 46.9705 42.6943 46.5951 43.4123C46.0503 44.4551 45.1853 46.0713 44.396 46.9021C43.9112 47.4123 43.4478 47.6784 43.0965 48.3251C42.8838 48.7166 42.7389 49.1465 42.5339 49.5428C42.111 50.36 41.4771 51.21 40.8705 51.8931C40.1406 52.7148 39.3304 53.4803 38.6197 54.3191C38.5774 54.369 38.3155 54.654 38.4622 54.6844C38.4992 54.6921 38.707 54.485 38.7583 54.4403H38.7566ZM52.6487 38.665C52.5593 38.6678 52.4835 38.6308 52.392 38.6322C51.8881 38.6417 50.247 39.3904 49.8555 39.7288C49.5245 40.0151 49.3973 40.3354 49.1515 40.665C48.5878 41.4204 47.8956 42.1373 47.6225 43.0621L47.7553 42.7942C47.9882 42.3245 48.4436 42.0305 48.7729 41.6481C49.2063 41.1448 49.4888 40.4475 50.0137 40.027C50.3522 39.7557 50.7014 39.6872 51.0772 39.5196C51.5853 39.2929 52.0945 38.9186 52.6833 39.0488C52.7357 38.7517 52.553 38.7866 52.3173 38.8051C51.9583 38.8334 50.2882 39.5894 49.9841 39.8227C49.5632 40.1454 49.2549 40.7548 48.9419 41.1888C48.7202 41.4965 48.4886 41.8045 48.2327 42.0853C48.1778 42.0542 48.2445 42.0064 48.2637 41.9767C48.4998 41.6149 48.7942 41.2625 49.0467 40.9098C49.2971 40.5599 49.5011 40.129 49.8206 39.8339C50.1842 39.4986 51.784 38.7988 52.2824 38.7356C52.3833 38.7227 52.4978 38.7478 52.5967 38.7352C52.6445 38.729 52.7046 38.7108 52.6487 38.6657V38.665ZM58.8961 58.8729C58.9017 58.7182 59.0571 58.5866 59.0903 58.4545C59.1312 58.2925 58.8958 57.2669 58.8378 57.0294C58.2993 54.823 56.6184 53.2299 56.2538 50.9575C55.9385 48.9911 56.8144 47.5254 56.6988 45.6613C56.638 44.6803 56.1033 42.9981 55.6085 42.1447C55.3539 41.7057 55.0224 41.3041 54.7486 40.8756C54.6547 40.7286 54.3792 40.1573 54.274 40.0937C54.1689 40.0301 53.9171 40.0693 53.7638 40.0455C53.3762 39.9854 53.028 39.7029 52.8219 39.3816C52.6564 39.1239 52.7685 39.0848 52.356 39.1229C51.8996 39.1651 51.6555 39.383 51.2762 39.5437C50.9479 39.683 50.5956 39.7672 50.2865 39.9502C49.6753 40.312 49.4438 40.9175 49.0331 41.4539C48.672 41.9253 48.1921 42.3043 47.8869 42.8207C47.617 43.2775 47.501 43.8027 47.2443 44.2724C46.9419 44.8263 46.4833 45.2855 46.1848 45.8303C45.9204 46.3122 45.7524 46.8078 45.4311 47.2757C44.902 48.0461 44.1889 48.3803 43.7768 49.2862C43.2282 50.492 43.1908 51.0529 42.23 52.1023C41.2595 53.1625 40.1249 54.1082 39.2825 55.2903L39.733 55.6266C39.7893 55.4806 39.9241 55.3256 40.0299 55.2072C41.2092 53.8934 43.1611 52.3638 43.8344 50.7396C44.0736 50.1627 44.1582 49.5659 44.4749 49.0064C44.7861 48.4568 45.2851 48.0056 45.6124 47.4566C45.9092 46.959 46.0782 46.3709 46.3723 45.8782C46.7145 45.3051 47.2653 44.9035 47.6054 44.3189C47.8799 43.8464 48.0406 43.2709 48.4073 42.8518C48.6671 42.5553 49.0492 42.3751 49.3331 42.1024C49.814 41.64 49.9942 41.1459 50.6357 40.7872C53.9632 38.9273 55.6835 42.329 56.2276 45.0847C56.6059 47.0005 55.6486 48.6646 55.8253 50.5825C56.0705 53.2432 57.9417 54.9337 58.5305 57.3709C58.6367 57.8102 58.6782 58.4308 58.8231 58.8233C58.841 58.8712 58.8106 58.883 58.8961 58.8719V58.8729ZM58.5406 39.1609L57.1157 39.4508C57.472 40.0047 57.9567 40.4464 58.2396 41.0495C58.7519 42.1415 59.4385 44.2319 59.4895 45.4186C59.5548 46.9345 59.0428 48.058 58.8665 49.4716C58.6545 51.1709 59.5778 52.5185 60.5365 53.8117L60.7397 52.6146C60.387 52.1037 59.9365 51.6273 59.7511 51.02C59.4029 49.8781 59.9187 48.5134 60.1069 47.3616C60.3685 45.7633 60.3741 44.2403 59.9756 42.6636C59.6669 41.4424 59.157 40.2529 58.5403 39.1606L58.5406 39.1609ZM57.0745 39.4752C57.0138 39.4396 56.7368 39.4983 56.7333 39.5549C57.144 40.1831 57.6867 40.6647 57.9951 41.3638C58.4998 42.5075 59.1664 44.5337 59.1773 45.7657C59.1954 47.8977 57.9818 49.5013 58.8797 51.6476C59.2653 52.5695 59.8897 53.4558 60.467 54.2657L60.4949 53.8718C60.0591 53.2456 59.6047 52.6121 59.2625 51.928C58.14 49.6836 59.3065 48.3621 59.42 46.1509C59.4996 44.5983 58.9401 43.0572 58.3999 41.6222C58.081 40.775 57.7094 40.4097 57.2072 39.7089C57.1758 39.6649 57.0903 39.4843 57.0749 39.4752H57.0745ZM55.511 39.8866C55.8554 40.4457 56.258 40.9751 56.6076 41.53C57.3756 42.7492 57.9679 44.9583 57.8844 46.3953C57.8118 47.6473 57.2485 48.9467 57.3267 50.1997C57.4622 52.3691 58.9803 53.8215 59.7518 55.6975C59.8216 55.8672 59.8412 56.1022 59.9788 56.2203C59.9735 55.9004 60.2973 55.3144 60.2445 55.0326C60.2194 54.8992 59.9323 54.4277 59.8457 54.2772C59.2691 53.2777 58.6562 52.4944 58.2944 51.3609C57.6225 49.2561 58.7547 47.6246 58.6541 45.5216C58.5982 44.3507 58.037 42.746 57.5418 41.6778C57.2719 41.0953 56.8978 40.627 56.5238 40.1129C56.514 40.0137 56.5668 40.0839 56.5926 40.1143C56.719 40.2631 56.8873 40.5107 57.0064 40.6779C57.9665 42.0263 58.805 44.5654 58.724 46.2228C58.6391 47.9602 57.788 49.3854 58.2864 51.1597C58.6862 52.5842 59.6449 53.6504 60.2588 54.9638C60.3056 54.9742 60.2983 54.9274 60.3098 54.8939C60.4387 54.5251 60.423 54.5178 60.2379 54.199C59.7126 53.2952 59.1141 52.6401 58.7055 51.613C57.8219 49.3916 59.1158 47.6941 59.003 45.4521C58.9485 44.3671 58.2986 42.4212 57.8446 41.4099C57.5282 40.7048 56.9572 40.2599 56.623 39.5779L55.511 39.7825C55.5114 39.8168 55.5075 39.8527 55.511 39.887C55.4551 39.7794 55.3518 39.8189 55.2474 39.8513C55.2093 39.8632 55.1845 39.8279 55.1985 39.9027C55.3815 40.2208 55.5452 40.5505 55.7408 40.8613C56.2091 41.6055 56.5538 42.005 56.873 42.8703C57.5334 44.6601 57.6923 45.8911 57.3152 47.781C56.9935 49.3944 56.7826 50.2842 57.3602 51.9109C57.8774 53.3675 58.9618 54.5244 59.4294 55.9496C59.5244 56.2391 59.5684 56.6019 59.6665 56.8642C59.6805 56.9012 59.6809 56.948 59.7339 56.9533C59.7291 56.7807 59.9044 56.5283 59.9044 56.3774C59.9044 56.2056 59.5373 55.3737 59.4388 55.1719C58.6688 53.5917 57.6476 52.5692 57.3358 50.7131C57.0581 49.0606 57.7793 47.7496 57.8146 46.1537C57.8442 44.8054 57.2767 42.7519 56.5727 41.5992C56.3544 41.2423 55.5463 40.2281 55.5107 39.8863L55.511 39.8866ZM55.1227 39.8908L54.6037 40.0088C54.8052 40.2512 54.9149 40.5596 55.0776 40.8264C55.32 41.2238 55.628 41.5957 55.8606 41.998C56.4127 42.9531 56.9523 44.6318 57.0138 45.7311C57.1028 47.3285 56.3583 48.7334 56.4539 50.3394C56.6034 52.8496 58.5284 54.4623 59.09 56.743C59.1832 57.1219 59.209 57.5235 59.333 57.8958C59.4015 57.7376 59.6145 57.3297 59.6295 57.1775C59.6452 57.0144 59.4766 56.4284 59.4214 56.2377C58.8451 54.2559 57.2865 52.9373 56.9471 50.719C56.6911 49.0459 57.3686 47.788 57.4325 46.1879C57.4838 44.9094 56.902 42.8277 56.2238 41.7396C56.0258 41.4218 55.7827 41.134 55.5879 40.8051C55.415 40.5131 55.2645 40.1992 55.123 39.8912L55.1227 39.8908ZM59.2104 58.2094C59.2146 58.143 59.2719 58.0921 59.2712 58.0243C59.2681 57.7463 59.0355 56.8792 58.9489 56.5695C58.3936 54.5849 56.8646 53.1957 56.4644 51.0612C56.1763 49.5243 56.5406 48.7002 56.7913 47.2572C57.0693 45.6561 56.7368 44.0881 56.0754 42.6203C55.7743 41.9519 55.3553 41.4644 54.9729 40.8609C54.8967 40.7408 54.5562 40.0853 54.5189 40.0584C54.4672 40.0214 54.419 40.0214 54.3592 40.0263L55.7384 42.1544C56.492 43.6941 56.975 45.354 56.7225 47.0837C56.5042 48.5762 56.1016 49.5561 56.3946 51.1314C56.7938 53.2767 58.3541 54.7399 58.8797 56.7437C58.996 57.1869 59.0337 57.6817 59.1518 58.1123C59.1615 58.1483 59.1602 58.2181 59.2104 58.2098V58.2094ZM58.6517 59.2916C58.6929 59.1586 58.8312 59.0915 58.7903 58.9295C58.5368 57.8315 58.3789 56.8129 57.8802 55.7886C56.9415 53.8609 55.8044 52.5112 55.7188 50.2015C55.6535 48.433 56.5123 46.9496 56.1578 45.1556C55.7502 43.0949 54.4239 39.6292 51.7142 40.4359C51.3719 40.5379 50.8041 40.7523 50.5079 40.9402C50.004 41.2597 49.7431 41.8014 49.316 42.1915C49.1242 42.3664 48.877 42.5071 48.6877 42.68C48.0996 43.2171 47.9397 44.0203 47.4909 44.659C47.1836 45.0963 46.7575 45.4483 46.4774 45.9141C46.1673 46.4303 45.9969 47.0459 45.6826 47.5624C45.3651 48.0835 44.8818 48.5193 44.5797 49.0424C44.2385 49.634 44.1389 50.3192 43.8589 50.939C43.1709 52.4616 41.3608 53.8854 40.2213 55.1206C40.0655 55.2892 39.9296 55.4782 39.7697 55.6447L40.0665 55.8721C40.142 55.8728 40.3449 55.5616 40.4144 55.4872C41.6021 54.2129 43.5442 52.654 44.1837 51.0543C44.4166 50.4718 44.5231 49.7821 44.8018 49.2293C45.0885 48.6607 45.6518 48.1865 45.9756 47.6106C46.2742 47.0795 46.4006 46.4928 46.7355 45.9623C47.0704 45.4318 47.5964 45.0802 47.9166 44.526C48.1583 44.108 48.2774 43.582 48.5822 43.2021C48.8641 42.8508 49.2636 42.7041 49.594 42.4338C49.9778 42.1199 50.2397 41.6872 50.6937 41.4392C51.7973 40.8368 53.0891 40.7101 54.0966 41.5632C55.2851 42.5697 56.0694 45.2286 55.9647 46.7446C55.9217 47.3672 55.6874 48.0196 55.5913 48.6398C55.2879 50.5996 55.7146 52.2594 56.5524 54.0107C57.1161 55.189 57.8743 56.2028 58.2036 57.4904C58.3538 58.0777 58.4299 58.6847 58.5836 59.2717L58.6524 59.292L58.6517 59.2916ZM58.234 59.8151C58.3189 59.7666 58.4467 59.6188 58.4428 59.5225C58.1987 58.7409 58.1114 57.9216 57.8512 57.1439C57.459 55.9723 56.6467 54.8443 56.1334 53.6961C55.3853 52.0226 55.1157 50.3939 55.3773 48.5654C55.5826 47.1315 55.8917 46.3685 55.5012 44.87C54.9292 42.6758 53.8459 40.4478 51.1742 41.4661C50.392 41.7644 50.3783 42.0113 49.822 42.4872C49.4934 42.7687 49.0485 42.9458 48.7607 43.2758C48.386 43.7057 48.2749 44.3109 47.9651 44.7837C47.7008 45.1874 47.3187 45.4479 47.0355 45.8083C46.5972 46.366 46.4547 47.0721 46.1149 47.6801C45.7126 48.4006 45.0955 48.8867 44.7948 49.6759C44.6013 50.1837 44.5053 50.7281 44.2888 51.2292C43.6312 52.7508 41.9514 54.0366 40.8331 55.2428C40.7465 55.336 40.2108 55.929 40.2254 55.9901L40.4909 56.1811C40.838 55.893 41.1338 55.5103 41.4565 55.1855C42.5087 54.1274 44.0625 52.8115 44.6125 51.4133C44.8224 50.8793 44.895 50.3111 45.0651 49.7719C45.3054 49.0103 45.8313 48.6111 46.2193 47.9595C46.593 47.3319 46.7351 46.6178 47.1745 46.0178C47.4678 45.6173 47.8977 45.3323 48.1607 44.9098C48.4411 44.4593 48.5917 43.8516 48.9311 43.4462C49.1606 43.1721 49.4655 43.0572 49.7424 42.8613C50.4363 42.3706 50.5268 41.9655 51.4624 41.6844C53.7963 40.9835 54.632 42.8665 55.1796 44.7383C55.6126 46.2183 55.3748 46.9146 55.1677 48.3559C54.8939 50.2633 55.1052 51.9322 55.8543 53.6964C56.4117 55.0095 57.3092 56.2405 57.7077 57.6021C57.9204 58.3285 58.0342 59.0859 58.2343 59.8155L58.234 59.8151ZM26.1559 47.1807L37.1599 43.4731C37.8329 43.1885 37.2779 42.9838 36.8494 43.1626L25.8412 46.0992C25.9429 46.4586 26.1339 46.8008 26.1556 47.1807H26.1559ZM57.605 60.4433C57.3951 59.1781 57.0455 57.9618 56.5294 56.7902C55.6986 54.9047 54.8307 53.3441 54.5384 51.2421C54.2796 49.3822 54.5059 47.4849 54.0977 45.6449C53.6964 43.8352 52.6739 42.4813 50.6934 43.5332C49.6181 44.1041 49.3457 44.797 48.6832 45.7116C48.2449 46.3171 47.8031 46.7501 47.4298 47.4248C47.0564 48.0995 46.7278 48.6782 46.3164 49.348C45.8167 50.1617 45.7549 50.6656 45.4597 51.5278C44.8053 53.4387 42.7591 54.7493 41.709 56.5028C41.6758 56.5583 41.5092 56.8045 41.549 56.8485C41.6147 56.8621 41.6332 56.8157 41.6681 56.7759C41.8159 56.6075 41.9782 56.2852 42.1277 56.0837C43.0902 54.7867 44.7281 53.4544 45.3696 52.031C45.6497 51.4098 45.7636 50.7281 46.0248 50.1033C46.2668 49.5247 46.6967 49.0424 46.9999 48.4955C47.2408 48.0608 47.4102 47.611 47.6774 47.1839C47.9962 46.674 48.4167 46.2473 48.7673 45.7608C49.4284 44.8452 49.7281 44.1272 50.8257 43.596C53.7739 42.1698 54.2105 46.0926 54.2901 48.0346C54.353 49.5655 54.3306 50.8692 54.683 52.3883C55.2156 54.6854 56.5709 56.6302 57.1831 58.8928C57.3089 59.3576 57.377 59.944 57.5188 60.3739C57.5387 60.4343 57.5205 60.4573 57.6047 60.443L57.605 60.4433ZM46.366 45.3662C46.8459 44.7882 47.2831 44.1471 47.4822 43.412L47.1396 44.1331C47.0135 44.3241 46.9084 44.5284 46.7854 44.7212C46.6489 44.9353 46.4565 45.1329 46.3664 45.3662H46.366ZM56.6628 61.0017L56.9981 60.8118C56.8517 58.4479 55.5204 56.4644 54.7169 54.3093C54.2024 52.9303 53.8651 51.4999 53.7659 50.0248C53.6611 48.4662 53.9451 42.6081 50.788 44.4303C50.1594 44.7931 49.7385 45.3861 49.2992 45.9431C48.3081 47.1999 47.6899 48.3503 46.8961 49.7178C46.439 50.5053 46.41 51.099 46.1132 51.9018C45.5244 53.4943 44.0509 54.5964 43.0158 55.8899C42.6928 56.2936 42.3882 56.7221 42.1424 57.1782L42.7012 57.4624C43.4384 55.8008 44.8343 54.5618 45.8149 53.07C46.4376 52.1222 46.6175 51.2324 47.0687 50.2399C47.7643 48.7093 48.7645 47.0358 49.8073 45.7189C50.8715 44.3755 52.4769 43.537 53.1544 45.7503C53.672 47.4406 53.3968 49.4287 53.6314 51.2065C53.9751 53.8106 54.9788 55.518 55.9116 57.8616C56.3139 58.8722 56.6031 59.9087 56.6628 61.0021V61.0017ZM50.4967 45.5527C51.124 44.9419 51.9775 44.5068 52.5722 45.4252C53.4023 46.7072 53.0629 49.5893 53.1729 51.1419C53.2728 52.5552 53.6521 53.9371 54.1581 55.2526C54.9013 57.1851 56.0569 59.0042 56.0747 61.154C56.0991 61.2382 56.2961 61.1617 56.359 61.1341C56.4505 61.0943 56.5231 61.0698 56.5217 60.9546C56.4955 58.6791 54.7256 55.9259 54.0355 53.6992C53.3395 51.4531 53.4802 49.7531 53.3465 47.4779C53.2641 46.0744 52.72 43.6592 50.8292 44.8902C50.0986 45.3662 49.2259 46.6841 48.7314 47.4346C47.8254 48.8098 47.2443 50.2444 46.6272 51.7524C45.8984 53.533 44.5556 54.7298 43.51 56.2789C43.4038 56.4364 42.7452 57.49 42.8077 57.5787L43.3637 57.826C43.5442 57.1782 43.8927 56.5426 44.243 55.9653C44.9998 54.7183 45.9829 53.6172 46.6856 52.3348C47.8199 50.2647 48.8166 47.1888 50.4964 45.5527H50.4967ZM55.9979 61.2445C55.9741 58.9389 54.7008 56.9966 53.9489 54.9027C53.3866 53.3364 53.0887 51.7988 53.0311 50.1313C52.9906 48.9607 53.284 45.8097 52.1371 45.127C51.1592 44.5452 49.9711 46.2522 49.5276 46.9394C48.3996 48.6873 47.7057 50.675 46.6859 52.4742C45.9319 53.8044 44.8835 54.9809 44.1309 56.3062C44.0076 56.523 43.393 57.7062 43.4387 57.8703C43.4586 57.9426 43.8795 58.1486 43.9696 58.1804C44.0052 58.193 44.0048 58.2307 44.045 58.1745C44.7085 56.0268 46.205 54.2776 47.2793 52.3342C48.2924 50.5015 49.0177 48.3035 50.2963 46.6604C50.7227 46.1125 51.5158 45.2426 52.1402 46.1006C52.8488 47.0742 52.5645 49.5449 52.6124 50.7588C52.6791 52.4536 53.1066 54.0589 53.7041 55.6353C54.4012 57.4746 55.4838 59.2661 55.481 61.2926L55.5477 61.3359L55.9979 61.2434V61.2445ZM60.6423 45.436C60.6304 46.2857 60.5442 47.1228 60.3874 47.956C60.2124 48.8856 59.8247 49.897 60.0657 50.8458C60.1824 51.3054 60.5138 51.7331 60.7991 52.1012C60.8756 52.0415 60.8655 51.898 60.8431 51.8135C60.8082 51.6818 60.5016 51.298 60.416 51.0892C59.8045 49.5984 61.0593 47.5425 60.7464 45.9424L60.6426 45.436H60.6423ZM22.2113 46.204C22.5351 47.1161 22.8368 48.0335 23.0481 48.9806L24.9538 48.2979C25.0604 48.1271 24.3759 45.8254 24.1656 45.6955L22.211 46.204H22.2113ZM40.6627 53.6245C41.5473 52.6799 42.6606 51.7384 43.1953 50.5549C43.4359 50.022 43.57 49.3794 43.8592 48.8804C44.2123 48.2713 44.8367 47.9001 45.2631 47.3526C45.6445 46.8629 45.8945 46.2742 46.1558 45.7151C45.8512 46.1397 45.6847 46.6527 45.3679 47.0732C44.7784 47.8561 43.9427 48.2109 43.5466 49.1612C43.3839 49.5519 43.3252 49.9378 43.1496 50.3345C42.6163 51.5379 41.899 52.038 41.0423 52.939C40.4081 53.6064 39.8151 54.3184 39.1812 54.9872L39.0723 55.1562L39.241 55.24C39.6366 54.6383 40.1734 54.1469 40.6627 53.6245ZM20.5308 45.86L19.6982 46.0297C19.8645 46.4425 20.0534 46.8542 20.1694 47.2862C20.235 47.531 20.3562 47.8694 20.2175 48.102C20.1166 48.2713 19.9462 48.2343 19.8044 48.1393C19.4622 47.9103 19.1444 46.6468 18.9645 46.2385L18.1773 46.4823C18.3373 46.9852 18.734 47.6536 18.7459 48.1854C18.7525 48.4931 18.5849 48.7711 18.2685 48.5581C17.9374 48.3353 17.5173 46.6845 17.409 46.6604L16.6613 46.8675C16.8282 47.3756 17.1845 48.0325 17.2155 48.5647C17.2466 49.0969 16.8803 49.2142 16.597 48.7983C16.4165 48.5333 16.004 47.1776 15.9297 47.127C15.8099 47.0456 15.0726 47.3651 14.8809 47.356C15.3807 48.9076 15.9318 50.4379 16.5918 51.9277L21.7545 50.0555C21.8097 49.9734 21.7318 49.5687 21.7116 49.443C21.5121 48.2179 21.0456 46.981 20.5308 45.8596V45.86ZM32.8224 48.4023C32.828 47.7681 33.07 47.2893 33.422 46.7854C33.5935 46.5399 33.8673 46.271 34.0105 46.0126C34.0339 45.9703 34.0569 45.9442 34.0444 45.8897C33.9159 45.9616 33.7203 45.9686 33.6075 46.0632C33.5366 46.1226 33.2837 46.4753 33.2128 46.5759C32.9799 46.9063 32.806 47.2024 32.7005 47.5991C32.6139 47.9246 32.5559 48.0608 32.7449 48.3573C32.7669 48.3918 32.7417 48.4194 32.8231 48.402L32.8224 48.4023ZM52.4039 47.2855C52.3452 46.6932 52.0994 45.773 51.3223 45.9246C51.2081 46.0116 51.5776 45.9951 51.6111 46.0021C51.9167 46.0653 52.1531 46.4526 52.2457 46.7285L52.4039 47.2852V47.2855ZM54.8478 61.4208C54.8761 59.2581 53.6835 57.3318 52.9819 55.3462C52.5593 54.1508 52.2408 52.8667 52.1605 51.5956C52.0711 50.1795 52.3428 48.5189 51.997 47.1521C51.6649 45.8404 50.8725 46.6171 50.3658 47.2886C49.1889 48.8483 48.4237 51.173 47.4193 52.9282C46.3863 54.734 45.005 56.3673 44.4086 58.3976L44.9698 58.6634C45.1894 56.8817 46.3129 55.4548 47.1968 53.9622C47.6054 53.2722 48.0259 52.551 48.386 51.8358C48.944 50.7267 49.3911 49.4894 49.99 48.4138C50.2261 47.9902 51.2685 46.2466 51.7128 47.3662C52.0096 48.1142 51.8832 49.0707 51.879 49.8491C51.8703 51.4496 51.9237 52.9271 52.3519 54.4752C52.9979 56.8108 54.4507 58.9431 54.4633 61.4208H54.8475H54.8478ZM32.3688 46.5179L31.8826 46.7299C31.8355 46.7955 32.0562 47.0826 32.0551 47.1804L32.3688 46.5176V46.5179ZM54.2891 61.4208C54.3516 59.3643 53.2358 57.5344 52.5782 55.6454C52.0983 54.2678 51.8235 52.8887 51.7746 51.423C51.7407 50.4089 51.8776 49.3574 51.8105 48.3506C51.7348 47.216 51.3768 46.6286 50.5254 47.7629C49.6495 48.9293 49.0066 50.9202 48.3035 52.2776C48.0196 52.8259 47.6858 53.3947 47.3711 53.928C46.4729 55.4509 45.3298 56.8984 45.0777 58.7102L45.772 59.0475C45.7908 59.0255 45.7982 58.5506 45.8072 58.472C46.0454 56.4364 47.3735 54.8056 48.3032 53.0452C48.8494 52.0108 49.2807 50.9345 49.7801 49.8798C50.0015 49.4119 51.1474 46.7945 51.4522 48.6041C51.6083 49.5313 51.3985 50.6995 51.4253 51.6675C51.4634 53.0308 51.7086 54.4026 52.1504 55.6891C52.7919 57.5567 53.9175 59.3712 53.7656 61.4208H54.2891ZM53.6559 61.381C53.8148 60.3019 53.423 59.2047 53.0587 58.2014C52.5492 56.7968 51.9048 55.4687 51.6181 53.9877C51.3227 52.4623 51.4173 51.0389 51.4285 49.5037C51.4351 48.5888 51.3059 47.2583 50.4436 48.7281C49.6477 50.0848 49.083 51.723 48.3336 53.145C47.4759 54.7727 46.1125 56.5178 45.9124 58.3672C45.8872 58.5984 45.8848 58.86 45.8757 59.094L46.4006 59.3266C46.2382 58.2698 46.4753 57.1467 46.9401 56.1843C47.5059 55.0127 48.2711 53.8773 48.8623 52.6963C49.3195 51.7827 49.7099 50.6593 50.2345 49.8104C50.5966 49.2244 50.9825 49.2677 51.0426 49.9912C51.1047 50.7389 51.0056 51.5687 51.0436 52.3289C51.1121 53.7003 51.4603 55.0242 51.9153 56.3086C52.4884 57.9272 53.4174 59.55 53.2054 61.3297L53.6562 61.381H53.6559ZM52.5436 61.2811C52.8649 59.5378 51.8937 57.9436 51.3412 56.3585C50.9535 55.2463 50.671 54.0981 50.5547 52.9219C50.5261 52.6306 50.5229 51.4831 50.3825 51.3141C50.1503 51.0347 49.7609 51.8204 49.6757 51.9738C49.3631 52.5377 49.0981 53.1391 48.7925 53.708C47.8799 55.4062 46.424 57.4568 47.0453 59.5019C47.0603 59.5511 47.0959 59.6793 47.1689 59.6576C46.4229 56.793 48.6549 54.4522 49.7721 52.0349C50.0235 51.6752 50.2652 51.5798 50.3703 52.0939C50.4657 52.5597 50.4566 53.1021 50.5243 53.5802C50.6577 54.521 50.9378 55.4834 51.2518 56.3777C51.7491 57.7942 52.5883 59.2658 52.5087 60.8093C52.5066 60.8526 52.3819 61.3964 52.5436 61.2808V61.2811ZM51.8105 61.1414C52.0407 59.5469 51.1997 58.1074 50.693 56.6575C50.3871 55.782 50.1192 54.8894 50.0001 53.965C49.9404 53.5026 49.9404 53.034 49.8929 52.5716C49.8873 52.5185 49.8891 52.485 49.8388 52.4522C49.733 52.5479 49.6593 52.6711 49.5838 52.7899C48.9765 53.7432 48.1911 55.1464 47.7322 56.1735C47.2125 57.3367 47.039 58.5621 47.4982 59.783C48.8917 60.3585 50.3326 60.8299 51.8109 61.1418L51.8105 61.1414ZM55.4059 61.351C55.3797 59.4736 54.4602 57.8088 53.7841 56.1144C53.4698 55.3266 53.1785 54.5293 52.9375 53.715L52.6487 52.4861C52.7594 53.4632 53.0468 54.4106 53.3807 55.3311C54.0973 57.3067 55.2446 59.1984 55.3011 61.3513H55.4055L55.4059 61.351ZM34.673 53.3584C34.7998 54.1833 34.7767 55.0242 34.8487 55.8525C34.951 57.344 34.7079 59.0287 34.8459 60.4971C34.8738 60.7954 35.0456 60.9291 35.2936 61.0618C36.0504 61.4669 37.1906 61.5106 37.9966 61.2364C38.2505 61.1502 38.7765 60.8879 38.8247 60.5988L38.8565 56.9788C38.3064 56.5056 37.698 56.0896 37.1344 55.6262C36.2728 54.918 35.4542 54.1522 34.673 53.3584Z" fill="#F7F3CF"/>
<path d="M64.3331 19.1294C65.4828 18.973 65.6172 20.6569 64.5643 20.7571C63.519 20.8563 63.3022 19.2698 64.3331 19.1294Z" fill="#F7F3CF"/>
<path d="M20.9454 34.869C22.0169 34.6864 22.3217 36.1416 21.4015 36.4419C20.2704 36.811 19.8733 35.0517 20.9454 34.869Z" fill="#F7F3CF"/>
<path d="M28.9044 16.4757C29.5669 16.3822 30.0984 17.1791 29.6811 17.7413C29.0724 18.5616 27.8486 17.8293 28.3135 16.8976C28.4123 16.6996 28.6861 16.5065 28.9044 16.4757Z" fill="#F7F3CF"/>
<path d="M42.3427 8.79781C43.5245 8.59701 43.5782 10.4094 42.4038 10.2904C41.5761 10.2062 41.5576 8.93121 42.3427 8.79781Z" fill="#F7F3CF"/>
<path d="M20.3882 29.0759C21.3597 28.9561 21.5256 30.4382 20.6201 30.5646C19.5483 30.7144 19.4278 29.1939 20.3882 29.0759Z" fill="#F7F3CF"/>
<path d="M64.404 26.7361C64.9869 26.6893 65.4363 27.3696 65.1038 27.8924C64.7207 28.4948 63.7747 28.2643 63.7163 27.5442C63.6853 27.1611 64.0233 26.7665 64.404 26.7361Z" fill="#F7F3CF"/>
<path d="M59.9014 15.3931C60.6135 15.3223 61.0214 16.3423 60.3393 16.7761C59.3059 17.4336 58.6567 15.5168 59.9014 15.3931Z" fill="#F7F3CF"/>
<path d="M23.9821 18.0465C24.6694 17.9365 25.129 18.7715 24.6376 19.2953C24.0907 19.8782 23.1537 19.2646 23.416 18.5277C23.4949 18.3056 23.7477 18.0842 23.9821 18.0465Z" fill="#F7F3CF"/>
<path d="M16.7218 31.9374C17.7622 31.76 17.9064 33.2351 17.0197 33.3863C16.0013 33.5598 15.8592 32.0844 16.7218 31.9374Z" fill="#F7F3CF"/>
<path d="M69.4253 20.7383C70.0717 21.3889 69.0579 22.4435 68.3891 21.757C67.6948 21.0442 68.7527 20.0615 69.4253 20.7383Z" fill="#F7F3CF"/>
<path d="M25.9372 34.3805C26.541 34.2768 27.0313 34.8055 26.7631 35.381C26.4621 36.0274 25.5132 35.9108 25.3962 35.219C25.3368 34.8687 25.5771 34.4423 25.9372 34.3805Z" fill="#F7F3CF"/>
<path d="M50.5825 10.5076C51.4978 10.4608 51.5596 11.8458 50.6764 11.9307C49.7132 12.0232 49.6092 10.5572 50.5825 10.5076Z" fill="#F7F3CF"/>
<path d="M31.2779 21.362C32.246 21.224 32.3798 22.7445 31.4071 22.7857C30.5274 22.8231 30.4031 21.4867 31.2779 21.362Z" fill="#F7F3CF"/>
<path d="M19.3747 39.4065C20.4733 39.2179 20.4293 41.0136 19.3394 40.7862C18.6039 40.6329 18.6367 39.5332 19.3747 39.4065Z" fill="#F7F3CF"/>
<path d="M58.7148 11.7634C58.9527 11.74 59.2408 11.908 59.3578 12.115C59.7091 12.736 58.9799 13.485 58.3412 12.9919C57.8473 12.6106 58.1058 11.8238 58.7148 11.7637V11.7634Z" fill="#F7F3CF"/>
<path d="M26.8797 23.4915C27.8072 23.3305 27.9927 24.6942 27.1772 24.8357C26.2507 24.9967 26.0516 23.6354 26.8797 23.4915Z" fill="#F7F3CF"/>
<path d="M38.1199 9.98482C38.3699 9.95374 38.6112 10.0693 38.7506 10.2785C39.1431 10.8683 38.4324 11.593 37.8318 11.1624C37.333 10.8051 37.5269 10.0585 38.1202 9.98482H38.1199Z" fill="#F7F3CF"/>
<path d="M31.135 12.92C31.4856 13.2884 31.2251 13.9558 30.711 13.9579C29.9986 13.9603 29.8781 12.9933 30.4739 12.7758C30.6897 12.6969 30.9754 12.7524 31.135 12.92Z" fill="#F7F3CF"/>
<path d="M24.1918 38.5687C25.2532 38.3871 25.0943 39.9362 24.2072 39.7229C23.6076 39.5786 23.624 38.6658 24.1918 38.5687Z" fill="#F7F3CF"/>
<path d="M23.0053 26.3534C23.8567 26.2102 23.929 27.4283 23.1673 27.495C22.4846 27.5547 22.3267 26.4676 23.0053 26.3534Z" fill="#F7F3CF"/>
<path d="M71.6636 25.9329C72.2042 25.8571 72.4672 26.6038 71.9632 26.8982C71.2752 27.3001 70.8303 26.0496 71.6636 25.9329Z" fill="#F7F3CF"/>
<path d="M19.9653 24.9017C19.4778 25.3392 18.8111 24.5654 19.2826 24.132C19.775 23.679 20.4787 24.4407 19.9653 24.9017Z" fill="#F7F3CF"/>
<path d="M67.7182 24.608C68.2739 24.4949 68.6039 25.1922 68.1094 25.5223C67.4263 25.9783 67.0103 24.7519 67.7182 24.608Z" fill="#F7F3CF"/>
<path d="M22.5378 22.0992C22.9349 21.7249 23.6061 22.2494 23.2736 22.7477C22.8378 23.4011 22.0189 22.5885 22.5378 22.0992Z" fill="#F7F3CF"/>
<path d="M62.308 23.0375C62.879 22.9345 63.1528 23.6138 62.6837 23.9368C62.3362 24.176 61.8763 23.8341 61.9353 23.4332C61.9594 23.2687 62.1431 23.0676 62.308 23.0379V23.0375Z" fill="#F7F3CF"/>
<path d="M64.0179 15.5335C64.6207 15.4089 64.8484 16.1562 64.3783 16.4171C63.7057 16.79 63.3946 15.6624 64.0179 15.5335Z" fill="#F7F3CF"/>
<path d="M47.5979 8.66094C48.0006 8.31591 48.6428 8.82158 48.3002 9.31048C47.8829 9.9059 47.0891 9.09711 47.5979 8.66094Z" fill="#F7F3CF"/>
<path d="M40.1297 13.3841C39.6614 12.9423 40.3759 12.2554 40.8153 12.716C41.2546 13.1767 40.567 13.7962 40.1297 13.3841Z" fill="#F7F3CF"/>
<path d="M54.4553 10.2617C55.0898 10.1674 55.1744 11.1383 54.5817 11.1959C53.9849 11.2539 53.8944 10.3449 54.4553 10.2617Z" fill="#F7F3CF"/>
<path d="M35.5704 12.8805C36.1752 12.8264 36.2377 13.8088 35.5972 13.8088C35.0126 13.8088 34.9868 12.9329 35.5704 12.8805Z" fill="#F7F3CF"/>
<path d="M16.4775 42.5819C16.9901 42.4778 17.2548 43.1215 16.8124 43.4061C16.2089 43.7941 15.831 42.7132 16.4775 42.5819Z" fill="#F7F3CF"/>
<path d="M59.9691 19.4773C60.4692 19.3746 60.7227 20.0511 60.2705 20.3021C59.6663 20.6377 59.344 19.6055 59.9691 19.4773Z" fill="#F7F3CF"/>
<path d="M15.9871 38.2226C16.4414 38.2149 16.5888 38.971 16.0779 39.0757C15.4335 39.2081 15.3822 38.2327 15.9871 38.2226Z" fill="#F7F3CF"/>
<path d="M56.026 14.0658C56.5547 13.9631 56.6941 14.8204 56.1541 14.8955C55.653 14.965 55.4696 14.174 56.026 14.0658Z" fill="#F7F3CF"/>
<path d="M56.9531 17.9445C57.2353 17.6055 57.9306 17.9875 57.6208 18.4551C57.2957 18.9461 56.5983 18.3706 56.9531 17.9445Z" fill="#F7F3CF"/>
<path d="M45.4496 11.204C45.8823 11.1222 46.162 11.7316 45.7356 11.981C45.1765 12.3082 44.8695 11.3133 45.4496 11.204Z" fill="#F7F3CF"/>
<path d="M26.3908 41.5699C26.9967 41.4459 27.0742 42.3584 26.5183 42.3982C26.0503 42.4317 25.9183 41.6666 26.3908 41.5699Z" fill="#F7F3CF"/>
<path d="M27.8558 20.454C28.5662 20.2916 28.5724 21.2705 27.9878 21.2523C27.5314 21.238 27.4587 20.5448 27.8558 20.454Z" fill="#F7F3CF"/>
<path d="M21.7836 41.7787C22.4098 41.6568 22.4181 42.7129 21.7909 42.5941C21.3533 42.5114 21.3575 41.8615 21.7836 41.7787Z" fill="#F7F3CF"/>
<path d="M64.4003 30.7885C64.694 31.1363 64.1904 31.7149 63.7937 31.3601C63.3823 30.992 64.0221 30.3404 64.4003 30.7885Z" fill="#F7F3CF"/>
<path d="M33.6498 10.6815C34.2516 10.5429 34.3514 11.3723 33.8789 11.4686C33.2901 11.5888 33.2255 10.7793 33.6498 10.6815Z" fill="#F7F3CF"/>
<path d="M23.5979 31.6577C24.0372 31.6185 24.1958 32.2332 23.8071 32.4249C23.2232 32.713 22.9962 31.7111 23.5979 31.6577Z" fill="#F7F3CF"/>
<path d="M25.8876 28.2405C26.1946 27.8774 26.7876 28.288 26.5204 28.7165C26.2232 29.1932 25.5352 28.6579 25.8876 28.2405Z" fill="#F7F3CF"/>
<path d="M68.3806 28.237C68.9879 28.0973 69.0644 29.0196 68.4777 29.0004C67.981 28.9844 68.0153 28.3208 68.3806 28.237Z" fill="#F7F3CF"/>
<path d="M26.7756 14.7988C27.1681 14.7541 27.3822 15.3425 26.9715 15.5555C26.4644 15.8185 26.1354 14.8718 26.7756 14.7988Z" fill="#F7F3CF"/>
<path d="M17.6624 28.323C17.4092 28.6275 16.8403 28.352 17.0198 27.907C17.2513 27.3343 18.0329 27.8774 17.6624 28.323Z" fill="#F7F3CF"/>
<path d="M17.2444 35.601C17.844 35.4631 17.9139 36.3819 17.3415 36.3644C16.8861 36.3504 16.8679 35.6876 17.2444 35.601Z" fill="#F7F3CF"/>
<path d="M32.1005 16.5267C31.7607 16.1426 32.3425 15.6104 32.6841 15.9952C33.0256 16.3801 32.427 16.8959 32.1005 16.5267Z" fill="#F7F3CF"/>
<path d="M27.8886 56.522C27.1245 57.2861 25.9479 56.1193 26.6956 55.3465C27.4639 54.5527 28.6649 55.7457 27.8886 56.522Z" fill="#F7F3CF"/>
<path d="M68.173 51.099C68.356 51.092 68.6445 51.2233 68.7762 51.3504C69.4072 51.9598 68.7 53.0445 67.8325 52.6778C67.0702 52.3558 67.2968 51.1332 68.173 51.099Z" fill="#F7F3CF"/>
<path d="M67.6137 42.2334C68.5929 42.064 68.9289 43.3781 68.0851 43.7168C66.9896 44.1565 66.6253 42.4045 67.6137 42.2334Z" fill="#F7F3CF"/>
<path d="M73.0587 42.8267C73.7585 42.7076 74.2642 43.4095 73.8511 44.0029C73.4638 44.5588 72.604 44.3661 72.4901 43.6931C72.4265 43.317 72.6679 42.8934 73.0587 42.8267Z" fill="#F7F3CF"/>
<path d="M64.9261 47.2942C65.9658 47.1347 66.0423 48.8402 64.886 48.6785C64.1547 48.5766 64.1425 47.4144 64.9261 47.2942Z" fill="#F7F3CF"/>
<path d="M62.3079 61.0804C63.0822 60.9466 63.4754 61.9206 62.8234 62.3634C62.4148 62.641 61.8319 62.3655 61.7677 61.8829C61.7205 61.5281 61.9353 61.1446 62.3079 61.0804Z" fill="#F7F3CF"/>
<path d="M26.039 59.3747C26.9582 59.3573 26.9683 60.766 26.0648 60.7894C25.1614 60.8128 25.1083 59.3922 26.039 59.3747Z" fill="#F7F3CF"/>
<path d="M64.0548 56.1225C64.9737 56.0111 65.0784 57.4523 64.1844 57.5117C63.239 57.5745 63.1995 56.2262 64.0548 56.1225Z" fill="#F7F3CF"/>
<path d="M22.3341 54.8429C23.0374 54.8674 23.2361 55.812 22.574 56.112C21.586 56.5597 21.2567 54.8056 22.3341 54.8429Z" fill="#F7F3CF"/>
<path d="M69.2209 46.491C69.9211 46.4079 70.1684 47.362 69.5558 47.6651C68.7037 48.087 68.2633 46.6049 69.2209 46.491Z" fill="#F7F3CF"/>
<path d="M30.4063 60.8687C30.5774 60.8488 30.8316 61.0001 30.9102 61.152C31.1634 61.643 30.6001 62.1563 30.137 61.8553C29.7197 61.5839 29.9351 60.9232 30.4063 60.8687Z" fill="#F7F3CF"/>
<path d="M72.0116 49.7371C72.8941 49.5541 72.8756 50.8542 72.1121 50.7735C71.5328 50.7124 71.4783 49.8474 72.0116 49.7371Z" fill="#F7F3CF"/>
<path d="M68.2093 55.6692C68.8428 55.6144 68.9423 56.61 68.372 56.7071C67.559 56.8457 67.494 55.731 68.2093 55.6692Z" fill="#F7F3CF"/>
<path d="M29.1133 50.7491C29.7737 50.6272 29.9661 51.5114 29.4273 51.7255C28.6932 52.0171 28.4166 50.8776 29.1133 50.7491Z" fill="#F7F3CF"/>
<path d="M74.4557 38.883C74.6443 38.8728 74.8542 39.0188 74.9478 39.1763C75.1989 39.5982 74.6237 40.21 74.1494 39.8004C73.81 39.507 74.0136 38.9071 74.4557 38.883Z" fill="#F7F3CF"/>
<path d="M64.4369 39.9296C65.1682 39.7794 65.2628 41.0073 64.432 40.8955C63.9295 40.8278 63.9438 40.0308 64.4369 39.9296Z" fill="#F7F3CF"/>
<path d="M44.7132 62.6896C45.2507 63.1774 44.2886 63.9485 43.9505 63.2951C43.6854 62.7828 44.3134 62.3267 44.7132 62.6896Z" fill="#F7F3CF"/>
<path d="M40.2692 64.4803C39.89 64.1011 40.3988 63.4687 40.8336 63.7938C41.369 64.1943 40.6873 64.8984 40.2692 64.4803Z" fill="#F7F3CF"/>
<path d="M69.9886 39.858C70.5721 39.7923 70.6305 40.8002 69.9463 40.687C69.5129 40.6155 69.5199 39.9107 69.9886 39.858Z" fill="#F7F3CF"/>
<path d="M30.9983 55.8089C31.5292 55.7062 31.6671 56.5164 31.2257 56.6303C30.6058 56.7902 30.5132 55.9028 30.9983 55.8089Z" fill="#F7F3CF"/>
<path d="M59.2354 64.0839C59.5208 64.3389 59.2938 64.9308 58.8254 64.7901C58.2188 64.6081 58.7172 63.6202 59.2354 64.0839Z" fill="#F7F3CF"/>
<path d="M24.911 53.1024C24.5558 52.7612 25.0388 52.1843 25.4223 52.4693C25.8539 52.7902 25.3217 53.4967 24.911 53.1024Z" fill="#F7F3CF"/>
<path d="M66.0095 59.3685C66.4408 59.3095 66.6776 59.9461 66.2124 60.1319C65.6557 60.354 65.4319 59.4474 66.0095 59.3685Z" fill="#F7F3CF"/>
<path d="M64.0535 43.9781C64.5291 43.895 64.6814 44.5131 64.3315 44.7101C63.8045 45.0062 63.4856 44.0776 64.0535 43.9781Z" fill="#F7F3CF"/>
<path d="M64.6468 52.4578C65.2324 52.3303 65.2757 53.3001 64.6764 53.2173C64.2423 53.1576 64.2867 52.536 64.6468 52.4578Z" fill="#F7F3CF"/>
<path d="M73.5485 46.7683C74.0943 46.7027 74.1292 47.5991 73.5383 47.5321C73.1074 47.4832 73.1269 46.819 73.5485 46.7683Z" fill="#F7F3CF"/>
<path d="M70.637 54.2888C70.2965 53.9521 70.7781 53.3951 71.1507 53.7576C71.4947 54.0925 70.9607 54.6086 70.637 54.2888Z" fill="#F7F3CF"/>
<path d="M46.8794 30.0163C47.3907 29.9018 47.3963 30.7958 46.8536 30.6568C46.4834 30.5621 46.5857 30.082 46.8794 30.0163Z" fill="#F7F3CF"/>
<path d="M41.7144 37.0653C42.1684 36.9735 42.2672 37.6768 41.802 37.7159C41.4354 37.7466 41.3564 37.1376 41.7144 37.0653Z" fill="#F7F3CF"/>
<path d="M40.8757 38.6025C41.352 38.495 41.4013 39.1354 41.0349 39.2168C40.627 39.3073 40.4933 38.6888 40.8757 38.6025Z" fill="#F7F3CF"/>
<path d="M34.5928 49.1772C35.1425 49.0575 35.0804 49.9906 34.5415 49.772C34.2792 49.6654 34.341 49.2321 34.5928 49.1772Z" fill="#F7F3CF"/>
<path d="M46.3907 31.5875C46.8873 31.4757 46.94 32.1277 46.5492 32.2031C46.1919 32.2719 46.0306 31.6685 46.3907 31.5875Z" fill="#F7F3CF"/>
<path d="M36.6167 46.2487C36.8622 46.5392 36.5088 46.9695 36.206 46.7117C35.8589 46.4163 36.3625 45.948 36.6167 46.2487Z" fill="#F7F3CF"/>
<path d="M49.4975 28.3411C49.8366 28.2671 50.0556 28.6645 49.7689 28.8576C49.3655 29.1293 49.1022 28.4274 49.4975 28.3411Z" fill="#F7F3CF"/>
<path d="M38.1886 40.4161C38.5535 40.3403 38.7068 40.9326 38.3178 41.0021C37.9287 41.0715 37.8624 40.4838 38.1886 40.4161Z" fill="#F7F3CF"/>
<path d="M34.0008 47.8502C34.2278 47.8129 34.423 48.109 34.2543 48.3161C33.9236 48.7222 33.4825 47.9354 34.0008 47.8502Z" fill="#F7F3CF"/>
<path d="M43.3886 35.0081C43.8551 34.8698 43.8799 35.5424 43.4542 35.4882C43.1776 35.4533 43.1839 35.0685 43.3886 35.0081Z" fill="#F7F3CF"/>
<path d="M48.6254 27.049C48.9809 26.9771 49.0092 27.466 48.749 27.5243C48.3959 27.6036 48.3338 27.108 48.6254 27.049Z" fill="#F7F3CF"/>
<path d="M35.4997 48.0957C35.946 47.9619 35.8919 48.6569 35.5367 48.5692C35.3034 48.5116 35.2999 48.1554 35.4997 48.0957Z" fill="#F7F3CF"/>
<path d="M44.9246 32.5283C45.169 32.4542 45.278 32.8335 45.0492 32.9002C44.78 32.9787 44.7171 32.5908 44.9246 32.5283Z" fill="#F7F3CF"/>
<path d="M44.8893 33.8553C45.2783 33.7383 45.168 34.3365 44.9004 34.215C44.7681 34.1549 44.7433 33.8993 44.8893 33.8553Z" fill="#F7F3CF"/>
<path d="M47.177 29.0933C47.0611 28.9756 47.1386 28.6631 47.3772 28.771C47.6527 28.8957 47.3492 29.2686 47.177 29.0933Z" fill="#F7F3CF"/>
<path d="M40.1084 40.1726C40.3801 40.1164 40.3672 40.4632 40.2341 40.5093C39.9596 40.6043 39.8657 40.2229 40.1084 40.1726Z" fill="#F7F3CF"/>
<path d="M39.3601 41.5377C39.5735 41.36 39.8263 41.7682 39.4903 41.8618C39.3293 41.9068 39.2061 41.6659 39.3601 41.5377Z" fill="#F7F3CF"/>
<path d="M48.5562 28.0635C48.7001 28.2077 48.5244 28.4735 48.3198 28.352C48.1151 28.2304 48.3771 27.8837 48.5562 28.0635Z" fill="#F7F3CF"/>
<path d="M38.3108 41.8325C38.1997 41.7207 38.2752 41.4717 38.4865 41.5332C38.7798 41.6187 38.5029 42.0256 38.3108 41.8325Z" fill="#F7F3CF"/>
<path d="M47.6657 30.9603C47.8777 30.7483 48.1571 31.2487 47.8106 31.2662C47.6594 31.2739 47.5585 31.0675 47.6657 30.9603Z" fill="#F7F3CF"/>
<path d="M45.977 32.8066C46.0151 32.8942 46.0483 33.0203 45.9851 33.1013C45.801 33.24 45.6142 33.0514 45.7343 32.8502L45.977 32.8062V32.8066Z" fill="#F7F3CF"/>
<path d="M50.0219 29.5993C50.1888 29.7659 49.8511 30.0289 49.7334 29.8354C49.6265 29.6594 49.8979 29.4757 50.0219 29.5993Z" fill="#F7F3CF"/>
<path d="M48.0993 29.1765C48.3389 29.0975 48.4321 29.4555 48.2261 29.5162C48.02 29.577 47.9282 29.233 48.0993 29.1765Z" fill="#F7F3CF"/>
<path d="M40.1422 38.0438C40.4834 37.9404 40.4317 38.4227 40.1834 38.3686C40.0231 38.3336 39.9899 38.0899 40.1422 38.0438Z" fill="#F7F3CF"/>
<path d="M42.3748 35.9852C42.6451 35.96 42.5623 36.4699 42.2627 36.2935C42.0992 36.1971 42.2515 35.9963 42.3748 35.9852Z" fill="#F7F3CF"/>
<path d="M34.7857 47.2422C34.6145 47.0644 34.9163 46.7397 35.0382 47.0072C35.1269 47.202 34.8873 47.3477 34.7857 47.2422Z" fill="#F7F3CF"/>
<path d="M39.4112 39.5989C39.2222 39.7885 38.9966 39.4236 39.246 39.3108C39.443 39.2217 39.518 39.4917 39.4112 39.5989Z" fill="#F7F3CF"/>
<path d="M48.8672 30.2234C49.0838 30.1511 49.1676 30.4413 49.0185 30.5157C48.7775 30.6358 48.7052 30.2775 48.8672 30.2234Z" fill="#F7F3CF"/>
<path d="M35.5692 45.4769C35.8563 45.3889 35.8269 45.8611 35.5437 45.7703C35.3701 45.7144 35.4585 45.5108 35.5692 45.4769Z" fill="#F7F3CF"/>
<path d="M43.6518 34.0494C43.5236 33.9167 43.6941 33.6894 43.8296 33.7816C44.0332 33.9202 43.7828 34.1849 43.6518 34.0494Z" fill="#F7F3CF"/>
<path d="M47.5426 27.7108C47.7479 27.6539 47.7954 27.9699 47.6327 28.015C47.4273 28.0719 47.3798 27.7558 47.5426 27.7108Z" fill="#F7F3CF"/>
<path d="M33.7386 48.7952C33.8556 48.6817 34.077 48.7931 33.9929 48.9611C33.8822 49.1825 33.5975 48.9321 33.7386 48.7952Z" fill="#F7F3CF"/>
<path d="M37.3136 44.8476C37.5046 44.7977 37.439 45.1343 37.2741 45.0868C37.1826 45.0603 37.2106 44.8745 37.3136 44.8476Z" fill="#F7F3CF"/>
<path d="M53.7303 36.6413C53.7387 36.7059 53.6602 36.6672 53.6242 36.6602C53.2358 36.5847 52.8758 36.4419 52.4609 36.4709C51.7366 36.5215 49.967 37.177 49.3489 37.5821C48.6801 38.02 48.4042 38.5966 47.85 39.0848C47.6156 39.2912 47.2978 39.4546 47.0848 39.6809C46.6497 40.1426 46.3664 41.1529 46.0926 41.7602C45.8352 42.3308 45.5234 42.8714 45.2538 43.4343C44.8563 44.2644 44.6262 45.0404 44.0409 45.7818C43.6138 46.3231 43.0767 46.7508 42.7208 47.3588C42.2626 48.1425 42.0352 49.1164 41.4443 49.8341L42.7421 47.1706C43.2953 46.3496 44.0154 45.7933 44.4869 44.9014C44.8888 44.1411 45.289 43.236 45.6627 42.4474C46.0022 41.7315 46.2599 41.0013 46.5802 40.2934C46.9273 39.5259 47.2102 39.4609 47.7805 38.9458C48.1807 38.584 48.451 38.1119 48.8624 37.7592C49.5664 37.1561 50.9725 36.6399 51.8805 36.4493C52.5636 36.3057 53.0867 36.3826 53.7303 36.642V36.6413Z" fill="#F7F3CF"/>
<path d="M54.9771 32.4947C55.4213 32.3627 55.5208 32.9215 55.1545 33.0238C54.7962 33.124 54.6827 32.582 54.9771 32.4947Z" fill="#F7F3CF"/>
<path d="M56.3731 34.5191C56.7409 34.4088 56.8414 34.9109 56.5683 34.993C56.2006 35.1034 56.1 34.6012 56.3731 34.5191Z" fill="#F7F3CF"/>
<path d="M53.3012 31.8658C53.5697 31.7823 53.6752 32.12 53.4776 32.2185C53.2526 32.3306 53.0539 31.9426 53.3012 31.8658Z" fill="#F7F3CF"/>
<path d="M56.2524 33.63C56.1337 33.5137 56.3268 33.2836 56.4564 33.4439C56.5706 33.5853 56.3774 33.7523 56.2524 33.63Z" fill="#F7F3CF"/>
<path d="M38.4424 49.6937L38.8953 48.7865C38.799 49.0938 38.6306 49.4336 38.4424 49.6937Z" fill="#F7F3CF"/>
</svg>
