<svg width="77" height="77" viewBox="0 0 77 77" fill="none" xmlns="http://www.w3.org/2000/svg">
<circle cx="38.5" cy="38.5" r="38.5" fill="#4B5A2A"/>
<path d="M39.3482 5L41.0056 5.10504C58.2489 6.45969 71.3578 20.1776 71.9783 37.472C72.6275 55.5585 58.6267 70.7821 40.6564 71.9299L39.278 72H37.7774C37.7411 71.9421 37.6451 71.9651 37.5861 71.9644C28.1244 71.8653 18.8003 67.2095 12.7707 60.0311C8.108 54.4795 5.13197 46.8614 5.04187 39.564C5.04118 39.505 5.06422 39.409 5.00625 39.3724C5.02057 38.7457 4.9867 38.1144 5.00625 37.488C5.38061 25.4727 12.1348 14.4788 22.7475 8.90275C27.3488 6.48517 32.4645 5.1668 37.673 5H39.3482ZM26.1213 52.3885C26.1339 52.5348 26.5927 53.0704 26.7157 53.2075C26.8466 53.3538 27.4668 53.9913 27.6051 54.0283C27.7891 53.6172 28.1457 54.0705 27.727 54.0988C27.9274 54.3123 28.2452 54.4865 28.5061 54.6278C31.0721 56.0156 34.1278 55.5274 36.9247 55.7022C38.5206 55.8021 39.469 56.8737 39.5598 58.4412C39.6594 60.1612 39.4844 61.979 39.555 63.7091C39.2808 64.675 38.134 64.4943 38.0561 63.5039C38.0174 63.0143 38.0425 62.3621 38.0558 61.861C38.0575 61.7996 38.076 61.7434 38.0907 61.6848L38.0593 61.6167C31.6874 61.4611 25.7312 58.4447 21.7599 53.5216C17.8864 48.7196 16.2196 42.3378 17.3029 36.2251C17.4167 35.5831 17.5966 34.9528 17.708 34.3149C17.5438 34.2766 17.3692 34.227 17.2128 34.1645C17.1021 34.1202 16.7843 33.945 16.7082 33.9349C16.6132 33.922 16.492 34.0072 16.3932 34.0243C16.0719 34.0801 15.8952 34.0574 15.5816 33.981C14.7927 33.7884 13.9745 33.3906 13.217 33.0974C13.0637 33.1156 12.9523 33.2196 12.7983 33.2566C12.094 33.4254 11.3802 33.0678 10.731 32.8465C10.5717 33.7524 9.18568 33.6181 9.33689 32.657C9.3561 32.5339 9.45318 32.4714 9.47413 32.3583L7.51992 31.6252C5.86568 39.3005 7.0373 47.6511 11.0163 54.423C20.1228 69.9216 40.1399 74.8971 55.4841 65.2937C69.0023 56.8332 74.1438 39.1997 67.1591 24.7381C60.6913 11.3472 45.8503 4.33977 31.2862 7.63429C22.2502 9.67814 14.3967 15.7633 10.2445 24.0322C11.4402 24.6931 12.6688 25.2975 13.8599 25.9665C14.4061 26.2732 15.1534 26.5974 15.4698 27.1484C15.5365 27.2646 15.6692 27.6812 15.6947 27.7088C15.73 27.7468 16.492 28.0801 16.6292 28.1527C17.035 28.3669 18.0949 28.9043 18.353 29.2209C18.4584 29.3503 18.5524 29.6644 18.6187 29.723C18.7409 29.8308 19.1663 29.9163 19.2986 30.0894C21.711 25.4894 25.7368 21.7339 30.5794 19.8039C32.2829 19.1248 34.1019 18.6178 35.9308 18.4195L35.965 18.3142C36.0788 16.9016 35.7887 15.3086 35.9325 13.9197C36.0324 12.9563 37.2131 12.8519 37.4289 13.7756C37.4143 17.0788 37.4363 20.3939 37.4652 23.6846C37.4782 25.1387 37.3336 26.5028 37.8214 27.8997C38.3617 29.4456 39.5068 30.6408 40.3082 32.0429C40.7748 31.3048 41.3269 30.5654 41.9656 29.9669C42.0473 29.8902 42.3396 29.7059 42.3518 29.6176L41.5643 28.9036C41.1062 28.3621 40.7109 27.736 40.4744 27.0622C40.4137 26.8891 40.2694 26.1968 40.2247 26.1319C40.1958 26.09 40.1231 26.1305 40.1161 26.0938C40.2027 25.8579 40.1926 25.6447 40.1863 25.3963C40.0868 21.5532 40.143 17.707 40.1172 13.8457C40.2146 12.8613 41.4725 12.9576 41.5797 13.7438C41.7114 14.7112 41.4886 15.9559 41.5815 16.9525L41.616 18.4181C48.0203 19.1649 53.7555 22.7763 57.2609 28.1447C59.7013 31.8817 60.9357 36.6669 60.6728 41.1336C60.6483 41.5464 60.6015 41.9659 60.5338 42.3724C60.9057 42.2063 61.3597 42.207 61.6097 42.5706C62.0585 43.2232 61.4012 43.9846 60.6885 43.7358L60.3945 43.5247C59.0206 52.0989 52.2161 59.2466 43.7459 61.0937C43.7068 61.1191 43.7148 61.1593 43.7099 61.1973C43.6156 61.9493 43.8116 62.9232 43.7085 63.6735C43.6125 64.3742 42.6336 64.5923 42.32 63.9164C42.1737 63.6013 42.2467 63.521 42.2474 63.2244C42.2526 61.3791 42.3186 59.4372 42.2474 57.603C42.2216 56.9414 42.1507 56.2686 41.8919 55.6551C41.7194 55.2458 41.03 54.1522 40.6054 54.0276C40.6714 54.1281 40.7262 54.2457 40.5513 54.2722C40.3141 54.3085 40.3302 53.9466 40.6054 54.0276C40.2698 53.516 38.6369 53.0641 38.0359 52.9853C34.4745 52.5187 28.9503 53.9704 27.7371 49.2545C27.3505 47.7519 27.155 43.7075 29.3543 43.4936C30.7676 43.3561 31.2415 44.9934 31.831 45.929C31.8935 46.0281 32.2043 46.5267 32.2811 46.5257C32.3192 46.5253 32.8091 46.19 32.9041 46.1352C34.0607 45.468 35.1653 44.7387 36.3701 44.157C36.7039 43.9957 37.0654 43.8851 37.3954 43.7166C37.9374 43.4399 38.4451 43.0372 38.9648 42.7213C39.0046 42.7611 38.8041 42.9363 38.772 42.9646C37.8127 43.8077 36.544 44.1695 35.4517 44.7743C34.9208 45.0681 34.434 45.438 33.9151 45.7503C33.4004 46.0602 32.8545 46.3289 32.3342 46.63L32.5605 46.9371L33.1744 46.5103L34.4976 45.7576L32.6129 46.9626C32.5947 47.039 33.2251 47.6612 33.3427 47.7306C34.39 47.3227 35.0776 46.3809 35.9874 45.7639C37.4974 44.7397 40.4489 43.8003 41.344 42.1864C41.5224 41.865 41.5996 41.5181 41.7508 41.1974C42.0044 40.6597 42.6902 40.2525 43.082 39.7716C43.4588 39.3092 43.6628 38.7516 43.997 38.2784C44.3148 37.8286 44.7901 37.5459 45.1218 37.1C45.5433 36.5333 45.6058 35.9878 46.2484 35.5743C46.6629 35.3074 46.8623 35.2669 47.2192 34.8701C47.698 34.3383 47.7161 34.1209 48.4491 33.8316C49.3428 33.4788 50.1058 33.3002 50.9328 33.9129C52.008 34.7093 52.6824 37.4088 52.6122 38.6923C52.5486 39.8599 51.9661 40.8429 51.7831 41.9812C51.5876 43.198 51.7517 44.433 52.1742 45.5825L52.4718 45.2154C52.0174 43.9368 51.9441 42.6013 52.3143 41.2906C52.5552 40.4367 52.9684 39.7203 53.0309 38.797C53.15 37.0379 52.3174 34.8136 51.3131 33.3933C50.9474 32.8762 50.2689 32.3719 49.6023 32.5771L47.6899 33.2475C47.9962 32.9931 48.4271 32.9456 48.7987 32.8207C49.6005 32.551 49.9536 32.2257 50.7721 32.7827C51.4405 33.2374 52.3949 35.0209 52.6359 35.8046C53.0759 37.2371 53.2889 38.5195 52.8646 39.9914C52.4795 41.3276 52.0028 42.0754 52.1578 43.5763C52.2137 44.1165 52.3733 44.6089 52.5067 45.1292C52.7288 45.0967 52.4829 44.6821 52.4393 44.516C52.1858 43.5505 52.1606 42.5605 52.4044 41.59C52.5549 40.9909 52.8465 40.4189 53.0124 39.8253C53.6462 37.5606 52.6478 35.0436 51.3833 33.1843C50.9705 32.5778 50.3398 32.1538 49.5834 32.3486C49.1622 32.4571 48.0772 32.8287 47.728 33.0409C47.5873 33.1264 47.4651 33.2276 47.3418 33.3347C47.3037 33.2956 47.501 33.118 47.5342 33.0911C47.8694 32.8218 49.5544 32.2142 49.9763 32.2153C50.2469 32.2156 50.6373 32.3692 50.8643 32.5168C50.9206 32.5534 50.9841 32.6783 51.0407 32.6197L50.8664 32.4449C50.8608 32.4191 50.9027 32.4211 50.9181 32.4278C50.9499 32.4421 51.2237 32.7247 51.268 32.776C51.6368 33.2025 51.787 33.6788 52.0468 34.1607C52.4093 34.8324 52.617 35.0994 52.8454 35.8748C53.3371 37.5456 53.5016 38.6511 52.9348 40.3408C52.4089 41.9086 52.0063 43.0728 52.5867 44.7526C52.5992 44.7889 52.6499 45.0112 52.7155 44.9547L52.9939 44.4822C52.7878 43.6614 52.7068 42.8557 52.8308 42.0161C52.9446 41.2477 53.3158 40.5725 53.5086 39.8323C53.892 38.3601 53.6252 36.9646 53.2222 35.5325C52.998 34.7358 52.7693 34.5453 52.396 33.8812C52.2168 33.5629 52.1027 33.2073 51.9193 32.8922C51.4744 32.1277 50.5755 31.4207 49.6512 31.6133C49.1808 31.7114 47.8087 32.1751 47.4106 32.4089C46.9088 32.7035 46.7764 33.2122 46.3462 33.5779C46.2145 33.69 46.0256 33.7817 45.8939 33.8934C45.4581 34.2636 45.3485 34.7323 45.0789 35.2072C44.8351 35.6371 44.5498 36.0877 44.2847 36.5068C43.7344 37.3767 43.0248 38.6186 42.2072 39.2105C41.9069 39.4279 41.4973 39.6058 41.2336 39.8421C41.0262 40.0281 40.9445 40.2699 40.7458 40.4531C40.9557 39.7259 41.6981 39.5116 42.2432 39.1065C42.9197 38.6036 43.0555 38.1884 43.4882 37.5247C44.137 36.5294 44.6846 35.6309 45.2765 34.6018C45.7008 33.8641 45.9299 33.9081 46.4352 33.3874C46.7994 33.0119 46.9412 32.5729 47.435 32.2934C47.7546 32.1123 49.457 31.5191 49.8027 31.4852C50.6209 31.4046 51.4821 32.0338 51.9071 32.6958C52.1554 33.0824 52.2972 33.5856 52.536 33.9862C52.8391 34.4943 53.0721 34.7054 53.2579 35.3234C53.7447 36.9436 54.0104 38.4874 53.5016 40.1391C52.9998 41.768 52.565 42.5176 53.026 44.3147C53.0382 44.3625 53.0036 44.4117 53.0826 44.3963C53.1098 44.3827 53.2704 44.1371 53.2743 44.0987C53.291 43.9242 53.1199 43.4266 53.1011 43.1921C52.967 41.5084 53.9325 40.3097 54.0425 38.7258C54.1194 37.6192 53.7922 36.2726 53.4747 35.2114C53.2799 34.5599 53.0288 34.3498 52.711 33.8117C52.4798 33.4199 52.3335 32.9547 52.1068 32.5663C51.6825 31.8398 50.7418 31.2005 49.8733 31.2762C49.5233 31.3069 47.7734 31.9064 47.4357 32.0844C46.9046 32.3646 46.6636 33.0008 46.2075 33.3686C46.0396 33.504 45.8279 33.5888 45.6669 33.7353C45.3055 34.0651 45.0139 34.8754 44.753 35.3339C44.1203 36.4453 43.3349 37.5505 42.6151 38.6054C42.1371 39.1145 41.2871 39.363 40.8519 39.878C40.8184 39.9178 40.5981 40.3107 40.5373 40.2434C40.5251 40.182 40.5537 40.1429 40.5778 40.0923C40.9179 39.3825 42.2411 39.0639 42.6996 38.3754C43.3377 37.369 44.077 36.3818 44.6612 35.3465C44.921 34.8855 45.1913 34.1234 45.5129 33.7552C45.7137 33.5253 46.063 33.3867 46.292 33.1732C46.6014 32.8846 46.8361 32.4246 47.1672 32.164C47.5548 31.859 48.2536 31.7173 48.7306 31.5638C49.7287 31.242 50.1544 30.9416 51.1821 31.5362C52.1023 32.0687 52.1907 32.7185 52.6408 33.5671C52.9897 34.2249 53.3253 34.4926 53.5523 35.2732C53.8819 36.4073 54.2088 37.7494 54.074 38.9303C53.876 40.6646 52.748 42.0091 53.2732 43.8576C53.2858 43.9022 53.2792 43.9469 53.3288 43.9769C53.37 43.9961 53.4555 43.8499 53.4793 43.8139C53.5533 43.7023 53.8742 43.1363 53.8851 43.0403C53.8959 42.9443 53.8379 42.8348 53.8348 42.7377C53.7967 41.6375 54.4511 40.4154 54.6617 39.3082C54.9966 37.5473 54.4777 36.05 54.0796 34.3624L52.8577 32.1476C53.0221 32.3388 53.1531 32.5708 53.2823 32.7872C53.6203 33.3546 54.0719 34.0581 54.2433 34.6876C54.3495 35.0774 54.3932 35.4871 54.4801 35.8818C54.6188 36.5099 54.8164 37.0968 54.8464 37.7487C54.9187 39.3162 54.3027 40.7026 53.9046 42.1801V42.878C53.9046 42.8843 53.9605 42.9401 53.9741 42.9304C54.1079 42.5915 54.0785 42.2436 54.1662 41.8831C54.3956 40.9382 54.8276 40.0522 54.9767 39.0643C55.1967 37.6063 54.8426 36.215 54.5168 34.7986C54.345 34.0518 53.9758 33.4862 53.5704 32.8483C53.2076 32.2774 52.6118 31.2947 52.1253 30.8735C51.5537 30.3783 50.5996 30.0664 49.8492 30.2039C49.0082 30.3578 47.969 30.7974 47.1448 31.0592C46.5801 31.3572 46.2686 32.0164 45.7696 32.3712C45.5213 32.5478 45.2168 32.6295 44.9884 32.8113C44.5638 33.1494 44.247 34.078 43.9642 34.5788C43.6537 35.1284 43.2605 35.6291 42.9399 36.1721C42.6102 36.7308 42.3867 37.3774 41.9174 37.8366C41.6223 38.1252 41.2315 38.3496 40.9385 38.6368C40.7699 38.8025 40.6403 39.0001 40.4685 39.1616C40.4629 39.0936 40.5233 39.0444 40.5596 38.9913C40.8938 38.5038 41.2448 38.329 41.6551 37.9581C42.3242 37.3533 42.6281 36.5294 43.0929 35.7663C43.3457 35.3513 43.6467 34.9598 43.8887 34.5379C44.1782 34.0333 44.4946 33.1295 44.8997 32.7572C45.1354 32.5405 45.4857 32.456 45.735 32.2666C46.173 31.934 46.4757 31.3931 46.9489 31.0724C47.5206 30.6847 48.1031 30.638 48.7397 30.4551C49.3763 30.2723 49.8198 29.9715 50.5211 30.1051C51.3421 30.2614 52.0171 30.5549 52.5619 31.205C53.0455 31.9801 53.6081 32.7111 54.0729 33.4977C54.6142 34.4134 54.6198 34.95 54.8234 35.9578C55.1108 37.3809 55.291 38.2097 54.9348 39.6854C54.7375 40.5034 54.2259 41.5223 54.1498 42.3204C54.1456 42.3654 54.1204 42.5371 54.1836 42.5465C55.2543 40.1286 55.7534 37.4612 55.2138 34.8345C54.7068 32.3653 53.0152 30.1337 50.4994 29.4983C49.2827 29.1912 47.9445 29.3405 46.9283 30.11C46.5183 30.4206 46.1412 30.9004 45.7144 31.1645C45.3638 31.3816 44.9182 31.4702 44.5631 31.6883C43.8437 32.1301 43.3984 33.3899 42.9933 34.1317C42.4887 35.0558 41.8954 36.1054 41.27 36.945C41.1264 37.1377 40.9298 37.3135 40.795 37.5173C40.5991 37.8136 40.4751 38.1762 40.2995 38.4874C39.9765 39.0608 39.5504 39.5703 39.1069 40.0518C39.8472 40.3917 40.8142 40.636 40.7116 41.6563C40.6641 42.1292 40.2265 42.5633 39.7523 42.6167C38.8143 42.722 37.7446 41.8483 36.8167 41.6752C35.5473 42.2262 34.1788 42.3549 32.807 42.2321C31.7175 42.1344 31.5411 41.7952 30.6925 41.2756C28.7711 40.0989 26.7628 40.614 25.6771 42.5716C25.6261 42.6638 25.4787 42.9063 25.4655 42.9914C25.4536 43.0679 25.5049 43.1411 25.4917 43.1872C25.4854 43.2099 25.3132 43.3955 25.25 43.5756C24.7209 45.0821 24.7737 48.2052 25.0873 49.7769C25.2028 50.3566 25.6904 52.0218 26.1234 52.3875C26.0885 51.9855 26.6807 52.2336 26.3102 52.4869C26.2669 52.495 26.1607 52.4192 26.1234 52.3875L26.1213 52.3885ZM35.9629 19.9703C29.4074 20.9076 23.6052 25.107 20.6082 30.9803L37.8309 39.2925C39.5204 37.9664 40.1015 35.9924 39.513 33.921C39.0409 32.2589 37.7568 31.0536 36.9694 29.5552C36.368 28.4109 36.0254 27.2206 35.9619 25.9214L35.9629 19.9703ZM53.3312 54.0164C62.3626 44.8535 60.6036 29.8615 49.8156 22.9567C47.3743 21.3941 44.5107 20.403 41.6377 20.0066L41.5965 20.0764C41.6834 21.7008 41.5511 23.358 41.6153 24.9793C41.6632 26.1863 41.9457 27.2894 42.8418 28.1499C44.165 29.4205 45.3694 28.5864 46.8162 28.1879C52.7525 26.552 56.8551 31.2514 56.9044 36.8759C56.9763 45.088 49.8209 51.8354 41.7403 51.9363C41.059 51.9632 40.3864 51.8958 39.7104 51.8344C39.6712 51.8309 39.585 51.8023 39.5927 51.8648C41.7571 52.4723 43.3492 54.2869 43.6369 56.5279C43.7616 57.4987 43.5968 58.5019 43.711 59.4727C47.3425 58.5997 50.7166 56.6692 53.3312 54.0164ZM9.54397 25.4141C9.26635 26.1856 8.91329 26.9268 8.63566 27.699C8.35105 28.4898 8.12685 29.3029 7.87297 30.1041L7.9732 30.1777C9.15599 30.5968 10.2979 31.137 11.48 31.5564C11.9277 31.7152 12.336 31.9839 12.703 31.5564C13.2059 30.9709 13.8023 29.5981 14.0464 28.8517C14.1257 28.6098 14.2912 28.2103 14.1938 27.9702C14.1166 27.7793 13.4699 27.4426 13.2663 27.3271C12.0835 26.656 10.8385 26.0879 9.64664 25.4326L9.54363 25.4137L9.54397 25.4141ZM15.407 29.1479C15.1391 30.1212 14.6743 31.0278 14.1505 31.8851L15.8746 32.5328C15.9231 32.5293 15.9594 32.5038 15.9982 32.4791C16.3254 32.27 16.7375 31.3711 16.889 30.9974C16.9435 30.863 17.1569 30.318 17.1506 30.2147C17.1415 30.0744 16.9411 29.9404 16.8342 29.8668C16.4134 29.5754 15.8672 29.374 15.4066 29.1483L15.407 29.1479ZM48.3524 29.3925C47.9428 29.4138 47.4699 29.4909 47.0869 29.6448C46.4796 29.8888 46.0413 30.4876 45.4333 30.7831C44.2488 31.3589 43.9488 31.2916 43.2511 32.5443C42.6179 33.6812 42.0941 34.8457 41.4006 35.9634C41.2026 36.2824 40.8834 36.5563 40.8491 36.9646C41.5895 36.1337 42.1713 35.1046 42.7045 34.1265C43.1065 33.3899 43.5839 32.1012 44.2173 31.5913C44.5987 31.2846 45.0209 31.1946 45.4445 31.0037C46.2498 30.6408 46.6982 29.7736 47.6016 29.566L48.3524 29.3925ZM40.5705 32.6375C40.6134 32.67 41.0901 31.8031 41.1414 31.7257C41.5783 31.0672 42.1402 30.4139 42.7527 29.9167C42.8152 29.8368 42.5439 29.7192 42.4988 29.7122C42.4402 29.7031 42.3962 29.7258 42.3518 29.7607C41.5881 30.4614 40.9351 31.242 40.3746 32.1134C40.3302 32.2533 40.5562 32.4836 40.5708 32.6375H40.5705ZM43.3967 30.1941C43.4389 30.1323 43.0136 29.9725 42.9273 29.9844C42.8275 29.9983 42.2313 30.6607 42.1224 30.7873C41.5689 31.4308 41.1132 32.1441 40.6808 32.8723L40.919 33.8236C41.0007 33.8407 40.9749 33.8131 40.9972 33.7786C41.2944 33.3155 41.5113 32.6909 41.7854 32.195C42.0847 31.6534 42.4985 31.0257 42.9252 30.5779C43.0611 30.4352 43.2123 30.2705 43.397 30.1941H43.3967ZM44.0598 30.23C43.9093 30.2684 43.7131 30.1899 43.587 30.1927C43.4609 30.1955 43.0943 30.5738 42.9951 30.6826C42.422 31.3111 41.915 32.158 41.5284 32.9149C41.4226 33.1219 41.0437 33.8323 41.0035 33.9984C40.9731 34.1248 41.0664 34.3484 41.059 34.4866C41.2357 34.2469 41.3761 33.9363 41.5074 33.6617C42.0487 32.5297 42.5781 31.3411 43.5601 30.5144L44.0602 30.2297L44.0598 30.23ZM18.2688 31.0672C18.0806 31.6513 17.8166 32.2303 17.5016 32.76C17.5044 32.797 18.1176 33.0447 18.1815 33.0426C18.2772 33.0392 18.3987 32.8151 18.449 32.731C18.6739 32.3541 18.823 31.9029 19.0018 31.502L18.9854 31.4517L18.2688 31.0675V31.0672ZM39.4879 41.5007C39.4991 41.4197 39.4268 41.3904 39.3727 41.3545C39.0109 41.1144 38.3781 40.8649 37.965 40.6684C31.9811 37.822 25.9299 35.1137 19.9454 32.2693L19.8396 32.2536C19.8071 32.552 19.5504 32.8266 19.4792 33.1002C19.4705 33.1337 19.4404 33.1505 19.4897 33.1777L39.4879 41.501V41.5007ZM51.913 45.863C51.9266 45.8735 52.1547 45.6749 52.1219 45.6055C51.6612 44.3782 51.525 43.109 51.7548 41.8144C51.9396 40.7735 52.4781 39.8316 52.5423 38.7631C52.6157 37.5439 51.9902 34.9165 51.0407 34.0853C50.2235 33.37 49.3809 33.5378 48.4491 33.9028C47.5827 34.242 47.5813 34.658 46.9926 35.2034C46.7436 35.4341 46.3849 35.5537 46.1223 35.7638C45.6348 36.1536 45.4745 36.8156 45.0712 37.2954C44.8124 37.6032 44.4593 37.8269 44.1988 38.1329C43.7895 38.6138 43.5765 39.2667 43.1868 39.773C42.8383 40.2259 42.3176 40.5578 41.9865 40.9807C41.7159 41.3259 41.601 41.8716 41.366 42.2792C40.4688 43.8349 37.7485 44.7341 36.2594 45.6878C35.7914 45.9876 35.4691 46.3048 35.0567 46.6485C34.5472 47.0732 34.0726 47.4965 33.452 47.7662L33.4161 47.8514C33.5882 47.8817 33.5991 48.1124 33.7978 48.043C33.9965 47.9735 34.5846 47.56 34.7735 47.412C35.1496 47.1182 35.4716 46.7571 35.8424 46.4569C37.4583 45.1498 40.237 44.4613 41.3876 42.6495C41.7358 42.1016 41.8825 41.4909 42.3145 40.994C42.6169 40.6461 43.037 40.3348 43.3265 39.982C43.8245 39.3759 43.9313 38.6427 44.5306 38.0802C45.2199 37.4332 45.2849 37.4437 45.7574 36.5849C46.2156 35.7516 46.5505 35.8887 47.1832 35.3932C47.7741 34.9305 47.7926 34.6203 48.6325 34.3648C51.1098 33.6118 51.751 35.3838 52.1467 37.4116C52.5008 39.2265 52.0538 39.6498 51.6574 41.2627C51.2792 42.8013 51.3497 44.381 51.9134 45.8627L51.913 45.863ZM41.0587 34.9755C41.1194 34.9664 41.118 34.9047 41.1379 34.8632C41.2546 34.6199 41.3625 34.3272 41.4418 34.0682L41.2965 34.3237L41.0587 34.9755ZM51.459 46.2818C51.494 46.3181 51.7657 46.0686 51.7388 45.9886C51.18 44.5345 51.1077 42.9489 51.4412 41.4313C51.6392 40.5302 52.0534 39.7022 52.089 38.7638C52.1247 37.8255 51.6829 35.9484 51.1734 35.2093C50.5444 34.2968 49.6379 34.2731 48.6524 34.5599C47.7881 34.8119 47.5782 35.3887 46.8539 35.7973C46.745 35.8587 46.6123 35.8919 46.4928 35.9596C45.9481 36.2688 45.8223 36.8979 45.471 37.3805C45.156 37.8132 44.6989 38.0258 44.3951 38.3985C44.0647 38.8036 43.881 39.4293 43.5657 39.8721C43.2165 40.3624 42.6951 40.7351 42.3169 41.2055C41.9387 41.6759 41.7536 42.3616 41.3814 42.8871C40.2667 44.4606 38.0834 45.1047 36.5527 46.1202C35.885 46.563 35.3556 47.1912 34.7054 47.6581C34.4536 47.8388 34.1795 47.9679 33.9144 48.1239C33.8858 48.1407 33.8561 48.1138 33.8701 48.1836C33.9591 48.2548 34.1403 48.4362 34.251 48.3937C34.418 48.3298 34.8573 48.0217 35.0183 47.9016C35.3553 47.6507 35.6416 47.3349 35.9629 47.0666C37.9161 45.4355 40.8244 44.9285 42.0075 42.4321C42.1297 42.1742 42.2139 41.8647 42.3441 41.6172C42.6637 41.0104 43.3848 40.5571 43.7609 39.9628C44.0337 39.5319 44.1807 38.9868 44.5152 38.5886C44.8197 38.2268 45.2727 38.0055 45.5751 37.6241C45.9282 37.1788 46.0343 36.5287 46.4925 36.2032C46.7387 36.0283 47.0736 35.9407 47.3383 35.7575C47.8405 35.4096 48.0193 35.0565 48.6678 34.8537C50.8902 34.1583 51.4196 35.9516 51.7279 37.726C51.9717 39.1281 51.5848 39.7758 51.2743 41.054C50.9108 42.5504 50.871 43.972 51.239 45.4732C51.3057 45.7447 51.4192 46.0043 51.4601 46.2818H51.459ZM34.3576 40.7682L19.2979 34.6273C19.2606 34.6492 19.2588 34.6796 19.2459 34.7138C19.1223 35.0425 19.021 35.6256 18.9487 35.9868C16.6128 47.6298 24.8673 58.6649 36.5782 59.9564C36.9756 60.0004 37.5494 60.0747 37.9349 60.0684C37.9786 60.0677 38.0729 60.0723 38.083 60.0143C38.0222 59.3506 38.163 58.6998 38.0118 58.034C37.855 57.3448 37.2847 57.1714 36.6449 57.1323C34.3338 56.9916 32.19 57.2799 29.8754 56.7125C24.2132 55.324 22.8383 49.9375 23.5081 44.7327C23.975 41.105 26.7324 37.9511 30.6325 39.5894C31.165 39.8131 32.411 40.7679 32.8046 40.7679H34.3576V40.7682ZM50.9701 46.77C50.5815 45.4806 50.4002 44.1242 50.4453 42.7733C50.5032 41.0443 50.9628 39.2293 50.5064 37.5156C50.0206 35.6926 48.4254 35.9889 47.2049 36.9161C46.6964 37.302 46.4953 37.756 46.1021 38.2212C45.7934 38.5865 45.3774 38.8919 45.0733 39.2513C44.7181 39.6704 44.5075 40.1886 44.1793 40.6259C43.762 41.1817 43.2458 41.5698 42.89 42.1983C42.4304 43.0099 42.3309 43.6133 41.6003 44.2938C40.4039 45.408 38.8548 46.0162 37.5721 47.001C36.742 47.6385 36.1396 48.4495 35.3008 49.0563C35.3546 49.1282 35.3546 49.1007 35.4153 49.0672C35.8686 48.8166 36.4333 48.1033 36.8353 47.7299C38.2887 46.3798 40.1388 45.7343 41.5657 44.4337C42.4192 43.6559 42.4625 43.1181 42.9951 42.1986C43.3377 41.6071 43.8182 41.2243 44.2142 40.6956C44.5858 40.2001 44.8459 39.6275 45.2636 39.1627C45.5213 38.8758 45.8478 38.6525 46.1021 38.3611C46.7844 37.5791 46.8916 37.0721 47.9323 36.5619C50.41 35.3468 50.6897 38.0659 50.6227 39.8103C50.5347 42.0971 50.0021 44.4588 50.8916 46.6939C50.9129 46.7469 50.8713 46.7881 50.9701 46.7703V46.77ZM50.2026 47.3984C50.2277 47.4218 50.4882 47.2369 50.4823 47.1709C50.0353 45.7074 49.8334 44.2379 49.8869 42.7036C49.9326 41.3834 50.4257 38.4484 49.6092 37.4008C48.8308 36.4024 47.5035 37.4988 46.8861 38.1325C46.254 38.7816 45.5482 39.5148 45.0226 40.2476C44.6252 40.8017 44.2264 41.3248 43.8164 41.8678C43.3715 42.4575 43.2287 43.042 42.8917 43.6649C42.1004 45.1274 40.1158 46.0438 38.7584 46.9298C37.6793 47.5977 36.7633 48.4739 35.8938 49.3865L36.5559 49.615C37.3095 48.6673 38.1829 47.8981 39.1631 47.1946C40.6738 46.1108 42.2478 45.3134 43.2287 43.6524C44.3661 41.7258 45.4497 39.9904 47.009 38.359C47.5656 37.7766 48.7268 36.7242 49.4535 37.6259C50.2448 38.6078 49.6899 41.4728 49.6431 42.7377C49.6058 43.7515 49.6578 44.7662 49.8299 45.7643C49.9249 46.3156 50.0803 46.8534 50.2033 47.3977L50.2026 47.3984ZM49.3173 37.6402C48.7565 37.0909 47.889 37.6712 47.4266 38.0806C46.2222 39.147 44.7576 41.2337 43.9055 42.6205C43.3946 43.4517 43.0991 44.1884 42.3976 44.9166C40.7545 46.6217 38.1347 47.5708 36.7308 49.5449C36.7127 49.5704 36.6523 49.6363 36.6767 49.6677L37.4921 49.9409C38.9225 47.7108 41.4393 46.5829 43.0813 44.5537C44.612 42.6624 45.7179 39.944 47.5139 38.3426C49.2918 36.7573 49.6141 38.6305 49.5401 40.1244C49.4552 41.8339 49.0742 43.3376 49.2248 45.1128C49.3005 46.0057 49.5548 46.8778 49.7482 47.7477L50.1163 47.5031C50.1439 47.4588 49.8991 46.6265 49.8698 46.4918C49.574 45.1295 49.4923 43.8185 49.5719 42.4247C49.6354 41.3143 50.1397 38.4466 49.3166 37.6405L49.3173 37.6402ZM49.1081 38.0589C48.5448 37.4933 47.6756 38.2714 47.2698 38.6912C45.8349 40.1757 44.8501 42.245 43.6488 43.9343C42.0075 46.2423 39.5647 47.3925 37.8487 49.5805C37.8106 49.629 37.5508 49.957 37.5686 49.9804L38.5104 50.2096C38.882 49.6496 39.2738 49.0926 39.7145 48.5845C40.6141 47.5467 41.6831 46.6649 42.6302 45.6721C43.6635 44.589 44.4545 43.4419 45.2611 42.1962C45.8814 41.2386 46.4387 40.1754 47.2021 39.3211C47.5691 38.9104 48.4788 37.9978 48.9174 38.7907C49.3837 39.6331 48.8591 41.9296 48.7718 42.9496C48.6796 44.0296 48.6873 45.1166 48.8466 46.1896C48.9419 46.8331 49.128 47.4613 49.2607 48.0964C49.4043 48.0321 49.6962 47.8769 49.6735 47.7048C49.6312 47.3855 49.4538 46.9385 49.3823 46.5965C49.1395 45.4362 49.0973 44.3716 49.1553 43.1935C49.2202 41.8807 49.5464 40.5107 49.4713 39.214C49.4507 38.857 49.37 38.322 49.1081 38.0593V38.0589ZM48.9457 40.6283C48.9492 40.0099 49.2296 38.4264 48.1782 38.6745C48.123 38.7195 48.1816 38.7383 48.2298 38.7443C48.335 38.7575 48.461 38.7167 48.5616 38.7621C48.9447 38.9362 48.9807 39.8986 48.9094 40.2601L48.9457 40.6279V40.6283ZM48.4575 48.5503C48.5361 48.5748 48.7879 48.4669 48.7956 48.394C48.6007 47.6497 48.4125 46.8865 48.3224 46.1206C48.108 44.2983 48.4519 42.8334 48.6318 41.0648C48.6779 40.6095 48.7386 40.0194 48.658 39.5734C48.6007 39.2569 48.4757 39.0109 48.1115 39.1491C47.1323 39.5207 45.499 42.4561 44.8355 43.4109C44.2327 44.2781 43.5409 45.1606 42.8215 45.9335C41.6118 47.2334 39.9761 48.6313 39.1666 50.2355C39.1502 50.2679 39.1279 50.285 39.1394 50.3297L39.8039 50.3848C40.6773 48.341 42.4405 46.9284 43.815 45.2516C45.0356 43.7626 45.9089 41.9997 47.0827 40.5278C47.346 40.1977 48.168 39.1208 48.4069 39.9991C48.6377 40.8481 48.1495 42.6697 48.0434 43.6168C47.9243 44.6794 47.9201 45.759 48.0797 46.8171C48.1684 47.404 48.3315 47.9725 48.4579 48.5503H48.4575ZM48.3828 48.6491C47.9505 47.1517 47.764 45.6264 47.8991 44.0662C47.9955 42.9527 48.38 41.6982 48.3891 40.6129C48.3996 39.3075 47.8471 39.7241 47.2719 40.4032C46.1984 41.6706 45.3069 43.4371 44.284 44.8134C43.1299 46.3662 41.6094 47.597 40.5558 49.2162C40.3128 49.5895 40.099 49.9807 39.908 50.3824C39.9143 50.4927 40.6134 50.3873 40.7304 50.4675L40.7975 50.4358C41.3765 48.4153 42.9343 47.0593 44.1786 45.4757C45.2667 44.0914 46.0811 42.5364 47.1029 41.1413C47.2395 40.9549 47.7053 40.2399 47.9417 40.6388C48.1006 40.9068 47.941 41.7697 47.889 42.1019C47.7486 42.996 47.5248 43.8886 47.479 44.7977C47.4088 46.1893 47.6019 47.5289 47.9693 48.8644L48.3831 48.6495L48.3828 48.6491ZM40.919 50.4693H41.5298C41.6164 50.4026 41.5692 50.2826 41.5909 50.1814C41.9715 48.3961 43.1596 47.3398 44.2338 45.9841C44.8711 45.1798 45.4504 44.3297 46.0151 43.4734C46.2177 43.1659 46.8871 41.9208 47.1916 41.8563C47.2964 41.834 47.3526 41.8486 47.4029 41.9449C47.56 42.2475 47.23 43.5512 47.1721 43.9668C47.054 44.8148 46.9908 45.6871 47.0621 46.5428C47.1336 47.4075 47.3613 48.2509 47.4808 49.1076L47.8967 48.929C47.4106 47.2801 47.2754 45.639 47.485 43.9301C47.5911 43.0644 47.8883 42.119 47.9341 41.2732C47.9501 40.971 47.9732 40.3519 47.5171 40.7166C47.1752 40.9898 46.5753 42.1379 46.2948 42.5654C45.6128 43.6053 44.9029 44.6982 44.1293 45.6693C43.2685 46.7501 42.2726 47.6968 41.5766 48.9098C41.4721 49.0916 40.8174 50.3677 40.9193 50.4686L40.919 50.4693ZM49.1553 48.2007C48.8287 46.8335 48.5193 45.4499 48.5605 44.0292C48.5843 43.5299 48.6709 43.0274 48.7013 42.5298C48.7048 42.4725 48.7317 42.2928 48.6671 42.2684C48.4904 43.7885 48.4415 45.2698 48.7474 46.7762C48.8326 47.196 48.9566 47.7108 49.0812 48.119C49.0987 48.1759 49.0529 48.2174 49.1549 48.2003L49.1553 48.2007ZM46.9912 49.3523C46.7184 48.0137 46.4775 46.6974 46.5728 45.3221C46.6147 44.7191 46.7628 44.1182 46.7418 43.5124L46.7142 43.4702C46.556 43.3575 46.2505 43.7096 46.1544 43.8227C45.6338 44.4358 45.1585 45.2565 44.6518 45.9143C43.5929 47.2896 42.2079 48.5326 42.245 50.434L42.3434 50.3757C42.3166 48.549 43.6101 47.3782 44.6319 46.0686C45.0652 45.5134 45.4606 44.8786 45.9103 44.3458C46.3078 43.875 46.5993 43.7103 46.5721 44.5188C46.5613 44.8434 46.481 45.2045 46.4663 45.5298C46.4164 46.637 46.6119 48.2028 46.9168 49.2713C46.9335 49.3299 46.8906 49.369 46.9912 49.3519V49.3523ZM46.3972 49.5955C46.2334 48.4621 45.9198 47.2777 45.9798 46.1251C46.0057 45.6261 46.1125 45.1197 46.1524 44.6207L46.0664 44.5356C45.9295 44.5356 45.0649 45.7709 44.9119 45.9646C43.8639 47.292 42.4859 48.5559 42.5589 50.3995C43.8793 50.3541 45.1501 49.9912 46.3972 49.5955ZM30.2392 45.8976L29.75 45.1135C29.67 45.0283 29.5593 44.8894 29.427 44.9257C29.1183 45.0105 29.0009 46.1349 28.9831 46.421C29.3694 46.2036 29.8024 45.9761 30.2389 45.8972L30.2392 45.8976ZM31.0348 46.9528C30.9153 46.8834 30.1579 47.1399 29.9958 47.2072C29.8143 47.2826 29.1431 47.6553 29.0505 47.7973C29.0023 47.8709 29.017 47.9456 29.0184 48.0266C29.3316 47.8734 29.618 47.6773 29.9372 47.5321C30.3084 47.3632 30.7184 47.2243 31.1123 47.1189C31.1249 47.1015 31.0505 46.9615 31.0351 46.9528H31.0348ZM31.356 47.5028C31.3704 47.4892 31.2485 47.1828 31.171 47.1943C30.4215 47.3866 29.7133 47.6919 29.0599 48.1033L29.0875 48.55C29.7545 48.0555 30.5396 47.6738 31.3557 47.5028H31.356ZM31.2782 47.6169C31.0372 47.6465 30.5235 47.8486 30.2857 47.9508C30.1121 48.0252 29.1975 48.5029 29.1392 48.6198C29.0994 48.7004 29.1322 48.9541 29.2499 48.9052C29.427 48.8316 29.7207 48.5678 29.9145 48.4523C30.2368 48.26 30.6024 48.089 30.9541 47.9564C31.106 47.8992 31.4643 47.8332 31.5656 47.7652C31.6239 47.7261 31.5872 47.7279 31.5656 47.6951C31.4926 47.5827 31.3945 47.6026 31.2775 47.6172L31.2782 47.6169ZM29.7978 49.9584C30.3964 49.4458 30.7435 49.1083 31.5125 48.8285C31.721 48.7524 32.0664 48.6969 32.2385 48.6121C32.3925 48.5364 32.0943 48.3012 31.9703 48.3068C31.8792 48.3106 31.4867 48.4401 31.3725 48.4788C30.6817 48.7123 30.0042 49.1596 29.4874 49.6674C29.4605 49.7267 29.6477 50.0125 29.6802 50.0338C29.7601 50.0861 29.7608 49.9902 29.7978 49.9584ZM32.6824 48.9335C32.7323 48.8857 32.4414 48.6603 32.3855 48.6543C32.2745 48.6425 31.5422 48.8916 31.392 48.9517C30.7404 49.2123 30.2564 49.6311 29.7514 50.1025L30.0137 50.3974C30.4034 49.9598 30.8479 49.5414 31.3927 49.3013C31.7947 49.1244 32.2504 49.0106 32.6827 48.9335H32.6824ZM30.4341 50.4895C30.7215 50.1859 30.9838 49.9235 31.3553 49.7183C31.8781 49.4297 32.4466 49.3631 32.9956 49.1607C32.9499 49.1286 32.8992 49.0392 32.8552 49.0197C32.792 48.9918 32.0196 49.1977 31.8876 49.2385C31.4158 49.3844 31.0571 49.5606 30.6761 49.8767C30.6094 49.9322 30.1317 50.3649 30.1153 50.3998C30.0639 50.5098 30.1939 50.5778 30.2606 50.6413C30.3007 50.6504 30.3967 50.5282 30.4334 50.4895H30.4341ZM37.6032 51.4816C36.367 51.1934 35.1852 50.6916 34.0901 50.0585C33.7796 50.1849 33.4859 50.3457 33.1629 50.4438C32.6048 50.613 32.1886 50.538 31.7238 50.9589C31.6567 51.0196 31.5953 51.0862 31.5314 51.1504C31.516 51.2293 31.5652 51.1948 31.6131 51.207C33.3378 51.6501 35.4967 51.3151 37.2707 51.5179L37.6035 51.4819L37.6032 51.4816Z" fill="#F7F3CF"/>
<path d="M50.7607 32.358C50.5236 32.2739 50.3375 32.1413 50.0759 32.1186C49.6495 32.0816 48.3277 32.5646 47.8992 32.7603C47.2504 33.0569 47.1229 33.5741 46.7112 34.085C46.3337 34.5533 45.8395 34.9176 45.4966 35.418C45.2249 35.8144 45.0283 36.3022 44.7723 36.7179C44.531 37.1097 44.2499 37.4678 43.9555 37.8206C43.945 37.919 43.9988 37.8488 44.0257 37.8206C44.2464 37.5878 44.4867 37.2964 44.6676 37.0316C44.9623 36.5996 45.1614 36.1086 45.4414 35.6766C45.777 35.1591 46.2303 34.8677 46.6256 34.4179C46.8977 34.1083 47.1299 33.6872 47.4449 33.4226C47.4725 33.3996 47.5147 33.3312 47.5497 33.3877C47.1666 33.7535 46.9197 34.2423 46.5561 34.6276C46.113 35.0969 45.7309 35.3342 45.3803 35.9292C44.9298 36.6941 44.7524 37.0284 44.1818 37.7319C43.6112 38.4354 43.4055 39.2244 42.7155 39.7904C42.3889 40.0584 41.8431 40.3177 41.6025 40.6318C41.2571 41.0826 41.3221 41.7404 40.9194 42.164C40.9596 41.9955 41.0731 41.8566 41.13 41.6944C41.2128 41.4574 41.226 41.2096 41.3123 40.9692C41.6612 39.996 43.05 39.8906 43.3968 38.8657C43.4055 38.7903 43.3852 38.8032 43.344 38.8482C43.101 39.1138 42.9945 39.3354 42.6809 39.5811C42.1564 39.9925 41.3427 40.2053 41.1632 40.9078C40.998 40.8247 41.2037 40.5376 41.2742 40.4426C41.5697 40.0469 42.2468 39.8089 42.6456 39.476C43.203 39.0109 43.3936 38.4899 43.7729 37.9162C43.9835 37.5976 44.2607 37.3209 44.472 37.0103C44.8122 36.5102 45.029 35.9317 45.3719 35.4323C45.7288 34.9127 46.18 34.5784 46.5719 34.1195C46.9637 33.6606 47.1481 33.0999 47.6576 32.7973C47.952 32.6225 49.44 32.0956 49.7752 32.0533C50.1105 32.0111 50.5156 32.1245 50.7611 32.358H50.7607Z" fill="#F7F3CF"/>
<path d="M20.2847 55.1893C20.8333 55.115 21.2744 55.5864 21.1919 56.1315C21.0826 56.8535 20.0294 57.052 19.6805 56.4033C19.4026 55.8865 19.7057 55.2678 20.2847 55.1893Z" fill="#F7F3CF"/>
<path d="M57.5581 19.0718C58.7818 18.9266 58.7727 20.849 57.5295 20.6525C56.6271 20.5098 56.654 19.1792 57.5581 19.0718Z" fill="#F7F3CF"/>
<path d="M61.2565 51.1755C61.905 51.0656 62.4027 51.7653 62.0838 52.3512C61.6595 53.1304 60.5005 52.7773 60.607 51.8511C60.6447 51.5238 60.9342 51.23 61.2569 51.1755H61.2565Z" fill="#F7F3CF"/>
<path d="M14.1409 34.949C15.4483 34.7243 15.3352 36.8903 14.0525 36.4865C13.2608 36.2374 13.3544 35.0844 14.1409 34.949Z" fill="#F7F3CF"/>
<path d="M40.5608 65.6225C41.7143 65.4277 41.8843 67.0329 40.8576 67.1753C39.831 67.3177 39.663 65.7742 40.5608 65.6225Z" fill="#F7F3CF"/>
<path d="M22.6884 16.6678C23.5209 17.4592 22.1178 18.5888 21.4989 17.7C20.9399 16.8974 21.9945 16.0079 22.6884 16.6678Z" fill="#F7F3CF"/>
<path d="M35.4997 8.81168C36.2027 8.6679 36.7248 9.39548 36.2918 9.98732C35.799 10.6605 34.7884 10.1806 34.9592 9.35256C35.0049 9.12993 35.2769 8.85739 35.5001 8.81168H35.4997Z" fill="#F7F3CF"/>
<path d="M67.0121 43.0832C67.5443 43.6768 66.9126 44.6434 66.1436 44.2833C65.6868 44.0693 65.5751 43.3997 65.9411 43.0528C66.2232 42.7852 66.7526 42.7943 67.0121 43.0835V43.0832Z" fill="#F7F3CF"/>
<path d="M26.8829 64.5407C27.0816 64.5351 27.3264 64.6684 27.4472 64.8293C27.9357 65.4811 27.1221 66.3368 26.4586 65.8877C25.846 65.4731 26.1652 64.5616 26.8829 64.5407Z" fill="#F7F3CF"/>
<path d="M27.2959 60.393C28.0984 60.3686 28.3851 61.4207 27.6755 61.7766C26.9921 62.1196 26.2874 61.2877 26.7854 60.6774C26.9097 60.5249 27.0951 60.3993 27.2959 60.393Z" fill="#F7F3CF"/>
<path d="M53.1264 15.371C53.3034 15.3571 53.5444 15.4551 53.6746 15.5734C54.2156 16.0634 53.7323 16.9626 53.0272 16.814C52.2055 16.6409 52.3333 15.4335 53.1264 15.371Z" fill="#F7F3CF"/>
<path d="M17.0025 18.0242C17.3709 17.9484 17.8309 18.1362 17.9115 18.5302C18.1137 19.5198 16.6935 19.7637 16.5042 18.8561C16.4361 18.5295 16.6652 18.094 17.0025 18.0242Z" fill="#F7F3CF"/>
<path d="M57.522 26.7136C58.2791 26.5862 58.7488 27.5888 58.0664 28.0257C57.0974 28.6461 56.4918 26.8867 57.522 26.7136Z" fill="#F7F3CF"/>
<path d="M15.6077 48.8365C15.8591 48.7999 16.1947 48.9719 16.3215 49.1883C16.7364 49.8963 15.7977 50.6078 15.2008 50.0645C14.7654 49.6681 15.0434 48.9185 15.6077 48.8365Z" fill="#F7F3CF"/>
<path d="M62.0609 20.4669C62.5537 20.4131 62.9539 20.9233 62.774 21.3913C62.5725 21.9164 61.8413 22.0313 61.5158 21.5521C61.1984 21.0852 61.5259 20.5252 62.0609 20.4669Z" fill="#F7F3CF"/>
<path d="M10.9653 47.023C11.4545 46.9416 11.8844 47.3283 11.8038 47.8263C11.6728 48.6362 10.2749 48.603 10.4191 47.5583C10.4537 47.3074 10.7184 47.0638 10.9649 47.023H10.9653Z" fill="#F7F3CF"/>
<path d="M44.2572 10.7002C44.9284 11.3273 43.9887 12.3445 43.3262 11.753C42.5908 11.0963 43.6276 10.1119 44.2572 10.7002Z" fill="#F7F3CF"/>
<path d="M35.7796 66.7042C36.4323 66.5911 36.881 67.2559 36.4864 67.7947C36.0255 68.4242 35.0857 67.9008 35.2544 67.2256C35.3141 66.9869 35.5327 66.7468 35.7796 66.7042Z" fill="#F7F3CF"/>
<path d="M66.4217 30.133C67.0214 30.0384 67.4254 30.7322 67.0741 31.2396C66.6711 31.8216 65.6985 31.4221 65.8529 30.6812C65.9042 30.4359 66.1731 30.1721 66.4217 30.133Z" fill="#F7F3CF"/>
<path d="M24.367 21.3047C25.0546 21.1878 25.4849 22.0124 24.9677 22.4633C24.432 22.9298 23.6941 22.5233 23.8261 21.8104C23.8673 21.5867 24.146 21.3424 24.367 21.3047Z" fill="#F7F3CF"/>
<path d="M12.5357 39.4505C13.4542 39.2921 13.6539 40.653 12.8333 40.7944C11.8589 40.9626 11.6945 39.5954 12.5357 39.4505Z" fill="#F7F3CF"/>
<path d="M55.533 61.1209C56.0407 61.0364 56.4947 61.5191 56.326 62.0188C56.0585 62.8116 54.7825 62.5045 55.0207 61.6203C55.0853 61.3802 55.2798 61.1628 55.533 61.1205V61.1209Z" fill="#F7F3CF"/>
<path d="M50.6557 29.7415C50.6634 29.8039 50.5772 29.7753 50.5381 29.7718C50.4008 29.7596 50.3023 29.7303 50.1501 29.7418C49.6835 29.7767 49.1534 30.0433 48.7012 30.1773C47.9727 30.393 47.3574 30.4303 46.7302 30.9286C46.3897 31.1991 46.1055 31.6269 45.7667 31.8844C45.4475 32.127 44.9967 32.2163 44.6876 32.4804C44.2235 32.8772 43.8963 33.8874 43.5771 34.4409C43.4102 34.7302 43.1891 34.9916 43.0194 35.2791C42.6129 35.9679 42.1397 37.0145 41.6166 37.5752C41.3795 37.8293 41.0687 38.0554 40.8312 38.3255C40.3947 38.8214 40.1321 39.4792 39.5933 39.8613L40.2365 39.0217C40.5543 38.2752 41.3187 37.8621 41.7647 37.2343C42.1226 36.7308 42.4177 36.0663 42.7407 35.5234C42.995 35.0966 43.2971 34.6991 43.5429 34.2664C43.9319 33.5811 44.1945 32.5977 44.9024 32.2058C45.0721 32.1119 45.2897 32.0488 45.4573 31.9581C46.0258 31.6517 46.3607 31.055 46.9111 30.6899C47.4615 30.3249 48.3513 30.1902 48.9886 30.0105C49.5376 29.8556 50.0624 29.5457 50.6561 29.7418L50.6557 29.7415Z" fill="#F7F3CF"/>
<path d="M45.2588 16.4336C44.9808 16.1356 45.0346 15.6317 45.3684 15.3986C45.9335 15.0039 46.7146 15.6111 46.3773 16.2679C46.1678 16.6751 45.5741 16.7721 45.2588 16.4336Z" fill="#F7F3CF"/>
<path d="M19.1347 59.4455C19.698 59.4162 20.0437 60.1099 19.683 60.5549C19.2105 61.138 18.3343 60.6833 18.4862 59.9515C18.541 59.687 18.8749 59.4591 19.1347 59.4455Z" fill="#F7F3CF"/>
<path d="M57.1385 56.2006C58.2787 56.0055 58.1579 57.7465 57.1455 57.5374C56.4097 57.3856 56.4914 56.3112 57.1385 56.2006Z" fill="#F7F3CF"/>
<path d="M63.6997 36.0308C64.6045 35.9016 64.7589 37.2772 63.897 37.3805C63.0156 37.4866 62.8298 36.1546 63.6997 36.0308Z" fill="#F7F3CF"/>
<path d="M28.863 17.7227C28.3186 18.3993 27.2136 17.5227 27.8785 16.8067C28.4041 16.2406 29.465 16.9745 28.863 17.7227Z" fill="#F7F3CF"/>
<path d="M20.0045 23.4334C20.6317 23.3144 21.0689 24.0283 20.6411 24.5232C20.0872 25.1638 19.0546 24.3096 19.6301 23.6518C19.7045 23.567 19.8959 23.4539 20.0045 23.433V23.4334Z" fill="#F7F3CF"/>
<path d="M51.5057 12.9091C51.4698 12.8746 51.4076 12.7783 51.3873 12.7308C51.0008 11.8232 52.2743 11.4278 52.5684 12.1083C52.8701 12.8069 52.0351 13.4214 51.5057 12.9088V12.9091Z" fill="#F7F3CF"/>
<path d="M52.2177 59.3757C53.1037 59.249 53.2458 60.5803 52.3805 60.6906C51.5333 60.7984 51.345 59.5006 52.2177 59.3757Z" fill="#F7F3CF"/>
<path d="M15.2925 54.9091C16.2179 54.7185 16.4516 56.0393 15.5907 56.1838C14.7009 56.3332 14.6025 55.0511 15.2925 54.9091Z" fill="#F7F3CF"/>
<path d="M31.2785 9.99885C32.1086 9.8952 32.2818 11.1563 31.5114 11.2788C30.6147 11.4212 30.4306 10.1049 31.2785 9.99885Z" fill="#F7F3CF"/>
<path d="M47.8197 61.9231C48.5303 61.7741 48.867 62.6877 48.2251 63.0262C47.6769 63.3151 47.1003 62.6584 47.4649 62.1615C47.5222 62.0837 47.7265 61.9427 47.8197 61.9231Z" fill="#F7F3CF"/>
<path d="M62.0801 46.7473C62.2659 46.562 62.6532 46.5418 62.8686 46.6855C63.5011 47.1074 62.7988 48.1285 62.1405 47.6577C61.8636 47.4599 61.8482 46.9783 62.0801 46.7473Z" fill="#F7F3CF"/>
<path d="M23.634 12.7898C24.5283 12.6045 24.6677 13.8963 23.8603 13.9609C23.0958 14.0223 23.0155 12.9178 23.634 12.7898Z" fill="#F7F3CF"/>
<path d="M62.4081 31.9476C63.417 31.74 63.394 33.1864 62.5146 33.0828C61.8421 33.0036 61.8497 32.0624 62.4081 31.9476Z" fill="#F7F3CF"/>
<path d="M16.2017 26.2927C16.7115 26.2338 16.9797 26.9948 16.5006 27.2925C15.9104 27.6593 15.343 26.7869 15.9537 26.3967C16.0089 26.3615 16.1409 26.2997 16.2017 26.2927Z" fill="#F7F3CF"/>
<path d="M61.3261 55.7469C61.8161 55.6635 62.1471 56.1311 61.8423 56.5418C61.485 57.0227 60.8079 56.6653 60.9402 56.129C60.9888 55.9315 61.1215 55.7818 61.3261 55.7469Z" fill="#F7F3CF"/>
<path d="M23.9106 61.0546C24.3422 61.4845 23.8341 62.1883 23.2694 61.8526C22.6335 61.4747 23.3934 60.5395 23.9106 61.0546Z" fill="#F7F3CF"/>
<path d="M67.5728 38.9261C68.1752 38.7896 68.4608 39.5531 67.9653 39.8766C67.3196 40.2982 66.9044 39.0775 67.5728 38.9261Z" fill="#F7F3CF"/>
<path d="M65.7559 49.9228C66.1373 50.3004 65.6599 51.0363 65.1074 50.7282C64.4844 50.3806 65.2164 49.3886 65.7559 49.9228Z" fill="#F7F3CF"/>
<path d="M64.8166 25.8761C65.4501 25.7749 65.6202 26.7059 65.0454 26.8375C64.3543 26.9955 64.1664 25.9801 64.8166 25.8761Z" fill="#F7F3CF"/>
<path d="M61.0124 24.55C61.4814 24.5246 61.7489 25.1621 61.3121 25.443C60.6147 25.8907 60.2351 24.5923 61.0124 24.55Z" fill="#F7F3CF"/>
<path d="M15.9219 21.9315C16.4101 21.8645 16.7049 22.5481 16.2558 22.8258C15.578 23.2453 15.2162 22.0285 15.9219 21.9315Z" fill="#F7F3CF"/>
<path d="M45.1195 33.1731C44.7276 33.5427 44.479 34.4294 44.2056 34.9291C43.7868 35.6951 43.234 36.5395 42.7745 37.302C42.2199 38.2222 41.9304 38.1538 41.1974 38.7614C40.8042 39.0873 40.5321 39.5333 40.1868 39.8794C40.1463 39.9199 40.112 39.9768 40.0464 39.9653C40.3191 39.5591 40.6516 39.1515 41.0231 38.8311C41.7198 38.2302 42.1347 38.2198 42.67 37.3373C43.1352 36.5702 43.6681 35.7366 44.1011 34.9643C44.4137 34.4067 44.6864 33.4394 45.1656 33.0625C45.3737 32.8985 45.651 32.8025 45.8567 32.6368C46.1228 32.4222 46.3148 32.0781 46.5558 31.8352C46.582 31.8296 46.5792 31.8708 46.5725 31.8869C46.5128 32.0338 46.0162 32.575 45.8755 32.6905C45.6454 32.879 45.3248 32.9798 45.1195 33.1735V33.1731Z" fill="#F7F3CF"/>
<path d="M55.5692 22.9431C56.1528 22.8618 56.2945 23.7495 55.762 23.871C55.0877 24.0249 54.8792 23.0391 55.5692 22.9431Z" fill="#F7F3CF"/>
<path d="M48.5884 65.9005C49.2533 65.792 49.3539 66.8522 48.6802 66.8672C48.1239 66.8797 48.0555 65.9874 48.5884 65.9005Z" fill="#F7F3CF"/>
<path d="M12.4522 24.7741C12.0115 24.3291 12.6561 23.6584 13.1052 24.0688C13.5543 24.4792 12.8873 25.2134 12.4522 24.7741Z" fill="#F7F3CF"/>
<path d="M57.3139 15.4757C57.9034 15.3941 57.991 16.3282 57.4417 16.4088C56.7936 16.5038 56.7108 15.5591 57.3139 15.4757Z" fill="#F7F3CF"/>
<path d="M41.0149 8.56778C41.6132 8.47147 41.7354 9.36062 41.2077 9.45833C40.5208 9.58535 40.4311 8.66165 41.0149 8.56778Z" fill="#F7F3CF"/>
<path d="M33.5106 12.6154C34.0016 12.5142 34.3096 13.1283 33.8668 13.4249C33.2543 13.8353 32.8394 12.7535 33.5106 12.6154Z" fill="#F7F3CF"/>
<path d="M9.44988 42.7335C9.84903 42.3916 10.4451 42.8794 10.1172 43.3481C9.73833 43.8896 8.95678 43.1561 9.44988 42.7335Z" fill="#F7F3CF"/>
<path d="M47.5755 10.2773C48.2101 10.1475 48.3515 11.0576 47.8036 11.1685C47.1764 11.2959 47.087 10.3767 47.5755 10.2773Z" fill="#F7F3CF"/>
<path d="M28.4352 13.6786C28.093 13.2923 28.5756 12.7022 29.0153 13.011C29.5621 13.3952 28.8183 14.1106 28.4352 13.6786Z" fill="#F7F3CF"/>
<path d="M30.8787 66.6501C30.5361 66.2502 31.0624 65.6709 31.4626 66.0485C31.8883 66.4502 31.2558 67.0902 30.8787 66.6501Z" fill="#F7F3CF"/>
<path d="M53.1593 19.4203C53.8413 19.2815 53.8706 20.32 53.2249 20.247C52.7804 20.1968 52.7357 19.5065 53.1593 19.4203Z" fill="#F7F3CF"/>
<path d="M33.5797 63.7719C34.0798 63.6567 34.356 64.2796 33.9513 64.527C33.3695 64.8823 33.0493 63.8944 33.5797 63.7719Z" fill="#F7F3CF"/>
<path d="M8.8226 38.9767C8.42694 38.5617 9.1121 38.0261 9.45434 38.397C9.81682 38.79 9.20779 39.3804 8.8226 38.9767Z" fill="#F7F3CF"/>
<path d="M13.9321 44.9282C14.3836 44.8409 14.6396 45.4436 14.2324 45.6833C13.6391 46.0323 13.3454 45.0412 13.9321 44.9282Z" fill="#F7F3CF"/>
<path d="M12.4311 51.6282C12.8809 51.5409 13.1369 52.184 12.7091 52.3959C12.1238 52.6855 11.8284 51.7454 12.4311 51.6282Z" fill="#F7F3CF"/>
<path d="M44.2814 67.8355C43.8979 67.4691 44.4815 66.863 44.882 67.2873C45.2218 67.6471 44.661 68.1981 44.2814 67.8355Z" fill="#F7F3CF"/>
<path d="M49.2767 14.0904C49.716 14.0684 49.9028 14.6693 49.4838 14.8371C48.8287 15.0999 48.6799 14.12 49.2767 14.0904Z" fill="#F7F3CF"/>
<path d="M21.0163 20.3971C21.5778 20.2819 21.6889 21.0929 21.2091 21.1847C20.6957 21.2827 20.5211 20.4986 21.0163 20.3971Z" fill="#F7F3CF"/>
<path d="M63.2377 39.9136C63.8537 39.9136 63.6833 40.8872 63.121 40.7099C62.7138 40.5815 62.7819 39.9136 63.2377 39.9136Z" fill="#F7F3CF"/>
<path d="M50.3669 17.7795C50.9434 17.6476 51.0894 18.4307 50.596 18.5319C50.0491 18.6439 49.9461 17.8759 50.3669 17.7795Z" fill="#F7F3CF"/>
<path d="M38.9536 11.9331C38.6152 12.2185 38.1514 11.7712 38.3906 11.3877C38.6979 10.8949 39.4166 11.5426 38.9536 11.9331Z" fill="#F7F3CF"/>
<path d="M52.0418 64.0166C52.765 63.8512 52.7018 64.979 52.0264 64.7497C51.6968 64.6377 51.7118 64.0919 52.0418 64.0166Z" fill="#F7F3CF"/>
<path d="M45.0637 64.5389C45.7517 64.4394 45.576 65.5634 44.967 65.2825C44.616 65.1206 44.7002 64.5916 45.0637 64.5389Z" fill="#F7F3CF"/>
<path d="M67.2589 34.4238C67.8166 34.301 67.9346 35.2571 67.2851 35.1859C66.8814 35.1416 66.8423 34.5159 67.2589 34.4238Z" fill="#F7F3CF"/>
<path d="M59.5787 59.554C59.9314 59.9072 59.3479 60.4345 58.9973 60.0831C58.6208 59.7062 59.2323 59.2072 59.5787 59.554Z" fill="#F7F3CF"/>
<path d="M26.9128 10.6992C27.2952 10.6926 27.4688 11.2258 27.0958 11.4352C26.5357 11.7503 26.2874 10.7097 26.9128 10.6992Z" fill="#F7F3CF"/>
<path d="M18.2605 52.465C18.6519 52.4067 18.8604 52.9249 18.5308 53.1563C17.9968 53.531 17.6658 52.5533 18.2605 52.465Z" fill="#F7F3CF"/>
<path d="M19.865 14.7782C20.297 14.7377 20.4608 15.4297 20.0239 15.5312C19.4603 15.6624 19.3429 14.827 19.865 14.7782Z" fill="#F7F3CF"/>
<path d="M37.1498 41.8504L36.0218 42.4146C35.2832 42.8442 34.6347 42.7022 33.8532 42.6861C33.5675 42.6802 33.2801 42.7311 33.0126 42.7238C32.7944 42.7179 32.4769 42.5783 32.3187 42.5853C32.0673 42.5964 31.7411 42.9423 31.5312 43.0714C31.4691 43.0072 31.922 42.6882 31.9733 42.6589C32.3407 42.4506 32.3917 42.5975 32.7336 42.6191C33.4666 42.6655 34.2576 42.5978 34.999 42.6484C35.7156 42.6198 36.3431 42.0538 36.9741 41.8668C37.0328 41.8493 37.089 41.8448 37.1494 41.8507L37.1498 41.8504Z" fill="#F7F3CF"/>
<path d="M14.9436 41.8218C15.4619 41.7097 15.5642 42.4788 15.1378 42.5755C14.6122 42.6949 14.5225 41.9128 14.9436 41.8218Z" fill="#F7F3CF"/>
<path d="M25.3782 15.8951C25.9488 15.7639 26.0385 16.4957 25.6334 16.6035C25.0502 16.7592 25.0048 15.981 25.3782 15.8951Z" fill="#F7F3CF"/>
<path d="M32.8835 16.3129C33.3211 16.249 33.4901 16.8642 33.0728 17.0279C32.5367 17.238 32.3524 16.3903 32.8835 16.3129Z" fill="#F7F3CF"/>
<path d="M39.4529 43.1415L37.6265 44.2987C36.7968 44.6679 35.9321 44.969 35.1698 45.4712C34.8272 45.697 34.5296 46.0176 34.1479 46.1768C34.815 45.6429 35.4956 45.1606 36.2701 44.7921C36.7353 44.5709 37.2169 44.418 37.6733 44.1713C38.1678 43.9037 38.6466 43.5139 39.1278 43.2528C39.2287 43.1981 39.3307 43.1279 39.4526 43.1415H39.4529Z" fill="#F7F3CF"/>
<path d="M66.6998 46.8827C67.3294 46.7389 67.3591 47.5541 66.8587 47.6005C66.419 47.6413 66.3338 46.9661 66.6998 46.8827Z" fill="#F7F3CF"/>
<path d="M61.6047 28.1782C62.1491 28.055 62.2441 28.8269 61.7625 28.897C61.2834 28.9668 61.1887 28.2724 61.6047 28.1782Z" fill="#F7F3CF"/>
<path d="M57.938 52.5033C58.2764 52.4866 58.5009 52.9964 58.114 53.1978C57.5406 53.4961 57.3611 52.532 57.938 52.5033Z" fill="#F7F3CF"/>
<path d="M10.4416 35.6452C10.97 35.5283 11.0157 36.3654 10.5338 36.3947C10.0945 36.4216 10.0459 35.7324 10.4416 35.6452Z" fill="#F7F3CF"/>
<path d="M64.0143 53.687C64.5849 53.5778 64.5734 54.484 64.014 54.3695C63.6567 54.2963 63.6581 53.7554 64.0143 53.687Z" fill="#F7F3CF"/>
<path d="M36.1726 43.8045L32.0198 46.1422C31.9995 46.0532 32.0432 46.0811 32.0851 46.0518C32.2419 45.9419 32.4357 45.8278 32.6023 45.7304C33.3922 45.2684 34.195 44.7949 34.9975 44.3566C35.375 44.1503 35.7574 43.9253 36.1726 43.8045Z" fill="#F7F3CF"/>
<path d="M38.6727 15.7221C38.8368 15.7046 38.9545 15.8648 38.8256 16.0103C38.5885 16.2776 38.3591 15.7552 38.6727 15.7221Z" fill="#F7F3CF"/>
<path d="M25.5891 48.0004C25.7728 48.187 25.4623 48.4404 25.3153 48.2568C25.1721 48.0782 25.4606 47.8698 25.5891 48.0004Z" fill="#F7F3CF"/>
<path d="M38.6062 25.7683C38.904 25.6887 38.9138 26.2034 38.5796 26.0973C38.4008 26.0404 38.4717 25.8038 38.6062 25.7683Z" fill="#F7F3CF"/>
<path d="M34.1038 53.9644C34.3273 53.9302 34.407 54.2736 34.1636 54.3088C33.9202 54.3441 33.8671 54.0007 34.1038 53.9644Z" fill="#F7F3CF"/>
<path d="M40.9459 61.4353C41.0245 61.5232 40.9508 61.7542 40.7779 61.7267C40.3816 61.6635 40.7451 61.2102 40.9459 61.4353Z" fill="#F7F3CF"/>
<path d="M38.6053 24.0936C38.8515 24.0175 38.9755 24.3878 38.695 24.4311C38.4827 24.4642 38.4199 24.1508 38.6053 24.0936Z" fill="#F7F3CF"/>
<path d="M38.8165 22.7184C38.6862 22.8489 38.4044 22.6904 38.5284 22.4821C38.6467 22.2829 38.9963 22.5379 38.8165 22.7184Z" fill="#F7F3CF"/>
<path d="M40.6483 59.9875C40.6259 59.9659 40.6095 59.9111 40.6134 59.8797C40.6567 59.6459 41.0247 59.6539 40.9895 59.9069C40.9685 60.0587 40.7314 60.0678 40.6479 59.9879L40.6483 59.9875Z" fill="#F7F3CF"/>
<path d="M38.1175 54.767C38.2743 54.7433 38.4182 54.9241 38.2652 55.0567C38.0141 55.2737 37.8105 54.8138 38.1175 54.767Z" fill="#F7F3CF"/>
<path d="M37.8384 19.9058C38.0777 19.8415 38.1611 20.2006 37.9264 20.2439C37.6918 20.2872 37.6296 19.9616 37.8384 19.9058Z" fill="#F7F3CF"/>
<path d="M27.0186 49.6363C27.2544 49.5703 27.3448 49.9311 27.1073 49.9751C26.8699 50.0191 26.8343 49.6879 27.0186 49.6363Z" fill="#F7F3CF"/>
<path d="M40.9451 58.347C40.8403 58.4534 40.5753 58.3274 40.657 58.147C40.7771 57.8822 41.1449 58.1439 40.9451 58.347Z" fill="#F7F3CF"/>
<path d="M35.6039 43.2528C35.9611 43.145 35.8944 43.6845 35.6241 43.5687C35.4771 43.5058 35.461 43.2958 35.6039 43.2528Z" fill="#F7F3CF"/>
<path d="M32.4633 53.9302C32.7203 53.8545 32.7724 54.2349 32.552 54.267C32.346 54.297 32.2472 53.9937 32.4633 53.9302Z" fill="#F7F3CF"/>
<path d="M37.8377 16.5565C38.0828 16.4839 38.1858 16.844 37.9267 16.8942C37.698 16.9386 37.6844 16.6018 37.8377 16.5565Z" fill="#F7F3CF"/>
<path d="M38.8165 21.0437C38.6869 21.1728 38.4393 21.0413 38.528 20.8438C38.6461 20.5814 38.9928 20.8682 38.8165 21.0437Z" fill="#F7F3CF"/>
<path d="M30.8066 54.1944C30.6997 54.0873 30.8007 53.881 30.9515 53.8887C31.2976 53.9061 31.0182 54.4066 30.8066 54.1944Z" fill="#F7F3CF"/>
<path d="M37.8383 18.2307C38.1072 18.1592 38.1578 18.5958 37.8697 18.5654C37.6693 18.5441 37.6609 18.2779 37.8383 18.2307Z" fill="#F7F3CF"/>
<path d="M25.4144 44.6123C25.6327 44.5712 25.7256 44.9103 25.4679 44.9501C25.2492 44.9836 25.1962 44.6535 25.4144 44.6123Z" fill="#F7F3CF"/>
<path d="M34.8713 54.8361C35.0924 54.7757 35.2355 55.0888 34.9869 55.1662C34.7383 55.2437 34.704 54.8818 34.8713 54.8361Z" fill="#F7F3CF"/>
<path d="M38.5542 17.4662C38.6293 17.3915 38.8556 17.3761 38.8632 17.545C38.88 17.9153 38.3234 17.6958 38.5542 17.4662Z" fill="#F7F3CF"/>
<path d="M26.2164 47.1252C26.441 47.0907 26.5101 47.426 26.2705 47.4626C26.046 47.4972 25.9768 47.1618 26.2164 47.1252Z" fill="#F7F3CF"/>
<path d="M38.048 14.9191C38.2191 15.0646 37.8824 15.3588 37.7602 15.155C37.638 14.9512 37.9044 14.797 38.048 14.9191Z" fill="#F7F3CF"/>
<path d="M38.0484 21.6191C38.1843 21.7496 37.8997 22.0463 37.746 21.8341C37.6123 21.6495 37.9116 21.4876 38.0484 21.6191Z" fill="#F7F3CF"/>
<path d="M34.0342 43.2504C34.197 43.227 34.3031 43.4905 34.1125 43.5767C33.8478 43.6963 33.772 43.2881 34.0342 43.2504Z" fill="#F7F3CF"/>
<path d="M38.6039 19.1035C38.8979 19.0012 38.9751 19.4329 38.6682 19.4155C38.4551 19.4032 38.4838 19.1454 38.6039 19.1035Z" fill="#F7F3CF"/>
<path d="M31.5745 54.8058C31.6709 54.6903 31.959 54.7482 31.9007 54.9366C31.8054 55.2434 31.4233 54.9876 31.5745 54.8058Z" fill="#F7F3CF"/>
<path d="M27.7513 52.1858C27.9238 52.1345 28.0258 52.3076 27.9381 52.443C27.76 52.7169 27.4597 52.2723 27.7513 52.1858Z" fill="#F7F3CF"/>
<path d="M37.3146 53.9641C37.5374 53.9037 37.6191 54.2642 37.3687 54.3022C37.132 54.3381 37.1316 54.0136 37.3146 53.9641Z" fill="#F7F3CF"/>
<path d="M30.0896 53.0575C30.3892 52.9688 30.3875 53.472 30.099 53.3865C29.9429 53.3401 29.9604 53.0955 30.0896 53.0575Z" fill="#F7F3CF"/>
<path d="M26.9143 42.9018C27.1521 42.8372 27.2387 43.1963 27.0026 43.2402C26.7665 43.2842 26.7651 42.9422 26.9143 42.9018Z" fill="#F7F3CF"/>
<path d="M28.5824 53.0306C28.7493 53.0379 28.801 53.2717 28.6334 53.3478C28.3425 53.4797 28.2943 53.0184 28.5824 53.0306Z" fill="#F7F3CF"/>
<path d="M37.8031 24.9314C38.1181 24.84 38.1516 25.2933 37.832 25.2396C37.6662 25.2117 37.6658 24.9712 37.8031 24.9314Z" fill="#F7F3CF"/>
<path d="M27.6821 42.0642C27.9716 41.9857 27.9894 42.4899 27.6909 42.3936C27.5323 42.3423 27.5571 42.0984 27.6821 42.0642Z" fill="#F7F3CF"/>
<path d="M26.9835 51.3486C27.2968 51.2537 27.3275 51.7084 27.0128 51.6557C26.8491 51.6282 26.8445 51.3909 26.9835 51.3486Z" fill="#F7F3CF"/>
<path d="M39.9672 58.8854C40.2459 58.8041 40.2868 59.2469 39.9613 59.1932C39.7776 59.1628 39.8167 58.929 39.9672 58.8854Z" fill="#F7F3CF"/>
<path d="M25.4459 46.2894C25.6607 46.2692 25.6855 46.6342 25.4407 46.6342C25.2102 46.6342 25.2451 46.3083 25.4459 46.2894Z" fill="#F7F3CF"/>
<path d="M26.8964 48.2289C26.7798 48.0251 27.1629 47.8472 27.2334 48.0862C27.2925 48.2865 26.9789 48.3727 26.8964 48.2289Z" fill="#F7F3CF"/>
<path d="M39.967 60.5608C40.0173 60.55 40.0693 60.5423 40.1165 60.5709C40.3197 60.8092 39.9457 61.0074 39.8081 60.7408C39.8119 60.6519 39.8825 60.5789 39.9673 60.5604L39.967 60.5608Z" fill="#F7F3CF"/>
<path d="M38.0136 23.2941C38.1383 23.4187 37.9791 23.6665 37.8128 23.5831C37.5803 23.4665 37.8324 23.113 38.0136 23.2941Z" fill="#F7F3CF"/>
<path d="M41.502 62.2362C41.7541 62.1594 41.8302 62.4546 41.6867 62.5261C41.4692 62.6347 41.2904 62.3007 41.502 62.2362Z" fill="#F7F3CF"/>
<path d="M26.131 48.8731C26.2868 48.7042 26.5414 48.9216 26.4041 49.094C26.2794 49.2503 25.9798 49.0371 26.131 48.8731Z" fill="#F7F3CF"/>
<path d="M41.7131 60.5975C41.8486 60.7308 41.6306 60.9866 41.4798 60.8501C41.28 60.6697 41.551 60.438 41.7131 60.5975Z" fill="#F7F3CF"/>
<path d="M26.0594 44.0411C25.9571 43.8631 26.2026 43.6632 26.3465 43.8415C26.5096 44.0439 26.1575 44.2114 26.0594 44.0411Z" fill="#F7F3CF"/>
<path d="M26.2512 50.5098C26.5184 50.4686 26.5033 50.909 26.1807 50.8113C26.0127 50.7603 26.0846 50.5352 26.2512 50.5098Z" fill="#F7F3CF"/>
<path d="M30.8905 42.0667C31.0749 42.0503 31.1786 42.3682 30.9467 42.4021C30.7148 42.4359 30.667 42.0863 30.8905 42.0667Z" fill="#F7F3CF"/>
<path d="M39.6573 16.8594C39.5648 16.9058 39.4656 16.9152 39.3716 16.867C39.1684 16.5425 39.7565 16.4528 39.6573 16.8594Z" fill="#F7F3CF"/>
<path d="M39.6191 18.304C39.8335 18.5504 39.2646 18.7294 39.3124 18.3846C39.3323 18.2405 39.5482 18.2227 39.6191 18.304Z" fill="#F7F3CF"/>
<path d="M26.8978 44.8776C26.7976 44.7788 26.8765 44.5946 27.0434 44.6082C27.3899 44.6364 27.1206 45.0974 26.8978 44.8776Z" fill="#F7F3CF"/>
<path d="M38.4462 27.7119C38.3019 27.483 38.779 27.2398 38.7587 27.5954C38.7482 27.7751 38.4898 27.781 38.4462 27.7119Z" fill="#F7F3CF"/>
<path d="M39.288 26.8703C39.1514 26.7056 39.5258 26.4655 39.6138 26.7391C39.6731 26.9233 39.3948 26.9994 39.288 26.8703Z" fill="#F7F3CF"/>
<path d="M35.6739 53.9997C35.978 53.9096 35.9627 54.4251 35.6945 54.3172C35.5457 54.2576 35.5317 54.0415 35.6739 53.9997Z" fill="#F7F3CF"/>
<path d="M39.4079 19.9424C39.7525 19.8384 39.7127 20.3301 39.4169 20.2348C39.2657 20.186 39.2797 19.9808 39.4079 19.9424Z" fill="#F7F3CF"/>
<path d="M28.4494 41.2627C28.8021 41.1601 28.74 41.6515 28.4494 41.5649C28.3181 41.5258 28.3185 41.3008 28.4494 41.2627Z" fill="#F7F3CF"/>
<path d="M26.1262 45.4844C26.3137 45.3668 26.5268 45.6215 26.3515 45.7615C26.1339 45.9353 26.004 45.5608 26.1262 45.4844Z" fill="#F7F3CF"/>
<path d="M39.6189 23.3287C39.7181 23.4264 39.6374 23.618 39.4726 23.5988C39.1272 23.5587 39.3993 23.1123 39.6189 23.3287Z" fill="#F7F3CF"/>
<path d="M29.2012 42.3298C29.0346 42.1658 29.3768 41.9414 29.4896 42.1285C29.6017 42.3145 29.3349 42.4614 29.2012 42.3298Z" fill="#F7F3CF"/>
<path d="M39.0233 55.7979C38.8557 55.9989 38.6273 55.7075 38.7639 55.5728C38.9004 55.4381 39.1672 55.6255 39.0233 55.7979Z" fill="#F7F3CF"/>
<path d="M40.0026 29.1218C40.107 29.2271 40.0155 29.4257 39.8678 29.411C39.5112 29.3755 39.8175 28.9344 40.0026 29.1218Z" fill="#F7F3CF"/>
<path d="M39.6013 54.8051C39.7501 54.662 40.0211 54.8438 39.8751 55.0267C39.7292 55.2095 39.4651 54.936 39.6013 54.8051Z" fill="#F7F3CF"/>
<path d="M30.0892 54.7325C30.1311 54.7196 30.1748 54.7206 30.2174 54.7304C30.3232 54.7656 30.3124 55.0821 30.1164 55.0745C29.9237 55.0423 29.9286 54.7817 30.0896 54.7325H30.0892Z" fill="#F7F3CF"/>
<path d="M33.4768 53.1649C33.6346 53.323 33.3842 53.5464 33.2232 53.4012C33.0622 53.256 33.3297 53.0177 33.4768 53.1649Z" fill="#F7F3CF"/>
<path d="M36.4764 53.1967C36.7586 53.1109 36.789 53.5558 36.4705 53.5069C36.3067 53.4818 36.3399 53.2382 36.4764 53.1967Z" fill="#F7F3CF"/>
<path d="M39.3571 21.8809C39.2356 21.758 39.3428 21.5776 39.5384 21.6104C39.8258 21.6586 39.5324 22.0585 39.3571 21.8809Z" fill="#F7F3CF"/>
<path d="M29.4629 54.1598C29.3452 54.2771 29.0966 54.171 29.1738 53.9951C29.2792 53.7554 29.6525 53.9707 29.4629 54.1598Z" fill="#F7F3CF"/>
<path d="M31.695 53.092C31.9887 53.0027 31.9929 53.4825 31.6957 53.3942C31.5305 53.3454 31.5546 53.1346 31.695 53.092Z" fill="#F7F3CF"/>
<path d="M40.8734 56.4085C41.1929 56.3125 41.1598 56.7522 40.9034 56.7166C40.7428 56.6943 40.7327 56.4507 40.8734 56.4085Z" fill="#F7F3CF"/>
<path d="M39.3568 24.9688C39.5471 24.7709 39.8199 25.2556 39.4644 25.265C39.2978 25.2696 39.2664 25.0633 39.3568 24.9688Z" fill="#F7F3CF"/>
<path d="M33.4416 55.0671C33.275 55.2329 33.0106 54.9816 33.2209 54.8288C33.4046 54.6951 33.576 54.9335 33.4416 55.0671Z" fill="#F7F3CF"/>
<path d="M36.6874 54.8748C36.8124 55.0151 36.5512 55.2692 36.4133 55.0961C36.2593 54.9028 36.5624 54.7342 36.6874 54.8748Z" fill="#F7F3CF"/>
<path d="M36.9319 42.8533C36.7901 43.0162 36.5125 42.7814 36.67 42.6264C36.8334 42.4656 37.0695 42.6952 36.9319 42.8533Z" fill="#F7F3CF"/>
<path d="M27.1598 46.3254C27.3641 46.5295 26.9021 46.7745 26.8856 46.474C26.8759 46.2954 27.0498 46.2155 27.1598 46.3254Z" fill="#F7F3CF"/>
<path d="M34.9326 53.1705C35.2214 53.1559 35.1103 53.6339 34.8617 53.4724C34.7119 53.375 34.7814 53.1782 34.9326 53.1705Z" fill="#F7F3CF"/>
<path d="M39.916 57.5095C39.7969 57.4059 39.8919 57.2045 40.0968 57.2391C40.378 57.2862 40.107 57.6756 39.916 57.5095Z" fill="#F7F3CF"/>
<path d="M25.5446 49.646C25.7723 49.6349 25.7614 49.9776 25.5453 49.9776C25.3137 49.9776 25.3525 49.6551 25.5446 49.646Z" fill="#F7F3CF"/>
<path d="M38.017 26.6407C38.1266 26.9509 37.666 27.02 37.7072 26.7251C37.7285 26.5709 37.9052 26.5806 38.017 26.6407Z" fill="#F7F3CF"/>
<path d="M30.2312 41.4923C30.1187 41.6005 29.8547 41.522 29.9431 41.3272C30.0614 41.0662 30.3785 41.3506 30.2312 41.4923Z" fill="#F7F3CF"/>
<path d="M32.5515 43.115C32.6965 42.9701 32.9821 43.2001 32.7722 43.353C32.5892 43.4863 32.4167 43.2493 32.5515 43.115Z" fill="#F7F3CF"/>
<path d="M39.9679 62.2348C40.11 62.2079 40.2287 62.3569 40.1334 62.4717C39.9204 62.7285 39.67 62.2909 39.9679 62.2348Z" fill="#F7F3CF"/>
<path d="M39.6188 14.9541C39.711 15.0455 39.6502 15.2154 39.5021 15.2235C39.1435 15.2426 39.4068 14.7443 39.6188 14.9541Z" fill="#F7F3CF"/>
<path d="M28.6949 42.9405C28.8569 43.1014 28.515 43.3407 28.4071 43.1055C28.3195 42.9147 28.595 42.8414 28.6949 42.9405Z" fill="#F7F3CF"/>
<path d="M33.0498 43.9577C33.2056 43.9654 33.2772 44.2006 33.1116 44.2508C32.8008 44.345 32.7995 43.9455 33.0498 43.9577Z" fill="#F7F3CF"/>
<path d="M30.1248 42.8668C30.326 42.811 30.4485 43.1446 30.2076 43.1952C30.0431 43.2297 29.9432 42.9171 30.1248 42.8668Z" fill="#F7F3CF"/>
<path d="M40.9103 63.1103C41.0276 63.2261 40.881 63.4861 40.6896 63.3483C40.4982 63.2104 40.7556 62.9571 40.9103 63.1103Z" fill="#F7F3CF"/>
<path d="M41.7131 58.9221C41.9264 59.113 41.5199 59.3698 41.4477 59.0983C41.3974 58.9103 41.6226 58.8412 41.7131 58.9221Z" fill="#F7F3CF"/>
<path d="M31.9381 44.6469C32.1832 44.5628 32.2852 44.8398 32.0799 44.9306C31.8972 45.0112 31.7729 44.7034 31.9381 44.6469Z" fill="#F7F3CF"/>
<path d="M40.351 55.5693C40.4757 55.5348 40.5972 55.6716 40.5319 55.785C40.3709 56.0642 40.0559 55.651 40.351 55.5693Z" fill="#F7F3CF"/>
<path d="M40.6658 30.1511C40.5901 30.2265 40.3736 30.2042 40.376 30.0737C40.3826 29.7279 40.86 29.9582 40.6658 30.1511Z" fill="#F7F3CF"/>
<path d="M39.129 28.2815C39.3926 28.2036 39.4192 28.5596 39.1863 28.5819C39.0075 28.599 38.9743 28.3272 39.129 28.2815Z" fill="#F7F3CF"/>
<path d="M37.9924 53.3957C37.8534 53.173 38.2655 52.9863 38.2938 53.284C38.3113 53.4696 38.0336 53.4616 37.9924 53.3957Z" fill="#F7F3CF"/>
<path d="M41.572 57.2446C41.8101 57.1717 41.8768 57.4871 41.6561 57.5356C41.4595 57.5789 41.382 57.3029 41.572 57.2446Z" fill="#F7F3CF"/>
<path d="M39.0606 54.2296C38.8912 54.38 38.6303 54.0067 38.9139 53.9592C39.1377 53.9215 39.1597 54.1421 39.0606 54.2296Z" fill="#F7F3CF"/>
<path d="M27.7789 43.7463C27.9804 43.7459 28.0481 44.142 27.7164 44.0415C27.5435 43.9892 27.6347 43.7466 27.7789 43.7463Z" fill="#F7F3CF"/>
<path d="M40.1425 27.5165C40.3028 27.6826 40.0377 27.9032 39.9036 27.7378C39.7786 27.5835 40.036 27.4063 40.1425 27.5165Z" fill="#F7F3CF"/>
<path d="M29.5363 52.5233C29.4759 52.6203 29.1365 52.5494 29.2441 52.3533C29.3551 52.1509 29.6561 52.3313 29.5363 52.5233Z" fill="#F7F3CF"/>
<path d="M26.0601 42.1728C26.1931 42.0409 26.4159 42.2066 26.3136 42.3738C26.2113 42.5409 25.9026 42.3288 26.0601 42.1728Z" fill="#F7F3CF"/>
<path d="M40.5934 28.3858C40.8952 28.2808 40.8871 28.6978 40.6249 28.6604C40.4614 28.637 40.4803 28.4252 40.5934 28.3858Z" fill="#F7F3CF"/>
<path d="M33.543 44.4752C33.7595 44.4571 33.7512 44.8242 33.5036 44.783C33.353 44.7582 33.3841 44.4881 33.543 44.4752Z" fill="#F7F3CF"/>
<path d="M27.785 50.5439C28.0514 50.455 28.0773 50.858 27.8161 50.8193C27.6502 50.7948 27.6743 50.5809 27.785 50.5439Z" fill="#F7F3CF"/>
<path d="M41.059 30.892C40.9409 30.9123 40.817 31.0138 40.7097 30.9102C40.5439 30.7503 41.0478 30.5731 41.059 30.892Z" fill="#F7F3CF"/>
<path d="M27.0113 52.9965C27.1911 53.0034 27.1656 53.2896 27.0116 53.2948C26.8112 53.3018 26.7769 52.9874 27.0113 52.9965Z" fill="#F7F3CF"/>
<path d="M28.4676 51.6816C28.2881 51.475 28.7913 51.3012 28.74 51.6027C28.7201 51.7186 28.5353 51.7594 28.4676 51.6816Z" fill="#F7F3CF"/>
<path d="M26.8786 41.2979C27.106 41.2296 27.1608 41.5122 26.9684 41.5656C26.776 41.619 26.7107 41.3482 26.8786 41.2979Z" fill="#F7F3CF"/>
<path d="M41.2418 29.2264C41.4349 29.0303 41.6277 29.4944 41.3197 29.4822C41.1845 29.477 41.1622 29.3074 41.2418 29.2264Z" fill="#F7F3CF"/>
<path d="M39.7238 56.4103V56.6022C39.6522 56.6507 39.5439 56.6723 39.4849 56.5966L39.458 56.441C39.5516 56.4078 39.6309 56.3356 39.7238 56.4106V56.4103Z" fill="#F7F3CF"/>
<path d="M34.4856 43.9486C34.7789 43.8509 34.7021 44.3251 34.4626 44.2061C34.3557 44.1528 34.3941 43.9793 34.4856 43.9486Z" fill="#F7F3CF"/>
<path d="M41.2586 54.8012C41.4416 54.7757 41.4611 55.0608 41.2834 55.0769C41.1056 55.0929 41.0571 54.8291 41.2586 54.8012Z" fill="#F7F3CF"/>
<path d="M31.8681 43.7738C31.9952 43.7309 32.1517 43.8377 32.0567 43.9633C31.8974 44.1744 31.6533 43.8464 31.8681 43.7738Z" fill="#F7F3CF"/>
<path d="M37.7401 42.1672C37.7894 42.3326 37.5784 42.4453 37.4639 42.3207C37.43 42.2091 37.6556 42.0904 37.7401 42.1672Z" fill="#F7F3CF"/>
<path d="M49.958 30.4743L49.0437 30.7636L48.8765 30.7877L49.5047 30.5612L49.958 30.4743Z" fill="#F7F3CF"/>
<path d="M32.6351 45.3442C32.8167 45.2841 32.8911 45.4638 32.7525 45.5319C32.5677 45.6226 32.5175 45.3829 32.6351 45.3442Z" fill="#F7F3CF"/>
<path d="M41.6564 55.9081C41.5757 55.7794 41.7573 55.6126 41.8457 55.7364C41.9417 55.8711 41.7196 56.0093 41.6564 55.9081Z" fill="#F7F3CF"/>
<path d="M37.4286 43.2113C37.4482 43.2908 37.3315 43.3261 37.2774 43.3561C37.195 43.4015 37.1091 43.459 37.0103 43.4549L37.2551 43.2291L37.4286 43.2109V43.2113Z" fill="#F7F3CF"/>
<path d="M39.1264 29.8479C39.2615 29.8081 39.3495 30.0346 39.1553 30.0562C38.9762 30.0758 39.0446 29.872 39.1264 29.8479Z" fill="#F7F3CF"/>
<path d="M31.4608 44.1186C31.4744 44.1343 31.4028 44.4881 31.3218 44.5021C31.3228 44.3838 31.2963 44.1371 31.4608 44.1186Z" fill="#F7F3CF"/>
<path d="M51.0573 51.3256C51.9289 51.3256 51.9715 52.5843 51.162 52.6674C50.1678 52.7696 50.1884 51.3253 51.0573 51.3256Z" fill="#F7F3CF"/>
<path d="M44.7149 23.2572C44.9272 23.2278 45.1465 23.3591 45.2614 23.5321C45.6333 24.0912 44.8818 24.6956 44.4107 24.2779C44.0343 23.9443 44.2319 23.3238 44.7145 23.2572H44.7149Z" fill="#F7F3CF"/>
<path d="M47.1568 54.6997C47.7166 54.5845 47.8713 55.3955 47.3782 55.5142C46.7807 55.6579 46.6243 54.8093 47.1568 54.6997Z" fill="#F7F3CF"/>
<path d="M54.3678 49.0267C54.0546 48.7168 54.445 48.1815 54.8428 48.4297C55.3313 48.7343 54.723 49.3778 54.3678 49.0267Z" fill="#F7F3CF"/>
<path d="M48.8678 25.5613C49.365 25.479 49.4548 26.2264 48.9603 26.2854C48.5178 26.3385 48.3921 25.6398 48.8678 25.5613Z" fill="#F7F3CF"/>
<path d="M26.4625 28.8422C26.715 28.8126 27.0377 28.9787 27.1749 29.1936C27.6397 29.9208 26.6888 30.6666 26.0857 30.178C25.5769 29.7663 25.8186 28.9183 26.4625 28.8422Z" fill="#F7F3CF"/>
<path d="M30.7204 31.9818C31.3657 31.9312 31.6119 32.8825 31.0154 33.1522C30.1253 33.5546 29.7324 32.0593 30.7204 31.9818Z" fill="#F7F3CF"/>
<path d="M29.5261 25.9581C29.0606 26.5506 28.1136 25.8119 28.6336 25.1967C29.0938 24.6523 30.0598 25.2783 29.5261 25.9581Z" fill="#F7F3CF"/>
<path d="M32.7783 27.1658C33.2543 27.0727 33.5769 27.7542 33.1135 28.026C32.4626 28.4078 32.0687 27.3047 32.7783 27.1658Z" fill="#F7F3CF"/>
<path d="M35.4643 34.704C36.0202 34.5752 36.103 35.3527 35.6221 35.4225C35.1409 35.492 35.0986 34.7888 35.4643 34.704Z" fill="#F7F3CF"/>
<path d="M33.2988 23.6923C32.9032 24.0695 32.4083 23.411 32.8585 23.1298C33.2185 22.9051 33.6159 23.3894 33.2988 23.6923Z" fill="#F7F3CF"/>
<path d="M35.1494 30.5197C35.4654 30.8125 35.0443 31.3432 34.6884 31.0675C34.3102 30.7748 34.797 30.1931 35.1494 30.5197Z" fill="#F7F3CF"/>
<path d="M21.7512 39.1005C22.4043 39.0489 22.6899 40.0228 22.0732 40.3324C21.1356 40.8031 20.692 39.1843 21.7512 39.1005Z" fill="#F7F3CF"/>
<path d="M21.6458 43.8454C22.1787 43.7805 22.1623 44.7115 21.5833 44.5555C21.2009 44.4526 21.2816 43.89 21.6458 43.8454Z" fill="#F7F3CF"/>
</svg>
