<svg width="21" height="30" viewBox="0 0 21 30" fill="none" xmlns="http://www.w3.org/2000/svg">
<path d="M18.7563 4.16044C17.1795 2.04904 14.7162 0.556805 12.1148 0.133633C11.8074 0.0846343 11.4689 0.0890887 11.1749 0H9.6693L7.73162 0.3519C5.54894 0.922068 3.46872 2.32967 2.11457 4.12481C-4.23745 12.5303 5.32622 22.6018 9.75838 29.426L10.1905 29.72H10.6537L11.0858 29.426C15.5224 22.5795 25.0505 12.5927 18.7563 4.16044ZM10.48 27.2834L10.3597 27.2478C8.23497 24.0807 5.82957 21.0784 4.02107 17.7064C2.0433 14.027 0.635699 10.0091 2.90301 6.07585C6.21711 0.316265 14.6226 0.316265 17.9412 6.07585C20.3243 10.2096 18.6361 14.468 16.5158 18.2632C14.7474 21.4214 12.4622 24.2678 10.48 27.279V27.2834Z" fill="white"/>
<path d="M9.88738 5.24288C6.40401 5.58142 4.26588 9.2786 5.62003 12.5036C7.26817 16.4235 12.7382 16.7754 14.9075 13.1183C17.0947 9.42559 14.1325 4.83307 9.88738 5.24733V5.24288ZM10.7382 13.929C6.20356 14.3166 5.57103 7.48791 10.0032 6.98011C14.6714 6.44558 15.2906 13.537 10.7382 13.929Z" fill="white"/>
</svg>
