<svg width="77" height="77" viewBox="0 0 77 77" fill="none" xmlns="http://www.w3.org/2000/svg">
<circle cx="38.5" cy="38.5" r="38.5" fill="#4B5A2A"/>
<path d="M39.4665 4.00071C39.4532 3.9961 39.5089 4.03012 39.52 4.03047L40.1413 4.0535C44.9039 4.22961 49.9271 5.58245 54.1745 7.73042C55.0057 8.15066 55.7913 8.56806 56.5783 9.05102C57.1999 9.43264 57.7805 9.79689 58.3773 10.2214C59.3685 10.9262 60.3266 11.6589 61.2484 12.464C63.6403 14.5528 65.7497 16.9438 67.493 19.5843C68.2803 20.7766 68.9735 22.0083 69.5994 23.2874C71.6009 27.3771 72.7744 32.0451 72.9606 36.5735L72.9814 37.0781C73.0098 37.7662 73.0012 38.4341 72.9764 39.1176C72.7377 45.642 70.637 52.0961 66.8131 57.442C64.4205 60.7869 61.4282 63.7647 57.9872 66.0686C55.1862 67.9437 52.1238 69.4114 48.9014 70.4201C45.917 71.3545 43.0146 71.8357 39.9044 71.9633L39.3586 71.9856C38.2509 72.0309 36.3782 71.9643 35.2597 71.8552C33.9978 71.7322 32.7783 71.5738 31.534 71.317C28.8401 70.7607 26.1954 69.8975 23.7173 68.7282C23.082 68.4284 22.4906 68.1411 21.8797 67.8005C20.4722 67.0164 19.2667 66.2698 17.9613 65.3188C15.0894 63.2265 12.8148 60.9407 10.686 58.1095C8.92257 55.7646 7.46507 53.14 6.37248 50.4269C6.08271 49.7072 5.84506 49.0085 5.60418 48.2676C4.72084 45.547 4.22937 42.7492 4.05357 39.9011C4.03559 39.6091 4.03559 39.2321 4.03379 38.9773C4.03379 38.9621 3.99424 38.9011 4.00072 38.9196V37.0426L4.05177 36.2319C4.27935 32.6195 5.00306 29.1573 6.32718 25.7819C6.9452 24.2069 7.62793 22.6727 8.50516 21.2295L9.51866 19.5613C10.2923 18.2874 11.2296 17.1543 12.205 16.0151C14.9992 12.751 18.4377 10.051 22.2482 8.02239C24.2256 6.96967 26.2835 6.11289 28.4396 5.48253C29.8324 5.0754 31.2144 4.73701 32.6478 4.50493C33.8957 4.30296 35.1137 4.13571 36.3724 4.07122L36.8473 4.04677C37.0239 4.03756 37.1972 4.04677 37.3467 4H39.4668L39.4665 4.00071ZM17.7427 44.0889C18.4765 44.1513 18.328 44.4681 18.5434 44.4029C19.3455 44.1605 20.2349 43.9121 21.0798 43.7116C21.3944 43.6368 21.7104 43.7768 21.906 44.0124L27.8992 42.4367L29.1895 42.1075C29.4628 42.0377 29.708 42.0749 29.9794 42.0969C30.3688 42.1284 30.7455 42.0242 31.131 41.9654L31.1428 42.0072L30.7215 42.2769L30.6805 42.3045L30.6373 42.3343C30.4295 42.4785 30.0682 42.6567 29.9844 42.7152L29.9129 42.7651C30.0427 42.7467 30.1584 42.735 30.3005 42.6992L35.9014 41.2879L39.7606 40.2997L44.452 39.0879L46.5063 38.5415C46.4268 37.5653 46.9916 37.0317 47.8408 36.6401L56.2306 32.7712L59.3955 31.211C60.3723 30.7295 64.0491 28.5904 64.8613 27.9703C65.1201 27.7726 65.2212 27.4399 65.0979 27.1397C64.9555 26.7943 64.7768 26.4846 64.6132 26.1444C64.1171 25.113 64.0329 23.9327 64.3957 22.8374C64.6786 21.9842 65.224 21.2575 65.9143 20.6841C65.9366 20.6657 65.979 20.6427 65.9711 20.6278C65.9632 20.6129 65.9427 20.5775 65.9273 20.5537C65.2258 19.4854 64.4841 18.4678 63.6497 17.4944C63.0906 16.8417 62.5452 16.2376 61.9402 15.6278C60.0135 13.6864 58.2324 12.2531 55.906 10.7865C54.6329 9.98398 53.3088 9.32634 51.9483 8.69669C51.9261 8.68641 51.8869 8.66444 51.8836 8.67685L51.8657 8.7424L51.6902 9.38906L49.7761 16.8049L49.2293 18.8891C49.1728 19.1035 49.1178 19.2913 48.9848 19.4755L46.8827 22.3867C46.7338 22.5929 46.5487 22.735 46.3362 22.8392L45.7182 25.339C45.638 25.6636 45.3037 25.8776 45.0222 25.8854C44.9909 25.8861 44.9427 25.9414 44.9348 25.9701L44.5447 27.3814L43.5812 30.7483C43.4744 31.121 43.2048 31.4158 43.0038 31.7719L43.0063 31.0108H42.9128L42.6331 32.0522L41.8292 34.967L41.2206 37.1369C41.1526 37.3796 40.8413 37.8534 40.9495 37.341L41.844 33.0957L42.0209 32.2538C41.9975 32.3647 42.4692 30.3107 42.2262 30.7224C42.2208 30.7313 42.1988 30.7614 42.1924 30.7741L41.8487 31.4552C41.8612 31.0176 41.7616 30.6175 41.8479 30.2019L42.8514 25.3681C42.5735 25.204 42.4102 24.894 42.4846 24.5768L42.9962 22.3963C43.0182 22.3034 43.0602 22.1964 43.0861 22.1082C42.943 21.9388 42.8291 21.7705 42.782 21.5498L41.9957 17.8665C41.9709 17.7506 41.9813 17.6014 42.0047 17.4912L42.3631 15.8163L43.3978 10.8882L43.8062 8.98901L44.3944 6.37581C39.8166 5.54737 35.4204 5.7008 30.908 6.711L31.9611 10.4088L32.4569 12.1631L33.6652 16.4562L36.4465 26.1997C36.5626 26.6065 36.1729 26.9789 35.8583 27.1649L36.8747 30.5754L37.534 32.7556L38.4835 35.9233L38.975 37.6404C39.016 37.7836 39.0149 37.9171 39.0135 38.0911L38.916 38.0869C38.788 37.7694 38.6805 37.5153 38.5759 37.2017L36.5975 31.2688L35.57 28.2059L35.2953 27.3449C34.8125 27.4282 34.3537 27.2025 34.193 26.7241L33.9589 26.0278L32.775 22.4895L31.6659 19.1913L29.8392 13.8774L29.2888 12.2974L28.4536 9.86599L27.6921 7.63794C26.5913 8.03231 25.5346 8.43732 24.4942 8.93728C23.2391 9.54036 22.0322 10.17 20.8623 10.9223C19.211 11.9835 17.6607 13.1567 16.2281 14.49C14.3222 16.2631 12.6544 18.146 11.2246 20.3181L11.6607 20.6119L16.8515 24.338L21.1797 27.4338L22.771 28.562L23.6274 29.1722L27.1949 31.7071L28.6168 32.7148C29.0126 32.9955 29.0881 33.4972 28.7951 33.894L32.0945 36.1529L33.8788 37.3757C34.0495 37.4926 36.4289 39.0457 36.3142 39.1488C36.2182 39.2353 35.786 38.9539 35.6437 38.8657L32.4896 36.9101L28.5007 34.3848C28.2185 34.613 27.7716 34.9 27.4059 34.698C26.9709 34.4574 26.5837 34.2034 26.1674 33.9302L23.1945 31.9785L21.8858 31.1395C21.8132 31.2737 21.755 31.3535 21.6629 31.3634C21.4702 31.3836 21.2621 31.1256 21.2811 31.0062C21.2898 30.9531 21.3559 30.8971 21.4239 30.8408L20.9486 30.4992L19.7302 29.6906L18.7713 29.0719L16.667 27.6819L15.6478 27.0175L13.7118 25.7405L12.004 24.6226L9.59811 23.0405C8.81363 24.5131 8.14492 26.0165 7.61607 27.5951C7.21628 28.7881 6.86539 29.9549 6.61012 31.1852C6.37751 32.3063 6.19524 33.3994 6.06365 34.5393C5.63618 38.2406 5.90618 42.1217 6.78701 45.733L13.2224 43.9029C13.4579 43.8359 13.7157 43.7466 13.9552 43.7668L17.7434 44.0879L17.7427 44.0889ZM46.7899 12.532L47.5309 9.41244L48.0684 7.24569L46.2578 6.77691L45.254 6.54518L43.6074 14.2392L42.9711 17.2429L45.5377 17.8144L45.9832 15.9141L46.7896 12.5323L46.7899 12.532ZM31.383 15.699L32.4407 15.35L32.065 13.9766L30.0693 6.91475L28.5068 7.36688L29.905 11.4056L30.8458 14.1272L31.383 15.699ZM49.3317 14.9535L50.2719 11.3333L51.061 8.32216C50.626 8.13365 50.1838 7.96747 49.7326 7.8105L48.8877 7.5164L48.0105 11.2107L47.1847 14.6817L46.3934 18.0001L48.4214 18.4834L49.3325 14.9539L49.3317 14.9535ZM35.0289 26.5009C35.2892 26.4389 35.4075 26.3974 35.5966 26.3032L35.1964 24.9468L33.3395 18.4681L32.6751 16.148L31.6623 16.469L31.9794 17.4044L32.8139 19.8802L34.2854 24.2633L35.0292 26.5005L35.0289 26.5009ZM46.9409 20.8429L48.0831 19.2785L46.8075 18.9748L42.9333 18.1L43.2166 19.4744L43.6358 21.4041L46.1119 21.9495L46.9409 20.8429ZM24.5219 31.8502L25.0392 31.2018L24.1749 30.6179L21.8499 28.9755L18.5409 26.6139L17.3073 25.7306L12.7587 22.4679L11.1135 21.2893L10.768 21.02L10.0058 22.2832L12.1202 23.6556L14.489 25.2118L16.7573 26.6982L20.565 29.2094L22.5262 30.5105L24.1534 31.5916L24.5219 31.8502ZM67.5588 31.4987L64.1919 32.3764L61.4969 33.1092C61.4246 33.2091 61.3588 33.3154 61.3078 33.4185L60.9109 34.2165L61.8855 33.9174L65.3725 32.8948L67.6724 32.2531C68.2972 32.0788 68.912 32.3265 69.2715 32.8601C69.4578 33.1365 69.5685 33.4501 69.6728 33.7729C69.9223 34.5442 70.3803 35.1144 71.0418 35.5931L70.9807 34.8174C70.0578 34.0616 69.672 32.5961 70.554 31.6515L70.3767 30.8946C69.7598 31.1271 69.2582 31.0849 68.8904 30.5247C68.5227 29.9648 68.175 29.4046 67.8655 28.8179C67.6569 28.4221 67.7802 27.9951 68.1376 27.7581C68.5058 27.5143 68.862 27.307 69.2518 27.0841L69.0569 26.6072C68.2814 27.0519 67.2305 26.8598 66.5956 26.3159C65.1543 25.0814 65.2744 22.994 66.6963 21.8102L66.4432 21.3577C65.1291 22.4182 64.6941 24.1754 65.3833 25.7086C65.5095 25.9892 65.6303 26.2443 65.7892 26.5147C66.2386 27.2797 66.038 28.2268 65.2805 28.7488C64.3263 29.4064 63.3272 29.9762 62.313 30.5555L61.0115 31.2989C60.1724 31.7783 59.3455 32.2248 58.4675 32.6454L55.3793 34.1251C55.3012 34.5368 55.2027 34.9354 55.0381 35.317C54.9101 35.6133 54.6814 35.8191 54.3787 35.946L51.0733 37.3307L48.9424 38.2073C48.4775 38.3987 48.0482 38.5404 47.5499 38.7062L47.5855 38.752C47.9102 38.871 48.2546 38.8483 48.5843 38.7254L50.1461 38.1425L53.8491 36.7581L59.7154 34.5861C59.8359 34.5414 59.9161 34.4344 59.965 34.3277L60.5524 33.0397C60.6631 32.7967 60.8411 32.5805 61.0672 32.4413L61.7784 32.003L64.1735 30.4712L66.3033 29.1003C66.5395 28.9483 66.8315 28.9734 67.0033 29.2165C67.3413 29.6948 67.6249 30.1966 67.9154 30.7192C68.0779 31.0119 67.9269 31.4038 67.5595 31.4998L67.5588 31.4987ZM44.9147 24.9953L45.5082 22.6964L43.8846 22.3112L43.7067 23.1584L43.3586 24.6218L44.9147 24.995V24.9953ZM67.3233 25.7798C67.7828 26.0654 68.2972 26.0505 68.743 25.8234C68.2782 24.6867 67.7508 23.6347 67.1647 22.5515C66.7628 22.9069 66.5205 23.3625 66.4457 23.9018C66.3454 24.6243 66.6805 25.3805 67.3233 25.7798ZM43.3888 28.4929L44.1561 25.653L43.6488 25.5279L43.0991 28.1368L43.3888 28.4929ZM70.165 30.092L69.5203 27.887L68.6445 28.4908C68.9203 29.0117 69.2345 29.5315 69.5574 29.9985C69.7181 30.2306 69.8978 30.1541 70.1646 30.0924L70.165 30.092ZM42.9157 30.1409L43.1397 29.2537L42.9315 28.8958L42.7449 29.8649C42.7277 29.9542 42.8363 30.0757 42.9157 30.1409ZM63.8852 31.6423L66.9835 30.7996L66.4759 29.9755L65.7533 30.4478L64.1933 31.4545L63.8848 31.6423H63.8852ZM28.093 33.3799L27.127 32.7024L25.6953 31.6855L25.2348 32.3013L27.7018 33.8994L28.093 33.3799ZM34.7819 59.0092L32.8239 64.7327L31.9859 67.2046L31.2744 69.3026C31.2643 69.3345 31.2532 69.3628 31.269 69.3664L31.3661 69.3887C33.0127 69.766 34.6744 69.9825 36.3713 70.0942C39.547 70.3032 42.7241 70.0417 45.8224 69.3394C46.6882 69.1431 47.5079 68.9376 48.3474 68.6697C49.0057 68.4596 50.7245 67.8696 51.2696 67.5989C51.2865 67.5904 51.2732 67.5408 51.2613 67.516L50.127 65.1328L48.0824 60.8057L45.9109 56.1561L44.448 53.0642L43.6002 51.2723C43.4226 50.8967 43.656 50.468 43.9975 50.2639L40.81 43.263C40.7039 43.0302 40.5422 42.6124 40.5217 42.4026C40.49 42.0738 41.0998 43.23 41.0861 43.2034L41.9702 44.9251L44.544 50.0024C45.0196 49.8288 45.4586 50.0396 45.683 50.4779L46.667 52.4019L47.2156 53.4596L48.9999 56.8045L53.317 64.8266L54.0444 66.1724C54.0566 66.1951 54.0907 66.2723 54.1145 66.2631C54.1382 66.2539 54.1817 66.2337 54.2263 66.2092C56.4736 64.9832 58.5833 63.5461 60.4579 61.8137L61.2628 61.07C61.2934 61.0416 61.357 60.9974 61.3434 60.9676L61.292 60.8556L61.0367 60.288L59.4742 56.7733C59.3588 56.5133 59.1956 56.3315 58.9504 56.1965C58.5395 55.9697 58.2252 55.6427 58.0322 55.2104L57.0349 52.9774L55.755 50.1664C55.5799 49.7816 55.7359 49.3277 55.9768 49.0025C56.2011 48.6995 56.5786 48.4766 57.0054 48.4841C57.6353 48.4947 58.2029 48.8572 58.4819 49.4021L59.0493 50.5116L60.3479 53.128L60.8771 54.3129C60.995 54.5772 61.224 54.76 61.3585 55.0392L63.2283 58.921L63.2952 58.9383L63.3405 58.8845L63.375 58.8434L63.4095 58.8023L63.4426 58.7622L63.4739 58.725L63.5048 58.6885L63.5375 58.6502L63.5717 58.6106L63.7547 58.398L63.7881 58.3615L63.8244 58.3232C63.8349 58.3122 63.8514 58.2956 63.8633 58.281C65.5228 56.2397 66.9659 54.0319 68.0804 51.6564L68.107 51.5994L68.129 51.5526L68.1505 51.5069L68.1732 51.4598L68.1962 51.4116L68.2196 51.3634L68.2429 51.3155L68.2667 51.2681L68.2904 51.2206L68.3145 51.1731L68.3382 51.1267L68.3616 51.0817L68.3774 51.0147L67.7242 50.7833L67.6346 50.7458L63.4031 49.2771L60.1001 48.1248L54.6965 46.2652L53.5097 45.8422C53.1423 45.7111 52.9255 45.3528 52.9812 44.9772C52.987 44.9379 52.9478 44.8741 52.9162 44.8635L49.9616 43.888L48.9312 43.556L46.7748 42.8509L44.8431 42.2003L44.8456 42.1181C44.9794 42.0643 45.2663 42.1213 45.3838 42.1539L49.0571 43.1687L53.0848 44.337C53.1258 44.349 53.1934 44.3182 53.2085 44.2799C53.3767 43.8597 53.8628 43.6223 54.328 43.7569L61.1187 45.7192L64.7412 46.7627L68.152 47.7506L69.4233 48.1312C69.4481 48.1386 69.4923 48.1545 69.4984 48.1386C69.5056 48.1205 69.5203 48.0805 69.5297 48.0521C69.9525 46.751 70.3026 45.4524 70.5547 44.101C70.9149 42.1691 71.1763 40.2518 71.1472 38.2888L71.1224 36.6189C70.6223 36.3963 70.2156 36.0796 69.831 35.6951C69.2985 35.1633 68.9512 34.5106 68.7463 33.7863C68.6298 33.3735 68.3476 32.9756 67.8644 33.0943C67.3812 33.213 66.9526 33.3402 66.487 33.4745L64.5679 34.0287L60.9756 35.1027L55.4066 37.1057L50.3966 38.9578L48.8676 39.5092C48.0234 39.8135 47.1394 39.7661 46.6389 38.911L43.5665 39.7125L36.1395 41.6748L31.3441 42.9533C31.3366 42.9809 31.3262 43.0057 31.3424 43.0082L31.4182 43.0202C31.5624 43.0429 31.6864 43.0734 31.8076 43.1269L31.0066 43.1946C30.7333 43.2176 30.4878 43.2442 30.2214 43.3041L31.2208 43.5188L29.8902 44.0145L27.3143 44.8018L22.5776 46.2089C22.5006 46.4888 22.3744 46.8308 22.0699 46.9243L19.4688 47.7258C19.4386 47.9554 19.3627 48.1701 19.1869 48.3296C18.8447 48.6403 18.4999 48.9199 18.1328 49.2055L16.4661 50.5024C16.246 50.6735 16.0235 50.8787 15.7596 50.9793C15.028 51.2585 14.2906 51.4381 13.5363 51.6568L11.6312 52.2173L9.50463 52.8402C9.91305 53.5967 10.3139 54.3033 10.7835 55.0169C11.5464 56.1766 12.3301 57.3059 13.2278 58.3742C15.1398 60.649 17.3361 62.6684 19.7934 64.3575C20.7016 64.9818 21.6072 65.5675 22.579 66.0728L24.2544 66.9438L25.81 67.6659L26.4564 65.8457C26.1383 65.8893 25.851 65.6859 25.7324 65.4311C25.5986 65.1441 25.6533 64.8132 25.8787 64.5991C26.1832 64.3097 26.5992 64.3384 26.8757 64.6399L28.2016 60.8319L29.0162 58.4834L29.5192 57.0671C29.7274 56.4807 30.3788 56.3694 30.9447 56.4183C31.0932 55.969 31.2492 55.5293 31.4549 55.1126C31.5721 54.8755 31.8532 54.8344 32.0902 54.811L32.5827 53.6439C32.7315 53.2913 32.8459 52.9519 33.0184 52.6174C33.1623 52.3385 33.4646 52.2148 33.7763 52.2974L34.6496 50.0474L35.3082 48.3165L36.7061 44.6902C36.8283 44.9028 36.8251 45.1218 36.7499 45.3511L34.4123 52.4905C34.619 52.6677 34.9056 52.9019 34.8207 53.1857L34.1233 55.5162C34.371 55.722 34.4702 56.0232 34.3753 56.3255L34.0305 57.4211C34.6589 57.8534 35.0501 58.2233 34.7808 59.011L34.7819 59.0092ZM47.3745 38.0514L49.486 37.1436L51.9976 36.0778L54.1713 35.1388C54.3064 34.9673 54.3963 34.748 54.4639 34.5272L53.6687 34.9032L51.3177 35.9779L48.0572 37.4406C47.766 37.5713 47.5011 37.7336 47.3741 38.0514H47.3745ZM29.3003 43.3608L29.2352 42.9841C28.4151 43.2045 28.6373 43.0433 28.1832 43.7137L29.3003 43.3608ZM22.4122 45.3603L24.0836 44.8879L27.2395 43.9837C27.4282 43.77 27.5828 43.5617 27.7216 43.3328L27.2837 43.4571L26.0351 43.7849L22.2504 44.8018L22.4125 45.3599L22.4122 45.3603ZM21.686 46.1387C21.5652 45.5598 21.439 45.0662 21.2488 44.5524L18.7562 45.2302L19.2444 46.9013L21.6863 46.1391L21.686 46.1387ZM57.3671 46.2787L57.6324 45.5753L54.0436 44.5297L53.8322 45.0793L57.3671 46.2787ZM18.5297 47.7357L17.7557 44.9857L16.7555 44.8766L14.3395 44.6626L15.2196 47.5908L15.8772 49.8327L18.5297 47.7354V47.7357ZM13.4666 44.7402L7.00776 46.5707L7.83717 49.4142L14.296 47.5837L13.4666 44.7402ZM68.71 50.2178L69.205 48.9461L64.9217 47.6946L58.4032 45.805L58.1274 46.5466L61.7852 47.8023L66.0862 49.298L68.7103 50.2185L68.71 50.2178ZM8.71333 51.2783C8.8255 51.5296 8.94414 51.7602 9.08327 52.0249L13.3724 50.783L15.0833 50.2706L14.5412 48.3994L12.9122 48.8784L11.3522 49.3221L9.20012 49.9283L8.2348 50.2058L8.71333 51.2783ZM62.6635 59.642C62.4791 59.3128 62.322 58.9915 62.1562 58.6538C61.6346 57.5911 61.1323 56.5473 60.6754 55.457C60.2022 54.3281 59.3815 54.877 58.8591 53.7962L58.0706 52.1652L57.0546 50.0885L56.7253 49.3618C56.6146 49.4851 56.4661 49.7196 56.5265 49.8798C56.6904 50.3163 56.9223 50.687 57.1096 51.1146L58.7541 54.8688C59.0773 55.6065 59.7489 55.3578 60.2368 56.424L61.0935 58.297L62.0078 60.3199L62.6642 59.642H62.6635ZM58.1799 50.5449L57.833 49.8522C57.7661 49.7186 57.6755 49.5839 57.5687 49.4698L57.9944 50.3L58.2137 50.7174C58.2148 50.6551 58.2019 50.5881 58.1803 50.5449H58.1799ZM52.1065 67.2457L53.2728 66.6816C53.2811 66.6794 53.2797 66.621 53.2685 66.6004L50.3941 61.2255L49.2555 59.1187L48.0702 56.9264L47.5478 55.9474L46.7277 54.3819L44.8719 50.7646L44.4167 51.037L45.4834 53.2392L46.0795 54.4794L47.4982 57.4997L48.4408 59.5155L49.6025 61.9781L51.4418 65.857L52.1069 67.246L52.1065 67.2457ZM58.5686 51.3311L58.4841 51.3715L59.6551 53.7424L59.7395 53.702L58.5686 51.3311ZM33.3194 55.1842L33.9485 53.2587L33.6728 53.1499L32.9077 55.0545L33.319 55.1842H33.3194ZM33.2511 57.0671L33.5491 56.1419C33.0918 55.9485 32.6018 55.7894 32.12 55.66L31.7594 56.5668C32.2721 56.6841 32.7653 56.8371 33.2511 57.0667V57.0671ZM28.4327 62.8225L28.1088 63.7211L29.3549 64.1325C29.5142 64.1849 29.5796 64.3575 29.5278 64.4897C29.4879 64.5914 29.3319 64.703 29.1892 64.6661C28.7534 64.5538 28.3443 64.4131 27.9226 64.2611L27.6055 65.1714L28.853 65.5555C29.0037 65.6391 29.0921 65.7649 29.036 65.9215C28.9972 66.0299 28.8314 66.1401 28.6808 66.1037C28.2508 65.9995 27.8273 65.8659 27.3973 65.7242L27.0971 66.6259C27.5404 66.7585 27.9844 66.8924 28.418 67.0483C28.5629 67.1004 28.5942 67.2861 28.5446 67.3743C28.4845 67.4806 28.3558 67.5805 28.2142 67.5497C27.7687 67.4522 27.3358 67.3066 26.9123 67.1762L26.6319 67.9876L28.78 68.7115L30.3713 69.1786L32.3785 63.3172L34.014 58.5372C33.2503 57.8108 31.3805 57.1333 30.3529 57.3002L30.12 57.9196C30.573 58.0504 30.9659 58.1609 31.3704 58.3345C31.5128 58.3955 31.5786 58.5581 31.5397 58.6751C31.4969 58.8033 31.3265 58.8997 31.1759 58.8547L29.9366 58.4869L29.6418 59.3274C30.1002 59.4698 30.4856 59.5903 30.9059 59.7441C31.0339 59.7908 31.0957 59.9531 31.0644 60.0754C30.98 60.4035 30.4414 60.1997 30.2037 60.1296L29.4398 59.9042L29.1349 60.766C29.5721 60.8822 30.0046 60.9952 30.4238 61.1703C30.5464 61.2213 30.619 61.3793 30.5712 61.4913C30.5093 61.6373 30.3192 61.7188 30.1556 61.6709L28.949 61.3184L28.638 62.2017C29.4531 62.437 30.2487 62.6819 31.0454 62.9777C31.2251 63.0443 31.2859 63.2545 31.2097 63.4089C31.1335 63.5634 30.9605 63.6219 30.7833 63.5656L28.6567 62.8898L28.4324 62.8225H28.4327Z" fill="#F7F3CF"/>
<path d="M58.2374 20.0213C58.6958 20.0213 59.0675 19.655 59.0675 19.2032C59.0675 18.7513 58.6958 18.385 58.2374 18.385C57.7789 18.385 57.4072 18.7513 57.4072 19.2032C57.4072 19.655 57.7789 20.0213 58.2374 20.0213Z" fill="#F7F3CF"/>
<path d="M13.504 35.9109C13.9549 35.9109 14.3204 35.5506 14.3204 35.1062C14.3204 34.6618 13.9549 34.3015 13.504 34.3015C13.053 34.3015 12.6875 34.6618 12.6875 35.1062C12.6875 35.5506 13.053 35.9109 13.504 35.9109Z" fill="#F7F3CF"/>
<path d="M21.5416 17.3498C21.9767 17.3498 22.3293 17.0022 22.3293 16.5735C22.3293 16.1447 21.9767 15.7971 21.5416 15.7971C21.1066 15.7971 20.7539 16.1447 20.7539 16.5735C20.7539 17.0022 21.1066 17.3498 21.5416 17.3498Z" fill="#F7F3CF"/>
<path d="M40.1225 10.2472C40.5563 10.2472 40.908 9.90054 40.908 9.47295C40.908 9.04536 40.5563 8.69873 40.1225 8.69873C39.6886 8.69873 39.3369 9.04536 39.3369 9.47295C39.3369 9.90054 39.6886 10.2472 40.1225 10.2472Z" fill="#F7F3CF"/>
<path d="M55.3914 24.293C55.8239 24.293 56.1745 23.9475 56.1745 23.5212C56.1745 23.095 55.8239 22.7495 55.3914 22.7495C54.959 22.7495 54.6084 23.095 54.6084 23.5212C54.6084 23.9475 54.959 24.293 55.3914 24.293Z" fill="#F7F3CF"/>
<path d="M30.466 27.0285C30.8949 27.0285 31.2426 26.6859 31.2426 26.2632C31.2426 25.8405 30.8949 25.4978 30.466 25.4978C30.0371 25.4978 29.6895 25.8405 29.6895 26.2632C29.6895 26.6859 30.0371 27.0285 30.466 27.0285Z" fill="#F7F3CF"/>
<path d="M28.1461 21.2286C28.5676 21.2286 28.9093 20.8918 28.9093 20.4764C28.9093 20.0609 28.5676 19.7241 28.1461 19.7241C27.7245 19.7241 27.3828 20.0609 27.3828 20.4764C27.3828 20.8918 27.7245 21.2286 28.1461 21.2286Z" fill="#F7F3CF"/>
<path d="M22.6247 39.2307C23.0431 39.2307 23.3822 38.8965 23.3822 38.4841C23.3822 38.0718 23.0431 37.7375 22.6247 37.7375C22.2063 37.7375 21.8672 38.0718 21.8672 38.4841C21.8672 38.8965 22.2063 39.2307 22.6247 39.2307Z" fill="#F7F3CF"/>
<path d="M53.6223 16.1412C54.0361 16.1412 54.3715 15.8106 54.3715 15.4027C54.3715 14.9949 54.0361 14.6643 53.6223 14.6643C53.2085 14.6643 52.873 14.9949 52.873 15.4027C52.873 15.8106 53.2085 16.1412 53.6223 16.1412Z" fill="#F7F3CF"/>
<path d="M37.611 15.0385C38.0256 15.0385 38.3617 14.7073 38.3617 14.2987C38.3617 13.8901 38.0256 13.5588 37.611 13.5588C37.1964 13.5588 36.8604 13.8901 36.8604 14.2987C36.8604 14.7073 37.1964 15.0385 37.611 15.0385Z" fill="#F7F3CF"/>
<path d="M16.5339 18.7619C16.9469 18.7619 17.2817 18.4319 17.2817 18.0249C17.2817 17.6178 16.9469 17.2878 16.5339 17.2878C16.1209 17.2878 15.7861 17.6178 15.7861 18.0249C15.7861 18.4319 16.1209 18.7619 16.5339 18.7619Z" fill="#F7F3CF"/>
<path d="M9.19544 32.7957C9.6011 32.7957 9.92994 32.4716 9.92994 32.0718C9.92994 31.672 9.6011 31.3479 9.19544 31.3479C8.78979 31.3479 8.46094 31.672 8.46094 32.0718C8.46094 32.4716 8.78979 32.7957 9.19544 32.7957Z" fill="#F7F3CF"/>
<path d="M12.8384 29.9209C13.2405 29.9209 13.5664 29.5996 13.5664 29.2034C13.5664 28.8071 13.2405 28.4858 12.8384 28.4858C12.4363 28.4858 12.1104 28.8071 12.1104 29.2034C12.1104 29.5996 12.4363 29.9209 12.8384 29.9209Z" fill="#F7F3CF"/>
<path d="M62.806 21.2228C63.2068 21.2228 63.5318 20.9025 63.5318 20.5074C63.5318 20.1123 63.2068 19.792 62.806 19.792C62.4051 19.792 62.0801 20.1123 62.0801 20.5074C62.0801 20.9025 62.4051 21.2228 62.806 21.2228Z" fill="#F7F3CF"/>
<path d="M47.2555 32.8789C47.6491 32.8789 47.9681 32.5645 47.9681 32.1767C47.9681 31.7888 47.6491 31.4744 47.2555 31.4744C46.862 31.4744 46.543 31.7888 46.543 32.1767C46.543 32.5645 46.862 32.8789 47.2555 32.8789Z" fill="#F7F3CF"/>
<path d="M11.8573 40.2911C12.2445 40.2911 12.5584 39.9817 12.5584 39.6001C12.5584 39.2185 12.2445 38.9092 11.8573 38.9092C11.4701 38.9092 11.1562 39.2185 11.1562 39.6001C11.1562 39.9817 11.4701 40.2911 11.8573 40.2911Z" fill="#F7F3CF"/>
<path d="M19.5383 24.1343C19.916 24.1343 20.2221 23.8325 20.2221 23.4603C20.2221 23.0881 19.916 22.7864 19.5383 22.7864C19.1606 22.7864 18.8545 23.0881 18.8545 23.4603C18.8545 23.8325 19.1606 24.1343 19.5383 24.1343Z" fill="#F7F3CF"/>
<path d="M52.3949 12.3141C52.7693 12.3141 53.0729 12.0149 53.0729 11.6458C53.0729 11.2767 52.7693 10.9775 52.3949 10.9775C52.0204 10.9775 51.7168 11.2767 51.7168 11.6458C51.7168 12.0149 52.0204 12.3141 52.3949 12.3141Z" fill="#F7F3CF"/>
<path d="M38.6632 33.2782C38.4715 33.2757 38.2795 33.1623 38.1738 33.0443C37.9589 32.8041 37.947 32.4834 38.157 32.2442C38.3281 32.049 38.6103 31.9742 38.8577 32.0557C39.0816 32.1294 39.3027 32.3077 39.3276 32.5844C39.3592 32.9402 39.0532 33.2828 38.6635 33.2782H38.6632Z" fill="#F7F3CF"/>
<path d="M52.8943 29.1041C53.2448 29.1041 53.5289 28.8241 53.5289 28.4787C53.5289 28.1333 53.2448 27.8533 52.8943 27.8533C52.5439 27.8533 52.2598 28.1333 52.2598 28.4787C52.2598 28.8241 52.5439 29.1041 52.8943 29.1041Z" fill="#F7F3CF"/>
<path d="M25.6682 29.2426C26.0135 29.2426 26.2934 28.9667 26.2934 28.6264C26.2934 28.2861 26.0135 28.0103 25.6682 28.0103C25.3229 28.0103 25.043 28.2861 25.043 28.6264C25.043 28.9667 25.3229 29.2426 25.6682 29.2426Z" fill="#F7F3CF"/>
<path d="M24.69 24.7298C25.0257 24.7298 25.2979 24.4616 25.2979 24.1307C25.2979 23.7998 25.0257 23.5315 24.69 23.5315C24.3542 23.5315 24.082 23.7998 24.082 24.1307C24.082 24.4616 24.3542 24.7298 24.69 24.7298Z" fill="#F7F3CF"/>
<path d="M23.6278 13.0557C23.4247 13.2233 23.1917 13.2233 22.9832 13.0985C22.6585 12.904 22.5604 12.5146 22.7801 12.2226C22.9997 11.9306 23.4214 11.8952 23.6771 12.1425C23.9449 12.4016 23.933 12.8037 23.6275 13.0557H23.6278Z" fill="#F7F3CF"/>
<path d="M17.594 37.1933C17.7062 37.4392 17.6073 37.6823 17.4498 37.8212C17.2543 37.993 17.0119 38.0139 16.7775 37.9037C16.5147 37.7804 16.3961 37.5047 16.4755 37.217C16.5417 36.9768 16.8041 36.7727 17.1 36.8152C17.3067 36.845 17.5034 36.9934 17.5947 37.1929L17.594 37.1933Z" fill="#F7F3CF"/>
<path d="M38.702 21.2495C38.9899 21.2495 39.2233 21.0195 39.2233 20.7357C39.2233 20.452 38.9899 20.2219 38.702 20.2219C38.4141 20.2219 38.1807 20.452 38.1807 20.7357C38.1807 21.0195 38.4141 21.2495 38.702 21.2495Z" fill="#F7F3CF"/>
<path d="M61.7 24.8678C61.9729 24.8678 62.194 24.6498 62.194 24.3809C62.194 24.112 61.9729 23.894 61.7 23.894C61.4272 23.894 61.2061 24.112 61.2061 24.3809C61.2061 24.6498 61.4272 24.8678 61.7 24.8678Z" fill="#F7F3CF"/>
<path d="M57.9304 15.7037C58.1951 15.7037 58.4097 15.4922 58.4097 15.2314C58.4097 14.9705 58.1951 14.759 57.9304 14.759C57.6657 14.759 57.4512 14.9705 57.4512 15.2314C57.4512 15.4922 57.6657 15.7037 57.9304 15.7037Z" fill="#F7F3CF"/>
<path d="M15.3306 22.239C15.5881 22.239 15.7969 22.0332 15.7969 21.7794C15.7969 21.5256 15.5881 21.3198 15.3306 21.3198C15.073 21.3198 14.8643 21.5256 14.8643 21.7794C14.8643 22.0332 15.073 22.239 15.3306 22.239Z" fill="#F7F3CF"/>
<path d="M8.87102 43.1141C9.12338 43.1141 9.32797 42.9125 9.32797 42.6637C9.32797 42.415 9.12338 42.2134 8.87102 42.2134C8.61865 42.2134 8.41406 42.415 8.41406 42.6637C8.41406 42.9125 8.61865 43.1141 8.87102 43.1141Z" fill="#F7F3CF"/>
<path d="M27.7848 16.5518C28.0338 16.5518 28.2357 16.3528 28.2357 16.1074C28.2357 15.862 28.0338 15.6631 27.7848 15.6631C27.5358 15.6631 27.334 15.862 27.334 16.1074C27.334 16.3528 27.5358 16.5518 27.7848 16.5518Z" fill="#F7F3CF"/>
<path d="M8.28874 38.5549C8.53019 38.5549 8.72592 38.3619 8.72592 38.124C8.72592 37.886 8.53019 37.6931 8.28874 37.6931C8.04729 37.6931 7.85156 37.886 7.85156 38.124C7.85156 38.3619 8.04729 38.5549 8.28874 38.5549Z" fill="#F7F3CF"/>
<path d="M53.7176 19.5977C53.9581 19.5977 54.153 19.4056 54.153 19.1686C54.153 18.9316 53.9581 18.7395 53.7176 18.7395C53.4772 18.7395 53.2822 18.9316 53.2822 19.1686C53.2822 19.4056 53.4772 19.5977 53.7176 19.5977Z" fill="#F7F3CF"/>
<path d="M28.2629 12.949C28.4998 12.949 28.6918 12.7597 28.6918 12.5262C28.6918 12.2928 28.4998 12.1035 28.2629 12.1035C28.026 12.1035 27.834 12.2928 27.834 12.5262C27.834 12.7597 28.026 12.949 28.2629 12.949Z" fill="#F7F3CF"/>
<path d="M49.0647 25.2656C49.3 25.2656 49.4907 25.0776 49.4907 24.8457C49.4907 24.6138 49.3 24.4258 49.0647 24.4258C48.8294 24.4258 48.6387 24.6138 48.6387 24.8457C48.6387 25.0776 48.8294 25.2656 49.0647 25.2656Z" fill="#F7F3CF"/>
<path d="M34.4846 33.5302C34.7162 33.5302 34.9038 33.3452 34.9038 33.117C34.9038 32.8888 34.7162 32.7039 34.4846 32.7039C34.2531 32.7039 34.0654 32.8888 34.0654 33.117C34.0654 33.3452 34.2531 33.5302 34.4846 33.5302Z" fill="#F7F3CF"/>
<path d="M29.7158 30.6712C29.944 30.6712 30.1289 30.4889 30.1289 30.2641C30.1289 30.0392 29.944 29.8569 29.7158 29.8569C29.4877 29.8569 29.3027 30.0392 29.3027 30.2641C29.3027 30.4889 29.4877 30.6712 29.7158 30.6712Z" fill="#F7F3CF"/>
<path d="M62.3568 28.3721C62.5829 28.3721 62.7663 28.1914 62.7663 27.9685C62.7663 27.7456 62.5829 27.5649 62.3568 27.5649C62.1306 27.5649 61.9473 27.7456 61.9473 27.9685C61.9473 28.1914 62.1306 28.3721 62.3568 28.3721Z" fill="#F7F3CF"/>
<path d="M35.4408 9.5774C35.6631 9.5774 35.8434 9.39972 35.8434 9.18054C35.8434 8.96137 35.6631 8.78369 35.4408 8.78369C35.2184 8.78369 35.0381 8.96137 35.0381 9.18054C35.0381 9.39972 35.2184 9.5774 35.4408 9.5774Z" fill="#F7F3CF"/>
<path d="M50.9359 17.8938C51.1567 17.8938 51.3357 17.7173 51.3357 17.4997C51.3357 17.2821 51.1567 17.1057 50.9359 17.1057C50.7151 17.1057 50.5361 17.2821 50.5361 17.4997C50.5361 17.7173 50.7151 17.8938 50.9359 17.8938Z" fill="#F7F3CF"/>
<path d="M26.4111 10.6294C26.6317 10.6294 26.8106 10.4531 26.8106 10.2357C26.8106 10.0183 26.6317 9.84204 26.4111 9.84204C26.1905 9.84204 26.0117 10.0183 26.0117 10.2357C26.0117 10.4531 26.1905 10.6294 26.4111 10.6294Z" fill="#F7F3CF"/>
<path d="M20.5208 20.5154C20.741 20.5154 20.9195 20.3395 20.9195 20.1224C20.9195 19.9054 20.741 19.7295 20.5208 19.7295C20.3006 19.7295 20.1221 19.9054 20.1221 20.1224C20.1221 20.3395 20.3006 20.5154 20.5208 20.5154Z" fill="#F7F3CF"/>
<path d="M16.0951 31.8794C16.3137 31.8794 16.4909 31.7047 16.4909 31.4892C16.4909 31.2738 16.3137 31.0991 16.0951 31.0991C15.8764 31.0991 15.6992 31.2738 15.6992 31.4892C15.6992 31.7047 15.8764 31.8794 16.0951 31.8794Z" fill="#F7F3CF"/>
<path d="M14.3098 42.188C14.5278 42.188 14.7045 42.0138 14.7045 41.799C14.7045 41.5841 14.5278 41.4099 14.3098 41.4099C14.0918 41.4099 13.915 41.5841 13.915 41.799C13.915 42.0138 14.0918 42.188 14.3098 42.188Z" fill="#F7F3CF"/>
<path d="M9.67416 27.7919C9.889 27.7919 10.0632 27.6203 10.0632 27.4085C10.0632 27.1968 9.889 27.0251 9.67416 27.0251C9.45932 27.0251 9.28516 27.1968 9.28516 27.4085C9.28516 27.6203 9.45932 27.7919 9.67416 27.7919Z" fill="#F7F3CF"/>
<path d="M24.9686 15.9222C25.1842 15.9222 25.359 15.7499 25.359 15.5374C25.359 15.3249 25.1842 15.1526 24.9686 15.1526C24.7529 15.1526 24.5781 15.3249 24.5781 15.5374C24.5781 15.7499 24.7529 15.9222 24.9686 15.9222Z" fill="#F7F3CF"/>
<path d="M19.3019 14.8506C19.514 14.8506 19.6859 14.6812 19.6859 14.4722C19.6859 14.2632 19.514 14.0938 19.3019 14.0938C19.0899 14.0938 18.918 14.2632 18.918 14.4722C18.918 14.6812 19.0899 14.8506 19.3019 14.8506Z" fill="#F7F3CF"/>
<path d="M24.0192 20.9276C24.2305 20.9276 24.4018 20.7588 24.4018 20.5506C24.4018 20.3424 24.2305 20.1736 24.0192 20.1736C23.808 20.1736 23.6367 20.3424 23.6367 20.5506C23.6367 20.7588 23.808 20.9276 24.0192 20.9276Z" fill="#F7F3CF"/>
<path d="M9.69175 35.7538C9.89904 35.7538 10.0671 35.5881 10.0671 35.3838C10.0671 35.1795 9.89904 35.0139 9.69175 35.0139C9.48445 35.0139 9.31641 35.1795 9.31641 35.3838C9.31641 35.5881 9.48445 35.7538 9.69175 35.7538Z" fill="#F7F3CF"/>
<path d="M19.8169 56.5044C20.2777 56.5044 20.6513 56.1362 20.6513 55.682C20.6513 55.2278 20.2777 54.8596 19.8169 54.8596C19.356 54.8596 18.9824 55.2278 18.9824 55.682C18.9824 56.1362 19.356 56.5044 19.8169 56.5044Z" fill="#F7F3CF"/>
<path d="M62.0756 52.3977C62.5245 52.3977 62.8885 52.039 62.8885 51.5966C62.8885 51.1541 62.5245 50.7954 62.0756 50.7954C61.6266 50.7954 61.2627 51.1541 61.2627 51.5966C61.2627 52.039 61.6266 52.3977 62.0756 52.3977Z" fill="#F7F3CF"/>
<path d="M40.7141 66.9962C41.1603 66.9962 41.5219 66.6397 41.5219 66.2C41.5219 65.7603 41.1603 65.4038 40.7141 65.4038C40.2679 65.4038 39.9062 65.7603 39.9062 66.2C39.9062 66.6397 40.2679 66.9962 40.7141 66.9962Z" fill="#F7F3CF"/>
<path d="M44.2679 63.1876C44.6996 63.1876 45.0495 62.8427 45.0495 62.4173C45.0495 61.9919 44.6996 61.647 44.2679 61.647C43.8363 61.647 43.4863 61.9919 43.4863 62.4173C43.4863 62.8427 43.8363 63.1876 44.2679 63.1876Z" fill="#F7F3CF"/>
<path d="M67.2853 43.9543C67.7098 43.9543 68.0539 43.6152 68.0539 43.1968C68.0539 42.7784 67.7098 42.4392 67.2853 42.4392C66.8607 42.4392 66.5166 42.7784 66.5166 43.1968C66.5166 43.6152 66.8607 43.9543 67.2853 43.9543Z" fill="#F7F3CF"/>
<path d="M25.0378 52.7063C25.4584 52.7063 25.7993 52.3703 25.7993 51.9558C25.7993 51.5413 25.4584 51.2053 25.0378 51.2053C24.6173 51.2053 24.2764 51.5413 24.2764 51.9558C24.2764 52.3703 24.6173 52.7063 25.0378 52.7063Z" fill="#F7F3CF"/>
<path d="M40.6741 57.8739C41.0938 57.8739 41.4341 57.5385 41.4341 57.1248C41.4341 56.7111 41.0938 56.3757 40.6741 56.3757C40.2543 56.3757 39.9141 56.7111 39.9141 57.1248C39.9141 57.5385 40.2543 57.8739 40.6741 57.8739Z" fill="#F7F3CF"/>
<path d="M59.2273 40.1176C59.6381 40.1176 59.9711 39.7894 59.9711 39.3845C59.9711 38.9796 59.6381 38.6514 59.2273 38.6514C58.8164 38.6514 58.4834 38.9796 58.4834 39.3845C58.4834 39.7894 58.8164 40.1176 59.2273 40.1176Z" fill="#F7F3CF"/>
<path d="M35.7902 67.9844C36.1921 67.9844 36.5178 67.6633 36.5178 67.2672C36.5178 66.8711 36.1921 66.55 35.7902 66.55C35.3883 66.55 35.0625 66.8711 35.0625 67.2672C35.0625 67.6633 35.3883 67.9844 35.7902 67.9844Z" fill="#F7F3CF"/>
<path d="M56.2003 62.303C56.6022 62.303 56.928 61.9819 56.928 61.5858C56.928 61.1897 56.6022 60.8687 56.2003 60.8687C55.7984 60.8687 55.4727 61.1897 55.4727 61.5858C55.4727 61.9819 55.7984 62.303 56.2003 62.303Z" fill="#F7F3CF"/>
<path d="M49.5219 49.94C49.9196 49.94 50.242 49.6222 50.242 49.2302C50.242 48.8383 49.9196 48.5205 49.5219 48.5205C49.1242 48.5205 48.8018 48.8383 48.8018 49.2302C48.8018 49.6222 49.1242 49.94 49.5219 49.94Z" fill="#F7F3CF"/>
<path d="M52.2443 53.8412C52.6311 53.8412 52.9446 53.5321 52.9446 53.1509C52.9446 52.7697 52.6311 52.4607 52.2443 52.4607C51.8575 52.4607 51.5439 52.7697 51.5439 53.1509C51.5439 53.5321 51.8575 53.8412 52.2443 53.8412Z" fill="#F7F3CF"/>
<path d="M18.5059 60.5356C18.8899 60.5356 19.2012 60.2288 19.2012 59.8503C19.2012 59.4718 18.8899 59.165 18.5059 59.165C18.1218 59.165 17.8105 59.4718 17.8105 59.8503C17.8105 60.2288 18.1218 60.5356 18.5059 60.5356Z" fill="#F7F3CF"/>
<path d="M57.8691 57.2439C58.2532 57.2439 58.5645 56.937 58.5645 56.5586C58.5645 56.1801 58.2532 55.8733 57.8691 55.8733C57.4851 55.8733 57.1738 56.1801 57.1738 56.5586C57.1738 56.937 57.4851 57.2439 57.8691 57.2439Z" fill="#F7F3CF"/>
<path d="M37.8537 63.4121C38.2292 63.4121 38.5335 63.1121 38.5335 62.7421C38.5335 62.372 38.2292 62.072 37.8537 62.072C37.4782 62.072 37.1738 62.372 37.1738 62.7421C37.1738 63.1121 37.4782 63.4121 37.8537 63.4121Z" fill="#F7F3CF"/>
<path d="M14.7095 55.9099C15.0814 55.9099 15.3829 55.6127 15.3829 55.2462C15.3829 54.8797 15.0814 54.5825 14.7095 54.5825C14.3376 54.5825 14.0361 54.8797 14.0361 55.2462C14.0361 55.6127 14.3376 55.9099 14.7095 55.9099Z" fill="#F7F3CF"/>
<path d="M68.4308 35.6728C68.209 35.8688 67.9497 35.8613 67.7333 35.715C67.4834 35.546 67.3939 35.2483 67.564 34.9829C67.7455 34.6998 68.1317 34.6488 68.3938 34.8593C68.6354 35.0534 68.6896 35.4443 68.4308 35.6732V35.6728Z" fill="#F7F3CF"/>
<path d="M69.0525 39.0359C68.9906 39.2698 68.845 39.4214 68.6527 39.4547C68.4406 39.4912 68.2374 39.3977 68.1253 39.2148C68.0167 39.0373 68.0088 38.8428 68.1058 38.6593C68.1839 38.5115 68.3607 38.3807 68.5725 38.3932C68.8885 38.4116 69.133 38.7312 69.0528 39.0356L69.0525 39.0359Z" fill="#F7F3CF"/>
<path d="M39.1391 52.2293C39.4306 52.2293 39.6669 51.9964 39.6669 51.7091C39.6669 51.4218 39.4306 51.189 39.1391 51.189C38.8476 51.189 38.6113 51.4218 38.6113 51.7091C38.6113 51.9964 38.8476 52.2293 39.1391 52.2293Z" fill="#F7F3CF"/>
<path d="M23.0325 61.7011C23.3227 61.7011 23.5581 61.4692 23.5581 61.1831C23.5581 60.897 23.3227 60.665 23.0325 60.665C22.7422 60.665 22.5068 60.897 22.5068 61.1831C22.5068 61.4692 22.7422 61.7011 23.0325 61.7011Z" fill="#F7F3CF"/>
<path d="M64.114 36.7641C64.3938 36.7641 64.6206 36.5406 64.6206 36.2649C64.6206 35.9892 64.3938 35.7656 64.114 35.7656C63.8342 35.7656 63.6074 35.9892 63.6074 36.2649C63.6074 36.5406 63.8342 36.7641 64.114 36.7641Z" fill="#F7F3CF"/>
<path d="M48.7144 66.7156C48.9876 66.7156 49.2091 66.4973 49.2091 66.228C49.2091 65.9588 48.9876 65.7405 48.7144 65.7405C48.4412 65.7405 48.2197 65.9588 48.2197 66.228C48.2197 66.4973 48.4412 66.7156 48.7144 66.7156Z" fill="#F7F3CF"/>
<path d="M54.7124 57.7536C54.9759 57.7536 55.1895 57.5431 55.1895 57.2834C55.1895 57.0237 54.9759 56.8132 54.7124 56.8132C54.4489 56.8132 54.2354 57.0237 54.2354 57.2834C54.2354 57.5431 54.4489 57.7536 54.7124 57.7536Z" fill="#F7F3CF"/>
<path d="M26.968 59.5594C27.2146 59.5594 27.4145 59.3623 27.4145 59.1193C27.4145 58.8762 27.2146 58.6792 26.968 58.6792C26.7214 58.6792 26.5215 58.8762 26.5215 59.1193C26.5215 59.3623 26.7214 59.5594 26.968 59.5594Z" fill="#F7F3CF"/>
<path d="M49.8117 57.198C50.0501 57.198 50.2435 57.0075 50.2435 56.7725C50.2435 56.5375 50.0501 56.3469 49.8117 56.3469C49.5732 56.3469 49.3799 56.5375 49.3799 56.7725C49.3799 57.0075 49.5732 57.198 49.8117 57.198Z" fill="#F7F3CF"/>
<path d="M29.9908 48.4008C30.2203 48.4008 30.4064 48.2174 30.4064 47.9912C30.4064 47.7649 30.2203 47.5815 29.9908 47.5815C29.7613 47.5815 29.5752 47.7649 29.5752 47.9912C29.5752 48.2174 29.7613 48.4008 29.9908 48.4008Z" fill="#F7F3CF"/>
<path d="M60.2799 59.4336C60.3565 59.6951 60.139 59.901 59.9258 59.9325C59.6648 59.9712 59.4329 59.7688 59.4523 59.5013C59.4671 59.3022 59.6493 59.1622 59.8284 59.1449C60.0031 59.1278 60.2213 59.2331 60.2799 59.4336Z" fill="#F7F3CF"/>
<path d="M63.9522 40.197C64.1765 40.197 64.3584 40.0178 64.3584 39.7966C64.3584 39.5755 64.1765 39.3962 63.9522 39.3962C63.7278 39.3962 63.5459 39.5755 63.5459 39.7966C63.5459 40.0178 63.7278 40.197 63.9522 40.197Z" fill="#F7F3CF"/>
<path d="M17.6698 52.8863C17.8914 52.8863 18.071 52.7093 18.071 52.4909C18.071 52.2725 17.8914 52.0955 17.6698 52.0955C17.4482 52.0955 17.2686 52.2725 17.2686 52.4909C17.2686 52.7093 17.4482 52.8863 17.6698 52.8863Z" fill="#F7F3CF"/>
<path d="M53.1814 41.3627C53.3964 41.3627 53.5707 41.1909 53.5707 40.979C53.5707 40.767 53.3964 40.5952 53.1814 40.5952C52.9663 40.5952 52.792 40.767 52.792 40.979C52.792 41.1909 52.9663 41.3627 53.1814 41.3627Z" fill="#F7F3CF"/>
<path d="M44.3326 68.7163C44.5411 68.7163 44.7101 68.5497 44.7101 68.3442C44.7101 68.1387 44.5411 67.9722 44.3326 67.9722C44.1241 67.9722 43.9551 68.1387 43.9551 68.3442C43.9551 68.5497 44.1241 68.7163 44.3326 68.7163Z" fill="#F7F3CF"/>
<path d="M64.8842 54.1004C65.0899 54.1004 65.2566 53.936 65.2566 53.7333C65.2566 53.5306 65.0899 53.3662 64.8842 53.3662C64.6785 53.3662 64.5117 53.5306 64.5117 53.7333C64.5117 53.936 64.6785 54.1004 64.8842 54.1004Z" fill="#F7F3CF"/>
<path d="M52.5538 60.8579C52.7577 60.8579 52.923 60.695 52.923 60.494C52.923 60.2931 52.7577 60.1301 52.5538 60.1301C52.3499 60.1301 52.1846 60.2931 52.1846 60.494C52.1846 60.695 52.3499 60.8579 52.5538 60.8579Z" fill="#F7F3CF"/>
</svg>
