<svg width="77" height="77" viewBox="0 0 77 77" fill="none" xmlns="http://www.w3.org/2000/svg">
<circle cx="38.5" cy="38.5" r="38.5" fill="url(#paint0_linear_390_3349)"/>
<path d="M40.5503 6.81781C41.4223 6.61464 41.3544 7.89475 40.6324 7.75597C40.0928 7.65234 40.137 6.91403 40.5503 6.81781Z" fill="#4B5A2A"/>
<path d="M34.4848 7.26705C35.2973 6.434 36.4991 7.83919 35.4688 8.50534C34.6804 9.01531 33.8799 7.8873 34.4848 7.26705Z" fill="#4B5A2A"/>
<path d="M31.0318 9.45976C30.424 10.0626 29.3551 9.04342 30.1519 8.4376C30.8312 7.92097 31.5962 8.89983 31.0318 9.45976Z" fill="#4B5A2A"/>
<path d="M57.6889 14.142C58.1618 14.1143 58.3529 14.8318 57.8692 15.1031C57.2318 15.4606 56.8316 14.1923 57.6889 14.142Z" fill="#4B5A2A"/>
<path d="M47.5845 8.59714C48.1817 8.56088 48.2835 9.45462 47.7231 9.54529C47.0526 9.65409 46.9727 8.63452 47.5845 8.59714Z" fill="#4B5A2A"/>
<path d="M25.8216 9.03708C26.2346 8.95566 26.5035 9.51448 26.1507 9.77872C25.6085 10.1851 25.1897 9.16179 25.8216 9.03708Z" fill="#4B5A2A"/>
<path d="M57.8705 17.9524C58.957 17.7744 59.2876 19.4915 58.1507 19.6418C57.0143 19.792 56.8158 18.1256 57.8705 17.9524Z" fill="#4B5A2A"/>
<path d="M60.882 42.6645C61.454 42.0712 62.5266 42.71 62.2362 43.539C62.045 44.0848 61.2909 44.2514 60.8867 43.8372C60.5861 43.5293 60.5861 42.9713 60.882 42.6645Z" fill="#4B5A2A"/>
<path d="M56.0469 35.2625C57.2621 35.012 57.3883 36.7965 56.2949 36.8461C55.2898 36.892 55.2267 35.4313 56.0469 35.2625Z" fill="#4B5A2A"/>
<path d="M67.0221 43.1049C68.1841 42.9172 68.2735 44.5763 67.2648 44.6844C66.291 44.7884 66.0659 43.2592 67.0221 43.1049Z" fill="#4B5A2A"/>
<path d="M67.0222 29.9367C67.9223 29.7816 68.3148 30.9156 67.6041 31.3774C66.8956 31.8378 66.0795 30.9992 66.5275 30.2849C66.6253 30.1291 66.8413 29.9678 67.0226 29.9363L67.0222 29.9367Z" fill="#4B5A2A"/>
<path d="M57.8717 26.0904C58.5656 26.0038 59.0862 26.8406 58.5554 27.4135C57.9709 28.0441 56.991 27.3939 57.2496 26.6063C57.3328 26.3532 57.6075 26.1234 57.872 26.0904H57.8717Z" fill="#4B5A2A"/>
<path d="M65.7461 34.8561C66.4265 34.7455 66.918 35.5086 66.5042 36.0689C66.0073 36.7417 65.0124 36.2995 65.1525 35.4738C65.2014 35.1866 65.4597 34.9028 65.7465 34.8561H65.7461Z" fill="#4B5A2A"/>
<path d="M63.1541 20.7043C62.5346 21.3283 61.4854 20.4926 62.037 19.7376C62.6411 18.9113 63.9308 19.9216 63.1541 20.7043Z" fill="#4B5A2A"/>
<path d="M55.6826 62.4864C56.7964 62.2518 56.9861 63.989 55.7822 63.885C54.9726 63.815 55.0175 62.6267 55.6826 62.4864Z" fill="#4B5A2A"/>
<path d="M62.9024 47.0256C63.9961 46.8357 63.9567 48.4064 62.9666 48.3112C62.2522 48.2428 62.2595 47.137 62.9024 47.0256Z" fill="#4B5A2A"/>
<path d="M61.6995 31.6003C62.2865 31.5129 62.6671 32.4181 62.0458 32.7298C61.1986 33.1546 60.8082 31.7328 61.6995 31.6003Z" fill="#4B5A2A"/>
<path d="M60.7149 36.3358C61.604 36.1896 61.6295 37.5763 60.7419 37.4741C60.0895 37.399 60.0968 36.4372 60.7149 36.3358Z" fill="#4B5A2A"/>
<path d="M68.3345 38.9249C68.5451 38.8808 68.7432 38.9204 68.8858 39.0884C69.2795 39.5514 68.7457 40.2505 68.2229 39.9085C67.8698 39.6776 67.9015 39.0152 68.3345 38.9245V38.9249Z" fill="#4B5A2A"/>
<path d="M66.3995 51.3689C65.911 51.8644 65.1894 51.1235 65.6261 50.6398C66.1369 50.074 66.8994 50.8615 66.3995 51.3689Z" fill="#4B5A2A"/>
<path d="M65.4539 25.2389C66.0793 25.1216 66.3733 25.888 65.8418 26.1871C65.1632 26.5686 64.7272 25.3751 65.4539 25.2389Z" fill="#4B5A2A"/>
<path d="M61.4066 23.7963C62.1086 23.6501 62.2647 24.6871 61.6452 24.8148C60.9447 24.9595 60.813 23.9199 61.4066 23.7963Z" fill="#4B5A2A"/>
<path d="M56.1901 22.2472C56.7177 22.7516 55.8487 23.4992 55.4368 22.9189C55.0683 22.3997 55.7622 21.8383 56.1901 22.2472Z" fill="#4B5A2A"/>
<path d="M58.0437 40.0084C58.5789 39.9962 58.7576 40.7405 58.283 40.971C57.5413 41.3319 57.2892 40.0255 58.0437 40.0084Z" fill="#4B5A2A"/>
<path d="M57.47 30.3053C58.0387 30.1939 58.1858 31.0333 57.6713 31.1399C57.0832 31.262 56.9471 30.4075 57.47 30.3053Z" fill="#4B5A2A"/>
<path d="M63.5058 40.1106C63.8181 39.7142 64.5054 40.1757 64.1508 40.6361C63.7878 41.1072 63.1767 40.528 63.5058 40.1106Z" fill="#4B5A2A"/>
<path d="M57.5436 44.2866C57.864 44.2396 58.1529 44.6156 57.9533 44.9268C57.6385 45.4176 56.9851 44.9143 57.2605 44.4827C57.3152 44.3973 57.4433 44.3014 57.5436 44.2866Z" fill="#4B5A2A"/>
<path d="M62.137 27.6422C62.6835 27.5349 62.8557 28.4501 62.2001 28.4138C61.7357 28.3879 61.7189 27.7243 62.137 27.6422Z" fill="#4B5A2A"/>
<path d="M67.5328 47.3201C67.9414 47.2813 68.1217 47.8882 67.7346 48.0807C67.1892 48.3516 66.909 47.3797 67.5328 47.3201Z" fill="#4B5A2A"/>
<path d="M64.6484 54.5374C65.1449 54.5078 65.2226 55.2976 64.7112 55.3276C64.1953 55.3579 64.1774 54.5656 64.6484 54.5374Z" fill="#4B5A2A"/>
<path d="M38.9934 3L41.4542 3.18541C59.0067 4.97623 72.2961 19.3528 72.9736 37.2347C73.7251 57.0766 58.3737 73.3479 38.9391 73.9819C20.1378 74.5951 3.91372 59.501 3.04141 40.4155C3.02718 40.1076 3.08555 39.7668 3.00638 39.4707C3.02134 38.7694 2.98632 38.0633 3.00638 37.3624C3.55144 18.4472 18.5628 3.53847 37.1339 3H38.9934ZM14.9156 62.5664C26.2035 73.8253 44.1489 75.2142 57.0895 65.9482C71.3854 55.7117 75.4296 35.8898 66.1355 20.7209C59.5685 10.0027 47.6283 4.02475 35.1835 5.07171C17.9335 6.52317 4.72949 21.1558 4.90424 38.7483C4.99508 47.9049 8.52301 56.1902 14.916 62.5664H14.9156Z" fill="#4B5A2A"/>
<path d="M53.2721 45.6626C55.5833 47.9301 57.9178 50.1972 60.1338 52.5535C62.7614 56.5296 59.0952 61.7193 54.4979 60.3426C52.9514 59.8796 52.2378 58.8534 51.19 57.7431C49.0393 55.4642 46.9087 53.1582 44.7718 50.8641C44.4008 50.4659 44.0652 50.0162 43.6613 49.6576H43.5865C42.3089 50.3715 40.8645 50.904 39.4376 51.2219C30.2092 53.2785 21.0581 47.8509 18.5127 38.6281C15.4525 27.5408 23.0494 16.3903 34.3814 15.6505C43.9929 15.0228 52.2684 22.3297 53.1035 32.0177C53.4359 35.8739 52.5442 39.7509 50.5559 43.0354C51.453 43.9195 52.3731 44.7807 53.2717 45.6626H53.2721ZM54.4399 49.138C52.9766 47.6951 51.4815 46.2813 50.0218 44.8354C49.6427 44.4598 49.0612 43.9421 48.7463 43.5402C48.5891 43.3396 48.5384 43.2848 48.6493 43.0339C48.8795 42.5128 49.3924 41.8626 49.6828 41.3082C54.5351 32.041 49.5993 20.5263 39.65 17.851C28.6251 14.8867 18.4193 24.0095 19.5605 35.4202C20.6389 46.2051 31.6725 52.8321 41.5923 48.7835C42.311 48.49 43.0783 47.9526 43.7452 47.7125C43.8386 47.6788 43.9086 47.6473 44.0072 47.6795C44.1823 47.7365 44.6026 48.2069 44.7558 48.3656C47.8262 51.5494 50.6964 54.9386 53.7967 58.0951C56.1991 60.0761 59.7529 58.0714 59.3713 54.9549C59.2309 53.8062 58.6322 53.3155 57.8981 52.5657C56.7635 51.407 55.5931 50.2738 54.4406 49.1376L54.4399 49.138Z" fill="#4B5A2A"/>
<path d="M18.9305 56.1617C19.9089 55.9926 20.3453 57.2013 19.5941 57.7227C19.3241 57.91 18.9509 57.9026 18.6733 57.7372C18.0509 57.3667 18.1953 56.289 18.9308 56.1621L18.9305 56.1617Z" fill="#4B5A2A"/>
<path d="M40.1868 67.1846C41.1598 67.0162 41.6086 68.3818 40.745 68.7863C39.7034 69.2741 39.023 67.7838 39.9519 67.279C40.0186 67.2427 40.1135 67.1972 40.1868 67.1846Z" fill="#4B5A2A"/>
<path d="M12.513 34.6712C13.4623 34.5054 13.9471 35.7229 13.1255 36.217C12.0011 36.8931 11.3039 34.8821 12.513 34.6712Z" fill="#4B5A2A"/>
<path d="M45.2185 58.8988C46.1313 58.7411 46.6034 59.8969 45.8457 60.4228C45.3608 60.7592 44.6614 60.4557 44.5815 59.861C44.5235 59.428 44.7741 58.9758 45.2185 58.8992V58.8988Z" fill="#4B5A2A"/>
<path d="M38.2182 60.0827C39.5232 59.8548 39.5549 61.7522 38.3685 61.7163C37.4021 61.687 37.363 60.2323 38.2182 60.0827Z" fill="#4B5A2A"/>
<path d="M20.7908 15.1789C21.6956 15.0657 22.09 16.3443 21.2494 16.7536C20.1016 17.3128 19.5857 15.3296 20.7908 15.1789Z" fill="#4B5A2A"/>
<path d="M27.9365 55.9767C28.6464 55.8528 29.2024 56.49 28.8511 57.1636C28.4334 57.9648 27.202 57.5451 27.3352 56.661C27.3805 56.3616 27.6289 56.0308 27.9368 55.9767H27.9365Z" fill="#4B5A2A"/>
<path d="M10.5806 45.5827C11.2891 45.4365 11.8674 46.0967 11.4726 46.7466C10.9495 47.6081 9.63827 46.9027 10.102 45.9849C10.1837 45.8232 10.4041 45.6189 10.5806 45.5827Z" fill="#4B5A2A"/>
<path d="M32.3115 59.7497C33.5585 59.5321 33.5753 61.4613 32.3422 61.2911C31.5136 61.1763 31.5523 59.8822 32.3115 59.7497Z" fill="#4B5A2A"/>
<path d="M25.2966 66.3005C26.0533 65.4755 27.2124 66.8582 26.2937 67.4784C25.4798 68.028 24.6877 66.964 25.2966 66.3005Z" fill="#4B5A2A"/>
<path d="M26.3178 61.4184C26.5918 61.1404 27.1222 61.15 27.3999 61.4224C27.9953 62.0064 27.4043 62.9853 26.5513 62.6899C26.0347 62.5112 25.9537 61.7873 26.3178 61.4184Z" fill="#4B5A2A"/>
<path d="M12.546 29.8775C11.8904 30.5377 10.8535 29.6591 11.392 28.8731C11.9969 27.9904 13.342 29.0759 12.546 29.8775Z" fill="#4B5A2A"/>
<path d="M45.656 13.8837C46.3058 13.7737 46.8074 14.4269 46.455 15.0268C46.2317 15.4069 45.7231 15.5183 45.362 15.2741C44.8198 14.9077 45.0073 13.9936 45.656 13.8837Z" fill="#4B5A2A"/>
<path d="M52.7885 15.3784C52.0997 14.7285 53.0687 13.5276 53.8297 14.2297C54.5608 14.9043 53.5338 16.0816 52.7885 15.3784Z" fill="#4B5A2A"/>
<path d="M15.7235 16.8044C16.5809 16.7348 16.9129 18.0071 16.0227 18.2943C14.9413 18.6433 14.6495 16.8914 15.7235 16.8044Z" fill="#4B5A2A"/>
<path d="M7.7228 32.8371C7.0464 32.1221 8.12813 31.0466 8.82313 31.776C9.50391 32.4907 8.41087 33.5639 7.7228 32.8371Z" fill="#4B5A2A"/>
<path d="M38.6567 53.6085C39.3116 53.5167 39.7651 54.2968 39.3043 54.822C38.7822 55.4171 37.8041 54.896 38.0558 54.1103C38.1375 53.8557 38.3962 53.6448 38.6567 53.6085Z" fill="#4B5A2A"/>
<path d="M50.2839 63.1682C50.2138 63.2307 50.0701 63.304 49.9778 63.3203C48.7899 63.5297 48.7665 61.767 49.9139 61.8866C50.5316 61.951 50.7552 62.7474 50.2839 63.1682Z" fill="#4B5A2A"/>
<path d="M43.5383 8.85802C43.8035 8.85247 44.1081 9.05269 44.2139 9.29953C44.535 10.0489 43.5339 10.7632 42.9848 10.0656C42.5955 9.5708 42.9363 8.87061 43.5383 8.85802Z" fill="#4B5A2A"/>
<path d="M35.2292 68.3684C36.4164 68.2208 36.2157 70.2166 35.0563 69.7821C34.3792 69.5286 34.4788 68.4617 35.2292 68.3684Z" fill="#4B5A2A"/>
<path d="M10.8724 39.48C11.6532 39.3468 12.0519 40.3812 11.3909 40.8193C11.0516 41.0443 10.5598 40.8704 10.3777 40.5192C10.1621 40.1032 10.412 39.5585 10.8724 39.48Z" fill="#4B5A2A"/>
<path d="M16.0515 45.5818C16.7954 45.523 17.1486 46.6454 16.3755 46.9493C15.2733 47.3826 14.9851 45.6662 16.0515 45.5818Z" fill="#4B5A2A"/>
<path d="M17.7651 60.7111C18.5414 60.6271 18.8242 61.7562 18.1259 62.0775C17.1317 62.5345 16.6615 60.8307 17.7651 60.7111Z" fill="#4B5A2A"/>
<path d="M14.5912 49.9473C15.601 49.7363 15.7842 51.1508 14.968 51.3281C13.9633 51.5464 13.7754 50.1175 14.5912 49.9473Z" fill="#4B5A2A"/>
<path d="M51.9275 10.1847C52.964 10.0053 53.0133 11.5851 52.0592 11.6047C51.2347 11.6214 51.0946 10.3291 51.9275 10.1847Z" fill="#4B5A2A"/>
<path d="M25.849 51.9569C26.4163 51.9466 26.7691 52.5727 26.4451 53.0586C26.1763 53.4617 25.5312 53.4428 25.2755 53.0364C24.9855 52.5757 25.3142 51.9665 25.8494 51.9569H25.849Z" fill="#4B5A2A"/>
<path d="M43.8352 53.6822C44.7345 53.6108 44.8162 55.0163 43.9333 55.0811C43.0504 55.1459 42.9096 53.7558 43.8352 53.6822Z" fill="#4B5A2A"/>
<path d="M13.9006 55.8656C14.7904 55.7668 14.9269 57.118 14.106 57.2224C13.1199 57.3474 13.0327 55.9619 13.9006 55.8656Z" fill="#4B5A2A"/>
<path d="M40.8434 12.5152C41.9419 12.3224 41.8788 13.9344 40.8744 13.7975C40.164 13.7006 40.1659 12.6343 40.8434 12.5152Z" fill="#4B5A2A"/>
<path d="M53.2729 22.924C52.9701 23.2526 52.3864 23.176 52.2011 22.7608C51.9453 22.1872 52.4849 21.6487 53.0508 21.8622C53.4732 22.0214 53.5688 22.6028 53.2729 22.924Z" fill="#4B5A2A"/>
<path d="M22.5402 11.2576C23.2545 11.1358 23.5526 12.1328 22.9287 12.4281C22.079 12.8304 21.631 11.4126 22.5402 11.2576Z" fill="#4B5A2A"/>
<path d="M16.4477 38.7438C17.0245 39.3719 16.0208 40.2197 15.5546 39.4833C15.1609 38.8619 15.9975 38.2535 16.4477 38.7438Z" fill="#4B5A2A"/>
<path d="M14.7008 25.683C15.502 25.5513 15.587 26.7755 14.8325 26.8073C14.1204 26.8377 14.0492 25.79 14.7008 25.683Z" fill="#4B5A2A"/>
<path d="M22.2847 62.2651C23.2139 62.1049 23.0566 63.6141 22.2223 63.3091C21.6995 63.1178 21.756 62.3562 22.2847 62.2651Z" fill="#4B5A2A"/>
<path d="M33.4404 55.2361C34.0183 55.1033 34.4098 55.7698 33.9741 56.1473C33.2321 56.7905 32.6961 55.4075 33.4404 55.2361Z" fill="#4B5A2A"/>
<path d="M20.9718 51.538C21.7813 51.367 21.878 52.6112 21.0721 52.5679C20.4807 52.5361 20.4698 51.6442 20.9718 51.538Z" fill="#4B5A2A"/>
<path d="M10.7848 24.0713C10.3105 23.5873 10.9869 22.8156 11.5032 23.3241C12.0052 23.8193 11.2054 24.5006 10.7848 24.0713Z" fill="#4B5A2A"/>
<path d="M14.4086 21.0222C15.1488 20.8679 15.2473 22.0011 14.5417 22.0481C14.0127 22.0833 13.8318 21.1425 14.4086 21.0222Z" fill="#4B5A2A"/>
<path d="M48.2673 68.3833C47.8824 67.9691 48.3859 67.216 48.8923 67.6198C49.4702 68.0802 48.7295 68.8807 48.2673 68.3833Z" fill="#4B5A2A"/>
<path d="M36.8683 64.077C37.536 63.9379 37.6695 64.9042 37.1069 65.0215C36.4462 65.1591 36.2944 64.1966 36.8683 64.077Z" fill="#4B5A2A"/>
<path d="M32.7476 11.0715C33.4441 10.9097 33.6487 11.805 33.0511 11.9707C32.4266 12.1439 32.2295 11.1917 32.7476 11.0715Z" fill="#4B5A2A"/>
<path d="M54.2961 41.5872C54.9535 41.4333 55.1585 42.3481 54.6361 42.4865C53.9031 42.6808 53.8127 41.7005 54.2961 41.5872Z" fill="#4B5A2A"/>
<path d="M7.84561 42.8455C8.5957 42.6911 8.63802 43.8291 7.91018 43.7633C7.41875 43.7188 7.36914 42.9435 7.84561 42.8455Z" fill="#4B5A2A"/>
<path d="M27.7174 11.4046C28.2052 11.3043 28.5164 11.9379 28.0735 12.2469C27.4664 12.6706 27.0359 11.5445 27.7174 11.4046Z" fill="#4B5A2A"/>
<path d="M42.2291 62.9309C42.9493 62.741 43.0237 63.8328 42.3659 63.8128C41.8475 63.7972 41.8052 63.0426 42.2291 62.9309Z" fill="#4B5A2A"/>
<path d="M33.0047 65.2239C33.4122 65.1998 33.6818 65.7834 33.2506 66.0662C32.6402 66.4662 32.2907 65.2661 33.0047 65.2239Z" fill="#4B5A2A"/>
<path d="M7.26322 38.2199C7.86081 38.1444 7.95239 39.0267 7.39602 39.0977C6.74844 39.1806 6.75902 38.2836 7.26322 38.2199Z" fill="#4B5A2A"/>
<path d="M30.3065 67.5536C30.794 67.4814 30.999 68.1786 30.5681 68.4114C29.9961 68.7204 29.6477 67.6513 30.3065 67.5536Z" fill="#4B5A2A"/>
<path d="M53.3132 18.3209C53.8903 18.2088 54.0614 19.06 53.5437 19.1851C52.8936 19.342 52.8166 18.4175 53.3132 18.3209Z" fill="#4B5A2A"/>
<path d="M20.0093 47.51C20.3873 47.1081 21.048 47.6836 20.6529 48.1073C20.2239 48.5673 19.6277 47.916 20.0093 47.51Z" fill="#4B5A2A"/>
<path d="M9.45011 49.6886C10.124 49.5491 10.2068 50.5698 9.55007 50.5332C9.06302 50.5062 9.0145 49.7786 9.45011 49.6886Z" fill="#4B5A2A"/>
<path d="M49.1936 12.624C49.6256 12.5415 49.9587 13.1946 49.4724 13.4267C48.8357 13.7305 48.5935 12.7387 49.1936 12.624Z" fill="#4B5A2A"/>
<path d="M44.0366 69.5687C43.6447 69.1194 44.3142 68.5376 44.6827 69.0058C45.0468 69.4688 44.3489 69.9269 44.0366 69.5687Z" fill="#4B5A2A"/>
<path d="M44.8549 65.9988C45.4036 65.9156 45.4849 66.7353 45.0566 66.8345C44.4171 66.9829 44.3014 66.0829 44.8549 65.9988Z" fill="#4B5A2A"/>
<path d="M19.7313 19.3939C20.4234 19.2325 20.4384 20.325 19.7995 20.235C19.3307 20.1692 19.3296 19.4875 19.7313 19.3939Z" fill="#4B5A2A"/>
<path d="M38.0711 9.5923C38.8059 9.42206 38.7935 10.5123 38.1828 10.4276C37.7194 10.3635 37.7304 9.67112 38.0711 9.5923Z" fill="#4B5A2A"/>
<path d="M50.3958 16.5835C50.9963 16.4591 51.1083 17.2441 50.6993 17.3721C50.0835 17.5646 49.8839 16.6897 50.3958 16.5835Z" fill="#4B5A2A"/>
<path d="M22.9773 56.9015C23.4768 56.7983 23.6811 57.3945 23.2973 57.6698C22.7631 58.0528 22.4067 57.0196 22.9773 56.9015Z" fill="#4B5A2A"/>
<path d="M11.128 52.5349C11.51 52.4616 11.8288 53.0452 11.4407 53.2984C10.8485 53.6843 10.5191 52.6515 11.128 52.5349Z" fill="#4B5A2A"/>
<path d="M52.5814 66.202C52.2643 66.5887 51.6164 66.1061 51.9196 65.6598C52.2169 65.222 52.9572 65.7438 52.5814 66.202Z" fill="#4B5A2A"/>
<path d="M15.573 32.0236C15.1637 32.4199 14.6328 31.7727 15.0195 31.4067C15.419 31.0284 15.9557 31.6535 15.573 32.0236Z" fill="#4B5A2A"/>
<path d="M36.015 12.8134C36.4232 12.4477 37.0037 13.1531 36.5327 13.4681C36.0617 13.783 35.668 13.1246 36.015 12.8134Z" fill="#4B5A2A"/>
<path d="M41.0633 57.4918C41.7174 57.4001 41.635 58.4167 41.0253 58.2901C40.6014 58.202 40.5999 57.557 41.0633 57.4918Z" fill="#4B5A2A"/>
<path d="M13.3884 42.0309C14.0148 41.9095 14.0163 42.9198 13.4187 42.8354C12.9729 42.7725 12.9605 42.1142 13.3884 42.0309Z" fill="#4B5A2A"/>
<path d="M24.4008 14.5473C24.936 14.4862 25.0082 15.317 24.4635 15.3563C23.9553 15.3933 23.8809 14.6065 24.4008 14.5473Z" fill="#4B5A2A"/>
<path d="M16.8515 53.2755C17.2995 53.1726 17.5622 53.7292 17.1718 54.0075C16.6435 54.3846 16.2991 53.4024 16.8515 53.2755Z" fill="#4B5A2A"/>
<path d="M18.8553 13.4799C19.2519 13.8193 18.7404 14.4628 18.3369 14.0979C17.9334 13.733 18.4591 13.1409 18.8553 13.4799Z" fill="#4B5A2A"/>
<path d="M8.72248 27.05C9.12708 26.9945 9.35218 27.5659 8.98443 27.7991C8.44047 28.144 8.12197 27.1326 8.72248 27.05Z" fill="#4B5A2A"/>
<path d="M54.3693 26.7544C54.9745 26.6153 55.0358 27.5645 54.47 27.5542C53.9899 27.5453 53.9665 26.8469 54.3693 26.7544Z" fill="#4B5A2A"/>
<path d="M8.68532 35.4091C9.0819 35.3388 9.32378 35.8991 8.9615 36.1356C8.41535 36.4924 8.11363 35.5105 8.68532 35.4091Z" fill="#4B5A2A"/>
<path d="M34.6835 19.989C44.8302 19.4487 51.877 29.8313 47.7504 39.2743C43.0936 49.9304 27.9287 49.9026 23.2475 39.2624C19.4507 30.6321 25.3478 20.486 34.6835 19.989ZM35.4201 21.6055C34.2942 21.6566 33.1421 21.7953 32.0658 22.1417C32.0002 22.1628 31.6492 22.2602 31.6343 22.2776C31.6014 22.3164 31.6532 22.4726 31.508 22.5407C31.3409 22.6191 31.3303 22.416 31.2523 22.423C30.9527 22.5684 30.6361 22.6832 30.338 22.8301C30.0899 22.9522 29.5492 23.2216 29.3548 23.3859C29.0246 23.6646 28.5412 24.3541 28.2194 24.7123C27.0742 25.9884 25.7298 27.3747 24.7583 28.7839C24.5521 29.083 24.4387 29.4434 24.3252 29.7872C24.0614 30.5859 23.8867 31.4208 23.7889 32.2575C24.1782 32.1391 24.1515 32.8437 23.7524 32.6642C23.6368 33.723 23.6973 34.8 23.8721 35.8532C23.9315 36.2115 24.0224 36.5686 24.1172 36.918C24.141 36.9368 24.1829 36.8558 24.1968 36.8328C24.589 36.1989 24.9213 35.5054 25.319 34.8644C26.1063 33.5961 27.0352 32.43 27.8586 31.1895C29.3767 28.9027 30.5544 26.6845 32.4475 24.6372C33.3515 23.6594 34.5839 22.7624 35.365 21.7158C35.3928 21.6788 35.4362 21.6695 35.4194 21.6048L35.4201 21.6055ZM36.2953 21.6425H35.6573C34.6894 22.9008 33.3946 23.8323 32.3387 25.008C30.6824 26.8521 29.5033 28.9905 28.1654 31.057C26.8323 33.1161 25.338 35.0713 24.2322 37.2788L24.4642 37.9919L24.6342 37.7577C25.632 35.5553 27.1169 33.6727 28.384 31.6487C29.8517 29.3047 30.9936 26.948 32.94 24.9151C33.5854 24.2408 34.3665 23.6594 35.0385 23.0122C35.4843 22.5829 35.8937 22.1136 36.2953 21.6425ZM38.1545 21.9016L36.8211 21.6821C36.7014 21.6884 36.2147 22.3593 36.0951 22.4933C35.0859 23.6258 33.8853 24.4559 32.8856 25.5624C31.1118 27.5257 30.0432 29.7502 28.6536 31.9589C28.0414 32.9318 27.3347 33.8378 26.7273 34.8133C25.9954 35.9883 25.3858 37.2407 24.6707 38.4264C24.6528 38.4693 24.6689 38.5056 24.6798 38.5467C24.7272 38.7236 25.0155 39.2435 25.1191 39.4349C25.2763 39.725 25.4624 40.0011 25.6309 40.2846C25.6926 40.2998 25.7028 40.2328 25.7232 40.1939C26.13 39.4241 26.4339 38.4138 26.809 37.5967C27.7185 35.6149 29.0315 33.9884 29.921 32.0244C30.9301 29.7957 31.5887 27.6767 33.2866 25.8218C34.11 24.9225 35.0571 24.6698 35.9477 23.9348C36.4555 23.5158 36.8572 22.9426 37.3519 22.5114C37.6051 22.2909 37.9127 22.1366 38.1545 21.9019V21.9016ZM38.7748 22.0866C38.6029 22.0892 38.5095 21.9719 38.3278 22.0215C38.2399 22.0455 37.9105 22.2813 37.8145 22.3516C36.971 22.9689 36.4271 23.8593 35.5263 24.4692C34.6069 25.092 34.0447 25.2308 33.2698 26.1379C31.2107 28.5486 30.5919 31.4415 28.9816 34.068C28.5416 34.7859 28.0366 35.4683 27.6244 36.2052C26.8911 37.516 26.4011 38.9575 25.7743 40.3212C25.697 40.5014 25.8582 40.581 25.9042 40.7287L26.0045 40.6647C26.6817 39.1214 27.1439 37.482 27.9888 36.0198C28.5252 35.0916 29.1939 34.2771 29.7017 33.3189C31.0564 30.7643 31.987 26.8333 34.6069 25.2748C35.0162 25.0313 35.4183 24.8644 35.8171 24.5791C36.7335 23.9233 37.3289 22.96 38.3125 22.376C38.4409 22.2998 38.6157 22.2409 38.7281 22.1699C38.766 22.1458 38.7912 22.1717 38.7748 22.0866ZM41.7277 23.4185C41.7014 23.3911 41.3421 23.2176 41.2757 23.2331C40.5544 23.5036 39.8032 23.6413 39.1148 24.0032C38.0969 24.5388 37.3497 25.4984 36.4161 26.1479C35.8003 26.5764 35.1104 26.7826 34.5277 27.2651C33.2979 28.2847 32.6795 30.4774 31.9878 31.9381C30.936 34.1579 29.5124 36.0375 28.5226 38.2621C27.9892 39.4611 27.5456 40.7043 26.9301 41.8652C26.8998 41.9762 27.0352 41.9899 27.0888 42.0595C27.7849 40.9108 28.2351 39.6358 28.7776 38.4101C29.3716 37.0686 29.9024 36.2485 30.6587 35.0291C31.3687 33.884 32.0469 32.5399 32.6073 31.3098C33.0969 30.235 33.5004 28.8054 34.2541 27.9131C34.909 27.1382 35.9499 26.8207 36.7656 26.2074C37.5019 25.6538 38.1075 24.9333 38.9086 24.461C39.7605 23.9588 40.7397 23.7797 41.6737 23.4929C41.7135 23.4807 41.7875 23.4814 41.727 23.4189L41.7277 23.4185ZM28.9666 23.6402C28.8732 23.6572 28.7776 23.739 28.6999 23.7945C28.0082 24.2886 27.2461 25.0284 26.6871 25.6734C25.9742 26.4968 25.3445 27.4202 24.8834 28.4113C25.3967 27.801 25.8455 27.1349 26.3591 26.5242C27.1942 25.532 28.1476 24.6468 28.9666 23.6398V23.6402ZM43.2954 24.6753C43.3092 24.6135 43.276 24.6002 43.2403 24.565C43.164 24.4899 43.0334 24.3789 42.9481 24.3067C42.8361 24.212 42.279 23.7908 42.1841 23.7842C41.8255 23.8663 41.4957 24.0321 41.1443 24.1391C40.4577 24.3474 39.9152 24.424 39.2603 24.78C38.0655 25.4299 37.2892 26.5409 36.1443 27.2041C35.851 27.3739 35.5113 27.492 35.226 27.6778C34.0921 28.4165 33.5139 30.4464 32.9294 31.6732C32.4836 32.6095 31.983 33.6316 31.4887 34.5391C30.9991 35.4384 30.3511 36.2466 29.8721 37.153C28.9816 38.8383 28.4022 40.7098 27.3322 42.3008C27.3322 42.3241 27.6309 42.6227 27.6532 42.6346C27.7079 42.6638 27.7076 42.6557 27.7444 42.6139C27.8484 42.4958 28.0082 42.1194 28.1129 41.9522C28.3263 41.6117 28.5919 41.2819 28.7908 40.9381C29.404 39.8775 29.8086 38.6359 30.4828 37.5874C30.7576 37.1604 31.1147 36.7918 31.4033 36.3762C31.9557 35.5809 32.2658 34.7012 32.6966 33.8415C33.2402 32.7564 33.9057 31.7368 34.3533 30.6029C34.5515 30.1011 34.643 29.6022 34.9528 29.1396C35.3034 28.6167 35.7809 28.4705 36.2698 28.1452C37.1972 27.5286 37.6919 26.5831 38.6642 26.0246C39.3154 25.6505 39.9678 25.5413 40.6617 25.3141C41.1732 25.1464 41.7292 24.8981 42.2381 24.7682C42.5635 24.6853 42.967 24.6039 43.295 24.6753H43.2954ZM44.098 25.4147L43.4774 24.7686C42.5836 24.6376 41.7664 25.0743 40.9448 25.3418C39.8765 25.6897 38.9356 25.8544 38.0626 26.6349C37.6719 26.9839 37.3512 27.4328 36.9688 27.7814C36.1823 28.4982 35.3183 28.5897 34.8305 29.644C34.5839 30.1769 34.434 30.7776 34.1866 31.3209C33.7973 32.1754 33.272 32.9729 32.8491 33.8108C32.4132 34.6742 32.1005 35.6179 31.5489 36.4124C31.2092 36.9013 30.79 37.3254 30.4686 37.8321C29.8739 38.7695 29.5018 39.8283 28.9732 40.7905C28.6652 41.3508 28.2596 41.8593 27.9531 42.4188C27.8725 42.5658 27.6911 42.7678 27.9287 42.8274C28.4693 42.1257 28.9976 41.4033 29.4237 40.6184C29.5981 40.2975 29.7302 39.9493 29.909 39.631C30.5179 38.5463 31.4522 37.8935 32.2862 37.012C33.1045 35.6671 34.0586 34.2452 34.7784 32.8452C35.2789 31.8715 35.4902 30.4471 36.2359 29.7188C36.5059 29.4553 36.8904 29.2514 37.1531 28.9664C37.4216 28.6751 37.6434 28.2629 37.901 27.9498C38.4975 27.2244 39.0487 26.9017 39.9229 26.5979C40.9433 26.2433 42.4012 25.6786 43.4599 25.7856C43.8715 25.827 44.299 25.9647 44.6817 26.1179C44.4464 25.585 44.0542 25.495 43.5234 25.4255C42.4767 25.2882 40.6803 25.9843 39.6514 26.3599C38.1582 26.905 38.1388 27.4402 37.1348 28.4302C36.7521 28.8073 36.2567 28.9845 35.8754 29.335C35.272 29.8894 35.1162 30.7291 34.7955 31.4574C34.4179 32.316 33.8999 33.0935 33.469 33.9218C32.952 34.9158 32.6182 36.0157 31.9192 36.8991C31.5624 37.3502 31.1038 37.7036 30.7346 38.1385C29.7776 39.2665 29.3686 40.7398 28.4744 41.9118L28.5003 41.7901C29.3588 40.5925 29.7495 39.1688 30.6985 38.0278C31.0443 37.6119 31.4836 37.2747 31.8298 36.8454C32.4723 36.0486 32.7309 35.153 33.1775 34.2549C33.6237 33.357 34.2012 32.5214 34.6135 31.6058C34.994 30.7606 35.1505 29.7487 35.8977 29.1359C36.0954 28.9738 36.3552 28.8509 36.5624 28.7007C37.392 28.0986 37.8379 27.2081 38.6908 26.6434C39.3381 26.2145 41.0458 25.7093 41.8463 25.4799C42.6197 25.2582 43.3114 25.1657 44.0984 25.4151L44.098 25.4147ZM45.8477 27.8935C45.8839 27.8491 45.4388 27.1212 45.3753 27.0231C45.1155 26.6234 44.9349 26.2889 44.4815 26.1171C42.6066 25.407 41.0349 26.4276 39.2603 26.9247C38.1717 27.4431 37.9845 28.1607 37.2622 28.9664C36.8619 29.4127 36.2957 29.6814 35.959 30.1965C35.6025 30.742 35.4708 31.4737 35.2289 32.0821C34.612 33.6331 33.4497 35.0868 32.716 36.5975C32.1217 37.5349 31.1147 38.0904 30.4475 38.9564C29.8922 39.6765 29.6072 40.5503 29.1279 41.3167C28.7973 41.8456 28.3763 42.3474 28.0359 42.874C28.0126 42.904 28.0155 42.9177 28.0348 42.948C28.0698 43.0021 28.5737 43.3847 28.6339 43.3492C29.0399 42.7619 29.4467 42.1727 29.7878 41.5425C30.2402 40.7065 30.434 39.9807 31.1538 39.3035C31.9535 38.5508 32.6634 38.0678 33.284 37.1C33.9557 36.0527 34.6879 34.82 35.2804 33.7249C35.7167 32.9189 35.9612 32.1954 36.3253 31.3819C36.6894 30.5685 36.9882 30.4911 37.5719 29.9464C38.1027 29.4505 38.4293 28.6293 39.0327 28.2473C39.4971 27.9531 40.1133 27.8269 40.6219 27.6034C41.7675 27.0997 42.3395 26.6367 43.704 26.905C44.4322 27.0483 45.2341 27.4805 45.8474 27.8928L45.8477 27.8935ZM46.5406 29.3731C46.3928 29.0138 46.1772 28.2977 45.9171 28.0271C45.5825 27.6789 44.0557 27.046 43.565 26.9731C42.2914 26.7844 41.6675 27.2574 40.5964 27.7259C40.1031 27.9416 39.4216 28.0871 38.9955 28.3954C38.5796 28.6962 38.2957 29.258 37.971 29.6496C37.6025 30.094 37.0713 30.4008 36.7386 30.8405C36.3829 31.3109 36.2144 32.0325 35.9732 32.5791C35.4635 33.7341 34.7441 34.8133 34.0921 35.8862C33.6288 36.6485 33.2917 37.375 32.6864 38.0478C32.0348 38.7721 31.0859 39.3157 30.601 40.1488C30.3263 40.6206 30.1377 41.1483 29.871 41.6276C29.6445 42.0343 29.3789 42.4396 29.1206 42.8267C29.0301 42.9621 28.7751 43.2375 28.7295 43.357C28.6919 43.4551 28.7659 43.5394 28.8557 43.5624C28.9454 43.5853 29.4482 42.7823 29.5288 42.649C30.0585 41.776 30.4595 40.3986 31.1359 39.7313C31.8772 39.0004 32.5857 38.6137 33.2191 37.7003C33.7722 36.9032 34.3315 35.8788 34.8521 35.0291C35.5558 33.8807 35.9546 32.92 36.5077 31.715C36.9583 30.7332 37.4457 30.6221 38.0641 29.8912C38.6409 29.2095 38.6806 28.8073 39.5883 28.4046C40.2067 28.1304 40.839 27.8769 41.4596 27.603C42.9258 26.9557 44.2465 27.2474 45.5311 28.1596C46.0006 28.4931 46.2144 28.9175 46.5402 29.3731H46.5406ZM45.7989 28.4982C45.3684 28.0756 44.0473 27.472 43.4555 27.3802C42.2574 27.1941 41.6653 27.6878 40.6591 28.1219C40.1221 28.3535 39.4949 28.4583 39.0298 28.8361C38.627 29.1637 38.4019 29.6544 38.0644 30.0393C37.5179 30.6625 37.009 30.8457 36.6288 31.6898C36.3121 32.3937 36.0899 33.0621 35.7182 33.7623C35.0878 34.9502 34.257 36.2463 33.5394 37.3961C32.9039 38.4146 32.2913 38.8006 31.4631 39.5807C30.635 40.3608 30.5368 40.9985 30.0301 41.974C29.7324 42.5469 29.3358 43.0258 29.0024 43.5576C28.9823 43.5894 28.9392 43.6075 28.9834 43.6516L29.6215 44.0424C29.7386 44.0605 30.2574 43.2034 30.3347 43.0598C30.6751 42.4285 30.8488 41.7408 31.1479 41.1106C31.6317 40.0918 32.5562 39.6887 33.2512 38.8798C33.8346 38.201 34.0808 37.4716 34.5157 36.7225C34.9137 36.0375 35.4362 35.428 35.8273 34.7241C36.3216 33.8348 36.6751 32.9348 37.2855 32.0977C37.573 31.7035 37.932 31.3623 38.2264 30.9807C38.6952 30.3727 38.9856 29.6351 39.6748 29.2321C41.7065 28.452 42.6274 27.4642 44.7649 28.7144C45.7657 29.2998 45.9543 30.1803 46.4979 31.1362L47.233 32.2949C47.0692 31.2898 46.9598 30.178 46.403 29.3091C46.2629 29.0907 45.9743 28.6707 45.7989 28.4979V28.4982ZM47.306 33.1087C47.3363 32.3878 46.7905 31.8649 46.4614 31.2842C46.0542 30.5663 45.7923 29.5607 45.1305 29.0463C44.6869 28.7014 43.6358 28.2188 43.0849 28.1626C42.2888 28.0808 41.7047 28.5034 41.0228 28.7876C40.4486 29.0267 39.8295 29.147 39.357 29.5759C38.9791 29.9194 38.7591 30.4034 38.461 30.8124C38.0757 31.3408 37.6004 31.7975 37.2348 32.3423C36.5927 33.2982 36.1739 34.4551 35.5442 35.4358C35.2975 35.8199 34.9882 36.1637 34.7485 36.5519C34.2392 37.3765 33.9425 38.2395 33.2873 38.9908C32.5306 39.8586 31.6802 40.1954 31.1837 41.3323C30.89 42.0051 30.7043 42.6553 30.3161 43.3C30.1873 43.5135 29.8754 43.854 29.7962 44.0302C29.7222 44.1952 29.8334 44.2326 29.971 44.1715C30.2067 43.8296 30.4577 43.491 30.6499 43.1205C31.0286 42.3911 31.183 41.4936 31.635 40.8279C32.0148 40.2683 32.6602 39.8745 33.1242 39.3794C33.9422 38.5063 34.2786 37.4734 34.9166 36.5001C35.1658 36.1201 35.4781 35.78 35.7269 35.3988C36.3165 34.4954 36.5865 33.4984 37.3154 32.6824C37.5934 32.3711 37.9345 32.1191 38.2104 31.8145C38.8692 31.0862 39.1939 29.9893 40.1783 29.6311C40.3537 29.567 40.5413 29.5511 40.7003 29.4949C41.9802 29.0412 42.4198 28.4068 43.8784 28.9856C45.4125 29.5944 45.7332 30.5899 46.6292 31.8541L47.3064 33.1083L47.306 33.1087ZM47.3064 34.5143C47.2684 34.1601 47.3509 33.7804 47.3031 33.4266C47.2688 33.1731 46.8642 32.4585 46.7161 32.2098C46.3523 31.5999 45.87 30.8412 45.4621 30.2639C45.0159 29.6333 44.4001 29.2577 43.6796 29.0023C42.4778 28.5763 42.1432 29.0301 41.1079 29.4279C40.7007 29.5844 40.2071 29.6573 39.8433 29.8838C39.2319 30.2643 38.8959 31.094 38.4457 31.6469C38.1217 32.0444 37.6952 32.3837 37.3705 32.7756C36.7003 33.585 36.4121 34.6001 35.8364 35.4732C35.5613 35.8899 35.2191 36.2588 34.9455 36.6774C34.4431 37.4457 34.1381 38.3287 33.5763 39.0611C32.9495 39.8779 32.0067 40.3194 31.5237 41.2694C31.1899 41.9263 31.0513 42.6838 30.6631 43.3185L30.0242 44.2789C30.1782 44.2918 30.6313 44.6378 30.747 44.569C30.7736 44.5531 31.0516 44.1242 31.0965 44.0546C31.5949 43.2833 31.7751 42.5458 32.1209 41.7279C32.6 40.5954 33.5496 39.8349 34.1264 38.7691C34.4176 38.231 34.6073 37.6404 34.9528 37.1293C35.3534 36.5368 35.9477 36.1093 36.3614 35.525C36.8926 34.7748 37.1115 33.8374 37.8094 33.2212C38.2213 32.8574 38.7014 32.6039 39.0849 32.185C39.685 31.5292 39.8247 31.0851 40.7073 30.6869C43.0017 29.6514 44.5278 29.9031 46.0232 31.9877C46.6325 32.8371 46.808 33.5265 47.2235 34.4336C47.2472 34.4858 47.2016 34.5346 47.306 34.5143H47.3064ZM47.0152 36.1789C47.0874 36.1637 47.0772 36.103 47.0875 36.049C47.1611 35.6582 47.2859 34.9684 47.2078 34.5957C47.1736 34.4314 47.0594 34.2012 46.9955 34.0347C46.3421 32.3312 45.0754 30.305 43.0907 30.1544C42.3432 30.0977 40.5639 30.715 39.9973 31.2232C39.5938 31.5851 39.3216 32.0854 38.9214 32.4618C38.6153 32.7494 38.2286 32.9814 37.9192 33.2575C37.1797 33.9173 36.982 34.8129 36.4347 35.5982C35.9969 36.2263 35.3402 36.7118 34.9312 37.365C34.5784 37.9286 34.3814 38.61 34.0279 39.1858C33.5617 39.9456 32.8426 40.5803 32.4241 41.3689C32.1837 41.8219 32.0607 42.3274 31.8648 42.7989C31.5916 43.4565 31.2632 44.1164 30.7897 44.6486C30.9301 44.6612 31.2486 44.8969 31.3661 44.8266C31.4172 44.7959 31.9028 43.9132 31.963 43.7863C32.349 42.9699 32.4956 42.0562 32.948 41.2716C33.4041 40.4811 34.0925 39.8845 34.5153 39.0518C34.7791 38.5326 34.9272 37.9545 35.245 37.4616C35.6733 36.7969 36.3337 36.3665 36.7846 35.7315C37.3074 34.995 37.4256 34.1368 38.1582 33.5369C38.5296 33.2327 39.0108 33.0576 39.3756 32.7375C39.9907 32.1976 40.1199 31.8245 40.9634 31.463C43.0342 30.5751 44.8923 31.0274 45.9769 33.0706C46.4723 34.0039 46.8299 35.1375 47.0156 36.1785L47.0152 36.1789ZM46.5767 37.9172C46.5968 37.6837 46.7551 37.4494 46.7872 37.2244C46.9284 36.2329 46.0382 33.8311 45.4986 32.964C44.3866 31.1784 42.7299 30.9878 40.9014 31.8079C40.086 32.1735 39.9203 32.6202 39.2826 33.088C39.0177 33.2823 38.6752 33.4192 38.4125 33.6109C37.6602 34.159 37.5296 35.005 37.0392 35.7318C36.6266 36.3436 35.9867 36.7385 35.5507 37.3291C35.0535 38.0034 34.8554 38.8416 34.4281 39.5563C34.0272 40.2276 33.4219 40.7587 33.0436 41.4437C32.631 42.1909 32.5208 43.0909 32.1447 43.8607L31.5186 44.945L32.0268 45.13C32.2563 44.7411 32.4763 44.3825 32.6397 43.9562C32.9429 43.1645 33.0502 42.2157 33.4449 41.4811C33.8072 40.806 34.4238 40.2738 34.8065 39.5703C35.1892 38.8668 35.3563 38.0156 35.8929 37.3806C36.2625 36.9431 36.7992 36.5878 37.1487 36.1393C37.6795 35.4584 37.8324 34.4606 38.5219 33.9077C38.8525 33.6427 39.2862 33.484 39.6303 33.2197C40.1494 32.8208 40.3143 32.4737 40.9736 32.1783C44.4078 30.6414 45.619 33.2963 46.3465 36.1726L46.5763 37.9179L46.5767 37.9172ZM45.1921 40.4696C45.2385 40.4611 45.2724 40.4019 45.2845 40.3601C45.322 40.228 45.2757 39.5318 45.2644 39.3416C45.0816 36.2688 44.0977 31.9844 40.1487 34.4839C38.9262 35.2578 38.7485 35.9495 37.951 37.026C37.5413 37.5793 36.9973 38.0138 36.5931 38.5704C36.1516 39.1784 35.8959 39.9001 35.508 40.5399C35.1972 41.0529 34.7798 41.494 34.4894 42.0217C33.9123 43.0713 33.8287 44.3714 33.1596 45.388L33.2826 45.4206C34.0071 44.3784 34.094 43.0232 34.7211 41.9233C35.0159 41.4059 35.4424 40.9285 35.7412 40.406C36.0677 39.8349 36.2698 39.2691 36.6664 38.7184C37.0396 38.2007 37.5091 37.7939 37.8984 37.3051C38.7467 36.2389 38.9422 35.3873 40.1994 34.609C42.9028 32.9355 44.3902 34.4536 44.8882 37.2066C45.0827 38.2821 45.1338 39.3779 45.1918 40.4685L45.1921 40.4696ZM44.2443 41.6901L44.5555 41.3038C44.4307 40.1258 44.4099 38.9349 44.1903 37.768C43.8828 36.1349 43.1633 34.3588 41.1713 35.1149C39.8842 35.6034 39.337 36.6034 38.5183 37.6019C37.9426 38.3039 37.2968 38.9216 36.8594 39.7291C36.6678 40.0829 36.5281 40.4667 36.3245 40.8138C35.9634 41.4292 35.4581 41.924 35.1702 42.6017C34.8907 43.2597 34.793 43.9991 34.546 44.6686C34.4343 44.9713 34.2782 45.2459 34.1443 45.5368C34.2716 45.5686 34.5237 45.6322 34.6142 45.5146C34.7704 45.3114 34.9553 44.8506 35.0622 44.6005C35.4066 43.7944 35.6379 42.991 36.0578 42.2075C37.0141 40.4234 37.9922 38.8142 39.2337 37.2177C40.4752 35.6212 42.6664 33.9521 43.6879 36.8358C44.2217 38.3431 44.1002 39.9308 44.206 41.4888C44.2107 41.5606 44.2283 41.6224 44.2447 41.6905L44.2443 41.6901ZM43.6971 42.2453L44.079 41.9118C44.1575 41.7364 44.0641 41.3475 44.0601 41.1557C44.0305 39.7535 44.0316 36.7033 42.8339 35.7788C41.5708 34.8037 40.0072 36.4539 39.2706 37.4039C38.0765 38.9445 36.9404 40.7216 36.0575 42.4666C35.5522 43.4654 35.2957 44.5838 34.7273 45.5549C34.7423 45.6308 35.1104 45.653 35.1611 45.5519C36.4785 43.2119 37.4727 40.5947 38.9999 38.3868C39.6474 37.4509 41.2698 35.1878 42.5781 36.1486C43.5887 36.8906 43.6668 39.0396 43.6978 40.1909L43.6967 42.2453H43.6971ZM35.2377 45.6112H35.8393C36.0152 45.358 36.1666 45.0731 36.314 44.7981C37.3877 42.7963 38.3413 40.4334 39.6562 38.6085C40.3019 37.7121 41.7952 35.9543 42.6347 37.7184C43.1462 38.7935 43.0396 41.4925 43.0057 42.7464C43.0039 42.8089 42.9955 42.8555 42.9674 42.9107L43.5683 42.3926C43.557 40.8116 43.7248 39.0322 43.2852 37.5027C42.6226 35.1993 41.0064 36.0238 39.8692 37.382C38.2162 39.356 37.1213 41.9873 35.9495 44.2803C35.7211 44.727 35.4431 45.1523 35.2377 45.6112ZM42.6026 38.2132C42.4902 37.5467 42.1597 37.0652 41.4201 37.18C40.5176 37.3199 39.3184 39.3357 38.8776 40.1118C38.1202 41.4459 37.4701 42.8803 36.7518 44.2433C36.5128 44.6967 36.2224 45.1286 36.0403 45.6112C36.141 45.5493 36.2049 45.4076 36.2651 45.3032C37.3129 43.4813 38.144 41.4751 39.2191 39.6817C39.6843 38.9057 41.4428 36.1127 42.3902 37.7451L42.6026 38.2136V38.2132ZM42.384 38.1762C42.287 37.8576 42.0188 37.5123 41.6555 37.5848L42.1265 37.8276L42.384 38.1762ZM42.0564 43.5768C42.1064 43.6294 42.4541 43.3896 42.4566 43.2989C42.4008 41.9351 42.6179 40.5133 42.4158 39.1618C42.3242 38.55 42.113 37.5782 41.2914 37.8631C40.2709 38.2173 39.0393 40.5792 38.5369 41.5417C37.836 42.884 37.2209 44.2744 36.4413 45.5738L37.063 45.4738C37.8908 43.9732 38.561 42.3833 39.3756 40.8756C39.7233 40.232 40.3924 39.0115 41.0243 38.6644C41.785 38.2462 41.9875 39.0052 42.0823 39.611C42.2308 40.5607 42.1349 41.501 42.0933 42.4488C42.0768 42.8241 42.0688 43.2016 42.0568 43.5764L42.0564 43.5768ZM42.6755 43.1697C42.6547 41.6665 42.8328 40.1465 42.5847 38.657L42.6774 39.8949C42.7146 40.9459 42.5967 41.9906 42.6394 43.0409C42.6412 43.0861 42.6121 43.1786 42.6755 43.1697ZM41.9389 43.7174C41.9988 43.2212 41.963 42.723 41.9816 42.2253C42.0126 41.3834 42.0969 40.5614 41.978 39.7169C41.8222 38.6092 41.376 38.3383 40.5788 39.2117C40.2866 39.5318 40.0214 39.9704 39.8025 40.3475C38.8503 41.9873 38.1436 43.81 37.2067 45.4631C37.2381 45.4864 37.7689 45.4158 37.8229 45.3303C38.7113 43.5983 39.4796 41.7871 40.5059 40.1365C40.7562 39.8767 41.0539 39.483 41.3344 39.963C41.6985 40.5869 41.499 42.1527 41.473 42.8933C41.4603 43.2571 41.4793 43.6212 41.4366 43.9839C41.6431 43.985 41.7624 43.7896 41.9393 43.7178L41.9389 43.7174ZM40.9262 44.3166L41.3563 44.0324C41.3143 42.9429 41.5176 41.7915 41.4377 40.7091C41.4169 40.426 41.2844 39.6662 40.8755 39.883C40.473 40.0966 39.8736 41.5184 39.6452 41.9636C39.1553 42.9192 38.6423 43.8684 38.172 44.834C38.1195 44.942 37.9798 45.1937 37.971 45.2962C37.9656 45.3584 37.9652 45.3576 38.0206 45.3465C38.384 45.2759 38.4333 45.2166 38.6113 44.9091C39.1385 43.9976 39.5194 42.864 40.0812 41.9614C40.4238 41.4111 40.8769 41.4019 40.9586 42.1194C41.0404 42.837 40.9068 43.6157 40.9265 44.3162L40.9262 44.3166ZM40.2997 44.6064C40.3308 43.767 40.0498 43.4188 39.4957 44.2156C39.4457 44.2874 38.9944 45.0242 39.0301 45.056C39.2961 45.1082 39.3592 44.8166 39.5022 44.6663C39.7007 44.458 39.9152 44.408 40.0746 44.6834L40.2997 44.606V44.6064Z" fill="#4B5A2A"/>
<path d="M27.8988 28.0862C28.4924 27.9482 28.5238 28.7576 28.0334 28.8172C27.5719 28.873 27.4971 28.1795 27.8988 28.0862Z" fill="#4B5A2A"/>
<path d="M29.0638 26.1289C29.4754 26.1085 29.5863 26.6229 29.2192 26.8361C28.6961 27.1399 28.4739 26.1581 29.0638 26.1289Z" fill="#4B5A2A"/>
<path d="M24.4924 31.0636C24.1185 30.7542 24.6198 30.1347 24.9897 30.504C25.3596 30.8734 24.7872 31.3071 24.4924 31.0636Z" fill="#4B5A2A"/>
<path d="M24.3272 33.4854C24.8602 33.4192 24.7288 34.29 24.2246 34.1279C23.8956 34.022 23.9926 33.5269 24.3272 33.4854Z" fill="#4B5A2A"/>
<path d="M31.1435 23.5732C31.6258 23.4244 31.6995 24.1401 31.2369 24.1868C30.8787 24.2227 30.8349 23.6686 31.1435 23.5732Z" fill="#4B5A2A"/>
<path d="M26.296 32.0273C26.1242 32.2016 25.7338 31.9732 25.9596 31.7046C26.1552 31.4725 26.4861 31.8341 26.296 32.0273Z" fill="#4B5A2A"/>
<path d="M26.8606 30.3996C26.7647 30.3023 26.8019 30.0543 26.9785 30.0355C27.4378 29.9866 27.1299 30.6724 26.8606 30.3996Z" fill="#4B5A2A"/>
<path d="M24.8572 31.7519C25.0422 31.5954 25.3052 31.8888 25.1217 32.075C24.909 32.2911 24.6354 31.9399 24.8572 31.7519Z" fill="#4B5A2A"/>
<path d="M32.9131 22.6321C32.854 22.5699 32.8457 22.3567 32.9007 22.286C33.5024 22.0325 33.151 22.883 32.9131 22.6321Z" fill="#4B5A2A"/>
<path d="M29.9423 25.1845C29.8248 25.3037 29.5417 25.1956 29.6008 25.0076C29.7252 24.6109 30.1776 24.9462 29.9423 25.1845Z" fill="#4B5A2A"/>
<path d="M27.0239 27.3454C27.3213 27.2577 27.3282 27.7155 27.083 27.7377C26.8725 27.7569 26.8054 27.4098 27.0239 27.3454Z" fill="#4B5A2A"/>
<path d="M25.9283 29.0089C26.1301 28.9389 26.291 29.1269 26.1443 29.3024C25.8926 29.6032 25.7047 29.0866 25.9283 29.0089Z" fill="#4B5A2A"/>
<path d="M46.066 30.8153L45.3524 29.6351C44.9653 29.1507 43.7001 28.5408 43.0945 28.486C42.243 28.409 41.5782 28.8787 40.8252 29.1788C40.5735 29.2791 40.3013 29.3254 40.051 29.4293C39.2809 29.7491 39.0587 30.3719 38.607 30.9974C38.1149 31.6787 37.5104 32.2675 36.9883 32.924C37.0386 32.7856 37.1426 32.6402 37.228 32.5203C37.6154 31.9781 38.1083 31.5088 38.4969 30.9596C38.996 30.2543 39.2181 29.6307 40.0872 29.2813C40.672 29.0459 41.2849 28.7987 41.8738 28.5785C43.0157 28.1522 44.0314 28.5097 45.0058 29.1729C45.5213 29.5237 45.8778 30.2254 46.066 30.8157V30.8153Z" fill="#4B5A2A"/>
<defs>
<linearGradient id="paint0_linear_390_3349" x1="38.5" y1="0" x2="38.5" y2="77" gradientUnits="userSpaceOnUse">
<stop stop-color="#F7F3CF"/>
<stop offset="1" stop-color="#EFE28B"/>
</linearGradient>
</defs>
</svg>
