<svg width="77" height="77" viewBox="0 0 77 77" fill="none" xmlns="http://www.w3.org/2000/svg">
<circle cx="38.5" cy="38.5" r="38.5" fill="url(#paint0_linear_390_3348)"/>
<path d="M35.9854 7.71026C35.1259 7.51281 35.1928 8.75686 35.9045 8.62199C36.4364 8.52128 36.3929 7.80377 35.9854 7.71026Z" fill="#4B5A2A"/>
<path d="M37.5208 4L35.0951 4.18019C17.7934 5.92056 4.69389 19.8921 4.02607 37.2703C3.28525 56.5533 18.4174 72.3663 37.5743 72.9824C56.107 73.5783 72.0993 58.9094 72.9592 40.3616C72.9732 40.0623 72.9157 39.7311 72.9937 39.4434C72.979 38.7618 73.0135 38.0756 72.9937 37.3944C72.4564 19.012 57.6595 4.5233 39.3537 4H37.5208ZM61.2546 61.8884C50.128 72.8302 32.439 74.18 19.6832 65.175C5.5915 55.2269 1.6051 35.9633 10.7664 21.2218C17.2396 10.8054 29.0093 4.99589 41.2763 6.01335C58.2798 7.42392 71.2952 21.6444 71.123 38.7413C71.0334 47.6399 67.5559 55.6919 61.2543 61.8884H61.2546Z" fill="#4B5A2A"/>
<path d="M18.9128 18.5311C17.8418 18.3581 17.516 20.0269 18.6366 20.1729C19.7568 20.319 19.9524 18.6994 18.9128 18.5311Z" fill="#4B5A2A"/>
<path d="M36.3438 66.3767C35.3847 66.2131 34.9424 67.5402 35.7936 67.9333C36.8203 68.4073 37.491 66.959 36.5754 66.4684C36.5096 66.4332 36.4161 66.3889 36.3438 66.3767Z" fill="#4B5A2A"/>
<path d="M63.6225 34.7791C62.6868 34.618 62.2089 35.8013 63.0187 36.2814C64.1271 36.9385 64.8143 34.9841 63.6225 34.7791Z" fill="#4B5A2A"/>
<path d="M55.4632 15.836C54.5713 15.7259 54.1826 16.9685 55.0112 17.3663C56.1425 17.9098 56.651 15.9824 55.4632 15.836Z" fill="#4B5A2A"/>
<path d="M15.9444 42.5471C15.3806 41.9706 14.3233 42.5913 14.6095 43.397C14.798 43.9275 15.5413 44.0893 15.9398 43.6868C16.2361 43.3876 16.2361 42.8453 15.9444 42.5471Z" fill="#4B5A2A"/>
<path d="M41.9645 8.14678C41.1636 7.3372 39.979 8.70281 40.9946 9.35019C41.7717 9.8458 42.5607 8.74957 41.9645 8.14678Z" fill="#4B5A2A"/>
<path d="M9.89189 42.9753C8.7465 42.793 8.65839 44.4053 9.65274 44.5103C10.6126 44.6114 10.8345 43.1253 9.89189 42.9753Z" fill="#4B5A2A"/>
<path d="M65.5272 45.383C64.8288 45.2409 64.2588 45.8825 64.6479 46.5141C65.1636 47.3514 66.4561 46.6659 65.999 45.7739C65.9185 45.6168 65.7013 45.4182 65.5272 45.383Z" fill="#4B5A2A"/>
<path d="M9.89196 30.1779C9.00477 30.0272 8.61782 31.1292 9.31836 31.578C10.0167 32.0254 10.8212 31.2104 10.3796 30.5163C10.2832 30.3649 10.0703 30.2081 9.8916 30.1775L9.89196 30.1779Z" fill="#4B5A2A"/>
<path d="M18.9118 26.4401C18.2278 26.356 17.7146 27.1691 18.2378 27.7259C18.8139 28.3388 19.7799 27.7068 19.5249 26.9415C19.4429 26.6955 19.1721 26.4721 18.9114 26.4401H18.9118Z" fill="#4B5A2A"/>
<path d="M51.0214 65.5174C50.2755 64.7157 49.133 66.0594 50.0386 66.6622C50.8409 67.1963 51.6216 66.1622 51.0214 65.5174Z" fill="#4B5A2A"/>
<path d="M50.0145 60.7728C49.7444 60.5027 49.2216 60.5121 48.9479 60.7768C48.361 61.3443 48.9436 62.2956 49.7844 62.0086C50.2936 61.8349 50.3734 61.1314 50.0145 60.7728Z" fill="#4B5A2A"/>
<path d="M63.5898 30.1203C64.2361 30.7619 65.2581 29.9081 64.7273 29.1442C64.1311 28.2864 62.8051 29.3413 63.5898 30.1203Z" fill="#4B5A2A"/>
<path d="M30.9528 14.577C30.3123 14.4702 29.8179 15.105 30.1653 15.688C30.3853 16.0574 30.8867 16.1656 31.2427 15.9283C31.7771 15.5722 31.5922 14.6839 30.9528 14.577Z" fill="#4B5A2A"/>
<path d="M11.1498 34.9587C10.4791 34.8512 9.99465 35.5928 10.4025 36.1373C10.8923 36.7912 11.873 36.3614 11.7349 35.559C11.6867 35.2799 11.4321 35.0041 11.1494 34.9587H11.1498Z" fill="#4B5A2A"/>
<path d="M23.9224 16.0297C24.6014 15.3982 23.6462 14.2311 22.896 14.9134C22.1754 15.569 23.1877 16.7131 23.9224 16.0297Z" fill="#4B5A2A"/>
<path d="M60.458 17.4155C59.6129 17.3479 59.2856 18.5844 60.1631 18.8635C61.229 19.2026 61.5167 17.5 60.458 17.4155Z" fill="#4B5A2A"/>
<path d="M68.3442 32.9966C69.011 32.3018 67.9447 31.2566 67.2596 31.9655C66.5886 32.66 67.666 33.703 68.3442 32.9966Z" fill="#4B5A2A"/>
<path d="M13.7049 21.2055C14.3155 21.8119 15.3498 20.9998 14.8061 20.2661C14.2105 19.463 12.9393 20.4448 13.7049 21.2055Z" fill="#4B5A2A"/>
<path d="M26.3912 62.4733C26.4602 62.5341 26.6019 62.6053 26.6929 62.6211C27.8638 62.8247 27.8868 61.1117 26.7558 61.2278C26.147 61.2904 25.9265 62.0644 26.3912 62.4733Z" fill="#4B5A2A"/>
<path d="M33.0404 9.69298C32.7789 9.68759 32.4787 9.88216 32.3744 10.1221C32.0579 10.8504 33.0447 11.5445 33.5859 10.8665C33.9696 10.3857 33.6338 9.70521 33.0404 9.69298Z" fill="#4B5A2A"/>
<path d="M41.2304 67.5271C40.0602 67.3836 40.258 69.3233 41.4009 68.901C42.0683 68.6547 41.9702 67.6178 41.2304 67.5271Z" fill="#4B5A2A"/>
<path d="M21.0697 61.8108C19.9718 61.5827 19.7848 63.271 20.9715 63.1699C21.7695 63.1019 21.7253 61.9471 21.0697 61.8108Z" fill="#4B5A2A"/>
<path d="M22.6773 60.308C22.7464 60.3688 22.888 60.44 22.979 60.4559C24.15 60.6594 24.173 58.9464 23.042 59.0625C22.4331 59.1251 22.2127 59.8991 22.6773 60.308Z" fill="#4B5A2A"/>
<path d="M17.3559 59.646C16.2579 59.4179 16.0709 61.1062 17.2577 61.0051C18.0557 60.9371 18.0114 59.7823 17.3559 59.646Z" fill="#4B5A2A"/>
<path d="M65.2397 39.4523C64.4702 39.3229 64.0771 40.3281 64.7287 40.7539C65.0632 40.9726 65.5479 40.8036 65.7274 40.4623C65.9399 40.058 65.6936 39.5286 65.2397 39.4523Z" fill="#4B5A2A"/>
<path d="M60.1343 45.3823C59.401 45.3251 59.0529 46.4159 59.8149 46.7112C60.9014 47.1324 61.1855 45.4643 60.1343 45.3823Z" fill="#4B5A2A"/>
<path d="M58.4452 60.0854C57.6799 60.0037 57.4012 61.101 58.0895 61.4132C59.0695 61.8574 59.533 60.2015 58.4452 60.0854Z" fill="#4B5A2A"/>
<path d="M61.5738 49.6248C60.5784 49.4198 60.3979 50.7944 61.2024 50.9667C62.1928 51.1789 62.378 49.7902 61.5738 49.6248Z" fill="#4B5A2A"/>
<path d="M24.7714 10.9823C23.7497 10.8079 23.7012 12.3433 24.6416 12.3623C25.4543 12.3785 25.5924 11.1226 24.7714 10.9823Z" fill="#4B5A2A"/>
<path d="M62.2549 55.3766C61.3778 55.2806 61.2433 56.5937 62.0524 56.6951C63.0245 56.8167 63.1104 55.4701 62.2549 55.3766Z" fill="#4B5A2A"/>
<path d="M45.3681 10.2777C45.9672 10.8636 47.0209 9.87308 46.2355 9.28432C45.5659 8.78224 44.8118 9.73353 45.3681 10.2777Z" fill="#4B5A2A"/>
<path d="M35.6971 13.247C34.6142 13.0597 34.6765 14.6263 35.6665 14.4932C36.3667 14.399 36.3649 13.3628 35.6971 13.247Z" fill="#4B5A2A"/>
<path d="M23.4445 23.3627C23.743 23.6821 24.3184 23.6076 24.501 23.2041C24.7531 22.6466 24.2213 22.1233 23.6635 22.3308C23.247 22.4855 23.1528 23.0505 23.4445 23.3627Z" fill="#4B5A2A"/>
<path d="M13.9531 46.7855C12.875 46.601 12.9138 48.1274 13.8898 48.035C14.5939 47.9684 14.5867 46.8938 13.9531 46.7855Z" fill="#4B5A2A"/>
<path d="M53.7384 12.0251C53.0343 11.9068 52.7405 12.8757 53.3555 13.1627C54.193 13.5536 54.6346 12.1758 53.7384 12.0251Z" fill="#4B5A2A"/>
<path d="M15.1383 31.7946C14.5597 31.7097 14.1846 32.5894 14.797 32.8922C15.632 33.3051 16.0168 31.9233 15.1383 31.7946Z" fill="#4B5A2A"/>
<path d="M59.7438 38.737C59.1752 39.3473 60.1645 40.1713 60.6241 39.4556C61.0122 38.8517 60.1875 38.2604 59.7438 38.737Z" fill="#4B5A2A"/>
<path d="M61.4657 26.0441C60.676 25.916 60.5922 27.1058 61.3359 27.1367C62.0379 27.1662 62.108 26.148 61.4657 26.0441Z" fill="#4B5A2A"/>
<path d="M53.9905 61.5956C53.0745 61.4399 53.2295 62.9065 54.052 62.6102C54.5673 62.4242 54.5116 61.6841 53.9905 61.5956Z" fill="#4B5A2A"/>
<path d="M8.59823 38.9129C8.39073 38.8701 8.19546 38.9086 8.05484 39.0719C7.66681 39.5218 8.19294 40.2012 8.70828 39.8689C9.05639 39.6445 9.0251 39.0007 8.59823 38.9125V38.9129Z" fill="#4B5A2A"/>
<path d="M10.5055 51.0064C10.9871 51.488 11.6984 50.7679 11.2679 50.2979C10.7645 49.748 10.0129 50.5133 10.5055 51.0064Z" fill="#4B5A2A"/>
<path d="M11.4377 25.6124C10.8213 25.4983 10.5314 26.2432 11.0554 26.5338C11.7243 26.9046 12.154 25.7447 11.4377 25.6124Z" fill="#4B5A2A"/>
<path d="M65.3259 24.4778C65.7934 24.0074 65.1267 23.2575 64.6178 23.7517C64.123 24.2329 64.9113 24.895 65.3259 24.4778Z" fill="#4B5A2A"/>
<path d="M15.4274 24.2105C14.7355 24.0684 14.5815 25.0762 15.1922 25.2002C15.8827 25.3409 16.0125 24.3306 15.4274 24.2105Z" fill="#4B5A2A"/>
<path d="M20.5692 22.7049C20.0492 23.1951 20.9058 23.9216 21.3118 23.3577C21.675 22.8531 20.991 22.3075 20.5692 22.7049Z" fill="#4B5A2A"/>
<path d="M61.7538 21.5145C61.0241 21.3645 60.927 22.4658 61.6225 22.5115C62.1439 22.5456 62.3223 21.6314 61.7538 21.5145Z" fill="#4B5A2A"/>
<path d="M28.3787 67.5416C28.7581 67.1392 28.2618 66.4073 27.7627 66.7996C27.193 67.2471 27.923 68.025 28.3787 67.5416Z" fill="#4B5A2A"/>
<path d="M19.0915 14.8282C18.6255 14.8012 18.437 15.4986 18.9139 15.7622C19.5421 16.1096 19.9366 14.8771 19.0915 14.8282Z" fill="#4B5A2A"/>
<path d="M39.6148 63.3565C38.9567 63.2213 38.8251 64.1604 39.3796 64.2744C40.0309 64.4082 40.1805 63.4727 39.6148 63.3565Z" fill="#4B5A2A"/>
<path d="M43.6766 11.8441C42.99 11.6869 42.7883 12.5569 43.3774 12.7181C43.993 12.8864 44.1872 11.961 43.6766 11.8441Z" fill="#4B5A2A"/>
<path d="M29.0518 9.43952C28.4631 9.40427 28.3628 10.2728 28.9152 10.361C29.5761 10.4667 29.6549 9.47585 29.0518 9.43952Z" fill="#4B5A2A"/>
<path d="M68.2231 42.723C67.4837 42.573 67.442 43.6789 68.1594 43.6149C68.6439 43.5718 68.6928 42.8183 68.2231 42.723Z" fill="#4B5A2A"/>
<path d="M48.6352 12.1678C48.1544 12.0703 47.8476 12.6861 48.2842 12.9864C48.8826 13.3982 49.3069 12.3038 48.6352 12.1678Z" fill="#4B5A2A"/>
<path d="M34.3312 62.2427C33.6213 62.0582 33.5479 63.1192 34.1963 63.0998C34.7073 63.0847 34.7491 62.3514 34.3312 62.2427Z" fill="#4B5A2A"/>
<path d="M43.4234 64.4712C43.0217 64.4478 42.7559 65.015 43.181 65.2897C43.7826 65.6785 44.1272 64.5122 43.4234 64.4712Z" fill="#4B5A2A"/>
<path d="M68.7972 38.2278C68.2081 38.1545 68.1179 39.0119 68.6663 39.0809C69.3046 39.1615 69.2942 38.2897 68.7972 38.2278Z" fill="#4B5A2A"/>
<path d="M46.0828 66.735C45.6024 66.6649 45.4003 67.3425 45.825 67.5687C46.3889 67.869 46.7323 66.83 46.0828 66.735Z" fill="#4B5A2A"/>
<path d="M23.4048 18.8895C22.8359 18.7805 22.6672 19.6077 23.1775 19.7293C23.8184 19.8818 23.8943 18.9834 23.4048 18.8895Z" fill="#4B5A2A"/>
<path d="M66.6416 49.3736C65.9773 49.238 65.8957 50.2299 66.543 50.1943C67.0231 50.1681 67.0709 49.461 66.6416 49.3736Z" fill="#4B5A2A"/>
<path d="M27.4656 13.3529C27.0398 13.2727 26.7115 13.9075 27.1908 14.133C27.8184 14.4283 28.0572 13.4644 27.4656 13.3529Z" fill="#4B5A2A"/>
<path d="M32.5496 68.6935C32.9358 68.2568 32.2759 67.6915 31.9127 68.1464C31.5538 68.5963 32.2418 69.0416 32.5496 68.6935Z" fill="#4B5A2A"/>
<path d="M19.3076 30.5362C18.747 30.428 18.6021 31.2437 19.1091 31.3473C19.6888 31.4659 19.823 30.6355 19.3076 30.5362Z" fill="#4B5A2A"/>
<path d="M31.743 65.2243C31.2021 65.1433 31.1219 65.94 31.5441 66.0364C32.1745 66.1806 32.2885 65.3059 31.743 65.2243Z" fill="#4B5A2A"/>
<path d="M13.9507 52.7363C14.0198 52.797 14.1615 52.8682 14.2525 52.8841C15.4234 53.0876 15.4464 51.3746 14.3154 51.4908C13.7066 51.5533 13.4861 52.3273 13.9507 52.7363Z" fill="#4B5A2A"/>
<path d="M45.5097 58.084C44.3395 57.9405 44.5373 59.8801 45.6802 59.4579C46.3476 59.2115 46.2495 58.1747 45.5097 58.084Z" fill="#4B5A2A"/>
<path d="M20.3582 36.1395C20.7376 35.7371 20.2413 35.0052 19.7421 35.3975C19.1725 35.845 19.9025 36.6229 20.3582 36.1395Z" fill="#4B5A2A"/>
<path d="M23.722 33.8224C23.1811 33.7415 23.1009 34.5381 23.5231 34.6345C24.1535 34.7787 24.2675 33.9041 23.722 33.8224Z" fill="#4B5A2A"/>
<path d="M56.5072 19.9321C55.825 19.7753 55.8103 20.837 56.44 20.7496C56.9021 20.6856 56.9032 20.0231 56.5072 19.9321Z" fill="#4B5A2A"/>
<path d="M38.429 10.4065C37.7047 10.241 37.7169 11.3006 38.3189 11.2182C38.7757 11.156 38.7649 10.4831 38.429 10.4065Z" fill="#4B5A2A"/>
<path d="M26.2808 17.2009C25.6888 17.0801 25.5784 17.8429 25.9816 17.9673C26.5886 18.1544 26.7853 17.3041 26.2808 17.2009Z" fill="#4B5A2A"/>
<path d="M13.3579 40.0653C13.0501 39.6801 12.3725 40.1286 12.7221 40.576C13.0799 41.0339 13.6823 40.471 13.3579 40.0653Z" fill="#4B5A2A"/>
<path d="M64.9875 52.1397C64.611 52.0685 64.2966 52.6356 64.6793 52.8817C65.2629 53.2568 65.5877 52.253 64.9875 52.1397Z" fill="#4B5A2A"/>
<path d="M24.1265 65.4218C24.439 65.7976 25.0777 65.3286 24.7788 64.8949C24.4857 64.4694 23.7561 64.9765 24.1265 65.4218Z" fill="#4B5A2A"/>
<path d="M60.6058 32.206C61.0093 32.5912 61.5325 31.9622 61.1513 31.6065C60.7575 31.2389 60.2285 31.8464 60.6058 32.206Z" fill="#4B5A2A"/>
<path d="M55.2236 30.6258C54.2879 30.4647 53.81 31.6479 54.6198 32.1281C55.7282 32.7852 56.4154 30.8308 55.2236 30.6258Z" fill="#4B5A2A"/>
<path d="M55.1909 25.967C55.8372 26.6086 56.8592 25.7548 56.3284 24.9909C55.7321 24.1331 54.4062 25.188 55.1909 25.967Z" fill="#4B5A2A"/>
<path d="M53.0668 21.8907C52.2771 21.7627 52.1933 22.9524 52.937 22.9834C53.639 23.0129 53.7091 21.9947 53.0668 21.8907Z" fill="#4B5A2A"/>
<path d="M52.2068 28.0527C52.6103 28.4379 53.1336 27.8089 52.7524 27.4532C52.3586 27.0856 51.8296 27.6931 52.2068 28.0527Z" fill="#4B5A2A"/>
<path d="M50.5037 9.86717C50.0966 9.78805 49.8316 10.3311 50.1793 10.5879C50.7137 10.9828 51.1266 9.98838 50.5037 9.86717Z" fill="#4B5A2A"/>
<path d="M40.4562 13.5369C40.0538 13.1816 39.4816 13.8671 39.9459 14.1732C40.4101 14.4792 40.7982 13.8394 40.4562 13.5369Z" fill="#4B5A2A"/>
<path d="M62.7591 41.9315C62.1417 41.8135 62.1402 42.7954 62.7293 42.7134C63.1687 42.6522 63.181 42.0124 62.7591 41.9315Z" fill="#4B5A2A"/>
<path d="M51.9046 15.2219C51.377 15.1625 51.3058 15.97 51.8427 16.0081C52.3437 16.044 52.417 15.2794 51.9046 15.2219Z" fill="#4B5A2A"/>
<path d="M59.3464 52.8593C58.9048 52.7594 58.6459 53.3003 59.0307 53.5707C59.5514 53.9372 59.8909 52.9827 59.3464 52.8593Z" fill="#4B5A2A"/>
<path d="M57.3709 14.1848C56.98 14.5146 57.4841 15.14 57.8819 14.7854C58.2753 14.4347 57.7614 13.8553 57.3709 14.1848Z" fill="#4B5A2A"/>
<path d="M67.3588 27.3726C66.96 27.3186 66.7381 27.8739 67.1006 28.1005C67.6368 28.4357 67.9508 27.4528 67.3588 27.3726Z" fill="#4B5A2A"/>
<path d="M22.3638 27.0853C21.7671 26.9501 21.7067 27.8726 22.2645 27.8625C22.7378 27.8539 22.7608 27.1752 22.3638 27.0853Z" fill="#4B5A2A"/>
<path d="M14.7076 27.948C14.1689 27.8437 13.9992 28.7331 14.6454 28.6978C15.1032 28.6727 15.1198 28.0278 14.7076 27.948Z" fill="#4B5A2A"/>
<path d="M9.38875 47.0716C8.98598 47.0338 8.80833 47.6236 9.18988 47.8107C9.72752 48.0739 10.0037 47.1295 9.38875 47.0716Z" fill="#4B5A2A"/>
<path d="M67.3952 35.4961C67.0043 35.4278 66.7659 35.9723 67.123 36.2021C67.6614 36.5488 67.9588 35.5947 67.3952 35.4961Z" fill="#4B5A2A"/>
<path d="M12.2314 54.0857C11.742 54.057 11.6654 54.8245 12.1696 54.8536C12.6781 54.8831 12.6957 54.1131 12.2314 54.0857Z" fill="#4B5A2A"/>
<path d="M39.1315 44.8142C39.4735 45.1289 39.6911 45.4461 39.8677 45.7777C39.8317 45.7539 39.7954 45.7313 39.758 45.709C39.3689 44.9836 38.6187 44.5581 38.0484 43.9938C37.4643 43.4162 36.8987 42.5537 36.4024 41.7441H36.5333C36.7846 42.1434 37.0364 42.5311 37.273 42.8936C37.8549 43.7859 38.3846 44.1269 39.1319 44.8142H39.1315Z" fill="#4B5A2A"/>
<path d="M12.1721 53.2528C19.5494 39.4395 26.9414 25.6333 34.4567 11.8956C35.9765 9.54449 39.3314 9.48946 40.9137 11.7862C48.4665 25.6333 55.9207 39.5362 63.3544 53.4491C64.088 54.8903 63.8204 56.6314 62.6812 57.765C62.0403 58.4027 61.2265 58.7587 60.3206 58.8228C45.1579 58.7983 29.9902 58.8656 14.8304 58.789C12.2275 58.4451 10.8433 55.5197 12.1721 53.2528ZM38.7269 11.4205C39.2192 11.8567 39.6723 12.3307 40.0974 12.8335C40.1207 12.8609 40.3441 13.1821 40.3707 13.1515C40.0398 12.3775 39.5432 11.7157 38.7265 11.4208L38.7269 11.4205ZM43.5738 19.0657C43.3994 20.1475 43.59 21.3502 44.4542 22.094C44.7825 22.3763 45.1802 22.5396 45.5636 22.7295L43.5738 19.0657ZM48.3093 27.788C47.5581 26.7756 47.0977 25.6265 46.531 24.518C46.3799 24.2231 46.0261 23.5027 45.8358 23.2805C45.6157 23.0237 45.0342 22.8604 44.7271 22.6874C43.2084 21.8325 42.9722 20.1356 43.3023 18.547L41.2953 14.8541C41.3974 15.5234 41.5718 16.2046 41.9063 16.7959C42.3971 17.663 42.8129 17.7036 42.796 18.851C42.7755 20.2532 42.723 21.3042 43.7187 22.4263C44.2618 23.0384 44.8559 23.1625 45.4697 23.5891C46.175 24.0785 46.2778 24.7802 46.6069 25.51C47.037 26.4638 47.6516 27.3399 48.2525 28.1919C48.5941 28.6764 48.9545 29.1565 49.3141 29.6252L48.3097 27.788H48.3093ZM50.2077 31.4576C48.8437 29.7546 47.5832 28.2829 46.4637 26.3735C46.0444 25.6582 45.7035 24.7766 45.0583 24.2307C44.5847 23.8297 43.9406 23.6132 43.5163 23.1334C43.5037 23.1873 43.5465 23.2021 43.5735 23.2344C43.932 23.6606 44.4966 23.8789 44.9263 24.2181C45.6175 24.7637 45.9024 25.5395 46.3379 26.2685C47.5325 28.2682 48.9232 30.1596 50.4965 31.8748C50.4343 31.7234 50.3095 31.5846 50.2077 31.4573V31.4576ZM57.7371 45.2907C57.6576 45.2792 57.6929 45.2997 57.6796 45.3335C57.5605 45.6338 57.4365 45.9388 57.2185 46.1852C57.384 45.7363 57.5386 45.2403 57.3832 44.7652C55.291 40.6731 53.0552 36.6514 50.8842 32.5988C49.3173 30.8088 47.8565 28.9616 46.5903 26.9396C46.0825 26.1286 45.5291 24.877 44.7825 24.3044C44.1985 23.8566 43.6961 23.666 43.2156 23.0438C42.2946 21.8508 42.3734 20.6194 42.1217 19.2333C41.9117 18.0777 41.3096 17.5932 40.8562 16.6042C40.5893 16.0219 40.4663 15.3918 40.2409 14.7962C39.7949 13.6201 38.7441 12.2401 37.6858 11.5525C37.6074 11.5014 37.2704 11.2996 37.2049 11.2823C37.042 11.2395 36.4587 11.5039 36.2947 11.5988C36.1707 11.6708 36.02 11.7848 35.9132 11.8808C35.8747 11.9153 35.541 12.2498 35.5823 12.2854C36.7601 12.3013 37.7735 12.9824 38.4327 13.9211C38.9926 14.7185 39.2476 15.6712 39.7529 16.4956C40.1398 17.1271 40.6174 17.5195 41.0622 18.0709C41.8868 19.0937 41.812 20.4101 42.1012 21.6329L41.9713 21.2294C41.7876 20.4119 41.7286 19.4883 41.3568 18.7283C41.0273 18.0554 40.3333 17.5655 39.8852 16.9689C39.1735 16.0208 38.8801 14.8728 38.1615 13.9327C37.4901 13.0537 36.5173 12.4868 35.3849 12.5214L35.3227 12.6897C36.3875 12.7267 37.2722 13.1623 37.9468 13.9744C38.4963 14.6354 38.752 15.4083 39.1444 16.1525C39.2674 16.3862 39.4216 16.6053 39.5342 16.8441C38.793 15.9165 38.5032 14.7253 37.6606 13.8575C36.9694 13.1457 36.1987 12.8674 35.2062 12.8458L34.2553 14.5933C34.9864 14.5764 35.6661 14.5135 36.3767 14.7368C37.7789 15.1774 38.3575 16.4175 39.231 17.4504C40.0614 18.432 40.7767 18.7297 41.1863 20.0821C41.5941 21.4272 41.5528 22.2267 42.4245 23.4599C43.1973 24.5533 44.2977 25.0266 45.1587 26.0628C46.2246 27.3453 47.1409 28.935 48.1356 30.2981C49.1918 31.7453 50.3196 32.9207 51.4632 34.2694C51.5257 34.3431 51.6171 34.4406 51.6502 34.5294C51.5815 34.4823 51.5189 34.4179 51.4624 34.3568C50.221 33.0049 49.0569 31.6882 47.9749 30.1995C46.9097 28.7339 45.7337 26.6274 44.4347 25.4309C43.8478 24.8903 43.1876 24.5724 42.6352 23.9419C41.5182 22.6669 41.5276 21.6609 41.0842 20.1558C40.6947 18.8344 39.9906 18.5431 39.1735 17.5947C38.3309 16.6168 37.7203 15.3853 36.4177 14.9267C35.6881 14.6699 34.9436 14.7476 34.1877 14.7714L33.909 15.2857C33.9209 15.3033 34.2712 15.3457 34.3269 15.3461C34.8124 15.349 35.2087 15.2249 35.7406 15.2864C37.4132 15.4792 37.9918 16.6988 38.9714 17.8256C39.5263 18.464 40.234 18.9265 40.612 19.7044C40.9475 20.395 41.0076 21.1902 41.2215 21.9224C41.4779 22.7996 41.9627 23.7027 42.5485 24.4033C43.052 25.0057 43.7346 25.4039 44.3092 25.9311C46.0692 27.5464 47.4764 30.1201 48.9559 32.0453C49.9862 33.3857 51.1899 34.5053 52.1641 35.9051C53.8859 38.3795 55.5398 41.3669 56.4177 44.2588C56.6744 45.1051 56.8848 45.9625 56.5763 46.8275C56.4565 47.1627 55.9638 47.9575 56.1253 48.273C56.1692 48.3586 56.4256 48.5233 56.5191 48.5715C57.2243 48.9333 58.0791 49.1401 58.7948 49.498L60.4195 50.3683L57.7364 45.2911L57.7371 45.2907ZM34.6308 57.6963C35.1788 56.2893 34.8196 55.0669 34.1554 53.8009C33.5771 52.6989 32.814 51.348 32.1329 50.3129C32.0789 50.2309 31.8764 49.909 31.7894 49.9062C31.6787 50.1173 31.7344 50.359 31.7168 50.5841C31.5165 53.1431 30.3995 55.3564 29.467 57.696H34.6308V57.6963ZM28.5726 57.7251L28.6733 57.6963C29.6033 55.3769 30.7663 53.0974 31.0784 50.5812C31.1187 50.2554 31.0997 49.4257 31.3122 49.1994C31.6387 48.8517 32.1016 49.6868 32.2303 49.8979C32.8722 50.9506 33.512 52.1231 34.1158 53.2053C34.8958 54.6026 35.5874 56.0477 35.0055 57.6823L35.1465 57.6934C35.2723 57.2025 35.3551 56.6918 35.322 56.1818C35.2101 54.454 33.6609 52.3101 32.8075 50.7913C32.4943 50.2338 32.2228 49.5774 31.8552 49.0606C31.6679 48.7973 31.2669 48.3028 31.1011 48.8725C30.9688 49.3264 31.0166 49.9554 30.9662 50.4399C30.7267 52.746 29.7673 54.7018 28.9045 56.8026C28.8585 56.9144 28.5338 57.6866 28.5719 57.7247L28.5726 57.7251ZM27.9379 57.6963C28.3173 56.5105 28.9006 55.4028 29.3447 54.2418C29.9661 52.6173 30.3801 50.951 30.4488 49.2009C30.4685 48.6945 30.3488 47.1929 30.5678 46.8387C30.927 46.2582 31.5046 47.3091 31.6639 47.5788C32.3436 48.7276 32.8755 50.0187 33.5293 51.1952C34.3963 52.7561 35.7776 54.4385 35.9826 56.2426C36.038 56.7285 36.002 57.2111 35.9574 57.696H36.5342C36.7018 56.2343 36.166 54.8748 35.4324 53.648C34.8171 52.6191 34.1363 51.6509 33.5577 50.5892C32.7449 49.0977 32.0501 47.1969 31.0882 45.8464C30.8368 45.4932 30.3092 44.8012 30.0636 45.5845C29.8636 46.2215 30.005 46.9595 30.0158 47.6116C30.0399 49.0797 30.0007 50.4654 29.6543 51.8976C29.1638 53.9264 28.1299 55.7502 27.4182 57.696H27.9375L27.9379 57.6963ZM27.2888 57.6963C27.4197 57.4866 27.4815 57.2338 27.5783 57.0047C28.2029 55.5247 28.9225 54.0994 29.3879 52.554C29.8165 51.1315 29.9935 49.5584 29.9582 48.0734C29.942 47.3897 29.7594 46.0068 30.0384 45.4151C30.4214 44.603 31.1061 45.7306 31.3356 46.0899C32.1638 47.3853 32.759 48.9599 33.5001 50.3298C34.119 51.4735 34.8545 52.5349 35.519 53.6484C36.2663 54.9003 36.7835 56.1991 36.6785 57.6963H37.6304C37.5124 55.1417 35.7546 53.2247 34.474 51.174C34.0158 50.4406 33.5685 49.6382 33.1729 48.8689C32.531 47.6202 31.9689 46.1165 31.1234 45.0041C30.8569 44.6534 30.2046 43.8172 29.7885 44.4444C29.2717 45.2242 29.5968 47.9004 29.554 48.9416C29.5267 49.6044 29.4368 50.2996 29.3131 50.9506C28.8578 53.342 27.6527 55.4636 26.7547 57.6963H27.2884H27.2888ZM26.5821 57.6963C27.5574 55.2819 28.8463 53.0496 29.2602 50.4356C29.4641 49.148 29.4109 48.118 29.3792 46.8354C29.3631 46.1805 29.3411 45.1778 29.5688 44.5703C30.0729 43.2245 31.2011 44.8512 31.556 45.4087C32.3314 46.6261 32.8942 48.05 33.5771 49.3304C34.3697 50.8161 35.2864 52.0727 36.1829 53.4754C37.0169 54.7795 37.6789 56.1196 37.8037 57.6967H38.6114C38.3478 56.1678 37.6419 54.8547 36.8004 53.579C35.7567 51.9968 34.6808 50.6017 33.7601 48.9164C33.0456 47.6083 31.5995 44.2175 30.3416 43.5647C29.563 43.1608 29.3285 44.0103 29.2163 44.593C28.9696 45.8759 29.1739 47.2577 29.1218 48.5664C29.0736 49.7767 28.829 51.0006 28.4651 52.1508C27.8566 54.0717 26.8328 55.8193 26.1204 57.6967H26.5818L26.5821 57.6963ZM34.7746 49.9065L32.9154 46.3855L32.6694 45.9827C33.0585 46.8135 33.4872 47.6285 33.9234 48.4355C34.192 48.9326 34.4463 49.4465 34.7746 49.9062V49.9065ZM31.1691 43.6895C31.0939 43.6003 30.9555 43.4618 30.8663 43.3867C30.8339 43.3593 30.8192 43.3169 30.7652 43.3295L31.2266 43.7909C31.2392 43.737 31.1964 43.7222 31.1694 43.6899L31.1691 43.6895ZM30.1589 42.9252C29.3095 42.5681 28.9855 43.3694 28.8412 44.0449C28.7567 44.4401 28.7125 44.8584 28.7172 45.2619L28.8804 44.1707C29.0038 43.7097 29.2455 42.9965 29.8007 42.9278C29.9068 42.9145 29.9712 42.9364 30.0665 42.9457C30.0981 42.949 30.1647 42.9796 30.1589 42.9256V42.9252ZM25.627 57.6931C26.7928 54.7051 28.6409 51.8684 28.6877 48.551L28.569 49.5717C28.1209 52.4835 26.4954 54.9816 25.486 57.6963L25.627 57.6931ZM20.1809 57.678C20.2373 57.6276 20.4412 57.059 20.4797 56.9454C20.6915 56.3196 20.7958 55.6722 20.9648 55.0359C21.6823 52.3374 24.0957 50.5089 24.2464 47.5857C24.3348 45.8683 23.5458 44.402 23.6397 42.7379C23.7102 41.4881 24.3564 39.6668 25.012 38.5997C25.3828 37.9962 25.8834 37.2233 26.2987 36.6554C27.1165 35.5372 28.2774 35.0017 29.6468 35.4602C30.2668 35.6677 31.2101 36.0022 31.7258 36.3813C32.368 36.8535 32.8086 37.684 33.3329 38.2936C33.6505 38.6626 34.0151 38.9874 34.3416 39.3474C34.1946 39.0248 33.9007 38.7741 33.6796 38.495C32.9186 37.5351 32.2789 36.3036 31.1302 35.7936C29.7996 35.2031 28.4219 34.601 27.1036 35.5847C26.4275 36.0893 26.1448 36.7654 25.6996 37.4405C25.1882 38.2159 24.7466 38.7565 24.3758 39.6365C23.6163 41.4395 23.3214 42.7299 23.7393 44.6854C24.063 46.2006 24.3708 47.1379 23.9425 48.724C23.375 50.8269 21.7352 52.299 21.0583 54.235C20.6613 55.3711 20.5836 56.6102 20.0334 57.696C20.0827 57.6913 20.1374 57.7161 20.1805 57.6776L20.1809 57.678ZM34.2841 39.0877C34.2726 39.0097 34.2219 38.9259 34.1809 38.8593C33.9691 38.5151 33.5922 38.0375 33.3315 37.7181C33.1553 37.502 32.9549 37.2923 32.7557 37.097L34.2841 39.0877ZM32.3227 36.4773C32.3062 36.4403 31.8926 36.0396 31.8301 35.9889C31.3794 35.6221 29.6223 34.8974 29.0484 34.8474C27.7279 34.7323 26.5551 35.5045 26.0344 36.6935C26.3559 36.2231 26.6526 35.7965 27.1212 35.4584C28.4885 34.4719 29.6382 35.0344 31.0241 35.6124C31.547 35.8303 31.9369 36.0882 32.3083 36.5205C32.3296 36.5252 32.3281 36.4903 32.3224 36.4777L32.3227 36.4773ZM17.0191 57.6963C17.2514 57.2622 17.4722 56.776 17.6186 56.3052C17.9354 55.2866 17.9473 54.1972 18.2727 53.1801C18.8373 51.4167 20.3492 50.2834 20.9573 48.5657C21.5722 46.8282 20.7494 45.4389 20.5563 43.7438C20.3258 41.7157 20.8185 40.7108 21.5262 38.9219C21.7384 38.386 21.8732 37.8102 22.1631 37.3085C22.4886 36.7456 22.9913 36.3335 23.3452 35.8077C23.6523 35.3516 23.8335 34.8222 24.1061 34.3474C24.8383 33.0728 26.3886 31.8885 27.8929 31.7874C29.2883 31.6939 31.8045 32.424 32.9834 33.1904C33.5692 33.5713 33.9245 34.0928 34.4434 34.5287C34.8523 34.8718 35.3978 35.1049 35.7711 35.4804C35.7949 35.5045 35.8179 35.5296 35.8405 35.5555L35.8495 35.8073C35.8413 35.7958 35.8333 35.7839 35.8251 35.7728C35.4299 35.2509 34.7861 35.0096 34.2992 34.5866C33.9054 34.2449 33.5843 33.8166 33.1729 33.4915C32.2551 32.7664 30.6584 32.2917 29.5188 32.0392C27.711 31.6389 26.2272 32.059 24.9559 33.3944C24.2262 34.1608 24.0558 34.7438 23.5573 35.6163C23.183 36.2712 22.5864 36.728 22.2203 37.3664C21.9405 37.8545 21.8157 38.4018 21.6122 38.9219C21.072 40.303 20.5678 41.2985 20.58 42.854C20.5995 45.3464 22.0336 46.8642 20.6725 49.3778C19.9468 50.7183 18.8237 51.7073 18.3522 53.2024C18.0393 54.1951 18.007 55.2557 17.7106 56.2537C17.5621 56.7544 17.3374 57.2248 17.1194 57.6963L17.3744 57.6916C17.6513 57.1824 17.8786 56.6432 18.0285 56.0811C18.2691 55.1791 18.3263 54.235 18.605 53.3398C19.1833 51.4818 20.912 50.1709 21.4162 48.2748C21.8707 46.5653 20.9825 45.0069 20.8972 43.3151C20.8098 41.5841 21.2543 40.5756 21.8718 39.0366C22.0649 38.5558 22.1951 38.0857 22.4512 37.6254C22.7658 37.0596 23.2236 36.6226 23.5757 36.0957C23.9173 35.5843 24.1349 34.9955 24.4636 34.4737C25.2209 33.2706 26.5037 32.396 27.9505 32.3064C29.5533 32.2071 31.9401 32.9121 33.1725 33.9529C33.5688 34.2877 33.8313 34.6967 34.1971 35.0344C34.5901 35.3976 35.1098 35.6393 35.4529 36.058C35.6499 36.2986 35.7765 36.5777 35.888 36.864L35.8981 37.1463C35.7132 36.6967 35.5021 36.2633 35.2224 36.0001C34.9062 35.7026 34.4729 35.4786 34.1395 35.179C33.6339 34.7247 33.3257 34.2252 32.7356 33.8134C31.049 32.6373 27.9839 31.9557 26.1405 33.0635C24.601 33.9885 24.4007 35.2743 23.4203 36.6036C23.1049 37.0312 22.787 37.3664 22.5335 37.8516C22.2918 38.3134 22.1509 38.8144 21.9596 39.297C21.386 40.7446 20.9871 41.6549 21.0713 43.2867C21.1565 44.9339 21.9901 46.4186 21.6352 48.0895C21.1838 50.214 19.3552 51.4919 18.7352 53.5268C18.4579 54.4368 18.4126 55.4035 18.1443 56.3113C18.0023 56.7925 17.7872 57.2414 17.5819 57.696C17.853 57.7175 17.8732 57.7093 17.9908 57.4848C18.7014 56.1297 18.6582 54.5878 19.2045 53.188C19.8784 51.462 21.355 50.2345 21.8718 48.3546C22.349 46.6182 21.4766 45.0763 21.3885 43.373C21.2993 41.6449 21.9063 39.9628 22.654 38.4331C23.1118 37.4959 23.8066 36.7615 24.3082 35.8469C24.9645 34.6514 25.3267 33.772 26.6584 33.1484C28.6219 32.2291 32.0307 33.1926 33.434 34.7884C33.6551 35.0398 33.8241 35.3383 34.0529 35.5829C34.5542 36.1184 35.1012 36.2968 35.4234 37.0395C35.6151 37.4808 35.7546 37.9595 35.9445 38.4134L35.9524 38.6353C35.8884 38.4961 35.8272 38.358 35.7704 38.2213C35.6025 37.8185 35.4816 37.3481 35.2993 36.9614C34.9987 36.3238 34.3193 36.0065 33.8655 35.4814C33.0945 34.5895 32.8564 34.15 31.7074 33.6296C29.6637 32.7045 27.1762 32.3233 25.4709 34.0957C24.861 34.7298 24.5952 35.5343 24.1529 36.2687C23.6789 37.056 23.0977 37.6685 22.6914 38.5288C21.9786 40.0376 21.3888 41.6157 21.4744 43.3151C21.5593 44.9983 22.381 46.5132 21.9754 48.228C21.4733 50.3493 19.6558 51.7501 19.0668 53.83C18.8229 54.691 18.7561 55.5959 18.4835 56.449C18.3454 56.8813 18.1415 57.2841 17.9559 57.6956H18.8359C19.4846 56.5285 19.5113 55.1424 19.9248 53.9091C20.6915 51.6232 22.7921 50.0576 22.9751 47.4968C23.0719 46.142 22.5134 44.8764 22.3986 43.5446C22.2645 41.9873 22.7845 40.2735 23.4408 38.8752C23.7864 38.1393 24.2683 37.5944 24.6891 36.9211C25.3831 35.8109 25.7057 34.7729 26.9655 34.1198C28.6435 33.2498 30.1021 33.8594 31.6686 34.5906C32.6773 35.0614 32.7737 35.3843 33.4609 36.1446C33.795 36.5144 34.2489 36.7992 34.5384 37.202C34.8577 37.6469 35.0095 38.2062 35.2306 38.7025C35.4565 39.2096 35.7215 39.7311 36.0103 40.2505L36.0196 40.5069C35.8848 40.2846 35.755 40.0591 35.6345 39.8275C35.2885 39.164 35.0594 38.4702 34.7412 37.807C34.4254 37.1492 34.2291 37.0614 33.7353 36.5917C33.0096 35.9015 32.7794 35.2782 31.8121 34.7934C30.1646 33.9676 28.4259 33.3059 26.7163 34.3895C25.6809 35.0459 25.3314 36.0547 24.7182 37.0362C24.3546 37.6185 23.9105 38.126 23.5991 38.7442C22.9043 40.1239 22.399 41.8474 22.4839 43.4014C22.5698 44.9792 23.2761 46.3074 22.9967 47.9507C22.5716 50.4482 20.5419 51.9436 19.8971 54.3137C19.5893 55.4445 19.4818 56.6364 18.9369 57.6952C19.0351 57.6819 19.1926 57.7287 19.2682 57.6661C19.3293 57.6158 19.5228 57.1194 19.5641 57.0101C19.8856 56.1602 19.9716 55.292 20.2143 54.4288C20.9037 51.9781 23.096 50.3356 23.379 47.6982C23.5624 45.991 22.7683 44.5271 22.8011 42.8504C22.827 41.5147 23.448 39.5337 24.1349 38.3853C24.383 37.9703 24.6999 37.5951 24.9491 37.1801C25.495 36.2709 25.805 35.3459 26.7166 34.7067C27.7351 33.9925 28.9452 33.8846 30.1078 34.3046C30.6786 34.5111 31.888 35.0085 32.3483 35.353C32.8014 35.6922 33.0028 36.1508 33.3707 36.5378C33.5652 36.7424 33.8493 36.9273 34.0428 37.1348C34.6002 37.7336 34.8066 38.5543 35.144 39.279C35.3917 39.8113 35.7028 40.3742 36.0351 40.9331L36.043 41.1514C35.9758 41.0399 35.9103 40.9309 35.847 40.8263C35.3177 39.953 35.0184 39.2021 34.6063 38.2878C34.1877 37.3599 33.8551 37.2358 33.2304 36.5482C33.0017 36.2961 32.8258 35.9893 32.5968 35.7397C32.1192 35.2193 31.0461 34.8247 30.3801 34.5521C29.1056 34.0302 27.9077 34.0155 26.7572 34.8337C25.8524 35.4771 25.5403 36.454 24.9782 37.3531C24.7696 37.6865 24.5154 37.994 24.3082 38.3274C23.6839 39.3305 23.0168 41.2705 22.946 42.4465C22.8172 44.5825 23.8814 46.2244 23.3657 48.4057C22.8183 50.7215 20.9167 52.2522 20.3013 54.5155C20.11 55.219 20.0262 55.9516 19.8105 56.6501C19.6993 57.0097 19.5235 57.3471 19.3991 57.6952H19.8752C20.3542 56.9058 20.4599 55.9757 20.6829 55.0985C21.2572 52.8377 22.7709 51.4563 23.5958 49.3563C24.2985 47.5673 24.027 46.5801 23.649 44.8044C23.1941 42.6677 23.5171 41.1011 24.4427 39.1535C24.7585 38.4889 25.2123 37.9724 25.5849 37.3531C26.1232 36.4583 26.38 35.6652 27.3708 35.129C28.7053 34.4068 29.9331 34.9596 31.1889 35.5325C32.1329 35.9634 32.2954 36.3946 32.9006 37.1384C33.5487 37.9347 34.2391 38.645 34.6844 39.5955C34.8124 39.8689 34.903 40.1595 35.0296 40.4332C35.3727 41.1759 35.8625 41.7769 36.2872 42.4645C36.6486 43.05 36.9237 43.673 37.3855 44.1934C37.8062 44.6678 38.2248 44.9476 38.6067 45.2882C38.5629 45.2803 38.5186 45.2734 38.474 45.267C38.2219 45.053 37.9526 44.8541 37.7178 44.6545C37.7045 44.7113 37.7469 44.7228 37.7778 44.7527C37.9565 44.9253 38.177 45.085 38.3748 45.2529C38.3388 45.2486 38.3025 45.2457 38.2662 45.2421C38.0745 45.0796 37.8767 44.9221 37.7027 44.7411C36.6191 43.6136 35.9991 42.0009 34.994 40.7856L34.689 40.2113C34.7495 40.4965 34.9289 40.7695 35.0807 41.0165C35.4327 41.5895 35.8776 42.1167 36.2296 42.6947C36.6069 43.314 36.8701 43.9524 37.3567 44.5102C37.5854 44.7724 37.8623 44.999 38.1292 45.2321C38.0846 45.2296 38.0396 45.2274 37.9943 45.2263C37.6243 44.894 37.2675 44.5948 36.9442 44.1438C36.6191 43.6899 36.4397 43.1763 36.1552 42.7116C35.7086 41.9819 35.0781 41.3402 34.7121 40.5483C34.5905 40.2854 34.5225 39.9994 34.3963 39.739C34.1176 39.165 33.5167 38.7076 33.1031 38.2051C32.5295 37.5085 32.1231 36.6766 31.2913 36.2378C30.7979 35.9774 29.3814 35.4491 28.8488 35.4203C27.2129 35.3322 26.6181 36.459 25.8445 37.6117C25.2612 38.4806 24.8124 39.0866 24.4262 40.0883C23.7951 41.7254 23.6066 42.9155 23.9716 44.6541C24.2748 46.0978 24.5765 47.0311 24.232 48.5488C23.6821 50.9711 21.7679 52.5924 21.1162 54.9244C20.8627 55.8311 20.7591 56.7979 20.3082 57.637L20.3373 57.6942H20.7843C20.9127 57.3374 21.0612 56.9853 21.1677 56.6206C21.5499 55.3086 21.6585 54.4407 22.3767 53.2136C23.6854 50.9776 24.9577 49.5041 24.7941 46.688C24.7311 45.6058 24.2777 44.5847 24.2162 43.5154C24.1259 41.9441 24.8901 39.7074 25.7927 38.4252C27.1568 36.4885 28.8308 36.0558 30.9583 37.2053C31.7506 37.6333 31.9789 38.2116 32.5986 38.7385C32.86 38.9608 33.1758 39.1212 33.4336 39.3459C34.023 39.8603 34.2248 40.7011 34.6941 41.3165C35.0979 41.8466 35.6766 42.2987 36.0283 42.8673C36.2674 43.254 36.3965 43.7035 36.6073 44.106C36.8349 44.5412 37.1222 44.899 37.4139 45.2475C37.3657 45.2526 37.3179 45.2583 37.2704 45.2644C37.0316 44.9871 36.7986 44.7005 36.6069 44.3653C36.394 43.9931 36.2642 43.5795 36.0703 43.1997C35.633 42.3433 34.8091 41.7689 34.338 40.9507C34.0723 40.4893 33.8878 39.9505 33.5213 39.5463C33.2049 39.1974 32.7518 38.9895 32.4101 38.6673C31.7063 38.0034 31.6373 37.5966 30.6415 37.1474C28.9984 36.4061 27.6419 36.4522 26.3667 37.8156C25.3119 38.9435 24.3769 41.3424 24.3032 42.8781C24.2302 44.4013 24.9591 45.8032 24.9099 47.3508C24.825 50.0195 23.4538 51.4178 22.28 53.5779C21.6629 54.7133 21.565 55.6398 21.2033 56.8285C21.1137 57.123 20.9728 57.401 20.9005 57.6938L21.2209 57.6762C21.6607 56.708 21.7542 55.6258 22.1649 54.6454C22.4659 53.9271 22.9273 53.292 23.3182 52.6252C24.6963 50.2737 25.5385 48.3589 25.0174 45.5421C24.7545 44.1218 24.4413 43.3083 24.8261 41.8139C25.5971 38.8198 27.5308 36.0774 30.9404 37.9454C31.4942 38.249 31.7883 38.7414 32.2695 39.0974C32.632 39.3657 33.0384 39.5074 33.3491 39.8642C33.7677 40.3444 33.9151 41.0173 34.3032 41.5355C34.6718 42.0275 35.2159 42.3617 35.5622 42.8727C35.9563 43.4539 36.1059 44.17 36.4843 44.7782C36.6058 44.9735 36.7497 45.1555 36.9003 45.3328C36.8367 45.3475 36.7738 45.3641 36.7126 45.3817C36.585 45.2242 36.4623 45.0602 36.3512 44.8821C35.956 44.2477 35.7819 43.4726 35.3486 42.8842C34.9821 42.3868 34.4067 42.0466 34.0604 41.5183C33.7299 41.0148 33.5846 40.3659 33.1509 39.9322C32.805 39.5862 32.3321 39.4208 31.9645 39.1132C31.4237 38.6612 31.2737 38.3504 30.5635 38.0332C27.3686 36.6057 25.8122 39.2345 25.1145 41.9294C24.6402 43.7611 25.3587 45.0638 25.4306 46.8304C25.5144 48.8887 24.8297 50.5154 23.8479 52.2605C23.3657 53.1175 22.7619 53.9242 22.3864 54.8381C22.0067 55.7624 21.8844 56.7688 21.5064 57.6938L21.8204 57.6906C22.1329 56.9151 22.2674 56.0775 22.5529 55.2931C22.9665 54.1573 23.7976 53.0269 24.3672 51.9436C25.2605 50.245 25.7658 48.7333 25.6903 46.7732C25.6392 45.4457 25.1954 44.2254 25.2839 42.8785C25.359 41.738 26.1765 39.6294 26.9863 38.8108C28.0281 37.7581 29.5842 37.8325 30.7954 38.5515C31.1867 38.7834 31.4578 39.1363 31.8243 39.3977C32.1152 39.6056 32.4669 39.7538 32.7413 39.9811C33.343 40.4796 33.4552 41.2032 33.8986 41.7952C34.2079 42.2081 34.6592 42.5048 34.9926 42.8936C35.5381 43.5298 35.6791 44.3369 36.1085 45.0379C36.2023 45.1911 36.3106 45.3367 36.4253 45.4788C36.0894 45.6097 35.7974 45.7881 35.5539 46.0053C35.5169 45.9532 35.4802 45.9 35.445 45.8456C35.0713 45.2706 34.8293 44.6214 34.4362 44.0556C34.1047 43.578 33.6972 43.2051 33.334 42.7634C32.5105 41.7603 32.2041 40.977 30.9871 40.2926C28.5838 38.941 27.1643 40.5037 26.7116 42.8066C26.3239 44.7782 26.5951 46.7926 26.2563 48.7851C25.846 51.1991 24.6758 52.9708 23.6731 55.1165C23.2855 55.9459 22.996 56.8134 22.746 57.6945L22.855 57.6452C23.1075 56.8799 23.3358 56.1045 23.6642 55.3672C24.6103 53.2416 25.8154 51.4606 26.2858 49.1031C26.6623 47.2167 26.4688 45.3892 26.7019 43.5183C26.9493 41.5327 27.8972 39.2708 30.3401 40.1322C31.9347 40.6943 32.3792 41.7873 33.3628 42.9659C33.8036 43.4946 34.2316 43.8931 34.597 44.5013C34.8606 44.94 35.044 45.4216 35.323 45.8525C35.3716 45.9277 35.4237 46.0021 35.4773 46.0762C35.313 46.2355 35.1738 46.4143 35.0616 46.6092C34.8883 46.3636 34.7153 46.1176 34.5689 45.8568C34.3844 45.5281 34.2442 45.1709 34.0489 44.8476C33.749 44.3506 33.3725 43.9859 33.0168 43.5428C32.1731 42.4915 31.2859 41.1277 29.85 40.8533C27.5218 40.4084 27.3168 43.896 27.2463 45.4184C27.1683 47.1012 27.1277 48.6193 26.6616 50.2572C25.974 52.6726 24.4862 54.7162 23.6976 57.073C23.6314 57.2705 23.5498 57.4931 23.5257 57.6945H23.9296C24.0097 57.4294 24.0925 57.1604 24.1885 56.9008C25.0055 54.695 26.3189 52.7777 26.9504 50.4593C27.4553 48.6057 27.415 47.0088 27.5056 45.1289C27.5898 43.377 28.0868 40.0124 30.6491 41.5262C32.1016 42.3843 33.5595 44.8893 34.3967 46.347C34.5402 46.597 34.6995 46.8401 34.8527 47.0861C34.8358 47.1393 34.821 47.1933 34.8077 47.2483C33.977 45.7255 33.0244 44.2103 31.92 42.8806C31.1806 41.9909 29.6349 40.5681 28.5449 41.7826C27.3923 43.0669 27.7095 46.4369 27.5358 48.1302C27.3283 50.1504 26.7148 51.9026 25.8589 53.7232C25.4497 54.5939 24.9617 55.4305 24.5884 56.3185C24.4028 56.7601 24.2241 57.2342 24.1032 57.6942H24.6225C24.6258 57.5859 24.6768 57.4701 24.7164 57.3697C26.002 54.094 27.7289 51.6821 27.9397 47.986C28.0271 46.4545 27.6401 43.1986 28.7769 42.0721C29.9687 40.8907 31.6107 42.995 32.2447 43.8834C33.2351 45.2706 33.9766 46.8225 34.7703 48.3388C34.7912 48.4607 34.8203 48.5798 34.8581 48.6948C33.8892 46.8692 33.0337 44.953 31.7466 43.3428C31.1522 42.599 29.7939 41.2097 28.8477 42.1721C27.7613 43.2773 28.1083 46.3923 28.0278 47.8723C27.9292 49.6742 27.4592 51.3937 26.7709 53.0488C26.2761 54.2386 25.6327 55.3618 25.1368 56.5501C24.984 56.9166 24.8236 57.3075 24.738 57.6949H25.3439C25.9481 55.9448 26.8781 54.3325 27.5369 52.6032C28.1026 51.1182 28.4856 49.5868 28.5471 47.9878C28.5967 46.6984 28.2989 44.0046 29.1235 42.9961C29.9072 42.0376 31.004 43.263 31.4999 43.9071C32.7859 45.5777 33.6062 47.663 34.6567 49.4915C36.0822 51.9731 38.1763 54.0857 38.9804 56.8806C39.0573 57.1482 39.0908 57.4467 39.2048 57.6945H40.1423C39.9492 56.7375 39.5792 55.8168 39.1041 54.968C38.1407 53.2459 36.7195 51.8454 35.6877 50.1622C35.5478 49.9339 35.4126 49.7022 35.2803 49.4681C35.3583 49.5649 35.4442 49.6558 35.5377 49.7418C35.8517 50.2831 36.1854 50.8111 36.554 51.3157C37.9645 53.2484 39.3792 54.6446 40.0923 57.0381C40.1567 57.2547 40.1916 57.492 40.2721 57.6949H41.123C40.8008 56.6166 40.33 55.5891 39.7043 54.6565C38.6456 53.0783 37.1287 51.8174 36.1718 50.1784C36.2404 50.213 36.3116 50.245 36.3843 50.2752C37.5308 52.1306 39.3202 53.5358 40.3779 55.5118C40.7497 56.207 41.0155 56.954 41.282 57.6949H42.1907C41.7052 56.2555 40.9378 54.9262 39.9553 53.7707C38.9919 52.6378 37.7235 51.6764 36.8784 50.4377C37.1737 50.5108 37.4948 50.5507 37.8382 50.5539C38.6582 51.6088 39.7417 52.4817 40.6034 53.4977C41.6495 54.7317 42.4745 56.139 43.0585 57.6488C43.075 57.7103 43.2591 57.7089 43.2584 57.6798C42.5852 56.1099 41.7455 54.6 40.6188 53.3089C39.8456 52.4227 38.7768 51.5347 37.9824 50.5525C38.3726 50.5438 38.7358 50.4841 39.0663 50.3809C40.4401 51.9961 42.5115 53.3074 43.5817 54.9903L45.3101 57.6902C45.3856 57.7388 45.8934 57.5557 45.9984 57.5068C45.7276 57.278 45.5086 56.9932 45.2946 56.7101C44.5538 55.7301 44.0169 54.7104 43.1861 53.7699C42.1422 52.5878 40.6537 51.4728 39.5396 50.1925C39.5899 50.1676 39.6392 50.1421 39.6874 50.1151C40.7587 51.3405 42.1842 52.4252 43.1861 53.5391C44.1535 54.6144 44.7465 55.7765 45.6114 56.8835C45.7017 56.9989 45.9854 57.359 46.0973 57.4075C46.2659 57.4809 46.65 57.2694 46.8349 57.218C45.8157 56.4825 45.2281 55.3064 44.4808 54.3213C43.3936 52.8874 41.9778 51.7408 40.704 50.4823C40.4944 50.2752 40.2833 50.0666 40.0794 49.8511C40.1006 49.8342 40.1215 49.817 40.1423 49.7997C41.4772 51.2865 43.17 52.5101 44.4229 54.1192C45.109 55.0003 45.7161 56.1343 46.5457 56.8716C46.6389 56.9543 46.8769 57.1748 46.9927 57.1755L48.0748 56.8853C47.9777 56.7961 47.8404 56.7407 47.7314 56.6666C46.5626 55.8757 45.8035 54.6662 44.9012 53.6117C44.0809 52.6532 43.098 51.634 42.1914 50.7539C41.6894 50.2665 41.1111 49.8051 40.6048 49.2894C40.6239 49.2617 40.6418 49.2333 40.6598 49.2048C41.05 49.6152 41.4819 49.991 41.8832 50.3842C42.9776 51.4559 44.078 52.5331 45.0745 53.6984C45.8614 54.6184 46.5752 55.7178 47.5591 56.4354C47.7796 56.5961 48.1529 56.9169 48.4211 56.7849C47.7037 56.3886 47.0564 55.8739 46.5026 55.2704C46.3839 55.141 46.2742 54.973 46.1573 54.8367C46.0944 54.7637 45.9448 54.6759 45.9549 54.5777C46.5475 55.2097 47.119 55.8344 47.8353 56.3321C47.9389 56.4041 48.4772 56.7605 48.5517 56.7702C48.6081 56.7778 48.5974 56.7594 48.5945 56.7127C46.7104 55.7761 45.6481 53.8764 44.1952 52.4425C44.1737 52.4378 44.1755 52.4727 44.1812 52.4853C44.2082 52.5457 44.5092 52.8061 44.584 52.8902C44.6735 52.9909 44.7491 53.1107 44.844 53.2071C44.8523 53.2887 44.808 53.2308 44.7857 53.2071C44.6926 53.1089 44.6048 52.9733 44.5128 52.8744C43.7439 52.0479 42.9456 51.2488 42.1454 50.4528C41.6754 49.9968 41.1798 49.5566 40.7382 49.0703C40.7598 49.0308 40.7799 48.9905 40.7993 48.9498C40.9655 49.1509 41.1636 49.3634 41.4107 49.6008C42.5482 50.6938 43.7076 51.7627 44.7872 52.9176C45.8258 54.0282 46.6691 55.3866 47.9508 56.2451C48.1155 56.3555 48.6955 56.7159 48.8595 56.7058C49.1357 56.6889 49.486 56.5454 49.7769 56.5386L49.0944 56.1976C47.8152 55.5668 47.0826 54.4213 46.1721 53.4078C44.8055 51.8868 43.2606 50.5233 41.8289 49.0674C41.5315 48.765 41.2654 48.4445 41.0245 48.1072C41.0288 48.0579 41.0313 48.0083 41.0327 47.9579C41.7829 48.9955 42.7427 49.7976 43.6626 50.7247C44.4459 51.5145 45.2676 52.3054 46.0271 53.1204C46.7457 53.8912 47.3272 54.7684 48.1482 55.442C48.4891 55.7214 49.4889 56.4141 49.8909 56.4976C49.9269 56.5051 50.2761 56.5407 50.1811 56.453C49.0433 56.0189 48.0597 55.2474 47.2527 54.3468C46.9079 53.962 46.5964 53.5419 46.244 53.1632C45.925 52.8205 45.5701 52.5086 45.2486 52.168C45.2773 52.1213 45.3122 52.1778 45.3352 52.1968C45.5355 52.3648 45.7114 52.6061 45.9117 52.7744C45.9347 52.7935 45.9696 52.8499 45.9984 52.8032C45.5747 52.3515 45.1101 51.9404 44.6707 51.5056C43.3807 50.2288 41.9458 48.8797 40.9716 47.321C40.94 47.1814 40.8961 47.0469 40.8414 46.9178C40.9184 47.0595 40.9979 47.1987 41.082 47.3335C41.7987 48.4798 42.7143 49.3527 43.6468 50.3086C44.4671 51.1495 45.3298 51.9674 46.1325 52.8273C47.4243 54.212 48.4607 55.8239 50.3814 56.4397L51.8544 56.4231C51.8465 56.3735 51.7969 56.3728 51.7613 56.3577C51.2305 56.1322 50.7062 55.9523 50.1905 55.6783C48.4927 54.7755 47.1305 53.0535 45.7538 51.7199C44.7656 50.7629 43.6871 49.8968 42.842 48.8042C42.1371 47.8932 41.4161 46.8908 40.8583 45.8834C40.5767 45.3749 40.3484 44.7588 39.9697 44.3196C39.2519 43.4877 38.5161 43.0223 37.8796 42.0247C37.8203 41.9315 37.7602 41.8366 37.6994 41.7409H37.7922C37.8803 41.8779 37.9673 42.0114 38.0526 42.1401C38.629 43.0119 39.3393 43.4917 39.9981 44.2333C40.4329 44.7228 40.6803 45.422 41.0022 45.9989C41.5607 47.0001 42.3615 48.0708 43.0729 48.9768C43.9101 50.0436 45.1166 50.9966 46.0998 51.9508C47.9313 53.7282 49.3339 55.5474 51.9048 56.3296C52.3691 56.471 52.8578 56.4127 53.3253 56.5386L53.2325 56.4731C52.1504 56.0203 51.014 55.6132 50.0218 54.9816C48.7426 54.1674 47.7821 52.9938 46.691 51.9659C45.3216 50.6758 43.6831 49.6745 42.6165 48.1068C42.0123 47.2185 41.4589 46.2416 40.9637 45.2878C40.6771 44.7357 40.4484 44.1499 40.1254 43.6165C39.7201 42.9468 39.2372 42.3919 38.8186 41.7413H38.9595C39.011 41.8269 39.0645 41.9121 39.1206 41.9962C39.4518 42.4915 39.8661 42.9443 40.1653 43.4611C40.5451 44.1161 40.831 44.8958 41.1946 45.5766C41.9501 46.9912 43.0009 48.6909 44.2093 49.7454C44.9084 50.3554 45.6575 50.9071 46.3447 51.5333C47.9267 52.9744 49.1339 54.5425 51.1226 55.4967C52.2619 56.043 53.6195 56.6127 54.853 56.8723C54.9015 56.8828 54.9483 56.8918 54.9982 56.8853C54.9788 56.8472 54.9008 56.7983 54.8634 56.7752C53.7245 56.08 52.5521 55.5693 51.402 54.9284C49.4331 53.8315 48.0205 52.0655 46.2091 50.7744C45.7567 50.4521 45.2482 50.1709 44.8059 49.8411C43.0675 48.5441 41.9717 45.8978 41.0612 43.979C40.6523 43.1177 40.1783 42.344 39.7054 41.5643L39.7374 40.6821C40.1161 41.2823 40.517 41.8729 40.8493 42.4883C42.0778 44.7627 42.765 47.8986 44.8303 49.5854C45.2777 49.9508 45.8002 50.2583 46.2667 50.601C48.0849 51.9371 49.545 53.7063 51.5171 54.8417C52.3004 55.2924 53.1329 55.6589 53.9215 56.1012C54.5911 56.4771 55.2086 56.9418 55.9214 57.2309C55.4841 56.858 54.959 56.5206 54.4595 56.2264C53.1868 55.4765 51.8138 54.9507 50.6044 54.0811C49.176 53.0539 48.0166 51.6688 46.613 50.6298C46.1077 50.2558 45.5467 49.9285 45.0612 49.5274C43.1642 47.9601 42.5593 45.5655 41.5607 43.4212C41.0392 42.302 40.3703 41.2985 39.7529 40.2566L39.855 37.4408C40.2002 38.2677 40.5465 39.0744 40.9669 39.7743C41.4833 40.6342 42.0871 41.4201 42.5478 42.3189C43.376 43.9352 43.8309 45.7514 44.6904 47.3598C45.3806 48.652 46.084 49.0088 47.1657 49.8752C48.3474 50.8215 49.3299 52.0695 50.4983 53.0625C52.1558 54.4709 54.3024 55.3042 56.1044 56.6015C56.546 56.9195 57.002 57.3417 57.4419 57.6298C57.4908 57.6618 57.5282 57.7046 57.5954 57.6924L57.3653 57.4467C55.1701 55.4488 52.2741 54.5461 50.1088 52.5288C49.322 51.7958 48.6276 50.97 47.8605 50.2191C46.9053 49.2843 45.8858 48.6042 45.1619 47.436C44.1222 45.7586 43.6055 43.81 42.6676 42.0833C41.9311 40.7277 41.0101 39.5438 40.3685 38.122C40.2027 37.7545 40.0395 37.3732 39.8719 36.988L39.8848 36.6356C40.1599 37.2628 40.43 37.8994 40.7379 38.532C41.1342 39.3467 41.6347 40.1041 42.1332 40.8587L42.0185 40.8288C42.3777 41.4168 42.7535 41.9995 43.0524 42.6221C43.8094 44.1988 44.352 45.8964 45.2942 47.3904C46.0347 48.5643 47.3067 49.5199 48.2784 50.5223C49.7985 52.09 50.7928 53.22 52.7298 54.3508C54.4707 55.3668 56.2533 56.275 57.7252 57.6924H58.6628C57.9514 57.0608 57.2142 56.444 56.4335 55.8973C54.8601 54.7957 53.0178 54.0192 51.5527 52.787C50.3009 51.7343 49.4011 50.2637 48.4341 48.9531C47.8526 48.1654 47.2175 47.4274 46.6968 46.5941C45.5722 44.7955 44.6246 42.8875 43.5411 41.0658C42.929 40.0368 42.204 39.1086 41.5732 38.1005C40.9939 37.1747 40.4818 36.2439 39.9316 35.3401L39.9571 34.6388C40.672 35.7386 41.3096 36.8816 42.0346 38.0141C42.4705 38.6953 42.9715 39.3334 43.4145 40.0095C44.9188 42.3056 46.0904 44.867 47.6134 47.1483C48.3985 48.324 49.2648 49.5814 50.1006 50.7197C50.3023 50.9945 50.5069 51.2876 50.7587 51.5185L49.34 48.9419C47.2135 45.937 45.6747 42.5623 43.617 39.5189C43.3473 39.1201 43.0441 38.7396 42.7737 38.3429C41.8092 36.9265 40.9608 35.4289 39.9798 34.0241L39.9902 33.7382C40.9187 35.0344 41.697 36.3781 42.6122 37.7253C43.1617 38.5338 43.7784 39.2992 44.3208 40.1135C45.378 41.701 46.2426 43.3993 47.2168 45.0357C48.0914 46.5049 49.044 47.8842 49.8701 49.3929C50.2232 50.0378 50.517 50.7276 50.9205 51.343C52.1252 53.1801 53.9607 54.0282 55.7477 55.1705C56.8996 55.907 58.0032 56.7198 58.9818 57.6776C60.1257 57.7391 61.2121 57.7884 62.0249 56.8562C62.7031 56.0782 62.8995 54.6561 62.2403 53.8128C61.4858 52.8471 59.8801 51.8868 58.7279 51.498C57.3311 51.0265 55.8351 50.942 54.4592 50.5165C52.1508 49.8026 52.2943 47.1595 51.8131 45.2288C51.5653 44.2347 50.9759 43.8032 50.4188 43.0166C49.1177 41.1795 48.3668 38.9708 47.0215 37.211C45.5881 35.3361 43.863 33.5325 42.231 31.8324C41.5632 31.1368 40.8274 30.4714 40.2761 29.6762C40.2315 29.6119 40.188 29.5457 40.1452 29.4781L40.1585 29.1094C40.5124 29.6669 40.8367 30.1546 41.383 30.7322C42.3626 31.7691 43.3818 32.7365 44.3416 33.804C45.6014 35.2045 47.2304 36.9463 48.1396 38.5741C48.9764 40.0721 49.6377 41.6042 50.6497 43.0166C51.2229 43.8168 51.7412 44.1768 51.9861 45.1997C52.4356 47.0768 52.3464 49.703 54.5814 50.3647C55.5711 50.6575 56.691 50.7758 57.7065 51.0186C59.2953 51.3984 60.5461 51.9663 61.7936 53.0186C61.826 53.046 61.8407 53.0884 61.8947 53.0758C61.7472 52.8593 61.6519 52.5406 61.4682 52.3547C61.315 52.1997 60.878 51.9479 60.6738 51.8303C58.9285 50.8269 57.1171 50.6474 55.2011 50.2061C53.0962 49.7213 53.0005 48.7938 52.6143 46.8502C52.4133 45.8381 52.4219 44.7631 51.8102 43.9039C51.3035 43.1925 50.7633 42.6199 50.2861 41.8506C49.3842 40.3969 48.716 38.604 47.7141 37.2682C46.1678 35.2067 44.2539 33.0646 42.4381 31.2353C41.9713 30.7653 41.4524 30.3326 41.0234 29.823C40.6976 29.4356 40.4422 29.0008 40.1783 28.5724L40.2218 27.3759C40.9105 28.1876 41.3442 29.0886 42.163 29.8086C42.491 30.0967 42.8607 30.3412 43.1869 30.6311C43.7173 31.1026 44.2237 31.7047 44.6883 32.2456C45.7722 33.508 46.8726 34.8894 47.8587 36.2299C48.3906 36.9528 48.8707 37.7077 49.3752 38.449C49.008 37.6937 48.5369 36.9841 48.0432 36.3051C46.8323 34.6395 45.3273 32.6509 43.9241 31.1638C43.1247 30.3164 42.1814 29.6942 41.4431 28.798C41.0255 28.2912 40.6641 27.7276 40.2268 27.2374L40.2693 26.0674C40.4933 26.248 40.7263 26.4142 40.9525 26.6055C41.7815 27.3068 42.3173 28.2502 43.1153 29.0008C44.3599 30.1722 45.337 31.0692 46.3875 32.4506C47.5685 34.0036 48.9088 35.6253 49.9359 37.2686C50.499 38.1699 50.8554 39.0129 51.3222 39.9498C52.0806 41.4719 53.3181 42.3796 53.7813 44.0686C53.9974 44.8562 54.0488 45.6791 54.3081 46.4556C54.498 47.0239 55.1388 48.3906 55.5974 48.7438C56.1253 49.1502 57.2912 49.426 57.9507 49.6792C58.9533 50.0644 60.0042 50.5187 60.8568 51.1722C60.8018 51.024 60.6705 50.7553 60.5547 50.6525C60.3915 50.5075 59.8804 50.2421 59.665 50.1288C58.5642 49.549 57.4304 49.2796 56.3375 48.783C55.6607 48.4755 55.5449 48.0806 55.2169 47.4515C54.5448 46.1629 54.4919 45.3277 54.1276 43.9826C53.7615 42.6303 53.2591 42.1466 52.4795 41.0727C51.7807 40.1102 51.4168 39.0791 50.8522 38.0551C49.6956 35.9594 47.972 33.8393 46.5026 31.9324C45.5373 30.6797 44.6516 29.8201 43.5195 28.7418C42.7075 27.9686 42.0961 26.9936 41.2704 26.2886C40.9813 26.0419 40.63 25.824 40.3599 25.5549C40.3362 25.5312 40.3139 25.5071 40.2912 25.4834L40.3002 25.2363C40.6616 25.6445 41.1302 25.9322 41.5301 26.289C42.2475 26.9288 42.7834 27.7978 43.4907 28.4825C44.639 29.5942 45.5658 30.4477 46.5605 31.7309C48.0137 33.6055 49.6313 35.64 50.8234 37.6807C51.4362 38.7299 51.8433 39.879 52.5374 40.8712C52.989 41.5168 53.5346 42.0937 53.8913 42.8062C54.4775 43.9772 54.448 45.3853 54.9964 46.5768L55.8376 48.1151C55.8653 47.6572 56.0933 47.2515 56.1936 46.812C56.482 45.5493 56.0149 44.3955 55.5711 43.2324C54.6767 40.8871 53.1462 38.3382 51.7074 36.2777C50.8227 35.0107 49.7535 33.9256 48.8002 32.7225C47.4408 31.0073 46.2508 29.072 44.7609 27.4723C43.622 26.2491 42.2551 25.2704 41.3906 23.8034C40.9738 23.0963 40.7076 22.3669 40.43 21.6343L40.4491 21.1089H40.2268C40.1506 20.9172 40.0711 20.7258 39.9852 20.5349C39.5705 19.6134 39.1142 19.3322 38.4704 18.6456C37.7559 17.8838 37.3912 17.1958 36.3224 16.8412C35.4615 16.5553 34.62 16.6837 33.763 16.4869C33.6781 16.4675 33.32 16.3308 33.2822 16.3546L32.5863 17.7357C32.9665 17.841 33.3376 17.995 33.722 18.086C34.2007 18.1996 34.7005 18.2388 35.1778 18.3611C36.7177 18.756 37.7893 19.7925 38.4974 21.1085H38.3198C37.8249 20.2263 37.0205 19.3584 36.1315 18.9074C34.981 18.3241 33.6817 18.4014 32.5087 17.8842C32.4396 17.8799 32.2461 18.3172 32.2692 18.3413C32.6748 18.4471 33.0686 18.5888 33.4807 18.6736C35.1378 19.0146 36.0977 18.9312 37.3038 20.332C37.5185 20.5816 37.6937 20.8416 37.8408 21.1089H36.6623C36.2577 20.6949 35.7373 20.3522 35.2108 20.1461C34.4092 19.8321 33.5519 19.8001 32.7248 19.603C32.3957 19.5246 32.0793 19.4001 31.7502 19.3232C31.7434 19.3645 31.7988 19.3609 31.8293 19.3732C32.7108 19.7202 33.6623 19.7731 34.5722 20.0062C35.3583 20.2072 36.0293 20.5723 36.5947 21.1092H35.8787C35.8129 21.0639 35.742 21.0204 35.6733 20.9967C35.7215 21.0337 35.769 21.0715 35.8164 21.1092H35.322L35.3241 21.1657C34.5675 20.6136 33.8116 20.5777 32.76 20.3183C32.3522 20.218 31.9023 19.9929 31.5215 19.913C31.4654 19.9011 31.4082 19.8871 31.3514 19.9047C31.3266 19.9979 31.2572 20.0824 31.2263 20.1694C31.2158 20.1989 31.1853 20.1979 31.2306 20.2324C31.7225 20.3352 32.1969 20.5068 32.6845 20.6248C33.7573 20.8844 34.5355 20.9236 35.341 21.6199L35.3493 21.8472C34.5308 21.0729 33.5361 21.0179 32.3155 20.705C32.1411 20.6604 31.1741 20.3424 31.0918 20.3946L28.2605 25.6981C28.6406 25.7092 29.0153 25.7761 29.3857 25.8567C30.2826 26.0509 31.3018 26.3663 32.1897 26.63C33.9529 27.1532 34.5955 27.9553 35.6107 29.0655L35.6212 29.3533C34.9059 28.6027 34.333 27.8222 33.4038 27.291C32.6953 26.886 31.8854 26.7476 31.1097 26.5271C30.133 26.2494 29.1545 25.8653 28.1206 25.9052L27.9429 26.2753C28.5798 26.2433 29.2073 26.3854 29.818 26.5497C30.6228 26.7666 31.6276 27.0335 32.4004 27.3137C33.9159 27.8632 34.6135 28.8645 35.642 29.9215L35.6647 30.5488C35.6338 30.5193 35.6028 30.4898 35.5726 30.4596C34.5092 29.4112 33.7673 28.2818 32.2853 27.7463C31.5409 27.4773 30.6196 27.2327 29.8471 27.0112C29.148 26.8109 28.4223 26.6001 27.6879 26.7127L26.9914 28.006C27.15 27.9876 27.3089 27.9359 27.4679 27.92C28.601 27.8078 29.4864 28.0819 30.5563 28.3502C31.4805 28.5818 32.3522 28.7321 33.174 29.2518C34.0644 29.8147 34.6966 30.6915 35.5162 31.3235C35.5766 31.3699 35.637 31.4145 35.6978 31.4576L35.7046 31.6472C35.5403 31.5367 35.3799 31.4209 35.2277 31.2943C33.9813 30.2564 33.4336 29.2777 31.7283 28.7933C31.0357 28.5965 30.2218 28.3923 29.5191 28.2333C28.8132 28.0736 27.6261 27.9445 26.9378 28.1693C26.8187 28.2081 26.7921 28.4246 26.7026 28.5253C27.7221 28.2376 28.7028 28.3495 29.7148 28.5858C31.0551 28.8983 32.3752 29.1569 33.4789 30.0143C34.0705 30.474 34.5506 31.0753 35.1285 31.5382C35.3166 31.6889 35.514 31.8191 35.715 31.9417L35.778 33.6778C35.5827 33.5627 35.3655 33.4361 35.117 33.2803C33.6702 32.3719 32.9816 31.3091 31.2248 30.7394C29.5698 30.2028 27.9832 29.659 26.2628 30.2927C26.1387 30.3384 25.6644 30.5416 25.5863 30.6117C25.5712 30.6254 25.3821 30.9444 25.3763 30.9642C25.3641 31.0041 25.3795 31.0156 25.4187 31.0066C26.5249 30.261 27.8652 30.1463 29.1498 30.4207C30.0525 30.6135 31.4722 31.0199 32.2713 31.4537C33.133 31.9216 33.7817 32.6121 34.552 33.1829C34.9846 33.5033 35.4014 33.7112 35.788 33.9443L35.8093 34.5312C35.405 34.2449 34.9397 34.0313 34.5398 33.7429C33.2355 32.8013 32.714 31.9903 31.0518 31.4608C28.9121 30.7797 26.7957 30.2492 24.9135 31.8863L19.5907 41.7671C19.5037 42.7249 19.6112 43.6881 19.7882 44.6297C19.9806 45.6543 20.4355 46.9419 20.2276 47.9723C19.9475 49.3613 18.6665 50.1813 17.9854 51.3559C16.9889 53.0751 17.2356 55.1967 16.4753 57.0007C16.3764 57.2352 16.2258 57.4507 16.1441 57.6934H17.0241L17.0191 57.6963ZM44.0061 52.2292C43.9137 52.1195 43.7964 52.0209 43.6889 51.9264C43.6763 51.9803 43.7191 51.995 43.7461 52.0274C43.8385 52.1371 43.9557 52.2357 44.0633 52.3302C44.0758 52.2763 44.0331 52.2616 44.0061 52.2292ZM42.7945 51.0028C42.6697 50.8686 42.5457 50.7176 42.4051 50.5992C42.3727 50.5719 42.3579 50.5294 42.304 50.542C42.4288 50.6762 42.5529 50.8272 42.6935 50.9456C42.7258 50.9729 42.7406 51.0153 42.7945 51.0028ZM59.3529 50.9161L59.0217 50.7715C58.2413 50.5208 57.4541 50.2601 56.6413 50.1378L58.2276 50.5561L59.3525 50.9164L59.3529 50.9161ZM50.5206 40.8094L50.1221 40.0689C50.1872 40.2918 50.3135 40.5249 50.4242 40.7328C50.9032 41.6341 51.3956 42.1714 52.0253 42.94C52.879 43.9823 52.8592 44.4613 53.1016 45.7295C53.2339 46.4225 53.4008 47.0893 53.6705 47.7428C53.723 47.75 53.6946 47.6824 53.6867 47.6547C53.6112 47.39 53.4975 47.1196 53.4253 46.8487C53.0628 45.4903 53.1789 44.2434 52.2561 43.0846C51.6638 42.3404 50.9421 41.6909 50.5213 40.8094H50.5206ZM52.0832 42.7519C52.0407 42.6386 51.9487 42.5235 51.8767 42.425C51.602 42.0484 51.3107 41.7078 51.0615 41.3072C50.8489 40.9651 50.685 40.5824 50.4828 40.2415C50.4641 40.2098 50.4537 40.1624 50.4102 40.1555C50.8353 41.096 51.4038 41.9754 52.0828 42.7519H52.0832ZM15.7212 57.6967C15.8133 57.6794 15.9924 57.2795 16.038 57.1766C16.9339 55.1625 16.562 52.7352 17.7894 50.8499C18.7873 49.3171 20.1007 48.9488 19.7993 46.7516C19.6339 45.545 19.2254 44.4146 19.1401 43.1698C19.1293 43.013 19.1588 42.8289 19.1401 42.6792C19.1351 42.639 19.1247 42.5958 19.0829 42.6364C19.0254 42.8558 18.8409 43.0205 18.8514 43.2558C18.9039 44.4523 19.3667 45.5971 19.5113 46.7513C19.7698 48.8157 18.5579 49.2207 17.5995 50.6881C16.2045 52.8233 16.7774 55.5301 15.4767 57.696H15.7219L15.7212 57.6967ZM14.1195 57.3791C14.5557 56.5569 14.7822 55.6826 14.9239 54.7644C15.1865 53.0632 15.2839 51.598 16.2139 50.0824C16.5983 49.4562 17.1338 48.9603 17.5305 48.3701C18.19 47.3893 17.8617 46.5009 17.6678 45.4353C17.5869 45.5065 17.3776 45.859 17.3658 45.9503C17.3507 46.065 17.5118 46.5797 17.5251 46.7757C17.6085 47.9978 16.8623 48.5441 16.2312 49.4365C15.4263 50.5744 15.0106 51.853 14.7632 53.219C14.5237 54.5407 14.4924 55.9639 13.7775 57.1396C13.7717 57.2032 14.0533 57.3442 14.1198 57.3795L14.1195 57.3791ZM13.5865 57.0324C14.0404 56.3832 14.2022 55.5855 14.3417 54.8169C14.6665 53.0287 14.7905 51.4236 15.741 49.8116C16.0726 49.2494 16.4958 48.7959 16.8501 48.2665C17.2967 47.5983 17.3877 47.0142 17.2352 46.2143C17.1532 46.2999 17.0856 46.4351 17.0288 46.5412C15.7993 48.8207 14.5503 51.1006 13.3549 53.3977C13.2096 53.6772 13.0298 53.9746 12.9295 54.2706C12.5932 55.2625 12.8313 56.3102 13.5865 57.0331V57.0324Z" fill="#4B5A2A"/>
<path d="M39.4346 44.6839C39.9748 45.1956 40.3046 45.8869 40.6509 46.5616C40.5639 46.4253 40.4635 46.2973 40.3506 46.1786C40.1514 45.7833 39.9428 45.3935 39.6644 45.0601C39.6159 45.0903 39.6774 45.123 39.6936 45.1464C39.7403 45.214 39.8058 45.2751 39.8471 45.3391C39.996 45.5697 40.1251 45.8214 40.2492 46.0779C40.1884 46.0203 40.124 45.966 40.0571 45.9135C39.9849 45.7617 39.9104 45.6125 39.8284 45.4733C39.3908 44.7328 38.4989 44.1749 37.9188 43.5171C37.4956 43.0373 37.2377 42.4468 36.9044 41.9066C36.8709 41.8523 36.8371 41.7983 36.8033 41.7444H36.9115C37.1913 42.1753 37.4783 42.5914 37.7635 42.9802C38.2964 43.7067 38.8031 44.0857 39.435 44.6842L39.4346 44.6839ZM37.3826 42.6104C37.6106 42.9748 37.8433 43.3157 38.1332 43.634C38.3745 43.8987 38.6528 44.1221 38.8995 44.3821L39.2171 44.6267C38.5309 43.9743 37.8671 43.3269 37.3564 42.5209C37.3104 42.5475 37.3672 42.5856 37.3823 42.6101L37.3826 42.6104Z" fill="#4B5A2A"/>
<path d="M41.0035 47.5081C41.5717 48.4061 42.2697 49.2017 43.0537 49.9217L43.0397 49.9645C42.2669 49.2844 41.5926 48.4971 41.0201 47.6411C41.0157 47.5962 41.0103 47.5519 41.0035 47.5081Z" fill="#4B5A2A"/>
<path d="M38.9428 42.7235C39.3369 43.1903 39.8307 43.5669 40.1932 44.0697C40.7556 44.8487 41.0793 45.8557 41.6065 46.6664L42.3613 47.8011C41.8629 47.2357 41.4375 46.56 41.0771 45.8975C40.7912 45.3724 40.5704 44.8127 40.2385 44.3125C39.7224 43.5342 38.9406 43.0263 38.426 42.2304C38.3246 42.0736 38.2307 41.9107 38.1419 41.7449H38.2807C38.4699 42.0855 38.6817 42.4149 38.9428 42.7239V42.7235Z" fill="#4B5A2A"/>
<path d="M37.9058 51.2037C38.8775 51.2037 39.7611 50.9031 40.3941 50.3568C41.0306 49.8076 41.3809 49.0469 41.3809 48.215C41.3809 47.3831 41.0223 46.6037 40.371 46.0546C39.7374 45.5205 38.8617 45.2263 37.9058 45.2263C36.8942 45.2263 36.0268 45.5136 35.3975 46.0571C34.7739 46.5955 34.4308 47.3619 34.4308 48.215C34.4308 49.0681 34.7736 49.8119 35.3961 50.3557C36.0315 50.9106 36.8993 51.2041 37.9058 51.2041V51.2037ZM37.9058 45.8736C39.5443 45.8736 40.7335 46.8584 40.7335 48.215C40.7335 49.5716 39.5443 50.5564 37.9058 50.5564C36.2674 50.5564 35.0782 49.5936 35.0782 48.215C35.0782 46.8364 36.2146 45.8736 37.9058 45.8736ZM35.7776 42.3918H40.0341L40.8055 21.1113H35.0066L35.778 42.3918H35.7776ZM39.4098 41.7444H36.4019L35.6776 21.7587H40.1341L39.4098 41.7444Z" fill="#4B5A2A"/>
<defs>
<linearGradient id="paint0_linear_390_3348" x1="38.5" y1="0" x2="38.5" y2="77" gradientUnits="userSpaceOnUse">
<stop stop-color="#F7F3CF"/>
<stop offset="1" stop-color="#EFE28B"/>
</linearGradient>
</defs>
</svg>
