<svg width="77" height="77" viewBox="0 0 77 77" fill="none" xmlns="http://www.w3.org/2000/svg">
<path d="M33 47C32.6163 47.3325 32.2942 47.659 32 48C32.3861 47.6688 32.7138 47.3395 33 47Z" fill="#4B5A2A"/>
<circle cx="38.5" cy="38.5" r="38.5" fill="url(#paint0_linear_390_3326)"/>
<path d="M39.5041 5C39.5404 5.05761 39.6367 5.03491 39.6954 5.03561C47.0639 5.10439 54.8755 8.34998 60.4072 13.1129C67.2942 19.0423 71.843 28.151 71.9568 37.3316C71.9575 37.3906 71.9345 37.4866 71.9925 37.5229C71.9747 38.2076 72.0162 38.8975 71.9925 39.5818C71.6209 50.2745 66.2205 60.16 57.3962 66.1453C42.1289 76.5004 21.7358 72.7527 11.1049 57.8086C2.87853 46.2441 2.98328 30.352 11.3141 18.8779C17.5135 10.3397 27.0619 5.31248 37.6548 5H39.5044H39.5041ZM61.1276 60.7162C72.7722 48.8923 73.2865 29.8325 62.2394 17.4223C54.7781 9.04023 43.528 5.32749 32.4488 7.38392C19.3349 9.81811 9.12123 20.492 7.16126 33.6726C5.61752 44.0543 9.0053 54.1286 16.5243 61.3575C29.0125 73.3641 48.9882 73.0429 61.128 60.7162H61.1276Z" fill="#4B5A2A"/>
<path d="M46.0007 53.7198C45.9769 53.8807 46.037 54.0214 46.0314 54.1865C46.0275 54.3014 45.9601 54.4683 45.9706 54.5654C45.9811 54.6624 46.2748 55.0657 46.3359 55.2406C46.5838 55.9473 46.3621 56.5422 45.8928 57.0823C46.582 57.7834 46.5702 58.7274 45.9326 59.4613C46.7451 61.2538 44.7935 62.5337 43.2386 62.7359C42.6206 64.0609 41.3317 65.102 39.8372 65.197C39.1619 65.2399 38.209 65.235 37.5312 65.197C35.9037 65.1055 34.7479 64.0605 34.009 62.6821C33.7129 62.5753 33.4007 62.5313 33.1001 62.4395C31.7075 62.0132 30.5374 60.9378 31.2707 59.3873C31.1785 59.2459 31.0622 59.1276 30.9749 58.9816C30.5325 58.2407 30.669 57.5009 31.2249 56.8735C30.8091 56.2653 30.5999 55.7189 30.8059 54.9798C30.8897 54.6799 31.2428 54.0965 31.1569 53.8098C31.1321 53.7271 30.6037 53.3989 30.4843 53.2955C30.2602 53.1014 29.9815 52.7827 29.8087 52.5404C28.9483 51.3341 29.0953 50.0901 28.6955 48.7334C27.7485 45.5206 25.1844 43.3716 23.472 40.6267C18.6638 32.9188 20.2309 22.6265 27.3438 16.9363C33.5816 11.9461 43.0881 11.9262 49.4467 16.7114C56.6511 22.1336 58.4103 32.5616 53.8049 40.2563C51.9539 43.3493 48.9987 45.6917 48.2037 49.381C48.0818 49.947 48.0577 50.5398 47.932 51.0984C47.6911 52.1692 46.9462 53.1723 46.0007 53.7204V53.7198ZM38.3525 14.8408C38.2051 14.838 37.2662 14.8362 37.2162 14.9081C36.9229 17.5393 35.9941 20.088 34.8579 22.4604C33.355 25.5991 30.9355 27.7309 29.3083 30.6948C27.8759 33.3035 27.0546 36.0932 25.7958 38.733C25.719 38.8939 25.638 39.0661 25.5514 39.2214C25.4694 39.3688 25.1209 39.8296 25.0975 39.9225C25.0709 40.0286 25.1774 40.1407 25.2518 40.2084C25.3311 40.2256 25.6548 39.69 25.7127 39.5922C25.917 39.2476 26.1056 38.843 26.2728 38.4774C27.6325 35.5094 28.5725 32.121 30.5559 29.5C32.0588 27.5138 34.0223 25.7122 35.1945 23.5301C35.6222 22.7341 36.0538 21.8588 36.4383 21.0401C37.3671 19.0625 38.0351 17.0114 38.3518 14.8404L38.3525 14.8408ZM38.9112 14.8404L38.4956 14.8439C38.3591 15.6424 38.2041 16.4381 37.9939 17.2208C37.3818 19.4972 36.2839 21.8972 35.1257 23.9491C33.7073 26.4618 31.1087 28.4324 29.6578 30.9737C28.3334 33.2934 27.4995 35.9863 26.3898 38.4188C26.0937 39.0678 25.7742 39.7022 25.3503 40.2786C25.3136 40.3931 25.4697 40.5311 25.5291 40.6281L25.8887 40.1858C28.2014 36.6528 28.8302 32.3333 31.4795 28.9917C32.8511 27.2617 34.5775 25.8177 35.6142 23.844C36.1149 22.8908 36.6404 21.8319 37.0919 20.855C37.9663 18.9634 38.6189 16.9077 38.9115 14.8404H38.9112ZM39.26 14.8404L39.0194 14.8443C38.7076 16.9328 38.0571 18.9892 37.1719 20.9008C36.3394 22.6985 35.4225 24.6966 34.113 26.1822C32.4705 28.0459 30.9033 29.5133 29.808 31.8221C28.5911 34.3873 27.8002 37.1591 26.3765 39.6271L25.616 40.6634C26.3182 40.007 26.7949 39.0919 27.216 38.2334C28.7258 35.1543 29.4818 31.9335 31.6035 29.1509C33.0777 27.2174 34.8533 25.8966 35.9983 23.705C36.5427 22.6632 37.1268 21.503 37.6154 20.4367C38.4192 18.682 38.9562 16.746 39.2607 14.8411L39.26 14.8404ZM40.3767 14.9106L39.3644 14.8404C39.3023 15.6605 39.0837 16.4964 38.8661 17.2907C38.2565 19.5178 37.2344 21.5955 36.1732 23.6356C35.2231 25.4619 34.3121 26.1521 32.9957 27.6115C31.3803 29.4023 30.3726 31.0314 29.413 33.2414C28.435 35.4951 27.5578 38.4565 26.0333 40.3652C25.88 40.5572 25.4805 40.7894 25.7773 41.0097C25.8241 41.024 25.8451 41.0017 25.8793 40.9786C26.0731 40.8488 26.4565 40.3729 26.6066 40.1704C28.7897 37.231 29.4616 32.9872 31.6244 29.904C32.7505 28.299 34.0477 27.2628 35.4096 25.9245C36.5793 24.7748 37.0738 23.4502 37.8116 22.0278C38.2243 21.2321 38.6664 20.5464 39.0076 19.6994C39.62 18.1792 40.0677 16.5187 40.3774 14.9102L40.3767 14.9106ZM37.0612 14.9106L36.7511 14.949C36.4222 17.7571 35.4239 20.5698 34.1549 23.0832C32.8843 25.5998 30.8911 27.4953 29.4396 29.8834C28.6504 31.1815 27.9587 32.6817 27.3542 34.0793C26.6541 35.6976 26.1115 37.4929 25.3077 39.0465C25.2497 39.1589 24.9075 39.6746 24.9218 39.7312C24.9313 39.7685 24.9787 39.7979 25.0056 39.8254L25.3164 39.404C27.1053 35.6794 28.2223 31.7502 30.6823 28.3688C32.2295 26.2419 33.6385 24.7357 34.7887 22.2858C35.8806 19.9602 36.756 17.4771 37.0619 14.9106H37.0612ZM40.5509 14.9455L40.4172 15.0035C40.2087 16.3661 39.7988 17.7508 39.3302 19.0461C39.2045 19.3935 39.0652 19.7608 38.9171 20.0984C38.6853 20.6277 38.3878 21.1228 38.1437 21.6451C38.2924 21.4545 38.4181 21.2188 38.5334 21.0055C39.5352 19.1484 40.1187 17.0047 40.5513 14.9452L40.5509 14.9455ZM41.214 15.0153L40.6372 14.9783C40.4294 16.2073 40.0855 17.4164 39.6794 18.5926C39.2405 19.8645 38.7687 20.6605 38.1601 21.819C37.3807 23.3025 36.8245 24.8408 35.5964 26.0251C34.6599 26.9283 33.6717 27.7645 32.7861 28.7284C30.2291 31.5125 29.4099 35.4647 27.6577 38.7449C27.1912 39.6181 26.6695 40.4675 25.9446 41.1525C25.9114 41.2182 26.0364 41.348 26.0902 41.3945C26.9495 40.648 27.5515 39.6051 28.0764 38.6052C29.3463 36.185 30.1652 33.5483 31.4599 31.1361C32.3511 29.4756 33.6752 28.1387 35.0719 26.8965C35.6592 26.3742 36.3167 25.9399 36.7969 25.3062C37.3863 24.5283 37.7777 23.5263 38.2421 22.6684C38.7774 21.6793 39.3676 20.8152 39.7999 19.7594C40.4242 18.2354 40.883 16.628 41.2144 15.015L41.214 15.0153ZM35.7699 15.0499C35.7032 15.0391 35.676 15.0771 35.6655 15.1372C35.6393 15.288 35.6488 15.4975 35.6261 15.656C35.1396 19.0657 33.7048 22.7962 31.7156 25.5991C30.1963 27.7397 28.9113 29.2916 27.7488 31.7174C26.5888 34.1376 25.7396 36.6842 24.6383 39.1279C24.8963 38.7606 25.0685 38.32 25.2476 37.9055C26.5843 34.8076 27.5589 31.6235 29.4392 28.7672C30.3681 27.3563 31.5102 26.0903 32.4206 24.6645C33.1563 23.5123 33.7321 22.3001 34.2255 21.0257C34.9689 19.1069 35.5629 17.1074 35.7696 15.0502L35.7699 15.0499ZM41.4916 15.0873L41.3404 15.052L41.2909 15.1096C40.9948 16.5467 40.5855 17.9565 40.0631 19.3254C39.5914 20.5614 39.0275 21.3972 38.4164 22.5291C37.7463 23.77 37.2759 25.1072 36.2074 26.0781C35.236 26.9607 34.2157 27.7138 33.3141 28.6984C30.5192 31.752 29.721 36.0942 27.6325 39.5926C27.2257 40.2741 26.7474 40.9018 26.1541 41.4315V41.5006L26.261 41.6047C27.1255 40.9046 27.7083 40.0108 28.2387 39.0469C29.1882 37.3211 29.838 35.449 30.6802 33.6719C30.7857 33.4495 31.145 32.8825 31.1904 32.7166C31.2435 32.5215 31.124 32.3483 31.2428 32.0707C31.3566 31.8043 31.5692 31.7499 31.7012 31.5868C31.8479 31.406 32.0312 30.9315 32.1702 30.6948C32.8357 29.5604 33.7209 28.3493 34.6882 27.4551C35.4385 26.7614 36.454 26.2258 37.0553 25.3903C37.6353 24.5842 38.0152 23.5793 38.4866 22.7037C39.0065 21.7376 39.5757 20.929 40.0094 19.8994C40.6567 18.3632 41.1446 16.7181 41.492 15.0876L41.4916 15.0873ZM42.2962 15.2245L41.58 15.118C41.1446 17.0756 40.5625 19.168 39.627 20.9479C39.3986 21.3822 39.1071 21.7869 38.87 22.2149C38.1266 23.5563 37.5906 25.1648 36.4149 26.1804C35.4937 26.9765 34.6927 27.4946 33.8679 28.4491C33.0456 29.4009 32.4024 30.4595 31.792 31.5551L32.3001 31.5596C33.0407 30.1484 33.9838 28.7302 35.1767 27.6639C36.1181 26.8225 37.226 26.2974 37.9272 25.2151C38.3808 24.5154 38.7031 23.7103 39.1144 22.9823C39.8215 21.73 40.4595 20.8386 40.9962 19.455C41.5294 18.0804 41.9679 16.6622 42.2962 15.2241V15.2245ZM32.6643 31.7998C32.673 31.6804 32.7415 31.5648 32.798 31.4622C33.5669 30.0716 34.4867 28.6708 35.7189 27.6482C36.3038 27.1625 37.0214 26.7642 37.5853 26.2695C38.4827 25.4818 38.8626 24.3118 39.4283 23.2969C39.9717 22.3217 40.6194 21.4859 41.0803 20.4476C41.6683 19.1236 42.2323 17.5406 42.5996 16.1396C42.6551 15.9283 42.7459 15.6427 42.7704 15.4343C42.7875 15.2873 42.4987 15.2597 42.4509 15.3282C42.1254 16.7966 41.6579 18.2358 41.1002 19.6302C40.5464 21.0149 39.855 21.9908 39.1486 23.262C38.7816 23.9225 38.496 24.6362 38.0875 25.2716C37.3891 26.3574 36.27 26.9031 35.3156 27.7341C34.5576 28.3943 33.8623 29.2843 33.3127 30.1281C33.0997 30.4553 32.5861 31.2265 32.4747 31.5585C32.4607 31.6004 32.4349 31.6448 32.4611 31.6891L32.6636 31.7998H32.6643ZM34.3742 15.3292L33.9605 15.4559C33.6162 18.5469 32.6549 21.4995 31.1003 24.1813C30.353 25.4703 29.4546 26.6629 28.6721 27.9296C26.695 31.1291 25.417 34.6924 24.0604 38.1866C24.0119 38.3224 24.1784 38.4003 24.1854 38.5347C24.2744 38.5486 24.2395 38.527 24.258 38.4858C24.7951 37.2907 25.1788 36.0125 25.6593 34.7923C26.5832 32.4443 27.6364 30.0621 28.986 27.9296C29.6623 26.8609 30.4379 25.8564 31.1087 24.7832C32.8965 21.9241 34.0498 18.7047 34.3742 15.3296V15.3292ZM33.6413 15.5387L33.2635 15.6494C32.9621 17.9069 32.4003 20.1065 31.4778 22.1863C30.2001 25.0674 28.1748 27.527 26.8067 30.3917C25.6844 32.7421 24.7336 35.1864 23.773 37.6018L23.9057 37.9415L24.0618 37.6622C25.3363 34.3834 26.5661 31.0167 28.3924 27.9994C29.1117 26.8113 29.927 25.6787 30.6334 24.4829C32.2554 21.738 33.2404 18.7099 33.6409 15.539L33.6413 15.5387ZM43.6915 15.6085C43.5972 15.5925 43.6311 15.6256 43.6122 15.6843C43.4163 16.2984 43.2833 16.9185 43.064 17.5455C42.6642 18.6883 42.1827 20.0192 41.6736 21.1106C41.2752 21.9646 40.728 22.6077 40.2657 23.4016C39.8592 24.0996 39.5631 24.8652 39.1347 25.5509C38.3239 26.8483 36.9062 27.3909 35.8045 28.3971C34.8362 29.2815 33.62 31.1204 33.054 32.3116C33.0299 32.3623 33.0009 32.4007 33.0135 32.4625C33.099 32.4726 33.1287 32.3766 33.1671 32.32C33.9538 31.1591 34.4818 29.8869 35.4728 28.8332C36.551 27.6866 38.2505 27.0609 39.1134 25.7737C39.6218 25.0146 39.9594 24.0852 40.4399 23.2969C40.8645 22.6 41.3509 22.0023 41.7085 21.2502C42.2242 20.1641 42.7316 18.7602 43.1339 17.6157C43.3605 16.9709 43.5941 16.282 43.6915 15.6089V15.6085ZM33.1179 15.7133C33.0864 15.6794 32.3437 15.9713 32.2467 16.0107C32.1133 16.0648 31.5361 16.2851 31.4959 16.3766C31.2483 18.7337 30.4997 20.9196 29.3903 22.9949C28.2544 25.1201 26.9792 27.1193 25.9345 29.3097C24.9302 31.4154 24.2193 33.6513 23.1176 35.7081C23.083 35.8379 23.2901 36.3976 23.3463 36.5638C23.4455 36.8574 23.5583 37.1895 23.7137 37.4527C24.7197 35.0492 25.6471 32.6042 26.7718 30.2517C28.1727 27.3225 30.2514 24.7947 31.519 21.8082C32.3399 19.8739 32.8459 17.7973 33.1179 15.7129V15.7133ZM36.9917 28.52C36.9477 28.5832 37.2526 28.6223 37.3042 28.5703C38.7729 27.6447 39.869 26.877 40.7315 25.3327C41.3638 24.2005 42.1146 22.9038 42.6509 21.7387C43.4841 19.9288 44.1598 17.9893 44.9077 16.1403C44.9479 16.0289 44.6682 15.9231 44.6168 15.9919C44.4492 16.5631 44.245 17.121 44.032 17.6761C43.5536 18.9218 43.0308 20.287 42.4763 21.4946C42.1139 22.2847 41.6547 22.9621 41.2427 23.7159C40.2489 25.5345 40.1068 26.3299 38.3284 27.6063C37.8909 27.9205 37.4254 28.2009 36.9914 28.5207L36.9917 28.52ZM37.4104 28.6251C37.3894 28.6562 37.6213 28.8248 37.6876 28.7822C38.3322 28.2969 39.0379 27.8821 39.6602 27.3671C40.1686 26.9468 40.5684 26.4604 40.9144 25.8994C41.4896 24.9672 42.1261 23.7784 42.6279 22.7973C42.7704 22.519 42.9079 22.2334 43.0347 21.9478C43.7428 20.3495 44.4583 18.579 45.0788 16.9429C45.1287 16.8116 45.3215 16.3763 45.3271 16.2813C45.3316 16.2041 45.0565 16.1005 45.0191 16.1322C44.9405 16.4286 44.8389 16.7261 44.73 17.0124C43.6496 19.8523 42.4854 22.4094 41.023 25.0653C40.7262 25.6047 40.3977 26.1867 39.9919 26.6514C39.2883 27.4572 38.2711 28.004 37.4104 28.6247V28.6251ZM45.8177 16.4492L45.4018 16.3061C45.3414 16.5704 45.245 16.8298 45.1483 17.0826C44.5418 18.6663 43.8535 20.3603 43.1744 21.9133C42.7532 22.8758 42.242 23.7138 41.7312 24.6229C41.4672 25.0929 41.2504 25.5963 40.9626 26.053C40.1906 27.2788 38.987 28.0099 37.8099 28.7986C37.7411 28.9068 37.9485 29.0179 38.0026 29.0971L38.084 29.0737C38.812 28.468 39.6738 28.0225 40.3767 27.3863C41.3031 26.5477 42.2354 24.7874 42.8248 23.6579C43.3853 22.5843 43.7687 21.4995 44.2331 20.3903C44.7796 19.0856 45.3917 17.7997 45.817 16.4496L45.8177 16.4492ZM31.1638 16.5156L30.588 16.7942C30.2972 18.8223 29.6023 20.7038 28.6574 22.5057C27.5931 24.5353 26.3874 26.451 25.411 28.5416C24.4833 30.5279 23.7933 32.6161 22.84 34.5898C22.7733 34.8296 22.964 35.2458 22.9985 35.4979L23.1675 35.1966C24.0562 33.1786 24.7783 31.0931 25.725 29.0996C26.7418 26.9576 27.9653 24.9427 29.0761 22.8542C30.1414 20.8508 30.8517 18.7749 31.1638 16.5149V16.5156ZM46.338 16.7313L45.9605 16.5505C45.8268 16.9562 45.7098 17.3717 45.5582 17.7714C44.9468 19.3834 44.1755 21.2195 43.4537 22.7858C42.8004 24.2036 41.5988 26.5048 40.4469 27.526C39.7513 28.1426 38.8825 28.6017 38.1405 29.1635L38.1133 29.2619L38.2135 29.462C38.2383 29.4808 38.3665 29.4047 38.3986 29.3859C39.7003 28.6146 41.0782 27.6478 41.9264 26.3882C43.2414 24.4358 43.9977 22.5375 44.8965 20.3903C45.3218 19.374 45.8083 18.38 46.1697 17.3364C46.2046 17.2358 46.3725 16.7907 46.3373 16.7313H46.338ZM38.2837 29.5335L38.3703 29.7402C39.1661 29.1006 40.0844 28.6321 40.8813 27.9945C42.1558 26.9751 43.2753 24.8911 43.9771 23.4135C44.7495 21.7879 45.5059 19.9661 46.1857 18.2941C46.3586 17.8692 46.5091 17.4356 46.6878 17.0127C46.7304 16.9063 46.4553 16.7893 46.4137 16.8295C46.0911 18.0926 45.4723 19.2629 44.9664 20.4598C44.0829 22.5504 43.3385 24.4721 42.0521 26.3742C41.3858 27.3591 40.8453 27.8203 39.8847 28.499C39.37 28.8629 38.8221 29.2158 38.2833 29.5335H38.2837ZM22.7185 34.2075C23.6459 32.0777 24.4015 29.8677 25.41 27.7735C26.2781 25.9713 27.3445 24.2794 28.2855 22.5183C29.2262 20.758 29.9633 18.9634 30.256 16.9691C27.3438 18.6802 24.9637 21.3613 23.6546 24.4829C22.4224 27.4213 22.0571 30.9022 22.6605 34.0388C22.6692 34.0842 22.6647 34.2078 22.7181 34.2071L22.7185 34.2075ZM41.8904 27.7997C43.1073 26.5777 43.9394 24.6805 44.7446 23.1691L47.2476 17.2648L46.8488 17.0044C46.7751 16.9922 46.808 17.0162 46.794 17.0519C45.611 20.0338 44.3993 23.3259 42.6942 26.039C42.4917 26.3613 42.2501 26.7387 42.0151 27.0348C41.0471 28.2547 39.5938 28.8922 38.3909 29.8338L38.5093 30.2982C38.7184 30.0007 39.0903 29.8747 39.3477 29.6365C39.7461 29.2679 39.855 28.8217 40.4825 28.6429C40.6588 28.5926 40.8677 28.6132 40.9955 28.5626C41.1739 28.4917 41.7291 27.9614 41.8901 27.7994L41.8904 27.7997ZM47.4595 17.3546L47.2874 17.3189C47.0866 17.842 46.8921 18.3709 46.6742 18.8873C45.5705 21.5048 44.4999 24.2511 42.9247 26.6186C42.4152 27.3843 41.9079 28.041 41.1264 28.5542C41.1365 28.6932 41.3209 28.5982 41.4002 28.5486C42.0755 28.1272 42.7183 27.1926 43.1478 26.5275C44.6923 24.1362 45.8247 21.3763 46.9183 18.7476C47.109 18.2899 47.3017 17.82 47.4592 17.3546H47.4595ZM48.1932 17.9813C48.1897 17.9118 48.1935 17.8954 48.1422 17.8409C48.0951 17.791 47.5605 17.4314 47.5304 17.4579C47.1491 18.4903 46.7151 19.5063 46.28 20.5174C45.4238 22.5068 44.592 24.4201 43.4401 26.2618C42.895 27.1336 42.3004 27.9959 41.4574 28.6066C41.3841 28.6953 41.6575 28.7393 41.7382 28.7808C41.8447 28.836 41.9431 28.8974 42.0399 28.9676C43.0396 28.241 43.7491 27.1154 44.4038 26.0743C45.7489 23.9348 46.7133 21.5334 47.6858 19.2018C47.7591 19.0259 48.1167 18.0225 48.1928 17.9816C48.2023 18.1747 48.0071 18.5835 47.9299 18.7832C46.7818 21.7547 45.3508 25.0443 43.4603 27.6091C43.0588 28.1541 42.6275 28.58 42.1261 29.0311C42.1135 29.0957 42.2832 29.2961 42.343 29.2853C43.0846 28.7155 43.6276 28.0193 44.1591 27.2607C46.0859 24.5101 47.3314 21.3627 48.5769 18.2609C48.6419 18.2525 48.6028 18.3311 48.5961 18.3671C48.5088 18.8213 48.1544 19.552 47.9655 20.0049C46.7591 22.8982 45.0554 26.8857 42.7494 29.0262C42.4959 29.2616 42.2295 29.2539 42.4704 29.6715C43.2051 29.1457 43.819 28.4568 44.3476 27.7282C46.3649 24.948 47.602 21.664 48.9809 18.5409C48.9893 18.4879 48.9233 18.4477 48.8908 18.417C48.8179 18.3472 48.3088 17.9579 48.2511 17.954C48.2323 17.953 48.2106 17.9715 48.1928 17.9809L48.1932 17.9813ZM42.5752 30.1246C42.6279 30.139 42.6331 30.111 42.6628 30.0904C44.6315 28.7176 46.4061 25.2482 47.4215 23.0892C48.0863 21.6755 48.6845 20.2283 49.3043 18.7948L49.0777 18.5783C49.0246 18.5668 49.0092 18.6184 48.989 18.6547C48.8283 18.9438 48.6988 19.434 48.5595 19.7605C47.5639 22.0934 46.4961 24.5625 45.1371 26.7024C44.4094 27.8479 43.6238 28.9257 42.5217 29.742L42.5752 30.125V30.1246ZM43.9562 29.4819C44.8099 28.5853 45.4996 27.5717 46.1274 26.5062C47.4973 24.182 48.5396 21.6409 49.6095 19.1676C49.6573 19.0311 49.468 18.9522 49.3968 18.8538C48.7592 20.4207 48.0839 21.9813 47.3502 23.5071C46.3474 25.5932 45.222 27.7212 43.622 29.4103L42.5801 30.3226C42.5818 30.4493 42.5699 30.5488 42.5451 30.6721C42.5361 30.7178 42.5472 30.7384 42.5916 30.7182C42.6939 30.671 43.057 30.3453 43.1684 30.2479C43.431 30.0182 43.7152 29.735 43.9558 29.4826L43.9562 29.4819ZM42.1561 31.8344C42.2242 31.84 42.2735 31.7796 42.3262 31.7432C46.0785 29.161 48.2944 24.4808 49.9541 20.353C50.0205 20.1878 50.172 19.8813 50.202 19.728C50.2157 19.6596 50.2338 19.6348 50.1647 19.5869C49.7683 20.4458 49.4251 21.3298 49.0368 22.1922C47.676 25.213 46.0918 28.4722 43.5525 30.6662C43.0937 31.0628 42.5759 31.3986 42.1561 31.8344ZM45.5907 31.1515C47.1044 29.6962 48.2567 27.8071 49.2585 25.973C50.0945 24.4431 50.8389 22.8633 51.5289 21.2618C51.5597 21.1197 51.2461 20.8683 51.177 20.7381C50.7185 21.8874 50.2034 23.0249 49.6549 24.1359C48.0821 27.3225 46.581 29.8837 43.813 32.1828C43.4408 32.4921 43.0577 32.8029 42.645 33.0564C42.6481 33.1049 42.8039 33.1182 42.8409 33.1213C44.0065 33.2156 44.1517 31.7398 44.8358 31.531C44.9741 31.4887 45.134 31.5299 45.2171 31.4957C45.2873 31.4667 45.5146 31.2248 45.5907 31.1515ZM51.7521 21.4709L51.6808 21.4904C51.1976 22.7351 50.6043 23.9477 49.9908 25.1351C48.7809 27.4768 47.4264 29.8129 45.472 31.6078L45.8027 31.9038C46.9302 30.7761 47.91 29.5489 48.7658 28.2026C50.0107 26.2447 51.0575 24.124 52.0524 22.0288C52.0936 21.8623 51.7852 21.6455 51.7517 21.4709H51.7521ZM37.445 23.0755L37.8985 22.0986C37.8462 22.1067 37.8336 22.1646 37.8109 22.2027C37.6943 22.3993 37.5228 22.7358 37.4376 22.946C37.4247 22.9778 37.372 23.0794 37.445 23.0755ZM50.2401 37.1964C52.1009 35.3135 53.4617 32.9219 54.6653 30.5838C54.6206 27.6011 53.8014 24.5852 52.1536 22.099L51.4336 23.6118C49.8902 26.5774 48.3587 29.6777 45.8589 31.9622L45.8631 32.488C45.3316 33.3996 44.7481 34.2836 44.2785 35.2308C44.1664 35.457 44.0414 35.7136 43.9712 35.9525L47.2507 33.1429C46.7524 33.6733 46.1986 34.1666 45.6462 34.6442C45.2852 34.9564 44.9122 35.2619 44.5456 35.5674C44.4258 35.6672 43.9541 35.9765 43.8989 36.0467C43.7331 36.2573 43.4139 37.1196 43.2913 37.4192C42.6471 38.9917 42.1705 40.6243 41.8066 42.2855C41.8342 42.3389 41.8674 42.29 41.895 42.2691C43.4586 41.0778 45.2415 40.6773 46.9256 39.727C48.1265 39.0497 49.2718 38.1758 50.2401 37.1964ZM35.1072 26.3208L35.5443 25.973C36.1488 25.3701 36.6586 24.6669 36.9914 23.8786C36.764 24.1799 36.6184 24.5374 36.4131 24.8526C36.0468 25.4144 35.5775 25.8519 35.1075 26.3208H35.1072ZM34.6187 26.7754L34.2691 27.0362C33.9419 27.3717 33.5952 27.6904 33.2935 28.0497C33.2345 28.1199 33.1406 28.2229 33.1186 28.3105L34.6187 26.7754ZM39.3644 29.7413C39.3051 29.7291 39.2722 29.7703 39.2286 29.7971C39.1228 29.8624 38.6028 30.2552 38.5414 30.3313C38.4761 30.4127 38.4873 30.4783 38.4922 30.5785C38.7809 30.325 39.2352 30.1135 39.3641 29.7413H39.3644ZM36.9121 30.0992C36.8891 30.0751 36.7627 30.0241 36.7263 30.0202C36.4575 29.9937 36.5535 30.3694 36.5381 30.5433C36.5985 30.559 36.608 30.5185 36.6429 30.4912C36.6813 30.4616 36.9324 30.2465 36.9414 30.229C36.9624 30.1885 36.9407 30.1292 36.9121 30.0992ZM41.0049 30.4385C41.168 30.2797 41.1267 30.1864 40.9529 30.0635C40.8121 30.052 40.6285 30.5132 40.6536 30.626C40.6609 30.6581 40.7367 30.6386 40.7255 30.6648C40.6742 30.685 40.5855 30.9235 40.6728 30.9259C40.8174 30.8198 41.1474 30.6319 41.1096 30.4211L41.0049 30.4382V30.4385ZM39.26 30.1253L38.5096 30.6833C38.4534 31.135 38.3801 31.5847 38.2132 32.0093L39.1371 31.171C39.1703 30.8194 39.1375 30.4637 39.26 30.125V30.1253ZM36.9914 30.2996L36.5985 30.6581C36.5849 30.7192 36.6003 30.9493 36.6607 30.9622C36.895 30.7712 37.0553 30.6351 36.9914 30.2996ZM35.0548 30.649L33.5023 33.071C33.5557 33.1356 33.6626 33.1998 33.7286 33.1262C34.0575 32.489 34.5115 31.9203 34.8771 31.3082C34.9853 31.127 35.2119 30.8463 35.0544 30.6487L35.0548 30.649ZM40.691 31.3812C40.8373 31.3627 41.0761 30.7653 41.0391 30.7182C40.7845 30.9503 40.5436 30.9657 40.691 31.3812ZM36.8866 31.4158L36.9914 30.7527C36.7462 30.9388 36.616 31.0774 36.8087 31.3707C36.8304 31.4039 36.8046 31.4339 36.8863 31.4158H36.8866ZM35.1417 31.1368L33.8162 33.1953L34.1602 33.2253C34.4381 32.6217 34.853 32.0955 35.2301 31.553L35.1421 31.1368H35.1417ZM39.1898 31.2415C39.1682 31.2122 39.0344 31.3459 39.0159 31.3623C38.7624 31.591 38.1178 32.1015 38.0187 32.3905C38.0064 32.4265 37.9981 32.4586 38.0033 32.497L38.3165 32.5148L39.253 31.6144L39.1895 31.2415H39.1898ZM54.6492 31.8173C54.6758 31.6462 54.6297 31.4199 54.6492 31.2415L53.3862 33.5553C51.4951 36.7041 49.3249 39.0057 45.9486 40.5646C44.7796 41.1043 43.5009 41.4894 42.417 42.1975C42.3112 42.2666 41.7804 42.6378 41.7347 42.7016C41.6711 42.7907 41.7001 43.0721 41.6324 43.1925L42.4243 42.554C43.9076 41.5701 45.6557 41.1078 47.2169 40.2626C50.0425 38.733 51.9717 36.4933 53.5954 33.7644C53.7878 33.4411 54.6077 32.0809 54.6489 31.8169L54.6492 31.8173ZM35.3163 31.6601C35.236 31.6402 35.2591 31.6759 35.2367 31.7041C35.0656 31.9224 34.9043 32.1709 34.7503 32.4024C34.678 32.5113 34.2265 33.1674 34.2698 33.2299C34.4071 33.2822 34.538 33.2753 34.6557 33.1803L35.4392 32.0404L35.316 31.6598L35.3163 31.6601ZM38.4747 32.6025C38.6175 32.6238 38.8427 32.6025 38.9981 32.6025C39.0421 32.6025 39.488 32.4489 39.5041 32.4276L39.2422 31.7307L38.3874 32.5501C38.3829 32.5599 38.4649 32.6007 38.4743 32.6021L38.4747 32.6025ZM34.957 33.1848L35.5423 32.3218C35.5817 32.2785 35.552 32.1929 35.508 32.1839C35.4316 32.1681 34.8264 33.0923 34.7238 33.2135C34.7713 33.2501 34.9165 33.2135 34.957 33.1848ZM35.8708 32.8078C35.9016 32.755 35.6694 32.3815 35.6138 32.3933L35.0723 33.1604C35.3739 33.1517 35.6096 32.9265 35.8708 32.8078ZM26.5001 41.8291C27.4758 41.0869 28.165 40.021 28.7395 38.9543C29.7545 37.07 30.4725 35.0391 31.4987 33.1607C31.5385 33.0902 31.3238 32.7606 31.2857 32.7425C31.226 32.7138 31.2319 32.784 31.2169 32.8113C30.3614 34.3681 29.7636 36.1127 29.0066 37.7212C28.3348 39.1478 27.548 40.648 26.2934 41.6399L26.4705 41.885C26.498 41.8969 26.4788 41.8456 26.5001 41.8295V41.8291ZM51.0774 38.1737C52.2269 37.0306 53.2923 35.5192 54.0619 34.0915C54.1925 33.8489 54.4086 33.4802 54.4932 33.2316C54.5043 33.1988 54.5434 33.0857 54.475 33.0913C53.1209 35.84 51.2677 38.3311 48.644 39.9801C46.5712 41.2827 43.7896 41.8414 42.0001 43.3514C41.8391 43.4872 41.5716 43.673 41.5283 43.8741C42.0507 43.4128 42.5895 42.9726 43.2023 42.6346C44.4234 41.9611 45.8041 41.547 47.0653 40.949C48.5246 40.257 49.9318 39.3133 51.0774 38.174V38.1737ZM31.6352 33.2662C30.4326 35.4061 29.6871 37.8402 28.3732 39.9138C27.871 40.7063 27.2865 41.3459 26.5742 41.9552L26.5616 42.0348L26.6496 42.127C27.7118 41.3599 28.458 40.2542 29.0764 39.1167C30.0569 37.313 30.7689 35.3711 31.7068 33.5455C31.7459 33.4439 31.7159 33.3371 31.6352 33.2662ZM35.2116 36.6853C35.6173 35.9573 36.1174 35.2636 36.6596 34.6261C36.755 34.514 37.2882 33.9749 37.3039 33.9082C37.3196 33.8416 37.0486 33.7071 36.9928 33.7347C36.7078 34.0807 36.2951 34.2658 35.9648 34.559L34.9476 36.1263C34.92 36.2283 35.0541 36.5275 35.1152 36.6245C35.1424 36.6678 35.1473 36.6982 35.2112 36.6849L35.2116 36.6853ZM37.864 33.9983L37.3758 33.9089C36.5898 34.7902 35.8509 35.7119 35.2273 36.7188C35.1683 36.8117 35.3439 37.2495 35.4043 37.2781C35.9291 36.376 36.5318 35.5171 37.2183 34.7305C37.394 34.529 37.6538 34.3087 37.8123 34.1031C37.8392 34.0682 37.8797 34.0587 37.8643 33.9983H37.864ZM39.6085 33.9976L39.5917 33.9288C39.2918 34.0877 39.0376 34.3262 38.7879 34.5559C37.7966 35.4668 36.5277 36.973 35.904 38.1628C35.8544 38.2575 35.7902 38.3514 35.8052 38.4652C35.8792 38.4813 35.8845 38.4275 35.9159 38.3842C36.3332 37.8088 36.6687 37.1381 37.1167 36.5491C37.8542 35.5792 38.6455 34.8572 39.5223 34.0325C39.5495 34.0071 39.6047 34.0025 39.6085 33.998V33.9976ZM38.3871 34.0682L37.9495 34.1013C37.3322 34.7588 36.7469 35.4452 36.2305 36.186C36.0688 36.4179 35.551 37.1367 35.4752 37.3508C35.4445 37.4373 35.5126 37.7212 35.5618 37.7673C35.6243 37.8259 35.6201 37.7439 35.6341 37.7177C36.1516 36.7405 36.8587 35.7231 37.6021 34.9054C37.8228 34.6627 38.1395 34.4211 38.3357 34.1732C38.3633 34.1383 38.4031 34.1286 38.3874 34.0682H38.3871ZM32.1758 34.1031C32.1283 34.0434 32.0284 34.2588 32.0183 34.2766C30.4609 37.0194 29.7971 39.9888 27.3609 42.2163C27.3134 42.2596 26.9181 42.5218 26.9768 42.5822C27.1091 42.5257 27.2495 42.4129 27.3609 42.3211C29.3502 40.6815 30.4515 37.6639 31.5528 35.3813C31.6293 35.2224 32.224 34.1631 32.1758 34.1027V34.1031ZM41.7724 34.4173L41.2867 34.2588L41.2029 34.2808C39.2579 35.7028 37.629 37.5145 36.462 39.6278C36.4229 39.6991 36.2979 39.8921 36.294 39.9497C36.2864 40.0657 36.41 40.2507 36.3985 40.3837C36.462 40.398 36.4669 40.3642 36.4969 40.3254C36.6492 40.1299 36.7976 39.7787 36.9421 39.5493C37.8039 38.1789 38.8773 36.8263 40.0967 35.7597C40.6347 35.2891 41.2319 34.8851 41.772 34.4169L41.7724 34.4173ZM34.8282 36.0219L34.9403 35.9427L35.8743 34.5217L35.5447 34.6627C35.3966 35.0223 34.9972 35.4183 34.8662 35.7639C34.8317 35.8547 34.8149 35.9231 34.8282 36.0219ZM42.8542 34.6264C42.631 34.6613 42.1296 34.4728 41.9561 34.5479C39.7157 36.2209 37.8193 38.2376 36.5182 40.7318C36.5315 40.8795 36.5758 41.0247 36.6087 41.1693C36.6209 41.223 36.5846 41.2304 36.6771 41.2213C37.9073 38.7574 39.7712 36.7153 41.9857 35.1009C42.1984 34.9459 42.4348 34.7388 42.6799 34.6613C42.3985 34.9543 42.0416 35.1767 41.7218 35.4301C39.9451 36.8382 38.6018 38.24 37.3821 40.1634C37.2431 40.3827 36.7386 41.1672 36.6925 41.3606C36.6527 41.5282 36.9725 42.8598 37.021 43.1636C37.1083 43.7121 37.1429 44.2749 37.2536 44.815C38.2854 43.1461 39.1532 41.3871 40.6906 40.1044C40.7056 40.1697 40.6547 40.1872 40.6215 40.2266C40.0848 40.8592 39.5058 41.4329 39.0226 42.1172C38.3773 43.0309 37.8996 44.0528 37.2871 44.9882C37.2672 45.235 37.2924 45.4916 37.3081 45.7412C37.3095 45.7653 37.322 45.9734 37.3755 45.9319C37.3769 45.89 37.3947 45.8509 37.4163 45.8156C38.1458 44.6327 38.9527 43.3563 39.7691 42.2359C39.8728 42.0934 40.002 41.9074 40.1148 41.7789C40.1263 41.7656 40.1899 41.6829 40.2028 41.7272L38.5337 44.1408C38.2687 44.6135 37.9956 45.0856 37.6978 45.5384C37.6297 45.6417 37.3877 45.9043 37.3591 45.9675C37.2421 46.2238 37.4645 47.2359 37.3762 47.5721C38.3382 46.5949 39.113 45.4466 39.9147 44.336C40.2077 41.731 40.9186 39.1453 41.8953 36.7202C42.1816 36.0094 42.5333 35.3209 42.8542 34.6261V34.6264ZM35.4913 34.6617C35.3212 34.7074 35.0576 34.6921 34.9378 34.8233C34.8826 34.8837 34.5998 35.3233 34.5897 35.3855C34.5656 35.531 34.7063 35.6365 34.7241 35.7775C34.7877 35.7919 34.7926 35.758 34.8226 35.7196C35.0583 35.4176 35.2102 34.9497 35.4913 34.6613V34.6617ZM32.4555 34.7312C32.4583 34.7766 32.4422 34.8153 32.4216 34.8544C31.6967 36.2279 31.0657 37.6496 30.3447 39.0238C29.5614 40.5164 28.6923 41.9178 27.3256 42.9499C27.3979 43.2278 27.7268 42.8828 27.8494 42.775C29.9309 40.9399 30.9816 38.0651 32.2278 35.6375C32.305 35.4871 32.6123 35.0367 32.5805 34.9057C32.5686 34.8572 32.5099 34.7511 32.4558 34.7312H32.4555ZM34.5488 34.7661L34.2702 34.7312C34.2408 34.764 34.3466 34.9874 34.3924 35.0101L34.5492 34.7661H34.5488ZM34.8627 34.7661C34.5541 34.7113 34.377 35.0136 34.4793 35.2891C34.545 35.3027 34.5635 35.2559 34.5984 35.2165C34.6333 35.177 34.8858 34.7867 34.8627 34.7661ZM27.6455 43.4135C27.7328 43.4645 27.8972 43.3053 27.9699 43.2449C30.3628 41.2492 31.2469 38.129 32.7771 35.5244C32.8689 35.354 32.7114 35.2287 32.6636 35.0803L32.4013 35.5328C30.9634 38.1642 30.007 41.2831 27.5152 43.1405L27.503 43.2222L27.6448 43.4135H27.6455ZM32.9084 35.5338C32.827 35.516 32.8525 35.545 32.8308 35.5785C32.7425 35.715 32.6367 35.9476 32.5543 36.1036C31.3737 38.3416 30.4773 40.8027 28.7227 42.6713L27.7953 43.4893C27.7359 43.5818 27.9067 43.7065 27.9527 43.7889C27.9992 43.8119 28.4392 43.4024 28.5125 43.3332C30.6561 41.3023 31.5549 38.4233 32.9978 35.9182C33.062 35.7713 32.9321 35.6693 32.9084 35.5338ZM28.4266 43.5801C30.1809 41.9489 30.7909 40.5017 31.8437 38.4292C32.2323 37.6643 32.716 36.8644 33.0686 36.0946C33.092 36.0432 33.1531 36.0541 33.0655 35.9874C32.9332 36.2339 32.7788 36.4727 32.6461 36.7192C31.3287 39.1691 30.5713 41.4423 28.495 43.4209C28.4297 43.483 28.032 43.7917 28.0222 43.8213C28.0097 43.8594 28.0128 43.9341 28.075 43.9083C28.1839 43.7896 28.3096 43.6883 28.4262 43.5801H28.4266ZM28.0959 43.9474C28.0753 43.977 28.2841 44.2916 28.3211 44.3262C28.3519 44.3548 28.3613 44.3866 28.4077 44.3464C29.2692 43.5811 30.0398 42.7565 30.6547 41.7771C31.6705 40.1592 32.3951 38.3112 33.3476 36.6504C33.3749 36.56 33.194 36.1557 33.1346 36.1274L32.6109 37.1036C31.3353 39.5852 30.4798 41.8735 28.3372 43.7871C28.2695 43.8475 28.1794 43.9121 28.0956 43.9477L28.0959 43.9474ZM33.4318 36.7202C33.4143 36.7038 33.3469 36.7122 33.3536 36.7645C31.9062 39.4138 30.9086 42.5327 28.4098 44.4009L28.5292 44.6058C30.9554 42.6217 31.9694 39.6156 33.4405 36.9541C33.4814 36.9129 33.4569 36.7436 33.4318 36.7202ZM33.5715 36.9643L33.4936 37.0093C32.1992 39.4337 31.2305 42.1315 29.228 44.0839C29.1138 44.1949 28.641 44.5468 28.5977 44.6418C28.5855 44.6687 28.5722 44.6907 28.5851 44.7211L28.8428 45.0939C29.147 44.8185 29.4532 44.5406 29.7336 44.2406C31.5441 42.3047 32.4446 39.7881 33.7028 37.496C33.7551 37.3008 33.5669 37.1584 33.5708 36.9639L33.5715 36.9643ZM52.0115 39.4215C52.5475 38.8737 52.9616 38.3818 53.2832 37.6748C53.3087 37.6185 53.3747 37.5114 53.3408 37.4531C52.3059 38.8269 51.1141 40.0712 49.635 40.9706C47.2797 42.4028 44.0774 42.8912 42.1031 44.7452C41.9386 44.8995 41.4145 45.4253 41.3541 45.6044C41.3289 45.6787 41.3453 45.7824 41.3191 45.8624C41.6987 45.5035 42.0427 45.0723 42.4351 44.7277C43.8773 43.4621 46.0925 42.9293 47.8433 42.1797C49.4859 41.4765 50.7583 40.7018 52.0115 39.4208V39.4215ZM29.677 44.7242C31.6171 42.7233 32.5756 40.1337 33.8728 37.7146C33.7792 37.4754 33.7356 37.6343 33.6584 37.7662C32.1876 40.2842 31.5713 42.6776 29.3331 44.7818C29.2374 44.8715 28.8858 45.0992 28.9008 45.2088C28.9252 45.2779 28.9573 45.3593 29.0464 45.3352C29.1054 45.3191 29.5939 44.8097 29.677 44.7242ZM29.4888 46.0024C29.4658 46.0366 29.4218 46.075 29.4253 46.1183L29.6274 46.5453C29.7057 46.5956 29.8446 46.4552 29.9082 46.4043C32.0735 44.676 33.1259 41.7478 34.4025 39.3803C34.4661 39.1785 34.28 38.9142 34.2346 38.7096C34.1546 38.6928 34.179 38.7183 34.1567 38.7539C34.0788 38.8779 34.0195 39.102 33.951 39.2455C32.9754 41.3002 31.7037 44.0783 30.0133 45.6019C29.8928 45.7105 29.625 45.9612 29.4895 46.0027C29.617 45.8149 29.9913 45.5513 30.1662 45.3712C32.0204 43.4638 32.9796 40.9392 34.1916 38.6167L33.9556 37.9073C33.8934 37.8937 33.8868 37.9254 33.8567 37.9649C33.8058 38.0323 33.7059 38.2351 33.6588 38.3252C33.039 39.5049 32.5155 40.7423 31.8685 41.9088C31.1387 43.2247 30.2329 44.4662 29.0736 45.4326L29.4012 46.0268C29.4308 46.0209 29.4602 46.0118 29.4895 46.0031L29.4888 46.0024ZM29.8383 47.0491C30.6394 46.4235 31.3318 45.7238 31.9251 44.8967C32.5061 44.0867 32.973 43.1988 33.4213 42.3103C33.7775 41.6043 34.2827 40.6742 34.5551 39.9539C34.6389 39.7322 34.5453 39.6973 34.5136 39.477C34.4992 39.462 34.4434 39.5287 34.4298 39.55C33.9866 40.249 33.6011 41.2922 33.2059 42.0599C32.4 43.6251 31.5993 44.9902 30.3097 46.2126C30.2064 46.3107 29.7895 46.6158 29.75 46.7014C29.6896 46.8323 29.8251 46.9238 29.838 47.0491H29.8383ZM34.8627 40.6285C34.8128 40.6368 34.7953 40.6927 34.7744 40.7315C34.2614 41.672 33.8613 42.7648 33.3459 43.7347C32.5222 45.2846 31.5829 46.6469 30.1166 47.6591C30.0615 47.6866 30.1107 47.7425 30.1355 47.747C30.1942 47.7572 30.9578 47.1245 31.0598 47.032C32.4446 45.7762 33.3302 44.0891 34.1253 42.4202C34.3051 42.0428 34.7587 41.1888 34.846 40.8379C34.8638 40.7667 34.8697 40.7011 34.8627 40.6281V40.6285ZM51.369 40.9078L50.319 41.6546C47.3265 43.5947 43.9282 43.6101 41.5639 46.5788C41.3631 46.8309 41.2238 46.9702 41.2839 47.3281C41.3656 47.3508 41.3429 47.3068 41.3635 47.2837C42.2794 46.252 42.953 45.3869 44.2373 44.7511C45.9877 43.8849 47.9711 43.3943 49.6821 42.4489C49.9391 42.3068 50.3941 42.0561 50.6012 41.8676C50.8864 41.6074 51.1183 41.2045 51.3687 40.9078H51.369ZM41.2842 47.9914C41.7273 47.5044 42.1163 46.9531 42.5916 46.4901C44.1839 44.9389 46.4417 44.4177 48.4366 43.5762C48.8688 43.394 49.569 43.1227 49.8864 42.7928L50.4266 42.0945C48.7662 43.2585 46.7573 43.7445 44.9245 44.566C43.6046 45.1575 42.8077 45.7521 41.8593 46.84C41.7549 46.9594 41.3471 47.4066 41.302 47.504C41.2469 47.6241 41.3041 47.8553 41.2842 47.9918V47.9914ZM32.2603 47.7268C33.6584 46.4277 34.5443 44.7371 35.3698 43.0375C35.4246 42.827 35.339 42.6161 35.316 42.4084L33.9964 45.014C33.1521 46.5547 31.9652 47.8839 30.4354 48.7648C30.433 48.8461 30.4533 49.0238 30.5723 48.9896C30.669 48.962 31.2421 48.5504 31.3692 48.4589C31.6887 48.2292 31.9732 47.9935 32.2599 47.7271L32.2603 47.7268ZM41.2839 48.1835V48.9338L42.5741 47.3452C44.2429 45.6777 46.6547 45.0828 48.7774 44.1963L49.5546 43.1939C49.5299 43.143 49.4691 43.2002 49.4373 43.2163C46.845 44.5168 44.2013 44.8572 42.1554 47.1011C42.0385 47.2296 41.302 48.1011 41.2839 48.1838V48.1835ZM30.6408 49.8757C32.6021 48.9313 34.1382 47.3878 35.2402 45.5248C35.4096 45.2385 35.6802 44.8454 35.6652 44.52C35.6474 44.1331 35.522 43.7065 35.4909 43.3158L34.6948 44.9092C33.7164 46.7014 32.3797 48.2774 30.5674 49.264L30.6411 49.8757H30.6408ZM48.6817 44.3625C47.7515 44.7106 46.8139 45.0451 45.9015 45.4378C44.1406 46.1955 43.1817 46.7202 41.948 48.2194C41.8342 48.3577 41.3555 48.9352 41.3104 49.0476C41.2654 49.16 41.2867 49.2731 41.2842 49.3876C41.786 48.8137 42.2166 48.1726 42.7487 47.6245C44.2181 46.111 46.4927 45.4927 48.4051 44.7315L48.6817 44.3628V44.3625ZM37.3758 48.2355C37.8273 47.768 38.2833 47.2879 38.7006 46.7866C38.9161 46.5279 39.7419 45.5283 39.81 45.2786C39.8617 45.0884 39.8348 44.8384 39.8878 44.6415C39.6378 45.0014 39.3955 45.367 39.1343 45.7196C38.6042 46.4346 38.0281 47.1242 37.3936 47.7477L37.3762 48.2358L37.3758 48.2355ZM30.7801 50.3642C30.7948 50.338 30.8073 50.3136 30.8363 50.2999C32.8986 49.2955 34.6026 47.7003 35.7444 45.7123L35.7001 44.8509L35.1568 45.7901C34.0862 47.5686 32.5826 49.0472 30.6813 49.9162L30.7102 50.3645C30.7333 50.3638 30.7567 50.3659 30.7801 50.3645C30.7109 50.4892 30.7448 50.7042 30.8325 50.8174C31.5825 50.397 32.3549 50.0164 33.0596 49.5203C34.0624 48.814 34.8425 47.938 35.5957 46.9793C35.6013 47.0474 35.5409 47.0966 35.5045 47.1493C34.3288 48.8535 32.7268 49.9857 30.8663 50.8519C30.8206 50.9245 30.9704 51.3219 31.0469 51.3362C31.0947 51.3449 31.8245 50.9958 31.9327 50.9406C33.4272 50.1802 34.7419 49.1275 35.8055 47.834V47.0837L35.4211 47.6238C34.7451 48.4579 33.9989 49.2005 33.1297 49.8338C32.46 50.3219 31.6988 50.7783 30.9205 51.0611L32.7809 50.0081C33.9709 49.2022 34.9462 48.1719 35.7867 47.0121L35.8073 46.2967L35.7364 45.8275C35.7333 45.868 35.7168 45.9092 35.6952 45.9434C34.5851 47.695 33.1186 49.2445 31.2358 50.1732C31.1555 50.213 30.8443 50.3593 30.7804 50.3635L30.7801 50.3642ZM41.2839 49.5444V50.2598C42.0818 49.4079 42.6852 48.3441 43.6248 47.6283C44.4129 47.0282 45.8285 46.4399 46.7629 46.0555C47.0461 45.9389 47.638 45.7894 47.8573 45.6491C48.0221 45.544 48.2037 45.0747 48.3332 44.9037C48.3189 44.8583 48.2634 44.9002 48.2347 44.9099C46.9871 45.3394 45.5052 45.9085 44.3539 46.5429C43.0211 47.2775 42.2085 48.3783 41.2839 49.5448V49.5444ZM47.8094 45.7584C46.6795 46.199 45.5376 46.6361 44.4709 47.2177C43.2187 47.9007 42.7079 48.6831 41.8415 49.7528C41.6132 50.0349 41.2214 50.2846 41.2842 50.6784C41.8946 50.0143 42.3939 49.2421 43.0106 48.5843C43.9422 47.591 45.2387 47.0177 46.4836 46.509C46.7657 46.3938 47.4019 46.2339 47.6097 46.0995C47.667 46.0625 47.8412 45.7905 47.8091 45.7584H47.8094ZM37.41 49.0731C37.41 48.9456 37.5082 48.8391 37.586 48.7428C37.8919 48.3643 38.3514 47.9838 38.6846 47.6081C38.8801 47.3878 39.7307 46.3903 39.7751 46.186C39.788 46.1256 39.7852 46.0635 39.7831 46.0027L38.8941 47.1546C38.4311 47.6339 37.9761 48.1213 37.4987 48.5867C37.4666 48.6181 37.3887 48.652 37.3832 48.6618C37.3622 48.6977 37.372 48.9219 37.3755 48.9868C37.3776 49.0263 37.3524 49.0825 37.41 49.0731ZM41.2839 50.8355V52.5627H41.9644C42.9914 51.4381 43.8312 50.1652 45.2265 49.4386C45.6721 49.2068 46.1519 49.0455 46.6152 48.8559C46.6362 48.8346 46.7538 48.3839 46.7615 48.321C46.7682 48.2655 46.7678 48.2645 46.7102 48.2701C45.473 48.7131 44.4063 49.2616 43.4813 50.2064C42.7553 50.9479 42.1509 51.8051 41.4057 52.5278L41.3886 52.4761C42.5322 51.2705 43.4607 49.7752 44.9472 48.9505C45.5303 48.6269 46.178 48.3929 46.7971 48.1486L47.3911 46.6487C47.41 46.5226 47.2797 46.6546 47.2403 46.6727C46.147 47.1759 44.9496 47.5341 43.9597 48.2428C43.1101 48.851 42.5008 49.7525 41.7895 50.5045C41.7322 50.4693 41.8017 50.4274 41.8244 50.3998C42.49 49.5926 43.1838 48.6461 44.0644 48.0686C44.702 47.6507 45.6026 47.2279 46.3093 46.9283C46.5964 46.8065 47.1795 46.6654 47.4037 46.5219C47.4672 46.4814 47.6481 46.2297 47.5999 46.1777C46.0125 46.8557 44.1989 47.4098 43.0106 48.7243C42.4114 49.3876 41.8827 50.1655 41.2839 50.8359V50.8355ZM37.3409 50.2594C37.4065 50.2745 37.4237 50.2224 37.4628 50.19C38.0473 49.7085 39.2415 48.4677 39.6577 47.8486C39.7007 47.7848 39.7604 47.7299 39.7478 47.6427C39.3903 48.0016 39.0823 48.4069 38.7369 48.7777C38.4195 49.1188 38.0829 49.455 37.7578 49.7891C37.6897 49.859 37.2595 50.1715 37.3405 50.2594H37.3409ZM35.8398 48.0613C35.771 48.0435 35.7724 48.0895 35.7416 48.1199C35.5604 48.299 35.4057 48.5382 35.2297 48.7246C34.1029 49.9194 32.643 50.8236 31.1307 51.4479C31.175 51.8665 31.528 51.6197 31.7697 51.5111C32.2596 51.2911 32.8846 50.9291 33.3455 50.6445C34.2332 50.0964 35.029 49.4009 35.7528 48.6548C35.8097 48.6897 35.7413 48.732 35.7179 48.7595C35.5192 48.9966 35.1672 49.3349 34.9329 49.5448C34.1172 50.2748 33.0969 50.9078 32.1293 51.4172C32.0204 51.4748 31.4184 51.722 31.3894 51.759C31.3566 51.8012 31.3723 51.818 31.4079 51.8477C31.4785 51.8931 32.1154 51.5492 32.2341 51.487C33.1804 50.9905 34.2408 50.3244 35.0377 49.6146C35.192 49.477 35.6442 49.0654 35.7476 48.925C35.8858 48.7368 35.7818 48.7176 35.7881 48.6178C35.7996 48.4317 35.8555 48.2498 35.8398 48.0613ZM37.3758 51.4811C37.9062 50.9832 38.4132 50.4598 38.9276 49.9449C38.9807 49.8915 39.0509 49.8604 39.1039 49.807C39.1993 49.7116 39.6989 49.1963 39.7129 49.1251C39.7346 49.0137 39.7234 48.8416 39.7133 48.7243C38.9789 49.5661 38.1713 50.3338 37.3723 51.1138L37.3758 51.4811ZM42.0867 52.5627H43.0811C43.9422 51.4046 45.0477 50.4651 46.4172 49.9665L46.588 48.9338C46.1026 49.1548 45.59 49.3199 45.1221 49.5786C44.1039 50.1407 43.27 51.1257 42.5224 52.0041C42.3702 52.1828 42.2214 52.3703 42.0867 52.5631V52.5627ZM35.8052 49.7535V48.9683L35.2123 49.5793C34.1305 50.5398 32.8797 51.2999 31.5626 51.8965C31.5305 51.9112 31.5008 51.8746 31.512 51.9524C31.5231 52.0303 31.8573 52.2886 31.9457 52.2837C32.005 52.2806 32.6196 51.9688 32.7299 51.9126C33.8354 51.3488 34.9308 50.6348 35.8052 49.7532V49.7535ZM37.41 52.0044C37.4107 51.9657 37.4334 51.9241 37.4603 51.8976C37.8214 51.5418 38.2194 51.2098 38.5805 50.8537C38.8832 50.5552 39.4604 50.0475 39.6787 49.719C39.7873 49.5556 39.7056 49.4603 39.7133 49.2825C38.9908 50.0894 38.2034 50.8317 37.4079 51.5656C37.3587 51.6336 37.3315 52.0606 37.41 52.0044ZM39.7482 49.8063C39.6951 49.7466 39.503 50.0342 39.4702 50.0688C39.1018 50.4536 38.716 50.8292 38.3361 51.2028C38.1304 51.4053 37.5302 51.8812 37.4086 52.09C37.3378 52.2118 37.3405 52.4244 37.3405 52.5627L37.49 52.555C38.1957 51.9615 38.8295 51.2604 39.4856 50.6075C39.5383 50.5552 39.6511 50.5031 39.6811 50.4539C39.7283 50.3761 39.7799 49.8419 39.7482 49.8059V49.8063ZM32.0714 52.3539L32.3888 52.5103C33.3337 52.0509 34.296 51.5317 35.1382 50.9015C35.264 50.8076 35.7825 50.4256 35.8041 50.3115C35.8247 50.2029 35.7919 50.0601 35.8045 49.9459C34.7604 50.994 33.4231 51.7705 32.071 52.3543L32.0714 52.3539ZM46.4137 50.1903C45.1521 50.6372 44.0969 51.5265 43.2732 52.5624C43.3804 52.5515 43.5228 52.5896 43.6213 52.5446C43.7198 52.4995 44.1514 52.0016 44.2844 51.8815C44.8833 51.3425 45.5582 50.8945 46.3072 50.589L46.4137 50.19V50.1903ZM37.6897 52.5627C38.0487 52.6318 38.0567 52.4587 38.247 52.2652C38.6252 51.8808 39.3829 51.2492 39.6626 50.8544C39.7171 50.7772 39.7772 50.669 39.7314 50.5737L37.6897 52.5627ZM33.3277 52.5973C33.4276 52.6015 33.5121 52.5435 33.5952 52.4988C34.1888 52.18 35.1616 51.5813 35.6474 51.1312C35.6812 51.0998 35.8796 50.9284 35.8398 50.8879L34.6438 51.7681L33.3277 52.5976V52.5973ZM38.1084 52.5627L38.4764 52.5299C38.7984 52.1235 39.362 51.7443 39.6616 51.3421C39.7827 51.1794 39.7534 51.1124 39.7129 50.9228L38.1081 52.5627H38.1084ZM46.1693 51.1323C45.4308 51.4685 44.7544 51.9563 44.2153 52.5624C44.6483 52.6283 44.9755 52.4084 45.3079 52.1724C45.6696 51.9161 46.0426 51.5708 46.169 51.1323H46.1693ZM39.7136 52.5627L39.7482 51.4112L38.5623 52.5456C38.8721 52.6455 39.0282 52.2897 39.2426 52.1092C39.2817 52.0764 39.2995 52.0247 39.3648 52.0397L38.8763 52.5627H39.7136ZM35.8052 52.5627V51.9695L35.0024 52.5973L35.8052 52.5627ZM44.5292 54.168H32.6297C32.7666 54.807 32.0417 55.2298 32.4401 55.8408C32.5071 55.9438 32.6919 56.1766 32.8214 56.1606L44.473 54.2682L44.5295 54.168H44.5292ZM44.7282 55.7126C44.6706 55.6627 44.4981 55.7025 44.4171 55.7137C40.5286 56.2447 36.6551 57.1043 32.7614 57.6322C32.0172 57.7551 32.3165 58.5365 32.8895 58.6004C36.4246 57.885 40.0261 57.452 43.5529 56.6986C43.7935 56.6473 44.0798 56.6071 44.3033 56.5069C44.5547 56.3945 45.0306 55.9738 44.7282 55.7126ZM44.3829 57.9796C40.5555 58.7358 36.7001 59.3447 32.8598 60.0339C32.3137 60.2305 32.8672 60.6285 33.1406 60.7584C33.4719 60.9155 33.8843 61.0038 34.2443 61.0698C37.6768 60.2633 41.146 59.5738 44.5624 58.7201C44.9472 58.4562 44.8707 57.9841 44.3829 57.9796ZM44.5292 60.205L39.993 61.2164C40.5335 61.2063 41.0761 61.2301 41.617 61.2182C42.2382 61.2042 42.9299 61.2224 43.5159 61.0234C43.9045 60.8914 44.4447 60.6508 44.5292 60.205ZM41.3886 62.6825H35.9449C36.2242 63.0449 36.6743 63.4282 37.1303 63.5386C37.578 63.6468 39.4786 63.6468 39.9664 63.5808C40.361 63.5274 41.0932 63.1049 41.3366 62.7876C41.3635 62.7523 41.404 62.7436 41.3886 62.6825Z" fill="#4B5A2A"/>
<path d="M20.3399 55.118C21.5334 55.0325 21.4908 56.9433 20.2327 56.7415C19.3098 56.5935 19.4059 55.1851 20.3399 55.118Z" fill="#4B5A2A"/>
<path d="M58.266 20.4462C57.5072 21.2195 56.3605 20.1145 57.0341 19.3541C57.7359 18.5622 59.0136 19.6844 58.266 20.4462Z" fill="#4B5A2A"/>
<path d="M14.4054 45.5231C14.8027 45.507 15.1963 45.7954 15.2483 46.1973C15.3419 46.921 14.5842 47.3868 13.9836 46.9738C13.3669 46.5499 13.6689 45.5528 14.4057 45.5231H14.4054Z" fill="#4B5A2A"/>
<path d="M61.2004 51.1752C62.3576 50.978 62.4743 52.7331 61.3963 52.7694C60.3826 52.8036 60.2838 51.3317 61.2004 51.1752Z" fill="#4B5A2A"/>
<path d="M41.3062 66.9274C40.9759 67.2576 40.3819 67.2234 40.0973 66.8523C39.5432 66.1296 40.4189 65.2047 41.1906 65.7242C41.5785 65.9854 41.6372 66.5964 41.3062 66.9274Z" fill="#4B5A2A"/>
<path d="M62.0594 36.3135C62.8175 35.588 63.9209 36.7576 63.1813 37.4528C62.3942 38.1929 61.3205 37.0205 62.0594 36.3135Z" fill="#4B5A2A"/>
<path d="M14.8549 35.1275C15.5808 35.8526 14.4463 37.0205 13.6931 36.2192C12.9986 35.4805 14.1212 34.3946 14.8549 35.1275Z" fill="#4B5A2A"/>
<path d="M22.6719 16.7024C23.3874 17.4178 22.292 18.521 21.5839 17.843C20.8376 17.1287 21.9187 15.9489 22.6719 16.7024Z" fill="#4B5A2A"/>
<path d="M49.7511 60.7758C50.5141 61.5443 49.19 62.6601 48.5423 61.7576C47.9951 60.9948 49.0741 60.094 49.7511 60.7758Z" fill="#4B5A2A"/>
<path d="M60.7464 42.2764C61.7084 42.0798 62.1347 43.4118 61.2031 43.7449C60.5446 43.9805 59.9349 43.2414 60.2952 42.6276C60.3735 42.4946 60.5959 42.3071 60.7467 42.2764H60.7464Z" fill="#4B5A2A"/>
<path d="M66.2609 42.8703C66.931 42.7649 67.4132 43.4785 67.0179 44.0459C66.6226 44.6132 65.7109 44.3639 65.6491 43.6716C65.6163 43.3036 65.8956 42.9276 66.2609 42.8703Z" fill="#4B5A2A"/>
<path d="M35.1194 10.0478C34.8683 9.77651 34.8746 9.2535 35.1411 8.99444C35.7755 8.37786 36.7969 9.15679 36.3007 9.94444C36.0427 10.354 35.4476 10.4022 35.1198 10.0478H35.1194Z" fill="#4B5A2A"/>
<path d="M57.5374 26.7489C58.3039 26.6487 58.7445 27.694 58.0525 28.1018C57.2975 28.547 56.5656 27.5945 57.1114 26.9863C57.2036 26.8837 57.4009 26.7667 57.5374 26.7486V26.7489Z" fill="#4B5A2A"/>
<path d="M27.3479 65.7759C26.7361 66.352 25.7695 65.5884 26.2493 64.8343C26.8367 63.9108 28.1342 65.0357 27.3479 65.7759Z" fill="#4B5A2A"/>
<path d="M27.8417 60.0374C28.6584 59.9735 28.9154 61.1466 28.1591 61.4396C27.0815 61.8568 26.7557 60.1223 27.8417 60.0374Z" fill="#4B5A2A"/>
<path d="M53.6251 16.6779C52.8516 17.3979 51.8694 16.0764 52.7315 15.5226C53.5001 15.029 54.2463 16.0998 53.6251 16.6779Z" fill="#4B5A2A"/>
<path d="M14.1229 30.3568C13.4123 31.0167 12.4147 29.925 13.1574 29.2696C13.8753 28.6363 14.7885 29.7389 14.1229 30.3568Z" fill="#4B5A2A"/>
<path d="M9.86806 31.9475C11.041 31.7314 11.0619 33.525 9.89774 33.3668C9.10614 33.2593 9.18855 32.0725 9.86806 31.9475Z" fill="#4B5A2A"/>
<path d="M66.1213 30.3076C67.1639 30.1281 67.3207 31.6033 66.3542 31.7268C65.4508 31.8424 65.2762 30.4528 66.1213 30.3076Z" fill="#4B5A2A"/>
<path d="M17.0567 18.0246C17.8134 17.894 18.2879 18.829 17.6357 19.301C16.968 19.7842 16.1827 18.9833 16.6182 18.3182C16.7013 18.1911 16.908 18.0501 17.0571 18.0242L17.0567 18.0246Z" fill="#4B5A2A"/>
<path d="M58.0596 47.302C59.1575 47.126 59.1753 48.9206 58.067 48.7083C57.2708 48.5557 57.3201 47.4207 58.0596 47.302Z" fill="#4B5A2A"/>
<path d="M19.0807 34.4254C20.0996 34.2518 20.1736 35.735 19.3136 35.8446C18.3736 35.9644 18.2224 34.5716 19.0807 34.4254Z" fill="#4B5A2A"/>
<path d="M12.6949 50.2329C13.6168 50.0761 13.8919 51.3397 13.0888 51.6036C12.1041 51.9269 11.7738 50.3893 12.6949 50.2329Z" fill="#4B5A2A"/>
<path d="M61.9682 20.5021C62.5635 20.4106 63.0241 21.1155 62.6236 21.611C62.2964 22.0156 61.6528 21.9563 61.4248 21.4825C61.2171 21.0506 61.5111 20.5726 61.9682 20.5021Z" fill="#4B5A2A"/>
<path d="M43.648 10.522C44.2754 10.426 44.6791 11.1134 44.2995 11.627C43.8295 12.2635 42.8707 11.7579 43.1004 10.9864C43.1699 10.7531 43.4109 10.5583 43.648 10.522Z" fill="#4B5A2A"/>
<path d="M35.9332 66.6738C36.6253 66.6714 36.8676 67.5819 36.2914 67.9667C35.9611 68.1873 35.5019 68.026 35.3155 67.6912C35.056 67.2251 35.4031 66.6759 35.9332 66.6738Z" fill="#4B5A2A"/>
<path d="M55.6143 61.0905C56.4478 61.0741 56.5746 62.3142 55.8158 62.4361C54.7186 62.6124 54.6963 61.1083 55.6143 61.0905Z" fill="#4B5A2A"/>
<path d="M13.1802 40.5814C12.4818 41.3366 11.4042 40.1104 12.3083 39.5525C12.9616 39.1492 13.6816 40.0392 13.1802 40.5814Z" fill="#4B5A2A"/>
<path d="M57.188 56.1652C57.7683 56.0733 58.1702 56.7193 57.8542 57.2157C57.6569 57.5261 57.3022 57.6015 56.9764 57.442C56.4139 57.1665 56.5717 56.2626 57.188 56.1652Z" fill="#4B5A2A"/>
<path d="M19.6362 60.6115C18.9441 61.2567 18.0209 60.13 18.7587 59.577C19.4965 59.0239 20.2036 60.0825 19.6362 60.6115Z" fill="#4B5A2A"/>
<path d="M50.4042 50.0971C50.9563 49.505 51.9623 50.2773 51.4388 50.9745C50.8794 51.7196 49.7669 50.7807 50.4042 50.0971Z" fill="#4B5A2A"/>
<path d="M26.2358 50.0238C26.9617 49.9435 27.2788 51.0241 26.5818 51.3135C25.5695 51.7339 25.2525 50.1324 26.2358 50.0238Z" fill="#4B5A2A"/>
<path d="M19.2561 46.0789C19.4855 46.0513 19.7819 46.1993 19.8993 46.3962C20.202 46.9035 19.7725 47.5219 19.1925 47.4168C18.4201 47.2771 18.5249 46.1669 19.2561 46.0785V46.0789Z" fill="#4B5A2A"/>
<path d="M52.4036 12.9094C52.3792 12.9359 52.264 13.018 52.2304 13.033C51.4472 13.3922 50.8973 12.3047 51.5663 11.8801C52.2654 11.4364 52.9295 12.3452 52.4036 12.9094Z" fill="#4B5A2A"/>
<path d="M20.0226 23.4684C20.5635 23.3769 20.9954 23.8996 20.7552 24.41C20.458 25.0412 19.4587 24.7633 19.4859 24.0755C19.496 23.8154 19.7677 23.5113 20.0226 23.4684Z" fill="#4B5A2A"/>
<path d="M49.1963 55.3977C50.3214 55.2029 50.1999 56.8288 49.2312 56.6721C48.5269 56.5579 48.5056 55.5175 49.1963 55.3977Z" fill="#4B5A2A"/>
<path d="M15.0192 55.0525C15.5835 54.4593 16.5703 55.3685 15.9316 55.9823C15.3272 56.5632 14.4462 55.6548 15.0192 55.0525Z" fill="#4B5A2A"/>
<path d="M31.3618 9.96791C31.6544 9.96547 31.9809 10.279 32.0022 10.5667C32.0522 11.236 31.1928 11.5031 30.8206 10.9438C30.5332 10.5119 30.8709 9.9721 31.3615 9.96791H31.3618Z" fill="#4B5A2A"/>
<path d="M62.873 46.7122C63.3112 47.149 62.7986 47.9656 62.1732 47.6737C61.8827 47.5379 61.8206 47.2306 61.8806 46.9353C61.9627 46.5317 62.6027 46.4433 62.8727 46.7122H62.873Z" fill="#4B5A2A"/>
<path d="M23.6876 12.79C24.4457 12.6688 24.6122 13.7965 23.9153 13.925C23.1282 14.0703 22.9292 12.9111 23.6876 12.79Z" fill="#4B5A2A"/>
<path d="M17.0434 39.5696C16.492 38.9726 17.4722 38.2516 17.9038 38.8311C18.3263 39.3985 17.5295 40.0961 17.0434 39.5696Z" fill="#4B5A2A"/>
<path d="M27.7345 54.6994C28.3746 54.5675 28.7108 55.2996 28.215 55.6683C27.7192 56.037 27.1318 55.4396 27.4353 54.9236C27.488 54.8342 27.6333 54.7204 27.7345 54.6994Z" fill="#4B5A2A"/>
<path d="M57.8849 35.1928C58.4408 35.08 58.8102 35.809 58.3109 36.1421C57.5786 36.6302 57.0517 35.3621 57.8849 35.1928Z" fill="#4B5A2A"/>
<path d="M16.1844 26.3648C16.6596 26.2869 16.9735 26.7946 16.6973 27.1916C16.4358 27.5676 15.8422 27.4541 15.7475 26.9939C15.6903 26.715 15.9068 26.4105 16.1844 26.3648Z" fill="#4B5A2A"/>
<path d="M65.2134 49.7797C65.9854 49.6485 66.0053 50.7413 65.2972 50.7633C64.7298 50.7811 64.6271 49.8792 65.2134 49.7797Z" fill="#4B5A2A"/>
<path d="M67.5874 38.9254C67.814 38.8943 68.1011 39.1073 68.1461 39.3279C68.1852 39.5203 68.0595 39.8757 67.85 39.9229C67.0532 40.1023 66.9599 39.0109 67.5874 38.925V38.9254Z" fill="#4B5A2A"/>
<path d="M61.3051 55.711C61.8669 55.5954 62.1393 56.3628 61.6414 56.6407C61.0013 56.9983 60.5296 55.8702 61.3051 55.711Z" fill="#4B5A2A"/>
<path d="M23.5136 60.9092C23.9867 60.8547 24.2671 61.5198 23.8334 61.8249C23.1351 62.3165 22.6818 61.0048 23.5136 60.9092Z" fill="#4B5A2A"/>
<path d="M64.7946 25.9103C65.2929 25.808 65.6407 26.4696 65.1853 26.7901C64.5327 27.2492 64.0173 26.0702 64.7946 25.9103Z" fill="#4B5A2A"/>
<path d="M22.2212 50.8264C22.8938 50.7165 22.979 51.642 22.4493 51.752C21.7638 51.8945 21.6189 50.9249 22.2212 50.8264Z" fill="#4B5A2A"/>
<path d="M53.5577 53.6527C54.2505 53.5085 54.3682 54.4648 53.821 54.5786C53.1411 54.7197 53.0102 53.7665 53.5577 53.6527Z" fill="#4B5A2A"/>
<path d="M12.6954 23.9907C13.3805 23.8794 13.4772 24.9414 12.7876 24.9575C12.232 24.9704 12.1527 24.0787 12.6954 23.9907Z" fill="#4B5A2A"/>
<path d="M48.3097 65.9745C48.7193 65.5768 49.4278 66.2908 48.9089 66.7307C48.4438 67.1253 47.8698 66.4019 48.3097 65.9745Z" fill="#4B5A2A"/>
<path d="M53.3487 46.464C53.9971 46.3306 54.1703 47.2698 53.5771 47.3902C52.9157 47.5243 52.8117 46.5743 53.3487 46.464Z" fill="#4B5A2A"/>
<path d="M60.921 24.5845C61.6096 24.4414 61.7315 25.6243 60.9161 25.5153C60.4503 25.4529 60.4269 24.6872 60.921 24.5845Z" fill="#4B5A2A"/>
<path d="M15.9757 21.9671C16.3629 21.9109 16.636 22.3578 16.4188 22.6905C16.1391 23.1186 15.5175 22.8808 15.564 22.3606C15.5804 22.1773 15.7986 21.9926 15.9757 21.9671Z" fill="#4B5A2A"/>
<path d="M57.3831 40.7912C57.021 40.4326 57.4645 39.7591 57.9418 40.0405C58.548 40.398 57.8772 41.2803 57.3831 40.7912Z" fill="#4B5A2A"/>
<path d="M9.58751 42.6598C10.0146 42.5614 10.4231 42.9929 10.1043 43.3857C9.74394 43.8301 9.1189 43.407 9.31584 42.9112C9.35076 42.8236 9.49637 42.6808 9.58716 42.6598H9.58751Z" fill="#4B5A2A"/>
<path d="M57.328 15.5115C57.8196 15.4846 57.9953 16.2101 57.519 16.4014C56.822 16.6811 56.623 15.5499 57.328 15.5115Z" fill="#4B5A2A"/>
<path d="M62.1004 31.9929C62.7332 32.0069 62.7084 32.9531 62.0296 32.8829C61.4786 32.826 61.5365 31.9807 62.1004 31.9929Z" fill="#4B5A2A"/>
<path d="M40.7034 8.71137C41.1326 8.22502 41.8596 8.99731 41.3166 9.37717C40.8435 9.70816 40.3564 9.10485 40.7034 8.71137Z" fill="#4B5A2A"/>
<path d="M55.358 23.7973C54.8632 23.3793 55.5916 22.6699 56.0106 23.1622C56.3657 23.5791 55.7396 24.1195 55.358 23.7973Z" fill="#4B5A2A"/>
<path d="M47.9722 11.025C47.5556 11.4458 46.9812 10.7698 47.3318 10.3847C47.6862 9.99544 48.4114 10.5816 47.9722 11.025Z" fill="#4B5A2A"/>
<path d="M28.4191 13.6772C28.0521 13.3099 28.6143 12.6556 29.0371 13.0414C29.4925 13.4569 28.8081 14.0668 28.4191 13.6772Z" fill="#4B5A2A"/>
<path d="M33.5984 12.6154C34.0687 12.5882 34.2831 13.2551 33.8013 13.4474C33.1888 13.6922 32.9192 12.6545 33.5984 12.6154Z" fill="#4B5A2A"/>
<path d="M30.8609 66.6149C30.5724 66.2902 30.9618 65.6896 31.3717 65.947C31.9374 66.3017 31.2771 67.083 30.8609 66.6149Z" fill="#4B5A2A"/>
<path d="M23.4077 46.0803C23.8843 45.9968 24.0921 46.5984 23.7083 46.8348C23.1524 47.1773 22.7617 46.1934 23.4077 46.0803Z" fill="#4B5A2A"/>
<path d="M9.03088 38.2984C9.68281 38.1859 9.68874 39.0906 9.15275 39.1195C8.66878 39.1457 8.53399 38.3839 9.03088 38.2984Z" fill="#4B5A2A"/>
<path d="M33.4441 63.8109C33.8111 63.4659 34.4029 64.0591 34.0087 64.4278C33.612 64.7989 33.0488 64.1824 33.4441 63.8109Z" fill="#4B5A2A"/>
<path d="M44.3807 67.1578C44.9757 67.0045 45.1437 67.8442 44.6077 67.9451C44.1038 68.0401 43.9341 67.2727 44.3807 67.1578Z" fill="#4B5A2A"/>
<path d="M52.9845 20.1341C52.6437 19.8111 53.1088 19.2068 53.5338 19.5325C53.9657 19.8635 53.4039 20.531 52.9845 20.1341Z" fill="#4B5A2A"/>
<path d="M66.6793 35.0535C67.3085 34.9253 67.3745 35.7811 66.8364 35.8415C66.3399 35.8973 66.239 35.1432 66.6793 35.0535Z" fill="#4B5A2A"/>
<path d="M45.0091 64.4694C45.4274 64.388 45.661 64.9627 45.3087 65.1889C44.7444 65.5517 44.4246 64.5828 45.0091 64.4694Z" fill="#4B5A2A"/>
<path d="M57.5705 30.868C57.9424 31.1665 57.5513 31.7593 57.1487 31.5509C56.5931 31.2636 57.1588 30.5377 57.5705 30.868Z" fill="#4B5A2A"/>
<path d="M24.0712 55.8516C24.6424 55.7039 24.766 56.5659 24.2629 56.6389C23.7838 56.7084 23.6382 55.9637 24.0712 55.8516Z" fill="#4B5A2A"/>
<path d="M49.1614 14.081C49.6593 13.9934 49.8311 14.6854 49.409 14.8173C48.8318 14.9978 48.6397 14.1728 49.1614 14.081Z" fill="#4B5A2A"/>
<path d="M63.0849 39.9379C63.492 39.859 63.7759 40.4169 63.3855 40.6578C62.8667 40.978 62.5028 40.0506 63.0849 39.9379Z" fill="#4B5A2A"/>
<path d="M21.4187 20.5381C21.5472 20.6672 21.5615 20.9057 21.4473 21.0537C21.0887 21.5188 20.4794 20.8938 20.8547 20.5311C20.9934 20.397 21.2926 20.4113 21.419 20.5384L21.4187 20.5381Z" fill="#4B5A2A"/>
<path d="M38.6546 11.2205C38.7859 11.209 39.0461 11.3749 39.0782 11.5152C39.2262 12.1632 38.2178 12.188 38.3198 11.5449C38.3397 11.4189 38.5307 11.2314 38.6546 11.2205Z" fill="#4B5A2A"/>
<path d="M52.0586 63.9803C52.4598 63.9111 52.7084 64.4425 52.3788 64.6869C51.8463 65.0822 51.4908 64.078 52.0586 63.9803Z" fill="#4B5A2A"/>
<path d="M26.8272 10.6958C27.3531 10.5876 27.4362 11.3487 27.0549 11.4468C26.491 11.5917 26.3136 10.8016 26.8272 10.6958Z" fill="#4B5A2A"/>
<path d="M19.3455 42.2918C18.9901 41.9367 19.5121 41.3557 19.8896 41.7304C20.2454 42.084 19.7066 42.6521 19.3455 42.2918Z" fill="#4B5A2A"/>
<path d="M16.7391 31.6713C17.0747 31.6518 17.3212 32.0697 17.0328 32.3424C16.4961 32.8493 16.0837 31.7097 16.7391 31.6713Z" fill="#4B5A2A"/>
<path d="M57.2226 43.9858C57.6845 43.9429 57.8249 44.6362 57.3815 44.7389C56.8168 44.8691 56.7103 44.0336 57.2226 43.9858Z" fill="#4B5A2A"/>
<path d="M59.5578 59.5538C59.9272 59.9466 59.1622 60.4647 58.9111 59.9735C58.6849 59.5308 59.2715 59.249 59.5578 59.5538Z" fill="#4B5A2A"/>
<path d="M19.2556 28.1091C19.571 28.0535 19.8528 28.3426 19.6904 28.6488C19.5249 28.9603 19.0667 28.8712 18.9735 28.5479C18.9145 28.343 19.0479 28.1457 19.2556 28.1091Z" fill="#4B5A2A"/>
<path d="M18.2791 52.4294C18.7739 52.37 18.8556 53.0868 18.437 53.1832C17.857 53.3166 17.8186 52.4846 18.2791 52.4294Z" fill="#4B5A2A"/>
<path d="M52.9649 58.224C53.6252 58.0878 53.5743 59.1401 52.9028 58.9328C52.6021 58.8399 52.6119 58.2966 52.9649 58.224Z" fill="#4B5A2A"/>
<path d="M19.7775 14.8132C20.1012 14.7389 20.405 15.0126 20.2587 15.3292C20.0468 15.7891 19.3798 15.4574 19.5698 14.9888C19.5981 14.919 19.7035 14.83 19.7772 14.8129L19.7775 14.8132Z" fill="#4B5A2A"/>
<path d="M14.9277 41.8578C15.4951 41.7426 15.5555 42.6217 15.0234 42.612C14.5862 42.6036 14.5199 41.9409 14.9277 41.8578Z" fill="#4B5A2A"/>
<path d="M10.8076 27.7638C11.1638 28.1206 10.5817 28.6573 10.2461 28.2728C9.92944 27.9101 10.4672 27.4227 10.8076 27.7638Z" fill="#4B5A2A"/>
<path d="M25.3961 15.8948C26.0826 15.7388 26.0089 16.6933 25.4614 16.6186C25.0696 16.5648 25.0371 15.9765 25.3961 15.8948Z" fill="#4B5A2A"/>
<path d="M57.8518 52.4643C58.3892 52.3997 58.4178 53.2051 57.9115 53.2282C57.4705 53.2481 57.4045 52.518 57.8518 52.4643Z" fill="#4B5A2A"/>
<path d="M16.6228 49.8866C17.008 49.5308 17.5024 50.124 17.133 50.4487C16.7678 50.7696 16.2953 50.189 16.6228 49.8866Z" fill="#4B5A2A"/>
<path d="M10.0637 47.177C9.68697 46.7936 10.3619 46.2895 10.6455 46.7175C10.9067 47.1124 10.3529 47.471 10.0637 47.177Z" fill="#4B5A2A"/>
<path d="M66.7153 46.8466C67.2856 46.7688 67.2583 47.6828 66.6794 47.5645C66.3134 47.4897 66.2855 46.9053 66.7153 46.8466Z" fill="#4B5A2A"/>
<path d="M10.2718 36.2555C9.90792 35.934 10.4289 35.323 10.8036 35.7413C11.1077 36.081 10.593 36.5394 10.2718 36.2555Z" fill="#4B5A2A"/>
<path d="M61.3961 28.3224C61.6811 28.0225 62.2031 28.3294 62.0076 28.7071C61.752 29.2012 61.0361 28.7009 61.3961 28.3224Z" fill="#4B5A2A"/>
<path d="M63.8029 53.76C64.1084 53.4304 64.6567 53.9066 64.3344 54.2397C63.96 54.6265 63.5337 54.0505 63.8029 53.76Z" fill="#4B5A2A"/>
<path d="M52.0222 32.0858C52.3665 31.9835 52.5425 32.482 52.2084 32.5875C51.8396 32.7037 51.7474 32.1678 52.0222 32.0858Z" fill="#4B5A2A"/>
<path d="M53.0527 30.6921C53.2353 30.4941 53.6945 30.765 53.4633 31.0506C53.2329 31.3355 52.8065 30.9588 53.0527 30.6921Z" fill="#4B5A2A"/>
<path d="M48.5674 32.9583C48.9553 32.8707 49.0028 33.4614 48.6257 33.4733C48.3243 33.4827 48.2535 33.0296 48.5674 32.9583Z" fill="#4B5A2A"/>
<path d="M51.4289 28.3871C51.7893 28.3085 51.9052 28.7603 51.615 28.8528C51.211 28.9816 51.0997 28.459 51.4289 28.3871Z" fill="#4B5A2A"/>
<path d="M52.2504 27.7432C52.0158 27.4939 52.4624 27.1276 52.6757 27.4045C52.8891 27.6814 52.4554 27.961 52.2504 27.7432Z" fill="#4B5A2A"/>
<path d="M44.938 37.8096C45.3441 37.7178 45.3494 38.2213 45.0623 38.2837C44.6639 38.3703 44.6562 37.8735 44.938 37.8096Z" fill="#4B5A2A"/>
<path d="M49.7884 28.8761C50.183 28.7602 50.3133 29.2354 49.9746 29.3419C49.6198 29.4536 49.5583 28.9435 49.7884 28.8761Z" fill="#4B5A2A"/>
<path d="M47.0671 34.7029C47.4906 34.6094 47.4763 35.1407 47.161 35.1847C46.8457 35.2287 46.8108 34.7595 47.0671 34.7029Z" fill="#4B5A2A"/>
<path d="M45.8643 36.5195C46.0414 36.3306 46.4181 36.4873 46.2907 36.789C46.1402 37.1448 45.6167 36.7838 45.8643 36.5195Z" fill="#4B5A2A"/>
<path d="M51.8801 30.2399C52.0945 30.2274 52.2153 30.5007 52.0334 30.6669C51.6668 31.0021 51.4534 30.2647 51.8801 30.2399Z" fill="#4B5A2A"/>
<path d="M49.616 31.5617C49.9474 31.5188 50.0137 32.0128 49.6363 32.0334C49.3681 32.0481 49.2962 31.6033 49.616 31.5617Z" fill="#4B5A2A"/>
<path d="M45.7073 39.1014C45.8928 39.2875 45.5995 39.6743 45.3418 39.4666C45.0809 39.256 45.5041 38.8978 45.7073 39.1014Z" fill="#4B5A2A"/>
<path d="M52.0077 25.6334C52.1658 25.4372 52.5534 25.6306 52.4323 25.9019C52.3156 26.163 51.7629 25.9368 52.0077 25.6334Z" fill="#4B5A2A"/>
<path d="M53.6979 28.7345C54.0114 28.6779 54.0862 29.0888 53.8487 29.167C53.4363 29.3032 53.384 28.791 53.6979 28.7345Z" fill="#4B5A2A"/>
<path d="M50.8367 32.1228C50.9593 32.2527 50.8716 32.5652 50.622 32.5316C50.1827 32.4733 50.549 31.8184 50.8367 32.1228Z" fill="#4B5A2A"/>
<path d="M50.1352 29.891C50.4264 29.8743 50.4586 30.3701 50.13 30.3708C49.8258 30.3715 49.8188 29.9092 50.1352 29.891Z" fill="#4B5A2A"/>
<path d="M44.2752 36.3425C44.6146 36.289 44.638 36.87 44.1995 36.7897C43.9253 36.7394 44.0538 36.3774 44.2752 36.3425Z" fill="#4B5A2A"/>
<path d="M53.5904 26.6805C53.942 26.6609 53.9047 27.1965 53.5167 27.1232C53.2705 27.0767 53.3135 26.6958 53.5904 26.6805Z" fill="#4B5A2A"/>
<path d="M49.0216 30.5502C49.4578 30.4556 49.3562 30.9936 49.0485 30.9943C48.8111 30.995 48.7308 30.6131 49.0216 30.5502Z" fill="#4B5A2A"/>
<path d="M52.1809 24.7769C51.9854 24.572 52.4138 24.2284 52.5867 24.4931C52.7522 24.7465 52.3471 24.9508 52.1809 24.7769Z" fill="#4B5A2A"/>
<path d="M51.6563 33.7274C51.9228 33.5745 52.2304 33.807 51.9636 34.0521C51.6968 34.2972 51.5146 33.977 51.6563 33.7274Z" fill="#4B5A2A"/>
<path d="M48.7973 35.8928C48.9607 35.6903 49.3445 35.8938 49.1521 36.1609C48.9614 36.4256 48.6003 36.1365 48.7973 35.8928Z" fill="#4B5A2A"/>
<path d="M48.6389 34.9487C48.8837 35.1938 48.3753 35.4871 48.2461 35.22C48.1169 34.9529 48.4975 34.8073 48.6389 34.9487Z" fill="#4B5A2A"/>
<path d="M51.3243 26.1539C51.707 26.068 51.6885 26.5778 51.3802 26.5914C51.1675 26.6008 51.0512 26.215 51.3243 26.1539Z" fill="#4B5A2A"/>
<path d="M50.6095 27.7785C50.4929 27.6622 50.5502 27.3875 50.7925 27.4007C51.2297 27.4248 50.8725 28.0411 50.6095 27.7785Z" fill="#4B5A2A"/>
<path d="M47.3099 35.7866C47.5159 35.7772 47.5805 36.0809 47.3689 36.1919C47.0019 36.384 46.9639 35.8023 47.3099 35.7866Z" fill="#4B5A2A"/>
<path d="M50.6608 33.6569C51.0963 33.5287 51.0062 34.1603 50.6615 34.0622C50.4866 34.0123 50.4828 33.7096 50.6608 33.6569Z" fill="#4B5A2A"/>
<path d="M51.0465 34.9836C51.1928 35.1299 50.9994 35.4752 50.756 35.3262C50.4794 35.1572 50.8513 34.7885 51.0465 34.9836Z" fill="#4B5A2A"/>
<path d="M53.3498 25.213C53.5122 25.3757 53.2835 25.7398 53.0453 25.5349C52.8194 25.3404 53.1728 25.0353 53.3498 25.213Z" fill="#4B5A2A"/>
<path d="M43.2994 39.0315C43.4705 39.2033 43.1775 39.5116 42.9729 39.3754C42.7822 39.161 43.1171 38.8489 43.2994 39.0315Z" fill="#4B5A2A"/>
<path d="M47.3304 37.5488C47.1202 37.3285 47.5661 37.0803 47.689 37.3131C47.785 37.495 47.4931 37.7192 47.3304 37.5488Z" fill="#4B5A2A"/>
<path d="M49.0554 37.4423C48.7499 37.6902 48.5571 37.0743 48.9786 37.1008C49.1741 37.113 49.1794 37.3417 49.0554 37.4423Z" fill="#4B5A2A"/>
<path d="M43.6328 40.1502C43.6887 40.0849 43.9261 39.9767 43.991 40.0678C44.1426 40.2818 43.5867 40.5859 43.6014 40.2075C43.6069 40.1855 43.6181 40.1673 43.6328 40.1502Z" fill="#4B5A2A"/>
<path d="M44.5194 37.737C44.5808 37.7212 44.6674 37.7684 44.7013 37.8228C44.5627 38.2659 44.2114 37.8148 44.5194 37.737Z" fill="#4B5A2A"/>
<path d="M51.0156 29.9896L50.988 30.1803L50.8082 30.2145L50.7925 30.0197C50.8588 29.9498 50.9339 29.9467 51.0156 29.9896Z" fill="#4B5A2A"/>
<path d="M25.711 23.8496C26.1024 23.7704 26.1866 24.3262 25.8692 24.395C25.4547 24.4847 25.3943 23.9135 25.711 23.8496Z" fill="#4B5A2A"/>
<path d="M24.4389 26.1923C24.7828 25.9148 25.0807 26.6179 24.6201 26.6378C24.3481 26.6497 24.2723 26.3268 24.4389 26.1923Z" fill="#4B5A2A"/>
<path d="M26.6876 22.2447C27.0437 22.1899 27.0724 22.7408 26.7473 22.7614C26.4295 22.7817 26.4026 22.2887 26.6876 22.2447Z" fill="#4B5A2A"/>
<path d="M27.8744 20.9919C28.0092 21.1267 27.9219 21.3875 27.7278 21.4039C27.1796 21.4503 27.5521 20.6693 27.8744 20.9919Z" fill="#4B5A2A"/>
<path d="M23.0229 27.8989C23.407 27.7848 23.4545 28.3263 23.1475 28.3745C22.9 28.4136 22.753 27.9793 23.0229 27.8989Z" fill="#4B5A2A"/>
<path d="M23.4752 26.4364C23.7901 26.4189 23.7915 26.8958 23.502 26.9144C23.2129 26.9329 23.1253 26.4559 23.4752 26.4364Z" fill="#4B5A2A"/>
<path d="M24.4189 24.8966C24.7625 24.8436 24.8079 25.36 24.4752 25.3697C24.1874 25.3781 24.1682 24.9354 24.4189 24.8966Z" fill="#4B5A2A"/>
<path d="M22.6924 29.8723C22.507 29.6869 22.7836 29.3008 23.0318 29.5155C23.2766 29.7271 22.8792 30.0591 22.6924 29.8723Z" fill="#4B5A2A"/>
<path d="M28.2567 19.5234C28.666 19.397 28.7082 20.0167 28.2861 19.9347C28.1045 19.8994 28.0835 19.5768 28.2567 19.5234Z" fill="#4B5A2A"/>
<path d="M26.6502 20.574C26.9686 20.5565 26.9135 21.0167 26.646 21.0198C26.3415 21.0237 26.3555 20.59 26.6502 20.574Z" fill="#4B5A2A"/>
<path d="M23.9579 28.6052C24.2142 28.6035 24.2498 29.0636 23.9579 29.0626C23.666 29.0616 23.6538 28.6077 23.9579 28.6052Z" fill="#4B5A2A"/>
<path d="M23.3036 30.1651C23.5756 30.1166 23.666 30.5241 23.3916 30.5729C23.1171 30.6218 23.0319 30.2137 23.3036 30.1651Z" fill="#4B5A2A"/>
<path d="M22.9902 31.8962C22.9343 31.9531 22.7615 31.9521 22.7164 31.8812C22.6253 31.6948 22.7147 31.4836 22.9389 31.5265C23.0841 31.5708 23.0761 31.8089 22.9902 31.8962Z" fill="#4B5A2A"/>
<path d="M24.843 23.2805C24.389 23.3419 24.792 22.7704 24.8768 23.0665C24.8978 23.1394 24.8713 23.2142 24.843 23.2805Z" fill="#4B5A2A"/>
<path d="M38.7938 40.1275C38.7187 40.2026 38.5909 40.241 38.4921 40.1921L38.4271 40.1146C38.3936 39.9917 38.5633 39.7466 38.6918 39.7264C38.9181 39.6911 38.9289 39.9924 38.7938 40.1272V40.1275Z" fill="#4B5A2A"/>
<path d="M40.961 38.1248C41.108 38.3224 40.7857 38.6513 40.6 38.5033C40.3992 38.3427 40.8004 37.9653 40.961 38.1248Z" fill="#4B5A2A"/>
<path d="M39.7037 39.3095C39.7616 39.2924 39.8335 39.2927 39.8884 39.32C40.1003 39.4792 39.8164 39.8398 39.6233 39.6897C39.5029 39.5961 39.5643 39.351 39.704 39.3098L39.7037 39.3095Z" fill="#4B5A2A"/>
<path d="M37.7598 42.1291C37.7999 41.9071 37.9857 41.5817 38.1289 41.3994C38.2849 41.2008 38.4445 41.1603 38.2766 41.4424C38.1418 41.6686 37.9172 41.9119 37.7598 42.1291Z" fill="#4B5A2A"/>
<path d="M37.5824 42.725C37.6431 42.805 37.4727 43.2086 37.3037 43.0906C37.1616 42.9904 37.4899 42.6035 37.5824 42.725Z" fill="#4B5A2A"/>
<path d="M41.6678 36.8948C41.5543 37.0216 41.3982 37.229 41.2372 37.2848C41.1992 37.2981 41.1468 37.3183 41.145 37.2611C41.1426 37.1735 41.5295 36.8282 41.6678 36.8948Z" fill="#4B5A2A"/>
<path d="M39.0764 43.9491C39.4598 43.8765 39.3904 44.5507 39.016 44.3792C38.8145 44.2871 38.8854 43.9854 39.0764 43.9491Z" fill="#4B5A2A"/>
<defs>
<linearGradient id="paint0_linear_390_3326" x1="38.5" y1="0" x2="38.5" y2="77" gradientUnits="userSpaceOnUse">
<stop stop-color="#F7F3CF"/>
<stop offset="1" stop-color="#EFE28B"/>
</linearGradient>
</defs>
</svg>
